<svg xmlns="http://www.w3.org/2000/svg" viewBox="0 0 360 180" width="360" height="180" shape-rendering="crispEdges">
<rect width="100%" height="100%" fill="#fff"/>
<g fill="#111">
<rect x="17" y="16" width="1" height="1"/>
<rect x="78" y="16" width="1" height="1"/>
<rect x="81" y="16" width="1" height="1"/>
<rect x="17" y="17" width="1" height="1"/>
<rect x="32" y="17" width="1" height="1"/>
<rect x="37" y="17" width="1" height="1"/>
<rect x="61" y="17" width="3" height="1"/>
<rect x="78" y="17" width="1" height="1"/>
<rect x="97" y="17" width="1" height="1"/>
<rect x="17" y="18" width="1" height="1"/>
<rect x="32" y="18" width="1" height="1"/>
<rect x="37" y="18" width="1" height="1"/>
<rect x="62" y="18" width="1" height="1"/>
<rect x="78" y="18" width="1" height="1"/>
<rect x="97" y="18" width="1" height="1"/>
<rect x="17" y="19" width="1" height="1"/>
<rect x="19" y="19" width="3" height="1"/>
<rect x="26" y="19" width="4" height="1"/>
<rect x="31" y="19" width="4" height="1"/>
<rect x="36" y="19" width="4" height="1"/>
<rect x="43" y="19" width="3" height="1"/>
<rect x="49" y="19" width="1" height="1"/>
<rect x="51" y="19" width="3" height="1"/>
<rect x="58" y="19" width="2" height="1"/>
<rect x="62" y="19" width="1" height="1"/>
<rect x="65" y="19" width="1" height="1"/>
<rect x="67" y="19" width="3" height="1"/>
<rect x="74" y="19" width="3" height="1"/>
<rect x="78" y="19" width="1" height="1"/>
<rect x="81" y="19" width="1" height="1"/>
<rect x="85" y="19" width="4" height="1"/>
<rect x="91" y="19" width="4" height="1"/>
<rect x="96" y="19" width="4" height="1"/>
<rect x="103" y="19" width="4" height="1"/>
<rect x="110" y="19" width="1" height="1"/>
<rect x="112" y="19" width="2" height="1"/>
<rect x="17" y="20" width="2" height="1"/>
<rect x="22" y="20" width="1" height="1"/>
<rect x="25" y="20" width="1" height="1"/>
<rect x="29" y="20" width="1" height="1"/>
<rect x="32" y="20" width="1" height="1"/>
<rect x="37" y="20" width="1" height="1"/>
<rect x="42" y="20" width="1" height="1"/>
<rect x="46" y="20" width="1" height="1"/>
<rect x="49" y="20" width="2" height="1"/>
<rect x="54" y="20" width="1" height="1"/>
<rect x="58" y="20" width="1" height="1"/>
<rect x="62" y="20" width="1" height="1"/>
<rect x="65" y="20" width="2" height="1"/>
<rect x="70" y="20" width="1" height="1"/>
<rect x="73" y="20" width="1" height="1"/>
<rect x="77" y="20" width="2" height="1"/>
<rect x="81" y="20" width="1" height="1"/>
<rect x="84" y="20" width="1" height="1"/>
<rect x="90" y="20" width="1" height="1"/>
<rect x="94" y="20" width="1" height="1"/>
<rect x="97" y="20" width="1" height="1"/>
<rect x="102" y="20" width="1" height="1"/>
<rect x="106" y="20" width="2" height="1"/>
<rect x="110" y="20" width="2" height="1"/>
<rect x="17" y="21" width="1" height="1"/>
<rect x="22" y="21" width="1" height="1"/>
<rect x="29" y="21" width="1" height="1"/>
<rect x="32" y="21" width="1" height="1"/>
<rect x="37" y="21" width="1" height="1"/>
<rect x="42" y="21" width="1" height="1"/>
<rect x="46" y="21" width="2" height="1"/>
<rect x="49" y="21" width="1" height="1"/>
<rect x="54" y="21" width="1" height="1"/>
<rect x="57" y="21" width="2" height="1"/>
<rect x="62" y="21" width="1" height="1"/>
<rect x="65" y="21" width="1" height="1"/>
<rect x="70" y="21" width="1" height="1"/>
<rect x="73" y="21" width="1" height="1"/>
<rect x="78" y="21" width="1" height="1"/>
<rect x="81" y="21" width="1" height="1"/>
<rect x="84" y="21" width="1" height="1"/>
<rect x="94" y="21" width="1" height="1"/>
<rect x="97" y="21" width="1" height="1"/>
<rect x="102" y="21" width="1" height="1"/>
<rect x="107" y="21" width="1" height="1"/>
<rect x="110" y="21" width="1" height="1"/>
<rect x="17" y="22" width="1" height="1"/>
<rect x="22" y="22" width="1" height="1"/>
<rect x="25" y="22" width="5" height="1"/>
<rect x="32" y="22" width="1" height="1"/>
<rect x="37" y="22" width="1" height="1"/>
<rect x="42" y="22" width="6" height="1"/>
<rect x="49" y="22" width="1" height="1"/>
<rect x="54" y="22" width="2" height="1"/>
<rect x="57" y="22" width="1" height="1"/>
<rect x="62" y="22" width="1" height="1"/>
<rect x="65" y="22" width="1" height="1"/>
<rect x="70" y="22" width="1" height="1"/>
<rect x="73" y="22" width="1" height="1"/>
<rect x="78" y="22" width="1" height="1"/>
<rect x="81" y="22" width="1" height="1"/>
<rect x="84" y="22" width="1" height="1"/>
<rect x="90" y="22" width="5" height="1"/>
<rect x="97" y="22" width="1" height="1"/>
<rect x="102" y="22" width="1" height="1"/>
<rect x="107" y="22" width="1" height="1"/>
<rect x="110" y="22" width="1" height="1"/>
<rect x="17" y="23" width="1" height="1"/>
<rect x="22" y="23" width="1" height="1"/>
<rect x="25" y="23" width="1" height="1"/>
<rect x="29" y="23" width="1" height="1"/>
<rect x="32" y="23" width="1" height="1"/>
<rect x="37" y="23" width="1" height="1"/>
<rect x="42" y="23" width="1" height="1"/>
<rect x="49" y="23" width="1" height="1"/>
<rect x="55" y="23" width="1" height="1"/>
<rect x="57" y="23" width="1" height="1"/>
<rect x="62" y="23" width="1" height="1"/>
<rect x="65" y="23" width="1" height="1"/>
<rect x="70" y="23" width="1" height="1"/>
<rect x="73" y="23" width="1" height="1"/>
<rect x="78" y="23" width="1" height="1"/>
<rect x="81" y="23" width="1" height="1"/>
<rect x="84" y="23" width="1" height="1"/>
<rect x="90" y="23" width="1" height="1"/>
<rect x="94" y="23" width="1" height="1"/>
<rect x="97" y="23" width="1" height="1"/>
<rect x="102" y="23" width="1" height="1"/>
<rect x="107" y="23" width="1" height="1"/>
<rect x="110" y="23" width="1" height="1"/>
<rect x="17" y="24" width="2" height="1"/>
<rect x="22" y="24" width="1" height="1"/>
<rect x="25" y="24" width="1" height="1"/>
<rect x="29" y="24" width="1" height="1"/>
<rect x="32" y="24" width="1" height="1"/>
<rect x="37" y="24" width="1" height="1"/>
<rect x="42" y="24" width="1" height="1"/>
<rect x="49" y="24" width="1" height="1"/>
<rect x="55" y="24" width="3" height="1"/>
<rect x="62" y="24" width="1" height="1"/>
<rect x="65" y="24" width="1" height="1"/>
<rect x="70" y="24" width="1" height="1"/>
<rect x="73" y="24" width="1" height="1"/>
<rect x="77" y="24" width="2" height="1"/>
<rect x="81" y="24" width="1" height="1"/>
<rect x="84" y="24" width="1" height="1"/>
<rect x="90" y="24" width="1" height="1"/>
<rect x="94" y="24" width="1" height="1"/>
<rect x="97" y="24" width="1" height="1"/>
<rect x="102" y="24" width="1" height="1"/>
<rect x="106" y="24" width="2" height="1"/>
<rect x="110" y="24" width="1" height="1"/>
<rect x="17" y="25" width="1" height="1"/>
<rect x="19" y="25" width="3" height="1"/>
<rect x="25" y="25" width="5" height="1"/>
<rect x="33" y="25" width="2" height="1"/>
<rect x="38" y="25" width="2" height="1"/>
<rect x="43" y="25" width="4" height="1"/>
<rect x="49" y="25" width="1" height="1"/>
<rect x="56" y="25" width="1" height="1"/>
<rect x="61" y="25" width="3" height="1"/>
<rect x="65" y="25" width="1" height="1"/>
<rect x="70" y="25" width="1" height="1"/>
<rect x="74" y="25" width="3" height="1"/>
<rect x="78" y="25" width="1" height="1"/>
<rect x="81" y="25" width="1" height="1"/>
<rect x="85" y="25" width="4" height="1"/>
<rect x="90" y="25" width="5" height="1"/>
<rect x="98" y="25" width="2" height="1"/>
<rect x="103" y="25" width="4" height="1"/>
<rect x="110" y="25" width="1" height="1"/>
<rect x="56" y="26" width="1" height="1"/>
<rect x="55" y="27" width="1" height="1"/>
<rect x="53" y="28" width="3" height="1"/>
<rect x="16" y="30" width="328" height="1"/>
<rect x="230" y="96" width="22" height="1"/>
<rect x="230" y="97" width="1" height="1"/>
<rect x="251" y="97" width="1" height="1"/>
<rect x="203" y="98" width="4" height="1"/>
<rect x="210" y="98" width="3" height="1"/>
<rect x="216" y="98" width="3" height="1"/>
<rect x="222" y="98" width="1" height="1"/>
<rect x="230" y="98" width="1" height="1"/>
<rect x="232" y="98" width="14" height="1"/>
<rect x="251" y="98" width="1" height="1"/>
<rect x="202" y="99" width="1" height="1"/>
<rect x="206" y="99" width="1" height="1"/>
<rect x="209" y="99" width="1" height="1"/>
<rect x="213" y="99" width="1" height="1"/>
<rect x="216" y="99" width="1" height="1"/>
<rect x="218" y="99" width="1" height="1"/>
<rect x="222" y="99" width="1" height="1"/>
<rect x="230" y="99" width="1" height="1"/>
<rect x="232" y="99" width="14" height="1"/>
<rect x="251" y="99" width="3" height="1"/>
<rect x="202" y="100" width="1" height="1"/>
<rect x="206" y="100" width="1" height="1"/>
<rect x="213" y="100" width="1" height="1"/>
<rect x="216" y="100" width="1" height="1"/>
<rect x="218" y="100" width="1" height="1"/>
<rect x="221" y="100" width="1" height="1"/>
<rect x="230" y="100" width="1" height="1"/>
<rect x="232" y="100" width="14" height="1"/>
<rect x="251" y="100" width="3" height="1"/>
<rect x="202" y="101" width="2" height="1"/>
<rect x="206" y="101" width="1" height="1"/>
<rect x="213" y="101" width="1" height="1"/>
<rect x="216" y="101" width="1" height="1"/>
<rect x="218" y="101" width="1" height="1"/>
<rect x="220" y="101" width="1" height="1"/>
<rect x="222" y="101" width="2" height="1"/>
<rect x="230" y="101" width="1" height="1"/>
<rect x="232" y="101" width="14" height="1"/>
<rect x="251" y="101" width="3" height="1"/>
<rect x="203" y="102" width="3" height="1"/>
<rect x="212" y="102" width="2" height="1"/>
<rect x="216" y="102" width="1" height="1"/>
<rect x="218" y="102" width="1" height="1"/>
<rect x="220" y="102" width="2" height="1"/>
<rect x="224" y="102" width="1" height="1"/>
<rect x="230" y="102" width="1" height="1"/>
<rect x="232" y="102" width="14" height="1"/>
<rect x="251" y="102" width="3" height="1"/>
<rect x="202" y="103" width="1" height="1"/>
<rect x="206" y="103" width="1" height="1"/>
<rect x="211" y="103" width="2" height="1"/>
<rect x="216" y="103" width="4" height="1"/>
<rect x="221" y="103" width="1" height="1"/>
<rect x="224" y="103" width="1" height="1"/>
<rect x="230" y="103" width="1" height="1"/>
<rect x="232" y="103" width="14" height="1"/>
<rect x="251" y="103" width="3" height="1"/>
<rect x="202" y="104" width="1" height="1"/>
<rect x="207" y="104" width="1" height="1"/>
<rect x="210" y="104" width="2" height="1"/>
<rect x="219" y="104" width="1" height="1"/>
<rect x="221" y="104" width="1" height="1"/>
<rect x="224" y="104" width="1" height="1"/>
<rect x="230" y="104" width="1" height="1"/>
<rect x="232" y="104" width="14" height="1"/>
<rect x="251" y="104" width="1" height="1"/>
<rect x="202" y="105" width="1" height="1"/>
<rect x="206" y="105" width="2" height="1"/>
<rect x="209" y="105" width="2" height="1"/>
<rect x="218" y="105" width="1" height="1"/>
<rect x="221" y="105" width="1" height="1"/>
<rect x="224" y="105" width="1" height="1"/>
<rect x="230" y="105" width="1" height="1"/>
<rect x="251" y="105" width="1" height="1"/>
<rect x="203" y="106" width="4" height="1"/>
<rect x="209" y="106" width="6" height="1"/>
<rect x="217" y="106" width="2" height="1"/>
<rect x="222" y="106" width="2" height="1"/>
<rect x="230" y="106" width="22" height="1"/>
</g>
</svg>
