<svg xmlns="http://www.w3.org/2000/svg" viewBox="0 0 360 180" width="360" height="180" shape-rendering="crispEdges">
<rect width="100%" height="100%" fill="#fff"/>
<g fill="#111">
<rect x="17" y="16" width="1" height="1"/>
<rect x="17" y="17" width="1" height="1"/>
<rect x="33" y="17" width="1" height="1"/>
<rect x="38" y="17" width="1" height="1"/>
<rect x="17" y="18" width="1" height="1"/>
<rect x="33" y="18" width="1" height="1"/>
<rect x="38" y="18" width="1" height="1"/>
<rect x="17" y="19" width="1" height="1"/>
<rect x="19" y="19" width="3" height="1"/>
<rect x="25" y="19" width="1" height="1"/>
<rect x="30" y="19" width="1" height="1"/>
<rect x="32" y="19" width="4" height="1"/>
<rect x="37" y="19" width="4" height="1"/>
<rect x="44" y="19" width="4" height="1"/>
<rect x="51" y="19" width="1" height="1"/>
<rect x="53" y="19" width="3" height="1"/>
<rect x="17" y="20" width="2" height="1"/>
<rect x="22" y="20" width="1" height="1"/>
<rect x="25" y="20" width="1" height="1"/>
<rect x="30" y="20" width="1" height="1"/>
<rect x="33" y="20" width="1" height="1"/>
<rect x="38" y="20" width="1" height="1"/>
<rect x="43" y="20" width="1" height="1"/>
<rect x="47" y="20" width="2" height="1"/>
<rect x="51" y="20" width="2" height="1"/>
<rect x="56" y="20" width="1" height="1"/>
<rect x="17" y="21" width="1" height="1"/>
<rect x="22" y="21" width="1" height="1"/>
<rect x="25" y="21" width="1" height="1"/>
<rect x="30" y="21" width="1" height="1"/>
<rect x="33" y="21" width="1" height="1"/>
<rect x="38" y="21" width="1" height="1"/>
<rect x="43" y="21" width="1" height="1"/>
<rect x="48" y="21" width="1" height="1"/>
<rect x="51" y="21" width="1" height="1"/>
<rect x="56" y="21" width="1" height="1"/>
<rect x="17" y="22" width="1" height="1"/>
<rect x="22" y="22" width="1" height="1"/>
<rect x="25" y="22" width="1" height="1"/>
<rect x="30" y="22" width="1" height="1"/>
<rect x="33" y="22" width="1" height="1"/>
<rect x="38" y="22" width="1" height="1"/>
<rect x="43" y="22" width="1" height="1"/>
<rect x="48" y="22" width="1" height="1"/>
<rect x="51" y="22" width="1" height="1"/>
<rect x="56" y="22" width="1" height="1"/>
<rect x="17" y="23" width="1" height="1"/>
<rect x="22" y="23" width="1" height="1"/>
<rect x="25" y="23" width="1" height="1"/>
<rect x="30" y="23" width="1" height="1"/>
<rect x="33" y="23" width="1" height="1"/>
<rect x="38" y="23" width="1" height="1"/>
<rect x="43" y="23" width="1" height="1"/>
<rect x="48" y="23" width="1" height="1"/>
<rect x="51" y="23" width="1" height="1"/>
<rect x="56" y="23" width="1" height="1"/>
<rect x="17" y="24" width="2" height="1"/>
<rect x="22" y="24" width="1" height="1"/>
<rect x="25" y="24" width="1" height="1"/>
<rect x="29" y="24" width="2" height="1"/>
<rect x="33" y="24" width="1" height="1"/>
<rect x="38" y="24" width="1" height="1"/>
<rect x="43" y="24" width="1" height="1"/>
<rect x="47" y="24" width="2" height="1"/>
<rect x="51" y="24" width="1" height="1"/>
<rect x="56" y="24" width="1" height="1"/>
<rect x="17" y="25" width="1" height="1"/>
<rect x="19" y="25" width="3" height="1"/>
<rect x="26" y="25" width="3" height="1"/>
<rect x="30" y="25" width="1" height="1"/>
<rect x="34" y="25" width="2" height="1"/>
<rect x="39" y="25" width="2" height="1"/>
<rect x="44" y="25" width="4" height="1"/>
<rect x="51" y="25" width="1" height="1"/>
<rect x="56" y="25" width="1" height="1"/>
<rect x="16" y="30" width="328" height="1"/>
<rect x="183" y="87" width="1" height="1"/>
<rect x="207" y="87" width="1" height="1"/>
<rect x="149" y="88" width="4" height="1"/>
<rect x="183" y="88" width="1" height="1"/>
<rect x="207" y="88" width="1" height="1"/>
<rect x="148" y="89" width="1" height="1"/>
<rect x="153" y="89" width="2" height="1"/>
<rect x="183" y="89" width="1" height="1"/>
<rect x="207" y="89" width="1" height="1"/>
<rect x="147" y="90" width="1" height="1"/>
<rect x="154" y="90" width="1" height="1"/>
<rect x="157" y="90" width="1" height="1"/>
<rect x="159" y="90" width="3" height="1"/>
<rect x="166" y="90" width="3" height="1"/>
<rect x="172" y="90" width="1" height="1"/>
<rect x="174" y="90" width="3" height="1"/>
<rect x="183" y="90" width="1" height="1"/>
<rect x="185" y="90" width="3" height="1"/>
<rect x="192" y="90" width="4" height="1"/>
<rect x="200" y="90" width="4" height="1"/>
<rect x="207" y="90" width="1" height="1"/>
<rect x="211" y="90" width="2" height="1"/>
<rect x="147" y="91" width="1" height="1"/>
<rect x="154" y="91" width="1" height="1"/>
<rect x="157" y="91" width="2" height="1"/>
<rect x="162" y="91" width="1" height="1"/>
<rect x="165" y="91" width="1" height="1"/>
<rect x="169" y="91" width="1" height="1"/>
<rect x="172" y="91" width="2" height="1"/>
<rect x="177" y="91" width="1" height="1"/>
<rect x="183" y="91" width="2" height="1"/>
<rect x="188" y="91" width="1" height="1"/>
<rect x="191" y="91" width="1" height="1"/>
<rect x="195" y="91" width="2" height="1"/>
<rect x="199" y="91" width="1" height="1"/>
<rect x="203" y="91" width="2" height="1"/>
<rect x="207" y="91" width="1" height="1"/>
<rect x="210" y="91" width="1" height="1"/>
<rect x="147" y="92" width="1" height="1"/>
<rect x="154" y="92" width="1" height="1"/>
<rect x="157" y="92" width="1" height="1"/>
<rect x="162" y="92" width="1" height="1"/>
<rect x="165" y="92" width="1" height="1"/>
<rect x="169" y="92" width="2" height="1"/>
<rect x="172" y="92" width="1" height="1"/>
<rect x="177" y="92" width="1" height="1"/>
<rect x="183" y="92" width="1" height="1"/>
<rect x="188" y="92" width="1" height="1"/>
<rect x="191" y="92" width="1" height="1"/>
<rect x="196" y="92" width="1" height="1"/>
<rect x="199" y="92" width="1" height="1"/>
<rect x="204" y="92" width="1" height="1"/>
<rect x="207" y="92" width="1" height="1"/>
<rect x="209" y="92" width="1" height="1"/>
<rect x="147" y="93" width="1" height="1"/>
<rect x="154" y="93" width="1" height="1"/>
<rect x="157" y="93" width="1" height="1"/>
<rect x="162" y="93" width="1" height="1"/>
<rect x="165" y="93" width="6" height="1"/>
<rect x="172" y="93" width="1" height="1"/>
<rect x="177" y="93" width="1" height="1"/>
<rect x="183" y="93" width="1" height="1"/>
<rect x="188" y="93" width="1" height="1"/>
<rect x="191" y="93" width="1" height="1"/>
<rect x="196" y="93" width="1" height="1"/>
<rect x="199" y="93" width="1" height="1"/>
<rect x="204" y="93" width="1" height="1"/>
<rect x="207" y="93" width="3" height="1"/>
<rect x="147" y="94" width="1" height="1"/>
<rect x="154" y="94" width="1" height="1"/>
<rect x="157" y="94" width="1" height="1"/>
<rect x="162" y="94" width="1" height="1"/>
<rect x="165" y="94" width="1" height="1"/>
<rect x="172" y="94" width="1" height="1"/>
<rect x="177" y="94" width="1" height="1"/>
<rect x="183" y="94" width="1" height="1"/>
<rect x="188" y="94" width="1" height="1"/>
<rect x="191" y="94" width="1" height="1"/>
<rect x="196" y="94" width="1" height="1"/>
<rect x="199" y="94" width="1" height="1"/>
<rect x="204" y="94" width="1" height="1"/>
<rect x="207" y="94" width="1" height="1"/>
<rect x="210" y="94" width="1" height="1"/>
<rect x="148" y="95" width="1" height="1"/>
<rect x="153" y="95" width="1" height="1"/>
<rect x="157" y="95" width="2" height="1"/>
<rect x="161" y="95" width="2" height="1"/>
<rect x="165" y="95" width="1" height="1"/>
<rect x="172" y="95" width="1" height="1"/>
<rect x="177" y="95" width="1" height="1"/>
<rect x="183" y="95" width="2" height="1"/>
<rect x="188" y="95" width="1" height="1"/>
<rect x="191" y="95" width="1" height="1"/>
<rect x="195" y="95" width="2" height="1"/>
<rect x="199" y="95" width="1" height="1"/>
<rect x="203" y="95" width="2" height="1"/>
<rect x="207" y="95" width="1" height="1"/>
<rect x="210" y="95" width="2" height="1"/>
<rect x="149" y="96" width="4" height="1"/>
<rect x="157" y="96" width="1" height="1"/>
<rect x="159" y="96" width="3" height="1"/>
<rect x="166" y="96" width="4" height="1"/>
<rect x="172" y="96" width="1" height="1"/>
<rect x="177" y="96" width="1" height="1"/>
<rect x="183" y="96" width="1" height="1"/>
<rect x="185" y="96" width="3" height="1"/>
<rect x="192" y="96" width="4" height="1"/>
<rect x="200" y="96" width="4" height="1"/>
<rect x="207" y="96" width="1" height="1"/>
<rect x="211" y="96" width="2" height="1"/>
<rect x="157" y="97" width="1" height="1"/>
<rect x="157" y="98" width="1" height="1"/>
<rect x="157" y="99" width="1" height="1"/>
</g>
</svg>
