<svg xmlns="http://www.w3.org/2000/svg" viewBox="0 0 360 180" width="360" height="180" shape-rendering="crispEdges">
<rect width="100%" height="100%" fill="#fff"/>
<g fill="#111">
<rect x="23" y="16" width="1" height="1"/>
<rect x="44" y="16" width="1" height="1"/>
<rect x="51" y="16" width="1" height="1"/>
<rect x="23" y="17" width="1" height="1"/>
<rect x="44" y="17" width="1" height="1"/>
<rect x="51" y="17" width="1" height="1"/>
<rect x="23" y="18" width="1" height="1"/>
<rect x="44" y="18" width="1" height="1"/>
<rect x="51" y="18" width="1" height="1"/>
<rect x="18" y="19" width="4" height="1"/>
<rect x="23" y="19" width="1" height="1"/>
<rect x="25" y="19" width="3" height="1"/>
<rect x="32" y="19" width="3" height="1"/>
<rect x="39" y="19" width="4" height="1"/>
<rect x="44" y="19" width="1" height="1"/>
<rect x="48" y="19" width="2" height="1"/>
<rect x="51" y="19" width="1" height="1"/>
<rect x="53" y="19" width="3" height="1"/>
<rect x="60" y="19" width="4" height="1"/>
<rect x="66" y="19" width="2" height="1"/>
<rect x="71" y="19" width="2" height="1"/>
<rect x="17" y="20" width="1" height="1"/>
<rect x="23" y="20" width="2" height="1"/>
<rect x="28" y="20" width="1" height="1"/>
<rect x="31" y="20" width="1" height="1"/>
<rect x="35" y="20" width="1" height="1"/>
<rect x="38" y="20" width="1" height="1"/>
<rect x="44" y="20" width="1" height="1"/>
<rect x="47" y="20" width="1" height="1"/>
<rect x="51" y="20" width="2" height="1"/>
<rect x="56" y="20" width="1" height="1"/>
<rect x="59" y="20" width="1" height="1"/>
<rect x="63" y="20" width="2" height="1"/>
<rect x="67" y="20" width="2" height="1"/>
<rect x="70" y="20" width="1" height="1"/>
<rect x="17" y="21" width="1" height="1"/>
<rect x="23" y="21" width="1" height="1"/>
<rect x="28" y="21" width="1" height="1"/>
<rect x="31" y="21" width="1" height="1"/>
<rect x="35" y="21" width="2" height="1"/>
<rect x="38" y="21" width="1" height="1"/>
<rect x="44" y="21" width="1" height="1"/>
<rect x="46" y="21" width="1" height="1"/>
<rect x="51" y="21" width="1" height="1"/>
<rect x="56" y="21" width="1" height="1"/>
<rect x="59" y="21" width="1" height="1"/>
<rect x="64" y="21" width="1" height="1"/>
<rect x="68" y="21" width="1" height="1"/>
<rect x="70" y="21" width="1" height="1"/>
<rect x="17" y="22" width="1" height="1"/>
<rect x="23" y="22" width="1" height="1"/>
<rect x="28" y="22" width="1" height="1"/>
<rect x="31" y="22" width="6" height="1"/>
<rect x="38" y="22" width="1" height="1"/>
<rect x="44" y="22" width="3" height="1"/>
<rect x="51" y="22" width="1" height="1"/>
<rect x="56" y="22" width="1" height="1"/>
<rect x="59" y="22" width="1" height="1"/>
<rect x="64" y="22" width="1" height="1"/>
<rect x="69" y="22" width="1" height="1"/>
<rect x="17" y="23" width="1" height="1"/>
<rect x="23" y="23" width="1" height="1"/>
<rect x="28" y="23" width="1" height="1"/>
<rect x="31" y="23" width="1" height="1"/>
<rect x="38" y="23" width="1" height="1"/>
<rect x="44" y="23" width="1" height="1"/>
<rect x="47" y="23" width="1" height="1"/>
<rect x="51" y="23" width="1" height="1"/>
<rect x="56" y="23" width="1" height="1"/>
<rect x="59" y="23" width="1" height="1"/>
<rect x="64" y="23" width="1" height="1"/>
<rect x="68" y="23" width="1" height="1"/>
<rect x="70" y="23" width="1" height="1"/>
<rect x="17" y="24" width="1" height="1"/>
<rect x="23" y="24" width="1" height="1"/>
<rect x="28" y="24" width="1" height="1"/>
<rect x="31" y="24" width="1" height="1"/>
<rect x="38" y="24" width="1" height="1"/>
<rect x="44" y="24" width="1" height="1"/>
<rect x="47" y="24" width="2" height="1"/>
<rect x="51" y="24" width="2" height="1"/>
<rect x="56" y="24" width="1" height="1"/>
<rect x="59" y="24" width="1" height="1"/>
<rect x="63" y="24" width="2" height="1"/>
<rect x="67" y="24" width="2" height="1"/>
<rect x="70" y="24" width="2" height="1"/>
<rect x="18" y="25" width="4" height="1"/>
<rect x="23" y="25" width="1" height="1"/>
<rect x="28" y="25" width="1" height="1"/>
<rect x="32" y="25" width="4" height="1"/>
<rect x="39" y="25" width="4" height="1"/>
<rect x="44" y="25" width="1" height="1"/>
<rect x="48" y="25" width="2" height="1"/>
<rect x="51" y="25" width="1" height="1"/>
<rect x="53" y="25" width="3" height="1"/>
<rect x="60" y="25" width="4" height="1"/>
<rect x="66" y="25" width="2" height="1"/>
<rect x="71" y="25" width="2" height="1"/>
<rect x="16" y="30" width="328" height="1"/>
<rect x="24" y="82" width="16" height="1"/>
<rect x="24" y="83" width="16" height="1"/>
<rect x="24" y="84" width="16" height="1"/>
<rect x="24" y="85" width="12" height="1"/>
<rect x="39" y="85" width="1" height="1"/>
<rect x="24" y="86" width="11" height="1"/>
<rect x="39" y="86" width="1" height="1"/>
<rect x="24" y="87" width="11" height="1"/>
<rect x="39" y="87" width="1" height="1"/>
<rect x="24" y="88" width="10" height="1"/>
<rect x="38" y="88" width="2" height="1"/>
<rect x="24" y="89" width="2" height="1"/>
<rect x="29" y="89" width="4" height="1"/>
<rect x="38" y="89" width="2" height="1"/>
<rect x="24" y="90" width="2" height="1"/>
<rect x="30" y="90" width="2" height="1"/>
<rect x="37" y="90" width="3" height="1"/>
<rect x="24" y="91" width="2" height="1"/>
<rect x="31" y="91" width="1" height="1"/>
<rect x="36" y="91" width="4" height="1"/>
<rect x="24" y="92" width="3" height="1"/>
<rect x="35" y="92" width="5" height="1"/>
<rect x="24" y="93" width="4" height="1"/>
<rect x="35" y="93" width="5" height="1"/>
<rect x="24" y="94" width="5" height="1"/>
<rect x="34" y="94" width="6" height="1"/>
<rect x="24" y="95" width="6" height="1"/>
<rect x="33" y="95" width="7" height="1"/>
<rect x="24" y="96" width="16" height="1"/>
<rect x="24" y="97" width="16" height="1"/>
</g>
</svg>
