<svg xmlns="http://www.w3.org/2000/svg" viewBox="0 0 360 180" width="360" height="180" shape-rendering="crispEdges">
<rect width="100%" height="100%" fill="#fff"/>
<g fill="#111">
<rect x="23" y="16" width="1" height="1"/>
<rect x="44" y="16" width="1" height="1"/>
<rect x="51" y="16" width="1" height="1"/>
<rect x="23" y="17" width="1" height="1"/>
<rect x="44" y="17" width="1" height="1"/>
<rect x="51" y="17" width="1" height="1"/>
<rect x="23" y="18" width="1" height="1"/>
<rect x="44" y="18" width="1" height="1"/>
<rect x="51" y="18" width="1" height="1"/>
<rect x="18" y="19" width="4" height="1"/>
<rect x="23" y="19" width="1" height="1"/>
<rect x="25" y="19" width="3" height="1"/>
<rect x="32" y="19" width="3" height="1"/>
<rect x="39" y="19" width="4" height="1"/>
<rect x="44" y="19" width="1" height="1"/>
<rect x="48" y="19" width="2" height="1"/>
<rect x="51" y="19" width="1" height="1"/>
<rect x="53" y="19" width="3" height="1"/>
<rect x="60" y="19" width="4" height="1"/>
<rect x="66" y="19" width="2" height="1"/>
<rect x="71" y="19" width="2" height="1"/>
<rect x="17" y="20" width="1" height="1"/>
<rect x="23" y="20" width="2" height="1"/>
<rect x="28" y="20" width="1" height="1"/>
<rect x="31" y="20" width="1" height="1"/>
<rect x="35" y="20" width="1" height="1"/>
<rect x="38" y="20" width="1" height="1"/>
<rect x="44" y="20" width="1" height="1"/>
<rect x="47" y="20" width="1" height="1"/>
<rect x="51" y="20" width="2" height="1"/>
<rect x="56" y="20" width="1" height="1"/>
<rect x="59" y="20" width="1" height="1"/>
<rect x="63" y="20" width="2" height="1"/>
<rect x="67" y="20" width="2" height="1"/>
<rect x="70" y="20" width="1" height="1"/>
<rect x="17" y="21" width="1" height="1"/>
<rect x="23" y="21" width="1" height="1"/>
<rect x="28" y="21" width="1" height="1"/>
<rect x="31" y="21" width="1" height="1"/>
<rect x="35" y="21" width="2" height="1"/>
<rect x="38" y="21" width="1" height="1"/>
<rect x="44" y="21" width="1" height="1"/>
<rect x="46" y="21" width="1" height="1"/>
<rect x="51" y="21" width="1" height="1"/>
<rect x="56" y="21" width="1" height="1"/>
<rect x="59" y="21" width="1" height="1"/>
<rect x="64" y="21" width="1" height="1"/>
<rect x="68" y="21" width="1" height="1"/>
<rect x="70" y="21" width="1" height="1"/>
<rect x="17" y="22" width="1" height="1"/>
<rect x="23" y="22" width="1" height="1"/>
<rect x="28" y="22" width="1" height="1"/>
<rect x="31" y="22" width="6" height="1"/>
<rect x="38" y="22" width="1" height="1"/>
<rect x="44" y="22" width="3" height="1"/>
<rect x="51" y="22" width="1" height="1"/>
<rect x="56" y="22" width="1" height="1"/>
<rect x="59" y="22" width="1" height="1"/>
<rect x="64" y="22" width="1" height="1"/>
<rect x="69" y="22" width="1" height="1"/>
<rect x="17" y="23" width="1" height="1"/>
<rect x="23" y="23" width="1" height="1"/>
<rect x="28" y="23" width="1" height="1"/>
<rect x="31" y="23" width="1" height="1"/>
<rect x="38" y="23" width="1" height="1"/>
<rect x="44" y="23" width="1" height="1"/>
<rect x="47" y="23" width="1" height="1"/>
<rect x="51" y="23" width="1" height="1"/>
<rect x="56" y="23" width="1" height="1"/>
<rect x="59" y="23" width="1" height="1"/>
<rect x="64" y="23" width="1" height="1"/>
<rect x="68" y="23" width="1" height="1"/>
<rect x="70" y="23" width="1" height="1"/>
<rect x="17" y="24" width="1" height="1"/>
<rect x="23" y="24" width="1" height="1"/>
<rect x="28" y="24" width="1" height="1"/>
<rect x="31" y="24" width="1" height="1"/>
<rect x="38" y="24" width="1" height="1"/>
<rect x="44" y="24" width="1" height="1"/>
<rect x="47" y="24" width="2" height="1"/>
<rect x="51" y="24" width="2" height="1"/>
<rect x="56" y="24" width="1" height="1"/>
<rect x="59" y="24" width="1" height="1"/>
<rect x="63" y="24" width="2" height="1"/>
<rect x="67" y="24" width="2" height="1"/>
<rect x="70" y="24" width="2" height="1"/>
<rect x="18" y="25" width="4" height="1"/>
<rect x="23" y="25" width="1" height="1"/>
<rect x="28" y="25" width="1" height="1"/>
<rect x="32" y="25" width="4" height="1"/>
<rect x="39" y="25" width="4" height="1"/>
<rect x="44" y="25" width="1" height="1"/>
<rect x="48" y="25" width="2" height="1"/>
<rect x="51" y="25" width="1" height="1"/>
<rect x="53" y="25" width="3" height="1"/>
<rect x="60" y="25" width="4" height="1"/>
<rect x="66" y="25" width="2" height="1"/>
<rect x="71" y="25" width="2" height="1"/>
<rect x="16" y="30" width="328" height="1"/>
<rect x="32" y="81" width="18" height="1"/>
<rect x="32" y="82" width="18" height="1"/>
<rect x="32" y="83" width="18" height="1"/>
<rect x="32" y="84" width="14" height="1"/>
<rect x="49" y="84" width="1" height="1"/>
<rect x="32" y="85" width="13" height="1"/>
<rect x="49" y="85" width="1" height="1"/>
<rect x="71" y="85" width="1" height="1"/>
<rect x="85" y="85" width="1" height="1"/>
<rect x="32" y="86" width="13" height="1"/>
<rect x="49" y="86" width="1" height="1"/>
<rect x="58" y="86" width="2" height="1"/>
<rect x="63" y="86" width="2" height="1"/>
<rect x="69" y="86" width="1" height="1"/>
<rect x="78" y="86" width="5" height="1"/>
<rect x="32" y="87" width="12" height="1"/>
<rect x="48" y="87" width="2" height="1"/>
<rect x="59" y="87" width="1" height="1"/>
<rect x="63" y="87" width="2" height="1"/>
<rect x="68" y="87" width="2" height="1"/>
<rect x="78" y="87" width="1" height="1"/>
<rect x="32" y="88" width="11" height="1"/>
<rect x="48" y="88" width="2" height="1"/>
<rect x="59" y="88" width="1" height="1"/>
<rect x="63" y="88" width="2" height="1"/>
<rect x="68" y="88" width="1" height="1"/>
<rect x="71" y="88" width="1" height="1"/>
<rect x="78" y="88" width="1" height="1"/>
<rect x="85" y="88" width="1" height="1"/>
<rect x="91" y="88" width="6" height="1"/>
<rect x="101" y="88" width="2" height="1"/>
<rect x="104" y="88" width="1" height="1"/>
<rect x="106" y="88" width="3" height="1"/>
<rect x="113" y="88" width="4" height="1"/>
<rect x="32" y="89" width="2" height="1"/>
<rect x="37" y="89" width="6" height="1"/>
<rect x="47" y="89" width="3" height="1"/>
<rect x="59" y="89" width="1" height="1"/>
<rect x="62" y="89" width="1" height="1"/>
<rect x="65" y="89" width="1" height="1"/>
<rect x="68" y="89" width="1" height="1"/>
<rect x="71" y="89" width="1" height="1"/>
<rect x="78" y="89" width="1" height="1"/>
<rect x="85" y="89" width="1" height="1"/>
<rect x="91" y="89" width="1" height="1"/>
<rect x="97" y="89" width="1" height="1"/>
<rect x="101" y="89" width="1" height="1"/>
<rect x="104" y="89" width="2" height="1"/>
<rect x="109" y="89" width="1" height="1"/>
<rect x="112" y="89" width="1" height="1"/>
<rect x="32" y="90" width="2" height="1"/>
<rect x="38" y="90" width="4" height="1"/>
<rect x="46" y="90" width="4" height="1"/>
<rect x="59" y="90" width="2" height="1"/>
<rect x="62" y="90" width="1" height="1"/>
<rect x="65" y="90" width="1" height="1"/>
<rect x="68" y="90" width="1" height="1"/>
<rect x="71" y="90" width="1" height="1"/>
<rect x="78" y="90" width="5" height="1"/>
<rect x="85" y="90" width="1" height="1"/>
<rect x="91" y="90" width="1" height="1"/>
<rect x="97" y="90" width="1" height="1"/>
<rect x="100" y="90" width="2" height="1"/>
<rect x="104" y="90" width="1" height="1"/>
<rect x="109" y="90" width="1" height="1"/>
<rect x="112" y="90" width="1" height="1"/>
<rect x="32" y="91" width="2" height="1"/>
<rect x="39" y="91" width="2" height="1"/>
<rect x="46" y="91" width="4" height="1"/>
<rect x="60" y="91" width="1" height="1"/>
<rect x="62" y="91" width="1" height="1"/>
<rect x="65" y="91" width="1" height="1"/>
<rect x="67" y="91" width="1" height="1"/>
<rect x="71" y="91" width="1" height="1"/>
<rect x="74" y="91" width="3" height="1"/>
<rect x="78" y="91" width="1" height="1"/>
<rect x="85" y="91" width="1" height="1"/>
<rect x="92" y="91" width="3" height="1"/>
<rect x="97" y="91" width="2" height="1"/>
<rect x="100" y="91" width="1" height="1"/>
<rect x="104" y="91" width="1" height="1"/>
<rect x="109" y="91" width="1" height="1"/>
<rect x="112" y="91" width="1" height="1"/>
<rect x="32" y="92" width="3" height="1"/>
<rect x="45" y="92" width="5" height="1"/>
<rect x="60" y="92" width="3" height="1"/>
<rect x="65" y="92" width="3" height="1"/>
<rect x="71" y="92" width="1" height="1"/>
<rect x="78" y="92" width="1" height="1"/>
<rect x="85" y="92" width="1" height="1"/>
<rect x="94" y="92" width="2" height="1"/>
<rect x="98" y="92" width="1" height="1"/>
<rect x="100" y="92" width="1" height="1"/>
<rect x="104" y="92" width="1" height="1"/>
<rect x="109" y="92" width="1" height="1"/>
<rect x="112" y="92" width="1" height="1"/>
<rect x="32" y="93" width="4" height="1"/>
<rect x="44" y="93" width="6" height="1"/>
<rect x="60" y="93" width="2" height="1"/>
<rect x="66" y="93" width="2" height="1"/>
<rect x="71" y="93" width="1" height="1"/>
<rect x="78" y="93" width="1" height="1"/>
<rect x="85" y="93" width="1" height="1"/>
<rect x="94" y="93" width="2" height="1"/>
<rect x="98" y="93" width="3" height="1"/>
<rect x="104" y="93" width="1" height="1"/>
<rect x="109" y="93" width="1" height="1"/>
<rect x="112" y="93" width="1" height="1"/>
<rect x="32" y="94" width="5" height="1"/>
<rect x="43" y="94" width="7" height="1"/>
<rect x="60" y="94" width="2" height="1"/>
<rect x="66" y="94" width="2" height="1"/>
<rect x="71" y="94" width="1" height="1"/>
<rect x="78" y="94" width="1" height="1"/>
<rect x="85" y="94" width="1" height="1"/>
<rect x="91" y="94" width="4" height="1"/>
<rect x="99" y="94" width="1" height="1"/>
<rect x="104" y="94" width="1" height="1"/>
<rect x="109" y="94" width="1" height="1"/>
<rect x="113" y="94" width="4" height="1"/>
<rect x="32" y="95" width="6" height="1"/>
<rect x="43" y="95" width="7" height="1"/>
<rect x="99" y="95" width="1" height="1"/>
<rect x="32" y="96" width="7" height="1"/>
<rect x="42" y="96" width="8" height="1"/>
<rect x="98" y="96" width="1" height="1"/>
<rect x="32" y="97" width="18" height="1"/>
<rect x="96" y="97" width="3" height="1"/>
<rect x="32" y="98" width="18" height="1"/>
</g>
</svg>
