<svg xmlns="http://www.w3.org/2000/svg" viewBox="0 0 360 180" width="360" height="180" shape-rendering="crispEdges">
<rect width="100%" height="100%" fill="#fff"/>
<g fill="#111">
<rect x="30" y="0" width="1" height="1"/>
<rect x="71" y="0" width="2" height="1"/>
<rect x="77" y="0" width="2" height="1"/>
<rect x="82" y="0" width="2" height="1"/>
<rect x="30" y="1" width="1" height="1"/>
<rect x="71" y="1" width="2" height="1"/>
<rect x="77" y="1" width="2" height="1"/>
<rect x="82" y="1" width="2" height="1"/>
<rect x="30" y="2" width="1" height="1"/>
<rect x="71" y="2" width="2" height="1"/>
<rect x="76" y="2" width="2" height="1"/>
<rect x="83" y="2" width="1" height="1"/>
<rect x="30" y="3" width="1" height="1"/>
<rect x="71" y="3" width="2" height="1"/>
<rect x="76" y="3" width="2" height="1"/>
<rect x="82" y="3" width="2" height="1"/>
<rect x="30" y="4" width="1" height="1"/>
<rect x="71" y="4" width="2" height="1"/>
<rect x="75" y="4" width="2" height="1"/>
<rect x="82" y="4" width="2" height="1"/>
<rect x="30" y="5" width="1" height="1"/>
<rect x="72" y="5" width="5" height="1"/>
<rect x="82" y="5" width="2" height="1"/>
<rect x="30" y="6" width="1" height="1"/>
<rect x="73" y="6" width="3" height="1"/>
<rect x="81" y="6" width="3" height="1"/>
<rect x="30" y="7" width="1" height="1"/>
<rect x="30" y="8" width="1" height="1"/>
<rect x="30" y="9" width="1" height="1"/>
<rect x="30" y="10" width="1" height="1"/>
<rect x="73" y="10" width="11" height="1"/>
<rect x="30" y="11" width="1" height="1"/>
<rect x="72" y="11" width="12" height="1"/>
<rect x="30" y="12" width="1" height="1"/>
<rect x="71" y="12" width="3" height="1"/>
<rect x="23" y="13" width="13" height="1"/>
<rect x="71" y="13" width="2" height="1"/>
<rect x="23" y="14" width="13" height="1"/>
<rect x="71" y="14" width="2" height="1"/>
<rect x="30" y="15" width="1" height="1"/>
<rect x="32" y="15" width="3" height="1"/>
<rect x="71" y="15" width="2" height="1"/>
<rect x="112" y="15" width="11" height="1"/>
<rect x="30" y="16" width="1" height="1"/>
<rect x="34" y="16" width="1" height="1"/>
<rect x="71" y="16" width="2" height="1"/>
<rect x="111" y="16" width="12" height="1"/>
<rect x="30" y="17" width="1" height="1"/>
<rect x="34" y="17" width="2" height="1"/>
<rect x="72" y="17" width="1" height="1"/>
<rect x="110" y="17" width="3" height="1"/>
<rect x="30" y="18" width="1" height="1"/>
<rect x="34" y="18" width="2" height="1"/>
<rect x="72" y="18" width="3" height="1"/>
<rect x="110" y="18" width="2" height="1"/>
<rect x="30" y="19" width="1" height="1"/>
<rect x="34" y="19" width="2" height="1"/>
<rect x="71" y="19" width="13" height="1"/>
<rect x="110" y="19" width="2" height="1"/>
<rect x="30" y="20" width="1" height="1"/>
<rect x="34" y="20" width="2" height="1"/>
<rect x="71" y="20" width="13" height="1"/>
<rect x="110" y="20" width="2" height="1"/>
<rect x="30" y="21" width="1" height="1"/>
<rect x="33" y="21" width="3" height="1"/>
<rect x="110" y="21" width="2" height="1"/>
<rect x="23" y="22" width="12" height="1"/>
<rect x="111" y="22" width="1" height="1"/>
<rect x="23" y="23" width="11" height="1"/>
<rect x="111" y="23" width="3" height="1"/>
<rect x="30" y="24" width="1" height="1"/>
<rect x="110" y="24" width="13" height="1"/>
<rect x="30" y="25" width="1" height="1"/>
<rect x="74" y="25" width="7" height="1"/>
<rect x="110" y="25" width="13" height="1"/>
<rect x="30" y="26" width="1" height="1"/>
<rect x="73" y="26" width="10" height="1"/>
<rect x="30" y="27" width="1" height="1"/>
<rect x="72" y="27" width="3" height="1"/>
<rect x="80" y="27" width="3" height="1"/>
<rect x="24" y="28" width="11" height="1"/>
<rect x="71" y="28" width="2" height="1"/>
<rect x="82" y="28" width="2" height="1"/>
<rect x="23" y="29" width="12" height="1"/>
<rect x="71" y="29" width="2" height="1"/>
<rect x="82" y="29" width="2" height="1"/>
<rect x="22" y="30" width="3" height="1"/>
<rect x="30" y="30" width="1" height="1"/>
<rect x="71" y="30" width="2" height="1"/>
<rect x="82" y="30" width="2" height="1"/>
<rect x="112" y="30" width="5" height="1"/>
<rect x="121" y="30" width="1" height="1"/>
<rect x="22" y="31" width="2" height="1"/>
<rect x="30" y="31" width="1" height="1"/>
<rect x="71" y="31" width="2" height="1"/>
<rect x="82" y="31" width="2" height="1"/>
<rect x="111" y="31" width="6" height="1"/>
<rect x="121" y="31" width="2" height="1"/>
<rect x="22" y="32" width="2" height="1"/>
<rect x="30" y="32" width="1" height="1"/>
<rect x="71" y="32" width="2" height="1"/>
<rect x="82" y="32" width="2" height="1"/>
<rect x="110" y="32" width="3" height="1"/>
<rect x="115" y="32" width="2" height="1"/>
<rect x="121" y="32" width="2" height="1"/>
<rect x="22" y="33" width="2" height="1"/>
<rect x="30" y="33" width="1" height="1"/>
<rect x="71" y="33" width="3" height="1"/>
<rect x="81" y="33" width="3" height="1"/>
<rect x="110" y="33" width="2" height="1"/>
<rect x="115" y="33" width="2" height="1"/>
<rect x="121" y="33" width="2" height="1"/>
<rect x="22" y="34" width="2" height="1"/>
<rect x="30" y="34" width="1" height="1"/>
<rect x="72" y="34" width="11" height="1"/>
<rect x="110" y="34" width="2" height="1"/>
<rect x="115" y="34" width="2" height="1"/>
<rect x="121" y="34" width="2" height="1"/>
<rect x="23" y="35" width="1" height="1"/>
<rect x="30" y="35" width="1" height="1"/>
<rect x="73" y="35" width="9" height="1"/>
<rect x="110" y="35" width="2" height="1"/>
<rect x="115" y="35" width="2" height="1"/>
<rect x="121" y="35" width="2" height="1"/>
<rect x="23" y="36" width="3" height="1"/>
<rect x="30" y="36" width="1" height="1"/>
<rect x="75" y="36" width="5" height="1"/>
<rect x="110" y="36" width="2" height="1"/>
<rect x="115" y="36" width="2" height="1"/>
<rect x="121" y="36" width="2" height="1"/>
<rect x="22" y="37" width="13" height="1"/>
<rect x="110" y="37" width="3" height="1"/>
<rect x="115" y="37" width="2" height="1"/>
<rect x="120" y="37" width="3" height="1"/>
<rect x="22" y="38" width="13" height="1"/>
<rect x="111" y="38" width="11" height="1"/>
<rect x="30" y="39" width="1" height="1"/>
<rect x="112" y="39" width="9" height="1"/>
<rect x="30" y="40" width="1" height="1"/>
<rect x="67" y="40" width="3" height="1"/>
<rect x="72" y="40" width="13" height="1"/>
<rect x="115" y="40" width="4" height="1"/>
<rect x="30" y="41" width="1" height="1"/>
<rect x="67" y="41" width="3" height="1"/>
<rect x="72" y="41" width="13" height="1"/>
<rect x="30" y="42" width="1" height="1"/>
<rect x="24" y="43" width="5" height="1"/>
<rect x="30" y="43" width="1" height="1"/>
<rect x="33" y="43" width="1" height="1"/>
<rect x="23" y="44" width="6" height="1"/>
<rect x="30" y="44" width="1" height="1"/>
<rect x="33" y="44" width="2" height="1"/>
<rect x="112" y="44" width="9" height="1"/>
<rect x="22" y="45" width="3" height="1"/>
<rect x="27" y="45" width="2" height="1"/>
<rect x="30" y="45" width="1" height="1"/>
<rect x="33" y="45" width="2" height="1"/>
<rect x="72" y="45" width="2" height="1"/>
<rect x="83" y="45" width="2" height="1"/>
<rect x="111" y="45" width="11" height="1"/>
<rect x="22" y="46" width="2" height="1"/>
<rect x="27" y="46" width="2" height="1"/>
<rect x="30" y="46" width="1" height="1"/>
<rect x="33" y="46" width="2" height="1"/>
<rect x="72" y="46" width="2" height="1"/>
<rect x="83" y="46" width="2" height="1"/>
<rect x="110" y="46" width="3" height="1"/>
<rect x="120" y="46" width="3" height="1"/>
<rect x="22" y="47" width="2" height="1"/>
<rect x="27" y="47" width="2" height="1"/>
<rect x="30" y="47" width="1" height="1"/>
<rect x="33" y="47" width="2" height="1"/>
<rect x="72" y="47" width="2" height="1"/>
<rect x="83" y="47" width="2" height="1"/>
<rect x="110" y="47" width="2" height="1"/>
<rect x="121" y="47" width="2" height="1"/>
<rect x="22" y="48" width="2" height="1"/>
<rect x="27" y="48" width="2" height="1"/>
<rect x="30" y="48" width="1" height="1"/>
<rect x="33" y="48" width="2" height="1"/>
<rect x="72" y="48" width="2" height="1"/>
<rect x="82" y="48" width="3" height="1"/>
<rect x="110" y="48" width="2" height="1"/>
<rect x="121" y="48" width="2" height="1"/>
<rect x="22" y="49" width="2" height="1"/>
<rect x="27" y="49" width="2" height="1"/>
<rect x="30" y="49" width="1" height="1"/>
<rect x="33" y="49" width="2" height="1"/>
<rect x="69" y="49" width="16" height="1"/>
<rect x="110" y="49" width="2" height="1"/>
<rect x="121" y="49" width="2" height="1"/>
<rect x="22" y="50" width="3" height="1"/>
<rect x="27" y="50" width="2" height="1"/>
<rect x="30" y="50" width="1" height="1"/>
<rect x="32" y="50" width="3" height="1"/>
<rect x="71" y="50" width="12" height="1"/>
<rect x="110" y="50" width="2" height="1"/>
<rect x="121" y="50" width="2" height="1"/>
<rect x="23" y="51" width="11" height="1"/>
<rect x="72" y="51" width="2" height="1"/>
<rect x="111" y="51" width="1" height="1"/>
<rect x="121" y="51" width="2" height="1"/>
<rect x="24" y="52" width="9" height="1"/>
<rect x="73" y="52" width="1" height="1"/>
<rect x="111" y="52" width="3" height="1"/>
<rect x="119" y="52" width="3" height="1"/>
<rect x="27" y="53" width="4" height="1"/>
<rect x="110" y="53" width="19" height="1"/>
<rect x="30" y="54" width="1" height="1"/>
<rect x="71" y="54" width="1" height="1"/>
<rect x="82" y="54" width="2" height="1"/>
<rect x="110" y="54" width="19" height="1"/>
<rect x="30" y="55" width="1" height="1"/>
<rect x="71" y="55" width="2" height="1"/>
<rect x="82" y="55" width="2" height="1"/>
<rect x="30" y="56" width="1" height="1"/>
<rect x="71" y="56" width="2" height="1"/>
<rect x="82" y="56" width="2" height="1"/>
<rect x="30" y="57" width="1" height="1"/>
<rect x="71" y="57" width="2" height="1"/>
<rect x="82" y="57" width="2" height="1"/>
<rect x="18" y="58" width="17" height="1"/>
<rect x="71" y="58" width="2" height="1"/>
<rect x="82" y="58" width="2" height="1"/>
<rect x="18" y="59" width="17" height="1"/>
<rect x="71" y="59" width="2" height="1"/>
<rect x="82" y="59" width="2" height="1"/>
<rect x="110" y="59" width="9" height="1"/>
<rect x="18" y="60" width="4" height="1"/>
<rect x="30" y="60" width="1" height="1"/>
<rect x="71" y="60" width="3" height="1"/>
<rect x="81" y="60" width="3" height="1"/>
<rect x="108" y="60" width="13" height="1"/>
<rect x="20" y="61" width="5" height="1"/>
<rect x="30" y="61" width="1" height="1"/>
<rect x="72" y="61" width="11" height="1"/>
<rect x="107" y="61" width="4" height="1"/>
<rect x="118" y="61" width="4" height="1"/>
<rect x="22" y="62" width="6" height="1"/>
<rect x="30" y="62" width="1" height="1"/>
<rect x="73" y="62" width="9" height="1"/>
<rect x="107" y="62" width="2" height="1"/>
<rect x="120" y="62" width="2" height="1"/>
<rect x="25" y="63" width="6" height="1"/>
<rect x="75" y="63" width="5" height="1"/>
<rect x="106" y="63" width="2" height="1"/>
<rect x="121" y="63" width="2" height="1"/>
<rect x="28" y="64" width="5" height="1"/>
<rect x="106" y="64" width="2" height="1"/>
<rect x="121" y="64" width="2" height="1"/>
<rect x="30" y="65" width="5" height="1"/>
<rect x="82" y="65" width="2" height="1"/>
<rect x="106" y="65" width="2" height="1"/>
<rect x="121" y="65" width="2" height="1"/>
<rect x="30" y="66" width="5" height="1"/>
<rect x="79" y="66" width="5" height="1"/>
<rect x="106" y="66" width="2" height="1"/>
<rect x="121" y="66" width="2" height="1"/>
<rect x="28" y="67" width="6" height="1"/>
<rect x="77" y="67" width="6" height="1"/>
<rect x="106" y="67" width="2" height="1"/>
<rect x="121" y="67" width="2" height="1"/>
<rect x="26" y="68" width="5" height="1"/>
<rect x="74" y="68" width="6" height="1"/>
<rect x="106" y="68" width="2" height="1"/>
<rect x="121" y="68" width="2" height="1"/>
<rect x="23" y="69" width="6" height="1"/>
<rect x="30" y="69" width="1" height="1"/>
<rect x="72" y="69" width="7" height="1"/>
<rect x="106" y="69" width="2" height="1"/>
<rect x="121" y="69" width="2" height="1"/>
<rect x="20" y="70" width="6" height="1"/>
<rect x="30" y="70" width="1" height="1"/>
<rect x="69" y="70" width="5" height="1"/>
<rect x="77" y="70" width="2" height="1"/>
<rect x="106" y="70" width="3" height="1"/>
<rect x="120" y="70" width="2" height="1"/>
<rect x="18" y="71" width="5" height="1"/>
<rect x="30" y="71" width="1" height="1"/>
<rect x="67" y="71" width="5" height="1"/>
<rect x="77" y="71" width="2" height="1"/>
<rect x="107" y="71" width="3" height="1"/>
<rect x="119" y="71" width="3" height="1"/>
<rect x="18" y="72" width="3" height="1"/>
<rect x="30" y="72" width="1" height="1"/>
<rect x="67" y="72" width="3" height="1"/>
<rect x="77" y="72" width="2" height="1"/>
<rect x="108" y="72" width="13" height="1"/>
<rect x="18" y="73" width="17" height="1"/>
<rect x="67" y="73" width="6" height="1"/>
<rect x="77" y="73" width="2" height="1"/>
<rect x="109" y="73" width="10" height="1"/>
<rect x="18" y="74" width="17" height="1"/>
<rect x="70" y="74" width="5" height="1"/>
<rect x="77" y="74" width="2" height="1"/>
<rect x="113" y="74" width="3" height="1"/>
<rect x="30" y="75" width="1" height="1"/>
<rect x="72" y="75" width="7" height="1"/>
<rect x="30" y="76" width="1" height="1"/>
<rect x="75" y="76" width="6" height="1"/>
<rect x="30" y="77" width="1" height="1"/>
<rect x="78" y="77" width="5" height="1"/>
<rect x="23" y="78" width="2" height="1"/>
<rect x="30" y="78" width="1" height="1"/>
<rect x="34" y="78" width="2" height="1"/>
<rect x="80" y="78" width="4" height="1"/>
<rect x="23" y="79" width="2" height="1"/>
<rect x="30" y="79" width="1" height="1"/>
<rect x="34" y="79" width="2" height="1"/>
<rect x="83" y="79" width="1" height="1"/>
<rect x="23" y="80" width="2" height="1"/>
<rect x="30" y="80" width="1" height="1"/>
<rect x="34" y="80" width="2" height="1"/>
<rect x="23" y="81" width="2" height="1"/>
<rect x="30" y="81" width="1" height="1"/>
<rect x="33" y="81" width="3" height="1"/>
<rect x="20" y="82" width="16" height="1"/>
<rect x="22" y="83" width="12" height="1"/>
<rect x="23" y="84" width="2" height="1"/>
<rect x="30" y="84" width="1" height="1"/>
<rect x="24" y="85" width="1" height="1"/>
<rect x="30" y="85" width="1" height="1"/>
<rect x="30" y="86" width="1" height="1"/>
<rect x="23" y="87" width="1" height="1"/>
<rect x="30" y="87" width="1" height="1"/>
<rect x="35" y="87" width="1" height="1"/>
<rect x="23" y="88" width="2" height="1"/>
<rect x="30" y="88" width="1" height="1"/>
<rect x="34" y="88" width="2" height="1"/>
<rect x="23" y="89" width="4" height="1"/>
<rect x="30" y="89" width="1" height="1"/>
<rect x="32" y="89" width="3" height="1"/>
<rect x="25" y="90" width="3" height="1"/>
<rect x="30" y="90" width="4" height="1"/>
<rect x="26" y="91" width="7" height="1"/>
<rect x="28" y="92" width="3" height="1"/>
<rect x="27" y="93" width="5" height="1"/>
<rect x="25" y="94" width="4" height="1"/>
<rect x="30" y="94" width="4" height="1"/>
<rect x="24" y="95" width="3" height="1"/>
<rect x="30" y="95" width="1" height="1"/>
<rect x="32" y="95" width="3" height="1"/>
<rect x="23" y="96" width="3" height="1"/>
<rect x="30" y="96" width="1" height="1"/>
<rect x="33" y="96" width="3" height="1"/>
<rect x="23" y="97" width="1" height="1"/>
<rect x="30" y="97" width="1" height="1"/>
<rect x="34" y="97" width="2" height="1"/>
<rect x="30" y="98" width="1" height="1"/>
<rect x="35" y="98" width="1" height="1"/>
<rect x="30" y="99" width="1" height="1"/>
<rect x="30" y="100" width="1" height="1"/>
<rect x="24" y="101" width="5" height="1"/>
<rect x="30" y="101" width="1" height="1"/>
<rect x="33" y="101" width="1" height="1"/>
<rect x="23" y="102" width="6" height="1"/>
<rect x="30" y="102" width="1" height="1"/>
<rect x="33" y="102" width="2" height="1"/>
<rect x="22" y="103" width="3" height="1"/>
<rect x="27" y="103" width="2" height="1"/>
<rect x="30" y="103" width="1" height="1"/>
<rect x="33" y="103" width="2" height="1"/>
<rect x="22" y="104" width="2" height="1"/>
<rect x="27" y="104" width="2" height="1"/>
<rect x="30" y="104" width="1" height="1"/>
<rect x="33" y="104" width="2" height="1"/>
<rect x="22" y="105" width="2" height="1"/>
<rect x="27" y="105" width="2" height="1"/>
<rect x="30" y="105" width="1" height="1"/>
<rect x="33" y="105" width="2" height="1"/>
<rect x="22" y="106" width="2" height="1"/>
<rect x="27" y="106" width="2" height="1"/>
<rect x="30" y="106" width="1" height="1"/>
<rect x="33" y="106" width="2" height="1"/>
<rect x="22" y="107" width="2" height="1"/>
<rect x="27" y="107" width="2" height="1"/>
<rect x="30" y="107" width="1" height="1"/>
<rect x="33" y="107" width="2" height="1"/>
<rect x="22" y="108" width="3" height="1"/>
<rect x="27" y="108" width="2" height="1"/>
<rect x="30" y="108" width="1" height="1"/>
<rect x="32" y="108" width="3" height="1"/>
<rect x="23" y="109" width="11" height="1"/>
<rect x="24" y="110" width="9" height="1"/>
<rect x="27" y="111" width="4" height="1"/>
<rect x="30" y="112" width="1" height="1"/>
<rect x="30" y="113" width="1" height="1"/>
<rect x="23" y="114" width="2" height="1"/>
<rect x="30" y="114" width="1" height="1"/>
<rect x="34" y="114" width="2" height="1"/>
<rect x="23" y="115" width="2" height="1"/>
<rect x="30" y="115" width="1" height="1"/>
<rect x="34" y="115" width="2" height="1"/>
<rect x="23" y="116" width="2" height="1"/>
<rect x="30" y="116" width="1" height="1"/>
<rect x="34" y="116" width="2" height="1"/>
<rect x="23" y="117" width="2" height="1"/>
<rect x="30" y="117" width="1" height="1"/>
<rect x="33" y="117" width="3" height="1"/>
<rect x="20" y="118" width="16" height="1"/>
<rect x="22" y="119" width="12" height="1"/>
<rect x="23" y="120" width="2" height="1"/>
<rect x="30" y="120" width="1" height="1"/>
<rect x="24" y="121" width="1" height="1"/>
<rect x="30" y="121" width="1" height="1"/>
<rect x="30" y="122" width="1" height="1"/>
<rect x="30" y="123" width="1" height="1"/>
<rect x="24" y="124" width="11" height="1"/>
<rect x="23" y="125" width="12" height="1"/>
<rect x="22" y="126" width="3" height="1"/>
<rect x="30" y="126" width="1" height="1"/>
<rect x="22" y="127" width="2" height="1"/>
<rect x="30" y="127" width="1" height="1"/>
<rect x="22" y="128" width="2" height="1"/>
<rect x="30" y="128" width="1" height="1"/>
<rect x="22" y="129" width="2" height="1"/>
<rect x="30" y="129" width="1" height="1"/>
<rect x="22" y="130" width="2" height="1"/>
<rect x="30" y="130" width="1" height="1"/>
<rect x="23" y="131" width="1" height="1"/>
<rect x="30" y="131" width="1" height="1"/>
<rect x="23" y="132" width="3" height="1"/>
<rect x="30" y="132" width="1" height="1"/>
<rect x="22" y="133" width="13" height="1"/>
<rect x="22" y="134" width="13" height="1"/>
<rect x="30" y="135" width="1" height="1"/>
<rect x="30" y="136" width="1" height="1"/>
<rect x="30" y="137" width="1" height="1"/>
<rect x="30" y="138" width="1" height="1"/>
<rect x="25" y="139" width="7" height="1"/>
<rect x="24" y="140" width="10" height="1"/>
<rect x="23" y="141" width="3" height="1"/>
<rect x="30" y="141" width="4" height="1"/>
<rect x="22" y="142" width="2" height="1"/>
<rect x="30" y="142" width="1" height="1"/>
<rect x="33" y="142" width="2" height="1"/>
<rect x="22" y="143" width="2" height="1"/>
<rect x="30" y="143" width="1" height="1"/>
<rect x="33" y="143" width="2" height="1"/>
<rect x="22" y="144" width="2" height="1"/>
<rect x="30" y="144" width="1" height="1"/>
<rect x="33" y="144" width="2" height="1"/>
<rect x="22" y="145" width="2" height="1"/>
<rect x="30" y="145" width="1" height="1"/>
<rect x="33" y="145" width="2" height="1"/>
<rect x="22" y="146" width="2" height="1"/>
<rect x="30" y="146" width="1" height="1"/>
<rect x="33" y="146" width="2" height="1"/>
<rect x="22" y="147" width="3" height="1"/>
<rect x="30" y="147" width="1" height="1"/>
<rect x="32" y="147" width="3" height="1"/>
<rect x="23" y="148" width="11" height="1"/>
<rect x="24" y="149" width="9" height="1"/>
<rect x="26" y="150" width="5" height="1"/>
<rect x="30" y="151" width="1" height="1"/>
<rect x="30" y="152" width="1" height="1"/>
<rect x="22" y="153" width="1" height="1"/>
<rect x="30" y="153" width="1" height="1"/>
<rect x="33" y="153" width="2" height="1"/>
<rect x="22" y="154" width="2" height="1"/>
<rect x="30" y="154" width="1" height="1"/>
<rect x="33" y="154" width="2" height="1"/>
<rect x="22" y="155" width="2" height="1"/>
<rect x="30" y="155" width="1" height="1"/>
<rect x="33" y="155" width="2" height="1"/>
<rect x="22" y="156" width="2" height="1"/>
<rect x="30" y="156" width="1" height="1"/>
<rect x="33" y="156" width="2" height="1"/>
<rect x="22" y="157" width="2" height="1"/>
<rect x="30" y="157" width="1" height="1"/>
<rect x="33" y="157" width="2" height="1"/>
<rect x="22" y="158" width="2" height="1"/>
<rect x="30" y="158" width="1" height="1"/>
<rect x="33" y="158" width="2" height="1"/>
<rect x="22" y="159" width="3" height="1"/>
<rect x="30" y="159" width="1" height="1"/>
<rect x="32" y="159" width="3" height="1"/>
<rect x="23" y="160" width="11" height="1"/>
<rect x="24" y="161" width="9" height="1"/>
<rect x="26" y="162" width="5" height="1"/>
<rect x="30" y="163" width="1" height="1"/>
</g>
</svg>
