<svg xmlns="http://www.w3.org/2000/svg" viewBox="0 0 360 180" width="360" height="180" shape-rendering="crispEdges">
<rect width="100%" height="100%" fill="#fff"/>
<g fill="#111">
<rect x="39" y="17" width="1" height="1"/>
<rect x="58" y="17" width="1" height="1"/>
<rect x="63" y="17" width="2" height="1"/>
<rect x="71" y="17" width="2" height="1"/>
<rect x="39" y="18" width="1" height="1"/>
<rect x="58" y="18" width="1" height="1"/>
<rect x="63" y="18" width="3" height="1"/>
<rect x="70" y="18" width="3" height="1"/>
<rect x="18" y="19" width="4" height="1"/>
<rect x="24" y="19" width="4" height="1"/>
<rect x="31" y="19" width="1" height="1"/>
<rect x="33" y="19" width="3" height="1"/>
<rect x="38" y="19" width="4" height="1"/>
<rect x="45" y="19" width="3" height="1"/>
<rect x="50" y="19" width="2" height="1"/>
<rect x="55" y="19" width="6" height="1"/>
<rect x="63" y="19" width="1" height="1"/>
<rect x="65" y="19" width="1" height="1"/>
<rect x="70" y="19" width="3" height="1"/>
<rect x="76" y="19" width="3" height="1"/>
<rect x="82" y="19" width="1" height="1"/>
<rect x="84" y="19" width="3" height="1"/>
<rect x="90" y="19" width="1" height="1"/>
<rect x="95" y="19" width="1" height="1"/>
<rect x="17" y="20" width="1" height="1"/>
<rect x="23" y="20" width="1" height="1"/>
<rect x="27" y="20" width="2" height="1"/>
<rect x="31" y="20" width="2" height="1"/>
<rect x="36" y="20" width="1" height="1"/>
<rect x="39" y="20" width="1" height="1"/>
<rect x="44" y="20" width="1" height="1"/>
<rect x="48" y="20" width="1" height="1"/>
<rect x="51" y="20" width="2" height="1"/>
<rect x="54" y="20" width="1" height="1"/>
<rect x="58" y="20" width="1" height="1"/>
<rect x="63" y="20" width="1" height="1"/>
<rect x="65" y="20" width="1" height="1"/>
<rect x="69" y="20" width="1" height="1"/>
<rect x="71" y="20" width="2" height="1"/>
<rect x="75" y="20" width="1" height="1"/>
<rect x="79" y="20" width="1" height="1"/>
<rect x="82" y="20" width="2" height="1"/>
<rect x="87" y="20" width="1" height="1"/>
<rect x="90" y="20" width="1" height="1"/>
<rect x="95" y="20" width="1" height="1"/>
<rect x="17" y="21" width="1" height="1"/>
<rect x="23" y="21" width="1" height="1"/>
<rect x="28" y="21" width="1" height="1"/>
<rect x="31" y="21" width="1" height="1"/>
<rect x="36" y="21" width="1" height="1"/>
<rect x="39" y="21" width="1" height="1"/>
<rect x="44" y="21" width="1" height="1"/>
<rect x="48" y="21" width="2" height="1"/>
<rect x="52" y="21" width="1" height="1"/>
<rect x="54" y="21" width="1" height="1"/>
<rect x="58" y="21" width="1" height="1"/>
<rect x="63" y="21" width="1" height="1"/>
<rect x="66" y="21" width="1" height="1"/>
<rect x="69" y="21" width="1" height="1"/>
<rect x="71" y="21" width="2" height="1"/>
<rect x="75" y="21" width="1" height="1"/>
<rect x="79" y="21" width="2" height="1"/>
<rect x="82" y="21" width="1" height="1"/>
<rect x="87" y="21" width="1" height="1"/>
<rect x="90" y="21" width="1" height="1"/>
<rect x="95" y="21" width="1" height="1"/>
<rect x="17" y="22" width="1" height="1"/>
<rect x="23" y="22" width="1" height="1"/>
<rect x="28" y="22" width="1" height="1"/>
<rect x="31" y="22" width="1" height="1"/>
<rect x="36" y="22" width="1" height="1"/>
<rect x="39" y="22" width="1" height="1"/>
<rect x="44" y="22" width="6" height="1"/>
<rect x="53" y="22" width="1" height="1"/>
<rect x="58" y="22" width="1" height="1"/>
<rect x="63" y="22" width="1" height="1"/>
<rect x="66" y="22" width="1" height="1"/>
<rect x="69" y="22" width="1" height="1"/>
<rect x="71" y="22" width="2" height="1"/>
<rect x="75" y="22" width="6" height="1"/>
<rect x="82" y="22" width="1" height="1"/>
<rect x="87" y="22" width="1" height="1"/>
<rect x="90" y="22" width="1" height="1"/>
<rect x="95" y="22" width="1" height="1"/>
<rect x="17" y="23" width="1" height="1"/>
<rect x="23" y="23" width="1" height="1"/>
<rect x="28" y="23" width="1" height="1"/>
<rect x="31" y="23" width="1" height="1"/>
<rect x="36" y="23" width="1" height="1"/>
<rect x="39" y="23" width="1" height="1"/>
<rect x="44" y="23" width="1" height="1"/>
<rect x="52" y="23" width="1" height="1"/>
<rect x="54" y="23" width="1" height="1"/>
<rect x="58" y="23" width="1" height="1"/>
<rect x="63" y="23" width="1" height="1"/>
<rect x="66" y="23" width="1" height="1"/>
<rect x="68" y="23" width="1" height="1"/>
<rect x="71" y="23" width="2" height="1"/>
<rect x="75" y="23" width="1" height="1"/>
<rect x="82" y="23" width="1" height="1"/>
<rect x="87" y="23" width="1" height="1"/>
<rect x="90" y="23" width="1" height="1"/>
<rect x="95" y="23" width="1" height="1"/>
<rect x="17" y="24" width="1" height="1"/>
<rect x="23" y="24" width="1" height="1"/>
<rect x="27" y="24" width="2" height="1"/>
<rect x="31" y="24" width="1" height="1"/>
<rect x="36" y="24" width="1" height="1"/>
<rect x="39" y="24" width="1" height="1"/>
<rect x="44" y="24" width="1" height="1"/>
<rect x="51" y="24" width="2" height="1"/>
<rect x="54" y="24" width="2" height="1"/>
<rect x="58" y="24" width="1" height="1"/>
<rect x="63" y="24" width="1" height="1"/>
<rect x="67" y="24" width="2" height="1"/>
<rect x="71" y="24" width="2" height="1"/>
<rect x="75" y="24" width="1" height="1"/>
<rect x="82" y="24" width="1" height="1"/>
<rect x="87" y="24" width="1" height="1"/>
<rect x="90" y="24" width="1" height="1"/>
<rect x="94" y="24" width="2" height="1"/>
<rect x="18" y="25" width="4" height="1"/>
<rect x="24" y="25" width="4" height="1"/>
<rect x="31" y="25" width="1" height="1"/>
<rect x="36" y="25" width="1" height="1"/>
<rect x="40" y="25" width="2" height="1"/>
<rect x="45" y="25" width="4" height="1"/>
<rect x="50" y="25" width="2" height="1"/>
<rect x="55" y="25" width="2" height="1"/>
<rect x="59" y="25" width="2" height="1"/>
<rect x="63" y="25" width="1" height="1"/>
<rect x="67" y="25" width="2" height="1"/>
<rect x="71" y="25" width="2" height="1"/>
<rect x="76" y="25" width="4" height="1"/>
<rect x="82" y="25" width="1" height="1"/>
<rect x="87" y="25" width="1" height="1"/>
<rect x="91" y="25" width="3" height="1"/>
<rect x="95" y="25" width="1" height="1"/>
<rect x="16" y="30" width="328" height="1"/>
<rect x="120" y="63" width="1" height="1"/>
<rect x="103" y="64" width="2" height="1"/>
<rect x="115" y="64" width="1" height="1"/>
<rect x="103" y="65" width="2" height="1"/>
<rect x="115" y="65" width="1" height="1"/>
<rect x="103" y="66" width="1" height="1"/>
<rect x="105" y="66" width="1" height="1"/>
<rect x="110" y="66" width="8" height="1"/>
<rect x="120" y="66" width="1" height="1"/>
<rect x="124" y="66" width="4" height="1"/>
<rect x="131" y="66" width="1" height="1"/>
<rect x="133" y="66" width="3" height="1"/>
<rect x="139" y="66" width="5" height="1"/>
<rect x="102" y="67" width="1" height="1"/>
<rect x="105" y="67" width="1" height="1"/>
<rect x="109" y="67" width="1" height="1"/>
<rect x="115" y="67" width="1" height="1"/>
<rect x="120" y="67" width="1" height="1"/>
<rect x="123" y="67" width="1" height="1"/>
<rect x="127" y="67" width="2" height="1"/>
<rect x="131" y="67" width="2" height="1"/>
<rect x="136" y="67" width="1" height="1"/>
<rect x="139" y="67" width="1" height="1"/>
<rect x="102" y="68" width="1" height="1"/>
<rect x="105" y="68" width="1" height="1"/>
<rect x="109" y="68" width="1" height="1"/>
<rect x="115" y="68" width="1" height="1"/>
<rect x="120" y="68" width="1" height="1"/>
<rect x="123" y="68" width="1" height="1"/>
<rect x="128" y="68" width="1" height="1"/>
<rect x="131" y="68" width="1" height="1"/>
<rect x="136" y="68" width="1" height="1"/>
<rect x="139" y="68" width="1" height="1"/>
<rect x="101" y="69" width="6" height="1"/>
<rect x="109" y="69" width="1" height="1"/>
<rect x="115" y="69" width="1" height="1"/>
<rect x="120" y="69" width="1" height="1"/>
<rect x="123" y="69" width="1" height="1"/>
<rect x="128" y="69" width="1" height="1"/>
<rect x="131" y="69" width="1" height="1"/>
<rect x="136" y="69" width="1" height="1"/>
<rect x="140" y="69" width="3" height="1"/>
<rect x="101" y="70" width="1" height="1"/>
<rect x="106" y="70" width="1" height="1"/>
<rect x="109" y="70" width="1" height="1"/>
<rect x="115" y="70" width="1" height="1"/>
<rect x="120" y="70" width="1" height="1"/>
<rect x="123" y="70" width="1" height="1"/>
<rect x="128" y="70" width="1" height="1"/>
<rect x="131" y="70" width="1" height="1"/>
<rect x="136" y="70" width="1" height="1"/>
<rect x="142" y="70" width="2" height="1"/>
<rect x="101" y="71" width="1" height="1"/>
<rect x="107" y="71" width="1" height="1"/>
<rect x="109" y="71" width="1" height="1"/>
<rect x="115" y="71" width="1" height="1"/>
<rect x="120" y="71" width="1" height="1"/>
<rect x="123" y="71" width="1" height="1"/>
<rect x="127" y="71" width="2" height="1"/>
<rect x="131" y="71" width="1" height="1"/>
<rect x="136" y="71" width="1" height="1"/>
<rect x="142" y="71" width="2" height="1"/>
<rect x="100" y="72" width="1" height="1"/>
<rect x="107" y="72" width="1" height="1"/>
<rect x="110" y="72" width="4" height="1"/>
<rect x="116" y="72" width="2" height="1"/>
<rect x="120" y="72" width="1" height="1"/>
<rect x="124" y="72" width="4" height="1"/>
<rect x="131" y="72" width="1" height="1"/>
<rect x="136" y="72" width="1" height="1"/>
<rect x="139" y="72" width="4" height="1"/>
<rect x="107" y="95" width="4" height="1"/>
<rect x="106" y="96" width="1" height="1"/>
<rect x="111" y="96" width="2" height="1"/>
<rect x="105" y="97" width="1" height="1"/>
<rect x="112" y="97" width="1" height="1"/>
<rect x="115" y="97" width="1" height="1"/>
<rect x="117" y="97" width="3" height="1"/>
<rect x="124" y="97" width="3" height="1"/>
<rect x="130" y="97" width="1" height="1"/>
<rect x="132" y="97" width="3" height="1"/>
<rect x="105" y="98" width="1" height="1"/>
<rect x="112" y="98" width="1" height="1"/>
<rect x="115" y="98" width="2" height="1"/>
<rect x="120" y="98" width="1" height="1"/>
<rect x="123" y="98" width="1" height="1"/>
<rect x="127" y="98" width="1" height="1"/>
<rect x="130" y="98" width="2" height="1"/>
<rect x="135" y="98" width="1" height="1"/>
<rect x="105" y="99" width="1" height="1"/>
<rect x="112" y="99" width="1" height="1"/>
<rect x="115" y="99" width="1" height="1"/>
<rect x="120" y="99" width="1" height="1"/>
<rect x="123" y="99" width="1" height="1"/>
<rect x="127" y="99" width="2" height="1"/>
<rect x="130" y="99" width="1" height="1"/>
<rect x="135" y="99" width="1" height="1"/>
<rect x="105" y="100" width="1" height="1"/>
<rect x="112" y="100" width="1" height="1"/>
<rect x="115" y="100" width="1" height="1"/>
<rect x="120" y="100" width="1" height="1"/>
<rect x="123" y="100" width="6" height="1"/>
<rect x="130" y="100" width="1" height="1"/>
<rect x="135" y="100" width="1" height="1"/>
<rect x="105" y="101" width="1" height="1"/>
<rect x="112" y="101" width="1" height="1"/>
<rect x="115" y="101" width="1" height="1"/>
<rect x="120" y="101" width="1" height="1"/>
<rect x="123" y="101" width="1" height="1"/>
<rect x="130" y="101" width="1" height="1"/>
<rect x="135" y="101" width="1" height="1"/>
<rect x="106" y="102" width="1" height="1"/>
<rect x="111" y="102" width="1" height="1"/>
<rect x="115" y="102" width="2" height="1"/>
<rect x="119" y="102" width="2" height="1"/>
<rect x="123" y="102" width="1" height="1"/>
<rect x="130" y="102" width="1" height="1"/>
<rect x="135" y="102" width="1" height="1"/>
<rect x="107" y="103" width="4" height="1"/>
<rect x="115" y="103" width="1" height="1"/>
<rect x="117" y="103" width="3" height="1"/>
<rect x="124" y="103" width="4" height="1"/>
<rect x="130" y="103" width="1" height="1"/>
<rect x="135" y="103" width="1" height="1"/>
<rect x="115" y="104" width="1" height="1"/>
<rect x="115" y="105" width="1" height="1"/>
<rect x="115" y="106" width="1" height="1"/>
</g>
</svg>
