<svg xmlns="http://www.w3.org/2000/svg" viewBox="0 0 360 180" width="360" height="180" shape-rendering="crispEdges">
<rect width="100%" height="100%" fill="#fff"/>
<g fill="#111">
<rect x="99" y="16" width="1" height="1"/>
<rect x="52" y="17" width="5" height="1"/>
<rect x="99" y="17" width="1" height="1"/>
<rect x="51" y="18" width="1" height="1"/>
<rect x="99" y="18" width="1" height="1"/>
<rect x="18" y="19" width="4" height="1"/>
<rect x="24" y="19" width="4" height="1"/>
<rect x="30" y="19" width="1" height="1"/>
<rect x="35" y="19" width="2" height="1"/>
<rect x="39" y="19" width="3" height="1"/>
<rect x="45" y="19" width="1" height="1"/>
<rect x="47" y="19" width="2" height="1"/>
<rect x="50" y="19" width="1" height="1"/>
<rect x="59" y="19" width="4" height="1"/>
<rect x="65" y="19" width="1" height="1"/>
<rect x="67" y="19" width="2" height="1"/>
<rect x="71" y="19" width="4" height="1"/>
<rect x="78" y="19" width="1" height="1"/>
<rect x="83" y="19" width="1" height="1"/>
<rect x="86" y="19" width="5" height="1"/>
<rect x="93" y="19" width="3" height="1"/>
<rect x="99" y="19" width="1" height="1"/>
<rect x="17" y="20" width="1" height="1"/>
<rect x="23" y="20" width="1" height="1"/>
<rect x="27" y="20" width="2" height="1"/>
<rect x="31" y="20" width="1" height="1"/>
<rect x="35" y="20" width="1" height="1"/>
<rect x="38" y="20" width="1" height="1"/>
<rect x="42" y="20" width="1" height="1"/>
<rect x="45" y="20" width="2" height="1"/>
<rect x="50" y="20" width="1" height="1"/>
<rect x="58" y="20" width="1" height="1"/>
<rect x="62" y="20" width="1" height="1"/>
<rect x="65" y="20" width="2" height="1"/>
<rect x="70" y="20" width="1" height="1"/>
<rect x="74" y="20" width="2" height="1"/>
<rect x="78" y="20" width="1" height="1"/>
<rect x="83" y="20" width="1" height="1"/>
<rect x="86" y="20" width="1" height="1"/>
<rect x="92" y="20" width="1" height="1"/>
<rect x="96" y="20" width="1" height="1"/>
<rect x="99" y="20" width="1" height="1"/>
<rect x="17" y="21" width="1" height="1"/>
<rect x="23" y="21" width="1" height="1"/>
<rect x="28" y="21" width="1" height="1"/>
<rect x="31" y="21" width="1" height="1"/>
<rect x="34" y="21" width="2" height="1"/>
<rect x="38" y="21" width="1" height="1"/>
<rect x="42" y="21" width="2" height="1"/>
<rect x="45" y="21" width="1" height="1"/>
<rect x="50" y="21" width="1" height="1"/>
<rect x="62" y="21" width="1" height="1"/>
<rect x="65" y="21" width="1" height="1"/>
<rect x="70" y="21" width="1" height="1"/>
<rect x="75" y="21" width="1" height="1"/>
<rect x="78" y="21" width="1" height="1"/>
<rect x="83" y="21" width="1" height="1"/>
<rect x="86" y="21" width="1" height="1"/>
<rect x="92" y="21" width="1" height="1"/>
<rect x="96" y="21" width="2" height="1"/>
<rect x="99" y="21" width="1" height="1"/>
<rect x="17" y="22" width="1" height="1"/>
<rect x="23" y="22" width="1" height="1"/>
<rect x="28" y="22" width="1" height="1"/>
<rect x="31" y="22" width="1" height="1"/>
<rect x="34" y="22" width="1" height="1"/>
<rect x="38" y="22" width="6" height="1"/>
<rect x="45" y="22" width="1" height="1"/>
<rect x="50" y="22" width="1" height="1"/>
<rect x="58" y="22" width="5" height="1"/>
<rect x="65" y="22" width="1" height="1"/>
<rect x="70" y="22" width="1" height="1"/>
<rect x="75" y="22" width="1" height="1"/>
<rect x="78" y="22" width="1" height="1"/>
<rect x="83" y="22" width="1" height="1"/>
<rect x="87" y="22" width="3" height="1"/>
<rect x="92" y="22" width="6" height="1"/>
<rect x="99" y="22" width="1" height="1"/>
<rect x="17" y="23" width="1" height="1"/>
<rect x="23" y="23" width="1" height="1"/>
<rect x="28" y="23" width="1" height="1"/>
<rect x="32" y="23" width="1" height="1"/>
<rect x="34" y="23" width="1" height="1"/>
<rect x="38" y="23" width="1" height="1"/>
<rect x="45" y="23" width="1" height="1"/>
<rect x="50" y="23" width="1" height="1"/>
<rect x="58" y="23" width="1" height="1"/>
<rect x="62" y="23" width="1" height="1"/>
<rect x="65" y="23" width="1" height="1"/>
<rect x="70" y="23" width="1" height="1"/>
<rect x="75" y="23" width="1" height="1"/>
<rect x="78" y="23" width="1" height="1"/>
<rect x="83" y="23" width="1" height="1"/>
<rect x="89" y="23" width="2" height="1"/>
<rect x="92" y="23" width="1" height="1"/>
<rect x="99" y="23" width="1" height="1"/>
<rect x="17" y="24" width="1" height="1"/>
<rect x="23" y="24" width="1" height="1"/>
<rect x="27" y="24" width="2" height="1"/>
<rect x="32" y="24" width="3" height="1"/>
<rect x="38" y="24" width="1" height="1"/>
<rect x="45" y="24" width="1" height="1"/>
<rect x="51" y="24" width="1" height="1"/>
<rect x="58" y="24" width="1" height="1"/>
<rect x="62" y="24" width="1" height="1"/>
<rect x="65" y="24" width="1" height="1"/>
<rect x="70" y="24" width="1" height="1"/>
<rect x="74" y="24" width="2" height="1"/>
<rect x="78" y="24" width="1" height="1"/>
<rect x="82" y="24" width="2" height="1"/>
<rect x="89" y="24" width="2" height="1"/>
<rect x="92" y="24" width="1" height="1"/>
<rect x="99" y="24" width="1" height="1"/>
<rect x="18" y="25" width="4" height="1"/>
<rect x="24" y="25" width="4" height="1"/>
<rect x="32" y="25" width="2" height="1"/>
<rect x="39" y="25" width="4" height="1"/>
<rect x="45" y="25" width="1" height="1"/>
<rect x="52" y="25" width="4" height="1"/>
<rect x="58" y="25" width="5" height="1"/>
<rect x="65" y="25" width="1" height="1"/>
<rect x="71" y="25" width="4" height="1"/>
<rect x="79" y="25" width="3" height="1"/>
<rect x="83" y="25" width="1" height="1"/>
<rect x="86" y="25" width="4" height="1"/>
<rect x="93" y="25" width="4" height="1"/>
<rect x="99" y="25" width="1" height="1"/>
<rect x="16" y="30" width="328" height="1"/>
<rect x="142" y="50" width="76" height="1"/>
<rect x="142" y="51" width="76" height="1"/>
<rect x="142" y="52" width="76" height="1"/>
<rect x="142" y="53" width="76" height="1"/>
<rect x="142" y="54" width="76" height="1"/>
<rect x="142" y="55" width="76" height="1"/>
<rect x="142" y="56" width="76" height="1"/>
<rect x="142" y="57" width="76" height="1"/>
<rect x="142" y="58" width="76" height="1"/>
<rect x="142" y="59" width="76" height="1"/>
<rect x="142" y="60" width="76" height="1"/>
<rect x="142" y="61" width="76" height="1"/>
<rect x="142" y="62" width="76" height="1"/>
<rect x="142" y="63" width="76" height="1"/>
<rect x="142" y="64" width="76" height="1"/>
<rect x="142" y="65" width="76" height="1"/>
<rect x="142" y="66" width="76" height="1"/>
<rect x="142" y="67" width="76" height="1"/>
<rect x="142" y="68" width="76" height="1"/>
<rect x="142" y="69" width="76" height="1"/>
<rect x="142" y="70" width="76" height="1"/>
<rect x="142" y="71" width="76" height="1"/>
<rect x="142" y="72" width="76" height="1"/>
<rect x="142" y="73" width="76" height="1"/>
<rect x="142" y="74" width="76" height="1"/>
<rect x="142" y="75" width="76" height="1"/>
<rect x="142" y="76" width="76" height="1"/>
<rect x="142" y="77" width="76" height="1"/>
<rect x="142" y="78" width="76" height="1"/>
<rect x="142" y="79" width="76" height="1"/>
<rect x="142" y="80" width="76" height="1"/>
<rect x="142" y="81" width="76" height="1"/>
<rect x="142" y="82" width="76" height="1"/>
<rect x="142" y="83" width="76" height="1"/>
<rect x="142" y="84" width="76" height="1"/>
<rect x="142" y="85" width="76" height="1"/>
<rect x="142" y="86" width="76" height="1"/>
<rect x="142" y="87" width="76" height="1"/>
<rect x="142" y="88" width="76" height="1"/>
<rect x="142" y="89" width="76" height="1"/>
<rect x="142" y="90" width="76" height="1"/>
<rect x="142" y="91" width="76" height="1"/>
<rect x="142" y="92" width="76" height="1"/>
<rect x="142" y="93" width="76" height="1"/>
<rect x="142" y="94" width="76" height="1"/>
<rect x="142" y="95" width="76" height="1"/>
<rect x="142" y="96" width="76" height="1"/>
<rect x="142" y="97" width="76" height="1"/>
<rect x="142" y="98" width="76" height="1"/>
<rect x="142" y="99" width="76" height="1"/>
<rect x="142" y="100" width="76" height="1"/>
<rect x="142" y="101" width="76" height="1"/>
<rect x="142" y="102" width="76" height="1"/>
<rect x="142" y="103" width="76" height="1"/>
<rect x="142" y="104" width="76" height="1"/>
<rect x="142" y="105" width="76" height="1"/>
<rect x="142" y="106" width="76" height="1"/>
<rect x="142" y="107" width="76" height="1"/>
<rect x="142" y="108" width="76" height="1"/>
<rect x="142" y="109" width="76" height="1"/>
<rect x="142" y="110" width="76" height="1"/>
<rect x="142" y="111" width="76" height="1"/>
<rect x="142" y="112" width="76" height="1"/>
<rect x="142" y="113" width="76" height="1"/>
<rect x="142" y="114" width="76" height="1"/>
<rect x="142" y="115" width="76" height="1"/>
<rect x="142" y="116" width="76" height="1"/>
<rect x="142" y="117" width="76" height="1"/>
<rect x="142" y="118" width="76" height="1"/>
<rect x="142" y="119" width="76" height="1"/>
<rect x="142" y="120" width="76" height="1"/>
<rect x="142" y="121" width="76" height="1"/>
<rect x="142" y="122" width="76" height="1"/>
<rect x="142" y="123" width="76" height="1"/>
<rect x="142" y="124" width="76" height="1"/>
<rect x="142" y="125" width="76" height="1"/>
<rect x="142" y="126" width="76" height="1"/>
<rect x="142" y="127" width="76" height="1"/>
<rect x="142" y="128" width="76" height="1"/>
<rect x="142" y="129" width="76" height="1"/>
<rect x="142" y="130" width="76" height="1"/>
<rect x="142" y="131" width="76" height="1"/>
<rect x="142" y="132" width="76" height="1"/>
<rect x="142" y="133" width="76" height="1"/>
<rect x="142" y="134" width="76" height="1"/>
<rect x="142" y="135" width="76" height="1"/>
<rect x="142" y="136" width="76" height="1"/>
<rect x="142" y="137" width="76" height="1"/>
<rect x="142" y="138" width="76" height="1"/>
<rect x="142" y="139" width="76" height="1"/>
<rect x="142" y="140" width="76" height="1"/>
<rect x="142" y="141" width="76" height="1"/>
<rect x="142" y="142" width="76" height="1"/>
<rect x="142" y="143" width="76" height="1"/>
<rect x="142" y="144" width="76" height="1"/>
<rect x="142" y="145" width="76" height="1"/>
<rect x="142" y="146" width="76" height="1"/>
<rect x="142" y="147" width="76" height="1"/>
<rect x="142" y="148" width="76" height="1"/>
<rect x="142" y="149" width="76" height="1"/>
<rect x="142" y="150" width="76" height="1"/>
<rect x="142" y="151" width="76" height="1"/>
<rect x="142" y="152" width="76" height="1"/>
<rect x="142" y="153" width="76" height="1"/>
</g>
</svg>
