<svg xmlns="http://www.w3.org/2000/svg" viewBox="0 0 360 180" width="360" height="180" shape-rendering="crispEdges">
<rect width="100%" height="100%" fill="#fff"/>
<g fill="#111">
<rect x="30" y="0" width="1" height="1"/>
<rect x="50" y="0" width="104" height="1"/>
<rect x="30" y="1" width="1" height="1"/>
<rect x="50" y="1" width="104" height="1"/>
<rect x="30" y="2" width="1" height="1"/>
<rect x="50" y="2" width="104" height="1"/>
<rect x="17" y="3" width="18" height="1"/>
<rect x="50" y="3" width="104" height="1"/>
<rect x="17" y="4" width="18" height="1"/>
<rect x="50" y="4" width="104" height="1"/>
<rect x="30" y="5" width="1" height="1"/>
<rect x="50" y="5" width="104" height="1"/>
<rect x="30" y="6" width="1" height="1"/>
<rect x="50" y="6" width="104" height="1"/>
<rect x="30" y="7" width="1" height="1"/>
<rect x="50" y="7" width="104" height="1"/>
<rect x="30" y="8" width="1" height="1"/>
<rect x="50" y="8" width="104" height="1"/>
<rect x="24" y="9" width="5" height="1"/>
<rect x="30" y="9" width="1" height="1"/>
<rect x="33" y="9" width="1" height="1"/>
<rect x="50" y="9" width="104" height="1"/>
<rect x="23" y="10" width="6" height="1"/>
<rect x="30" y="10" width="1" height="1"/>
<rect x="33" y="10" width="2" height="1"/>
<rect x="50" y="10" width="104" height="1"/>
<rect x="22" y="11" width="3" height="1"/>
<rect x="27" y="11" width="2" height="1"/>
<rect x="30" y="11" width="1" height="1"/>
<rect x="33" y="11" width="2" height="1"/>
<rect x="50" y="11" width="104" height="1"/>
<rect x="22" y="12" width="2" height="1"/>
<rect x="27" y="12" width="2" height="1"/>
<rect x="30" y="12" width="1" height="1"/>
<rect x="33" y="12" width="2" height="1"/>
<rect x="50" y="12" width="104" height="1"/>
<rect x="22" y="13" width="2" height="1"/>
<rect x="27" y="13" width="2" height="1"/>
<rect x="30" y="13" width="1" height="1"/>
<rect x="33" y="13" width="2" height="1"/>
<rect x="50" y="13" width="104" height="1"/>
<rect x="22" y="14" width="2" height="1"/>
<rect x="27" y="14" width="2" height="1"/>
<rect x="30" y="14" width="1" height="1"/>
<rect x="33" y="14" width="2" height="1"/>
<rect x="50" y="14" width="104" height="1"/>
<rect x="22" y="15" width="2" height="1"/>
<rect x="27" y="15" width="2" height="1"/>
<rect x="30" y="15" width="1" height="1"/>
<rect x="33" y="15" width="2" height="1"/>
<rect x="50" y="15" width="104" height="1"/>
<rect x="22" y="16" width="3" height="1"/>
<rect x="27" y="16" width="2" height="1"/>
<rect x="30" y="16" width="1" height="1"/>
<rect x="32" y="16" width="3" height="1"/>
<rect x="50" y="16" width="104" height="1"/>
<rect x="23" y="17" width="11" height="1"/>
<rect x="50" y="17" width="104" height="1"/>
<rect x="24" y="18" width="9" height="1"/>
<rect x="50" y="18" width="104" height="1"/>
<rect x="27" y="19" width="4" height="1"/>
<rect x="50" y="19" width="104" height="1"/>
<rect x="30" y="20" width="1" height="1"/>
<rect x="50" y="20" width="104" height="1"/>
<rect x="30" y="21" width="1" height="1"/>
<rect x="50" y="21" width="104" height="1"/>
<rect x="30" y="22" width="1" height="1"/>
<rect x="50" y="22" width="104" height="1"/>
<rect x="22" y="23" width="2" height="1"/>
<rect x="29" y="23" width="5" height="1"/>
<rect x="50" y="23" width="104" height="1"/>
<rect x="22" y="24" width="2" height="1"/>
<rect x="28" y="24" width="7" height="1"/>
<rect x="50" y="24" width="104" height="1"/>
<rect x="22" y="25" width="2" height="1"/>
<rect x="28" y="25" width="3" height="1"/>
<rect x="33" y="25" width="2" height="1"/>
<rect x="50" y="25" width="104" height="1"/>
<rect x="22" y="26" width="2" height="1"/>
<rect x="28" y="26" width="3" height="1"/>
<rect x="33" y="26" width="2" height="1"/>
<rect x="50" y="26" width="104" height="1"/>
<rect x="22" y="27" width="2" height="1"/>
<rect x="27" y="27" width="2" height="1"/>
<rect x="30" y="27" width="1" height="1"/>
<rect x="34" y="27" width="1" height="1"/>
<rect x="50" y="27" width="104" height="1"/>
<rect x="22" y="28" width="2" height="1"/>
<rect x="27" y="28" width="2" height="1"/>
<rect x="30" y="28" width="1" height="1"/>
<rect x="33" y="28" width="2" height="1"/>
<rect x="50" y="28" width="104" height="1"/>
<rect x="22" y="29" width="2" height="1"/>
<rect x="26" y="29" width="2" height="1"/>
<rect x="30" y="29" width="1" height="1"/>
<rect x="33" y="29" width="2" height="1"/>
<rect x="50" y="29" width="104" height="1"/>
<rect x="23" y="30" width="5" height="1"/>
<rect x="30" y="30" width="1" height="1"/>
<rect x="33" y="30" width="2" height="1"/>
<rect x="50" y="30" width="104" height="1"/>
<rect x="24" y="31" width="3" height="1"/>
<rect x="30" y="31" width="1" height="1"/>
<rect x="32" y="31" width="3" height="1"/>
<rect x="50" y="31" width="104" height="1"/>
<rect x="30" y="32" width="1" height="1"/>
<rect x="50" y="32" width="104" height="1"/>
<rect x="30" y="33" width="1" height="1"/>
<rect x="50" y="33" width="104" height="1"/>
<rect x="30" y="34" width="1" height="1"/>
<rect x="50" y="34" width="104" height="1"/>
<rect x="23" y="35" width="13" height="1"/>
<rect x="50" y="35" width="104" height="1"/>
<rect x="23" y="36" width="13" height="1"/>
<rect x="50" y="36" width="104" height="1"/>
<rect x="30" y="37" width="1" height="1"/>
<rect x="32" y="37" width="3" height="1"/>
<rect x="50" y="37" width="104" height="1"/>
<rect x="30" y="38" width="1" height="1"/>
<rect x="34" y="38" width="1" height="1"/>
<rect x="30" y="39" width="1" height="1"/>
<rect x="34" y="39" width="2" height="1"/>
<rect x="30" y="40" width="1" height="1"/>
<rect x="34" y="40" width="2" height="1"/>
<rect x="30" y="41" width="1" height="1"/>
<rect x="34" y="41" width="2" height="1"/>
<rect x="30" y="42" width="1" height="1"/>
<rect x="34" y="42" width="2" height="1"/>
<rect x="30" y="43" width="1" height="1"/>
<rect x="33" y="43" width="3" height="1"/>
<rect x="23" y="44" width="12" height="1"/>
<rect x="23" y="45" width="11" height="1"/>
<rect x="30" y="46" width="1" height="1"/>
<rect x="30" y="47" width="1" height="1"/>
<rect x="30" y="48" width="1" height="1"/>
<rect x="30" y="49" width="1" height="1"/>
<rect x="25" y="50" width="7" height="1"/>
<rect x="24" y="51" width="10" height="1"/>
<rect x="23" y="52" width="3" height="1"/>
<rect x="30" y="52" width="4" height="1"/>
<rect x="22" y="53" width="2" height="1"/>
<rect x="30" y="53" width="1" height="1"/>
<rect x="33" y="53" width="2" height="1"/>
<rect x="22" y="54" width="2" height="1"/>
<rect x="30" y="54" width="1" height="1"/>
<rect x="33" y="54" width="2" height="1"/>
<rect x="22" y="55" width="2" height="1"/>
<rect x="30" y="55" width="1" height="1"/>
<rect x="33" y="55" width="2" height="1"/>
<rect x="22" y="56" width="2" height="1"/>
<rect x="30" y="56" width="1" height="1"/>
<rect x="33" y="56" width="2" height="1"/>
<rect x="22" y="57" width="2" height="1"/>
<rect x="30" y="57" width="1" height="1"/>
<rect x="33" y="57" width="2" height="1"/>
<rect x="22" y="58" width="3" height="1"/>
<rect x="30" y="58" width="1" height="1"/>
<rect x="32" y="58" width="3" height="1"/>
<rect x="23" y="59" width="11" height="1"/>
<rect x="24" y="60" width="9" height="1"/>
<rect x="26" y="61" width="5" height="1"/>
<rect x="30" y="62" width="1" height="1"/>
<rect x="22" y="63" width="1" height="1"/>
<rect x="30" y="63" width="1" height="1"/>
<rect x="22" y="64" width="2" height="1"/>
<rect x="30" y="64" width="1" height="1"/>
<rect x="22" y="65" width="2" height="1"/>
<rect x="30" y="65" width="1" height="1"/>
<rect x="22" y="66" width="2" height="1"/>
<rect x="30" y="66" width="1" height="1"/>
<rect x="23" y="67" width="2" height="1"/>
<rect x="30" y="67" width="1" height="1"/>
<rect x="24" y="68" width="2" height="1"/>
<rect x="30" y="68" width="1" height="1"/>
<rect x="22" y="69" width="13" height="1"/>
<rect x="22" y="70" width="13" height="1"/>
<rect x="30" y="71" width="1" height="1"/>
<rect x="30" y="72" width="1" height="1"/>
<rect x="30" y="73" width="1" height="1"/>
<rect x="26" y="74" width="9" height="1"/>
<rect x="23" y="75" width="12" height="1"/>
<rect x="22" y="76" width="11" height="1"/>
<rect x="22" y="77" width="2" height="1"/>
<rect x="27" y="77" width="2" height="1"/>
<rect x="30" y="77" width="1" height="1"/>
<rect x="32" y="77" width="2" height="1"/>
<rect x="22" y="78" width="2" height="1"/>
<rect x="27" y="78" width="2" height="1"/>
<rect x="30" y="78" width="1" height="1"/>
<rect x="33" y="78" width="2" height="1"/>
<rect x="22" y="79" width="2" height="1"/>
<rect x="27" y="79" width="2" height="1"/>
<rect x="30" y="79" width="1" height="1"/>
<rect x="33" y="79" width="2" height="1"/>
<rect x="22" y="80" width="2" height="1"/>
<rect x="27" y="80" width="2" height="1"/>
<rect x="30" y="80" width="1" height="1"/>
<rect x="34" y="80" width="1" height="1"/>
<rect x="22" y="81" width="2" height="1"/>
<rect x="28" y="81" width="1" height="1"/>
<rect x="30" y="81" width="1" height="1"/>
<rect x="33" y="81" width="2" height="1"/>
<rect x="23" y="82" width="2" height="1"/>
<rect x="28" y="82" width="3" height="1"/>
<rect x="32" y="82" width="3" height="1"/>
<rect x="29" y="83" width="6" height="1"/>
<rect x="30" y="84" width="3" height="1"/>
<rect x="30" y="85" width="1" height="1"/>
<rect x="30" y="86" width="1" height="1"/>
<rect x="18" y="87" width="2" height="1"/>
<rect x="30" y="87" width="1" height="1"/>
<rect x="33" y="87" width="2" height="1"/>
<rect x="18" y="88" width="2" height="1"/>
<rect x="30" y="88" width="1" height="1"/>
<rect x="33" y="88" width="2" height="1"/>
<rect x="18" y="89" width="2" height="1"/>
<rect x="30" y="89" width="1" height="1"/>
<rect x="33" y="89" width="2" height="1"/>
<rect x="18" y="90" width="2" height="1"/>
<rect x="30" y="90" width="1" height="1"/>
<rect x="33" y="90" width="2" height="1"/>
<rect x="18" y="91" width="2" height="1"/>
<rect x="30" y="91" width="1" height="1"/>
<rect x="33" y="91" width="2" height="1"/>
<rect x="18" y="92" width="2" height="1"/>
<rect x="30" y="92" width="1" height="1"/>
<rect x="33" y="92" width="2" height="1"/>
<rect x="18" y="93" width="2" height="1"/>
<rect x="30" y="93" width="1" height="1"/>
<rect x="33" y="93" width="2" height="1"/>
<rect x="18" y="94" width="2" height="1"/>
<rect x="30" y="94" width="1" height="1"/>
<rect x="33" y="94" width="2" height="1"/>
<rect x="19" y="95" width="2" height="1"/>
<rect x="30" y="95" width="1" height="1"/>
<rect x="32" y="95" width="2" height="1"/>
<rect x="19" y="96" width="4" height="1"/>
<rect x="30" y="96" width="4" height="1"/>
<rect x="20" y="97" width="13" height="1"/>
<rect x="22" y="98" width="9" height="1"/>
<rect x="25" y="99" width="3" height="1"/>
<rect x="30" y="99" width="1" height="1"/>
<rect x="30" y="100" width="1" height="1"/>
<rect x="22" y="101" width="1" height="1"/>
<rect x="30" y="101" width="1" height="1"/>
<rect x="22" y="102" width="2" height="1"/>
<rect x="30" y="102" width="1" height="1"/>
<rect x="22" y="103" width="2" height="1"/>
<rect x="30" y="103" width="1" height="1"/>
<rect x="22" y="104" width="2" height="1"/>
<rect x="30" y="104" width="1" height="1"/>
<rect x="23" y="105" width="2" height="1"/>
<rect x="30" y="105" width="1" height="1"/>
<rect x="24" y="106" width="2" height="1"/>
<rect x="30" y="106" width="1" height="1"/>
<rect x="22" y="107" width="13" height="1"/>
<rect x="22" y="108" width="13" height="1"/>
<rect x="30" y="109" width="1" height="1"/>
<rect x="30" y="110" width="1" height="1"/>
<rect x="30" y="111" width="1" height="1"/>
<rect x="30" y="112" width="1" height="1"/>
<rect x="24" y="113" width="5" height="1"/>
<rect x="30" y="113" width="1" height="1"/>
<rect x="33" y="113" width="1" height="1"/>
<rect x="23" y="114" width="6" height="1"/>
<rect x="30" y="114" width="1" height="1"/>
<rect x="33" y="114" width="2" height="1"/>
<rect x="22" y="115" width="3" height="1"/>
<rect x="27" y="115" width="2" height="1"/>
<rect x="30" y="115" width="1" height="1"/>
<rect x="33" y="115" width="2" height="1"/>
<rect x="22" y="116" width="2" height="1"/>
<rect x="27" y="116" width="2" height="1"/>
<rect x="30" y="116" width="1" height="1"/>
<rect x="33" y="116" width="2" height="1"/>
<rect x="22" y="117" width="2" height="1"/>
<rect x="27" y="117" width="2" height="1"/>
<rect x="30" y="117" width="1" height="1"/>
<rect x="33" y="117" width="2" height="1"/>
<rect x="22" y="118" width="2" height="1"/>
<rect x="27" y="118" width="2" height="1"/>
<rect x="30" y="118" width="1" height="1"/>
<rect x="33" y="118" width="2" height="1"/>
<rect x="22" y="119" width="2" height="1"/>
<rect x="27" y="119" width="2" height="1"/>
<rect x="30" y="119" width="1" height="1"/>
<rect x="33" y="119" width="2" height="1"/>
<rect x="22" y="120" width="3" height="1"/>
<rect x="27" y="120" width="2" height="1"/>
<rect x="30" y="120" width="1" height="1"/>
<rect x="32" y="120" width="3" height="1"/>
<rect x="23" y="121" width="11" height="1"/>
<rect x="24" y="122" width="9" height="1"/>
<rect x="27" y="123" width="4" height="1"/>
<rect x="30" y="124" width="1" height="1"/>
<rect x="23" y="125" width="2" height="1"/>
<rect x="30" y="125" width="1" height="1"/>
<rect x="23" y="126" width="5" height="1"/>
<rect x="30" y="126" width="1" height="1"/>
<rect x="24" y="127" width="7" height="1"/>
<rect x="27" y="128" width="6" height="1"/>
<rect x="30" y="129" width="6" height="1"/>
<rect x="30" y="130" width="1" height="1"/>
<rect x="33" y="130" width="3" height="1"/>
<rect x="30" y="131" width="1" height="1"/>
<rect x="32" y="131" width="4" height="1"/>
<rect x="29" y="132" width="6" height="1"/>
<rect x="27" y="133" width="5" height="1"/>
<rect x="24" y="134" width="7" height="1"/>
<rect x="23" y="135" width="4" height="1"/>
<rect x="30" y="135" width="1" height="1"/>
<rect x="23" y="136" width="1" height="1"/>
<rect x="30" y="136" width="1" height="1"/>
<rect x="30" y="137" width="1" height="1"/>
<rect x="30" y="138" width="1" height="1"/>
<rect x="25" y="139" width="7" height="1"/>
<rect x="24" y="140" width="10" height="1"/>
<rect x="23" y="141" width="3" height="1"/>
<rect x="30" y="141" width="4" height="1"/>
<rect x="22" y="142" width="2" height="1"/>
<rect x="30" y="142" width="1" height="1"/>
<rect x="33" y="142" width="2" height="1"/>
<rect x="22" y="143" width="2" height="1"/>
<rect x="30" y="143" width="1" height="1"/>
<rect x="33" y="143" width="2" height="1"/>
<rect x="22" y="144" width="2" height="1"/>
<rect x="30" y="144" width="1" height="1"/>
<rect x="33" y="144" width="2" height="1"/>
<rect x="22" y="145" width="2" height="1"/>
<rect x="30" y="145" width="1" height="1"/>
<rect x="33" y="145" width="2" height="1"/>
<rect x="22" y="146" width="2" height="1"/>
<rect x="30" y="146" width="1" height="1"/>
<rect x="33" y="146" width="2" height="1"/>
<rect x="22" y="147" width="3" height="1"/>
<rect x="30" y="147" width="1" height="1"/>
<rect x="32" y="147" width="3" height="1"/>
<rect x="23" y="148" width="11" height="1"/>
<rect x="24" y="149" width="9" height="1"/>
<rect x="26" y="150" width="5" height="1"/>
<rect x="30" y="151" width="1" height="1"/>
<rect x="30" y="152" width="1" height="1"/>
<rect x="22" y="153" width="1" height="1"/>
<rect x="30" y="153" width="1" height="1"/>
<rect x="33" y="153" width="2" height="1"/>
<rect x="22" y="154" width="2" height="1"/>
<rect x="30" y="154" width="1" height="1"/>
<rect x="33" y="154" width="2" height="1"/>
<rect x="22" y="155" width="2" height="1"/>
<rect x="30" y="155" width="1" height="1"/>
<rect x="33" y="155" width="2" height="1"/>
<rect x="22" y="156" width="2" height="1"/>
<rect x="30" y="156" width="1" height="1"/>
<rect x="33" y="156" width="2" height="1"/>
<rect x="22" y="157" width="2" height="1"/>
<rect x="30" y="157" width="1" height="1"/>
<rect x="33" y="157" width="2" height="1"/>
<rect x="22" y="158" width="2" height="1"/>
<rect x="30" y="158" width="1" height="1"/>
<rect x="33" y="158" width="2" height="1"/>
<rect x="22" y="159" width="3" height="1"/>
<rect x="30" y="159" width="1" height="1"/>
<rect x="32" y="159" width="3" height="1"/>
<rect x="23" y="160" width="11" height="1"/>
<rect x="24" y="161" width="9" height="1"/>
<rect x="26" y="162" width="5" height="1"/>
<rect x="30" y="163" width="1" height="1"/>
</g>
</svg>
