<svg xmlns="http://www.w3.org/2000/svg" viewBox="0 0 360 180" width="360" height="180" shape-rendering="crispEdges">
<rect width="100%" height="100%" fill="#fff"/>
<g fill="#111">
<rect x="30" y="0" width="1" height="1"/>
<rect x="30" y="1" width="1" height="1"/>
<rect x="30" y="2" width="1" height="1"/>
<rect x="30" y="3" width="1" height="1"/>
<rect x="30" y="4" width="1" height="1"/>
<rect x="30" y="5" width="1" height="1"/>
<rect x="30" y="6" width="1" height="1"/>
<rect x="30" y="7" width="1" height="1"/>
<rect x="30" y="8" width="1" height="1"/>
<rect x="30" y="9" width="1" height="1"/>
<rect x="30" y="10" width="1" height="1"/>
<rect x="30" y="11" width="1" height="1"/>
<rect x="30" y="12" width="1" height="1"/>
<rect x="30" y="13" width="1" height="1"/>
<rect x="30" y="14" width="1" height="1"/>
<rect x="30" y="15" width="1" height="1"/>
<rect x="30" y="16" width="1" height="1"/>
<rect x="30" y="17" width="1" height="1"/>
<rect x="30" y="18" width="1" height="1"/>
<rect x="30" y="19" width="1" height="1"/>
<rect x="30" y="20" width="1" height="1"/>
<rect x="30" y="21" width="1" height="1"/>
<rect x="30" y="22" width="1" height="1"/>
<rect x="30" y="23" width="1" height="1"/>
<rect x="30" y="24" width="1" height="1"/>
<rect x="30" y="25" width="1" height="1"/>
<rect x="30" y="26" width="1" height="1"/>
<rect x="30" y="27" width="1" height="1"/>
<rect x="30" y="28" width="1" height="1"/>
<rect x="30" y="29" width="1" height="1"/>
<rect x="30" y="30" width="1" height="1"/>
<rect x="30" y="31" width="1" height="1"/>
<rect x="30" y="32" width="1" height="1"/>
<rect x="30" y="33" width="1" height="1"/>
<rect x="30" y="34" width="1" height="1"/>
<rect x="30" y="35" width="1" height="1"/>
<rect x="30" y="36" width="1" height="1"/>
<rect x="30" y="37" width="1" height="1"/>
<rect x="30" y="38" width="1" height="1"/>
<rect x="30" y="39" width="1" height="1"/>
<rect x="30" y="40" width="1" height="1"/>
<rect x="30" y="41" width="1" height="1"/>
<rect x="30" y="42" width="1" height="1"/>
<rect x="30" y="43" width="1" height="1"/>
<rect x="30" y="44" width="1" height="1"/>
<rect x="30" y="45" width="1" height="1"/>
<rect x="30" y="46" width="1" height="1"/>
<rect x="30" y="47" width="1" height="1"/>
<rect x="30" y="48" width="1" height="1"/>
<rect x="30" y="49" width="1" height="1"/>
<rect x="30" y="50" width="1" height="1"/>
<rect x="30" y="51" width="1" height="1"/>
<rect x="30" y="52" width="1" height="1"/>
<rect x="30" y="53" width="1" height="1"/>
<rect x="105" y="53" width="1" height="1"/>
<rect x="30" y="54" width="1" height="1"/>
<rect x="93" y="54" width="1" height="1"/>
<rect x="105" y="54" width="1" height="1"/>
<rect x="30" y="55" width="1" height="1"/>
<rect x="93" y="55" width="2" height="1"/>
<rect x="103" y="55" width="3" height="1"/>
<rect x="30" y="56" width="1" height="1"/>
<rect x="93" y="56" width="3" height="1"/>
<rect x="102" y="56" width="3" height="1"/>
<rect x="30" y="57" width="1" height="1"/>
<rect x="94" y="57" width="3" height="1"/>
<rect x="101" y="57" width="3" height="1"/>
<rect x="30" y="58" width="1" height="1"/>
<rect x="96" y="58" width="2" height="1"/>
<rect x="99" y="58" width="4" height="1"/>
<rect x="30" y="59" width="1" height="1"/>
<rect x="97" y="59" width="4" height="1"/>
<rect x="30" y="60" width="1" height="1"/>
<rect x="98" y="60" width="2" height="1"/>
<rect x="30" y="61" width="1" height="1"/>
<rect x="99" y="61" width="2" height="1"/>
<rect x="30" y="62" width="1" height="1"/>
<rect x="88" y="62" width="18" height="1"/>
<rect x="30" y="63" width="1" height="1"/>
<rect x="88" y="63" width="18" height="1"/>
<rect x="30" y="64" width="1" height="1"/>
<rect x="30" y="65" width="1" height="1"/>
<rect x="30" y="66" width="1" height="1"/>
<rect x="30" y="67" width="1" height="1"/>
<rect x="93" y="67" width="1" height="1"/>
<rect x="104" y="67" width="2" height="1"/>
<rect x="30" y="68" width="1" height="1"/>
<rect x="93" y="68" width="2" height="1"/>
<rect x="104" y="68" width="2" height="1"/>
<rect x="30" y="69" width="1" height="1"/>
<rect x="93" y="69" width="2" height="1"/>
<rect x="104" y="69" width="2" height="1"/>
<rect x="30" y="70" width="1" height="1"/>
<rect x="93" y="70" width="2" height="1"/>
<rect x="104" y="70" width="2" height="1"/>
<rect x="30" y="71" width="1" height="1"/>
<rect x="93" y="71" width="2" height="1"/>
<rect x="104" y="71" width="2" height="1"/>
<rect x="30" y="72" width="1" height="1"/>
<rect x="93" y="72" width="2" height="1"/>
<rect x="104" y="72" width="2" height="1"/>
<rect x="30" y="73" width="1" height="1"/>
<rect x="93" y="73" width="3" height="1"/>
<rect x="103" y="73" width="3" height="1"/>
<rect x="30" y="74" width="1" height="1"/>
<rect x="94" y="74" width="11" height="1"/>
<rect x="30" y="75" width="1" height="1"/>
<rect x="95" y="75" width="9" height="1"/>
<rect x="30" y="76" width="1" height="1"/>
<rect x="97" y="76" width="5" height="1"/>
<rect x="30" y="77" width="1" height="1"/>
<rect x="30" y="78" width="1" height="1"/>
<rect x="30" y="79" width="1" height="1"/>
<rect x="97" y="79" width="9" height="1"/>
<rect x="30" y="80" width="1" height="1"/>
<rect x="94" y="80" width="12" height="1"/>
<rect x="30" y="81" width="1" height="1"/>
<rect x="93" y="81" width="11" height="1"/>
<rect x="30" y="82" width="1" height="1"/>
<rect x="93" y="82" width="2" height="1"/>
<rect x="98" y="82" width="2" height="1"/>
<rect x="103" y="82" width="2" height="1"/>
<rect x="30" y="83" width="1" height="1"/>
<rect x="93" y="83" width="2" height="1"/>
<rect x="98" y="83" width="2" height="1"/>
<rect x="104" y="83" width="2" height="1"/>
<rect x="30" y="84" width="1" height="1"/>
<rect x="93" y="84" width="2" height="1"/>
<rect x="98" y="84" width="2" height="1"/>
<rect x="104" y="84" width="2" height="1"/>
<rect x="30" y="85" width="1" height="1"/>
<rect x="93" y="85" width="2" height="1"/>
<rect x="98" y="85" width="2" height="1"/>
<rect x="105" y="85" width="1" height="1"/>
<rect x="30" y="86" width="1" height="1"/>
<rect x="93" y="86" width="2" height="1"/>
<rect x="99" y="86" width="1" height="1"/>
<rect x="104" y="86" width="2" height="1"/>
<rect x="30" y="87" width="1" height="1"/>
<rect x="94" y="87" width="2" height="1"/>
<rect x="99" y="87" width="2" height="1"/>
<rect x="103" y="87" width="3" height="1"/>
<rect x="30" y="88" width="1" height="1"/>
<rect x="100" y="88" width="6" height="1"/>
<rect x="30" y="89" width="1" height="1"/>
<rect x="101" y="89" width="3" height="1"/>
<rect x="30" y="90" width="1" height="1"/>
<rect x="30" y="91" width="1" height="1"/>
<rect x="30" y="92" width="1" height="1"/>
<rect x="22" y="93" width="1" height="1"/>
<rect x="30" y="93" width="1" height="1"/>
<rect x="92" y="93" width="3" height="1"/>
<rect x="99" y="93" width="5" height="1"/>
<rect x="22" y="94" width="2" height="1"/>
<rect x="30" y="94" width="1" height="1"/>
<rect x="90" y="94" width="6" height="1"/>
<rect x="98" y="94" width="7" height="1"/>
<rect x="22" y="95" width="2" height="1"/>
<rect x="30" y="95" width="1" height="1"/>
<rect x="90" y="95" width="9" height="1"/>
<rect x="103" y="95" width="2" height="1"/>
<rect x="22" y="96" width="2" height="1"/>
<rect x="30" y="96" width="1" height="1"/>
<rect x="89" y="96" width="2" height="1"/>
<rect x="96" y="96" width="2" height="1"/>
<rect x="104" y="96" width="2" height="1"/>
<rect x="23" y="97" width="2" height="1"/>
<rect x="30" y="97" width="1" height="1"/>
<rect x="89" y="97" width="2" height="1"/>
<rect x="96" y="97" width="2" height="1"/>
<rect x="104" y="97" width="2" height="1"/>
<rect x="24" y="98" width="2" height="1"/>
<rect x="30" y="98" width="1" height="1"/>
<rect x="89" y="98" width="2" height="1"/>
<rect x="96" y="98" width="2" height="1"/>
<rect x="104" y="98" width="2" height="1"/>
<rect x="22" y="99" width="13" height="1"/>
<rect x="89" y="99" width="2" height="1"/>
<rect x="96" y="99" width="2" height="1"/>
<rect x="104" y="99" width="2" height="1"/>
<rect x="22" y="100" width="13" height="1"/>
<rect x="89" y="100" width="2" height="1"/>
<rect x="96" y="100" width="2" height="1"/>
<rect x="104" y="100" width="2" height="1"/>
<rect x="30" y="101" width="1" height="1"/>
<rect x="89" y="101" width="2" height="1"/>
<rect x="96" y="101" width="2" height="1"/>
<rect x="104" y="101" width="2" height="1"/>
<rect x="30" y="102" width="1" height="1"/>
<rect x="89" y="102" width="2" height="1"/>
<rect x="96" y="102" width="2" height="1"/>
<rect x="104" y="102" width="2" height="1"/>
<rect x="30" y="103" width="1" height="1"/>
<rect x="89" y="103" width="17" height="1"/>
<rect x="30" y="104" width="1" height="1"/>
<rect x="89" y="104" width="17" height="1"/>
<rect x="24" y="105" width="5" height="1"/>
<rect x="30" y="105" width="1" height="1"/>
<rect x="33" y="105" width="1" height="1"/>
<rect x="23" y="106" width="6" height="1"/>
<rect x="30" y="106" width="1" height="1"/>
<rect x="33" y="106" width="2" height="1"/>
<rect x="22" y="107" width="3" height="1"/>
<rect x="27" y="107" width="2" height="1"/>
<rect x="30" y="107" width="1" height="1"/>
<rect x="33" y="107" width="2" height="1"/>
<rect x="22" y="108" width="2" height="1"/>
<rect x="27" y="108" width="2" height="1"/>
<rect x="30" y="108" width="1" height="1"/>
<rect x="33" y="108" width="2" height="1"/>
<rect x="22" y="109" width="2" height="1"/>
<rect x="27" y="109" width="2" height="1"/>
<rect x="30" y="109" width="1" height="1"/>
<rect x="33" y="109" width="2" height="1"/>
<rect x="22" y="110" width="2" height="1"/>
<rect x="27" y="110" width="2" height="1"/>
<rect x="30" y="110" width="1" height="1"/>
<rect x="33" y="110" width="2" height="1"/>
<rect x="22" y="111" width="2" height="1"/>
<rect x="27" y="111" width="2" height="1"/>
<rect x="30" y="111" width="1" height="1"/>
<rect x="33" y="111" width="2" height="1"/>
<rect x="22" y="112" width="3" height="1"/>
<rect x="27" y="112" width="2" height="1"/>
<rect x="30" y="112" width="1" height="1"/>
<rect x="32" y="112" width="3" height="1"/>
<rect x="23" y="113" width="11" height="1"/>
<rect x="24" y="114" width="9" height="1"/>
<rect x="27" y="115" width="4" height="1"/>
<rect x="30" y="116" width="1" height="1"/>
<rect x="30" y="117" width="1" height="1"/>
<rect x="23" y="118" width="2" height="1"/>
<rect x="30" y="118" width="1" height="1"/>
<rect x="34" y="118" width="2" height="1"/>
<rect x="23" y="119" width="2" height="1"/>
<rect x="30" y="119" width="1" height="1"/>
<rect x="34" y="119" width="2" height="1"/>
<rect x="23" y="120" width="2" height="1"/>
<rect x="30" y="120" width="1" height="1"/>
<rect x="34" y="120" width="2" height="1"/>
<rect x="23" y="121" width="2" height="1"/>
<rect x="30" y="121" width="1" height="1"/>
<rect x="33" y="121" width="3" height="1"/>
<rect x="20" y="122" width="16" height="1"/>
<rect x="22" y="123" width="12" height="1"/>
<rect x="23" y="124" width="2" height="1"/>
<rect x="30" y="124" width="1" height="1"/>
<rect x="24" y="125" width="1" height="1"/>
<rect x="30" y="125" width="1" height="1"/>
<rect x="30" y="126" width="1" height="1"/>
<rect x="30" y="127" width="1" height="1"/>
<rect x="25" y="128" width="7" height="1"/>
<rect x="24" y="129" width="10" height="1"/>
<rect x="23" y="130" width="3" height="1"/>
<rect x="30" y="130" width="4" height="1"/>
<rect x="22" y="131" width="2" height="1"/>
<rect x="30" y="131" width="1" height="1"/>
<rect x="33" y="131" width="2" height="1"/>
<rect x="22" y="132" width="2" height="1"/>
<rect x="30" y="132" width="1" height="1"/>
<rect x="33" y="132" width="2" height="1"/>
<rect x="22" y="133" width="2" height="1"/>
<rect x="30" y="133" width="1" height="1"/>
<rect x="33" y="133" width="2" height="1"/>
<rect x="22" y="134" width="2" height="1"/>
<rect x="30" y="134" width="1" height="1"/>
<rect x="33" y="134" width="2" height="1"/>
<rect x="22" y="135" width="2" height="1"/>
<rect x="30" y="135" width="1" height="1"/>
<rect x="33" y="135" width="2" height="1"/>
<rect x="22" y="136" width="3" height="1"/>
<rect x="30" y="136" width="1" height="1"/>
<rect x="32" y="136" width="3" height="1"/>
<rect x="23" y="137" width="11" height="1"/>
<rect x="24" y="138" width="9" height="1"/>
<rect x="26" y="139" width="5" height="1"/>
<rect x="30" y="140" width="1" height="1"/>
<rect x="30" y="141" width="1" height="1"/>
<rect x="30" y="142" width="1" height="1"/>
<rect x="25" y="143" width="7" height="1"/>
<rect x="24" y="144" width="10" height="1"/>
<rect x="23" y="145" width="3" height="1"/>
<rect x="30" y="145" width="4" height="1"/>
<rect x="22" y="146" width="2" height="1"/>
<rect x="30" y="146" width="1" height="1"/>
<rect x="33" y="146" width="2" height="1"/>
<rect x="22" y="147" width="2" height="1"/>
<rect x="30" y="147" width="1" height="1"/>
<rect x="33" y="147" width="2" height="1"/>
<rect x="22" y="148" width="2" height="1"/>
<rect x="30" y="148" width="1" height="1"/>
<rect x="33" y="148" width="2" height="1"/>
<rect x="22" y="149" width="2" height="1"/>
<rect x="30" y="149" width="1" height="1"/>
<rect x="33" y="149" width="2" height="1"/>
<rect x="22" y="150" width="2" height="1"/>
<rect x="30" y="150" width="1" height="1"/>
<rect x="33" y="150" width="2" height="1"/>
<rect x="22" y="151" width="3" height="1"/>
<rect x="30" y="151" width="1" height="1"/>
<rect x="32" y="151" width="3" height="1"/>
<rect x="23" y="152" width="11" height="1"/>
<rect x="24" y="153" width="9" height="1"/>
<rect x="26" y="154" width="5" height="1"/>
<rect x="17" y="155" width="2" height="1"/>
<rect x="30" y="155" width="1" height="1"/>
<rect x="17" y="156" width="1" height="1"/>
<rect x="22" y="156" width="2" height="1"/>
<rect x="30" y="156" width="1" height="1"/>
<rect x="17" y="157" width="1" height="1"/>
<rect x="22" y="157" width="2" height="1"/>
<rect x="30" y="157" width="1" height="1"/>
<rect x="17" y="158" width="2" height="1"/>
<rect x="22" y="158" width="2" height="1"/>
<rect x="30" y="158" width="1" height="1"/>
<rect x="17" y="159" width="18" height="1"/>
<rect x="18" y="160" width="17" height="1"/>
<rect x="22" y="161" width="2" height="1"/>
<rect x="30" y="161" width="1" height="1"/>
<rect x="22" y="162" width="2" height="1"/>
<rect x="30" y="162" width="1" height="1"/>
<rect x="23" y="163" width="1" height="1"/>
<rect x="30" y="163" width="1" height="1"/>
</g>
</svg>
