<svg xmlns="http://www.w3.org/2000/svg" viewBox="0 0 360 180" width="360" height="180" shape-rendering="crispEdges">
<rect width="100%" height="100%" fill="#fff"/>
<g fill="#111">
<rect x="18" y="16" width="3" height="1"/>
<rect x="18" y="17" width="1" height="1"/>
<rect x="37" y="17" width="1" height="1"/>
<rect x="17" y="18" width="2" height="1"/>
<rect x="37" y="18" width="1" height="1"/>
<rect x="16" y="19" width="4" height="1"/>
<rect x="22" y="19" width="4" height="1"/>
<rect x="30" y="19" width="4" height="1"/>
<rect x="36" y="19" width="4" height="1"/>
<rect x="43" y="19" width="3" height="1"/>
<rect x="49" y="19" width="1" height="1"/>
<rect x="51" y="19" width="2" height="1"/>
<rect x="17" y="20" width="2" height="1"/>
<rect x="21" y="20" width="1" height="1"/>
<rect x="25" y="20" width="2" height="1"/>
<rect x="29" y="20" width="1" height="1"/>
<rect x="33" y="20" width="2" height="1"/>
<rect x="37" y="20" width="1" height="1"/>
<rect x="42" y="20" width="1" height="1"/>
<rect x="46" y="20" width="1" height="1"/>
<rect x="49" y="20" width="2" height="1"/>
<rect x="17" y="21" width="2" height="1"/>
<rect x="21" y="21" width="1" height="1"/>
<rect x="26" y="21" width="1" height="1"/>
<rect x="29" y="21" width="1" height="1"/>
<rect x="34" y="21" width="1" height="1"/>
<rect x="37" y="21" width="1" height="1"/>
<rect x="42" y="21" width="1" height="1"/>
<rect x="46" y="21" width="2" height="1"/>
<rect x="49" y="21" width="1" height="1"/>
<rect x="17" y="22" width="2" height="1"/>
<rect x="21" y="22" width="1" height="1"/>
<rect x="26" y="22" width="1" height="1"/>
<rect x="29" y="22" width="1" height="1"/>
<rect x="34" y="22" width="1" height="1"/>
<rect x="37" y="22" width="1" height="1"/>
<rect x="42" y="22" width="6" height="1"/>
<rect x="49" y="22" width="1" height="1"/>
<rect x="17" y="23" width="2" height="1"/>
<rect x="21" y="23" width="1" height="1"/>
<rect x="26" y="23" width="1" height="1"/>
<rect x="29" y="23" width="1" height="1"/>
<rect x="34" y="23" width="1" height="1"/>
<rect x="37" y="23" width="1" height="1"/>
<rect x="42" y="23" width="1" height="1"/>
<rect x="49" y="23" width="1" height="1"/>
<rect x="17" y="24" width="2" height="1"/>
<rect x="21" y="24" width="1" height="1"/>
<rect x="25" y="24" width="2" height="1"/>
<rect x="29" y="24" width="1" height="1"/>
<rect x="33" y="24" width="2" height="1"/>
<rect x="37" y="24" width="1" height="1"/>
<rect x="42" y="24" width="1" height="1"/>
<rect x="49" y="24" width="1" height="1"/>
<rect x="17" y="25" width="2" height="1"/>
<rect x="22" y="25" width="4" height="1"/>
<rect x="30" y="25" width="4" height="1"/>
<rect x="38" y="25" width="2" height="1"/>
<rect x="43" y="25" width="4" height="1"/>
<rect x="49" y="25" width="1" height="1"/>
<rect x="16" y="30" width="328" height="1"/>
<rect x="108" y="93" width="1" height="1"/>
<rect x="268" y="93" width="1" height="1"/>
<rect x="87" y="94" width="6" height="1"/>
<rect x="108" y="94" width="1" height="1"/>
<rect x="246" y="94" width="2" height="1"/>
<rect x="268" y="94" width="1" height="1"/>
<rect x="87" y="95" width="1" height="1"/>
<rect x="92" y="95" width="1" height="1"/>
<rect x="108" y="95" width="1" height="1"/>
<rect x="246" y="95" width="2" height="1"/>
<rect x="268" y="95" width="1" height="1"/>
<rect x="87" y="96" width="1" height="1"/>
<rect x="92" y="96" width="1" height="1"/>
<rect x="96" y="96" width="4" height="1"/>
<rect x="103" y="96" width="4" height="1"/>
<rect x="108" y="96" width="1" height="1"/>
<rect x="112" y="96" width="2" height="1"/>
<rect x="246" y="96" width="1" height="1"/>
<rect x="248" y="96" width="1" height="1"/>
<rect x="252" y="96" width="1" height="1"/>
<rect x="254" y="96" width="3" height="1"/>
<rect x="260" y="96" width="1" height="1"/>
<rect x="262" y="96" width="3" height="1"/>
<rect x="268" y="96" width="1" height="1"/>
<rect x="270" y="96" width="1" height="1"/>
<rect x="275" y="96" width="2" height="1"/>
<rect x="87" y="97" width="1" height="1"/>
<rect x="92" y="97" width="1" height="1"/>
<rect x="95" y="97" width="1" height="1"/>
<rect x="99" y="97" width="1" height="1"/>
<rect x="102" y="97" width="1" height="1"/>
<rect x="108" y="97" width="1" height="1"/>
<rect x="111" y="97" width="1" height="1"/>
<rect x="245" y="97" width="1" height="1"/>
<rect x="248" y="97" width="1" height="1"/>
<rect x="252" y="97" width="2" height="1"/>
<rect x="257" y="97" width="1" height="1"/>
<rect x="260" y="97" width="2" height="1"/>
<rect x="265" y="97" width="1" height="1"/>
<rect x="268" y="97" width="1" height="1"/>
<rect x="271" y="97" width="1" height="1"/>
<rect x="275" y="97" width="1" height="1"/>
<rect x="87" y="98" width="5" height="1"/>
<rect x="99" y="98" width="1" height="1"/>
<rect x="102" y="98" width="1" height="1"/>
<rect x="108" y="98" width="1" height="1"/>
<rect x="110" y="98" width="1" height="1"/>
<rect x="245" y="98" width="1" height="1"/>
<rect x="248" y="98" width="1" height="1"/>
<rect x="252" y="98" width="1" height="1"/>
<rect x="257" y="98" width="1" height="1"/>
<rect x="260" y="98" width="1" height="1"/>
<rect x="265" y="98" width="1" height="1"/>
<rect x="268" y="98" width="1" height="1"/>
<rect x="271" y="98" width="1" height="1"/>
<rect x="274" y="98" width="2" height="1"/>
<rect x="87" y="99" width="1" height="1"/>
<rect x="92" y="99" width="2" height="1"/>
<rect x="95" y="99" width="5" height="1"/>
<rect x="102" y="99" width="1" height="1"/>
<rect x="108" y="99" width="3" height="1"/>
<rect x="244" y="99" width="6" height="1"/>
<rect x="252" y="99" width="1" height="1"/>
<rect x="257" y="99" width="1" height="1"/>
<rect x="260" y="99" width="1" height="1"/>
<rect x="265" y="99" width="1" height="1"/>
<rect x="268" y="99" width="1" height="1"/>
<rect x="271" y="99" width="2" height="1"/>
<rect x="274" y="99" width="1" height="1"/>
<rect x="87" y="100" width="1" height="1"/>
<rect x="92" y="100" width="2" height="1"/>
<rect x="95" y="100" width="1" height="1"/>
<rect x="99" y="100" width="1" height="1"/>
<rect x="102" y="100" width="1" height="1"/>
<rect x="108" y="100" width="1" height="1"/>
<rect x="111" y="100" width="1" height="1"/>
<rect x="244" y="100" width="1" height="1"/>
<rect x="249" y="100" width="1" height="1"/>
<rect x="252" y="100" width="1" height="1"/>
<rect x="257" y="100" width="1" height="1"/>
<rect x="260" y="100" width="1" height="1"/>
<rect x="265" y="100" width="1" height="1"/>
<rect x="268" y="100" width="1" height="1"/>
<rect x="272" y="100" width="1" height="1"/>
<rect x="274" y="100" width="1" height="1"/>
<rect x="87" y="101" width="1" height="1"/>
<rect x="92" y="101" width="2" height="1"/>
<rect x="95" y="101" width="1" height="1"/>
<rect x="99" y="101" width="1" height="1"/>
<rect x="102" y="101" width="1" height="1"/>
<rect x="108" y="101" width="1" height="1"/>
<rect x="111" y="101" width="2" height="1"/>
<rect x="244" y="101" width="1" height="1"/>
<rect x="250" y="101" width="1" height="1"/>
<rect x="252" y="101" width="2" height="1"/>
<rect x="256" y="101" width="2" height="1"/>
<rect x="260" y="101" width="2" height="1"/>
<rect x="264" y="101" width="2" height="1"/>
<rect x="268" y="101" width="1" height="1"/>
<rect x="272" y="101" width="3" height="1"/>
<rect x="87" y="102" width="6" height="1"/>
<rect x="95" y="102" width="5" height="1"/>
<rect x="103" y="102" width="4" height="1"/>
<rect x="108" y="102" width="1" height="1"/>
<rect x="112" y="102" width="2" height="1"/>
<rect x="243" y="102" width="1" height="1"/>
<rect x="250" y="102" width="1" height="1"/>
<rect x="252" y="102" width="1" height="1"/>
<rect x="254" y="102" width="3" height="1"/>
<rect x="260" y="102" width="1" height="1"/>
<rect x="262" y="102" width="3" height="1"/>
<rect x="268" y="102" width="1" height="1"/>
<rect x="273" y="102" width="1" height="1"/>
<rect x="252" y="103" width="1" height="1"/>
<rect x="260" y="103" width="1" height="1"/>
<rect x="273" y="103" width="1" height="1"/>
<rect x="252" y="104" width="1" height="1"/>
<rect x="260" y="104" width="1" height="1"/>
<rect x="272" y="104" width="1" height="1"/>
<rect x="252" y="105" width="1" height="1"/>
<rect x="260" y="105" width="1" height="1"/>
<rect x="270" y="105" width="3" height="1"/>
</g>
</svg>
