<svg xmlns="http://www.w3.org/2000/svg" viewBox="0 0 360 180" width="360" height="180" shape-rendering="crispEdges">
<rect width="100%" height="100%" fill="#fff"/>
<g fill="#111">
<rect x="38" y="17" width="1" height="1"/>
<rect x="63" y="17" width="6" height="1"/>
<rect x="38" y="18" width="1" height="1"/>
<rect x="63" y="18" width="1" height="1"/>
<rect x="68" y="18" width="1" height="1"/>
<rect x="18" y="19" width="3" height="1"/>
<rect x="22" y="19" width="1" height="1"/>
<rect x="26" y="19" width="3" height="1"/>
<rect x="32" y="19" width="9" height="1"/>
<rect x="43" y="19" width="1" height="1"/>
<rect x="48" y="19" width="1" height="1"/>
<rect x="51" y="19" width="1" height="1"/>
<rect x="53" y="19" width="2" height="1"/>
<rect x="57" y="19" width="3" height="1"/>
<rect x="63" y="19" width="1" height="1"/>
<rect x="68" y="19" width="1" height="1"/>
<rect x="72" y="19" width="4" height="1"/>
<rect x="78" y="19" width="1" height="1"/>
<rect x="80" y="19" width="2" height="1"/>
<rect x="17" y="20" width="1" height="1"/>
<rect x="21" y="20" width="2" height="1"/>
<rect x="25" y="20" width="1" height="1"/>
<rect x="29" y="20" width="1" height="1"/>
<rect x="32" y="20" width="1" height="1"/>
<rect x="38" y="20" width="1" height="1"/>
<rect x="43" y="20" width="1" height="1"/>
<rect x="48" y="20" width="1" height="1"/>
<rect x="51" y="20" width="2" height="1"/>
<rect x="56" y="20" width="1" height="1"/>
<rect x="60" y="20" width="1" height="1"/>
<rect x="63" y="20" width="1" height="1"/>
<rect x="68" y="20" width="1" height="1"/>
<rect x="71" y="20" width="1" height="1"/>
<rect x="75" y="20" width="1" height="1"/>
<rect x="78" y="20" width="2" height="1"/>
<rect x="17" y="21" width="1" height="1"/>
<rect x="22" y="21" width="1" height="1"/>
<rect x="25" y="21" width="1" height="1"/>
<rect x="29" y="21" width="2" height="1"/>
<rect x="32" y="21" width="1" height="1"/>
<rect x="38" y="21" width="1" height="1"/>
<rect x="43" y="21" width="1" height="1"/>
<rect x="48" y="21" width="1" height="1"/>
<rect x="51" y="21" width="1" height="1"/>
<rect x="56" y="21" width="1" height="1"/>
<rect x="60" y="21" width="2" height="1"/>
<rect x="63" y="21" width="5" height="1"/>
<rect x="75" y="21" width="1" height="1"/>
<rect x="78" y="21" width="1" height="1"/>
<rect x="17" y="22" width="1" height="1"/>
<rect x="22" y="22" width="1" height="1"/>
<rect x="25" y="22" width="6" height="1"/>
<rect x="33" y="22" width="3" height="1"/>
<rect x="38" y="22" width="1" height="1"/>
<rect x="43" y="22" width="1" height="1"/>
<rect x="48" y="22" width="1" height="1"/>
<rect x="51" y="22" width="1" height="1"/>
<rect x="56" y="22" width="6" height="1"/>
<rect x="63" y="22" width="1" height="1"/>
<rect x="68" y="22" width="2" height="1"/>
<rect x="71" y="22" width="5" height="1"/>
<rect x="78" y="22" width="1" height="1"/>
<rect x="17" y="23" width="1" height="1"/>
<rect x="22" y="23" width="1" height="1"/>
<rect x="25" y="23" width="1" height="1"/>
<rect x="35" y="23" width="2" height="1"/>
<rect x="38" y="23" width="1" height="1"/>
<rect x="43" y="23" width="1" height="1"/>
<rect x="48" y="23" width="1" height="1"/>
<rect x="51" y="23" width="1" height="1"/>
<rect x="56" y="23" width="1" height="1"/>
<rect x="63" y="23" width="1" height="1"/>
<rect x="68" y="23" width="2" height="1"/>
<rect x="71" y="23" width="1" height="1"/>
<rect x="75" y="23" width="1" height="1"/>
<rect x="78" y="23" width="1" height="1"/>
<rect x="17" y="24" width="1" height="1"/>
<rect x="21" y="24" width="2" height="1"/>
<rect x="25" y="24" width="1" height="1"/>
<rect x="35" y="24" width="2" height="1"/>
<rect x="38" y="24" width="1" height="1"/>
<rect x="43" y="24" width="1" height="1"/>
<rect x="47" y="24" width="2" height="1"/>
<rect x="51" y="24" width="1" height="1"/>
<rect x="56" y="24" width="1" height="1"/>
<rect x="63" y="24" width="1" height="1"/>
<rect x="68" y="24" width="2" height="1"/>
<rect x="71" y="24" width="1" height="1"/>
<rect x="75" y="24" width="1" height="1"/>
<rect x="78" y="24" width="1" height="1"/>
<rect x="18" y="25" width="3" height="1"/>
<rect x="22" y="25" width="1" height="1"/>
<rect x="26" y="25" width="4" height="1"/>
<rect x="32" y="25" width="4" height="1"/>
<rect x="39" y="25" width="2" height="1"/>
<rect x="44" y="25" width="3" height="1"/>
<rect x="48" y="25" width="1" height="1"/>
<rect x="51" y="25" width="1" height="1"/>
<rect x="57" y="25" width="4" height="1"/>
<rect x="63" y="25" width="6" height="1"/>
<rect x="71" y="25" width="5" height="1"/>
<rect x="78" y="25" width="1" height="1"/>
<rect x="22" y="26" width="1" height="1"/>
<rect x="21" y="27" width="2" height="1"/>
<rect x="17" y="28" width="5" height="1"/>
<rect x="16" y="30" width="328" height="1"/>
<rect x="84" y="89" width="1" height="1"/>
<rect x="177" y="89" width="1" height="1"/>
<rect x="63" y="90" width="6" height="1"/>
<rect x="84" y="90" width="1" height="1"/>
<rect x="164" y="90" width="4" height="1"/>
<rect x="177" y="90" width="1" height="1"/>
<rect x="193" y="90" width="1" height="1"/>
<rect x="267" y="90" width="2" height="1"/>
<rect x="275" y="90" width="2" height="1"/>
<rect x="63" y="91" width="1" height="1"/>
<rect x="68" y="91" width="1" height="1"/>
<rect x="84" y="91" width="1" height="1"/>
<rect x="163" y="91" width="1" height="1"/>
<rect x="177" y="91" width="1" height="1"/>
<rect x="193" y="91" width="1" height="1"/>
<rect x="267" y="91" width="3" height="1"/>
<rect x="274" y="91" width="3" height="1"/>
<rect x="63" y="92" width="1" height="1"/>
<rect x="68" y="92" width="1" height="1"/>
<rect x="72" y="92" width="4" height="1"/>
<rect x="79" y="92" width="4" height="1"/>
<rect x="84" y="92" width="1" height="1"/>
<rect x="88" y="92" width="2" height="1"/>
<rect x="163" y="92" width="1" height="1"/>
<rect x="171" y="92" width="3" height="1"/>
<rect x="177" y="92" width="1" height="1"/>
<rect x="181" y="92" width="3" height="1"/>
<rect x="188" y="92" width="8" height="1"/>
<rect x="267" y="92" width="1" height="1"/>
<rect x="269" y="92" width="1" height="1"/>
<rect x="274" y="92" width="3" height="1"/>
<rect x="280" y="92" width="3" height="1"/>
<rect x="286" y="92" width="1" height="1"/>
<rect x="288" y="92" width="3" height="1"/>
<rect x="294" y="92" width="1" height="1"/>
<rect x="299" y="92" width="1" height="1"/>
<rect x="63" y="93" width="1" height="1"/>
<rect x="68" y="93" width="1" height="1"/>
<rect x="71" y="93" width="1" height="1"/>
<rect x="75" y="93" width="1" height="1"/>
<rect x="78" y="93" width="1" height="1"/>
<rect x="84" y="93" width="1" height="1"/>
<rect x="87" y="93" width="1" height="1"/>
<rect x="163" y="93" width="2" height="1"/>
<rect x="170" y="93" width="1" height="1"/>
<rect x="174" y="93" width="1" height="1"/>
<rect x="177" y="93" width="1" height="1"/>
<rect x="180" y="93" width="1" height="1"/>
<rect x="184" y="93" width="1" height="1"/>
<rect x="187" y="93" width="1" height="1"/>
<rect x="193" y="93" width="1" height="1"/>
<rect x="267" y="93" width="1" height="1"/>
<rect x="269" y="93" width="1" height="1"/>
<rect x="273" y="93" width="1" height="1"/>
<rect x="275" y="93" width="2" height="1"/>
<rect x="279" y="93" width="1" height="1"/>
<rect x="283" y="93" width="1" height="1"/>
<rect x="286" y="93" width="2" height="1"/>
<rect x="291" y="93" width="1" height="1"/>
<rect x="294" y="93" width="1" height="1"/>
<rect x="299" y="93" width="1" height="1"/>
<rect x="63" y="94" width="5" height="1"/>
<rect x="75" y="94" width="1" height="1"/>
<rect x="78" y="94" width="1" height="1"/>
<rect x="84" y="94" width="1" height="1"/>
<rect x="86" y="94" width="1" height="1"/>
<rect x="164" y="94" width="3" height="1"/>
<rect x="170" y="94" width="1" height="1"/>
<rect x="174" y="94" width="2" height="1"/>
<rect x="177" y="94" width="1" height="1"/>
<rect x="180" y="94" width="1" height="1"/>
<rect x="184" y="94" width="2" height="1"/>
<rect x="187" y="94" width="1" height="1"/>
<rect x="193" y="94" width="1" height="1"/>
<rect x="267" y="94" width="1" height="1"/>
<rect x="270" y="94" width="1" height="1"/>
<rect x="273" y="94" width="1" height="1"/>
<rect x="275" y="94" width="2" height="1"/>
<rect x="279" y="94" width="1" height="1"/>
<rect x="283" y="94" width="2" height="1"/>
<rect x="286" y="94" width="1" height="1"/>
<rect x="291" y="94" width="1" height="1"/>
<rect x="294" y="94" width="1" height="1"/>
<rect x="299" y="94" width="1" height="1"/>
<rect x="63" y="95" width="1" height="1"/>
<rect x="68" y="95" width="2" height="1"/>
<rect x="71" y="95" width="5" height="1"/>
<rect x="78" y="95" width="1" height="1"/>
<rect x="84" y="95" width="3" height="1"/>
<rect x="167" y="95" width="1" height="1"/>
<rect x="170" y="95" width="6" height="1"/>
<rect x="177" y="95" width="1" height="1"/>
<rect x="180" y="95" width="6" height="1"/>
<rect x="187" y="95" width="1" height="1"/>
<rect x="193" y="95" width="1" height="1"/>
<rect x="267" y="95" width="1" height="1"/>
<rect x="270" y="95" width="1" height="1"/>
<rect x="273" y="95" width="1" height="1"/>
<rect x="275" y="95" width="2" height="1"/>
<rect x="279" y="95" width="6" height="1"/>
<rect x="286" y="95" width="1" height="1"/>
<rect x="291" y="95" width="1" height="1"/>
<rect x="294" y="95" width="1" height="1"/>
<rect x="299" y="95" width="1" height="1"/>
<rect x="63" y="96" width="1" height="1"/>
<rect x="68" y="96" width="2" height="1"/>
<rect x="71" y="96" width="1" height="1"/>
<rect x="75" y="96" width="1" height="1"/>
<rect x="78" y="96" width="1" height="1"/>
<rect x="84" y="96" width="1" height="1"/>
<rect x="87" y="96" width="1" height="1"/>
<rect x="167" y="96" width="2" height="1"/>
<rect x="170" y="96" width="1" height="1"/>
<rect x="177" y="96" width="1" height="1"/>
<rect x="180" y="96" width="1" height="1"/>
<rect x="187" y="96" width="1" height="1"/>
<rect x="193" y="96" width="1" height="1"/>
<rect x="267" y="96" width="1" height="1"/>
<rect x="270" y="96" width="1" height="1"/>
<rect x="272" y="96" width="1" height="1"/>
<rect x="275" y="96" width="2" height="1"/>
<rect x="279" y="96" width="1" height="1"/>
<rect x="286" y="96" width="1" height="1"/>
<rect x="291" y="96" width="1" height="1"/>
<rect x="294" y="96" width="1" height="1"/>
<rect x="299" y="96" width="1" height="1"/>
<rect x="63" y="97" width="1" height="1"/>
<rect x="68" y="97" width="2" height="1"/>
<rect x="71" y="97" width="1" height="1"/>
<rect x="75" y="97" width="1" height="1"/>
<rect x="78" y="97" width="1" height="1"/>
<rect x="84" y="97" width="1" height="1"/>
<rect x="87" y="97" width="2" height="1"/>
<rect x="167" y="97" width="1" height="1"/>
<rect x="170" y="97" width="1" height="1"/>
<rect x="177" y="97" width="1" height="1"/>
<rect x="180" y="97" width="1" height="1"/>
<rect x="187" y="97" width="1" height="1"/>
<rect x="193" y="97" width="1" height="1"/>
<rect x="267" y="97" width="1" height="1"/>
<rect x="271" y="97" width="2" height="1"/>
<rect x="275" y="97" width="2" height="1"/>
<rect x="279" y="97" width="1" height="1"/>
<rect x="286" y="97" width="1" height="1"/>
<rect x="291" y="97" width="1" height="1"/>
<rect x="294" y="97" width="1" height="1"/>
<rect x="298" y="97" width="2" height="1"/>
<rect x="63" y="98" width="6" height="1"/>
<rect x="71" y="98" width="5" height="1"/>
<rect x="79" y="98" width="4" height="1"/>
<rect x="84" y="98" width="1" height="1"/>
<rect x="88" y="98" width="2" height="1"/>
<rect x="163" y="98" width="4" height="1"/>
<rect x="171" y="98" width="4" height="1"/>
<rect x="177" y="98" width="1" height="1"/>
<rect x="181" y="98" width="4" height="1"/>
<rect x="188" y="98" width="4" height="1"/>
<rect x="194" y="98" width="2" height="1"/>
<rect x="267" y="98" width="1" height="1"/>
<rect x="271" y="98" width="2" height="1"/>
<rect x="275" y="98" width="2" height="1"/>
<rect x="280" y="98" width="4" height="1"/>
<rect x="286" y="98" width="1" height="1"/>
<rect x="291" y="98" width="1" height="1"/>
<rect x="295" y="98" width="3" height="1"/>
<rect x="299" y="98" width="1" height="1"/>
</g>
</svg>
