<svg xmlns="http://www.w3.org/2000/svg" viewBox="0 0 360 180" width="360" height="180" shape-rendering="crispEdges">
<rect width="100%" height="100%" fill="#fff"/>
<g fill="#111">
<rect x="30" y="0" width="1" height="1"/>
<rect x="30" y="1" width="1" height="1"/>
<rect x="30" y="2" width="1" height="1"/>
<rect x="30" y="3" width="1" height="1"/>
<rect x="84" y="3" width="18" height="1"/>
<rect x="30" y="4" width="1" height="1"/>
<rect x="84" y="4" width="18" height="1"/>
<rect x="30" y="5" width="1" height="1"/>
<rect x="30" y="6" width="1" height="1"/>
<rect x="30" y="7" width="1" height="1"/>
<rect x="30" y="8" width="1" height="1"/>
<rect x="30" y="9" width="1" height="1"/>
<rect x="91" y="9" width="5" height="1"/>
<rect x="100" y="9" width="1" height="1"/>
<rect x="30" y="10" width="1" height="1"/>
<rect x="90" y="10" width="6" height="1"/>
<rect x="100" y="10" width="2" height="1"/>
<rect x="30" y="11" width="1" height="1"/>
<rect x="89" y="11" width="3" height="1"/>
<rect x="94" y="11" width="2" height="1"/>
<rect x="100" y="11" width="2" height="1"/>
<rect x="30" y="12" width="1" height="1"/>
<rect x="89" y="12" width="2" height="1"/>
<rect x="94" y="12" width="2" height="1"/>
<rect x="100" y="12" width="2" height="1"/>
<rect x="30" y="13" width="1" height="1"/>
<rect x="89" y="13" width="2" height="1"/>
<rect x="94" y="13" width="2" height="1"/>
<rect x="100" y="13" width="2" height="1"/>
<rect x="30" y="14" width="1" height="1"/>
<rect x="89" y="14" width="2" height="1"/>
<rect x="94" y="14" width="2" height="1"/>
<rect x="100" y="14" width="2" height="1"/>
<rect x="30" y="15" width="1" height="1"/>
<rect x="89" y="15" width="2" height="1"/>
<rect x="94" y="15" width="2" height="1"/>
<rect x="100" y="15" width="2" height="1"/>
<rect x="30" y="16" width="1" height="1"/>
<rect x="89" y="16" width="3" height="1"/>
<rect x="94" y="16" width="2" height="1"/>
<rect x="99" y="16" width="3" height="1"/>
<rect x="30" y="17" width="1" height="1"/>
<rect x="90" y="17" width="11" height="1"/>
<rect x="30" y="18" width="1" height="1"/>
<rect x="91" y="18" width="9" height="1"/>
<rect x="30" y="19" width="1" height="1"/>
<rect x="94" y="19" width="4" height="1"/>
<rect x="30" y="20" width="1" height="1"/>
<rect x="30" y="21" width="1" height="1"/>
<rect x="30" y="22" width="1" height="1"/>
<rect x="85" y="22" width="1" height="1"/>
<rect x="95" y="22" width="5" height="1"/>
<rect x="30" y="23" width="1" height="1"/>
<rect x="85" y="23" width="2" height="1"/>
<rect x="94" y="23" width="7" height="1"/>
<rect x="30" y="24" width="1" height="1"/>
<rect x="85" y="24" width="2" height="1"/>
<rect x="93" y="24" width="3" height="1"/>
<rect x="99" y="24" width="3" height="1"/>
<rect x="30" y="25" width="1" height="1"/>
<rect x="85" y="25" width="2" height="1"/>
<rect x="93" y="25" width="2" height="1"/>
<rect x="100" y="25" width="2" height="1"/>
<rect x="30" y="26" width="1" height="1"/>
<rect x="85" y="26" width="2" height="1"/>
<rect x="93" y="26" width="2" height="1"/>
<rect x="100" y="26" width="2" height="1"/>
<rect x="30" y="27" width="1" height="1"/>
<rect x="85" y="27" width="2" height="1"/>
<rect x="92" y="27" width="2" height="1"/>
<rect x="100" y="27" width="2" height="1"/>
<rect x="30" y="28" width="1" height="1"/>
<rect x="85" y="28" width="2" height="1"/>
<rect x="92" y="28" width="2" height="1"/>
<rect x="100" y="28" width="2" height="1"/>
<rect x="30" y="29" width="1" height="1"/>
<rect x="85" y="29" width="2" height="1"/>
<rect x="91" y="29" width="3" height="1"/>
<rect x="100" y="29" width="2" height="1"/>
<rect x="30" y="30" width="1" height="1"/>
<rect x="85" y="30" width="8" height="1"/>
<rect x="100" y="30" width="2" height="1"/>
<rect x="30" y="31" width="1" height="1"/>
<rect x="86" y="31" width="6" height="1"/>
<rect x="100" y="31" width="2" height="1"/>
<rect x="30" y="32" width="1" height="1"/>
<rect x="88" y="32" width="2" height="1"/>
<rect x="99" y="32" width="3" height="1"/>
<rect x="30" y="33" width="1" height="1"/>
<rect x="30" y="34" width="1" height="1"/>
<rect x="30" y="35" width="1" height="1"/>
<rect x="22" y="36" width="1" height="1"/>
<rect x="30" y="36" width="1" height="1"/>
<rect x="22" y="37" width="2" height="1"/>
<rect x="30" y="37" width="1" height="1"/>
<rect x="22" y="38" width="2" height="1"/>
<rect x="30" y="38" width="1" height="1"/>
<rect x="22" y="39" width="2" height="1"/>
<rect x="30" y="39" width="1" height="1"/>
<rect x="23" y="40" width="2" height="1"/>
<rect x="30" y="40" width="1" height="1"/>
<rect x="24" y="41" width="2" height="1"/>
<rect x="30" y="41" width="1" height="1"/>
<rect x="22" y="42" width="13" height="1"/>
<rect x="22" y="43" width="13" height="1"/>
<rect x="30" y="44" width="1" height="1"/>
<rect x="30" y="45" width="1" height="1"/>
<rect x="30" y="46" width="1" height="1"/>
<rect x="26" y="47" width="9" height="1"/>
<rect x="23" y="48" width="12" height="1"/>
<rect x="22" y="49" width="11" height="1"/>
<rect x="22" y="50" width="2" height="1"/>
<rect x="27" y="50" width="2" height="1"/>
<rect x="30" y="50" width="1" height="1"/>
<rect x="32" y="50" width="2" height="1"/>
<rect x="22" y="51" width="2" height="1"/>
<rect x="27" y="51" width="2" height="1"/>
<rect x="30" y="51" width="1" height="1"/>
<rect x="33" y="51" width="2" height="1"/>
<rect x="22" y="52" width="2" height="1"/>
<rect x="27" y="52" width="2" height="1"/>
<rect x="30" y="52" width="1" height="1"/>
<rect x="33" y="52" width="2" height="1"/>
<rect x="22" y="53" width="2" height="1"/>
<rect x="27" y="53" width="2" height="1"/>
<rect x="30" y="53" width="1" height="1"/>
<rect x="34" y="53" width="1" height="1"/>
<rect x="22" y="54" width="2" height="1"/>
<rect x="28" y="54" width="1" height="1"/>
<rect x="30" y="54" width="1" height="1"/>
<rect x="33" y="54" width="2" height="1"/>
<rect x="23" y="55" width="2" height="1"/>
<rect x="28" y="55" width="3" height="1"/>
<rect x="32" y="55" width="3" height="1"/>
<rect x="29" y="56" width="6" height="1"/>
<rect x="30" y="57" width="3" height="1"/>
<rect x="30" y="58" width="1" height="1"/>
<rect x="30" y="59" width="1" height="1"/>
<rect x="30" y="60" width="1" height="1"/>
<rect x="21" y="61" width="3" height="1"/>
<rect x="28" y="61" width="5" height="1"/>
<rect x="19" y="62" width="6" height="1"/>
<rect x="27" y="62" width="7" height="1"/>
<rect x="19" y="63" width="9" height="1"/>
<rect x="30" y="63" width="1" height="1"/>
<rect x="32" y="63" width="2" height="1"/>
<rect x="18" y="64" width="2" height="1"/>
<rect x="25" y="64" width="2" height="1"/>
<rect x="30" y="64" width="1" height="1"/>
<rect x="33" y="64" width="2" height="1"/>
<rect x="18" y="65" width="2" height="1"/>
<rect x="25" y="65" width="2" height="1"/>
<rect x="30" y="65" width="1" height="1"/>
<rect x="33" y="65" width="2" height="1"/>
<rect x="18" y="66" width="2" height="1"/>
<rect x="25" y="66" width="2" height="1"/>
<rect x="30" y="66" width="1" height="1"/>
<rect x="33" y="66" width="2" height="1"/>
<rect x="18" y="67" width="2" height="1"/>
<rect x="25" y="67" width="2" height="1"/>
<rect x="30" y="67" width="1" height="1"/>
<rect x="33" y="67" width="2" height="1"/>
<rect x="18" y="68" width="2" height="1"/>
<rect x="25" y="68" width="2" height="1"/>
<rect x="30" y="68" width="1" height="1"/>
<rect x="33" y="68" width="2" height="1"/>
<rect x="18" y="69" width="2" height="1"/>
<rect x="25" y="69" width="2" height="1"/>
<rect x="30" y="69" width="1" height="1"/>
<rect x="33" y="69" width="2" height="1"/>
<rect x="18" y="70" width="2" height="1"/>
<rect x="25" y="70" width="2" height="1"/>
<rect x="30" y="70" width="1" height="1"/>
<rect x="33" y="70" width="2" height="1"/>
<rect x="18" y="71" width="17" height="1"/>
<rect x="18" y="72" width="17" height="1"/>
<rect x="30" y="73" width="1" height="1"/>
<rect x="30" y="74" width="1" height="1"/>
<rect x="30" y="75" width="1" height="1"/>
<rect x="30" y="76" width="1" height="1"/>
<rect x="24" y="77" width="5" height="1"/>
<rect x="30" y="77" width="1" height="1"/>
<rect x="33" y="77" width="1" height="1"/>
<rect x="101" y="77" width="1" height="1"/>
<rect x="23" y="78" width="6" height="1"/>
<rect x="30" y="78" width="1" height="1"/>
<rect x="33" y="78" width="2" height="1"/>
<rect x="89" y="78" width="1" height="1"/>
<rect x="101" y="78" width="1" height="1"/>
<rect x="22" y="79" width="3" height="1"/>
<rect x="27" y="79" width="2" height="1"/>
<rect x="30" y="79" width="1" height="1"/>
<rect x="33" y="79" width="2" height="1"/>
<rect x="89" y="79" width="2" height="1"/>
<rect x="99" y="79" width="3" height="1"/>
<rect x="22" y="80" width="2" height="1"/>
<rect x="27" y="80" width="2" height="1"/>
<rect x="30" y="80" width="1" height="1"/>
<rect x="33" y="80" width="2" height="1"/>
<rect x="89" y="80" width="3" height="1"/>
<rect x="98" y="80" width="3" height="1"/>
<rect x="22" y="81" width="2" height="1"/>
<rect x="27" y="81" width="2" height="1"/>
<rect x="30" y="81" width="1" height="1"/>
<rect x="33" y="81" width="2" height="1"/>
<rect x="90" y="81" width="3" height="1"/>
<rect x="97" y="81" width="3" height="1"/>
<rect x="22" y="82" width="2" height="1"/>
<rect x="27" y="82" width="2" height="1"/>
<rect x="30" y="82" width="1" height="1"/>
<rect x="33" y="82" width="2" height="1"/>
<rect x="92" y="82" width="2" height="1"/>
<rect x="95" y="82" width="4" height="1"/>
<rect x="22" y="83" width="2" height="1"/>
<rect x="27" y="83" width="2" height="1"/>
<rect x="30" y="83" width="1" height="1"/>
<rect x="33" y="83" width="2" height="1"/>
<rect x="93" y="83" width="4" height="1"/>
<rect x="22" y="84" width="3" height="1"/>
<rect x="27" y="84" width="2" height="1"/>
<rect x="30" y="84" width="1" height="1"/>
<rect x="32" y="84" width="3" height="1"/>
<rect x="94" y="84" width="2" height="1"/>
<rect x="23" y="85" width="11" height="1"/>
<rect x="95" y="85" width="2" height="1"/>
<rect x="24" y="86" width="9" height="1"/>
<rect x="84" y="86" width="18" height="1"/>
<rect x="27" y="87" width="4" height="1"/>
<rect x="84" y="87" width="18" height="1"/>
<rect x="30" y="88" width="1" height="1"/>
<rect x="22" y="89" width="1" height="1"/>
<rect x="30" y="89" width="1" height="1"/>
<rect x="22" y="90" width="2" height="1"/>
<rect x="30" y="90" width="1" height="1"/>
<rect x="22" y="91" width="2" height="1"/>
<rect x="30" y="91" width="1" height="1"/>
<rect x="89" y="91" width="1" height="1"/>
<rect x="100" y="91" width="2" height="1"/>
<rect x="22" y="92" width="2" height="1"/>
<rect x="30" y="92" width="1" height="1"/>
<rect x="89" y="92" width="2" height="1"/>
<rect x="100" y="92" width="2" height="1"/>
<rect x="23" y="93" width="2" height="1"/>
<rect x="30" y="93" width="1" height="1"/>
<rect x="89" y="93" width="2" height="1"/>
<rect x="100" y="93" width="2" height="1"/>
<rect x="24" y="94" width="2" height="1"/>
<rect x="30" y="94" width="1" height="1"/>
<rect x="89" y="94" width="2" height="1"/>
<rect x="100" y="94" width="2" height="1"/>
<rect x="22" y="95" width="13" height="1"/>
<rect x="89" y="95" width="2" height="1"/>
<rect x="100" y="95" width="2" height="1"/>
<rect x="22" y="96" width="13" height="1"/>
<rect x="89" y="96" width="2" height="1"/>
<rect x="100" y="96" width="2" height="1"/>
<rect x="30" y="97" width="1" height="1"/>
<rect x="89" y="97" width="3" height="1"/>
<rect x="99" y="97" width="3" height="1"/>
<rect x="30" y="98" width="1" height="1"/>
<rect x="90" y="98" width="11" height="1"/>
<rect x="30" y="99" width="1" height="1"/>
<rect x="91" y="99" width="9" height="1"/>
<rect x="30" y="100" width="1" height="1"/>
<rect x="93" y="100" width="5" height="1"/>
<rect x="23" y="101" width="13" height="1"/>
<rect x="23" y="102" width="13" height="1"/>
<rect x="30" y="103" width="1" height="1"/>
<rect x="32" y="103" width="3" height="1"/>
<rect x="93" y="103" width="9" height="1"/>
<rect x="30" y="104" width="1" height="1"/>
<rect x="34" y="104" width="1" height="1"/>
<rect x="90" y="104" width="12" height="1"/>
<rect x="30" y="105" width="1" height="1"/>
<rect x="34" y="105" width="2" height="1"/>
<rect x="89" y="105" width="11" height="1"/>
<rect x="30" y="106" width="1" height="1"/>
<rect x="34" y="106" width="2" height="1"/>
<rect x="89" y="106" width="2" height="1"/>
<rect x="94" y="106" width="2" height="1"/>
<rect x="99" y="106" width="2" height="1"/>
<rect x="30" y="107" width="1" height="1"/>
<rect x="34" y="107" width="2" height="1"/>
<rect x="89" y="107" width="2" height="1"/>
<rect x="94" y="107" width="2" height="1"/>
<rect x="100" y="107" width="2" height="1"/>
<rect x="30" y="108" width="1" height="1"/>
<rect x="34" y="108" width="2" height="1"/>
<rect x="89" y="108" width="2" height="1"/>
<rect x="94" y="108" width="2" height="1"/>
<rect x="100" y="108" width="2" height="1"/>
<rect x="30" y="109" width="1" height="1"/>
<rect x="33" y="109" width="3" height="1"/>
<rect x="89" y="109" width="2" height="1"/>
<rect x="94" y="109" width="2" height="1"/>
<rect x="101" y="109" width="1" height="1"/>
<rect x="23" y="110" width="12" height="1"/>
<rect x="89" y="110" width="2" height="1"/>
<rect x="95" y="110" width="1" height="1"/>
<rect x="100" y="110" width="2" height="1"/>
<rect x="23" y="111" width="11" height="1"/>
<rect x="90" y="111" width="2" height="1"/>
<rect x="95" y="111" width="2" height="1"/>
<rect x="99" y="111" width="3" height="1"/>
<rect x="30" y="112" width="1" height="1"/>
<rect x="96" y="112" width="6" height="1"/>
<rect x="30" y="113" width="1" height="1"/>
<rect x="97" y="113" width="3" height="1"/>
<rect x="30" y="114" width="1" height="1"/>
<rect x="23" y="115" width="2" height="1"/>
<rect x="30" y="115" width="1" height="1"/>
<rect x="34" y="115" width="2" height="1"/>
<rect x="23" y="116" width="2" height="1"/>
<rect x="30" y="116" width="1" height="1"/>
<rect x="34" y="116" width="2" height="1"/>
<rect x="23" y="117" width="2" height="1"/>
<rect x="30" y="117" width="1" height="1"/>
<rect x="34" y="117" width="2" height="1"/>
<rect x="88" y="117" width="3" height="1"/>
<rect x="95" y="117" width="5" height="1"/>
<rect x="23" y="118" width="2" height="1"/>
<rect x="30" y="118" width="1" height="1"/>
<rect x="33" y="118" width="3" height="1"/>
<rect x="86" y="118" width="6" height="1"/>
<rect x="94" y="118" width="7" height="1"/>
<rect x="20" y="119" width="16" height="1"/>
<rect x="86" y="119" width="9" height="1"/>
<rect x="99" y="119" width="2" height="1"/>
<rect x="22" y="120" width="12" height="1"/>
<rect x="85" y="120" width="2" height="1"/>
<rect x="92" y="120" width="2" height="1"/>
<rect x="100" y="120" width="2" height="1"/>
<rect x="23" y="121" width="2" height="1"/>
<rect x="30" y="121" width="1" height="1"/>
<rect x="85" y="121" width="2" height="1"/>
<rect x="92" y="121" width="2" height="1"/>
<rect x="100" y="121" width="2" height="1"/>
<rect x="24" y="122" width="1" height="1"/>
<rect x="30" y="122" width="1" height="1"/>
<rect x="85" y="122" width="2" height="1"/>
<rect x="92" y="122" width="2" height="1"/>
<rect x="100" y="122" width="2" height="1"/>
<rect x="30" y="123" width="1" height="1"/>
<rect x="85" y="123" width="2" height="1"/>
<rect x="92" y="123" width="2" height="1"/>
<rect x="100" y="123" width="2" height="1"/>
<rect x="30" y="124" width="1" height="1"/>
<rect x="85" y="124" width="2" height="1"/>
<rect x="92" y="124" width="2" height="1"/>
<rect x="100" y="124" width="2" height="1"/>
<rect x="22" y="125" width="2" height="1"/>
<rect x="29" y="125" width="5" height="1"/>
<rect x="85" y="125" width="2" height="1"/>
<rect x="92" y="125" width="2" height="1"/>
<rect x="100" y="125" width="2" height="1"/>
<rect x="22" y="126" width="2" height="1"/>
<rect x="28" y="126" width="7" height="1"/>
<rect x="85" y="126" width="2" height="1"/>
<rect x="92" y="126" width="2" height="1"/>
<rect x="100" y="126" width="2" height="1"/>
<rect x="22" y="127" width="2" height="1"/>
<rect x="28" y="127" width="3" height="1"/>
<rect x="33" y="127" width="2" height="1"/>
<rect x="85" y="127" width="17" height="1"/>
<rect x="22" y="128" width="2" height="1"/>
<rect x="28" y="128" width="3" height="1"/>
<rect x="33" y="128" width="2" height="1"/>
<rect x="85" y="128" width="17" height="1"/>
<rect x="22" y="129" width="2" height="1"/>
<rect x="27" y="129" width="2" height="1"/>
<rect x="30" y="129" width="1" height="1"/>
<rect x="34" y="129" width="1" height="1"/>
<rect x="22" y="130" width="2" height="1"/>
<rect x="27" y="130" width="2" height="1"/>
<rect x="30" y="130" width="1" height="1"/>
<rect x="33" y="130" width="2" height="1"/>
<rect x="22" y="131" width="2" height="1"/>
<rect x="26" y="131" width="2" height="1"/>
<rect x="30" y="131" width="1" height="1"/>
<rect x="33" y="131" width="2" height="1"/>
<rect x="23" y="132" width="5" height="1"/>
<rect x="30" y="132" width="1" height="1"/>
<rect x="33" y="132" width="2" height="1"/>
<rect x="24" y="133" width="3" height="1"/>
<rect x="30" y="133" width="1" height="1"/>
<rect x="32" y="133" width="3" height="1"/>
<rect x="30" y="134" width="1" height="1"/>
<rect x="30" y="135" width="1" height="1"/>
<rect x="30" y="136" width="1" height="1"/>
<rect x="24" y="137" width="5" height="1"/>
<rect x="30" y="137" width="1" height="1"/>
<rect x="33" y="137" width="1" height="1"/>
<rect x="23" y="138" width="6" height="1"/>
<rect x="30" y="138" width="1" height="1"/>
<rect x="33" y="138" width="2" height="1"/>
<rect x="22" y="139" width="3" height="1"/>
<rect x="27" y="139" width="2" height="1"/>
<rect x="30" y="139" width="1" height="1"/>
<rect x="33" y="139" width="2" height="1"/>
<rect x="22" y="140" width="2" height="1"/>
<rect x="27" y="140" width="2" height="1"/>
<rect x="30" y="140" width="1" height="1"/>
<rect x="33" y="140" width="2" height="1"/>
<rect x="22" y="141" width="2" height="1"/>
<rect x="27" y="141" width="2" height="1"/>
<rect x="30" y="141" width="1" height="1"/>
<rect x="33" y="141" width="2" height="1"/>
<rect x="22" y="142" width="2" height="1"/>
<rect x="27" y="142" width="2" height="1"/>
<rect x="30" y="142" width="1" height="1"/>
<rect x="33" y="142" width="2" height="1"/>
<rect x="22" y="143" width="2" height="1"/>
<rect x="27" y="143" width="2" height="1"/>
<rect x="30" y="143" width="1" height="1"/>
<rect x="33" y="143" width="2" height="1"/>
<rect x="22" y="144" width="3" height="1"/>
<rect x="27" y="144" width="2" height="1"/>
<rect x="30" y="144" width="1" height="1"/>
<rect x="32" y="144" width="3" height="1"/>
<rect x="23" y="145" width="11" height="1"/>
<rect x="24" y="146" width="9" height="1"/>
<rect x="27" y="147" width="4" height="1"/>
<rect x="30" y="148" width="1" height="1"/>
<rect x="30" y="149" width="1" height="1"/>
<rect x="30" y="150" width="1" height="1"/>
<rect x="22" y="151" width="15" height="1"/>
<rect x="22" y="152" width="17" height="1"/>
<rect x="24" y="153" width="3" height="1"/>
<rect x="30" y="153" width="3" height="1"/>
<rect x="36" y="153" width="4" height="1"/>
<rect x="23" y="154" width="2" height="1"/>
<rect x="30" y="154" width="1" height="1"/>
<rect x="33" y="154" width="1" height="1"/>
<rect x="38" y="154" width="2" height="1"/>
<rect x="22" y="155" width="2" height="1"/>
<rect x="30" y="155" width="1" height="1"/>
<rect x="33" y="155" width="2" height="1"/>
<rect x="39" y="155" width="2" height="1"/>
<rect x="22" y="156" width="2" height="1"/>
<rect x="30" y="156" width="1" height="1"/>
<rect x="33" y="156" width="2" height="1"/>
<rect x="39" y="156" width="2" height="1"/>
<rect x="22" y="157" width="2" height="1"/>
<rect x="30" y="157" width="1" height="1"/>
<rect x="33" y="157" width="2" height="1"/>
<rect x="39" y="157" width="2" height="1"/>
<rect x="22" y="158" width="2" height="1"/>
<rect x="30" y="158" width="1" height="1"/>
<rect x="33" y="158" width="2" height="1"/>
<rect x="39" y="158" width="2" height="1"/>
<rect x="22" y="159" width="3" height="1"/>
<rect x="30" y="159" width="1" height="1"/>
<rect x="32" y="159" width="3" height="1"/>
<rect x="39" y="159" width="2" height="1"/>
<rect x="23" y="160" width="11" height="1"/>
<rect x="38" y="160" width="2" height="1"/>
<rect x="24" y="161" width="9" height="1"/>
<rect x="38" y="161" width="2" height="1"/>
<rect x="26" y="162" width="5" height="1"/>
<rect x="30" y="163" width="1" height="1"/>
</g>
</svg>
