<svg xmlns="http://www.w3.org/2000/svg" viewBox="0 0 360 180" width="360" height="180" shape-rendering="crispEdges">
<rect width="100%" height="100%" fill="#fff"/>
<g fill="#111">
<rect x="17" y="16" width="1" height="1"/>
<rect x="44" y="16" width="1" height="1"/>
<rect x="17" y="17" width="1" height="1"/>
<rect x="44" y="17" width="1" height="1"/>
<rect x="17" y="18" width="1" height="1"/>
<rect x="44" y="18" width="1" height="1"/>
<rect x="17" y="19" width="1" height="1"/>
<rect x="19" y="19" width="3" height="1"/>
<rect x="26" y="19" width="3" height="1"/>
<rect x="33" y="19" width="4" height="1"/>
<rect x="40" y="19" width="3" height="1"/>
<rect x="44" y="19" width="1" height="1"/>
<rect x="48" y="19" width="3" height="1"/>
<rect x="54" y="19" width="1" height="1"/>
<rect x="56" y="19" width="2" height="1"/>
<rect x="17" y="20" width="2" height="1"/>
<rect x="22" y="20" width="1" height="1"/>
<rect x="25" y="20" width="1" height="1"/>
<rect x="29" y="20" width="1" height="1"/>
<rect x="32" y="20" width="1" height="1"/>
<rect x="36" y="20" width="1" height="1"/>
<rect x="39" y="20" width="1" height="1"/>
<rect x="43" y="20" width="2" height="1"/>
<rect x="47" y="20" width="1" height="1"/>
<rect x="51" y="20" width="1" height="1"/>
<rect x="54" y="20" width="2" height="1"/>
<rect x="17" y="21" width="1" height="1"/>
<rect x="22" y="21" width="1" height="1"/>
<rect x="25" y="21" width="1" height="1"/>
<rect x="29" y="21" width="2" height="1"/>
<rect x="36" y="21" width="1" height="1"/>
<rect x="39" y="21" width="1" height="1"/>
<rect x="44" y="21" width="1" height="1"/>
<rect x="47" y="21" width="1" height="1"/>
<rect x="51" y="21" width="2" height="1"/>
<rect x="54" y="21" width="1" height="1"/>
<rect x="17" y="22" width="1" height="1"/>
<rect x="22" y="22" width="1" height="1"/>
<rect x="25" y="22" width="6" height="1"/>
<rect x="32" y="22" width="5" height="1"/>
<rect x="39" y="22" width="1" height="1"/>
<rect x="44" y="22" width="1" height="1"/>
<rect x="47" y="22" width="6" height="1"/>
<rect x="54" y="22" width="1" height="1"/>
<rect x="17" y="23" width="1" height="1"/>
<rect x="22" y="23" width="1" height="1"/>
<rect x="25" y="23" width="1" height="1"/>
<rect x="32" y="23" width="1" height="1"/>
<rect x="36" y="23" width="1" height="1"/>
<rect x="39" y="23" width="1" height="1"/>
<rect x="44" y="23" width="1" height="1"/>
<rect x="47" y="23" width="1" height="1"/>
<rect x="54" y="23" width="1" height="1"/>
<rect x="17" y="24" width="1" height="1"/>
<rect x="22" y="24" width="1" height="1"/>
<rect x="25" y="24" width="1" height="1"/>
<rect x="32" y="24" width="1" height="1"/>
<rect x="36" y="24" width="1" height="1"/>
<rect x="39" y="24" width="1" height="1"/>
<rect x="43" y="24" width="2" height="1"/>
<rect x="47" y="24" width="1" height="1"/>
<rect x="54" y="24" width="1" height="1"/>
<rect x="17" y="25" width="1" height="1"/>
<rect x="22" y="25" width="1" height="1"/>
<rect x="26" y="25" width="4" height="1"/>
<rect x="32" y="25" width="5" height="1"/>
<rect x="40" y="25" width="3" height="1"/>
<rect x="44" y="25" width="1" height="1"/>
<rect x="48" y="25" width="4" height="1"/>
<rect x="54" y="25" width="1" height="1"/>
<rect x="16" y="30" width="328" height="1"/>
<rect x="55" y="89" width="1" height="1"/>
<rect x="324" y="89" width="1" height="1"/>
<rect x="32" y="90" width="4" height="1"/>
<rect x="45" y="90" width="1" height="1"/>
<rect x="50" y="90" width="1" height="1"/>
<rect x="303" y="90" width="6" height="1"/>
<rect x="324" y="90" width="1" height="1"/>
<rect x="31" y="91" width="1" height="1"/>
<rect x="45" y="91" width="1" height="1"/>
<rect x="50" y="91" width="1" height="1"/>
<rect x="303" y="91" width="1" height="1"/>
<rect x="308" y="91" width="1" height="1"/>
<rect x="324" y="91" width="1" height="1"/>
<rect x="31" y="92" width="1" height="1"/>
<rect x="39" y="92" width="3" height="1"/>
<rect x="44" y="92" width="4" height="1"/>
<rect x="49" y="92" width="4" height="1"/>
<rect x="55" y="92" width="1" height="1"/>
<rect x="58" y="92" width="1" height="1"/>
<rect x="60" y="92" width="3" height="1"/>
<rect x="67" y="92" width="3" height="1"/>
<rect x="71" y="92" width="1" height="1"/>
<rect x="74" y="92" width="5" height="1"/>
<rect x="303" y="92" width="1" height="1"/>
<rect x="308" y="92" width="1" height="1"/>
<rect x="312" y="92" width="4" height="1"/>
<rect x="319" y="92" width="4" height="1"/>
<rect x="324" y="92" width="1" height="1"/>
<rect x="328" y="92" width="2" height="1"/>
<rect x="31" y="93" width="2" height="1"/>
<rect x="38" y="93" width="1" height="1"/>
<rect x="42" y="93" width="1" height="1"/>
<rect x="45" y="93" width="1" height="1"/>
<rect x="50" y="93" width="1" height="1"/>
<rect x="55" y="93" width="1" height="1"/>
<rect x="58" y="93" width="2" height="1"/>
<rect x="63" y="93" width="1" height="1"/>
<rect x="66" y="93" width="1" height="1"/>
<rect x="70" y="93" width="2" height="1"/>
<rect x="74" y="93" width="1" height="1"/>
<rect x="303" y="93" width="1" height="1"/>
<rect x="308" y="93" width="1" height="1"/>
<rect x="311" y="93" width="1" height="1"/>
<rect x="315" y="93" width="1" height="1"/>
<rect x="318" y="93" width="1" height="1"/>
<rect x="324" y="93" width="1" height="1"/>
<rect x="327" y="93" width="1" height="1"/>
<rect x="32" y="94" width="3" height="1"/>
<rect x="38" y="94" width="1" height="1"/>
<rect x="42" y="94" width="2" height="1"/>
<rect x="45" y="94" width="1" height="1"/>
<rect x="50" y="94" width="1" height="1"/>
<rect x="55" y="94" width="1" height="1"/>
<rect x="58" y="94" width="1" height="1"/>
<rect x="63" y="94" width="1" height="1"/>
<rect x="66" y="94" width="1" height="1"/>
<rect x="71" y="94" width="1" height="1"/>
<rect x="74" y="94" width="1" height="1"/>
<rect x="303" y="94" width="5" height="1"/>
<rect x="315" y="94" width="1" height="1"/>
<rect x="318" y="94" width="1" height="1"/>
<rect x="324" y="94" width="1" height="1"/>
<rect x="326" y="94" width="1" height="1"/>
<rect x="35" y="95" width="1" height="1"/>
<rect x="38" y="95" width="6" height="1"/>
<rect x="45" y="95" width="1" height="1"/>
<rect x="50" y="95" width="1" height="1"/>
<rect x="55" y="95" width="1" height="1"/>
<rect x="58" y="95" width="1" height="1"/>
<rect x="63" y="95" width="1" height="1"/>
<rect x="66" y="95" width="1" height="1"/>
<rect x="71" y="95" width="1" height="1"/>
<rect x="75" y="95" width="3" height="1"/>
<rect x="303" y="95" width="1" height="1"/>
<rect x="308" y="95" width="2" height="1"/>
<rect x="311" y="95" width="5" height="1"/>
<rect x="318" y="95" width="1" height="1"/>
<rect x="324" y="95" width="3" height="1"/>
<rect x="35" y="96" width="2" height="1"/>
<rect x="38" y="96" width="1" height="1"/>
<rect x="45" y="96" width="1" height="1"/>
<rect x="50" y="96" width="1" height="1"/>
<rect x="55" y="96" width="1" height="1"/>
<rect x="58" y="96" width="1" height="1"/>
<rect x="63" y="96" width="1" height="1"/>
<rect x="66" y="96" width="1" height="1"/>
<rect x="71" y="96" width="1" height="1"/>
<rect x="77" y="96" width="2" height="1"/>
<rect x="303" y="96" width="1" height="1"/>
<rect x="308" y="96" width="2" height="1"/>
<rect x="311" y="96" width="1" height="1"/>
<rect x="315" y="96" width="1" height="1"/>
<rect x="318" y="96" width="1" height="1"/>
<rect x="324" y="96" width="1" height="1"/>
<rect x="327" y="96" width="1" height="1"/>
<rect x="35" y="97" width="1" height="1"/>
<rect x="38" y="97" width="1" height="1"/>
<rect x="45" y="97" width="1" height="1"/>
<rect x="50" y="97" width="1" height="1"/>
<rect x="55" y="97" width="1" height="1"/>
<rect x="58" y="97" width="1" height="1"/>
<rect x="63" y="97" width="1" height="1"/>
<rect x="66" y="97" width="1" height="1"/>
<rect x="70" y="97" width="2" height="1"/>
<rect x="77" y="97" width="2" height="1"/>
<rect x="303" y="97" width="1" height="1"/>
<rect x="308" y="97" width="2" height="1"/>
<rect x="311" y="97" width="1" height="1"/>
<rect x="315" y="97" width="1" height="1"/>
<rect x="318" y="97" width="1" height="1"/>
<rect x="324" y="97" width="1" height="1"/>
<rect x="327" y="97" width="2" height="1"/>
<rect x="31" y="98" width="4" height="1"/>
<rect x="39" y="98" width="4" height="1"/>
<rect x="46" y="98" width="2" height="1"/>
<rect x="51" y="98" width="2" height="1"/>
<rect x="55" y="98" width="1" height="1"/>
<rect x="58" y="98" width="1" height="1"/>
<rect x="63" y="98" width="1" height="1"/>
<rect x="67" y="98" width="3" height="1"/>
<rect x="71" y="98" width="1" height="1"/>
<rect x="74" y="98" width="4" height="1"/>
<rect x="303" y="98" width="6" height="1"/>
<rect x="311" y="98" width="5" height="1"/>
<rect x="319" y="98" width="4" height="1"/>
<rect x="324" y="98" width="1" height="1"/>
<rect x="328" y="98" width="2" height="1"/>
<rect x="71" y="99" width="1" height="1"/>
<rect x="70" y="100" width="2" height="1"/>
<rect x="66" y="101" width="5" height="1"/>
</g>
</svg>
