<svg xmlns="http://www.w3.org/2000/svg" viewBox="0 0 360 180" width="360" height="180" shape-rendering="crispEdges">
<rect width="100%" height="100%" fill="#fff"/>
<g fill="#111">
<rect x="30" y="0" width="1" height="1"/>
<rect x="30" y="1" width="1" height="1"/>
<rect x="30" y="2" width="1" height="1"/>
<rect x="30" y="3" width="1" height="1"/>
<rect x="30" y="4" width="1" height="1"/>
<rect x="30" y="5" width="1" height="1"/>
<rect x="30" y="6" width="1" height="1"/>
<rect x="30" y="7" width="1" height="1"/>
<rect x="30" y="8" width="1" height="1"/>
<rect x="30" y="9" width="1" height="1"/>
<rect x="30" y="10" width="1" height="1"/>
<rect x="30" y="11" width="1" height="1"/>
<rect x="30" y="12" width="1" height="1"/>
<rect x="30" y="13" width="1" height="1"/>
<rect x="30" y="14" width="1" height="1"/>
<rect x="30" y="15" width="1" height="1"/>
<rect x="30" y="16" width="1" height="1"/>
<rect x="30" y="17" width="1" height="1"/>
<rect x="30" y="18" width="1" height="1"/>
<rect x="30" y="19" width="1" height="1"/>
<rect x="30" y="20" width="1" height="1"/>
<rect x="30" y="21" width="1" height="1"/>
<rect x="30" y="22" width="1" height="1"/>
<rect x="30" y="23" width="1" height="1"/>
<rect x="30" y="24" width="1" height="1"/>
<rect x="30" y="25" width="1" height="1"/>
<rect x="30" y="26" width="1" height="1"/>
<rect x="30" y="27" width="1" height="1"/>
<rect x="30" y="28" width="1" height="1"/>
<rect x="30" y="29" width="1" height="1"/>
<rect x="30" y="30" width="1" height="1"/>
<rect x="30" y="31" width="1" height="1"/>
<rect x="30" y="32" width="1" height="1"/>
<rect x="30" y="33" width="1" height="1"/>
<rect x="30" y="34" width="1" height="1"/>
<rect x="30" y="35" width="1" height="1"/>
<rect x="30" y="36" width="1" height="1"/>
<rect x="30" y="37" width="1" height="1"/>
<rect x="30" y="38" width="1" height="1"/>
<rect x="30" y="39" width="1" height="1"/>
<rect x="30" y="40" width="1" height="1"/>
<rect x="30" y="41" width="1" height="1"/>
<rect x="30" y="42" width="1" height="1"/>
<rect x="30" y="43" width="1" height="1"/>
<rect x="30" y="44" width="1" height="1"/>
<rect x="30" y="45" width="1" height="1"/>
<rect x="30" y="46" width="1" height="1"/>
<rect x="30" y="47" width="1" height="1"/>
<rect x="30" y="48" width="1" height="1"/>
<rect x="30" y="49" width="1" height="1"/>
<rect x="30" y="50" width="1" height="1"/>
<rect x="30" y="51" width="1" height="1"/>
<rect x="30" y="52" width="1" height="1"/>
<rect x="30" y="53" width="1" height="1"/>
<rect x="30" y="54" width="1" height="1"/>
<rect x="30" y="55" width="1" height="1"/>
<rect x="30" y="56" width="1" height="1"/>
<rect x="30" y="57" width="1" height="1"/>
<rect x="30" y="58" width="1" height="1"/>
<rect x="30" y="59" width="1" height="1"/>
<rect x="89" y="59" width="2" height="1"/>
<rect x="96" y="59" width="5" height="1"/>
<rect x="30" y="60" width="1" height="1"/>
<rect x="89" y="60" width="2" height="1"/>
<rect x="95" y="60" width="7" height="1"/>
<rect x="30" y="61" width="1" height="1"/>
<rect x="89" y="61" width="2" height="1"/>
<rect x="95" y="61" width="2" height="1"/>
<rect x="100" y="61" width="2" height="1"/>
<rect x="30" y="62" width="1" height="1"/>
<rect x="89" y="62" width="2" height="1"/>
<rect x="95" y="62" width="2" height="1"/>
<rect x="100" y="62" width="2" height="1"/>
<rect x="30" y="63" width="1" height="1"/>
<rect x="89" y="63" width="2" height="1"/>
<rect x="94" y="63" width="2" height="1"/>
<rect x="101" y="63" width="1" height="1"/>
<rect x="30" y="64" width="1" height="1"/>
<rect x="89" y="64" width="2" height="1"/>
<rect x="94" y="64" width="2" height="1"/>
<rect x="100" y="64" width="2" height="1"/>
<rect x="30" y="65" width="1" height="1"/>
<rect x="89" y="65" width="2" height="1"/>
<rect x="93" y="65" width="2" height="1"/>
<rect x="100" y="65" width="2" height="1"/>
<rect x="30" y="66" width="1" height="1"/>
<rect x="90" y="66" width="5" height="1"/>
<rect x="100" y="66" width="2" height="1"/>
<rect x="30" y="67" width="1" height="1"/>
<rect x="91" y="67" width="3" height="1"/>
<rect x="99" y="67" width="3" height="1"/>
<rect x="30" y="68" width="1" height="1"/>
<rect x="30" y="69" width="1" height="1"/>
<rect x="30" y="70" width="1" height="1"/>
<rect x="30" y="71" width="1" height="1"/>
<rect x="89" y="71" width="15" height="1"/>
<rect x="30" y="72" width="1" height="1"/>
<rect x="89" y="72" width="17" height="1"/>
<rect x="30" y="73" width="1" height="1"/>
<rect x="91" y="73" width="3" height="1"/>
<rect x="98" y="73" width="2" height="1"/>
<rect x="103" y="73" width="4" height="1"/>
<rect x="30" y="74" width="1" height="1"/>
<rect x="90" y="74" width="2" height="1"/>
<rect x="100" y="74" width="1" height="1"/>
<rect x="105" y="74" width="2" height="1"/>
<rect x="30" y="75" width="1" height="1"/>
<rect x="89" y="75" width="2" height="1"/>
<rect x="100" y="75" width="2" height="1"/>
<rect x="106" y="75" width="2" height="1"/>
<rect x="30" y="76" width="1" height="1"/>
<rect x="89" y="76" width="2" height="1"/>
<rect x="100" y="76" width="2" height="1"/>
<rect x="106" y="76" width="2" height="1"/>
<rect x="30" y="77" width="1" height="1"/>
<rect x="89" y="77" width="2" height="1"/>
<rect x="100" y="77" width="2" height="1"/>
<rect x="106" y="77" width="2" height="1"/>
<rect x="30" y="78" width="1" height="1"/>
<rect x="89" y="78" width="2" height="1"/>
<rect x="100" y="78" width="2" height="1"/>
<rect x="106" y="78" width="2" height="1"/>
<rect x="30" y="79" width="1" height="1"/>
<rect x="89" y="79" width="3" height="1"/>
<rect x="99" y="79" width="3" height="1"/>
<rect x="106" y="79" width="2" height="1"/>
<rect x="30" y="80" width="1" height="1"/>
<rect x="90" y="80" width="11" height="1"/>
<rect x="105" y="80" width="2" height="1"/>
<rect x="30" y="81" width="1" height="1"/>
<rect x="91" y="81" width="9" height="1"/>
<rect x="105" y="81" width="2" height="1"/>
<rect x="30" y="82" width="1" height="1"/>
<rect x="93" y="82" width="5" height="1"/>
<rect x="22" y="83" width="1" height="1"/>
<rect x="30" y="83" width="1" height="1"/>
<rect x="22" y="84" width="2" height="1"/>
<rect x="30" y="84" width="1" height="1"/>
<rect x="22" y="85" width="2" height="1"/>
<rect x="30" y="85" width="1" height="1"/>
<rect x="22" y="86" width="2" height="1"/>
<rect x="30" y="86" width="1" height="1"/>
<rect x="91" y="86" width="11" height="1"/>
<rect x="23" y="87" width="2" height="1"/>
<rect x="30" y="87" width="1" height="1"/>
<rect x="90" y="87" width="12" height="1"/>
<rect x="24" y="88" width="2" height="1"/>
<rect x="30" y="88" width="1" height="1"/>
<rect x="89" y="88" width="3" height="1"/>
<rect x="22" y="89" width="13" height="1"/>
<rect x="89" y="89" width="2" height="1"/>
<rect x="22" y="90" width="13" height="1"/>
<rect x="89" y="90" width="2" height="1"/>
<rect x="30" y="91" width="1" height="1"/>
<rect x="89" y="91" width="2" height="1"/>
<rect x="30" y="92" width="1" height="1"/>
<rect x="89" y="92" width="2" height="1"/>
<rect x="30" y="93" width="1" height="1"/>
<rect x="90" y="93" width="1" height="1"/>
<rect x="30" y="94" width="1" height="1"/>
<rect x="90" y="94" width="3" height="1"/>
<rect x="24" y="95" width="5" height="1"/>
<rect x="30" y="95" width="1" height="1"/>
<rect x="33" y="95" width="1" height="1"/>
<rect x="89" y="95" width="13" height="1"/>
<rect x="23" y="96" width="6" height="1"/>
<rect x="30" y="96" width="1" height="1"/>
<rect x="33" y="96" width="2" height="1"/>
<rect x="89" y="96" width="13" height="1"/>
<rect x="22" y="97" width="3" height="1"/>
<rect x="27" y="97" width="2" height="1"/>
<rect x="30" y="97" width="1" height="1"/>
<rect x="33" y="97" width="2" height="1"/>
<rect x="22" y="98" width="2" height="1"/>
<rect x="27" y="98" width="2" height="1"/>
<rect x="30" y="98" width="1" height="1"/>
<rect x="33" y="98" width="2" height="1"/>
<rect x="22" y="99" width="2" height="1"/>
<rect x="27" y="99" width="2" height="1"/>
<rect x="30" y="99" width="1" height="1"/>
<rect x="33" y="99" width="2" height="1"/>
<rect x="22" y="100" width="2" height="1"/>
<rect x="27" y="100" width="2" height="1"/>
<rect x="30" y="100" width="1" height="1"/>
<rect x="33" y="100" width="2" height="1"/>
<rect x="22" y="101" width="2" height="1"/>
<rect x="27" y="101" width="2" height="1"/>
<rect x="30" y="101" width="1" height="1"/>
<rect x="33" y="101" width="2" height="1"/>
<rect x="85" y="101" width="3" height="1"/>
<rect x="90" y="101" width="13" height="1"/>
<rect x="22" y="102" width="3" height="1"/>
<rect x="27" y="102" width="2" height="1"/>
<rect x="30" y="102" width="1" height="1"/>
<rect x="32" y="102" width="3" height="1"/>
<rect x="85" y="102" width="3" height="1"/>
<rect x="90" y="102" width="13" height="1"/>
<rect x="23" y="103" width="11" height="1"/>
<rect x="24" y="104" width="9" height="1"/>
<rect x="27" y="105" width="4" height="1"/>
<rect x="30" y="106" width="1" height="1"/>
<rect x="90" y="106" width="2" height="1"/>
<rect x="101" y="106" width="2" height="1"/>
<rect x="30" y="107" width="1" height="1"/>
<rect x="90" y="107" width="2" height="1"/>
<rect x="101" y="107" width="2" height="1"/>
<rect x="30" y="108" width="1" height="1"/>
<rect x="90" y="108" width="2" height="1"/>
<rect x="101" y="108" width="2" height="1"/>
<rect x="17" y="109" width="18" height="1"/>
<rect x="90" y="109" width="2" height="1"/>
<rect x="100" y="109" width="3" height="1"/>
<rect x="17" y="110" width="18" height="1"/>
<rect x="87" y="110" width="16" height="1"/>
<rect x="24" y="111" width="3" height="1"/>
<rect x="30" y="111" width="3" height="1"/>
<rect x="89" y="111" width="12" height="1"/>
<rect x="23" y="112" width="2" height="1"/>
<rect x="30" y="112" width="1" height="1"/>
<rect x="33" y="112" width="1" height="1"/>
<rect x="90" y="112" width="2" height="1"/>
<rect x="22" y="113" width="2" height="1"/>
<rect x="30" y="113" width="1" height="1"/>
<rect x="33" y="113" width="2" height="1"/>
<rect x="91" y="113" width="1" height="1"/>
<rect x="22" y="114" width="2" height="1"/>
<rect x="30" y="114" width="1" height="1"/>
<rect x="33" y="114" width="2" height="1"/>
<rect x="22" y="115" width="2" height="1"/>
<rect x="30" y="115" width="1" height="1"/>
<rect x="33" y="115" width="2" height="1"/>
<rect x="90" y="115" width="2" height="1"/>
<rect x="101" y="115" width="2" height="1"/>
<rect x="22" y="116" width="2" height="1"/>
<rect x="30" y="116" width="1" height="1"/>
<rect x="33" y="116" width="2" height="1"/>
<rect x="90" y="116" width="2" height="1"/>
<rect x="101" y="116" width="2" height="1"/>
<rect x="22" y="117" width="3" height="1"/>
<rect x="30" y="117" width="1" height="1"/>
<rect x="32" y="117" width="3" height="1"/>
<rect x="90" y="117" width="2" height="1"/>
<rect x="101" y="117" width="2" height="1"/>
<rect x="23" y="118" width="11" height="1"/>
<rect x="90" y="118" width="2" height="1"/>
<rect x="100" y="118" width="3" height="1"/>
<rect x="24" y="119" width="9" height="1"/>
<rect x="87" y="119" width="16" height="1"/>
<rect x="26" y="120" width="5" height="1"/>
<rect x="89" y="120" width="12" height="1"/>
<rect x="30" y="121" width="1" height="1"/>
<rect x="90" y="121" width="2" height="1"/>
<rect x="30" y="122" width="1" height="1"/>
<rect x="91" y="122" width="1" height="1"/>
<rect x="26" y="123" width="9" height="1"/>
<rect x="23" y="124" width="12" height="1"/>
<rect x="22" y="125" width="11" height="1"/>
<rect x="91" y="125" width="5" height="1"/>
<rect x="100" y="125" width="1" height="1"/>
<rect x="22" y="126" width="2" height="1"/>
<rect x="27" y="126" width="2" height="1"/>
<rect x="30" y="126" width="1" height="1"/>
<rect x="32" y="126" width="2" height="1"/>
<rect x="90" y="126" width="6" height="1"/>
<rect x="100" y="126" width="2" height="1"/>
<rect x="22" y="127" width="2" height="1"/>
<rect x="27" y="127" width="2" height="1"/>
<rect x="30" y="127" width="1" height="1"/>
<rect x="33" y="127" width="2" height="1"/>
<rect x="89" y="127" width="3" height="1"/>
<rect x="94" y="127" width="2" height="1"/>
<rect x="100" y="127" width="2" height="1"/>
<rect x="22" y="128" width="2" height="1"/>
<rect x="27" y="128" width="2" height="1"/>
<rect x="30" y="128" width="1" height="1"/>
<rect x="33" y="128" width="2" height="1"/>
<rect x="89" y="128" width="2" height="1"/>
<rect x="94" y="128" width="2" height="1"/>
<rect x="100" y="128" width="2" height="1"/>
<rect x="22" y="129" width="2" height="1"/>
<rect x="27" y="129" width="2" height="1"/>
<rect x="30" y="129" width="1" height="1"/>
<rect x="34" y="129" width="1" height="1"/>
<rect x="89" y="129" width="2" height="1"/>
<rect x="94" y="129" width="2" height="1"/>
<rect x="100" y="129" width="2" height="1"/>
<rect x="22" y="130" width="2" height="1"/>
<rect x="28" y="130" width="1" height="1"/>
<rect x="30" y="130" width="1" height="1"/>
<rect x="33" y="130" width="2" height="1"/>
<rect x="89" y="130" width="2" height="1"/>
<rect x="94" y="130" width="2" height="1"/>
<rect x="100" y="130" width="2" height="1"/>
<rect x="23" y="131" width="2" height="1"/>
<rect x="28" y="131" width="3" height="1"/>
<rect x="32" y="131" width="3" height="1"/>
<rect x="89" y="131" width="2" height="1"/>
<rect x="94" y="131" width="2" height="1"/>
<rect x="100" y="131" width="2" height="1"/>
<rect x="29" y="132" width="6" height="1"/>
<rect x="89" y="132" width="3" height="1"/>
<rect x="94" y="132" width="2" height="1"/>
<rect x="99" y="132" width="3" height="1"/>
<rect x="30" y="133" width="3" height="1"/>
<rect x="90" y="133" width="11" height="1"/>
<rect x="30" y="134" width="1" height="1"/>
<rect x="91" y="134" width="9" height="1"/>
<rect x="30" y="135" width="1" height="1"/>
<rect x="94" y="135" width="4" height="1"/>
<rect x="30" y="136" width="1" height="1"/>
<rect x="24" y="137" width="5" height="1"/>
<rect x="30" y="137" width="1" height="1"/>
<rect x="33" y="137" width="1" height="1"/>
<rect x="23" y="138" width="6" height="1"/>
<rect x="30" y="138" width="1" height="1"/>
<rect x="33" y="138" width="2" height="1"/>
<rect x="85" y="138" width="1" height="1"/>
<rect x="95" y="138" width="5" height="1"/>
<rect x="22" y="139" width="3" height="1"/>
<rect x="27" y="139" width="2" height="1"/>
<rect x="30" y="139" width="1" height="1"/>
<rect x="33" y="139" width="2" height="1"/>
<rect x="85" y="139" width="2" height="1"/>
<rect x="94" y="139" width="7" height="1"/>
<rect x="22" y="140" width="2" height="1"/>
<rect x="27" y="140" width="2" height="1"/>
<rect x="30" y="140" width="1" height="1"/>
<rect x="33" y="140" width="2" height="1"/>
<rect x="85" y="140" width="2" height="1"/>
<rect x="93" y="140" width="3" height="1"/>
<rect x="99" y="140" width="3" height="1"/>
<rect x="22" y="141" width="2" height="1"/>
<rect x="27" y="141" width="2" height="1"/>
<rect x="30" y="141" width="1" height="1"/>
<rect x="33" y="141" width="2" height="1"/>
<rect x="85" y="141" width="2" height="1"/>
<rect x="93" y="141" width="2" height="1"/>
<rect x="100" y="141" width="2" height="1"/>
<rect x="22" y="142" width="2" height="1"/>
<rect x="27" y="142" width="2" height="1"/>
<rect x="30" y="142" width="1" height="1"/>
<rect x="33" y="142" width="2" height="1"/>
<rect x="85" y="142" width="2" height="1"/>
<rect x="93" y="142" width="2" height="1"/>
<rect x="100" y="142" width="2" height="1"/>
<rect x="22" y="143" width="2" height="1"/>
<rect x="27" y="143" width="2" height="1"/>
<rect x="30" y="143" width="1" height="1"/>
<rect x="33" y="143" width="2" height="1"/>
<rect x="85" y="143" width="2" height="1"/>
<rect x="92" y="143" width="2" height="1"/>
<rect x="100" y="143" width="2" height="1"/>
<rect x="22" y="144" width="3" height="1"/>
<rect x="27" y="144" width="2" height="1"/>
<rect x="30" y="144" width="1" height="1"/>
<rect x="32" y="144" width="3" height="1"/>
<rect x="85" y="144" width="2" height="1"/>
<rect x="92" y="144" width="2" height="1"/>
<rect x="100" y="144" width="2" height="1"/>
<rect x="23" y="145" width="11" height="1"/>
<rect x="85" y="145" width="2" height="1"/>
<rect x="91" y="145" width="3" height="1"/>
<rect x="100" y="145" width="2" height="1"/>
<rect x="24" y="146" width="9" height="1"/>
<rect x="85" y="146" width="8" height="1"/>
<rect x="100" y="146" width="2" height="1"/>
<rect x="27" y="147" width="4" height="1"/>
<rect x="86" y="147" width="6" height="1"/>
<rect x="100" y="147" width="2" height="1"/>
<rect x="30" y="148" width="1" height="1"/>
<rect x="88" y="148" width="2" height="1"/>
<rect x="99" y="148" width="3" height="1"/>
<rect x="30" y="149" width="1" height="1"/>
<rect x="30" y="150" width="1" height="1"/>
<rect x="24" y="151" width="11" height="1"/>
<rect x="23" y="152" width="12" height="1"/>
<rect x="22" y="153" width="3" height="1"/>
<rect x="30" y="153" width="1" height="1"/>
<rect x="22" y="154" width="2" height="1"/>
<rect x="30" y="154" width="1" height="1"/>
<rect x="22" y="155" width="2" height="1"/>
<rect x="30" y="155" width="1" height="1"/>
<rect x="22" y="156" width="2" height="1"/>
<rect x="30" y="156" width="1" height="1"/>
<rect x="22" y="157" width="2" height="1"/>
<rect x="30" y="157" width="1" height="1"/>
<rect x="23" y="158" width="1" height="1"/>
<rect x="30" y="158" width="1" height="1"/>
<rect x="23" y="159" width="3" height="1"/>
<rect x="30" y="159" width="1" height="1"/>
<rect x="17" y="160" width="18" height="1"/>
<rect x="17" y="161" width="18" height="1"/>
<rect x="30" y="162" width="1" height="1"/>
<rect x="30" y="163" width="1" height="1"/>
</g>
</svg>
