<svg xmlns="http://www.w3.org/2000/svg" viewBox="0 0 360 180" width="360" height="180" shape-rendering="crispEdges">
<rect width="100%" height="100%" fill="#fff"/>
<g fill="#111">
<rect x="30" y="0" width="1" height="1"/>
<rect x="56" y="0" width="5" height="1"/>
<rect x="83" y="0" width="10" height="1"/>
<rect x="95" y="0" width="5" height="1"/>
<rect x="102" y="0" width="6" height="1"/>
<rect x="110" y="0" width="10" height="1"/>
<rect x="133" y="0" width="1" height="1"/>
<rect x="142" y="0" width="1" height="1"/>
<rect x="30" y="1" width="1" height="1"/>
<rect x="57" y="1" width="7" height="1"/>
<rect x="83" y="1" width="10" height="1"/>
<rect x="95" y="1" width="5" height="1"/>
<rect x="102" y="1" width="6" height="1"/>
<rect x="110" y="1" width="10" height="1"/>
<rect x="133" y="1" width="1" height="1"/>
<rect x="142" y="1" width="1" height="1"/>
<rect x="30" y="2" width="1" height="1"/>
<rect x="61" y="2" width="7" height="1"/>
<rect x="83" y="2" width="10" height="1"/>
<rect x="95" y="2" width="4" height="1"/>
<rect x="102" y="2" width="6" height="1"/>
<rect x="110" y="2" width="10" height="1"/>
<rect x="133" y="2" width="2" height="1"/>
<rect x="141" y="2" width="2" height="1"/>
<rect x="30" y="3" width="1" height="1"/>
<rect x="64" y="3" width="7" height="1"/>
<rect x="83" y="3" width="10" height="1"/>
<rect x="101" y="3" width="7" height="1"/>
<rect x="110" y="3" width="10" height="1"/>
<rect x="134" y="3" width="2" height="1"/>
<rect x="140" y="3" width="2" height="1"/>
<rect x="30" y="4" width="1" height="1"/>
<rect x="68" y="4" width="5" height="1"/>
<rect x="83" y="4" width="11" height="1"/>
<rect x="100" y="4" width="8" height="1"/>
<rect x="110" y="4" width="10" height="1"/>
<rect x="135" y="4" width="2" height="1"/>
<rect x="139" y="4" width="2" height="1"/>
<rect x="30" y="5" width="1" height="1"/>
<rect x="68" y="5" width="5" height="1"/>
<rect x="83" y="5" width="13" height="1"/>
<rect x="98" y="5" width="9" height="1"/>
<rect x="110" y="5" width="10" height="1"/>
<rect x="136" y="5" width="1" height="1"/>
<rect x="139" y="5" width="1" height="1"/>
<rect x="30" y="6" width="1" height="1"/>
<rect x="64" y="6" width="8" height="1"/>
<rect x="83" y="6" width="37" height="1"/>
<rect x="137" y="6" width="2" height="1"/>
<rect x="30" y="7" width="1" height="1"/>
<rect x="60" y="7" width="8" height="1"/>
<rect x="83" y="7" width="37" height="1"/>
<rect x="30" y="8" width="1" height="1"/>
<rect x="56" y="8" width="8" height="1"/>
<rect x="83" y="8" width="37" height="1"/>
<rect x="30" y="9" width="1" height="1"/>
<rect x="56" y="9" width="4" height="1"/>
<rect x="83" y="9" width="37" height="1"/>
<rect x="30" y="10" width="1" height="1"/>
<rect x="56" y="10" width="1" height="1"/>
<rect x="83" y="10" width="37" height="1"/>
<rect x="30" y="11" width="1" height="1"/>
<rect x="83" y="11" width="37" height="1"/>
<rect x="30" y="12" width="1" height="1"/>
<rect x="83" y="12" width="37" height="1"/>
<rect x="30" y="13" width="1" height="1"/>
<rect x="83" y="13" width="37" height="1"/>
<rect x="30" y="14" width="1" height="1"/>
<rect x="83" y="14" width="37" height="1"/>
<rect x="30" y="15" width="1" height="1"/>
<rect x="83" y="15" width="37" height="1"/>
<rect x="30" y="16" width="1" height="1"/>
<rect x="83" y="16" width="37" height="1"/>
<rect x="30" y="17" width="1" height="1"/>
<rect x="83" y="17" width="37" height="1"/>
<rect x="30" y="18" width="1" height="1"/>
<rect x="83" y="18" width="37" height="1"/>
<rect x="30" y="19" width="1" height="1"/>
<rect x="83" y="19" width="37" height="1"/>
<rect x="30" y="20" width="1" height="1"/>
<rect x="83" y="20" width="37" height="1"/>
<rect x="30" y="21" width="1" height="1"/>
<rect x="83" y="21" width="37" height="1"/>
<rect x="30" y="22" width="1" height="1"/>
<rect x="83" y="22" width="37" height="1"/>
<rect x="30" y="23" width="1" height="1"/>
<rect x="83" y="23" width="37" height="1"/>
<rect x="30" y="24" width="1" height="1"/>
<rect x="83" y="24" width="37" height="1"/>
<rect x="30" y="25" width="1" height="1"/>
<rect x="83" y="25" width="37" height="1"/>
<rect x="30" y="26" width="1" height="1"/>
<rect x="83" y="26" width="37" height="1"/>
<rect x="30" y="27" width="1" height="1"/>
<rect x="83" y="27" width="37" height="1"/>
<rect x="30" y="28" width="1" height="1"/>
<rect x="83" y="28" width="37" height="1"/>
<rect x="30" y="29" width="1" height="1"/>
<rect x="83" y="29" width="37" height="1"/>
<rect x="30" y="30" width="1" height="1"/>
<rect x="83" y="30" width="37" height="1"/>
<rect x="30" y="31" width="1" height="1"/>
<rect x="83" y="31" width="37" height="1"/>
<rect x="30" y="32" width="1" height="1"/>
<rect x="83" y="32" width="37" height="1"/>
<rect x="30" y="33" width="1" height="1"/>
<rect x="83" y="33" width="37" height="1"/>
<rect x="30" y="34" width="1" height="1"/>
<rect x="83" y="34" width="37" height="1"/>
<rect x="30" y="35" width="1" height="1"/>
<rect x="83" y="35" width="37" height="1"/>
<rect x="30" y="36" width="1" height="1"/>
<rect x="83" y="36" width="37" height="1"/>
<rect x="30" y="37" width="1" height="1"/>
<rect x="83" y="37" width="37" height="1"/>
<rect x="30" y="38" width="1" height="1"/>
<rect x="83" y="38" width="37" height="1"/>
<rect x="30" y="39" width="1" height="1"/>
<rect x="83" y="39" width="37" height="1"/>
<rect x="30" y="40" width="1" height="1"/>
<rect x="83" y="40" width="37" height="1"/>
<rect x="30" y="41" width="1" height="1"/>
<rect x="83" y="41" width="37" height="1"/>
<rect x="30" y="42" width="1" height="1"/>
<rect x="83" y="42" width="37" height="1"/>
<rect x="30" y="43" width="1" height="1"/>
<rect x="83" y="43" width="37" height="1"/>
<rect x="30" y="44" width="1" height="1"/>
<rect x="83" y="44" width="37" height="1"/>
<rect x="30" y="45" width="1" height="1"/>
<rect x="83" y="45" width="37" height="1"/>
<rect x="30" y="46" width="1" height="1"/>
<rect x="83" y="46" width="37" height="1"/>
<rect x="30" y="47" width="1" height="1"/>
<rect x="83" y="47" width="37" height="1"/>
<rect x="30" y="48" width="1" height="1"/>
<rect x="83" y="48" width="37" height="1"/>
<rect x="30" y="49" width="1" height="1"/>
<rect x="83" y="49" width="37" height="1"/>
<rect x="30" y="50" width="1" height="1"/>
<rect x="83" y="50" width="37" height="1"/>
<rect x="30" y="51" width="1" height="1"/>
<rect x="83" y="51" width="37" height="1"/>
<rect x="30" y="52" width="1" height="1"/>
<rect x="30" y="53" width="1" height="1"/>
<rect x="30" y="54" width="1" height="1"/>
<rect x="30" y="55" width="1" height="1"/>
<rect x="30" y="56" width="1" height="1"/>
<rect x="30" y="57" width="1" height="1"/>
<rect x="30" y="58" width="1" height="1"/>
<rect x="30" y="59" width="1" height="1"/>
<rect x="30" y="60" width="1" height="1"/>
<rect x="30" y="61" width="1" height="1"/>
<rect x="30" y="62" width="1" height="1"/>
<rect x="30" y="63" width="1" height="1"/>
<rect x="30" y="64" width="1" height="1"/>
<rect x="30" y="65" width="1" height="1"/>
<rect x="30" y="66" width="1" height="1"/>
<rect x="30" y="67" width="1" height="1"/>
<rect x="30" y="68" width="1" height="1"/>
<rect x="30" y="69" width="1" height="1"/>
<rect x="30" y="70" width="1" height="1"/>
<rect x="30" y="71" width="1" height="1"/>
<rect x="140" y="71" width="3" height="1"/>
<rect x="30" y="72" width="1" height="1"/>
<rect x="140" y="72" width="3" height="1"/>
<rect x="30" y="73" width="1" height="1"/>
<rect x="140" y="73" width="3" height="1"/>
<rect x="30" y="74" width="1" height="1"/>
<rect x="140" y="74" width="3" height="1"/>
<rect x="30" y="75" width="1" height="1"/>
<rect x="140" y="75" width="3" height="1"/>
<rect x="30" y="76" width="1" height="1"/>
<rect x="140" y="76" width="3" height="1"/>
<rect x="30" y="77" width="1" height="1"/>
<rect x="140" y="77" width="3" height="1"/>
<rect x="30" y="78" width="1" height="1"/>
<rect x="140" y="78" width="3" height="1"/>
<rect x="17" y="79" width="18" height="1"/>
<rect x="140" y="79" width="3" height="1"/>
<rect x="17" y="80" width="18" height="1"/>
<rect x="140" y="80" width="3" height="1"/>
<rect x="24" y="81" width="3" height="1"/>
<rect x="30" y="81" width="3" height="1"/>
<rect x="140" y="81" width="3" height="1"/>
<rect x="23" y="82" width="2" height="1"/>
<rect x="30" y="82" width="1" height="1"/>
<rect x="33" y="82" width="1" height="1"/>
<rect x="140" y="82" width="3" height="1"/>
<rect x="22" y="83" width="2" height="1"/>
<rect x="30" y="83" width="1" height="1"/>
<rect x="33" y="83" width="2" height="1"/>
<rect x="140" y="83" width="3" height="1"/>
<rect x="22" y="84" width="2" height="1"/>
<rect x="30" y="84" width="1" height="1"/>
<rect x="33" y="84" width="2" height="1"/>
<rect x="140" y="84" width="3" height="1"/>
<rect x="22" y="85" width="2" height="1"/>
<rect x="30" y="85" width="1" height="1"/>
<rect x="33" y="85" width="2" height="1"/>
<rect x="140" y="85" width="3" height="1"/>
<rect x="22" y="86" width="2" height="1"/>
<rect x="30" y="86" width="1" height="1"/>
<rect x="33" y="86" width="2" height="1"/>
<rect x="140" y="86" width="3" height="1"/>
<rect x="22" y="87" width="3" height="1"/>
<rect x="30" y="87" width="1" height="1"/>
<rect x="32" y="87" width="3" height="1"/>
<rect x="140" y="87" width="3" height="1"/>
<rect x="23" y="88" width="11" height="1"/>
<rect x="140" y="88" width="3" height="1"/>
<rect x="24" y="89" width="9" height="1"/>
<rect x="140" y="89" width="3" height="1"/>
<rect x="26" y="90" width="5" height="1"/>
<rect x="140" y="90" width="3" height="1"/>
<rect x="30" y="91" width="1" height="1"/>
<rect x="140" y="91" width="3" height="1"/>
<rect x="30" y="92" width="1" height="1"/>
<rect x="140" y="92" width="3" height="1"/>
<rect x="30" y="93" width="1" height="1"/>
<rect x="140" y="93" width="3" height="1"/>
<rect x="18" y="94" width="3" height="1"/>
<rect x="23" y="94" width="13" height="1"/>
<rect x="140" y="94" width="3" height="1"/>
<rect x="18" y="95" width="3" height="1"/>
<rect x="23" y="95" width="13" height="1"/>
<rect x="140" y="95" width="3" height="1"/>
<rect x="30" y="96" width="1" height="1"/>
<rect x="140" y="96" width="3" height="1"/>
<rect x="30" y="97" width="1" height="1"/>
<rect x="60" y="97" width="9" height="1"/>
<rect x="108" y="97" width="2" height="1"/>
<rect x="140" y="97" width="3" height="1"/>
<rect x="22" y="98" width="1" height="1"/>
<rect x="30" y="98" width="1" height="1"/>
<rect x="58" y="98" width="13" height="1"/>
<rect x="76" y="98" width="1" height="1"/>
<rect x="105" y="98" width="5" height="1"/>
<rect x="140" y="98" width="3" height="1"/>
<rect x="22" y="99" width="2" height="1"/>
<rect x="30" y="99" width="1" height="1"/>
<rect x="57" y="99" width="4" height="1"/>
<rect x="68" y="99" width="4" height="1"/>
<rect x="75" y="99" width="2" height="1"/>
<rect x="103" y="99" width="6" height="1"/>
<rect x="140" y="99" width="3" height="1"/>
<rect x="22" y="100" width="2" height="1"/>
<rect x="30" y="100" width="1" height="1"/>
<rect x="57" y="100" width="2" height="1"/>
<rect x="70" y="100" width="2" height="1"/>
<rect x="74" y="100" width="3" height="1"/>
<rect x="100" y="100" width="6" height="1"/>
<rect x="140" y="100" width="3" height="1"/>
<rect x="22" y="101" width="2" height="1"/>
<rect x="30" y="101" width="1" height="1"/>
<rect x="56" y="101" width="2" height="1"/>
<rect x="71" y="101" width="5" height="1"/>
<rect x="98" y="101" width="7" height="1"/>
<rect x="140" y="101" width="3" height="1"/>
<rect x="23" y="102" width="2" height="1"/>
<rect x="30" y="102" width="1" height="1"/>
<rect x="56" y="102" width="2" height="1"/>
<rect x="71" y="102" width="4" height="1"/>
<rect x="95" y="102" width="5" height="1"/>
<rect x="103" y="102" width="2" height="1"/>
<rect x="140" y="102" width="3" height="1"/>
<rect x="24" y="103" width="2" height="1"/>
<rect x="30" y="103" width="1" height="1"/>
<rect x="56" y="103" width="2" height="1"/>
<rect x="71" y="103" width="3" height="1"/>
<rect x="93" y="103" width="5" height="1"/>
<rect x="103" y="103" width="2" height="1"/>
<rect x="140" y="103" width="3" height="1"/>
<rect x="22" y="104" width="13" height="1"/>
<rect x="56" y="104" width="2" height="1"/>
<rect x="71" y="104" width="2" height="1"/>
<rect x="93" y="104" width="3" height="1"/>
<rect x="103" y="104" width="2" height="1"/>
<rect x="140" y="104" width="3" height="1"/>
<rect x="22" y="105" width="13" height="1"/>
<rect x="56" y="105" width="2" height="1"/>
<rect x="71" y="105" width="2" height="1"/>
<rect x="93" y="105" width="6" height="1"/>
<rect x="103" y="105" width="2" height="1"/>
<rect x="140" y="105" width="3" height="1"/>
<rect x="30" y="106" width="1" height="1"/>
<rect x="56" y="106" width="2" height="1"/>
<rect x="71" y="106" width="2" height="1"/>
<rect x="96" y="106" width="5" height="1"/>
<rect x="103" y="106" width="2" height="1"/>
<rect x="140" y="106" width="3" height="1"/>
<rect x="30" y="107" width="1" height="1"/>
<rect x="56" y="107" width="2" height="1"/>
<rect x="71" y="107" width="2" height="1"/>
<rect x="98" y="107" width="7" height="1"/>
<rect x="140" y="107" width="3" height="1"/>
<rect x="30" y="108" width="1" height="1"/>
<rect x="56" y="108" width="3" height="1"/>
<rect x="70" y="108" width="2" height="1"/>
<rect x="101" y="108" width="6" height="1"/>
<rect x="140" y="108" width="3" height="1"/>
<rect x="26" y="109" width="8" height="1"/>
<rect x="57" y="109" width="3" height="1"/>
<rect x="69" y="109" width="3" height="1"/>
<rect x="104" y="109" width="5" height="1"/>
<rect x="140" y="109" width="3" height="1"/>
<rect x="18" y="110" width="3" height="1"/>
<rect x="26" y="110" width="9" height="1"/>
<rect x="58" y="110" width="13" height="1"/>
<rect x="106" y="110" width="4" height="1"/>
<rect x="140" y="110" width="3" height="1"/>
<rect x="18" y="111" width="2" height="1"/>
<rect x="26" y="111" width="2" height="1"/>
<rect x="30" y="111" width="1" height="1"/>
<rect x="33" y="111" width="2" height="1"/>
<rect x="59" y="111" width="10" height="1"/>
<rect x="109" y="111" width="1" height="1"/>
<rect x="140" y="111" width="3" height="1"/>
<rect x="18" y="112" width="2" height="1"/>
<rect x="26" y="112" width="2" height="1"/>
<rect x="30" y="112" width="1" height="1"/>
<rect x="33" y="112" width="2" height="1"/>
<rect x="63" y="112" width="3" height="1"/>
<rect x="140" y="112" width="3" height="1"/>
<rect x="18" y="113" width="2" height="1"/>
<rect x="26" y="113" width="2" height="1"/>
<rect x="30" y="113" width="1" height="1"/>
<rect x="33" y="113" width="2" height="1"/>
<rect x="140" y="113" width="3" height="1"/>
<rect x="18" y="114" width="2" height="1"/>
<rect x="26" y="114" width="2" height="1"/>
<rect x="30" y="114" width="1" height="1"/>
<rect x="33" y="114" width="2" height="1"/>
<rect x="140" y="114" width="3" height="1"/>
<rect x="18" y="115" width="2" height="1"/>
<rect x="30" y="115" width="1" height="1"/>
<rect x="33" y="115" width="2" height="1"/>
<rect x="140" y="115" width="3" height="1"/>
<rect x="18" y="116" width="2" height="1"/>
<rect x="30" y="116" width="1" height="1"/>
<rect x="33" y="116" width="2" height="1"/>
<rect x="140" y="116" width="3" height="1"/>
<rect x="18" y="117" width="2" height="1"/>
<rect x="30" y="117" width="1" height="1"/>
<rect x="33" y="117" width="2" height="1"/>
<rect x="140" y="117" width="3" height="1"/>
<rect x="18" y="118" width="2" height="1"/>
<rect x="30" y="118" width="1" height="1"/>
<rect x="33" y="118" width="2" height="1"/>
<rect x="140" y="118" width="3" height="1"/>
<rect x="19" y="119" width="2" height="1"/>
<rect x="30" y="119" width="1" height="1"/>
<rect x="32" y="119" width="2" height="1"/>
<rect x="140" y="119" width="3" height="1"/>
<rect x="19" y="120" width="4" height="1"/>
<rect x="30" y="120" width="4" height="1"/>
<rect x="140" y="120" width="3" height="1"/>
<rect x="20" y="121" width="13" height="1"/>
<rect x="140" y="121" width="3" height="1"/>
<rect x="22" y="122" width="9" height="1"/>
<rect x="140" y="122" width="3" height="1"/>
<rect x="25" y="123" width="3" height="1"/>
<rect x="30" y="123" width="1" height="1"/>
<rect x="140" y="123" width="3" height="1"/>
<rect x="30" y="124" width="1" height="1"/>
<rect x="140" y="124" width="3" height="1"/>
<rect x="23" y="125" width="2" height="1"/>
<rect x="30" y="125" width="1" height="1"/>
<rect x="140" y="125" width="3" height="1"/>
<rect x="23" y="126" width="5" height="1"/>
<rect x="30" y="126" width="1" height="1"/>
<rect x="140" y="126" width="3" height="1"/>
<rect x="24" y="127" width="7" height="1"/>
<rect x="140" y="127" width="3" height="1"/>
<rect x="27" y="128" width="6" height="1"/>
<rect x="140" y="128" width="3" height="1"/>
<rect x="30" y="129" width="6" height="1"/>
<rect x="140" y="129" width="3" height="1"/>
<rect x="30" y="130" width="1" height="1"/>
<rect x="33" y="130" width="5" height="1"/>
<rect x="140" y="130" width="3" height="1"/>
<rect x="30" y="131" width="1" height="1"/>
<rect x="32" y="131" width="8" height="1"/>
<rect x="140" y="131" width="3" height="1"/>
<rect x="29" y="132" width="5" height="1"/>
<rect x="38" y="132" width="3" height="1"/>
<rect x="140" y="132" width="3" height="1"/>
<rect x="26" y="133" width="6" height="1"/>
<rect x="39" y="133" width="3" height="1"/>
<rect x="140" y="133" width="3" height="1"/>
<rect x="24" y="134" width="5" height="1"/>
<rect x="30" y="134" width="1" height="1"/>
<rect x="40" y="134" width="2" height="1"/>
<rect x="140" y="134" width="3" height="1"/>
<rect x="23" y="135" width="4" height="1"/>
<rect x="30" y="135" width="1" height="1"/>
<rect x="40" y="135" width="2" height="1"/>
<rect x="140" y="135" width="3" height="1"/>
<rect x="23" y="136" width="1" height="1"/>
<rect x="30" y="136" width="1" height="1"/>
<rect x="40" y="136" width="2" height="1"/>
<rect x="30" y="137" width="1" height="1"/>
<rect x="30" y="138" width="1" height="1"/>
<rect x="24" y="139" width="5" height="1"/>
<rect x="30" y="139" width="1" height="1"/>
<rect x="33" y="139" width="1" height="1"/>
<rect x="23" y="140" width="6" height="1"/>
<rect x="30" y="140" width="1" height="1"/>
<rect x="33" y="140" width="2" height="1"/>
<rect x="22" y="141" width="3" height="1"/>
<rect x="27" y="141" width="2" height="1"/>
<rect x="30" y="141" width="1" height="1"/>
<rect x="33" y="141" width="2" height="1"/>
<rect x="22" y="142" width="2" height="1"/>
<rect x="27" y="142" width="2" height="1"/>
<rect x="30" y="142" width="1" height="1"/>
<rect x="33" y="142" width="2" height="1"/>
<rect x="22" y="143" width="2" height="1"/>
<rect x="27" y="143" width="2" height="1"/>
<rect x="30" y="143" width="1" height="1"/>
<rect x="33" y="143" width="2" height="1"/>
<rect x="22" y="144" width="2" height="1"/>
<rect x="27" y="144" width="2" height="1"/>
<rect x="30" y="144" width="1" height="1"/>
<rect x="33" y="144" width="2" height="1"/>
<rect x="22" y="145" width="2" height="1"/>
<rect x="27" y="145" width="2" height="1"/>
<rect x="30" y="145" width="1" height="1"/>
<rect x="33" y="145" width="2" height="1"/>
<rect x="22" y="146" width="3" height="1"/>
<rect x="27" y="146" width="2" height="1"/>
<rect x="30" y="146" width="1" height="1"/>
<rect x="32" y="146" width="3" height="1"/>
<rect x="23" y="147" width="11" height="1"/>
<rect x="24" y="148" width="9" height="1"/>
<rect x="27" y="149" width="4" height="1"/>
<rect x="30" y="150" width="1" height="1"/>
<rect x="30" y="151" width="1" height="1"/>
<rect x="34" y="151" width="1" height="1"/>
<rect x="22" y="152" width="1" height="1"/>
<rect x="30" y="152" width="1" height="1"/>
<rect x="34" y="152" width="1" height="1"/>
<rect x="22" y="153" width="2" height="1"/>
<rect x="30" y="153" width="1" height="1"/>
<rect x="32" y="153" width="3" height="1"/>
<rect x="22" y="154" width="3" height="1"/>
<rect x="30" y="154" width="4" height="1"/>
<rect x="23" y="155" width="3" height="1"/>
<rect x="30" y="155" width="3" height="1"/>
<rect x="25" y="156" width="2" height="1"/>
<rect x="28" y="156" width="4" height="1"/>
<rect x="26" y="157" width="5" height="1"/>
<rect x="27" y="158" width="2" height="1"/>
<rect x="30" y="158" width="1" height="1"/>
<rect x="28" y="159" width="3" height="1"/>
<rect x="17" y="160" width="18" height="1"/>
<rect x="17" y="161" width="18" height="1"/>
<rect x="30" y="162" width="1" height="1"/>
<rect x="30" y="163" width="1" height="1"/>
</g>
</svg>
