<svg xmlns="http://www.w3.org/2000/svg" viewBox="0 0 360 180" width="360" height="180" shape-rendering="crispEdges">
<rect width="100%" height="100%" fill="#fff"/>
<g fill="#111">
<rect x="17" y="16" width="1" height="1"/>
<rect x="52" y="16" width="1" height="1"/>
<rect x="60" y="16" width="1" height="1"/>
<rect x="17" y="17" width="1" height="1"/>
<rect x="40" y="17" width="5" height="1"/>
<rect x="60" y="17" width="1" height="1"/>
<rect x="17" y="18" width="1" height="1"/>
<rect x="39" y="18" width="1" height="1"/>
<rect x="60" y="18" width="1" height="1"/>
<rect x="17" y="19" width="1" height="1"/>
<rect x="21" y="19" width="2" height="1"/>
<rect x="25" y="19" width="3" height="1"/>
<rect x="30" y="19" width="1" height="1"/>
<rect x="35" y="19" width="2" height="1"/>
<rect x="38" y="19" width="1" height="1"/>
<rect x="47" y="19" width="1" height="1"/>
<rect x="49" y="19" width="2" height="1"/>
<rect x="52" y="19" width="1" height="1"/>
<rect x="56" y="19" width="3" height="1"/>
<rect x="60" y="19" width="1" height="1"/>
<rect x="17" y="20" width="1" height="1"/>
<rect x="20" y="20" width="1" height="1"/>
<rect x="24" y="20" width="1" height="1"/>
<rect x="28" y="20" width="1" height="1"/>
<rect x="31" y="20" width="1" height="1"/>
<rect x="35" y="20" width="1" height="1"/>
<rect x="38" y="20" width="1" height="1"/>
<rect x="47" y="20" width="2" height="1"/>
<rect x="52" y="20" width="1" height="1"/>
<rect x="55" y="20" width="1" height="1"/>
<rect x="59" y="20" width="2" height="1"/>
<rect x="17" y="21" width="1" height="1"/>
<rect x="19" y="21" width="1" height="1"/>
<rect x="24" y="21" width="1" height="1"/>
<rect x="28" y="21" width="2" height="1"/>
<rect x="31" y="21" width="1" height="1"/>
<rect x="34" y="21" width="2" height="1"/>
<rect x="38" y="21" width="1" height="1"/>
<rect x="42" y="21" width="4" height="1"/>
<rect x="47" y="21" width="1" height="1"/>
<rect x="52" y="21" width="1" height="1"/>
<rect x="55" y="21" width="1" height="1"/>
<rect x="60" y="21" width="1" height="1"/>
<rect x="17" y="22" width="3" height="1"/>
<rect x="24" y="22" width="6" height="1"/>
<rect x="31" y="22" width="2" height="1"/>
<rect x="34" y="22" width="1" height="1"/>
<rect x="38" y="22" width="1" height="1"/>
<rect x="44" y="22" width="2" height="1"/>
<rect x="47" y="22" width="1" height="1"/>
<rect x="52" y="22" width="1" height="1"/>
<rect x="55" y="22" width="1" height="1"/>
<rect x="60" y="22" width="1" height="1"/>
<rect x="17" y="23" width="1" height="1"/>
<rect x="20" y="23" width="1" height="1"/>
<rect x="24" y="23" width="1" height="1"/>
<rect x="32" y="23" width="1" height="1"/>
<rect x="34" y="23" width="1" height="1"/>
<rect x="38" y="23" width="1" height="1"/>
<rect x="44" y="23" width="2" height="1"/>
<rect x="47" y="23" width="1" height="1"/>
<rect x="52" y="23" width="1" height="1"/>
<rect x="55" y="23" width="1" height="1"/>
<rect x="60" y="23" width="1" height="1"/>
<rect x="17" y="24" width="1" height="1"/>
<rect x="20" y="24" width="2" height="1"/>
<rect x="24" y="24" width="1" height="1"/>
<rect x="32" y="24" width="3" height="1"/>
<rect x="39" y="24" width="1" height="1"/>
<rect x="44" y="24" width="2" height="1"/>
<rect x="47" y="24" width="1" height="1"/>
<rect x="52" y="24" width="1" height="1"/>
<rect x="55" y="24" width="1" height="1"/>
<rect x="59" y="24" width="2" height="1"/>
<rect x="17" y="25" width="1" height="1"/>
<rect x="21" y="25" width="2" height="1"/>
<rect x="25" y="25" width="4" height="1"/>
<rect x="33" y="25" width="1" height="1"/>
<rect x="40" y="25" width="6" height="1"/>
<rect x="47" y="25" width="1" height="1"/>
<rect x="52" y="25" width="1" height="1"/>
<rect x="56" y="25" width="3" height="1"/>
<rect x="60" y="25" width="1" height="1"/>
<rect x="33" y="26" width="1" height="1"/>
<rect x="32" y="27" width="1" height="1"/>
<rect x="30" y="28" width="3" height="1"/>
<rect x="16" y="30" width="328" height="1"/>
<rect x="74" y="60" width="4" height="1"/>
<rect x="174" y="60" width="2" height="1"/>
<rect x="179" y="60" width="2" height="1"/>
<rect x="185" y="60" width="1" height="1"/>
<rect x="281" y="60" width="5" height="1"/>
<rect x="73" y="61" width="1" height="1"/>
<rect x="78" y="61" width="2" height="1"/>
<rect x="175" y="61" width="1" height="1"/>
<rect x="179" y="61" width="2" height="1"/>
<rect x="184" y="61" width="2" height="1"/>
<rect x="281" y="61" width="1" height="1"/>
<rect x="72" y="62" width="1" height="1"/>
<rect x="79" y="62" width="1" height="1"/>
<rect x="175" y="62" width="1" height="1"/>
<rect x="179" y="62" width="2" height="1"/>
<rect x="184" y="62" width="1" height="1"/>
<rect x="281" y="62" width="1" height="1"/>
<rect x="72" y="63" width="1" height="1"/>
<rect x="79" y="63" width="1" height="1"/>
<rect x="175" y="63" width="1" height="1"/>
<rect x="178" y="63" width="1" height="1"/>
<rect x="181" y="63" width="1" height="1"/>
<rect x="184" y="63" width="1" height="1"/>
<rect x="281" y="63" width="1" height="1"/>
<rect x="72" y="64" width="1" height="1"/>
<rect x="79" y="64" width="1" height="1"/>
<rect x="175" y="64" width="2" height="1"/>
<rect x="178" y="64" width="1" height="1"/>
<rect x="181" y="64" width="1" height="1"/>
<rect x="184" y="64" width="1" height="1"/>
<rect x="281" y="64" width="5" height="1"/>
<rect x="72" y="65" width="1" height="1"/>
<rect x="79" y="65" width="1" height="1"/>
<rect x="176" y="65" width="1" height="1"/>
<rect x="178" y="65" width="1" height="1"/>
<rect x="181" y="65" width="1" height="1"/>
<rect x="183" y="65" width="1" height="1"/>
<rect x="281" y="65" width="1" height="1"/>
<rect x="72" y="66" width="1" height="1"/>
<rect x="79" y="66" width="1" height="1"/>
<rect x="176" y="66" width="3" height="1"/>
<rect x="181" y="66" width="3" height="1"/>
<rect x="281" y="66" width="1" height="1"/>
<rect x="73" y="67" width="1" height="1"/>
<rect x="78" y="67" width="2" height="1"/>
<rect x="176" y="67" width="2" height="1"/>
<rect x="182" y="67" width="2" height="1"/>
<rect x="281" y="67" width="1" height="1"/>
<rect x="74" y="68" width="4" height="1"/>
<rect x="176" y="68" width="2" height="1"/>
<rect x="182" y="68" width="2" height="1"/>
<rect x="281" y="68" width="5" height="1"/>
<rect x="77" y="69" width="1" height="1"/>
<rect x="78" y="70" width="2" height="1"/>
<rect x="128" y="83" width="104" height="1"/>
<rect x="128" y="84" width="104" height="1"/>
<rect x="128" y="85" width="104" height="1"/>
<rect x="128" y="86" width="104" height="1"/>
<rect x="128" y="87" width="104" height="1"/>
<rect x="128" y="88" width="104" height="1"/>
<rect x="128" y="89" width="104" height="1"/>
<rect x="128" y="90" width="104" height="1"/>
<rect x="128" y="91" width="104" height="1"/>
<rect x="128" y="92" width="104" height="1"/>
<rect x="128" y="93" width="104" height="1"/>
<rect x="128" y="94" width="104" height="1"/>
<rect x="128" y="95" width="104" height="1"/>
<rect x="128" y="96" width="104" height="1"/>
<rect x="75" y="97" width="2" height="1"/>
<rect x="128" y="97" width="50" height="1"/>
<rect x="182" y="97" width="50" height="1"/>
<rect x="280" y="97" width="6" height="1"/>
<rect x="75" y="98" width="2" height="1"/>
<rect x="128" y="98" width="49" height="1"/>
<rect x="178" y="98" width="54" height="1"/>
<rect x="280" y="98" width="1" height="1"/>
<rect x="285" y="98" width="2" height="1"/>
<rect x="75" y="99" width="1" height="1"/>
<rect x="77" y="99" width="1" height="1"/>
<rect x="128" y="99" width="49" height="1"/>
<rect x="178" y="99" width="54" height="1"/>
<rect x="280" y="99" width="1" height="1"/>
<rect x="286" y="99" width="1" height="1"/>
<rect x="74" y="100" width="1" height="1"/>
<rect x="77" y="100" width="1" height="1"/>
<rect x="128" y="100" width="49" height="1"/>
<rect x="179" y="100" width="53" height="1"/>
<rect x="280" y="100" width="1" height="1"/>
<rect x="286" y="100" width="2" height="1"/>
<rect x="74" y="101" width="1" height="1"/>
<rect x="77" y="101" width="1" height="1"/>
<rect x="128" y="101" width="50" height="1"/>
<rect x="181" y="101" width="51" height="1"/>
<rect x="280" y="101" width="1" height="1"/>
<rect x="286" y="101" width="2" height="1"/>
<rect x="73" y="102" width="6" height="1"/>
<rect x="128" y="102" width="53" height="1"/>
<rect x="182" y="102" width="50" height="1"/>
<rect x="280" y="102" width="1" height="1"/>
<rect x="286" y="102" width="2" height="1"/>
<rect x="73" y="103" width="1" height="1"/>
<rect x="78" y="103" width="1" height="1"/>
<rect x="128" y="103" width="53" height="1"/>
<rect x="183" y="103" width="49" height="1"/>
<rect x="280" y="103" width="1" height="1"/>
<rect x="286" y="103" width="1" height="1"/>
<rect x="73" y="104" width="1" height="1"/>
<rect x="79" y="104" width="1" height="1"/>
<rect x="128" y="104" width="53" height="1"/>
<rect x="182" y="104" width="50" height="1"/>
<rect x="280" y="104" width="1" height="1"/>
<rect x="285" y="104" width="2" height="1"/>
<rect x="72" y="105" width="1" height="1"/>
<rect x="79" y="105" width="1" height="1"/>
<rect x="128" y="105" width="49" height="1"/>
<rect x="181" y="105" width="51" height="1"/>
<rect x="280" y="105" width="5" height="1"/>
<rect x="128" y="106" width="104" height="1"/>
<rect x="128" y="107" width="104" height="1"/>
<rect x="128" y="108" width="104" height="1"/>
<rect x="128" y="109" width="104" height="1"/>
<rect x="128" y="110" width="104" height="1"/>
<rect x="128" y="111" width="104" height="1"/>
<rect x="128" y="112" width="104" height="1"/>
<rect x="128" y="113" width="104" height="1"/>
<rect x="128" y="114" width="104" height="1"/>
<rect x="128" y="115" width="104" height="1"/>
<rect x="128" y="116" width="104" height="1"/>
<rect x="128" y="117" width="104" height="1"/>
<rect x="128" y="118" width="104" height="1"/>
<rect x="128" y="119" width="104" height="1"/>
<rect x="177" y="133" width="10" height="1"/>
<rect x="176" y="134" width="2" height="1"/>
<rect x="186" y="134" width="1" height="1"/>
<rect x="278" y="134" width="4" height="1"/>
<rect x="286" y="134" width="1" height="1"/>
<rect x="291" y="134" width="2" height="1"/>
<rect x="175" y="135" width="2" height="1"/>
<rect x="186" y="135" width="1" height="1"/>
<rect x="277" y="135" width="1" height="1"/>
<rect x="282" y="135" width="2" height="1"/>
<rect x="286" y="135" width="1" height="1"/>
<rect x="290" y="135" width="2" height="1"/>
<rect x="174" y="136" width="2" height="1"/>
<rect x="180" y="136" width="1" height="1"/>
<rect x="183" y="136" width="1" height="1"/>
<rect x="186" y="136" width="1" height="1"/>
<rect x="276" y="136" width="1" height="1"/>
<rect x="283" y="136" width="1" height="1"/>
<rect x="286" y="136" width="1" height="1"/>
<rect x="289" y="136" width="2" height="1"/>
<rect x="173" y="137" width="1" height="1"/>
<rect x="181" y="137" width="2" height="1"/>
<rect x="186" y="137" width="1" height="1"/>
<rect x="276" y="137" width="1" height="1"/>
<rect x="283" y="137" width="1" height="1"/>
<rect x="286" y="137" width="1" height="1"/>
<rect x="288" y="137" width="2" height="1"/>
<rect x="173" y="138" width="1" height="1"/>
<rect x="181" y="138" width="2" height="1"/>
<rect x="186" y="138" width="1" height="1"/>
<rect x="276" y="138" width="1" height="1"/>
<rect x="283" y="138" width="1" height="1"/>
<rect x="286" y="138" width="4" height="1"/>
<rect x="174" y="139" width="2" height="1"/>
<rect x="180" y="139" width="1" height="1"/>
<rect x="183" y="139" width="1" height="1"/>
<rect x="186" y="139" width="1" height="1"/>
<rect x="276" y="139" width="1" height="1"/>
<rect x="283" y="139" width="1" height="1"/>
<rect x="286" y="139" width="2" height="1"/>
<rect x="289" y="139" width="1" height="1"/>
<rect x="44" y="140" width="65" height="1"/>
<rect x="175" y="140" width="2" height="1"/>
<rect x="186" y="140" width="1" height="1"/>
<rect x="276" y="140" width="1" height="1"/>
<rect x="283" y="140" width="1" height="1"/>
<rect x="286" y="140" width="1" height="1"/>
<rect x="290" y="140" width="1" height="1"/>
<rect x="44" y="141" width="65" height="1"/>
<rect x="176" y="141" width="2" height="1"/>
<rect x="186" y="141" width="1" height="1"/>
<rect x="277" y="141" width="1" height="1"/>
<rect x="282" y="141" width="1" height="1"/>
<rect x="286" y="141" width="1" height="1"/>
<rect x="291" y="141" width="1" height="1"/>
<rect x="44" y="142" width="65" height="1"/>
<rect x="177" y="142" width="10" height="1"/>
<rect x="278" y="142" width="4" height="1"/>
<rect x="286" y="142" width="1" height="1"/>
<rect x="291" y="142" width="2" height="1"/>
</g>
</svg>
