<svg xmlns="http://www.w3.org/2000/svg" viewBox="0 0 360 180" width="360" height="180" shape-rendering="crispEdges">
<rect width="100%" height="100%" fill="#fff"/>
<g fill="#111">
<rect x="30" y="0" width="1" height="1"/>
<rect x="80" y="0" width="34" height="1"/>
<rect x="30" y="1" width="1" height="1"/>
<rect x="80" y="1" width="34" height="1"/>
<rect x="30" y="2" width="1" height="1"/>
<rect x="80" y="2" width="34" height="1"/>
<rect x="30" y="3" width="1" height="1"/>
<rect x="80" y="3" width="34" height="1"/>
<rect x="30" y="4" width="1" height="1"/>
<rect x="80" y="4" width="34" height="1"/>
<rect x="30" y="5" width="1" height="1"/>
<rect x="80" y="5" width="34" height="1"/>
<rect x="30" y="6" width="1" height="1"/>
<rect x="80" y="6" width="34" height="1"/>
<rect x="30" y="7" width="1" height="1"/>
<rect x="80" y="7" width="34" height="1"/>
<rect x="30" y="8" width="1" height="1"/>
<rect x="80" y="8" width="34" height="1"/>
<rect x="30" y="9" width="1" height="1"/>
<rect x="80" y="9" width="34" height="1"/>
<rect x="30" y="10" width="1" height="1"/>
<rect x="80" y="10" width="34" height="1"/>
<rect x="30" y="11" width="1" height="1"/>
<rect x="80" y="11" width="34" height="1"/>
<rect x="30" y="12" width="1" height="1"/>
<rect x="80" y="12" width="34" height="1"/>
<rect x="30" y="13" width="1" height="1"/>
<rect x="80" y="13" width="34" height="1"/>
<rect x="30" y="14" width="1" height="1"/>
<rect x="80" y="14" width="34" height="1"/>
<rect x="30" y="15" width="1" height="1"/>
<rect x="80" y="15" width="34" height="1"/>
<rect x="30" y="16" width="1" height="1"/>
<rect x="80" y="16" width="34" height="1"/>
<rect x="30" y="17" width="1" height="1"/>
<rect x="80" y="17" width="34" height="1"/>
<rect x="30" y="18" width="1" height="1"/>
<rect x="80" y="18" width="34" height="1"/>
<rect x="30" y="19" width="1" height="1"/>
<rect x="80" y="19" width="34" height="1"/>
<rect x="30" y="20" width="1" height="1"/>
<rect x="80" y="20" width="34" height="1"/>
<rect x="30" y="21" width="1" height="1"/>
<rect x="80" y="21" width="34" height="1"/>
<rect x="30" y="22" width="1" height="1"/>
<rect x="80" y="22" width="34" height="1"/>
<rect x="30" y="23" width="1" height="1"/>
<rect x="80" y="23" width="34" height="1"/>
<rect x="30" y="24" width="1" height="1"/>
<rect x="80" y="24" width="34" height="1"/>
<rect x="30" y="25" width="1" height="1"/>
<rect x="80" y="25" width="34" height="1"/>
<rect x="30" y="26" width="1" height="1"/>
<rect x="80" y="26" width="34" height="1"/>
<rect x="30" y="27" width="1" height="1"/>
<rect x="80" y="27" width="34" height="1"/>
<rect x="30" y="28" width="1" height="1"/>
<rect x="80" y="28" width="34" height="1"/>
<rect x="30" y="29" width="1" height="1"/>
<rect x="80" y="29" width="34" height="1"/>
<rect x="30" y="30" width="1" height="1"/>
<rect x="80" y="30" width="34" height="1"/>
<rect x="30" y="31" width="1" height="1"/>
<rect x="80" y="31" width="34" height="1"/>
<rect x="30" y="32" width="1" height="1"/>
<rect x="80" y="32" width="34" height="1"/>
<rect x="30" y="33" width="1" height="1"/>
<rect x="80" y="33" width="34" height="1"/>
<rect x="30" y="34" width="1" height="1"/>
<rect x="80" y="34" width="34" height="1"/>
<rect x="30" y="35" width="1" height="1"/>
<rect x="80" y="35" width="34" height="1"/>
<rect x="30" y="36" width="1" height="1"/>
<rect x="80" y="36" width="34" height="1"/>
<rect x="30" y="37" width="1" height="1"/>
<rect x="80" y="37" width="34" height="1"/>
<rect x="30" y="38" width="1" height="1"/>
<rect x="80" y="38" width="34" height="1"/>
<rect x="30" y="39" width="1" height="1"/>
<rect x="80" y="39" width="34" height="1"/>
<rect x="30" y="40" width="1" height="1"/>
<rect x="80" y="40" width="34" height="1"/>
<rect x="30" y="41" width="1" height="1"/>
<rect x="80" y="41" width="34" height="1"/>
<rect x="30" y="42" width="1" height="1"/>
<rect x="80" y="42" width="34" height="1"/>
<rect x="30" y="43" width="1" height="1"/>
<rect x="80" y="43" width="34" height="1"/>
<rect x="30" y="44" width="1" height="1"/>
<rect x="80" y="44" width="34" height="1"/>
<rect x="30" y="45" width="1" height="1"/>
<rect x="80" y="45" width="34" height="1"/>
<rect x="30" y="46" width="1" height="1"/>
<rect x="80" y="46" width="34" height="1"/>
<rect x="30" y="47" width="1" height="1"/>
<rect x="80" y="47" width="34" height="1"/>
<rect x="30" y="48" width="1" height="1"/>
<rect x="80" y="48" width="34" height="1"/>
<rect x="30" y="49" width="1" height="1"/>
<rect x="80" y="49" width="34" height="1"/>
<rect x="30" y="50" width="1" height="1"/>
<rect x="80" y="50" width="34" height="1"/>
<rect x="30" y="51" width="1" height="1"/>
<rect x="80" y="51" width="34" height="1"/>
<rect x="30" y="52" width="1" height="1"/>
<rect x="80" y="52" width="34" height="1"/>
<rect x="30" y="53" width="1" height="1"/>
<rect x="80" y="53" width="34" height="1"/>
<rect x="30" y="54" width="1" height="1"/>
<rect x="80" y="54" width="34" height="1"/>
<rect x="30" y="55" width="1" height="1"/>
<rect x="80" y="55" width="34" height="1"/>
<rect x="30" y="56" width="1" height="1"/>
<rect x="80" y="56" width="34" height="1"/>
<rect x="30" y="57" width="1" height="1"/>
<rect x="80" y="57" width="12" height="1"/>
<rect x="107" y="57" width="7" height="1"/>
<rect x="30" y="58" width="1" height="1"/>
<rect x="80" y="58" width="12" height="1"/>
<rect x="109" y="58" width="5" height="1"/>
<rect x="30" y="59" width="1" height="1"/>
<rect x="80" y="59" width="14" height="1"/>
<rect x="97" y="59" width="4" height="1"/>
<rect x="103" y="59" width="3" height="1"/>
<rect x="110" y="59" width="4" height="1"/>
<rect x="30" y="60" width="1" height="1"/>
<rect x="80" y="60" width="13" height="1"/>
<rect x="95" y="60" width="8" height="1"/>
<rect x="104" y="60" width="4" height="1"/>
<rect x="110" y="60" width="4" height="1"/>
<rect x="30" y="61" width="1" height="1"/>
<rect x="80" y="61" width="12" height="1"/>
<rect x="94" y="61" width="9" height="1"/>
<rect x="105" y="61" width="4" height="1"/>
<rect x="111" y="61" width="3" height="1"/>
<rect x="128" y="61" width="5" height="1"/>
<rect x="137" y="61" width="1" height="1"/>
<rect x="30" y="62" width="1" height="1"/>
<rect x="80" y="62" width="12" height="1"/>
<rect x="94" y="62" width="9" height="1"/>
<rect x="105" y="62" width="4" height="1"/>
<rect x="111" y="62" width="3" height="1"/>
<rect x="127" y="62" width="6" height="1"/>
<rect x="137" y="62" width="2" height="1"/>
<rect x="30" y="63" width="1" height="1"/>
<rect x="80" y="63" width="12" height="1"/>
<rect x="94" y="63" width="9" height="1"/>
<rect x="105" y="63" width="4" height="1"/>
<rect x="111" y="63" width="3" height="1"/>
<rect x="126" y="63" width="3" height="1"/>
<rect x="131" y="63" width="2" height="1"/>
<rect x="137" y="63" width="2" height="1"/>
<rect x="30" y="64" width="1" height="1"/>
<rect x="80" y="64" width="12" height="1"/>
<rect x="94" y="64" width="9" height="1"/>
<rect x="105" y="64" width="4" height="1"/>
<rect x="111" y="64" width="3" height="1"/>
<rect x="126" y="64" width="2" height="1"/>
<rect x="131" y="64" width="2" height="1"/>
<rect x="137" y="64" width="2" height="1"/>
<rect x="30" y="65" width="1" height="1"/>
<rect x="80" y="65" width="12" height="1"/>
<rect x="95" y="65" width="7" height="1"/>
<rect x="105" y="65" width="4" height="1"/>
<rect x="111" y="65" width="3" height="1"/>
<rect x="126" y="65" width="2" height="1"/>
<rect x="131" y="65" width="2" height="1"/>
<rect x="137" y="65" width="2" height="1"/>
<rect x="30" y="66" width="1" height="1"/>
<rect x="59" y="66" width="2" height="1"/>
<rect x="80" y="66" width="13" height="1"/>
<rect x="104" y="66" width="4" height="1"/>
<rect x="110" y="66" width="4" height="1"/>
<rect x="126" y="66" width="2" height="1"/>
<rect x="131" y="66" width="2" height="1"/>
<rect x="137" y="66" width="2" height="1"/>
<rect x="30" y="67" width="1" height="1"/>
<rect x="59" y="67" width="5" height="1"/>
<rect x="80" y="67" width="14" height="1"/>
<rect x="103" y="67" width="5" height="1"/>
<rect x="110" y="67" width="4" height="1"/>
<rect x="126" y="67" width="2" height="1"/>
<rect x="131" y="67" width="2" height="1"/>
<rect x="137" y="67" width="2" height="1"/>
<rect x="30" y="68" width="1" height="1"/>
<rect x="60" y="68" width="6" height="1"/>
<rect x="80" y="68" width="16" height="1"/>
<rect x="101" y="68" width="13" height="1"/>
<rect x="126" y="68" width="3" height="1"/>
<rect x="131" y="68" width="2" height="1"/>
<rect x="136" y="68" width="3" height="1"/>
<rect x="30" y="69" width="1" height="1"/>
<rect x="63" y="69" width="6" height="1"/>
<rect x="80" y="69" width="34" height="1"/>
<rect x="127" y="69" width="11" height="1"/>
<rect x="30" y="70" width="1" height="1"/>
<rect x="66" y="70" width="6" height="1"/>
<rect x="80" y="70" width="34" height="1"/>
<rect x="128" y="70" width="9" height="1"/>
<rect x="30" y="71" width="1" height="1"/>
<rect x="69" y="71" width="5" height="1"/>
<rect x="80" y="71" width="34" height="1"/>
<rect x="131" y="71" width="4" height="1"/>
<rect x="30" y="72" width="1" height="1"/>
<rect x="68" y="72" width="8" height="1"/>
<rect x="80" y="72" width="14" height="1"/>
<rect x="105" y="72" width="9" height="1"/>
<rect x="30" y="73" width="1" height="1"/>
<rect x="65" y="73" width="5" height="1"/>
<rect x="74" y="73" width="3" height="1"/>
<rect x="80" y="73" width="13" height="1"/>
<rect x="105" y="73" width="9" height="1"/>
<rect x="30" y="74" width="1" height="1"/>
<rect x="62" y="74" width="6" height="1"/>
<rect x="75" y="74" width="3" height="1"/>
<rect x="80" y="74" width="12" height="1"/>
<rect x="95" y="74" width="19" height="1"/>
<rect x="30" y="75" width="1" height="1"/>
<rect x="60" y="75" width="5" height="1"/>
<rect x="76" y="75" width="2" height="1"/>
<rect x="80" y="75" width="12" height="1"/>
<rect x="94" y="75" width="20" height="1"/>
<rect x="126" y="75" width="15" height="1"/>
<rect x="30" y="76" width="1" height="1"/>
<rect x="59" y="76" width="4" height="1"/>
<rect x="76" y="76" width="2" height="1"/>
<rect x="80" y="76" width="12" height="1"/>
<rect x="94" y="76" width="20" height="1"/>
<rect x="126" y="76" width="17" height="1"/>
<rect x="30" y="77" width="1" height="1"/>
<rect x="59" y="77" width="1" height="1"/>
<rect x="76" y="77" width="2" height="1"/>
<rect x="80" y="77" width="12" height="1"/>
<rect x="94" y="77" width="20" height="1"/>
<rect x="128" y="77" width="3" height="1"/>
<rect x="135" y="77" width="2" height="1"/>
<rect x="140" y="77" width="4" height="1"/>
<rect x="30" y="78" width="1" height="1"/>
<rect x="80" y="78" width="12" height="1"/>
<rect x="94" y="78" width="20" height="1"/>
<rect x="127" y="78" width="2" height="1"/>
<rect x="137" y="78" width="1" height="1"/>
<rect x="142" y="78" width="2" height="1"/>
<rect x="30" y="79" width="1" height="1"/>
<rect x="62" y="79" width="9" height="1"/>
<rect x="80" y="79" width="13" height="1"/>
<rect x="94" y="79" width="20" height="1"/>
<rect x="126" y="79" width="2" height="1"/>
<rect x="137" y="79" width="2" height="1"/>
<rect x="143" y="79" width="2" height="1"/>
<rect x="30" y="80" width="1" height="1"/>
<rect x="59" y="80" width="12" height="1"/>
<rect x="80" y="80" width="13" height="1"/>
<rect x="96" y="80" width="18" height="1"/>
<rect x="126" y="80" width="2" height="1"/>
<rect x="137" y="80" width="2" height="1"/>
<rect x="143" y="80" width="2" height="1"/>
<rect x="30" y="81" width="1" height="1"/>
<rect x="58" y="81" width="11" height="1"/>
<rect x="80" y="81" width="12" height="1"/>
<rect x="105" y="81" width="9" height="1"/>
<rect x="126" y="81" width="2" height="1"/>
<rect x="137" y="81" width="2" height="1"/>
<rect x="143" y="81" width="2" height="1"/>
<rect x="30" y="82" width="1" height="1"/>
<rect x="58" y="82" width="2" height="1"/>
<rect x="63" y="82" width="2" height="1"/>
<rect x="68" y="82" width="2" height="1"/>
<rect x="80" y="82" width="12" height="1"/>
<rect x="105" y="82" width="9" height="1"/>
<rect x="126" y="82" width="2" height="1"/>
<rect x="137" y="82" width="2" height="1"/>
<rect x="143" y="82" width="2" height="1"/>
<rect x="30" y="83" width="1" height="1"/>
<rect x="58" y="83" width="2" height="1"/>
<rect x="63" y="83" width="2" height="1"/>
<rect x="69" y="83" width="2" height="1"/>
<rect x="80" y="83" width="34" height="1"/>
<rect x="126" y="83" width="3" height="1"/>
<rect x="136" y="83" width="3" height="1"/>
<rect x="143" y="83" width="2" height="1"/>
<rect x="30" y="84" width="1" height="1"/>
<rect x="58" y="84" width="2" height="1"/>
<rect x="63" y="84" width="2" height="1"/>
<rect x="69" y="84" width="2" height="1"/>
<rect x="80" y="84" width="34" height="1"/>
<rect x="127" y="84" width="11" height="1"/>
<rect x="142" y="84" width="2" height="1"/>
<rect x="30" y="85" width="1" height="1"/>
<rect x="58" y="85" width="2" height="1"/>
<rect x="63" y="85" width="2" height="1"/>
<rect x="70" y="85" width="1" height="1"/>
<rect x="80" y="85" width="34" height="1"/>
<rect x="128" y="85" width="9" height="1"/>
<rect x="142" y="85" width="2" height="1"/>
<rect x="30" y="86" width="1" height="1"/>
<rect x="58" y="86" width="2" height="1"/>
<rect x="64" y="86" width="1" height="1"/>
<rect x="69" y="86" width="2" height="1"/>
<rect x="80" y="86" width="34" height="1"/>
<rect x="130" y="86" width="5" height="1"/>
<rect x="30" y="87" width="1" height="1"/>
<rect x="59" y="87" width="2" height="1"/>
<rect x="64" y="87" width="2" height="1"/>
<rect x="68" y="87" width="3" height="1"/>
<rect x="80" y="87" width="8" height="1"/>
<rect x="91" y="87" width="2" height="1"/>
<rect x="106" y="87" width="8" height="1"/>
<rect x="30" y="88" width="1" height="1"/>
<rect x="65" y="88" width="6" height="1"/>
<rect x="80" y="88" width="8" height="1"/>
<rect x="91" y="88" width="2" height="1"/>
<rect x="106" y="88" width="8" height="1"/>
<rect x="30" y="89" width="1" height="1"/>
<rect x="66" y="89" width="3" height="1"/>
<rect x="80" y="89" width="34" height="1"/>
<rect x="130" y="89" width="9" height="1"/>
<rect x="30" y="90" width="1" height="1"/>
<rect x="80" y="90" width="34" height="1"/>
<rect x="127" y="90" width="12" height="1"/>
<rect x="30" y="91" width="1" height="1"/>
<rect x="80" y="91" width="34" height="1"/>
<rect x="126" y="91" width="11" height="1"/>
<rect x="30" y="92" width="1" height="1"/>
<rect x="80" y="92" width="34" height="1"/>
<rect x="126" y="92" width="2" height="1"/>
<rect x="131" y="92" width="2" height="1"/>
<rect x="136" y="92" width="2" height="1"/>
<rect x="30" y="93" width="1" height="1"/>
<rect x="53" y="93" width="18" height="1"/>
<rect x="80" y="93" width="7" height="1"/>
<rect x="105" y="93" width="9" height="1"/>
<rect x="126" y="93" width="2" height="1"/>
<rect x="131" y="93" width="2" height="1"/>
<rect x="137" y="93" width="2" height="1"/>
<rect x="30" y="94" width="1" height="1"/>
<rect x="53" y="94" width="18" height="1"/>
<rect x="80" y="94" width="7" height="1"/>
<rect x="105" y="94" width="9" height="1"/>
<rect x="126" y="94" width="2" height="1"/>
<rect x="131" y="94" width="2" height="1"/>
<rect x="137" y="94" width="2" height="1"/>
<rect x="30" y="95" width="1" height="1"/>
<rect x="80" y="95" width="14" height="1"/>
<rect x="97" y="95" width="4" height="1"/>
<rect x="103" y="95" width="11" height="1"/>
<rect x="126" y="95" width="2" height="1"/>
<rect x="131" y="95" width="2" height="1"/>
<rect x="138" y="95" width="1" height="1"/>
<rect x="30" y="96" width="1" height="1"/>
<rect x="80" y="96" width="13" height="1"/>
<rect x="95" y="96" width="8" height="1"/>
<rect x="104" y="96" width="10" height="1"/>
<rect x="126" y="96" width="2" height="1"/>
<rect x="132" y="96" width="1" height="1"/>
<rect x="137" y="96" width="2" height="1"/>
<rect x="30" y="97" width="1" height="1"/>
<rect x="80" y="97" width="12" height="1"/>
<rect x="94" y="97" width="9" height="1"/>
<rect x="105" y="97" width="9" height="1"/>
<rect x="127" y="97" width="2" height="1"/>
<rect x="132" y="97" width="2" height="1"/>
<rect x="136" y="97" width="3" height="1"/>
<rect x="30" y="98" width="1" height="1"/>
<rect x="80" y="98" width="12" height="1"/>
<rect x="94" y="98" width="9" height="1"/>
<rect x="105" y="98" width="9" height="1"/>
<rect x="133" y="98" width="6" height="1"/>
<rect x="30" y="99" width="1" height="1"/>
<rect x="60" y="99" width="9" height="1"/>
<rect x="80" y="99" width="12" height="1"/>
<rect x="94" y="99" width="9" height="1"/>
<rect x="105" y="99" width="9" height="1"/>
<rect x="134" y="99" width="3" height="1"/>
<rect x="30" y="100" width="1" height="1"/>
<rect x="59" y="100" width="11" height="1"/>
<rect x="80" y="100" width="12" height="1"/>
<rect x="94" y="100" width="9" height="1"/>
<rect x="105" y="100" width="9" height="1"/>
<rect x="30" y="101" width="1" height="1"/>
<rect x="58" y="101" width="3" height="1"/>
<rect x="68" y="101" width="3" height="1"/>
<rect x="80" y="101" width="12" height="1"/>
<rect x="95" y="101" width="7" height="1"/>
<rect x="105" y="101" width="9" height="1"/>
<rect x="126" y="101" width="1" height="1"/>
<rect x="30" y="102" width="1" height="1"/>
<rect x="58" y="102" width="2" height="1"/>
<rect x="69" y="102" width="2" height="1"/>
<rect x="80" y="102" width="13" height="1"/>
<rect x="104" y="102" width="10" height="1"/>
<rect x="126" y="102" width="2" height="1"/>
<rect x="30" y="103" width="1" height="1"/>
<rect x="58" y="103" width="2" height="1"/>
<rect x="69" y="103" width="2" height="1"/>
<rect x="80" y="103" width="14" height="1"/>
<rect x="103" y="103" width="11" height="1"/>
<rect x="126" y="103" width="2" height="1"/>
<rect x="30" y="104" width="1" height="1"/>
<rect x="58" y="104" width="2" height="1"/>
<rect x="69" y="104" width="2" height="1"/>
<rect x="80" y="104" width="16" height="1"/>
<rect x="101" y="104" width="13" height="1"/>
<rect x="126" y="104" width="2" height="1"/>
<rect x="30" y="105" width="1" height="1"/>
<rect x="58" y="105" width="2" height="1"/>
<rect x="69" y="105" width="2" height="1"/>
<rect x="80" y="105" width="34" height="1"/>
<rect x="127" y="105" width="2" height="1"/>
<rect x="30" y="106" width="1" height="1"/>
<rect x="59" y="106" width="1" height="1"/>
<rect x="69" y="106" width="2" height="1"/>
<rect x="80" y="106" width="34" height="1"/>
<rect x="128" y="106" width="2" height="1"/>
<rect x="30" y="107" width="1" height="1"/>
<rect x="59" y="107" width="3" height="1"/>
<rect x="67" y="107" width="3" height="1"/>
<rect x="80" y="107" width="16" height="1"/>
<rect x="105" y="107" width="9" height="1"/>
<rect x="126" y="107" width="13" height="1"/>
<rect x="30" y="108" width="1" height="1"/>
<rect x="58" y="108" width="19" height="1"/>
<rect x="80" y="108" width="13" height="1"/>
<rect x="105" y="108" width="9" height="1"/>
<rect x="126" y="108" width="13" height="1"/>
<rect x="30" y="109" width="1" height="1"/>
<rect x="58" y="109" width="19" height="1"/>
<rect x="80" y="109" width="12" height="1"/>
<rect x="103" y="109" width="11" height="1"/>
<rect x="30" y="110" width="1" height="1"/>
<rect x="80" y="110" width="12" height="1"/>
<rect x="94" y="110" width="3" height="1"/>
<rect x="99" y="110" width="3" height="1"/>
<rect x="104" y="110" width="10" height="1"/>
<rect x="30" y="111" width="1" height="1"/>
<rect x="80" y="111" width="12" height="1"/>
<rect x="94" y="111" width="3" height="1"/>
<rect x="99" y="111" width="4" height="1"/>
<rect x="105" y="111" width="9" height="1"/>
<rect x="30" y="112" width="1" height="1"/>
<rect x="80" y="112" width="12" height="1"/>
<rect x="94" y="112" width="3" height="1"/>
<rect x="99" y="112" width="4" height="1"/>
<rect x="105" y="112" width="9" height="1"/>
<rect x="30" y="113" width="1" height="1"/>
<rect x="80" y="113" width="12" height="1"/>
<rect x="94" y="113" width="3" height="1"/>
<rect x="99" y="113" width="5" height="1"/>
<rect x="105" y="113" width="9" height="1"/>
<rect x="129" y="113" width="7" height="1"/>
<rect x="30" y="114" width="1" height="1"/>
<rect x="58" y="114" width="2" height="1"/>
<rect x="65" y="114" width="5" height="1"/>
<rect x="80" y="114" width="12" height="1"/>
<rect x="94" y="114" width="4" height="1"/>
<rect x="99" y="114" width="4" height="1"/>
<rect x="105" y="114" width="9" height="1"/>
<rect x="128" y="114" width="10" height="1"/>
<rect x="30" y="115" width="1" height="1"/>
<rect x="58" y="115" width="2" height="1"/>
<rect x="64" y="115" width="7" height="1"/>
<rect x="80" y="115" width="13" height="1"/>
<rect x="95" y="115" width="3" height="1"/>
<rect x="100" y="115" width="2" height="1"/>
<rect x="105" y="115" width="9" height="1"/>
<rect x="127" y="115" width="3" height="1"/>
<rect x="135" y="115" width="3" height="1"/>
<rect x="30" y="116" width="1" height="1"/>
<rect x="58" y="116" width="2" height="1"/>
<rect x="64" y="116" width="2" height="1"/>
<rect x="69" y="116" width="2" height="1"/>
<rect x="80" y="116" width="19" height="1"/>
<rect x="105" y="116" width="9" height="1"/>
<rect x="126" y="116" width="2" height="1"/>
<rect x="137" y="116" width="2" height="1"/>
<rect x="30" y="117" width="1" height="1"/>
<rect x="58" y="117" width="2" height="1"/>
<rect x="64" y="117" width="2" height="1"/>
<rect x="69" y="117" width="2" height="1"/>
<rect x="80" y="117" width="20" height="1"/>
<rect x="103" y="117" width="11" height="1"/>
<rect x="126" y="117" width="2" height="1"/>
<rect x="137" y="117" width="2" height="1"/>
<rect x="30" y="118" width="1" height="1"/>
<rect x="58" y="118" width="2" height="1"/>
<rect x="63" y="118" width="2" height="1"/>
<rect x="70" y="118" width="1" height="1"/>
<rect x="80" y="118" width="34" height="1"/>
<rect x="126" y="118" width="2" height="1"/>
<rect x="137" y="118" width="2" height="1"/>
<rect x="30" y="119" width="1" height="1"/>
<rect x="58" y="119" width="2" height="1"/>
<rect x="63" y="119" width="2" height="1"/>
<rect x="69" y="119" width="2" height="1"/>
<rect x="80" y="119" width="34" height="1"/>
<rect x="126" y="119" width="2" height="1"/>
<rect x="137" y="119" width="2" height="1"/>
<rect x="30" y="120" width="1" height="1"/>
<rect x="58" y="120" width="2" height="1"/>
<rect x="62" y="120" width="2" height="1"/>
<rect x="69" y="120" width="2" height="1"/>
<rect x="80" y="120" width="34" height="1"/>
<rect x="126" y="120" width="2" height="1"/>
<rect x="137" y="120" width="2" height="1"/>
<rect x="30" y="121" width="1" height="1"/>
<rect x="59" y="121" width="5" height="1"/>
<rect x="69" y="121" width="2" height="1"/>
<rect x="80" y="121" width="14" height="1"/>
<rect x="99" y="121" width="4" height="1"/>
<rect x="104" y="121" width="10" height="1"/>
<rect x="126" y="121" width="3" height="1"/>
<rect x="136" y="121" width="3" height="1"/>
<rect x="30" y="122" width="1" height="1"/>
<rect x="60" y="122" width="3" height="1"/>
<rect x="68" y="122" width="3" height="1"/>
<rect x="80" y="122" width="13" height="1"/>
<rect x="99" y="122" width="4" height="1"/>
<rect x="105" y="122" width="9" height="1"/>
<rect x="127" y="122" width="11" height="1"/>
<rect x="30" y="123" width="1" height="1"/>
<rect x="80" y="123" width="12" height="1"/>
<rect x="95" y="123" width="2" height="1"/>
<rect x="99" y="123" width="4" height="1"/>
<rect x="105" y="123" width="9" height="1"/>
<rect x="128" y="123" width="9" height="1"/>
<rect x="30" y="124" width="1" height="1"/>
<rect x="80" y="124" width="12" height="1"/>
<rect x="94" y="124" width="3" height="1"/>
<rect x="99" y="124" width="4" height="1"/>
<rect x="105" y="124" width="9" height="1"/>
<rect x="130" y="124" width="5" height="1"/>
<rect x="30" y="125" width="1" height="1"/>
<rect x="80" y="125" width="12" height="1"/>
<rect x="94" y="125" width="3" height="1"/>
<rect x="99" y="125" width="4" height="1"/>
<rect x="105" y="125" width="9" height="1"/>
<rect x="30" y="126" width="1" height="1"/>
<rect x="54" y="126" width="3" height="1"/>
<rect x="59" y="126" width="13" height="1"/>
<rect x="80" y="126" width="12" height="1"/>
<rect x="94" y="126" width="3" height="1"/>
<rect x="99" y="126" width="4" height="1"/>
<rect x="105" y="126" width="9" height="1"/>
<rect x="30" y="127" width="1" height="1"/>
<rect x="54" y="127" width="3" height="1"/>
<rect x="59" y="127" width="13" height="1"/>
<rect x="80" y="127" width="12" height="1"/>
<rect x="94" y="127" width="3" height="1"/>
<rect x="99" y="127" width="4" height="1"/>
<rect x="105" y="127" width="9" height="1"/>
<rect x="127" y="127" width="2" height="1"/>
<rect x="138" y="127" width="2" height="1"/>
<rect x="30" y="128" width="1" height="1"/>
<rect x="80" y="128" width="12" height="1"/>
<rect x="95" y="128" width="2" height="1"/>
<rect x="99" y="128" width="3" height="1"/>
<rect x="105" y="128" width="9" height="1"/>
<rect x="127" y="128" width="2" height="1"/>
<rect x="138" y="128" width="2" height="1"/>
<rect x="30" y="129" width="1" height="1"/>
<rect x="80" y="129" width="13" height="1"/>
<rect x="104" y="129" width="10" height="1"/>
<rect x="127" y="129" width="2" height="1"/>
<rect x="138" y="129" width="2" height="1"/>
<rect x="30" y="130" width="1" height="1"/>
<rect x="80" y="130" width="14" height="1"/>
<rect x="103" y="130" width="11" height="1"/>
<rect x="127" y="130" width="2" height="1"/>
<rect x="137" y="130" width="3" height="1"/>
<rect x="30" y="131" width="1" height="1"/>
<rect x="80" y="131" width="17" height="1"/>
<rect x="101" y="131" width="13" height="1"/>
<rect x="124" y="131" width="16" height="1"/>
<rect x="23" y="132" width="2" height="1"/>
<rect x="30" y="132" width="1" height="1"/>
<rect x="34" y="132" width="2" height="1"/>
<rect x="59" y="132" width="7" height="1"/>
<rect x="80" y="132" width="34" height="1"/>
<rect x="126" y="132" width="12" height="1"/>
<rect x="23" y="133" width="2" height="1"/>
<rect x="30" y="133" width="1" height="1"/>
<rect x="34" y="133" width="2" height="1"/>
<rect x="57" y="133" width="11" height="1"/>
<rect x="80" y="133" width="24" height="1"/>
<rect x="105" y="133" width="9" height="1"/>
<rect x="127" y="133" width="2" height="1"/>
<rect x="23" y="134" width="2" height="1"/>
<rect x="30" y="134" width="1" height="1"/>
<rect x="34" y="134" width="2" height="1"/>
<rect x="56" y="134" width="4" height="1"/>
<rect x="65" y="134" width="4" height="1"/>
<rect x="80" y="134" width="23" height="1"/>
<rect x="105" y="134" width="9" height="1"/>
<rect x="128" y="134" width="1" height="1"/>
<rect x="23" y="135" width="2" height="1"/>
<rect x="30" y="135" width="1" height="1"/>
<rect x="33" y="135" width="3" height="1"/>
<rect x="55" y="135" width="3" height="1"/>
<rect x="67" y="135" width="3" height="1"/>
<rect x="80" y="135" width="10" height="1"/>
<rect x="95" y="135" width="7" height="1"/>
<rect x="105" y="135" width="9" height="1"/>
<rect x="20" y="136" width="16" height="1"/>
<rect x="55" y="136" width="2" height="1"/>
<rect x="68" y="136" width="2" height="1"/>
<rect x="80" y="136" width="9" height="1"/>
<rect x="96" y="136" width="4" height="1"/>
<rect x="104" y="136" width="10" height="1"/>
<rect x="122" y="136" width="1" height="1"/>
<rect x="132" y="136" width="5" height="1"/>
<rect x="22" y="137" width="12" height="1"/>
<rect x="54" y="137" width="2" height="1"/>
<rect x="68" y="137" width="3" height="1"/>
<rect x="80" y="137" width="8" height="1"/>
<rect x="91" y="137" width="4" height="1"/>
<rect x="97" y="137" width="1" height="1"/>
<rect x="102" y="137" width="12" height="1"/>
<rect x="122" y="137" width="2" height="1"/>
<rect x="131" y="137" width="7" height="1"/>
<rect x="23" y="138" width="2" height="1"/>
<rect x="30" y="138" width="1" height="1"/>
<rect x="54" y="138" width="2" height="1"/>
<rect x="69" y="138" width="2" height="1"/>
<rect x="80" y="138" width="8" height="1"/>
<rect x="90" y="138" width="6" height="1"/>
<rect x="101" y="138" width="13" height="1"/>
<rect x="122" y="138" width="2" height="1"/>
<rect x="130" y="138" width="3" height="1"/>
<rect x="136" y="138" width="3" height="1"/>
<rect x="24" y="139" width="1" height="1"/>
<rect x="30" y="139" width="1" height="1"/>
<rect x="54" y="139" width="2" height="1"/>
<rect x="69" y="139" width="2" height="1"/>
<rect x="80" y="139" width="8" height="1"/>
<rect x="90" y="139" width="6" height="1"/>
<rect x="99" y="139" width="15" height="1"/>
<rect x="122" y="139" width="2" height="1"/>
<rect x="130" y="139" width="2" height="1"/>
<rect x="137" y="139" width="2" height="1"/>
<rect x="30" y="140" width="1" height="1"/>
<rect x="54" y="140" width="2" height="1"/>
<rect x="69" y="140" width="2" height="1"/>
<rect x="80" y="140" width="8" height="1"/>
<rect x="90" y="140" width="6" height="1"/>
<rect x="98" y="140" width="16" height="1"/>
<rect x="122" y="140" width="2" height="1"/>
<rect x="130" y="140" width="2" height="1"/>
<rect x="137" y="140" width="2" height="1"/>
<rect x="30" y="141" width="1" height="1"/>
<rect x="54" y="141" width="2" height="1"/>
<rect x="69" y="141" width="2" height="1"/>
<rect x="80" y="141" width="8" height="1"/>
<rect x="90" y="141" width="6" height="1"/>
<rect x="98" y="141" width="16" height="1"/>
<rect x="122" y="141" width="2" height="1"/>
<rect x="129" y="141" width="2" height="1"/>
<rect x="137" y="141" width="2" height="1"/>
<rect x="22" y="142" width="2" height="1"/>
<rect x="29" y="142" width="5" height="1"/>
<rect x="54" y="142" width="2" height="1"/>
<rect x="69" y="142" width="2" height="1"/>
<rect x="80" y="142" width="8" height="1"/>
<rect x="90" y="142" width="6" height="1"/>
<rect x="98" y="142" width="16" height="1"/>
<rect x="122" y="142" width="2" height="1"/>
<rect x="129" y="142" width="2" height="1"/>
<rect x="137" y="142" width="2" height="1"/>
<rect x="22" y="143" width="2" height="1"/>
<rect x="28" y="143" width="7" height="1"/>
<rect x="54" y="143" width="2" height="1"/>
<rect x="69" y="143" width="2" height="1"/>
<rect x="80" y="143" width="8" height="1"/>
<rect x="90" y="143" width="6" height="1"/>
<rect x="98" y="143" width="16" height="1"/>
<rect x="122" y="143" width="2" height="1"/>
<rect x="128" y="143" width="3" height="1"/>
<rect x="137" y="143" width="2" height="1"/>
<rect x="22" y="144" width="2" height="1"/>
<rect x="28" y="144" width="3" height="1"/>
<rect x="33" y="144" width="2" height="1"/>
<rect x="54" y="144" width="17" height="1"/>
<rect x="80" y="144" width="8" height="1"/>
<rect x="105" y="144" width="9" height="1"/>
<rect x="122" y="144" width="8" height="1"/>
<rect x="137" y="144" width="2" height="1"/>
<rect x="22" y="145" width="2" height="1"/>
<rect x="28" y="145" width="3" height="1"/>
<rect x="33" y="145" width="2" height="1"/>
<rect x="54" y="145" width="17" height="1"/>
<rect x="80" y="145" width="8" height="1"/>
<rect x="105" y="145" width="9" height="1"/>
<rect x="123" y="145" width="6" height="1"/>
<rect x="137" y="145" width="2" height="1"/>
<rect x="22" y="146" width="2" height="1"/>
<rect x="27" y="146" width="2" height="1"/>
<rect x="30" y="146" width="1" height="1"/>
<rect x="34" y="146" width="1" height="1"/>
<rect x="80" y="146" width="34" height="1"/>
<rect x="125" y="146" width="2" height="1"/>
<rect x="136" y="146" width="3" height="1"/>
<rect x="22" y="147" width="2" height="1"/>
<rect x="27" y="147" width="2" height="1"/>
<rect x="30" y="147" width="1" height="1"/>
<rect x="33" y="147" width="2" height="1"/>
<rect x="80" y="147" width="34" height="1"/>
<rect x="22" y="148" width="2" height="1"/>
<rect x="26" y="148" width="2" height="1"/>
<rect x="30" y="148" width="1" height="1"/>
<rect x="33" y="148" width="2" height="1"/>
<rect x="80" y="148" width="34" height="1"/>
<rect x="23" y="149" width="5" height="1"/>
<rect x="30" y="149" width="1" height="1"/>
<rect x="33" y="149" width="2" height="1"/>
<rect x="80" y="149" width="34" height="1"/>
<rect x="24" y="150" width="3" height="1"/>
<rect x="30" y="150" width="1" height="1"/>
<rect x="32" y="150" width="3" height="1"/>
<rect x="80" y="150" width="34" height="1"/>
<rect x="30" y="151" width="1" height="1"/>
<rect x="80" y="151" width="34" height="1"/>
<rect x="30" y="152" width="1" height="1"/>
<rect x="80" y="152" width="34" height="1"/>
<rect x="30" y="153" width="1" height="1"/>
<rect x="80" y="153" width="34" height="1"/>
<rect x="18" y="154" width="3" height="1"/>
<rect x="23" y="154" width="13" height="1"/>
<rect x="80" y="154" width="34" height="1"/>
<rect x="18" y="155" width="3" height="1"/>
<rect x="23" y="155" width="13" height="1"/>
<rect x="80" y="155" width="34" height="1"/>
<rect x="30" y="156" width="1" height="1"/>
<rect x="30" y="157" width="1" height="1"/>
<rect x="30" y="158" width="1" height="1"/>
<rect x="30" y="159" width="1" height="1"/>
<rect x="17" y="160" width="18" height="1"/>
<rect x="17" y="161" width="18" height="1"/>
<rect x="30" y="162" width="1" height="1"/>
<rect x="30" y="163" width="1" height="1"/>
</g>
</svg>
