<svg xmlns="http://www.w3.org/2000/svg" viewBox="0 0 360 180" width="360" height="180" shape-rendering="crispEdges">
<rect width="100%" height="100%" fill="#fff"/>
<g fill="#111">
<rect x="17" y="16" width="1" height="1"/>
<rect x="20" y="16" width="1" height="1"/>
<rect x="17" y="17" width="1" height="1"/>
<rect x="29" y="17" width="1" height="1"/>
<rect x="17" y="18" width="1" height="1"/>
<rect x="29" y="18" width="1" height="1"/>
<rect x="17" y="19" width="1" height="1"/>
<rect x="20" y="19" width="1" height="1"/>
<rect x="23" y="19" width="9" height="1"/>
<rect x="17" y="20" width="1" height="1"/>
<rect x="20" y="20" width="1" height="1"/>
<rect x="23" y="20" width="1" height="1"/>
<rect x="29" y="20" width="1" height="1"/>
<rect x="17" y="21" width="1" height="1"/>
<rect x="20" y="21" width="1" height="1"/>
<rect x="23" y="21" width="1" height="1"/>
<rect x="29" y="21" width="1" height="1"/>
<rect x="17" y="22" width="1" height="1"/>
<rect x="20" y="22" width="1" height="1"/>
<rect x="24" y="22" width="3" height="1"/>
<rect x="29" y="22" width="1" height="1"/>
<rect x="17" y="23" width="1" height="1"/>
<rect x="20" y="23" width="1" height="1"/>
<rect x="26" y="23" width="2" height="1"/>
<rect x="29" y="23" width="1" height="1"/>
<rect x="17" y="24" width="1" height="1"/>
<rect x="20" y="24" width="1" height="1"/>
<rect x="26" y="24" width="2" height="1"/>
<rect x="29" y="24" width="1" height="1"/>
<rect x="17" y="25" width="1" height="1"/>
<rect x="20" y="25" width="1" height="1"/>
<rect x="23" y="25" width="4" height="1"/>
<rect x="30" y="25" width="2" height="1"/>
<rect x="16" y="30" width="328" height="1"/>
<rect x="42" y="58" width="1" height="1"/>
<rect x="59" y="58" width="1" height="1"/>
<rect x="33" y="59" width="6" height="1"/>
<rect x="59" y="59" width="1" height="1"/>
<rect x="307" y="59" width="2" height="1"/>
<rect x="312" y="59" width="3" height="1"/>
<rect x="318" y="59" width="3" height="1"/>
<rect x="324" y="59" width="1" height="1"/>
<rect x="33" y="60" width="1" height="1"/>
<rect x="38" y="60" width="2" height="1"/>
<rect x="59" y="60" width="1" height="1"/>
<rect x="307" y="60" width="2" height="1"/>
<rect x="311" y="60" width="1" height="1"/>
<rect x="315" y="60" width="1" height="1"/>
<rect x="318" y="60" width="1" height="1"/>
<rect x="320" y="60" width="1" height="1"/>
<rect x="324" y="60" width="1" height="1"/>
<rect x="33" y="61" width="1" height="1"/>
<rect x="39" y="61" width="1" height="1"/>
<rect x="42" y="61" width="1" height="1"/>
<rect x="45" y="61" width="5" height="1"/>
<rect x="51" y="61" width="1" height="1"/>
<rect x="53" y="61" width="3" height="1"/>
<rect x="59" y="61" width="1" height="1"/>
<rect x="63" y="61" width="4" height="1"/>
<rect x="68" y="61" width="1" height="1"/>
<rect x="73" y="61" width="2" height="1"/>
<rect x="306" y="61" width="1" height="1"/>
<rect x="308" y="61" width="1" height="1"/>
<rect x="315" y="61" width="1" height="1"/>
<rect x="318" y="61" width="1" height="1"/>
<rect x="320" y="61" width="1" height="1"/>
<rect x="323" y="61" width="1" height="1"/>
<rect x="33" y="62" width="1" height="1"/>
<rect x="39" y="62" width="2" height="1"/>
<rect x="42" y="62" width="1" height="1"/>
<rect x="45" y="62" width="1" height="1"/>
<rect x="51" y="62" width="2" height="1"/>
<rect x="56" y="62" width="1" height="1"/>
<rect x="59" y="62" width="1" height="1"/>
<rect x="62" y="62" width="1" height="1"/>
<rect x="66" y="62" width="1" height="1"/>
<rect x="69" y="62" width="1" height="1"/>
<rect x="73" y="62" width="1" height="1"/>
<rect x="305" y="62" width="1" height="1"/>
<rect x="308" y="62" width="1" height="1"/>
<rect x="315" y="62" width="1" height="1"/>
<rect x="318" y="62" width="1" height="1"/>
<rect x="320" y="62" width="1" height="1"/>
<rect x="322" y="62" width="1" height="1"/>
<rect x="324" y="62" width="2" height="1"/>
<rect x="33" y="63" width="1" height="1"/>
<rect x="39" y="63" width="2" height="1"/>
<rect x="42" y="63" width="1" height="1"/>
<rect x="45" y="63" width="1" height="1"/>
<rect x="51" y="63" width="1" height="1"/>
<rect x="56" y="63" width="1" height="1"/>
<rect x="59" y="63" width="1" height="1"/>
<rect x="66" y="63" width="1" height="1"/>
<rect x="69" y="63" width="1" height="1"/>
<rect x="72" y="63" width="2" height="1"/>
<rect x="304" y="63" width="2" height="1"/>
<rect x="308" y="63" width="1" height="1"/>
<rect x="314" y="63" width="2" height="1"/>
<rect x="318" y="63" width="1" height="1"/>
<rect x="320" y="63" width="1" height="1"/>
<rect x="322" y="63" width="2" height="1"/>
<rect x="326" y="63" width="1" height="1"/>
<rect x="33" y="64" width="1" height="1"/>
<rect x="39" y="64" width="2" height="1"/>
<rect x="42" y="64" width="1" height="1"/>
<rect x="46" y="64" width="3" height="1"/>
<rect x="51" y="64" width="1" height="1"/>
<rect x="56" y="64" width="1" height="1"/>
<rect x="59" y="64" width="1" height="1"/>
<rect x="62" y="64" width="5" height="1"/>
<rect x="69" y="64" width="2" height="1"/>
<rect x="72" y="64" width="1" height="1"/>
<rect x="304" y="64" width="1" height="1"/>
<rect x="308" y="64" width="1" height="1"/>
<rect x="313" y="64" width="2" height="1"/>
<rect x="318" y="64" width="4" height="1"/>
<rect x="323" y="64" width="1" height="1"/>
<rect x="326" y="64" width="1" height="1"/>
<rect x="33" y="65" width="1" height="1"/>
<rect x="39" y="65" width="1" height="1"/>
<rect x="42" y="65" width="1" height="1"/>
<rect x="48" y="65" width="2" height="1"/>
<rect x="51" y="65" width="1" height="1"/>
<rect x="56" y="65" width="1" height="1"/>
<rect x="59" y="65" width="1" height="1"/>
<rect x="62" y="65" width="1" height="1"/>
<rect x="66" y="65" width="1" height="1"/>
<rect x="70" y="65" width="1" height="1"/>
<rect x="72" y="65" width="1" height="1"/>
<rect x="303" y="65" width="7" height="1"/>
<rect x="312" y="65" width="2" height="1"/>
<rect x="321" y="65" width="1" height="1"/>
<rect x="323" y="65" width="1" height="1"/>
<rect x="326" y="65" width="1" height="1"/>
<rect x="33" y="66" width="1" height="1"/>
<rect x="38" y="66" width="2" height="1"/>
<rect x="42" y="66" width="1" height="1"/>
<rect x="48" y="66" width="2" height="1"/>
<rect x="51" y="66" width="2" height="1"/>
<rect x="55" y="66" width="2" height="1"/>
<rect x="59" y="66" width="1" height="1"/>
<rect x="62" y="66" width="1" height="1"/>
<rect x="66" y="66" width="1" height="1"/>
<rect x="70" y="66" width="3" height="1"/>
<rect x="308" y="66" width="1" height="1"/>
<rect x="311" y="66" width="2" height="1"/>
<rect x="320" y="66" width="1" height="1"/>
<rect x="323" y="66" width="1" height="1"/>
<rect x="326" y="66" width="1" height="1"/>
<rect x="33" y="67" width="5" height="1"/>
<rect x="42" y="67" width="1" height="1"/>
<rect x="45" y="67" width="4" height="1"/>
<rect x="51" y="67" width="1" height="1"/>
<rect x="53" y="67" width="3" height="1"/>
<rect x="59" y="67" width="1" height="1"/>
<rect x="62" y="67" width="5" height="1"/>
<rect x="71" y="67" width="1" height="1"/>
<rect x="308" y="67" width="1" height="1"/>
<rect x="311" y="67" width="6" height="1"/>
<rect x="319" y="67" width="2" height="1"/>
<rect x="324" y="67" width="2" height="1"/>
<rect x="51" y="68" width="1" height="1"/>
<rect x="71" y="68" width="1" height="1"/>
<rect x="51" y="69" width="1" height="1"/>
<rect x="70" y="69" width="1" height="1"/>
<rect x="51" y="70" width="1" height="1"/>
<rect x="68" y="70" width="3" height="1"/>
<rect x="24" y="80" width="312" height="1"/>
<rect x="24" y="81" width="312" height="1"/>
<rect x="24" y="82" width="312" height="1"/>
<rect x="24" y="83" width="312" height="1"/>
<rect x="24" y="84" width="312" height="1"/>
<rect x="24" y="85" width="312" height="1"/>
<rect x="24" y="86" width="312" height="1"/>
<rect x="24" y="87" width="312" height="1"/>
<rect x="24" y="88" width="312" height="1"/>
<rect x="24" y="89" width="312" height="1"/>
<rect x="24" y="90" width="312" height="1"/>
<rect x="24" y="91" width="312" height="1"/>
<rect x="24" y="92" width="36" height="1"/>
<rect x="61" y="92" width="2" height="1"/>
<rect x="64" y="92" width="272" height="1"/>
<rect x="24" y="93" width="9" height="1"/>
<rect x="38" y="93" width="22" height="1"/>
<rect x="61" y="93" width="275" height="1"/>
<rect x="24" y="94" width="9" height="1"/>
<rect x="34" y="94" width="4" height="1"/>
<rect x="39" y="94" width="21" height="1"/>
<rect x="61" y="94" width="275" height="1"/>
<rect x="24" y="95" width="9" height="1"/>
<rect x="34" y="95" width="4" height="1"/>
<rect x="39" y="95" width="3" height="1"/>
<rect x="45" y="95" width="4" height="1"/>
<rect x="53" y="95" width="3" height="1"/>
<rect x="59" y="95" width="1" height="1"/>
<rect x="61" y="95" width="2" height="1"/>
<rect x="64" y="95" width="2" height="1"/>
<rect x="67" y="95" width="1" height="1"/>
<rect x="71" y="95" width="4" height="1"/>
<rect x="78" y="95" width="1" height="1"/>
<rect x="80" y="95" width="256" height="1"/>
<rect x="24" y="96" width="9" height="1"/>
<rect x="34" y="96" width="4" height="1"/>
<rect x="39" y="96" width="2" height="1"/>
<rect x="42" y="96" width="3" height="1"/>
<rect x="46" y="96" width="2" height="1"/>
<rect x="49" y="96" width="3" height="1"/>
<rect x="53" y="96" width="2" height="1"/>
<rect x="56" y="96" width="3" height="1"/>
<rect x="61" y="96" width="2" height="1"/>
<rect x="64" y="96" width="2" height="1"/>
<rect x="68" y="96" width="3" height="1"/>
<rect x="72" y="96" width="2" height="1"/>
<rect x="75" y="96" width="3" height="1"/>
<rect x="80" y="96" width="256" height="1"/>
<rect x="24" y="97" width="9" height="1"/>
<rect x="38" y="97" width="3" height="1"/>
<rect x="42" y="97" width="3" height="1"/>
<rect x="47" y="97" width="5" height="1"/>
<rect x="53" y="97" width="2" height="1"/>
<rect x="56" y="97" width="4" height="1"/>
<rect x="61" y="97" width="2" height="1"/>
<rect x="64" y="97" width="2" height="1"/>
<rect x="67" y="97" width="4" height="1"/>
<rect x="72" y="97" width="2" height="1"/>
<rect x="75" y="97" width="4" height="1"/>
<rect x="80" y="97" width="256" height="1"/>
<rect x="24" y="98" width="9" height="1"/>
<rect x="34" y="98" width="3" height="1"/>
<rect x="38" y="98" width="3" height="1"/>
<rect x="47" y="98" width="1" height="1"/>
<rect x="53" y="98" width="2" height="1"/>
<rect x="56" y="98" width="4" height="1"/>
<rect x="61" y="98" width="2" height="1"/>
<rect x="64" y="98" width="2" height="1"/>
<rect x="67" y="98" width="4" height="1"/>
<rect x="72" y="98" width="2" height="1"/>
<rect x="75" y="98" width="4" height="1"/>
<rect x="80" y="98" width="256" height="1"/>
<rect x="24" y="99" width="9" height="1"/>
<rect x="34" y="99" width="3" height="1"/>
<rect x="38" y="99" width="3" height="1"/>
<rect x="42" y="99" width="6" height="1"/>
<rect x="49" y="99" width="3" height="1"/>
<rect x="53" y="99" width="2" height="1"/>
<rect x="56" y="99" width="4" height="1"/>
<rect x="61" y="99" width="2" height="1"/>
<rect x="64" y="99" width="2" height="1"/>
<rect x="67" y="99" width="4" height="1"/>
<rect x="72" y="99" width="2" height="1"/>
<rect x="75" y="99" width="4" height="1"/>
<rect x="80" y="99" width="256" height="1"/>
<rect x="24" y="100" width="9" height="1"/>
<rect x="34" y="100" width="4" height="1"/>
<rect x="39" y="100" width="2" height="1"/>
<rect x="42" y="100" width="6" height="1"/>
<rect x="49" y="100" width="3" height="1"/>
<rect x="53" y="100" width="2" height="1"/>
<rect x="56" y="100" width="3" height="1"/>
<rect x="61" y="100" width="2" height="1"/>
<rect x="64" y="100" width="2" height="1"/>
<rect x="67" y="100" width="4" height="1"/>
<rect x="72" y="100" width="2" height="1"/>
<rect x="75" y="100" width="3" height="1"/>
<rect x="80" y="100" width="256" height="1"/>
<rect x="24" y="101" width="9" height="1"/>
<rect x="34" y="101" width="4" height="1"/>
<rect x="40" y="101" width="2" height="1"/>
<rect x="46" y="101" width="2" height="1"/>
<rect x="53" y="101" width="3" height="1"/>
<rect x="59" y="101" width="1" height="1"/>
<rect x="61" y="101" width="2" height="1"/>
<rect x="64" y="101" width="2" height="1"/>
<rect x="67" y="101" width="4" height="1"/>
<rect x="72" y="101" width="3" height="1"/>
<rect x="78" y="101" width="1" height="1"/>
<rect x="80" y="101" width="256" height="1"/>
<rect x="24" y="102" width="55" height="1"/>
<rect x="80" y="102" width="256" height="1"/>
<rect x="24" y="103" width="54" height="1"/>
<rect x="80" y="103" width="256" height="1"/>
<rect x="24" y="104" width="50" height="1"/>
<rect x="79" y="104" width="257" height="1"/>
<rect x="24" y="105" width="312" height="1"/>
<rect x="24" y="106" width="312" height="1"/>
<rect x="24" y="107" width="312" height="1"/>
<rect x="24" y="108" width="312" height="1"/>
<rect x="24" y="109" width="312" height="1"/>
<rect x="24" y="110" width="312" height="1"/>
<rect x="24" y="111" width="312" height="1"/>
<rect x="24" y="112" width="312" height="1"/>
<rect x="24" y="113" width="312" height="1"/>
<rect x="34" y="127" width="4" height="1"/>
<rect x="40" y="127" width="1" height="1"/>
<rect x="306" y="127" width="4" height="1"/>
<rect x="314" y="127" width="5" height="1"/>
<rect x="321" y="127" width="6" height="1"/>
<rect x="33" y="128" width="1" height="1"/>
<rect x="40" y="128" width="1" height="1"/>
<rect x="305" y="128" width="1" height="1"/>
<rect x="309" y="128" width="1" height="1"/>
<rect x="313" y="128" width="1" height="1"/>
<rect x="321" y="128" width="1" height="1"/>
<rect x="326" y="128" width="1" height="1"/>
<rect x="33" y="129" width="1" height="1"/>
<rect x="39" y="129" width="4" height="1"/>
<rect x="46" y="129" width="4" height="1"/>
<rect x="53" y="129" width="1" height="1"/>
<rect x="55" y="129" width="2" height="1"/>
<rect x="59" y="129" width="4" height="1"/>
<rect x="66" y="129" width="3" height="1"/>
<rect x="70" y="129" width="1" height="1"/>
<rect x="74" y="129" width="3" height="1"/>
<rect x="305" y="129" width="1" height="1"/>
<rect x="309" y="129" width="1" height="1"/>
<rect x="312" y="129" width="1" height="1"/>
<rect x="321" y="129" width="1" height="1"/>
<rect x="326" y="129" width="1" height="1"/>
<rect x="33" y="130" width="2" height="1"/>
<rect x="40" y="130" width="1" height="1"/>
<rect x="45" y="130" width="1" height="1"/>
<rect x="49" y="130" width="2" height="1"/>
<rect x="53" y="130" width="2" height="1"/>
<rect x="58" y="130" width="1" height="1"/>
<rect x="62" y="130" width="1" height="1"/>
<rect x="65" y="130" width="1" height="1"/>
<rect x="69" y="130" width="2" height="1"/>
<rect x="73" y="130" width="1" height="1"/>
<rect x="77" y="130" width="1" height="1"/>
<rect x="305" y="130" width="2" height="1"/>
<rect x="309" y="130" width="1" height="1"/>
<rect x="312" y="130" width="1" height="1"/>
<rect x="321" y="130" width="1" height="1"/>
<rect x="326" y="130" width="1" height="1"/>
<rect x="34" y="131" width="3" height="1"/>
<rect x="40" y="131" width="1" height="1"/>
<rect x="45" y="131" width="1" height="1"/>
<rect x="50" y="131" width="1" height="1"/>
<rect x="53" y="131" width="1" height="1"/>
<rect x="62" y="131" width="1" height="1"/>
<rect x="65" y="131" width="1" height="1"/>
<rect x="70" y="131" width="1" height="1"/>
<rect x="73" y="131" width="1" height="1"/>
<rect x="77" y="131" width="2" height="1"/>
<rect x="306" y="131" width="3" height="1"/>
<rect x="312" y="131" width="1" height="1"/>
<rect x="316" y="131" width="4" height="1"/>
<rect x="321" y="131" width="5" height="1"/>
<rect x="37" y="132" width="1" height="1"/>
<rect x="40" y="132" width="1" height="1"/>
<rect x="45" y="132" width="1" height="1"/>
<rect x="50" y="132" width="1" height="1"/>
<rect x="53" y="132" width="1" height="1"/>
<rect x="58" y="132" width="5" height="1"/>
<rect x="65" y="132" width="1" height="1"/>
<rect x="70" y="132" width="1" height="1"/>
<rect x="73" y="132" width="6" height="1"/>
<rect x="305" y="132" width="1" height="1"/>
<rect x="309" y="132" width="1" height="1"/>
<rect x="312" y="132" width="1" height="1"/>
<rect x="318" y="132" width="2" height="1"/>
<rect x="321" y="132" width="1" height="1"/>
<rect x="326" y="132" width="2" height="1"/>
<rect x="37" y="133" width="2" height="1"/>
<rect x="40" y="133" width="1" height="1"/>
<rect x="45" y="133" width="1" height="1"/>
<rect x="50" y="133" width="1" height="1"/>
<rect x="53" y="133" width="1" height="1"/>
<rect x="58" y="133" width="1" height="1"/>
<rect x="62" y="133" width="1" height="1"/>
<rect x="65" y="133" width="1" height="1"/>
<rect x="70" y="133" width="1" height="1"/>
<rect x="73" y="133" width="1" height="1"/>
<rect x="305" y="133" width="1" height="1"/>
<rect x="310" y="133" width="1" height="1"/>
<rect x="312" y="133" width="1" height="1"/>
<rect x="318" y="133" width="2" height="1"/>
<rect x="321" y="133" width="1" height="1"/>
<rect x="326" y="133" width="2" height="1"/>
<rect x="37" y="134" width="1" height="1"/>
<rect x="40" y="134" width="1" height="1"/>
<rect x="45" y="134" width="1" height="1"/>
<rect x="49" y="134" width="2" height="1"/>
<rect x="53" y="134" width="1" height="1"/>
<rect x="58" y="134" width="1" height="1"/>
<rect x="62" y="134" width="1" height="1"/>
<rect x="65" y="134" width="1" height="1"/>
<rect x="69" y="134" width="2" height="1"/>
<rect x="73" y="134" width="1" height="1"/>
<rect x="305" y="134" width="1" height="1"/>
<rect x="309" y="134" width="2" height="1"/>
<rect x="313" y="134" width="1" height="1"/>
<rect x="318" y="134" width="2" height="1"/>
<rect x="321" y="134" width="1" height="1"/>
<rect x="326" y="134" width="2" height="1"/>
<rect x="33" y="135" width="4" height="1"/>
<rect x="41" y="135" width="2" height="1"/>
<rect x="46" y="135" width="4" height="1"/>
<rect x="53" y="135" width="1" height="1"/>
<rect x="58" y="135" width="5" height="1"/>
<rect x="66" y="135" width="3" height="1"/>
<rect x="70" y="135" width="1" height="1"/>
<rect x="74" y="135" width="4" height="1"/>
<rect x="306" y="135" width="4" height="1"/>
<rect x="314" y="135" width="6" height="1"/>
<rect x="321" y="135" width="6" height="1"/>
<rect x="70" y="136" width="1" height="1"/>
<rect x="69" y="137" width="2" height="1"/>
<rect x="65" y="138" width="5" height="1"/>
</g>
</svg>
