<svg xmlns="http://www.w3.org/2000/svg" viewBox="0 0 360 180" width="360" height="180" shape-rendering="crispEdges">
<rect width="100%" height="100%" fill="#fff"/>
<g fill="#111">
<rect x="30" y="0" width="1" height="1"/>
<rect x="118" y="0" width="1" height="1"/>
<rect x="17" y="1" width="18" height="1"/>
<rect x="17" y="2" width="18" height="1"/>
<rect x="30" y="3" width="1" height="1"/>
<rect x="77" y="3" width="9" height="1"/>
<rect x="118" y="3" width="5" height="1"/>
<rect x="127" y="3" width="1" height="1"/>
<rect x="30" y="4" width="1" height="1"/>
<rect x="76" y="4" width="11" height="1"/>
<rect x="117" y="4" width="6" height="1"/>
<rect x="127" y="4" width="2" height="1"/>
<rect x="30" y="5" width="1" height="1"/>
<rect x="75" y="5" width="3" height="1"/>
<rect x="85" y="5" width="3" height="1"/>
<rect x="116" y="5" width="3" height="1"/>
<rect x="121" y="5" width="2" height="1"/>
<rect x="127" y="5" width="2" height="1"/>
<rect x="30" y="6" width="1" height="1"/>
<rect x="75" y="6" width="2" height="1"/>
<rect x="86" y="6" width="2" height="1"/>
<rect x="116" y="6" width="2" height="1"/>
<rect x="121" y="6" width="2" height="1"/>
<rect x="127" y="6" width="2" height="1"/>
<rect x="24" y="7" width="5" height="1"/>
<rect x="30" y="7" width="1" height="1"/>
<rect x="33" y="7" width="1" height="1"/>
<rect x="75" y="7" width="2" height="1"/>
<rect x="86" y="7" width="2" height="1"/>
<rect x="116" y="7" width="2" height="1"/>
<rect x="121" y="7" width="2" height="1"/>
<rect x="127" y="7" width="2" height="1"/>
<rect x="23" y="8" width="6" height="1"/>
<rect x="30" y="8" width="1" height="1"/>
<rect x="33" y="8" width="2" height="1"/>
<rect x="75" y="8" width="2" height="1"/>
<rect x="86" y="8" width="2" height="1"/>
<rect x="116" y="8" width="2" height="1"/>
<rect x="121" y="8" width="2" height="1"/>
<rect x="127" y="8" width="2" height="1"/>
<rect x="22" y="9" width="3" height="1"/>
<rect x="27" y="9" width="2" height="1"/>
<rect x="30" y="9" width="1" height="1"/>
<rect x="33" y="9" width="2" height="1"/>
<rect x="75" y="9" width="2" height="1"/>
<rect x="86" y="9" width="2" height="1"/>
<rect x="116" y="9" width="2" height="1"/>
<rect x="121" y="9" width="2" height="1"/>
<rect x="127" y="9" width="2" height="1"/>
<rect x="22" y="10" width="2" height="1"/>
<rect x="27" y="10" width="2" height="1"/>
<rect x="30" y="10" width="1" height="1"/>
<rect x="33" y="10" width="2" height="1"/>
<rect x="76" y="10" width="1" height="1"/>
<rect x="86" y="10" width="2" height="1"/>
<rect x="116" y="10" width="3" height="1"/>
<rect x="121" y="10" width="2" height="1"/>
<rect x="126" y="10" width="3" height="1"/>
<rect x="22" y="11" width="2" height="1"/>
<rect x="27" y="11" width="2" height="1"/>
<rect x="30" y="11" width="1" height="1"/>
<rect x="33" y="11" width="2" height="1"/>
<rect x="76" y="11" width="3" height="1"/>
<rect x="84" y="11" width="3" height="1"/>
<rect x="117" y="11" width="11" height="1"/>
<rect x="22" y="12" width="2" height="1"/>
<rect x="27" y="12" width="2" height="1"/>
<rect x="30" y="12" width="1" height="1"/>
<rect x="33" y="12" width="2" height="1"/>
<rect x="70" y="12" width="18" height="1"/>
<rect x="118" y="12" width="9" height="1"/>
<rect x="22" y="13" width="2" height="1"/>
<rect x="27" y="13" width="2" height="1"/>
<rect x="30" y="13" width="1" height="1"/>
<rect x="33" y="13" width="2" height="1"/>
<rect x="70" y="13" width="18" height="1"/>
<rect x="121" y="13" width="4" height="1"/>
<rect x="22" y="14" width="3" height="1"/>
<rect x="27" y="14" width="2" height="1"/>
<rect x="30" y="14" width="1" height="1"/>
<rect x="32" y="14" width="3" height="1"/>
<rect x="23" y="15" width="11" height="1"/>
<rect x="128" y="15" width="1" height="1"/>
<rect x="24" y="16" width="9" height="1"/>
<rect x="127" y="16" width="2" height="1"/>
<rect x="27" y="17" width="4" height="1"/>
<rect x="114" y="17" width="5" height="1"/>
<rect x="126" y="17" width="3" height="1"/>
<rect x="30" y="18" width="1" height="1"/>
<rect x="113" y="18" width="7" height="1"/>
<rect x="124" y="18" width="4" height="1"/>
<rect x="30" y="19" width="1" height="1"/>
<rect x="112" y="19" width="3" height="1"/>
<rect x="119" y="19" width="2" height="1"/>
<rect x="122" y="19" width="4" height="1"/>
<rect x="30" y="20" width="1" height="1"/>
<rect x="112" y="20" width="2" height="1"/>
<rect x="120" y="20" width="5" height="1"/>
<rect x="24" y="21" width="11" height="1"/>
<rect x="112" y="21" width="2" height="1"/>
<rect x="120" y="21" width="3" height="1"/>
<rect x="23" y="22" width="12" height="1"/>
<rect x="112" y="22" width="2" height="1"/>
<rect x="120" y="22" width="2" height="1"/>
<rect x="22" y="23" width="3" height="1"/>
<rect x="30" y="23" width="1" height="1"/>
<rect x="112" y="23" width="2" height="1"/>
<rect x="120" y="23" width="2" height="1"/>
<rect x="22" y="24" width="2" height="1"/>
<rect x="30" y="24" width="1" height="1"/>
<rect x="78" y="24" width="7" height="1"/>
<rect x="112" y="24" width="2" height="1"/>
<rect x="120" y="24" width="2" height="1"/>
<rect x="22" y="25" width="2" height="1"/>
<rect x="30" y="25" width="1" height="1"/>
<rect x="77" y="25" width="10" height="1"/>
<rect x="112" y="25" width="2" height="1"/>
<rect x="120" y="25" width="2" height="1"/>
<rect x="22" y="26" width="2" height="1"/>
<rect x="30" y="26" width="1" height="1"/>
<rect x="76" y="26" width="3" height="1"/>
<rect x="84" y="26" width="3" height="1"/>
<rect x="112" y="26" width="17" height="1"/>
<rect x="22" y="27" width="2" height="1"/>
<rect x="30" y="27" width="1" height="1"/>
<rect x="75" y="27" width="2" height="1"/>
<rect x="86" y="27" width="2" height="1"/>
<rect x="112" y="27" width="17" height="1"/>
<rect x="23" y="28" width="1" height="1"/>
<rect x="30" y="28" width="1" height="1"/>
<rect x="75" y="28" width="2" height="1"/>
<rect x="86" y="28" width="2" height="1"/>
<rect x="23" y="29" width="3" height="1"/>
<rect x="30" y="29" width="1" height="1"/>
<rect x="75" y="29" width="2" height="1"/>
<rect x="86" y="29" width="2" height="1"/>
<rect x="22" y="30" width="13" height="1"/>
<rect x="75" y="30" width="2" height="1"/>
<rect x="86" y="30" width="2" height="1"/>
<rect x="22" y="31" width="13" height="1"/>
<rect x="75" y="31" width="2" height="1"/>
<rect x="86" y="31" width="2" height="1"/>
<rect x="30" y="32" width="1" height="1"/>
<rect x="75" y="32" width="3" height="1"/>
<rect x="85" y="32" width="3" height="1"/>
<rect x="30" y="33" width="1" height="1"/>
<rect x="76" y="33" width="11" height="1"/>
<rect x="30" y="34" width="1" height="1"/>
<rect x="77" y="34" width="9" height="1"/>
<rect x="26" y="35" width="9" height="1"/>
<rect x="79" y="35" width="5" height="1"/>
<rect x="23" y="36" width="12" height="1"/>
<rect x="22" y="37" width="11" height="1"/>
<rect x="22" y="38" width="2" height="1"/>
<rect x="27" y="38" width="2" height="1"/>
<rect x="30" y="38" width="1" height="1"/>
<rect x="32" y="38" width="2" height="1"/>
<rect x="22" y="39" width="2" height="1"/>
<rect x="27" y="39" width="2" height="1"/>
<rect x="30" y="39" width="1" height="1"/>
<rect x="33" y="39" width="2" height="1"/>
<rect x="71" y="39" width="17" height="1"/>
<rect x="22" y="40" width="2" height="1"/>
<rect x="27" y="40" width="2" height="1"/>
<rect x="30" y="40" width="1" height="1"/>
<rect x="33" y="40" width="2" height="1"/>
<rect x="71" y="40" width="17" height="1"/>
<rect x="22" y="41" width="2" height="1"/>
<rect x="27" y="41" width="2" height="1"/>
<rect x="30" y="41" width="1" height="1"/>
<rect x="34" y="41" width="1" height="1"/>
<rect x="84" y="41" width="4" height="1"/>
<rect x="22" y="42" width="2" height="1"/>
<rect x="28" y="42" width="1" height="1"/>
<rect x="30" y="42" width="1" height="1"/>
<rect x="33" y="42" width="2" height="1"/>
<rect x="83" y="42" width="4" height="1"/>
<rect x="23" y="43" width="2" height="1"/>
<rect x="28" y="43" width="3" height="1"/>
<rect x="32" y="43" width="3" height="1"/>
<rect x="81" y="43" width="4" height="1"/>
<rect x="29" y="44" width="6" height="1"/>
<rect x="80" y="44" width="4" height="1"/>
<rect x="30" y="45" width="3" height="1"/>
<rect x="78" y="45" width="4" height="1"/>
<rect x="30" y="46" width="1" height="1"/>
<rect x="77" y="46" width="3" height="1"/>
<rect x="30" y="47" width="1" height="1"/>
<rect x="75" y="47" width="4" height="1"/>
<rect x="30" y="48" width="1" height="1"/>
<rect x="73" y="48" width="4" height="1"/>
<rect x="20" y="49" width="6" height="1"/>
<rect x="30" y="49" width="1" height="1"/>
<rect x="72" y="49" width="4" height="1"/>
<rect x="19" y="50" width="8" height="1"/>
<rect x="30" y="50" width="1" height="1"/>
<rect x="71" y="50" width="3" height="1"/>
<rect x="18" y="51" width="3" height="1"/>
<rect x="25" y="51" width="3" height="1"/>
<rect x="30" y="51" width="1" height="1"/>
<rect x="71" y="51" width="17" height="1"/>
<rect x="18" y="52" width="2" height="1"/>
<rect x="26" y="52" width="2" height="1"/>
<rect x="30" y="52" width="1" height="1"/>
<rect x="71" y="52" width="17" height="1"/>
<rect x="18" y="53" width="2" height="1"/>
<rect x="26" y="53" width="2" height="1"/>
<rect x="30" y="53" width="1" height="1"/>
<rect x="18" y="54" width="2" height="1"/>
<rect x="26" y="54" width="2" height="1"/>
<rect x="30" y="54" width="1" height="1"/>
<rect x="18" y="55" width="2" height="1"/>
<rect x="26" y="55" width="2" height="1"/>
<rect x="30" y="55" width="1" height="1"/>
<rect x="18" y="56" width="2" height="1"/>
<rect x="26" y="56" width="2" height="1"/>
<rect x="30" y="56" width="1" height="1"/>
<rect x="18" y="57" width="2" height="1"/>
<rect x="26" y="57" width="2" height="1"/>
<rect x="30" y="57" width="1" height="1"/>
<rect x="18" y="58" width="17" height="1"/>
<rect x="18" y="59" width="17" height="1"/>
<rect x="30" y="60" width="1" height="1"/>
<rect x="30" y="61" width="1" height="1"/>
<rect x="30" y="62" width="1" height="1"/>
<rect x="30" y="63" width="1" height="1"/>
<rect x="24" y="64" width="5" height="1"/>
<rect x="30" y="64" width="1" height="1"/>
<rect x="33" y="64" width="1" height="1"/>
<rect x="23" y="65" width="6" height="1"/>
<rect x="30" y="65" width="1" height="1"/>
<rect x="33" y="65" width="2" height="1"/>
<rect x="22" y="66" width="3" height="1"/>
<rect x="27" y="66" width="2" height="1"/>
<rect x="30" y="66" width="1" height="1"/>
<rect x="33" y="66" width="2" height="1"/>
<rect x="22" y="67" width="2" height="1"/>
<rect x="27" y="67" width="2" height="1"/>
<rect x="30" y="67" width="1" height="1"/>
<rect x="33" y="67" width="2" height="1"/>
<rect x="22" y="68" width="2" height="1"/>
<rect x="27" y="68" width="2" height="1"/>
<rect x="30" y="68" width="1" height="1"/>
<rect x="33" y="68" width="2" height="1"/>
<rect x="22" y="69" width="2" height="1"/>
<rect x="27" y="69" width="2" height="1"/>
<rect x="30" y="69" width="1" height="1"/>
<rect x="33" y="69" width="2" height="1"/>
<rect x="22" y="70" width="2" height="1"/>
<rect x="27" y="70" width="2" height="1"/>
<rect x="30" y="70" width="1" height="1"/>
<rect x="33" y="70" width="2" height="1"/>
<rect x="22" y="71" width="3" height="1"/>
<rect x="27" y="71" width="2" height="1"/>
<rect x="30" y="71" width="1" height="1"/>
<rect x="32" y="71" width="3" height="1"/>
<rect x="23" y="72" width="11" height="1"/>
<rect x="24" y="73" width="9" height="1"/>
<rect x="27" y="74" width="4" height="1"/>
<rect x="30" y="75" width="1" height="1"/>
<rect x="30" y="76" width="1" height="1"/>
<rect x="30" y="77" width="1" height="1"/>
<rect x="22" y="78" width="15" height="1"/>
<rect x="22" y="79" width="17" height="1"/>
<rect x="24" y="80" width="3" height="1"/>
<rect x="30" y="80" width="3" height="1"/>
<rect x="36" y="80" width="4" height="1"/>
<rect x="23" y="81" width="2" height="1"/>
<rect x="30" y="81" width="1" height="1"/>
<rect x="33" y="81" width="1" height="1"/>
<rect x="38" y="81" width="2" height="1"/>
<rect x="22" y="82" width="2" height="1"/>
<rect x="30" y="82" width="1" height="1"/>
<rect x="33" y="82" width="2" height="1"/>
<rect x="39" y="82" width="2" height="1"/>
<rect x="22" y="83" width="2" height="1"/>
<rect x="30" y="83" width="1" height="1"/>
<rect x="33" y="83" width="2" height="1"/>
<rect x="39" y="83" width="2" height="1"/>
<rect x="22" y="84" width="2" height="1"/>
<rect x="30" y="84" width="1" height="1"/>
<rect x="33" y="84" width="2" height="1"/>
<rect x="39" y="84" width="2" height="1"/>
<rect x="22" y="85" width="2" height="1"/>
<rect x="30" y="85" width="1" height="1"/>
<rect x="33" y="85" width="2" height="1"/>
<rect x="39" y="85" width="2" height="1"/>
<rect x="22" y="86" width="3" height="1"/>
<rect x="30" y="86" width="1" height="1"/>
<rect x="32" y="86" width="3" height="1"/>
<rect x="39" y="86" width="2" height="1"/>
<rect x="23" y="87" width="11" height="1"/>
<rect x="38" y="87" width="2" height="1"/>
<rect x="24" y="88" width="9" height="1"/>
<rect x="38" y="88" width="2" height="1"/>
<rect x="26" y="89" width="5" height="1"/>
<rect x="30" y="90" width="1" height="1"/>
<rect x="30" y="91" width="1" height="1"/>
<rect x="26" y="92" width="9" height="1"/>
<rect x="23" y="93" width="12" height="1"/>
<rect x="22" y="94" width="11" height="1"/>
<rect x="22" y="95" width="2" height="1"/>
<rect x="27" y="95" width="2" height="1"/>
<rect x="30" y="95" width="1" height="1"/>
<rect x="32" y="95" width="2" height="1"/>
<rect x="22" y="96" width="2" height="1"/>
<rect x="27" y="96" width="2" height="1"/>
<rect x="30" y="96" width="1" height="1"/>
<rect x="33" y="96" width="2" height="1"/>
<rect x="22" y="97" width="2" height="1"/>
<rect x="27" y="97" width="2" height="1"/>
<rect x="30" y="97" width="1" height="1"/>
<rect x="33" y="97" width="2" height="1"/>
<rect x="22" y="98" width="2" height="1"/>
<rect x="27" y="98" width="2" height="1"/>
<rect x="30" y="98" width="1" height="1"/>
<rect x="34" y="98" width="1" height="1"/>
<rect x="22" y="99" width="2" height="1"/>
<rect x="28" y="99" width="1" height="1"/>
<rect x="30" y="99" width="1" height="1"/>
<rect x="33" y="99" width="2" height="1"/>
<rect x="23" y="100" width="2" height="1"/>
<rect x="28" y="100" width="3" height="1"/>
<rect x="32" y="100" width="3" height="1"/>
<rect x="29" y="101" width="6" height="1"/>
<rect x="30" y="102" width="3" height="1"/>
<rect x="30" y="103" width="1" height="1"/>
<rect x="30" y="104" width="1" height="1"/>
<rect x="30" y="105" width="1" height="1"/>
<rect x="22" y="106" width="2" height="1"/>
<rect x="29" y="106" width="5" height="1"/>
<rect x="22" y="107" width="2" height="1"/>
<rect x="28" y="107" width="7" height="1"/>
<rect x="22" y="108" width="2" height="1"/>
<rect x="28" y="108" width="3" height="1"/>
<rect x="33" y="108" width="2" height="1"/>
<rect x="22" y="109" width="2" height="1"/>
<rect x="28" y="109" width="3" height="1"/>
<rect x="33" y="109" width="2" height="1"/>
<rect x="22" y="110" width="2" height="1"/>
<rect x="27" y="110" width="2" height="1"/>
<rect x="30" y="110" width="1" height="1"/>
<rect x="34" y="110" width="1" height="1"/>
<rect x="22" y="111" width="2" height="1"/>
<rect x="27" y="111" width="2" height="1"/>
<rect x="30" y="111" width="1" height="1"/>
<rect x="33" y="111" width="2" height="1"/>
<rect x="22" y="112" width="2" height="1"/>
<rect x="26" y="112" width="2" height="1"/>
<rect x="30" y="112" width="1" height="1"/>
<rect x="33" y="112" width="2" height="1"/>
<rect x="23" y="113" width="5" height="1"/>
<rect x="30" y="113" width="1" height="1"/>
<rect x="33" y="113" width="2" height="1"/>
<rect x="24" y="114" width="3" height="1"/>
<rect x="30" y="114" width="1" height="1"/>
<rect x="32" y="114" width="3" height="1"/>
<rect x="30" y="115" width="1" height="1"/>
<rect x="30" y="116" width="1" height="1"/>
<rect x="30" y="117" width="1" height="1"/>
<rect x="22" y="118" width="2" height="1"/>
<rect x="29" y="118" width="5" height="1"/>
<rect x="22" y="119" width="2" height="1"/>
<rect x="28" y="119" width="7" height="1"/>
<rect x="22" y="120" width="2" height="1"/>
<rect x="28" y="120" width="3" height="1"/>
<rect x="33" y="120" width="2" height="1"/>
<rect x="22" y="121" width="2" height="1"/>
<rect x="28" y="121" width="3" height="1"/>
<rect x="33" y="121" width="2" height="1"/>
<rect x="22" y="122" width="2" height="1"/>
<rect x="27" y="122" width="2" height="1"/>
<rect x="30" y="122" width="1" height="1"/>
<rect x="34" y="122" width="1" height="1"/>
<rect x="22" y="123" width="2" height="1"/>
<rect x="27" y="123" width="2" height="1"/>
<rect x="30" y="123" width="1" height="1"/>
<rect x="33" y="123" width="2" height="1"/>
<rect x="22" y="124" width="2" height="1"/>
<rect x="26" y="124" width="2" height="1"/>
<rect x="30" y="124" width="1" height="1"/>
<rect x="33" y="124" width="2" height="1"/>
<rect x="23" y="125" width="5" height="1"/>
<rect x="30" y="125" width="1" height="1"/>
<rect x="33" y="125" width="2" height="1"/>
<rect x="24" y="126" width="3" height="1"/>
<rect x="30" y="126" width="1" height="1"/>
<rect x="32" y="126" width="3" height="1"/>
<rect x="30" y="127" width="1" height="1"/>
<rect x="30" y="128" width="1" height="1"/>
<rect x="30" y="129" width="1" height="1"/>
<rect x="24" y="130" width="5" height="1"/>
<rect x="30" y="130" width="1" height="1"/>
<rect x="33" y="130" width="1" height="1"/>
<rect x="23" y="131" width="6" height="1"/>
<rect x="30" y="131" width="1" height="1"/>
<rect x="33" y="131" width="2" height="1"/>
<rect x="22" y="132" width="3" height="1"/>
<rect x="27" y="132" width="2" height="1"/>
<rect x="30" y="132" width="1" height="1"/>
<rect x="33" y="132" width="2" height="1"/>
<rect x="22" y="133" width="2" height="1"/>
<rect x="27" y="133" width="2" height="1"/>
<rect x="30" y="133" width="1" height="1"/>
<rect x="33" y="133" width="2" height="1"/>
<rect x="22" y="134" width="2" height="1"/>
<rect x="27" y="134" width="2" height="1"/>
<rect x="30" y="134" width="1" height="1"/>
<rect x="33" y="134" width="2" height="1"/>
<rect x="22" y="135" width="2" height="1"/>
<rect x="27" y="135" width="2" height="1"/>
<rect x="30" y="135" width="1" height="1"/>
<rect x="33" y="135" width="2" height="1"/>
<rect x="22" y="136" width="2" height="1"/>
<rect x="27" y="136" width="2" height="1"/>
<rect x="30" y="136" width="1" height="1"/>
<rect x="33" y="136" width="2" height="1"/>
<rect x="22" y="137" width="3" height="1"/>
<rect x="27" y="137" width="2" height="1"/>
<rect x="30" y="137" width="1" height="1"/>
<rect x="32" y="137" width="3" height="1"/>
<rect x="23" y="138" width="11" height="1"/>
<rect x="24" y="139" width="9" height="1"/>
<rect x="27" y="140" width="4" height="1"/>
<rect x="30" y="141" width="1" height="1"/>
<rect x="30" y="142" width="1" height="1"/>
<rect x="26" y="143" width="9" height="1"/>
<rect x="23" y="144" width="12" height="1"/>
<rect x="22" y="145" width="13" height="1"/>
<rect x="22" y="146" width="2" height="1"/>
<rect x="30" y="146" width="1" height="1"/>
<rect x="22" y="147" width="2" height="1"/>
<rect x="30" y="147" width="1" height="1"/>
<rect x="22" y="148" width="2" height="1"/>
<rect x="30" y="148" width="1" height="1"/>
<rect x="22" y="149" width="2" height="1"/>
<rect x="30" y="149" width="1" height="1"/>
<rect x="23" y="150" width="1" height="1"/>
<rect x="30" y="150" width="1" height="1"/>
<rect x="23" y="151" width="3" height="1"/>
<rect x="30" y="151" width="1" height="1"/>
<rect x="23" y="152" width="12" height="1"/>
<rect x="22" y="153" width="13" height="1"/>
<rect x="22" y="154" width="2" height="1"/>
<rect x="30" y="154" width="1" height="1"/>
<rect x="22" y="155" width="2" height="1"/>
<rect x="30" y="155" width="1" height="1"/>
<rect x="22" y="156" width="2" height="1"/>
<rect x="30" y="156" width="1" height="1"/>
<rect x="22" y="157" width="2" height="1"/>
<rect x="30" y="157" width="1" height="1"/>
<rect x="23" y="158" width="1" height="1"/>
<rect x="30" y="158" width="1" height="1"/>
<rect x="23" y="159" width="3" height="1"/>
<rect x="30" y="159" width="1" height="1"/>
<rect x="22" y="160" width="13" height="1"/>
<rect x="22" y="161" width="13" height="1"/>
<rect x="30" y="162" width="1" height="1"/>
<rect x="30" y="163" width="1" height="1"/>
</g>
</svg>
