<svg xmlns="http://www.w3.org/2000/svg" viewBox="0 0 360 180" width="360" height="180" shape-rendering="crispEdges">
<rect width="100%" height="100%" fill="#fff"/>
<g fill="#111">
<rect x="100" y="16" width="1" height="1"/>
<rect x="70" y="17" width="5" height="1"/>
<rect x="100" y="17" width="1" height="1"/>
<rect x="70" y="18" width="1" height="1"/>
<rect x="75" y="18" width="1" height="1"/>
<rect x="100" y="18" width="1" height="1"/>
<rect x="17" y="19" width="1" height="1"/>
<rect x="19" y="19" width="3" height="1"/>
<rect x="23" y="19" width="3" height="1"/>
<rect x="30" y="19" width="3" height="1"/>
<rect x="36" y="19" width="5" height="1"/>
<rect x="42" y="19" width="5" height="1"/>
<rect x="49" y="19" width="4" height="1"/>
<rect x="56" y="19" width="3" height="1"/>
<rect x="60" y="19" width="1" height="1"/>
<rect x="64" y="19" width="3" height="1"/>
<rect x="70" y="19" width="1" height="1"/>
<rect x="75" y="19" width="1" height="1"/>
<rect x="79" y="19" width="4" height="1"/>
<rect x="85" y="19" width="1" height="1"/>
<rect x="87" y="19" width="3" height="1"/>
<rect x="94" y="19" width="3" height="1"/>
<rect x="100" y="19" width="1" height="1"/>
<rect x="17" y="20" width="2" height="1"/>
<rect x="21" y="20" width="2" height="1"/>
<rect x="26" y="20" width="1" height="1"/>
<rect x="29" y="20" width="1" height="1"/>
<rect x="33" y="20" width="1" height="1"/>
<rect x="36" y="20" width="1" height="1"/>
<rect x="42" y="20" width="1" height="1"/>
<rect x="48" y="20" width="1" height="1"/>
<rect x="52" y="20" width="1" height="1"/>
<rect x="55" y="20" width="1" height="1"/>
<rect x="59" y="20" width="2" height="1"/>
<rect x="63" y="20" width="1" height="1"/>
<rect x="67" y="20" width="1" height="1"/>
<rect x="70" y="20" width="1" height="1"/>
<rect x="75" y="20" width="1" height="1"/>
<rect x="78" y="20" width="1" height="1"/>
<rect x="82" y="20" width="1" height="1"/>
<rect x="85" y="20" width="2" height="1"/>
<rect x="90" y="20" width="1" height="1"/>
<rect x="93" y="20" width="1" height="1"/>
<rect x="97" y="20" width="1" height="1"/>
<rect x="100" y="20" width="1" height="1"/>
<rect x="17" y="21" width="1" height="1"/>
<rect x="22" y="21" width="1" height="1"/>
<rect x="26" y="21" width="1" height="1"/>
<rect x="29" y="21" width="1" height="1"/>
<rect x="33" y="21" width="2" height="1"/>
<rect x="36" y="21" width="1" height="1"/>
<rect x="42" y="21" width="1" height="1"/>
<rect x="52" y="21" width="1" height="1"/>
<rect x="55" y="21" width="1" height="1"/>
<rect x="60" y="21" width="1" height="1"/>
<rect x="63" y="21" width="1" height="1"/>
<rect x="67" y="21" width="2" height="1"/>
<rect x="70" y="21" width="5" height="1"/>
<rect x="82" y="21" width="1" height="1"/>
<rect x="85" y="21" width="1" height="1"/>
<rect x="90" y="21" width="1" height="1"/>
<rect x="93" y="21" width="1" height="1"/>
<rect x="97" y="21" width="2" height="1"/>
<rect x="100" y="21" width="1" height="1"/>
<rect x="17" y="22" width="1" height="1"/>
<rect x="22" y="22" width="1" height="1"/>
<rect x="26" y="22" width="1" height="1"/>
<rect x="29" y="22" width="6" height="1"/>
<rect x="37" y="22" width="3" height="1"/>
<rect x="43" y="22" width="3" height="1"/>
<rect x="48" y="22" width="5" height="1"/>
<rect x="55" y="22" width="1" height="1"/>
<rect x="60" y="22" width="1" height="1"/>
<rect x="63" y="22" width="6" height="1"/>
<rect x="70" y="22" width="1" height="1"/>
<rect x="78" y="22" width="5" height="1"/>
<rect x="85" y="22" width="1" height="1"/>
<rect x="90" y="22" width="1" height="1"/>
<rect x="93" y="22" width="6" height="1"/>
<rect x="100" y="22" width="1" height="1"/>
<rect x="17" y="23" width="1" height="1"/>
<rect x="22" y="23" width="1" height="1"/>
<rect x="26" y="23" width="1" height="1"/>
<rect x="29" y="23" width="1" height="1"/>
<rect x="39" y="23" width="2" height="1"/>
<rect x="45" y="23" width="2" height="1"/>
<rect x="48" y="23" width="1" height="1"/>
<rect x="52" y="23" width="1" height="1"/>
<rect x="55" y="23" width="1" height="1"/>
<rect x="60" y="23" width="1" height="1"/>
<rect x="63" y="23" width="1" height="1"/>
<rect x="70" y="23" width="1" height="1"/>
<rect x="78" y="23" width="1" height="1"/>
<rect x="82" y="23" width="1" height="1"/>
<rect x="85" y="23" width="1" height="1"/>
<rect x="90" y="23" width="1" height="1"/>
<rect x="93" y="23" width="1" height="1"/>
<rect x="100" y="23" width="1" height="1"/>
<rect x="17" y="24" width="1" height="1"/>
<rect x="22" y="24" width="1" height="1"/>
<rect x="26" y="24" width="1" height="1"/>
<rect x="29" y="24" width="1" height="1"/>
<rect x="39" y="24" width="2" height="1"/>
<rect x="45" y="24" width="2" height="1"/>
<rect x="48" y="24" width="1" height="1"/>
<rect x="52" y="24" width="1" height="1"/>
<rect x="55" y="24" width="1" height="1"/>
<rect x="59" y="24" width="2" height="1"/>
<rect x="63" y="24" width="1" height="1"/>
<rect x="70" y="24" width="1" height="1"/>
<rect x="78" y="24" width="1" height="1"/>
<rect x="82" y="24" width="1" height="1"/>
<rect x="85" y="24" width="1" height="1"/>
<rect x="90" y="24" width="1" height="1"/>
<rect x="93" y="24" width="1" height="1"/>
<rect x="100" y="24" width="1" height="1"/>
<rect x="17" y="25" width="1" height="1"/>
<rect x="22" y="25" width="1" height="1"/>
<rect x="26" y="25" width="1" height="1"/>
<rect x="30" y="25" width="4" height="1"/>
<rect x="36" y="25" width="4" height="1"/>
<rect x="42" y="25" width="4" height="1"/>
<rect x="48" y="25" width="5" height="1"/>
<rect x="56" y="25" width="3" height="1"/>
<rect x="60" y="25" width="1" height="1"/>
<rect x="64" y="25" width="4" height="1"/>
<rect x="70" y="25" width="1" height="1"/>
<rect x="78" y="25" width="5" height="1"/>
<rect x="85" y="25" width="1" height="1"/>
<rect x="90" y="25" width="1" height="1"/>
<rect x="94" y="25" width="4" height="1"/>
<rect x="100" y="25" width="1" height="1"/>
<rect x="60" y="26" width="1" height="1"/>
<rect x="59" y="27" width="2" height="1"/>
<rect x="55" y="28" width="5" height="1"/>
<rect x="16" y="30" width="328" height="1"/>
<rect x="173" y="67" width="1" height="1"/>
<rect x="197" y="67" width="1" height="1"/>
<rect x="152" y="68" width="2" height="1"/>
<rect x="159" y="68" width="1" height="1"/>
<rect x="173" y="68" width="1" height="1"/>
<rect x="197" y="68" width="1" height="1"/>
<rect x="152" y="69" width="3" height="1"/>
<rect x="159" y="69" width="1" height="1"/>
<rect x="173" y="69" width="1" height="1"/>
<rect x="197" y="69" width="1" height="1"/>
<rect x="152" y="70" width="1" height="1"/>
<rect x="154" y="70" width="1" height="1"/>
<rect x="159" y="70" width="1" height="1"/>
<rect x="163" y="70" width="4" height="1"/>
<rect x="173" y="70" width="1" height="1"/>
<rect x="175" y="70" width="3" height="1"/>
<rect x="182" y="70" width="4" height="1"/>
<rect x="190" y="70" width="4" height="1"/>
<rect x="197" y="70" width="1" height="1"/>
<rect x="201" y="70" width="2" height="1"/>
<rect x="204" y="70" width="5" height="1"/>
<rect x="152" y="71" width="1" height="1"/>
<rect x="155" y="71" width="1" height="1"/>
<rect x="159" y="71" width="1" height="1"/>
<rect x="162" y="71" width="1" height="1"/>
<rect x="166" y="71" width="2" height="1"/>
<rect x="173" y="71" width="2" height="1"/>
<rect x="178" y="71" width="1" height="1"/>
<rect x="181" y="71" width="1" height="1"/>
<rect x="185" y="71" width="2" height="1"/>
<rect x="189" y="71" width="1" height="1"/>
<rect x="193" y="71" width="2" height="1"/>
<rect x="197" y="71" width="1" height="1"/>
<rect x="200" y="71" width="1" height="1"/>
<rect x="204" y="71" width="1" height="1"/>
<rect x="152" y="72" width="1" height="1"/>
<rect x="155" y="72" width="2" height="1"/>
<rect x="159" y="72" width="1" height="1"/>
<rect x="162" y="72" width="1" height="1"/>
<rect x="167" y="72" width="1" height="1"/>
<rect x="173" y="72" width="1" height="1"/>
<rect x="178" y="72" width="1" height="1"/>
<rect x="181" y="72" width="1" height="1"/>
<rect x="186" y="72" width="1" height="1"/>
<rect x="189" y="72" width="1" height="1"/>
<rect x="194" y="72" width="1" height="1"/>
<rect x="197" y="72" width="1" height="1"/>
<rect x="199" y="72" width="1" height="1"/>
<rect x="204" y="72" width="1" height="1"/>
<rect x="152" y="73" width="1" height="1"/>
<rect x="156" y="73" width="1" height="1"/>
<rect x="159" y="73" width="1" height="1"/>
<rect x="162" y="73" width="1" height="1"/>
<rect x="167" y="73" width="1" height="1"/>
<rect x="173" y="73" width="1" height="1"/>
<rect x="178" y="73" width="1" height="1"/>
<rect x="181" y="73" width="1" height="1"/>
<rect x="186" y="73" width="1" height="1"/>
<rect x="189" y="73" width="1" height="1"/>
<rect x="194" y="73" width="1" height="1"/>
<rect x="197" y="73" width="3" height="1"/>
<rect x="205" y="73" width="3" height="1"/>
<rect x="152" y="74" width="1" height="1"/>
<rect x="157" y="74" width="1" height="1"/>
<rect x="159" y="74" width="1" height="1"/>
<rect x="162" y="74" width="1" height="1"/>
<rect x="167" y="74" width="1" height="1"/>
<rect x="173" y="74" width="1" height="1"/>
<rect x="178" y="74" width="1" height="1"/>
<rect x="181" y="74" width="1" height="1"/>
<rect x="186" y="74" width="1" height="1"/>
<rect x="189" y="74" width="1" height="1"/>
<rect x="194" y="74" width="1" height="1"/>
<rect x="197" y="74" width="1" height="1"/>
<rect x="200" y="74" width="1" height="1"/>
<rect x="207" y="74" width="2" height="1"/>
<rect x="152" y="75" width="1" height="1"/>
<rect x="157" y="75" width="1" height="1"/>
<rect x="159" y="75" width="1" height="1"/>
<rect x="162" y="75" width="1" height="1"/>
<rect x="166" y="75" width="2" height="1"/>
<rect x="173" y="75" width="2" height="1"/>
<rect x="178" y="75" width="1" height="1"/>
<rect x="181" y="75" width="1" height="1"/>
<rect x="185" y="75" width="2" height="1"/>
<rect x="189" y="75" width="1" height="1"/>
<rect x="193" y="75" width="2" height="1"/>
<rect x="197" y="75" width="1" height="1"/>
<rect x="200" y="75" width="2" height="1"/>
<rect x="207" y="75" width="2" height="1"/>
<rect x="152" y="76" width="1" height="1"/>
<rect x="158" y="76" width="2" height="1"/>
<rect x="163" y="76" width="4" height="1"/>
<rect x="173" y="76" width="1" height="1"/>
<rect x="175" y="76" width="3" height="1"/>
<rect x="182" y="76" width="4" height="1"/>
<rect x="190" y="76" width="4" height="1"/>
<rect x="197" y="76" width="1" height="1"/>
<rect x="201" y="76" width="2" height="1"/>
<rect x="204" y="76" width="4" height="1"/>
<rect x="165" y="117" width="5" height="1"/>
<rect x="180" y="117" width="1" height="1"/>
<rect x="165" y="118" width="1" height="1"/>
<rect x="170" y="118" width="1" height="1"/>
<rect x="180" y="118" width="1" height="1"/>
<rect x="165" y="119" width="1" height="1"/>
<rect x="170" y="119" width="1" height="1"/>
<rect x="174" y="119" width="3" height="1"/>
<rect x="179" y="119" width="4" height="1"/>
<rect x="185" y="119" width="1" height="1"/>
<rect x="187" y="119" width="3" height="1"/>
<rect x="194" y="119" width="2" height="1"/>
<rect x="165" y="120" width="1" height="1"/>
<rect x="170" y="120" width="1" height="1"/>
<rect x="173" y="120" width="1" height="1"/>
<rect x="177" y="120" width="1" height="1"/>
<rect x="180" y="120" width="1" height="1"/>
<rect x="185" y="120" width="2" height="1"/>
<rect x="190" y="120" width="1" height="1"/>
<rect x="194" y="120" width="1" height="1"/>
<rect x="165" y="121" width="5" height="1"/>
<rect x="173" y="121" width="1" height="1"/>
<rect x="177" y="121" width="2" height="1"/>
<rect x="180" y="121" width="1" height="1"/>
<rect x="185" y="121" width="1" height="1"/>
<rect x="190" y="121" width="1" height="1"/>
<rect x="193" y="121" width="2" height="1"/>
<rect x="165" y="122" width="1" height="1"/>
<rect x="169" y="122" width="1" height="1"/>
<rect x="173" y="122" width="6" height="1"/>
<rect x="180" y="122" width="1" height="1"/>
<rect x="185" y="122" width="1" height="1"/>
<rect x="190" y="122" width="2" height="1"/>
<rect x="193" y="122" width="1" height="1"/>
<rect x="165" y="123" width="1" height="1"/>
<rect x="169" y="123" width="1" height="1"/>
<rect x="173" y="123" width="1" height="1"/>
<rect x="180" y="123" width="1" height="1"/>
<rect x="185" y="123" width="1" height="1"/>
<rect x="191" y="123" width="1" height="1"/>
<rect x="193" y="123" width="1" height="1"/>
<rect x="165" y="124" width="1" height="1"/>
<rect x="170" y="124" width="1" height="1"/>
<rect x="173" y="124" width="1" height="1"/>
<rect x="180" y="124" width="1" height="1"/>
<rect x="185" y="124" width="1" height="1"/>
<rect x="191" y="124" width="3" height="1"/>
<rect x="165" y="125" width="1" height="1"/>
<rect x="170" y="125" width="2" height="1"/>
<rect x="174" y="125" width="4" height="1"/>
<rect x="181" y="125" width="2" height="1"/>
<rect x="185" y="125" width="1" height="1"/>
<rect x="192" y="125" width="1" height="1"/>
<rect x="192" y="126" width="1" height="1"/>
<rect x="191" y="127" width="1" height="1"/>
<rect x="189" y="128" width="3" height="1"/>
</g>
</svg>
