<svg xmlns="http://www.w3.org/2000/svg" viewBox="0 0 360 180" width="360" height="180" shape-rendering="crispEdges">
<rect width="100%" height="100%" fill="#fff"/>
<g fill="#111">
<rect x="46" y="16" width="1" height="1"/>
<rect x="80" y="16" width="1" height="1"/>
<rect x="36" y="17" width="1" height="1"/>
<rect x="57" y="17" width="5" height="1"/>
<rect x="80" y="17" width="1" height="1"/>
<rect x="36" y="18" width="1" height="1"/>
<rect x="56" y="18" width="1" height="1"/>
<rect x="80" y="18" width="1" height="1"/>
<rect x="17" y="19" width="1" height="1"/>
<rect x="19" y="19" width="3" height="1"/>
<rect x="23" y="19" width="3" height="1"/>
<rect x="30" y="19" width="3" height="1"/>
<rect x="35" y="19" width="4" height="1"/>
<rect x="41" y="19" width="1" height="1"/>
<rect x="43" y="19" width="2" height="1"/>
<rect x="46" y="19" width="1" height="1"/>
<rect x="50" y="19" width="4" height="1"/>
<rect x="55" y="19" width="1" height="1"/>
<rect x="64" y="19" width="4" height="1"/>
<rect x="70" y="19" width="1" height="1"/>
<rect x="72" y="19" width="2" height="1"/>
<rect x="76" y="19" width="3" height="1"/>
<rect x="80" y="19" width="1" height="1"/>
<rect x="17" y="20" width="2" height="1"/>
<rect x="21" y="20" width="2" height="1"/>
<rect x="26" y="20" width="1" height="1"/>
<rect x="29" y="20" width="1" height="1"/>
<rect x="33" y="20" width="1" height="1"/>
<rect x="36" y="20" width="1" height="1"/>
<rect x="41" y="20" width="2" height="1"/>
<rect x="46" y="20" width="1" height="1"/>
<rect x="49" y="20" width="1" height="1"/>
<rect x="55" y="20" width="1" height="1"/>
<rect x="63" y="20" width="1" height="1"/>
<rect x="67" y="20" width="1" height="1"/>
<rect x="70" y="20" width="2" height="1"/>
<rect x="75" y="20" width="1" height="1"/>
<rect x="79" y="20" width="2" height="1"/>
<rect x="17" y="21" width="1" height="1"/>
<rect x="22" y="21" width="1" height="1"/>
<rect x="26" y="21" width="1" height="1"/>
<rect x="29" y="21" width="1" height="1"/>
<rect x="33" y="21" width="2" height="1"/>
<rect x="36" y="21" width="1" height="1"/>
<rect x="41" y="21" width="1" height="1"/>
<rect x="46" y="21" width="1" height="1"/>
<rect x="49" y="21" width="1" height="1"/>
<rect x="55" y="21" width="1" height="1"/>
<rect x="67" y="21" width="1" height="1"/>
<rect x="70" y="21" width="1" height="1"/>
<rect x="75" y="21" width="1" height="1"/>
<rect x="80" y="21" width="1" height="1"/>
<rect x="17" y="22" width="1" height="1"/>
<rect x="22" y="22" width="1" height="1"/>
<rect x="26" y="22" width="1" height="1"/>
<rect x="29" y="22" width="6" height="1"/>
<rect x="36" y="22" width="1" height="1"/>
<rect x="41" y="22" width="1" height="1"/>
<rect x="46" y="22" width="1" height="1"/>
<rect x="49" y="22" width="1" height="1"/>
<rect x="55" y="22" width="1" height="1"/>
<rect x="63" y="22" width="5" height="1"/>
<rect x="70" y="22" width="1" height="1"/>
<rect x="75" y="22" width="1" height="1"/>
<rect x="80" y="22" width="1" height="1"/>
<rect x="17" y="23" width="1" height="1"/>
<rect x="22" y="23" width="1" height="1"/>
<rect x="26" y="23" width="1" height="1"/>
<rect x="29" y="23" width="1" height="1"/>
<rect x="36" y="23" width="1" height="1"/>
<rect x="41" y="23" width="1" height="1"/>
<rect x="46" y="23" width="1" height="1"/>
<rect x="49" y="23" width="1" height="1"/>
<rect x="55" y="23" width="1" height="1"/>
<rect x="63" y="23" width="1" height="1"/>
<rect x="67" y="23" width="1" height="1"/>
<rect x="70" y="23" width="1" height="1"/>
<rect x="75" y="23" width="1" height="1"/>
<rect x="80" y="23" width="1" height="1"/>
<rect x="17" y="24" width="1" height="1"/>
<rect x="22" y="24" width="1" height="1"/>
<rect x="26" y="24" width="1" height="1"/>
<rect x="29" y="24" width="1" height="1"/>
<rect x="36" y="24" width="1" height="1"/>
<rect x="41" y="24" width="1" height="1"/>
<rect x="46" y="24" width="1" height="1"/>
<rect x="49" y="24" width="1" height="1"/>
<rect x="56" y="24" width="1" height="1"/>
<rect x="63" y="24" width="1" height="1"/>
<rect x="67" y="24" width="1" height="1"/>
<rect x="70" y="24" width="1" height="1"/>
<rect x="75" y="24" width="1" height="1"/>
<rect x="79" y="24" width="2" height="1"/>
<rect x="17" y="25" width="1" height="1"/>
<rect x="22" y="25" width="1" height="1"/>
<rect x="26" y="25" width="1" height="1"/>
<rect x="30" y="25" width="4" height="1"/>
<rect x="37" y="25" width="2" height="1"/>
<rect x="41" y="25" width="1" height="1"/>
<rect x="46" y="25" width="1" height="1"/>
<rect x="50" y="25" width="4" height="1"/>
<rect x="57" y="25" width="4" height="1"/>
<rect x="63" y="25" width="5" height="1"/>
<rect x="70" y="25" width="1" height="1"/>
<rect x="76" y="25" width="3" height="1"/>
<rect x="80" y="25" width="1" height="1"/>
<rect x="16" y="30" width="328" height="1"/>
<rect x="193" y="66" width="1" height="1"/>
<rect x="163" y="67" width="4" height="1"/>
<rect x="169" y="67" width="1" height="1"/>
<rect x="193" y="67" width="1" height="1"/>
<rect x="162" y="68" width="1" height="1"/>
<rect x="169" y="68" width="1" height="1"/>
<rect x="193" y="68" width="1" height="1"/>
<rect x="162" y="69" width="1" height="1"/>
<rect x="168" y="69" width="4" height="1"/>
<rect x="174" y="69" width="1" height="1"/>
<rect x="176" y="69" width="2" height="1"/>
<rect x="180" y="69" width="3" height="1"/>
<rect x="187" y="69" width="4" height="1"/>
<rect x="193" y="69" width="1" height="1"/>
<rect x="197" y="69" width="2" height="1"/>
<rect x="162" y="70" width="2" height="1"/>
<rect x="169" y="70" width="1" height="1"/>
<rect x="174" y="70" width="2" height="1"/>
<rect x="179" y="70" width="1" height="1"/>
<rect x="183" y="70" width="1" height="1"/>
<rect x="186" y="70" width="1" height="1"/>
<rect x="190" y="70" width="1" height="1"/>
<rect x="193" y="70" width="1" height="1"/>
<rect x="196" y="70" width="1" height="1"/>
<rect x="163" y="71" width="3" height="1"/>
<rect x="169" y="71" width="1" height="1"/>
<rect x="174" y="71" width="1" height="1"/>
<rect x="179" y="71" width="1" height="1"/>
<rect x="183" y="71" width="2" height="1"/>
<rect x="190" y="71" width="1" height="1"/>
<rect x="193" y="71" width="1" height="1"/>
<rect x="195" y="71" width="1" height="1"/>
<rect x="166" y="72" width="1" height="1"/>
<rect x="169" y="72" width="1" height="1"/>
<rect x="174" y="72" width="1" height="1"/>
<rect x="179" y="72" width="6" height="1"/>
<rect x="186" y="72" width="5" height="1"/>
<rect x="193" y="72" width="3" height="1"/>
<rect x="166" y="73" width="2" height="1"/>
<rect x="169" y="73" width="1" height="1"/>
<rect x="174" y="73" width="1" height="1"/>
<rect x="179" y="73" width="1" height="1"/>
<rect x="186" y="73" width="1" height="1"/>
<rect x="190" y="73" width="1" height="1"/>
<rect x="193" y="73" width="1" height="1"/>
<rect x="196" y="73" width="1" height="1"/>
<rect x="166" y="74" width="1" height="1"/>
<rect x="169" y="74" width="1" height="1"/>
<rect x="174" y="74" width="1" height="1"/>
<rect x="179" y="74" width="1" height="1"/>
<rect x="186" y="74" width="1" height="1"/>
<rect x="190" y="74" width="1" height="1"/>
<rect x="193" y="74" width="1" height="1"/>
<rect x="196" y="74" width="2" height="1"/>
<rect x="162" y="75" width="4" height="1"/>
<rect x="170" y="75" width="2" height="1"/>
<rect x="174" y="75" width="1" height="1"/>
<rect x="180" y="75" width="4" height="1"/>
<rect x="186" y="75" width="5" height="1"/>
<rect x="193" y="75" width="1" height="1"/>
<rect x="197" y="75" width="2" height="1"/>
<rect x="180" y="97" width="1" height="1"/>
<rect x="161" y="98" width="2" height="1"/>
<rect x="167" y="98" width="3" height="1"/>
<rect x="180" y="98" width="1" height="1"/>
<rect x="160" y="99" width="1" height="1"/>
<rect x="162" y="99" width="1" height="1"/>
<rect x="166" y="99" width="1" height="1"/>
<rect x="170" y="99" width="1" height="1"/>
<rect x="180" y="99" width="1" height="1"/>
<rect x="159" y="100" width="1" height="1"/>
<rect x="162" y="100" width="1" height="1"/>
<rect x="170" y="100" width="1" height="1"/>
<rect x="176" y="100" width="3" height="1"/>
<rect x="180" y="100" width="1" height="1"/>
<rect x="184" y="100" width="4" height="1"/>
<rect x="189" y="100" width="1" height="1"/>
<rect x="194" y="100" width="2" height="1"/>
<rect x="197" y="100" width="5" height="1"/>
<rect x="161" y="101" width="2" height="1"/>
<rect x="170" y="101" width="1" height="1"/>
<rect x="175" y="101" width="1" height="1"/>
<rect x="179" y="101" width="2" height="1"/>
<rect x="183" y="101" width="1" height="1"/>
<rect x="187" y="101" width="1" height="1"/>
<rect x="190" y="101" width="1" height="1"/>
<rect x="194" y="101" width="1" height="1"/>
<rect x="197" y="101" width="1" height="1"/>
<rect x="161" y="102" width="2" height="1"/>
<rect x="169" y="102" width="2" height="1"/>
<rect x="175" y="102" width="1" height="1"/>
<rect x="180" y="102" width="1" height="1"/>
<rect x="187" y="102" width="1" height="1"/>
<rect x="190" y="102" width="1" height="1"/>
<rect x="193" y="102" width="2" height="1"/>
<rect x="197" y="102" width="1" height="1"/>
<rect x="161" y="103" width="2" height="1"/>
<rect x="168" y="103" width="2" height="1"/>
<rect x="175" y="103" width="1" height="1"/>
<rect x="180" y="103" width="1" height="1"/>
<rect x="183" y="103" width="5" height="1"/>
<rect x="190" y="103" width="2" height="1"/>
<rect x="193" y="103" width="1" height="1"/>
<rect x="198" y="103" width="3" height="1"/>
<rect x="161" y="104" width="2" height="1"/>
<rect x="167" y="104" width="2" height="1"/>
<rect x="175" y="104" width="1" height="1"/>
<rect x="180" y="104" width="1" height="1"/>
<rect x="183" y="104" width="1" height="1"/>
<rect x="187" y="104" width="1" height="1"/>
<rect x="191" y="104" width="1" height="1"/>
<rect x="193" y="104" width="1" height="1"/>
<rect x="200" y="104" width="2" height="1"/>
<rect x="161" y="105" width="2" height="1"/>
<rect x="166" y="105" width="2" height="1"/>
<rect x="175" y="105" width="1" height="1"/>
<rect x="179" y="105" width="2" height="1"/>
<rect x="183" y="105" width="1" height="1"/>
<rect x="187" y="105" width="1" height="1"/>
<rect x="191" y="105" width="3" height="1"/>
<rect x="200" y="105" width="2" height="1"/>
<rect x="161" y="106" width="2" height="1"/>
<rect x="166" y="106" width="6" height="1"/>
<rect x="176" y="106" width="3" height="1"/>
<rect x="180" y="106" width="1" height="1"/>
<rect x="183" y="106" width="5" height="1"/>
<rect x="192" y="106" width="1" height="1"/>
<rect x="197" y="106" width="4" height="1"/>
<rect x="192" y="107" width="1" height="1"/>
<rect x="191" y="108" width="1" height="1"/>
<rect x="189" y="109" width="3" height="1"/>
<rect x="153" y="128" width="1" height="1"/>
<rect x="161" y="128" width="1" height="1"/>
<rect x="206" y="128" width="1" height="1"/>
<rect x="148" y="129" width="1" height="1"/>
<rect x="153" y="129" width="1" height="1"/>
<rect x="201" y="129" width="1" height="1"/>
<rect x="206" y="129" width="1" height="1"/>
<rect x="148" y="130" width="1" height="1"/>
<rect x="153" y="130" width="1" height="1"/>
<rect x="201" y="130" width="1" height="1"/>
<rect x="206" y="130" width="1" height="1"/>
<rect x="147" y="131" width="4" height="1"/>
<rect x="153" y="131" width="1" height="1"/>
<rect x="155" y="131" width="3" height="1"/>
<rect x="161" y="131" width="1" height="1"/>
<rect x="164" y="131" width="5" height="1"/>
<rect x="173" y="131" width="1" height="1"/>
<rect x="175" y="131" width="3" height="1"/>
<rect x="179" y="131" width="3" height="1"/>
<rect x="186" y="131" width="4" height="1"/>
<rect x="193" y="131" width="1" height="1"/>
<rect x="195" y="131" width="3" height="1"/>
<rect x="200" y="131" width="4" height="1"/>
<rect x="206" y="131" width="1" height="1"/>
<rect x="208" y="131" width="3" height="1"/>
<rect x="148" y="132" width="1" height="1"/>
<rect x="153" y="132" width="2" height="1"/>
<rect x="158" y="132" width="1" height="1"/>
<rect x="161" y="132" width="1" height="1"/>
<rect x="164" y="132" width="1" height="1"/>
<rect x="173" y="132" width="2" height="1"/>
<rect x="177" y="132" width="2" height="1"/>
<rect x="182" y="132" width="1" height="1"/>
<rect x="185" y="132" width="1" height="1"/>
<rect x="189" y="132" width="2" height="1"/>
<rect x="193" y="132" width="2" height="1"/>
<rect x="198" y="132" width="1" height="1"/>
<rect x="201" y="132" width="1" height="1"/>
<rect x="206" y="132" width="2" height="1"/>
<rect x="211" y="132" width="1" height="1"/>
<rect x="148" y="133" width="1" height="1"/>
<rect x="153" y="133" width="1" height="1"/>
<rect x="158" y="133" width="1" height="1"/>
<rect x="161" y="133" width="1" height="1"/>
<rect x="164" y="133" width="1" height="1"/>
<rect x="173" y="133" width="1" height="1"/>
<rect x="178" y="133" width="1" height="1"/>
<rect x="182" y="133" width="1" height="1"/>
<rect x="185" y="133" width="1" height="1"/>
<rect x="190" y="133" width="1" height="1"/>
<rect x="193" y="133" width="1" height="1"/>
<rect x="198" y="133" width="1" height="1"/>
<rect x="201" y="133" width="1" height="1"/>
<rect x="206" y="133" width="1" height="1"/>
<rect x="211" y="133" width="1" height="1"/>
<rect x="148" y="134" width="1" height="1"/>
<rect x="153" y="134" width="1" height="1"/>
<rect x="158" y="134" width="1" height="1"/>
<rect x="161" y="134" width="1" height="1"/>
<rect x="165" y="134" width="3" height="1"/>
<rect x="173" y="134" width="1" height="1"/>
<rect x="178" y="134" width="1" height="1"/>
<rect x="182" y="134" width="1" height="1"/>
<rect x="185" y="134" width="1" height="1"/>
<rect x="190" y="134" width="1" height="1"/>
<rect x="193" y="134" width="1" height="1"/>
<rect x="198" y="134" width="1" height="1"/>
<rect x="201" y="134" width="1" height="1"/>
<rect x="206" y="134" width="1" height="1"/>
<rect x="211" y="134" width="1" height="1"/>
<rect x="148" y="135" width="1" height="1"/>
<rect x="153" y="135" width="1" height="1"/>
<rect x="158" y="135" width="1" height="1"/>
<rect x="161" y="135" width="1" height="1"/>
<rect x="167" y="135" width="2" height="1"/>
<rect x="173" y="135" width="1" height="1"/>
<rect x="178" y="135" width="1" height="1"/>
<rect x="182" y="135" width="1" height="1"/>
<rect x="185" y="135" width="1" height="1"/>
<rect x="190" y="135" width="1" height="1"/>
<rect x="193" y="135" width="1" height="1"/>
<rect x="198" y="135" width="1" height="1"/>
<rect x="201" y="135" width="1" height="1"/>
<rect x="206" y="135" width="1" height="1"/>
<rect x="211" y="135" width="1" height="1"/>
<rect x="148" y="136" width="1" height="1"/>
<rect x="153" y="136" width="1" height="1"/>
<rect x="158" y="136" width="1" height="1"/>
<rect x="161" y="136" width="1" height="1"/>
<rect x="167" y="136" width="2" height="1"/>
<rect x="173" y="136" width="1" height="1"/>
<rect x="178" y="136" width="1" height="1"/>
<rect x="182" y="136" width="1" height="1"/>
<rect x="185" y="136" width="1" height="1"/>
<rect x="189" y="136" width="2" height="1"/>
<rect x="193" y="136" width="1" height="1"/>
<rect x="198" y="136" width="1" height="1"/>
<rect x="201" y="136" width="1" height="1"/>
<rect x="206" y="136" width="1" height="1"/>
<rect x="211" y="136" width="1" height="1"/>
<rect x="149" y="137" width="2" height="1"/>
<rect x="153" y="137" width="1" height="1"/>
<rect x="158" y="137" width="1" height="1"/>
<rect x="161" y="137" width="1" height="1"/>
<rect x="164" y="137" width="4" height="1"/>
<rect x="173" y="137" width="1" height="1"/>
<rect x="178" y="137" width="1" height="1"/>
<rect x="182" y="137" width="1" height="1"/>
<rect x="186" y="137" width="4" height="1"/>
<rect x="193" y="137" width="1" height="1"/>
<rect x="198" y="137" width="1" height="1"/>
<rect x="202" y="137" width="2" height="1"/>
<rect x="206" y="137" width="1" height="1"/>
<rect x="211" y="137" width="1" height="1"/>
</g>
</svg>
