<svg xmlns="http://www.w3.org/2000/svg" viewBox="0 0 360 180" width="360" height="180" shape-rendering="crispEdges">
<rect width="100%" height="100%" fill="#fff"/>
<g fill="#111">
<rect x="30" y="0" width="1" height="1"/>
<rect x="69" y="0" width="9" height="1"/>
<rect x="30" y="1" width="1" height="1"/>
<rect x="71" y="1" width="5" height="1"/>
<rect x="30" y="2" width="1" height="1"/>
<rect x="30" y="3" width="1" height="1"/>
<rect x="30" y="4" width="1" height="1"/>
<rect x="30" y="5" width="1" height="1"/>
<rect x="69" y="5" width="9" height="1"/>
<rect x="30" y="6" width="1" height="1"/>
<rect x="68" y="6" width="11" height="1"/>
<rect x="30" y="7" width="1" height="1"/>
<rect x="67" y="7" width="3" height="1"/>
<rect x="77" y="7" width="3" height="1"/>
<rect x="30" y="8" width="1" height="1"/>
<rect x="67" y="8" width="2" height="1"/>
<rect x="78" y="8" width="2" height="1"/>
<rect x="30" y="9" width="1" height="1"/>
<rect x="67" y="9" width="2" height="1"/>
<rect x="78" y="9" width="2" height="1"/>
<rect x="30" y="10" width="1" height="1"/>
<rect x="67" y="10" width="2" height="1"/>
<rect x="78" y="10" width="2" height="1"/>
<rect x="30" y="11" width="1" height="1"/>
<rect x="67" y="11" width="2" height="1"/>
<rect x="78" y="11" width="2" height="1"/>
<rect x="30" y="12" width="1" height="1"/>
<rect x="68" y="12" width="1" height="1"/>
<rect x="78" y="12" width="2" height="1"/>
<rect x="30" y="13" width="1" height="1"/>
<rect x="68" y="13" width="3" height="1"/>
<rect x="76" y="13" width="3" height="1"/>
<rect x="30" y="14" width="1" height="1"/>
<rect x="62" y="14" width="18" height="1"/>
<rect x="30" y="15" width="1" height="1"/>
<rect x="62" y="15" width="18" height="1"/>
<rect x="30" y="16" width="1" height="1"/>
<rect x="124" y="16" width="5" height="1"/>
<rect x="133" y="16" width="1" height="1"/>
<rect x="30" y="17" width="1" height="1"/>
<rect x="123" y="17" width="6" height="1"/>
<rect x="133" y="17" width="2" height="1"/>
<rect x="22" y="18" width="15" height="1"/>
<rect x="122" y="18" width="3" height="1"/>
<rect x="127" y="18" width="2" height="1"/>
<rect x="133" y="18" width="2" height="1"/>
<rect x="22" y="19" width="17" height="1"/>
<rect x="122" y="19" width="2" height="1"/>
<rect x="127" y="19" width="2" height="1"/>
<rect x="133" y="19" width="2" height="1"/>
<rect x="24" y="20" width="3" height="1"/>
<rect x="30" y="20" width="3" height="1"/>
<rect x="36" y="20" width="4" height="1"/>
<rect x="122" y="20" width="2" height="1"/>
<rect x="127" y="20" width="2" height="1"/>
<rect x="133" y="20" width="2" height="1"/>
<rect x="23" y="21" width="2" height="1"/>
<rect x="30" y="21" width="1" height="1"/>
<rect x="33" y="21" width="1" height="1"/>
<rect x="38" y="21" width="2" height="1"/>
<rect x="122" y="21" width="2" height="1"/>
<rect x="127" y="21" width="2" height="1"/>
<rect x="133" y="21" width="2" height="1"/>
<rect x="22" y="22" width="2" height="1"/>
<rect x="30" y="22" width="1" height="1"/>
<rect x="33" y="22" width="2" height="1"/>
<rect x="39" y="22" width="2" height="1"/>
<rect x="122" y="22" width="2" height="1"/>
<rect x="127" y="22" width="2" height="1"/>
<rect x="133" y="22" width="2" height="1"/>
<rect x="22" y="23" width="2" height="1"/>
<rect x="30" y="23" width="1" height="1"/>
<rect x="33" y="23" width="2" height="1"/>
<rect x="39" y="23" width="2" height="1"/>
<rect x="122" y="23" width="3" height="1"/>
<rect x="127" y="23" width="2" height="1"/>
<rect x="132" y="23" width="3" height="1"/>
<rect x="22" y="24" width="2" height="1"/>
<rect x="30" y="24" width="1" height="1"/>
<rect x="33" y="24" width="2" height="1"/>
<rect x="39" y="24" width="2" height="1"/>
<rect x="123" y="24" width="11" height="1"/>
<rect x="22" y="25" width="2" height="1"/>
<rect x="30" y="25" width="1" height="1"/>
<rect x="33" y="25" width="2" height="1"/>
<rect x="39" y="25" width="2" height="1"/>
<rect x="124" y="25" width="9" height="1"/>
<rect x="22" y="26" width="3" height="1"/>
<rect x="30" y="26" width="1" height="1"/>
<rect x="32" y="26" width="3" height="1"/>
<rect x="39" y="26" width="2" height="1"/>
<rect x="69" y="26" width="5" height="1"/>
<rect x="78" y="26" width="1" height="1"/>
<rect x="127" y="26" width="4" height="1"/>
<rect x="23" y="27" width="11" height="1"/>
<rect x="38" y="27" width="2" height="1"/>
<rect x="68" y="27" width="6" height="1"/>
<rect x="78" y="27" width="2" height="1"/>
<rect x="24" y="28" width="9" height="1"/>
<rect x="38" y="28" width="2" height="1"/>
<rect x="67" y="28" width="3" height="1"/>
<rect x="72" y="28" width="2" height="1"/>
<rect x="78" y="28" width="2" height="1"/>
<rect x="26" y="29" width="5" height="1"/>
<rect x="67" y="29" width="2" height="1"/>
<rect x="72" y="29" width="2" height="1"/>
<rect x="78" y="29" width="2" height="1"/>
<rect x="123" y="29" width="2" height="1"/>
<rect x="134" y="29" width="2" height="1"/>
<rect x="30" y="30" width="1" height="1"/>
<rect x="67" y="30" width="2" height="1"/>
<rect x="72" y="30" width="2" height="1"/>
<rect x="78" y="30" width="2" height="1"/>
<rect x="123" y="30" width="2" height="1"/>
<rect x="134" y="30" width="2" height="1"/>
<rect x="30" y="31" width="1" height="1"/>
<rect x="67" y="31" width="2" height="1"/>
<rect x="72" y="31" width="2" height="1"/>
<rect x="78" y="31" width="2" height="1"/>
<rect x="123" y="31" width="2" height="1"/>
<rect x="134" y="31" width="2" height="1"/>
<rect x="30" y="32" width="1" height="1"/>
<rect x="67" y="32" width="2" height="1"/>
<rect x="72" y="32" width="2" height="1"/>
<rect x="78" y="32" width="2" height="1"/>
<rect x="123" y="32" width="2" height="1"/>
<rect x="133" y="32" width="3" height="1"/>
<rect x="25" y="33" width="7" height="1"/>
<rect x="67" y="33" width="3" height="1"/>
<rect x="72" y="33" width="2" height="1"/>
<rect x="77" y="33" width="3" height="1"/>
<rect x="120" y="33" width="16" height="1"/>
<rect x="24" y="34" width="10" height="1"/>
<rect x="68" y="34" width="11" height="1"/>
<rect x="122" y="34" width="12" height="1"/>
<rect x="23" y="35" width="3" height="1"/>
<rect x="30" y="35" width="4" height="1"/>
<rect x="69" y="35" width="9" height="1"/>
<rect x="123" y="35" width="2" height="1"/>
<rect x="22" y="36" width="2" height="1"/>
<rect x="30" y="36" width="1" height="1"/>
<rect x="33" y="36" width="2" height="1"/>
<rect x="72" y="36" width="4" height="1"/>
<rect x="124" y="36" width="1" height="1"/>
<rect x="22" y="37" width="2" height="1"/>
<rect x="30" y="37" width="1" height="1"/>
<rect x="33" y="37" width="2" height="1"/>
<rect x="22" y="38" width="2" height="1"/>
<rect x="30" y="38" width="1" height="1"/>
<rect x="33" y="38" width="2" height="1"/>
<rect x="22" y="39" width="2" height="1"/>
<rect x="30" y="39" width="1" height="1"/>
<rect x="33" y="39" width="2" height="1"/>
<rect x="68" y="39" width="2" height="1"/>
<rect x="79" y="39" width="2" height="1"/>
<rect x="124" y="39" width="5" height="1"/>
<rect x="133" y="39" width="1" height="1"/>
<rect x="22" y="40" width="2" height="1"/>
<rect x="30" y="40" width="1" height="1"/>
<rect x="33" y="40" width="2" height="1"/>
<rect x="68" y="40" width="2" height="1"/>
<rect x="79" y="40" width="2" height="1"/>
<rect x="123" y="40" width="6" height="1"/>
<rect x="133" y="40" width="2" height="1"/>
<rect x="22" y="41" width="3" height="1"/>
<rect x="30" y="41" width="1" height="1"/>
<rect x="32" y="41" width="3" height="1"/>
<rect x="68" y="41" width="2" height="1"/>
<rect x="79" y="41" width="2" height="1"/>
<rect x="122" y="41" width="3" height="1"/>
<rect x="127" y="41" width="2" height="1"/>
<rect x="133" y="41" width="2" height="1"/>
<rect x="23" y="42" width="11" height="1"/>
<rect x="68" y="42" width="2" height="1"/>
<rect x="78" y="42" width="3" height="1"/>
<rect x="122" y="42" width="2" height="1"/>
<rect x="127" y="42" width="2" height="1"/>
<rect x="133" y="42" width="2" height="1"/>
<rect x="24" y="43" width="9" height="1"/>
<rect x="65" y="43" width="16" height="1"/>
<rect x="122" y="43" width="2" height="1"/>
<rect x="127" y="43" width="2" height="1"/>
<rect x="133" y="43" width="2" height="1"/>
<rect x="26" y="44" width="5" height="1"/>
<rect x="67" y="44" width="12" height="1"/>
<rect x="122" y="44" width="2" height="1"/>
<rect x="127" y="44" width="2" height="1"/>
<rect x="133" y="44" width="2" height="1"/>
<rect x="30" y="45" width="1" height="1"/>
<rect x="68" y="45" width="2" height="1"/>
<rect x="122" y="45" width="2" height="1"/>
<rect x="127" y="45" width="2" height="1"/>
<rect x="133" y="45" width="2" height="1"/>
<rect x="30" y="46" width="1" height="1"/>
<rect x="69" y="46" width="1" height="1"/>
<rect x="122" y="46" width="3" height="1"/>
<rect x="127" y="46" width="2" height="1"/>
<rect x="132" y="46" width="3" height="1"/>
<rect x="30" y="47" width="1" height="1"/>
<rect x="123" y="47" width="11" height="1"/>
<rect x="17" y="48" width="18" height="1"/>
<rect x="124" y="48" width="9" height="1"/>
<rect x="17" y="49" width="18" height="1"/>
<rect x="69" y="49" width="5" height="1"/>
<rect x="78" y="49" width="1" height="1"/>
<rect x="127" y="49" width="4" height="1"/>
<rect x="30" y="50" width="1" height="1"/>
<rect x="68" y="50" width="6" height="1"/>
<rect x="78" y="50" width="2" height="1"/>
<rect x="30" y="51" width="1" height="1"/>
<rect x="67" y="51" width="3" height="1"/>
<rect x="72" y="51" width="2" height="1"/>
<rect x="78" y="51" width="2" height="1"/>
<rect x="30" y="52" width="1" height="1"/>
<rect x="67" y="52" width="2" height="1"/>
<rect x="72" y="52" width="2" height="1"/>
<rect x="78" y="52" width="2" height="1"/>
<rect x="26" y="53" width="9" height="1"/>
<rect x="67" y="53" width="2" height="1"/>
<rect x="72" y="53" width="2" height="1"/>
<rect x="78" y="53" width="2" height="1"/>
<rect x="117" y="53" width="18" height="1"/>
<rect x="23" y="54" width="12" height="1"/>
<rect x="67" y="54" width="2" height="1"/>
<rect x="72" y="54" width="2" height="1"/>
<rect x="78" y="54" width="2" height="1"/>
<rect x="117" y="54" width="18" height="1"/>
<rect x="22" y="55" width="11" height="1"/>
<rect x="67" y="55" width="2" height="1"/>
<rect x="72" y="55" width="2" height="1"/>
<rect x="78" y="55" width="2" height="1"/>
<rect x="22" y="56" width="2" height="1"/>
<rect x="27" y="56" width="2" height="1"/>
<rect x="30" y="56" width="1" height="1"/>
<rect x="32" y="56" width="2" height="1"/>
<rect x="67" y="56" width="3" height="1"/>
<rect x="72" y="56" width="2" height="1"/>
<rect x="77" y="56" width="3" height="1"/>
<rect x="22" y="57" width="2" height="1"/>
<rect x="27" y="57" width="2" height="1"/>
<rect x="30" y="57" width="1" height="1"/>
<rect x="33" y="57" width="2" height="1"/>
<rect x="68" y="57" width="11" height="1"/>
<rect x="22" y="58" width="2" height="1"/>
<rect x="27" y="58" width="2" height="1"/>
<rect x="30" y="58" width="1" height="1"/>
<rect x="33" y="58" width="2" height="1"/>
<rect x="69" y="58" width="9" height="1"/>
<rect x="22" y="59" width="2" height="1"/>
<rect x="27" y="59" width="2" height="1"/>
<rect x="30" y="59" width="1" height="1"/>
<rect x="34" y="59" width="1" height="1"/>
<rect x="72" y="59" width="4" height="1"/>
<rect x="124" y="59" width="5" height="1"/>
<rect x="133" y="59" width="1" height="1"/>
<rect x="22" y="60" width="2" height="1"/>
<rect x="28" y="60" width="1" height="1"/>
<rect x="30" y="60" width="1" height="1"/>
<rect x="33" y="60" width="2" height="1"/>
<rect x="123" y="60" width="6" height="1"/>
<rect x="133" y="60" width="2" height="1"/>
<rect x="23" y="61" width="2" height="1"/>
<rect x="28" y="61" width="3" height="1"/>
<rect x="32" y="61" width="3" height="1"/>
<rect x="122" y="61" width="3" height="1"/>
<rect x="127" y="61" width="2" height="1"/>
<rect x="133" y="61" width="2" height="1"/>
<rect x="29" y="62" width="6" height="1"/>
<rect x="122" y="62" width="2" height="1"/>
<rect x="127" y="62" width="2" height="1"/>
<rect x="133" y="62" width="2" height="1"/>
<rect x="30" y="63" width="3" height="1"/>
<rect x="62" y="63" width="18" height="1"/>
<rect x="122" y="63" width="2" height="1"/>
<rect x="127" y="63" width="2" height="1"/>
<rect x="133" y="63" width="2" height="1"/>
<rect x="30" y="64" width="1" height="1"/>
<rect x="62" y="64" width="18" height="1"/>
<rect x="122" y="64" width="2" height="1"/>
<rect x="127" y="64" width="2" height="1"/>
<rect x="133" y="64" width="2" height="1"/>
<rect x="30" y="65" width="1" height="1"/>
<rect x="122" y="65" width="2" height="1"/>
<rect x="127" y="65" width="2" height="1"/>
<rect x="133" y="65" width="2" height="1"/>
<rect x="30" y="66" width="1" height="1"/>
<rect x="122" y="66" width="3" height="1"/>
<rect x="127" y="66" width="2" height="1"/>
<rect x="132" y="66" width="3" height="1"/>
<rect x="18" y="67" width="3" height="1"/>
<rect x="23" y="67" width="13" height="1"/>
<rect x="123" y="67" width="11" height="1"/>
<rect x="18" y="68" width="3" height="1"/>
<rect x="23" y="68" width="13" height="1"/>
<rect x="124" y="68" width="9" height="1"/>
<rect x="30" y="69" width="1" height="1"/>
<rect x="69" y="69" width="5" height="1"/>
<rect x="78" y="69" width="1" height="1"/>
<rect x="127" y="69" width="4" height="1"/>
<rect x="30" y="70" width="1" height="1"/>
<rect x="68" y="70" width="6" height="1"/>
<rect x="78" y="70" width="2" height="1"/>
<rect x="30" y="71" width="1" height="1"/>
<rect x="67" y="71" width="3" height="1"/>
<rect x="72" y="71" width="2" height="1"/>
<rect x="78" y="71" width="2" height="1"/>
<rect x="30" y="72" width="1" height="1"/>
<rect x="67" y="72" width="2" height="1"/>
<rect x="72" y="72" width="2" height="1"/>
<rect x="78" y="72" width="2" height="1"/>
<rect x="23" y="73" width="8" height="1"/>
<rect x="67" y="73" width="2" height="1"/>
<rect x="72" y="73" width="2" height="1"/>
<rect x="78" y="73" width="2" height="1"/>
<rect x="123" y="73" width="7" height="1"/>
<rect x="21" y="74" width="11" height="1"/>
<rect x="67" y="74" width="2" height="1"/>
<rect x="72" y="74" width="2" height="1"/>
<rect x="78" y="74" width="2" height="1"/>
<rect x="121" y="74" width="11" height="1"/>
<rect x="20" y="75" width="4" height="1"/>
<rect x="29" y="75" width="4" height="1"/>
<rect x="67" y="75" width="2" height="1"/>
<rect x="72" y="75" width="2" height="1"/>
<rect x="78" y="75" width="2" height="1"/>
<rect x="120" y="75" width="4" height="1"/>
<rect x="129" y="75" width="4" height="1"/>
<rect x="19" y="76" width="3" height="1"/>
<rect x="30" y="76" width="4" height="1"/>
<rect x="67" y="76" width="3" height="1"/>
<rect x="72" y="76" width="2" height="1"/>
<rect x="77" y="76" width="3" height="1"/>
<rect x="119" y="76" width="3" height="1"/>
<rect x="131" y="76" width="3" height="1"/>
<rect x="19" y="77" width="2" height="1"/>
<rect x="30" y="77" width="1" height="1"/>
<rect x="32" y="77" width="2" height="1"/>
<rect x="68" y="77" width="11" height="1"/>
<rect x="119" y="77" width="2" height="1"/>
<rect x="132" y="77" width="2" height="1"/>
<rect x="18" y="78" width="2" height="1"/>
<rect x="30" y="78" width="1" height="1"/>
<rect x="32" y="78" width="3" height="1"/>
<rect x="69" y="78" width="9" height="1"/>
<rect x="118" y="78" width="2" height="1"/>
<rect x="132" y="78" width="3" height="1"/>
<rect x="18" y="79" width="2" height="1"/>
<rect x="30" y="79" width="1" height="1"/>
<rect x="33" y="79" width="2" height="1"/>
<rect x="72" y="79" width="4" height="1"/>
<rect x="118" y="79" width="2" height="1"/>
<rect x="133" y="79" width="2" height="1"/>
<rect x="18" y="80" width="2" height="1"/>
<rect x="30" y="80" width="1" height="1"/>
<rect x="33" y="80" width="2" height="1"/>
<rect x="118" y="80" width="2" height="1"/>
<rect x="133" y="80" width="2" height="1"/>
<rect x="18" y="81" width="2" height="1"/>
<rect x="30" y="81" width="1" height="1"/>
<rect x="33" y="81" width="2" height="1"/>
<rect x="118" y="81" width="2" height="1"/>
<rect x="133" y="81" width="2" height="1"/>
<rect x="18" y="82" width="2" height="1"/>
<rect x="30" y="82" width="1" height="1"/>
<rect x="33" y="82" width="2" height="1"/>
<rect x="118" y="82" width="2" height="1"/>
<rect x="133" y="82" width="2" height="1"/>
<rect x="18" y="83" width="2" height="1"/>
<rect x="30" y="83" width="1" height="1"/>
<rect x="33" y="83" width="2" height="1"/>
<rect x="68" y="83" width="7" height="1"/>
<rect x="118" y="83" width="2" height="1"/>
<rect x="133" y="83" width="2" height="1"/>
<rect x="18" y="84" width="2" height="1"/>
<rect x="30" y="84" width="1" height="1"/>
<rect x="33" y="84" width="2" height="1"/>
<rect x="66" y="84" width="11" height="1"/>
<rect x="118" y="84" width="2" height="1"/>
<rect x="133" y="84" width="2" height="1"/>
<rect x="18" y="85" width="17" height="1"/>
<rect x="65" y="85" width="4" height="1"/>
<rect x="74" y="85" width="4" height="1"/>
<rect x="118" y="85" width="17" height="1"/>
<rect x="18" y="86" width="17" height="1"/>
<rect x="64" y="86" width="3" height="1"/>
<rect x="76" y="86" width="3" height="1"/>
<rect x="118" y="86" width="17" height="1"/>
<rect x="30" y="87" width="1" height="1"/>
<rect x="64" y="87" width="2" height="1"/>
<rect x="77" y="87" width="2" height="1"/>
<rect x="30" y="88" width="1" height="1"/>
<rect x="63" y="88" width="2" height="1"/>
<rect x="77" y="88" width="3" height="1"/>
<rect x="30" y="89" width="1" height="1"/>
<rect x="63" y="89" width="2" height="1"/>
<rect x="78" y="89" width="2" height="1"/>
<rect x="30" y="90" width="1" height="1"/>
<rect x="63" y="90" width="2" height="1"/>
<rect x="78" y="90" width="2" height="1"/>
<rect x="24" y="91" width="11" height="1"/>
<rect x="63" y="91" width="2" height="1"/>
<rect x="78" y="91" width="2" height="1"/>
<rect x="23" y="92" width="12" height="1"/>
<rect x="63" y="92" width="2" height="1"/>
<rect x="78" y="92" width="2" height="1"/>
<rect x="22" y="93" width="3" height="1"/>
<rect x="30" y="93" width="1" height="1"/>
<rect x="63" y="93" width="2" height="1"/>
<rect x="78" y="93" width="2" height="1"/>
<rect x="22" y="94" width="2" height="1"/>
<rect x="30" y="94" width="1" height="1"/>
<rect x="63" y="94" width="2" height="1"/>
<rect x="78" y="94" width="2" height="1"/>
<rect x="22" y="95" width="2" height="1"/>
<rect x="30" y="95" width="1" height="1"/>
<rect x="63" y="95" width="17" height="1"/>
<rect x="22" y="96" width="2" height="1"/>
<rect x="30" y="96" width="1" height="1"/>
<rect x="63" y="96" width="17" height="1"/>
<rect x="22" y="97" width="2" height="1"/>
<rect x="30" y="97" width="1" height="1"/>
<rect x="23" y="98" width="1" height="1"/>
<rect x="30" y="98" width="1" height="1"/>
<rect x="23" y="99" width="3" height="1"/>
<rect x="30" y="99" width="1" height="1"/>
<rect x="22" y="100" width="13" height="1"/>
<rect x="22" y="101" width="13" height="1"/>
<rect x="30" y="102" width="1" height="1"/>
<rect x="30" y="103" width="1" height="1"/>
<rect x="30" y="104" width="1" height="1"/>
<rect x="30" y="105" width="1" height="1"/>
<rect x="25" y="106" width="7" height="1"/>
<rect x="24" y="107" width="10" height="1"/>
<rect x="23" y="108" width="3" height="1"/>
<rect x="30" y="108" width="4" height="1"/>
<rect x="22" y="109" width="2" height="1"/>
<rect x="30" y="109" width="1" height="1"/>
<rect x="33" y="109" width="2" height="1"/>
<rect x="22" y="110" width="2" height="1"/>
<rect x="30" y="110" width="1" height="1"/>
<rect x="33" y="110" width="2" height="1"/>
<rect x="22" y="111" width="2" height="1"/>
<rect x="30" y="111" width="1" height="1"/>
<rect x="33" y="111" width="2" height="1"/>
<rect x="22" y="112" width="2" height="1"/>
<rect x="30" y="112" width="1" height="1"/>
<rect x="33" y="112" width="2" height="1"/>
<rect x="22" y="113" width="2" height="1"/>
<rect x="30" y="113" width="1" height="1"/>
<rect x="33" y="113" width="2" height="1"/>
<rect x="22" y="114" width="3" height="1"/>
<rect x="30" y="114" width="1" height="1"/>
<rect x="32" y="114" width="3" height="1"/>
<rect x="23" y="115" width="11" height="1"/>
<rect x="24" y="116" width="9" height="1"/>
<rect x="26" y="117" width="5" height="1"/>
<rect x="30" y="118" width="1" height="1"/>
<rect x="30" y="119" width="1" height="1"/>
<rect x="30" y="120" width="1" height="1"/>
<rect x="18" y="121" width="3" height="1"/>
<rect x="23" y="121" width="13" height="1"/>
<rect x="18" y="122" width="3" height="1"/>
<rect x="23" y="122" width="13" height="1"/>
<rect x="30" y="123" width="1" height="1"/>
<rect x="30" y="124" width="1" height="1"/>
<rect x="30" y="125" width="1" height="1"/>
<rect x="23" y="126" width="2" height="1"/>
<rect x="30" y="126" width="1" height="1"/>
<rect x="34" y="126" width="2" height="1"/>
<rect x="23" y="127" width="2" height="1"/>
<rect x="30" y="127" width="1" height="1"/>
<rect x="34" y="127" width="2" height="1"/>
<rect x="23" y="128" width="2" height="1"/>
<rect x="30" y="128" width="1" height="1"/>
<rect x="34" y="128" width="2" height="1"/>
<rect x="23" y="129" width="2" height="1"/>
<rect x="30" y="129" width="1" height="1"/>
<rect x="33" y="129" width="3" height="1"/>
<rect x="20" y="130" width="16" height="1"/>
<rect x="22" y="131" width="12" height="1"/>
<rect x="23" y="132" width="2" height="1"/>
<rect x="30" y="132" width="1" height="1"/>
<rect x="24" y="133" width="1" height="1"/>
<rect x="30" y="133" width="1" height="1"/>
<rect x="30" y="134" width="1" height="1"/>
<rect x="30" y="135" width="1" height="1"/>
<rect x="24" y="136" width="9" height="1"/>
<rect x="23" y="137" width="11" height="1"/>
<rect x="22" y="138" width="3" height="1"/>
<rect x="30" y="138" width="1" height="1"/>
<rect x="32" y="138" width="3" height="1"/>
<rect x="22" y="139" width="2" height="1"/>
<rect x="30" y="139" width="1" height="1"/>
<rect x="33" y="139" width="2" height="1"/>
<rect x="22" y="140" width="2" height="1"/>
<rect x="30" y="140" width="1" height="1"/>
<rect x="33" y="140" width="2" height="1"/>
<rect x="22" y="141" width="2" height="1"/>
<rect x="30" y="141" width="1" height="1"/>
<rect x="33" y="141" width="2" height="1"/>
<rect x="22" y="142" width="2" height="1"/>
<rect x="30" y="142" width="1" height="1"/>
<rect x="33" y="142" width="2" height="1"/>
<rect x="23" y="143" width="1" height="1"/>
<rect x="30" y="143" width="1" height="1"/>
<rect x="33" y="143" width="2" height="1"/>
<rect x="23" y="144" width="3" height="1"/>
<rect x="30" y="144" width="4" height="1"/>
<rect x="22" y="145" width="19" height="1"/>
<rect x="22" y="146" width="19" height="1"/>
<rect x="30" y="147" width="1" height="1"/>
<rect x="30" y="148" width="1" height="1"/>
<rect x="30" y="149" width="1" height="1"/>
<rect x="30" y="150" width="1" height="1"/>
<rect x="25" y="151" width="7" height="1"/>
<rect x="24" y="152" width="10" height="1"/>
<rect x="23" y="153" width="3" height="1"/>
<rect x="30" y="153" width="4" height="1"/>
<rect x="22" y="154" width="2" height="1"/>
<rect x="30" y="154" width="1" height="1"/>
<rect x="33" y="154" width="2" height="1"/>
<rect x="22" y="155" width="2" height="1"/>
<rect x="30" y="155" width="1" height="1"/>
<rect x="33" y="155" width="2" height="1"/>
<rect x="22" y="156" width="2" height="1"/>
<rect x="30" y="156" width="1" height="1"/>
<rect x="33" y="156" width="2" height="1"/>
<rect x="22" y="157" width="2" height="1"/>
<rect x="30" y="157" width="1" height="1"/>
<rect x="33" y="157" width="2" height="1"/>
<rect x="22" y="158" width="2" height="1"/>
<rect x="30" y="158" width="1" height="1"/>
<rect x="33" y="158" width="2" height="1"/>
<rect x="22" y="159" width="3" height="1"/>
<rect x="30" y="159" width="1" height="1"/>
<rect x="32" y="159" width="3" height="1"/>
<rect x="23" y="160" width="11" height="1"/>
<rect x="24" y="161" width="9" height="1"/>
<rect x="26" y="162" width="5" height="1"/>
<rect x="30" y="163" width="1" height="1"/>
</g>
</svg>
