<svg xmlns="http://www.w3.org/2000/svg" viewBox="0 0 360 180" width="360" height="180" shape-rendering="crispEdges">
<rect width="100%" height="100%" fill="#fff"/>
<g fill="#111">
<rect x="38" y="16" width="1" height="1"/>
<rect x="66" y="16" width="1" height="1"/>
<rect x="76" y="16" width="1" height="1"/>
<rect x="33" y="17" width="1" height="1"/>
<rect x="57" y="17" width="6" height="1"/>
<rect x="76" y="17" width="1" height="1"/>
<rect x="33" y="18" width="1" height="1"/>
<rect x="57" y="18" width="1" height="1"/>
<rect x="62" y="18" width="2" height="1"/>
<rect x="76" y="18" width="1" height="1"/>
<rect x="18" y="19" width="4" height="1"/>
<rect x="25" y="19" width="1" height="1"/>
<rect x="27" y="19" width="3" height="1"/>
<rect x="32" y="19" width="4" height="1"/>
<rect x="38" y="19" width="1" height="1"/>
<rect x="42" y="19" width="4" height="1"/>
<rect x="49" y="19" width="1" height="1"/>
<rect x="51" y="19" width="3" height="1"/>
<rect x="57" y="19" width="1" height="1"/>
<rect x="63" y="19" width="1" height="1"/>
<rect x="66" y="19" width="1" height="1"/>
<rect x="70" y="19" width="4" height="1"/>
<rect x="76" y="19" width="1" height="1"/>
<rect x="80" y="19" width="4" height="1"/>
<rect x="88" y="19" width="3" height="1"/>
<rect x="92" y="19" width="1" height="1"/>
<rect x="17" y="20" width="1" height="1"/>
<rect x="21" y="20" width="2" height="1"/>
<rect x="25" y="20" width="2" height="1"/>
<rect x="30" y="20" width="1" height="1"/>
<rect x="33" y="20" width="1" height="1"/>
<rect x="38" y="20" width="1" height="1"/>
<rect x="41" y="20" width="1" height="1"/>
<rect x="45" y="20" width="2" height="1"/>
<rect x="49" y="20" width="2" height="1"/>
<rect x="54" y="20" width="1" height="1"/>
<rect x="57" y="20" width="1" height="1"/>
<rect x="63" y="20" width="2" height="1"/>
<rect x="66" y="20" width="1" height="1"/>
<rect x="69" y="20" width="1" height="1"/>
<rect x="73" y="20" width="1" height="1"/>
<rect x="76" y="20" width="1" height="1"/>
<rect x="79" y="20" width="1" height="1"/>
<rect x="83" y="20" width="2" height="1"/>
<rect x="87" y="20" width="1" height="1"/>
<rect x="91" y="20" width="2" height="1"/>
<rect x="17" y="21" width="1" height="1"/>
<rect x="22" y="21" width="1" height="1"/>
<rect x="25" y="21" width="1" height="1"/>
<rect x="30" y="21" width="1" height="1"/>
<rect x="33" y="21" width="1" height="1"/>
<rect x="38" y="21" width="1" height="1"/>
<rect x="41" y="21" width="1" height="1"/>
<rect x="46" y="21" width="1" height="1"/>
<rect x="49" y="21" width="1" height="1"/>
<rect x="54" y="21" width="1" height="1"/>
<rect x="57" y="21" width="1" height="1"/>
<rect x="63" y="21" width="2" height="1"/>
<rect x="66" y="21" width="1" height="1"/>
<rect x="73" y="21" width="1" height="1"/>
<rect x="76" y="21" width="1" height="1"/>
<rect x="79" y="21" width="1" height="1"/>
<rect x="84" y="21" width="1" height="1"/>
<rect x="87" y="21" width="1" height="1"/>
<rect x="92" y="21" width="1" height="1"/>
<rect x="17" y="22" width="1" height="1"/>
<rect x="22" y="22" width="1" height="1"/>
<rect x="25" y="22" width="1" height="1"/>
<rect x="30" y="22" width="1" height="1"/>
<rect x="33" y="22" width="1" height="1"/>
<rect x="38" y="22" width="1" height="1"/>
<rect x="41" y="22" width="1" height="1"/>
<rect x="46" y="22" width="1" height="1"/>
<rect x="49" y="22" width="1" height="1"/>
<rect x="54" y="22" width="1" height="1"/>
<rect x="57" y="22" width="1" height="1"/>
<rect x="63" y="22" width="2" height="1"/>
<rect x="66" y="22" width="1" height="1"/>
<rect x="69" y="22" width="5" height="1"/>
<rect x="76" y="22" width="1" height="1"/>
<rect x="79" y="22" width="1" height="1"/>
<rect x="84" y="22" width="1" height="1"/>
<rect x="87" y="22" width="1" height="1"/>
<rect x="92" y="22" width="1" height="1"/>
<rect x="17" y="23" width="1" height="1"/>
<rect x="22" y="23" width="1" height="1"/>
<rect x="25" y="23" width="1" height="1"/>
<rect x="30" y="23" width="1" height="1"/>
<rect x="33" y="23" width="1" height="1"/>
<rect x="38" y="23" width="1" height="1"/>
<rect x="41" y="23" width="1" height="1"/>
<rect x="46" y="23" width="1" height="1"/>
<rect x="49" y="23" width="1" height="1"/>
<rect x="54" y="23" width="1" height="1"/>
<rect x="57" y="23" width="1" height="1"/>
<rect x="63" y="23" width="1" height="1"/>
<rect x="66" y="23" width="1" height="1"/>
<rect x="69" y="23" width="1" height="1"/>
<rect x="73" y="23" width="1" height="1"/>
<rect x="76" y="23" width="1" height="1"/>
<rect x="79" y="23" width="1" height="1"/>
<rect x="84" y="23" width="1" height="1"/>
<rect x="87" y="23" width="1" height="1"/>
<rect x="92" y="23" width="1" height="1"/>
<rect x="17" y="24" width="1" height="1"/>
<rect x="21" y="24" width="2" height="1"/>
<rect x="25" y="24" width="2" height="1"/>
<rect x="29" y="24" width="2" height="1"/>
<rect x="33" y="24" width="1" height="1"/>
<rect x="38" y="24" width="1" height="1"/>
<rect x="41" y="24" width="1" height="1"/>
<rect x="45" y="24" width="2" height="1"/>
<rect x="49" y="24" width="1" height="1"/>
<rect x="54" y="24" width="1" height="1"/>
<rect x="57" y="24" width="1" height="1"/>
<rect x="62" y="24" width="2" height="1"/>
<rect x="66" y="24" width="1" height="1"/>
<rect x="69" y="24" width="1" height="1"/>
<rect x="73" y="24" width="1" height="1"/>
<rect x="76" y="24" width="1" height="1"/>
<rect x="79" y="24" width="1" height="1"/>
<rect x="83" y="24" width="2" height="1"/>
<rect x="87" y="24" width="1" height="1"/>
<rect x="91" y="24" width="2" height="1"/>
<rect x="18" y="25" width="4" height="1"/>
<rect x="25" y="25" width="1" height="1"/>
<rect x="27" y="25" width="3" height="1"/>
<rect x="34" y="25" width="2" height="1"/>
<rect x="38" y="25" width="1" height="1"/>
<rect x="42" y="25" width="4" height="1"/>
<rect x="49" y="25" width="1" height="1"/>
<rect x="54" y="25" width="1" height="1"/>
<rect x="57" y="25" width="5" height="1"/>
<rect x="66" y="25" width="1" height="1"/>
<rect x="69" y="25" width="5" height="1"/>
<rect x="76" y="25" width="1" height="1"/>
<rect x="80" y="25" width="4" height="1"/>
<rect x="88" y="25" width="3" height="1"/>
<rect x="92" y="25" width="1" height="1"/>
<rect x="25" y="26" width="1" height="1"/>
<rect x="92" y="26" width="1" height="1"/>
<rect x="25" y="27" width="1" height="1"/>
<rect x="91" y="27" width="2" height="1"/>
<rect x="25" y="28" width="1" height="1"/>
<rect x="87" y="28" width="5" height="1"/>
<rect x="16" y="30" width="328" height="1"/>
<rect x="98" y="59" width="1" height="1"/>
<rect x="123" y="59" width="1" height="1"/>
<rect x="147" y="59" width="1" height="1"/>
<rect x="82" y="60" width="6" height="1"/>
<rect x="98" y="60" width="1" height="1"/>
<rect x="108" y="60" width="1" height="1"/>
<rect x="123" y="60" width="1" height="1"/>
<rect x="147" y="60" width="1" height="1"/>
<rect x="153" y="60" width="5" height="1"/>
<rect x="82" y="61" width="1" height="1"/>
<rect x="87" y="61" width="2" height="1"/>
<rect x="98" y="61" width="1" height="1"/>
<rect x="108" y="61" width="1" height="1"/>
<rect x="123" y="61" width="1" height="1"/>
<rect x="147" y="61" width="1" height="1"/>
<rect x="153" y="61" width="1" height="1"/>
<rect x="157" y="61" width="1" height="1"/>
<rect x="82" y="62" width="1" height="1"/>
<rect x="88" y="62" width="1" height="1"/>
<rect x="92" y="62" width="3" height="1"/>
<rect x="98" y="62" width="1" height="1"/>
<rect x="102" y="62" width="3" height="1"/>
<rect x="107" y="62" width="4" height="1"/>
<rect x="114" y="62" width="3" height="1"/>
<rect x="123" y="62" width="1" height="1"/>
<rect x="125" y="62" width="3" height="1"/>
<rect x="132" y="62" width="4" height="1"/>
<rect x="140" y="62" width="4" height="1"/>
<rect x="147" y="62" width="1" height="1"/>
<rect x="151" y="62" width="2" height="1"/>
<rect x="157" y="62" width="1" height="1"/>
<rect x="82" y="63" width="1" height="1"/>
<rect x="88" y="63" width="2" height="1"/>
<rect x="91" y="63" width="1" height="1"/>
<rect x="95" y="63" width="1" height="1"/>
<rect x="98" y="63" width="1" height="1"/>
<rect x="101" y="63" width="1" height="1"/>
<rect x="105" y="63" width="1" height="1"/>
<rect x="108" y="63" width="1" height="1"/>
<rect x="113" y="63" width="1" height="1"/>
<rect x="117" y="63" width="1" height="1"/>
<rect x="123" y="63" width="2" height="1"/>
<rect x="128" y="63" width="1" height="1"/>
<rect x="131" y="63" width="1" height="1"/>
<rect x="135" y="63" width="2" height="1"/>
<rect x="139" y="63" width="1" height="1"/>
<rect x="143" y="63" width="2" height="1"/>
<rect x="147" y="63" width="1" height="1"/>
<rect x="150" y="63" width="1" height="1"/>
<rect x="156" y="63" width="2" height="1"/>
<rect x="82" y="64" width="1" height="1"/>
<rect x="88" y="64" width="2" height="1"/>
<rect x="91" y="64" width="1" height="1"/>
<rect x="95" y="64" width="2" height="1"/>
<rect x="98" y="64" width="1" height="1"/>
<rect x="101" y="64" width="1" height="1"/>
<rect x="105" y="64" width="2" height="1"/>
<rect x="108" y="64" width="1" height="1"/>
<rect x="113" y="64" width="1" height="1"/>
<rect x="117" y="64" width="2" height="1"/>
<rect x="123" y="64" width="1" height="1"/>
<rect x="128" y="64" width="1" height="1"/>
<rect x="131" y="64" width="1" height="1"/>
<rect x="136" y="64" width="1" height="1"/>
<rect x="139" y="64" width="1" height="1"/>
<rect x="144" y="64" width="1" height="1"/>
<rect x="147" y="64" width="1" height="1"/>
<rect x="149" y="64" width="1" height="1"/>
<rect x="155" y="64" width="2" height="1"/>
<rect x="82" y="65" width="1" height="1"/>
<rect x="88" y="65" width="2" height="1"/>
<rect x="91" y="65" width="6" height="1"/>
<rect x="98" y="65" width="1" height="1"/>
<rect x="101" y="65" width="6" height="1"/>
<rect x="108" y="65" width="1" height="1"/>
<rect x="113" y="65" width="6" height="1"/>
<rect x="123" y="65" width="1" height="1"/>
<rect x="128" y="65" width="1" height="1"/>
<rect x="131" y="65" width="1" height="1"/>
<rect x="136" y="65" width="1" height="1"/>
<rect x="139" y="65" width="1" height="1"/>
<rect x="144" y="65" width="1" height="1"/>
<rect x="147" y="65" width="3" height="1"/>
<rect x="155" y="65" width="1" height="1"/>
<rect x="82" y="66" width="1" height="1"/>
<rect x="88" y="66" width="1" height="1"/>
<rect x="91" y="66" width="1" height="1"/>
<rect x="98" y="66" width="1" height="1"/>
<rect x="101" y="66" width="1" height="1"/>
<rect x="108" y="66" width="1" height="1"/>
<rect x="113" y="66" width="1" height="1"/>
<rect x="123" y="66" width="1" height="1"/>
<rect x="128" y="66" width="1" height="1"/>
<rect x="131" y="66" width="1" height="1"/>
<rect x="136" y="66" width="1" height="1"/>
<rect x="139" y="66" width="1" height="1"/>
<rect x="144" y="66" width="1" height="1"/>
<rect x="147" y="66" width="1" height="1"/>
<rect x="150" y="66" width="1" height="1"/>
<rect x="82" y="67" width="1" height="1"/>
<rect x="87" y="67" width="2" height="1"/>
<rect x="91" y="67" width="1" height="1"/>
<rect x="98" y="67" width="1" height="1"/>
<rect x="101" y="67" width="1" height="1"/>
<rect x="108" y="67" width="1" height="1"/>
<rect x="113" y="67" width="1" height="1"/>
<rect x="123" y="67" width="2" height="1"/>
<rect x="128" y="67" width="1" height="1"/>
<rect x="131" y="67" width="1" height="1"/>
<rect x="135" y="67" width="2" height="1"/>
<rect x="139" y="67" width="1" height="1"/>
<rect x="143" y="67" width="2" height="1"/>
<rect x="147" y="67" width="1" height="1"/>
<rect x="150" y="67" width="2" height="1"/>
<rect x="155" y="67" width="1" height="1"/>
<rect x="82" y="68" width="5" height="1"/>
<rect x="92" y="68" width="4" height="1"/>
<rect x="98" y="68" width="1" height="1"/>
<rect x="102" y="68" width="4" height="1"/>
<rect x="109" y="68" width="2" height="1"/>
<rect x="114" y="68" width="4" height="1"/>
<rect x="123" y="68" width="1" height="1"/>
<rect x="125" y="68" width="3" height="1"/>
<rect x="132" y="68" width="4" height="1"/>
<rect x="140" y="68" width="4" height="1"/>
<rect x="147" y="68" width="1" height="1"/>
<rect x="151" y="68" width="2" height="1"/>
<rect x="155" y="68" width="1" height="1"/>
<rect x="134" y="85" width="1" height="1"/>
<rect x="158" y="85" width="1" height="1"/>
<rect x="165" y="85" width="4" height="1"/>
<rect x="171" y="85" width="1" height="1"/>
<rect x="82" y="86" width="5" height="1"/>
<rect x="134" y="86" width="1" height="1"/>
<rect x="158" y="86" width="1" height="1"/>
<rect x="165" y="86" width="1" height="1"/>
<rect x="171" y="86" width="1" height="1"/>
<rect x="82" y="87" width="1" height="1"/>
<rect x="87" y="87" width="1" height="1"/>
<rect x="134" y="87" width="1" height="1"/>
<rect x="158" y="87" width="1" height="1"/>
<rect x="164" y="87" width="2" height="1"/>
<rect x="171" y="87" width="1" height="1"/>
<rect x="82" y="88" width="1" height="1"/>
<rect x="87" y="88" width="1" height="1"/>
<rect x="91" y="88" width="3" height="1"/>
<rect x="97" y="88" width="1" height="1"/>
<rect x="99" y="88" width="3" height="1"/>
<rect x="103" y="88" width="3" height="1"/>
<rect x="110" y="88" width="4" height="1"/>
<rect x="116" y="88" width="1" height="1"/>
<rect x="121" y="88" width="2" height="1"/>
<rect x="125" y="88" width="3" height="1"/>
<rect x="134" y="88" width="1" height="1"/>
<rect x="138" y="88" width="4" height="1"/>
<rect x="146" y="88" width="4" height="1"/>
<rect x="152" y="88" width="4" height="1"/>
<rect x="158" y="88" width="1" height="1"/>
<rect x="163" y="88" width="4" height="1"/>
<rect x="168" y="88" width="1" height="1"/>
<rect x="171" y="88" width="1" height="1"/>
<rect x="175" y="88" width="3" height="1"/>
<rect x="82" y="89" width="1" height="1"/>
<rect x="87" y="89" width="1" height="1"/>
<rect x="90" y="89" width="1" height="1"/>
<rect x="94" y="89" width="1" height="1"/>
<rect x="97" y="89" width="2" height="1"/>
<rect x="101" y="89" width="2" height="1"/>
<rect x="106" y="89" width="1" height="1"/>
<rect x="109" y="89" width="1" height="1"/>
<rect x="113" y="89" width="2" height="1"/>
<rect x="117" y="89" width="1" height="1"/>
<rect x="121" y="89" width="1" height="1"/>
<rect x="124" y="89" width="1" height="1"/>
<rect x="128" y="89" width="1" height="1"/>
<rect x="134" y="89" width="1" height="1"/>
<rect x="137" y="89" width="1" height="1"/>
<rect x="141" y="89" width="2" height="1"/>
<rect x="145" y="89" width="1" height="1"/>
<rect x="151" y="89" width="1" height="1"/>
<rect x="155" y="89" width="1" height="1"/>
<rect x="158" y="89" width="1" height="1"/>
<rect x="164" y="89" width="2" height="1"/>
<rect x="168" y="89" width="1" height="1"/>
<rect x="171" y="89" width="1" height="1"/>
<rect x="174" y="89" width="1" height="1"/>
<rect x="178" y="89" width="1" height="1"/>
<rect x="82" y="90" width="5" height="1"/>
<rect x="90" y="90" width="1" height="1"/>
<rect x="94" y="90" width="2" height="1"/>
<rect x="97" y="90" width="1" height="1"/>
<rect x="102" y="90" width="1" height="1"/>
<rect x="106" y="90" width="1" height="1"/>
<rect x="109" y="90" width="1" height="1"/>
<rect x="114" y="90" width="1" height="1"/>
<rect x="117" y="90" width="1" height="1"/>
<rect x="120" y="90" width="2" height="1"/>
<rect x="124" y="90" width="1" height="1"/>
<rect x="128" y="90" width="2" height="1"/>
<rect x="134" y="90" width="1" height="1"/>
<rect x="137" y="90" width="1" height="1"/>
<rect x="142" y="90" width="1" height="1"/>
<rect x="145" y="90" width="1" height="1"/>
<rect x="155" y="90" width="1" height="1"/>
<rect x="158" y="90" width="1" height="1"/>
<rect x="164" y="90" width="2" height="1"/>
<rect x="168" y="90" width="1" height="1"/>
<rect x="171" y="90" width="1" height="1"/>
<rect x="174" y="90" width="1" height="1"/>
<rect x="178" y="90" width="2" height="1"/>
<rect x="82" y="91" width="1" height="1"/>
<rect x="86" y="91" width="1" height="1"/>
<rect x="90" y="91" width="6" height="1"/>
<rect x="97" y="91" width="1" height="1"/>
<rect x="102" y="91" width="1" height="1"/>
<rect x="106" y="91" width="1" height="1"/>
<rect x="109" y="91" width="1" height="1"/>
<rect x="114" y="91" width="1" height="1"/>
<rect x="117" y="91" width="1" height="1"/>
<rect x="120" y="91" width="1" height="1"/>
<rect x="124" y="91" width="6" height="1"/>
<rect x="134" y="91" width="1" height="1"/>
<rect x="137" y="91" width="1" height="1"/>
<rect x="142" y="91" width="1" height="1"/>
<rect x="145" y="91" width="1" height="1"/>
<rect x="151" y="91" width="5" height="1"/>
<rect x="158" y="91" width="1" height="1"/>
<rect x="164" y="91" width="2" height="1"/>
<rect x="168" y="91" width="1" height="1"/>
<rect x="171" y="91" width="1" height="1"/>
<rect x="174" y="91" width="6" height="1"/>
<rect x="82" y="92" width="1" height="1"/>
<rect x="86" y="92" width="1" height="1"/>
<rect x="90" y="92" width="1" height="1"/>
<rect x="97" y="92" width="1" height="1"/>
<rect x="102" y="92" width="1" height="1"/>
<rect x="106" y="92" width="1" height="1"/>
<rect x="109" y="92" width="1" height="1"/>
<rect x="114" y="92" width="1" height="1"/>
<rect x="118" y="92" width="1" height="1"/>
<rect x="120" y="92" width="1" height="1"/>
<rect x="124" y="92" width="1" height="1"/>
<rect x="134" y="92" width="1" height="1"/>
<rect x="137" y="92" width="1" height="1"/>
<rect x="142" y="92" width="1" height="1"/>
<rect x="145" y="92" width="1" height="1"/>
<rect x="151" y="92" width="1" height="1"/>
<rect x="155" y="92" width="1" height="1"/>
<rect x="158" y="92" width="1" height="1"/>
<rect x="164" y="92" width="2" height="1"/>
<rect x="168" y="92" width="1" height="1"/>
<rect x="171" y="92" width="1" height="1"/>
<rect x="174" y="92" width="1" height="1"/>
<rect x="82" y="93" width="1" height="1"/>
<rect x="87" y="93" width="1" height="1"/>
<rect x="90" y="93" width="1" height="1"/>
<rect x="97" y="93" width="1" height="1"/>
<rect x="102" y="93" width="1" height="1"/>
<rect x="106" y="93" width="1" height="1"/>
<rect x="109" y="93" width="1" height="1"/>
<rect x="113" y="93" width="2" height="1"/>
<rect x="118" y="93" width="3" height="1"/>
<rect x="124" y="93" width="1" height="1"/>
<rect x="134" y="93" width="1" height="1"/>
<rect x="137" y="93" width="1" height="1"/>
<rect x="141" y="93" width="2" height="1"/>
<rect x="145" y="93" width="1" height="1"/>
<rect x="151" y="93" width="1" height="1"/>
<rect x="155" y="93" width="1" height="1"/>
<rect x="158" y="93" width="1" height="1"/>
<rect x="164" y="93" width="2" height="1"/>
<rect x="168" y="93" width="1" height="1"/>
<rect x="171" y="93" width="1" height="1"/>
<rect x="174" y="93" width="1" height="1"/>
<rect x="181" y="93" width="1" height="1"/>
<rect x="82" y="94" width="1" height="1"/>
<rect x="87" y="94" width="2" height="1"/>
<rect x="91" y="94" width="4" height="1"/>
<rect x="97" y="94" width="1" height="1"/>
<rect x="102" y="94" width="1" height="1"/>
<rect x="106" y="94" width="1" height="1"/>
<rect x="110" y="94" width="4" height="1"/>
<rect x="118" y="94" width="2" height="1"/>
<rect x="125" y="94" width="4" height="1"/>
<rect x="134" y="94" width="1" height="1"/>
<rect x="138" y="94" width="4" height="1"/>
<rect x="146" y="94" width="4" height="1"/>
<rect x="151" y="94" width="5" height="1"/>
<rect x="158" y="94" width="1" height="1"/>
<rect x="164" y="94" width="2" height="1"/>
<rect x="168" y="94" width="1" height="1"/>
<rect x="171" y="94" width="1" height="1"/>
<rect x="175" y="94" width="4" height="1"/>
<rect x="181" y="94" width="2" height="1"/>
<rect x="126" y="122" width="1" height="1"/>
<rect x="249" y="122" width="1" height="1"/>
<rect x="110" y="123" width="6" height="1"/>
<rect x="126" y="123" width="1" height="1"/>
<rect x="136" y="123" width="1" height="1"/>
<rect x="215" y="123" width="5" height="1"/>
<rect x="249" y="123" width="1" height="1"/>
<rect x="110" y="124" width="1" height="1"/>
<rect x="115" y="124" width="2" height="1"/>
<rect x="126" y="124" width="1" height="1"/>
<rect x="136" y="124" width="1" height="1"/>
<rect x="214" y="124" width="1" height="1"/>
<rect x="249" y="124" width="1" height="1"/>
<rect x="110" y="125" width="1" height="1"/>
<rect x="116" y="125" width="1" height="1"/>
<rect x="120" y="125" width="3" height="1"/>
<rect x="126" y="125" width="1" height="1"/>
<rect x="130" y="125" width="3" height="1"/>
<rect x="135" y="125" width="4" height="1"/>
<rect x="142" y="125" width="3" height="1"/>
<rect x="213" y="125" width="1" height="1"/>
<rect x="222" y="125" width="4" height="1"/>
<rect x="228" y="125" width="1" height="1"/>
<rect x="230" y="125" width="3" height="1"/>
<rect x="237" y="125" width="4" height="1"/>
<rect x="243" y="125" width="3" height="1"/>
<rect x="249" y="125" width="1" height="1"/>
<rect x="110" y="126" width="1" height="1"/>
<rect x="116" y="126" width="2" height="1"/>
<rect x="119" y="126" width="1" height="1"/>
<rect x="123" y="126" width="1" height="1"/>
<rect x="126" y="126" width="1" height="1"/>
<rect x="129" y="126" width="1" height="1"/>
<rect x="133" y="126" width="1" height="1"/>
<rect x="136" y="126" width="1" height="1"/>
<rect x="141" y="126" width="1" height="1"/>
<rect x="145" y="126" width="1" height="1"/>
<rect x="213" y="126" width="1" height="1"/>
<rect x="221" y="126" width="1" height="1"/>
<rect x="225" y="126" width="1" height="1"/>
<rect x="228" y="126" width="2" height="1"/>
<rect x="233" y="126" width="1" height="1"/>
<rect x="236" y="126" width="1" height="1"/>
<rect x="242" y="126" width="1" height="1"/>
<rect x="246" y="126" width="1" height="1"/>
<rect x="249" y="126" width="1" height="1"/>
<rect x="110" y="127" width="1" height="1"/>
<rect x="116" y="127" width="2" height="1"/>
<rect x="119" y="127" width="1" height="1"/>
<rect x="123" y="127" width="2" height="1"/>
<rect x="126" y="127" width="1" height="1"/>
<rect x="129" y="127" width="1" height="1"/>
<rect x="133" y="127" width="2" height="1"/>
<rect x="136" y="127" width="1" height="1"/>
<rect x="141" y="127" width="1" height="1"/>
<rect x="145" y="127" width="2" height="1"/>
<rect x="213" y="127" width="1" height="1"/>
<rect x="225" y="127" width="1" height="1"/>
<rect x="228" y="127" width="1" height="1"/>
<rect x="233" y="127" width="1" height="1"/>
<rect x="236" y="127" width="1" height="1"/>
<rect x="242" y="127" width="1" height="1"/>
<rect x="246" y="127" width="2" height="1"/>
<rect x="249" y="127" width="1" height="1"/>
<rect x="110" y="128" width="1" height="1"/>
<rect x="116" y="128" width="2" height="1"/>
<rect x="119" y="128" width="6" height="1"/>
<rect x="126" y="128" width="1" height="1"/>
<rect x="129" y="128" width="6" height="1"/>
<rect x="136" y="128" width="1" height="1"/>
<rect x="141" y="128" width="6" height="1"/>
<rect x="213" y="128" width="1" height="1"/>
<rect x="221" y="128" width="5" height="1"/>
<rect x="228" y="128" width="1" height="1"/>
<rect x="233" y="128" width="1" height="1"/>
<rect x="236" y="128" width="1" height="1"/>
<rect x="242" y="128" width="6" height="1"/>
<rect x="249" y="128" width="1" height="1"/>
<rect x="110" y="129" width="1" height="1"/>
<rect x="116" y="129" width="1" height="1"/>
<rect x="119" y="129" width="1" height="1"/>
<rect x="126" y="129" width="1" height="1"/>
<rect x="129" y="129" width="1" height="1"/>
<rect x="136" y="129" width="1" height="1"/>
<rect x="141" y="129" width="1" height="1"/>
<rect x="213" y="129" width="1" height="1"/>
<rect x="221" y="129" width="1" height="1"/>
<rect x="225" y="129" width="1" height="1"/>
<rect x="228" y="129" width="1" height="1"/>
<rect x="233" y="129" width="1" height="1"/>
<rect x="236" y="129" width="1" height="1"/>
<rect x="242" y="129" width="1" height="1"/>
<rect x="249" y="129" width="1" height="1"/>
<rect x="110" y="130" width="1" height="1"/>
<rect x="115" y="130" width="2" height="1"/>
<rect x="119" y="130" width="1" height="1"/>
<rect x="126" y="130" width="1" height="1"/>
<rect x="129" y="130" width="1" height="1"/>
<rect x="136" y="130" width="1" height="1"/>
<rect x="141" y="130" width="1" height="1"/>
<rect x="214" y="130" width="1" height="1"/>
<rect x="221" y="130" width="1" height="1"/>
<rect x="225" y="130" width="1" height="1"/>
<rect x="228" y="130" width="1" height="1"/>
<rect x="233" y="130" width="1" height="1"/>
<rect x="236" y="130" width="1" height="1"/>
<rect x="242" y="130" width="1" height="1"/>
<rect x="249" y="130" width="1" height="1"/>
<rect x="110" y="131" width="5" height="1"/>
<rect x="120" y="131" width="4" height="1"/>
<rect x="126" y="131" width="1" height="1"/>
<rect x="130" y="131" width="4" height="1"/>
<rect x="137" y="131" width="2" height="1"/>
<rect x="142" y="131" width="4" height="1"/>
<rect x="215" y="131" width="4" height="1"/>
<rect x="221" y="131" width="5" height="1"/>
<rect x="228" y="131" width="1" height="1"/>
<rect x="233" y="131" width="1" height="1"/>
<rect x="237" y="131" width="4" height="1"/>
<rect x="243" y="131" width="4" height="1"/>
<rect x="249" y="131" width="1" height="1"/>
</g>
</svg>
