<svg xmlns="http://www.w3.org/2000/svg" viewBox="0 0 360 180" width="360" height="180" shape-rendering="crispEdges">
<rect width="100%" height="100%" fill="#fff"/>
<g fill="#111">
<rect x="17" y="19" width="1" height="1"/>
<rect x="19" y="19" width="3" height="1"/>
<rect x="26" y="19" width="4" height="1"/>
<rect x="33" y="19" width="1" height="1"/>
<rect x="35" y="19" width="3" height="1"/>
<rect x="41" y="19" width="1" height="1"/>
<rect x="46" y="19" width="1" height="1"/>
<rect x="49" y="19" width="1" height="1"/>
<rect x="51" y="19" width="3" height="1"/>
<rect x="17" y="20" width="2" height="1"/>
<rect x="22" y="20" width="1" height="1"/>
<rect x="25" y="20" width="1" height="1"/>
<rect x="29" y="20" width="2" height="1"/>
<rect x="33" y="20" width="2" height="1"/>
<rect x="38" y="20" width="1" height="1"/>
<rect x="41" y="20" width="1" height="1"/>
<rect x="46" y="20" width="1" height="1"/>
<rect x="49" y="20" width="2" height="1"/>
<rect x="54" y="20" width="1" height="1"/>
<rect x="17" y="21" width="1" height="1"/>
<rect x="22" y="21" width="1" height="1"/>
<rect x="25" y="21" width="1" height="1"/>
<rect x="30" y="21" width="1" height="1"/>
<rect x="33" y="21" width="1" height="1"/>
<rect x="38" y="21" width="1" height="1"/>
<rect x="41" y="21" width="1" height="1"/>
<rect x="46" y="21" width="1" height="1"/>
<rect x="49" y="21" width="1" height="1"/>
<rect x="54" y="21" width="1" height="1"/>
<rect x="17" y="22" width="1" height="1"/>
<rect x="22" y="22" width="1" height="1"/>
<rect x="25" y="22" width="1" height="1"/>
<rect x="30" y="22" width="1" height="1"/>
<rect x="33" y="22" width="1" height="1"/>
<rect x="38" y="22" width="1" height="1"/>
<rect x="41" y="22" width="1" height="1"/>
<rect x="46" y="22" width="1" height="1"/>
<rect x="49" y="22" width="1" height="1"/>
<rect x="54" y="22" width="1" height="1"/>
<rect x="17" y="23" width="1" height="1"/>
<rect x="22" y="23" width="1" height="1"/>
<rect x="25" y="23" width="1" height="1"/>
<rect x="30" y="23" width="1" height="1"/>
<rect x="33" y="23" width="1" height="1"/>
<rect x="38" y="23" width="1" height="1"/>
<rect x="41" y="23" width="1" height="1"/>
<rect x="46" y="23" width="1" height="1"/>
<rect x="49" y="23" width="1" height="1"/>
<rect x="54" y="23" width="1" height="1"/>
<rect x="17" y="24" width="2" height="1"/>
<rect x="21" y="24" width="2" height="1"/>
<rect x="25" y="24" width="1" height="1"/>
<rect x="29" y="24" width="2" height="1"/>
<rect x="33" y="24" width="2" height="1"/>
<rect x="37" y="24" width="2" height="1"/>
<rect x="41" y="24" width="1" height="1"/>
<rect x="45" y="24" width="2" height="1"/>
<rect x="49" y="24" width="2" height="1"/>
<rect x="53" y="24" width="2" height="1"/>
<rect x="17" y="25" width="1" height="1"/>
<rect x="19" y="25" width="3" height="1"/>
<rect x="26" y="25" width="4" height="1"/>
<rect x="33" y="25" width="1" height="1"/>
<rect x="35" y="25" width="3" height="1"/>
<rect x="42" y="25" width="3" height="1"/>
<rect x="46" y="25" width="1" height="1"/>
<rect x="49" y="25" width="1" height="1"/>
<rect x="51" y="25" width="3" height="1"/>
<rect x="17" y="26" width="1" height="1"/>
<rect x="33" y="26" width="1" height="1"/>
<rect x="49" y="26" width="1" height="1"/>
<rect x="17" y="27" width="1" height="1"/>
<rect x="33" y="27" width="1" height="1"/>
<rect x="49" y="27" width="1" height="1"/>
<rect x="17" y="28" width="1" height="1"/>
<rect x="33" y="28" width="1" height="1"/>
<rect x="49" y="28" width="1" height="1"/>
<rect x="16" y="30" width="328" height="1"/>
<rect x="181" y="92" width="1" height="1"/>
<rect x="154" y="93" width="4" height="1"/>
<rect x="153" y="94" width="1" height="1"/>
<rect x="153" y="95" width="1" height="1"/>
<rect x="159" y="95" width="1" height="1"/>
<rect x="164" y="95" width="2" height="1"/>
<rect x="167" y="95" width="1" height="1"/>
<rect x="169" y="95" width="3" height="1"/>
<rect x="176" y="95" width="4" height="1"/>
<rect x="181" y="95" width="1" height="1"/>
<rect x="184" y="95" width="1" height="1"/>
<rect x="186" y="95" width="3" height="1"/>
<rect x="193" y="95" width="3" height="1"/>
<rect x="197" y="95" width="1" height="1"/>
<rect x="153" y="96" width="2" height="1"/>
<rect x="160" y="96" width="1" height="1"/>
<rect x="164" y="96" width="1" height="1"/>
<rect x="167" y="96" width="2" height="1"/>
<rect x="172" y="96" width="1" height="1"/>
<rect x="175" y="96" width="1" height="1"/>
<rect x="181" y="96" width="1" height="1"/>
<rect x="184" y="96" width="2" height="1"/>
<rect x="189" y="96" width="1" height="1"/>
<rect x="192" y="96" width="1" height="1"/>
<rect x="196" y="96" width="2" height="1"/>
<rect x="154" y="97" width="3" height="1"/>
<rect x="160" y="97" width="1" height="1"/>
<rect x="163" y="97" width="2" height="1"/>
<rect x="167" y="97" width="1" height="1"/>
<rect x="172" y="97" width="1" height="1"/>
<rect x="175" y="97" width="1" height="1"/>
<rect x="181" y="97" width="1" height="1"/>
<rect x="184" y="97" width="1" height="1"/>
<rect x="189" y="97" width="1" height="1"/>
<rect x="192" y="97" width="1" height="1"/>
<rect x="197" y="97" width="1" height="1"/>
<rect x="157" y="98" width="1" height="1"/>
<rect x="160" y="98" width="2" height="1"/>
<rect x="163" y="98" width="1" height="1"/>
<rect x="167" y="98" width="1" height="1"/>
<rect x="172" y="98" width="1" height="1"/>
<rect x="175" y="98" width="1" height="1"/>
<rect x="181" y="98" width="1" height="1"/>
<rect x="184" y="98" width="1" height="1"/>
<rect x="189" y="98" width="1" height="1"/>
<rect x="192" y="98" width="1" height="1"/>
<rect x="197" y="98" width="1" height="1"/>
<rect x="157" y="99" width="2" height="1"/>
<rect x="161" y="99" width="1" height="1"/>
<rect x="163" y="99" width="1" height="1"/>
<rect x="167" y="99" width="1" height="1"/>
<rect x="172" y="99" width="1" height="1"/>
<rect x="175" y="99" width="1" height="1"/>
<rect x="181" y="99" width="1" height="1"/>
<rect x="184" y="99" width="1" height="1"/>
<rect x="189" y="99" width="1" height="1"/>
<rect x="192" y="99" width="1" height="1"/>
<rect x="197" y="99" width="1" height="1"/>
<rect x="157" y="100" width="1" height="1"/>
<rect x="161" y="100" width="3" height="1"/>
<rect x="167" y="100" width="1" height="1"/>
<rect x="172" y="100" width="1" height="1"/>
<rect x="175" y="100" width="1" height="1"/>
<rect x="181" y="100" width="1" height="1"/>
<rect x="184" y="100" width="1" height="1"/>
<rect x="189" y="100" width="1" height="1"/>
<rect x="192" y="100" width="1" height="1"/>
<rect x="196" y="100" width="2" height="1"/>
<rect x="200" y="100" width="1" height="1"/>
<rect x="203" y="100" width="1" height="1"/>
<rect x="206" y="100" width="1" height="1"/>
<rect x="153" y="101" width="4" height="1"/>
<rect x="162" y="101" width="1" height="1"/>
<rect x="167" y="101" width="1" height="1"/>
<rect x="172" y="101" width="1" height="1"/>
<rect x="176" y="101" width="4" height="1"/>
<rect x="181" y="101" width="1" height="1"/>
<rect x="184" y="101" width="1" height="1"/>
<rect x="189" y="101" width="1" height="1"/>
<rect x="193" y="101" width="3" height="1"/>
<rect x="197" y="101" width="1" height="1"/>
<rect x="200" y="101" width="2" height="1"/>
<rect x="203" y="101" width="2" height="1"/>
<rect x="206" y="101" width="2" height="1"/>
<rect x="162" y="102" width="1" height="1"/>
<rect x="197" y="102" width="1" height="1"/>
<rect x="161" y="103" width="1" height="1"/>
<rect x="196" y="103" width="2" height="1"/>
<rect x="159" y="104" width="3" height="1"/>
<rect x="192" y="104" width="5" height="1"/>
<rect x="106" y="126" width="89" height="1"/>
<rect x="196" y="126" width="1" height="1"/>
<rect x="198" y="126" width="1" height="1"/>
<rect x="200" y="126" width="1" height="1"/>
<rect x="202" y="126" width="1" height="1"/>
<rect x="204" y="126" width="1" height="1"/>
<rect x="206" y="126" width="1" height="1"/>
<rect x="208" y="126" width="1" height="1"/>
<rect x="210" y="126" width="1" height="1"/>
<rect x="212" y="126" width="1" height="1"/>
<rect x="214" y="126" width="1" height="1"/>
<rect x="216" y="126" width="1" height="1"/>
<rect x="218" y="126" width="1" height="1"/>
<rect x="220" y="126" width="1" height="1"/>
<rect x="222" y="126" width="1" height="1"/>
<rect x="224" y="126" width="1" height="1"/>
<rect x="226" y="126" width="1" height="1"/>
<rect x="228" y="126" width="1" height="1"/>
<rect x="230" y="126" width="1" height="1"/>
<rect x="232" y="126" width="1" height="1"/>
<rect x="234" y="126" width="1" height="1"/>
<rect x="236" y="126" width="1" height="1"/>
<rect x="238" y="126" width="1" height="1"/>
<rect x="240" y="126" width="1" height="1"/>
<rect x="242" y="126" width="1" height="1"/>
<rect x="244" y="126" width="1" height="1"/>
<rect x="246" y="126" width="1" height="1"/>
<rect x="248" y="126" width="1" height="1"/>
<rect x="250" y="126" width="1" height="1"/>
<rect x="252" y="126" width="1" height="1"/>
<rect x="106" y="127" width="88" height="1"/>
<rect x="106" y="128" width="89" height="1"/>
<rect x="196" y="128" width="1" height="1"/>
<rect x="198" y="128" width="1" height="1"/>
<rect x="200" y="128" width="1" height="1"/>
<rect x="202" y="128" width="1" height="1"/>
<rect x="204" y="128" width="1" height="1"/>
<rect x="206" y="128" width="1" height="1"/>
<rect x="208" y="128" width="1" height="1"/>
<rect x="210" y="128" width="1" height="1"/>
<rect x="212" y="128" width="1" height="1"/>
<rect x="214" y="128" width="1" height="1"/>
<rect x="216" y="128" width="1" height="1"/>
<rect x="218" y="128" width="1" height="1"/>
<rect x="220" y="128" width="1" height="1"/>
<rect x="222" y="128" width="1" height="1"/>
<rect x="224" y="128" width="1" height="1"/>
<rect x="226" y="128" width="1" height="1"/>
<rect x="228" y="128" width="1" height="1"/>
<rect x="230" y="128" width="1" height="1"/>
<rect x="232" y="128" width="1" height="1"/>
<rect x="234" y="128" width="1" height="1"/>
<rect x="236" y="128" width="1" height="1"/>
<rect x="238" y="128" width="1" height="1"/>
<rect x="240" y="128" width="1" height="1"/>
<rect x="242" y="128" width="1" height="1"/>
<rect x="244" y="128" width="1" height="1"/>
<rect x="246" y="128" width="1" height="1"/>
<rect x="248" y="128" width="1" height="1"/>
<rect x="250" y="128" width="1" height="1"/>
<rect x="252" y="128" width="1" height="1"/>
<rect x="106" y="129" width="88" height="1"/>
</g>
</svg>
