<svg xmlns="http://www.w3.org/2000/svg" viewBox="0 0 360 180" width="360" height="180" shape-rendering="crispEdges">
<rect width="100%" height="100%" fill="#fff"/>
<g fill="#111">
<rect x="70" y="17" width="6" height="1"/>
<rect x="70" y="18" width="1" height="1"/>
<rect x="75" y="18" width="1" height="1"/>
<rect x="17" y="19" width="1" height="1"/>
<rect x="19" y="19" width="3" height="1"/>
<rect x="25" y="19" width="1" height="1"/>
<rect x="27" y="19" width="2" height="1"/>
<rect x="31" y="19" width="4" height="1"/>
<rect x="39" y="19" width="3" height="1"/>
<rect x="43" y="19" width="1" height="1"/>
<rect x="46" y="19" width="1" height="1"/>
<rect x="48" y="19" width="2" height="1"/>
<rect x="52" y="19" width="3" height="1"/>
<rect x="58" y="19" width="5" height="1"/>
<rect x="64" y="19" width="5" height="1"/>
<rect x="70" y="19" width="1" height="1"/>
<rect x="75" y="19" width="1" height="1"/>
<rect x="79" y="19" width="4" height="1"/>
<rect x="85" y="19" width="1" height="1"/>
<rect x="87" y="19" width="2" height="1"/>
<rect x="17" y="20" width="2" height="1"/>
<rect x="22" y="20" width="1" height="1"/>
<rect x="25" y="20" width="2" height="1"/>
<rect x="30" y="20" width="1" height="1"/>
<rect x="34" y="20" width="2" height="1"/>
<rect x="38" y="20" width="1" height="1"/>
<rect x="42" y="20" width="2" height="1"/>
<rect x="46" y="20" width="2" height="1"/>
<rect x="51" y="20" width="1" height="1"/>
<rect x="55" y="20" width="1" height="1"/>
<rect x="58" y="20" width="1" height="1"/>
<rect x="64" y="20" width="1" height="1"/>
<rect x="70" y="20" width="1" height="1"/>
<rect x="75" y="20" width="1" height="1"/>
<rect x="78" y="20" width="1" height="1"/>
<rect x="82" y="20" width="1" height="1"/>
<rect x="85" y="20" width="2" height="1"/>
<rect x="17" y="21" width="1" height="1"/>
<rect x="22" y="21" width="1" height="1"/>
<rect x="25" y="21" width="1" height="1"/>
<rect x="30" y="21" width="1" height="1"/>
<rect x="35" y="21" width="1" height="1"/>
<rect x="38" y="21" width="1" height="1"/>
<rect x="43" y="21" width="1" height="1"/>
<rect x="46" y="21" width="1" height="1"/>
<rect x="51" y="21" width="1" height="1"/>
<rect x="55" y="21" width="2" height="1"/>
<rect x="58" y="21" width="1" height="1"/>
<rect x="64" y="21" width="1" height="1"/>
<rect x="70" y="21" width="5" height="1"/>
<rect x="82" y="21" width="1" height="1"/>
<rect x="85" y="21" width="1" height="1"/>
<rect x="17" y="22" width="1" height="1"/>
<rect x="22" y="22" width="1" height="1"/>
<rect x="25" y="22" width="1" height="1"/>
<rect x="30" y="22" width="1" height="1"/>
<rect x="35" y="22" width="1" height="1"/>
<rect x="38" y="22" width="1" height="1"/>
<rect x="43" y="22" width="1" height="1"/>
<rect x="46" y="22" width="1" height="1"/>
<rect x="51" y="22" width="6" height="1"/>
<rect x="59" y="22" width="3" height="1"/>
<rect x="65" y="22" width="3" height="1"/>
<rect x="70" y="22" width="1" height="1"/>
<rect x="75" y="22" width="2" height="1"/>
<rect x="78" y="22" width="5" height="1"/>
<rect x="85" y="22" width="1" height="1"/>
<rect x="17" y="23" width="1" height="1"/>
<rect x="22" y="23" width="1" height="1"/>
<rect x="25" y="23" width="1" height="1"/>
<rect x="30" y="23" width="1" height="1"/>
<rect x="35" y="23" width="1" height="1"/>
<rect x="38" y="23" width="1" height="1"/>
<rect x="43" y="23" width="1" height="1"/>
<rect x="46" y="23" width="1" height="1"/>
<rect x="51" y="23" width="1" height="1"/>
<rect x="61" y="23" width="2" height="1"/>
<rect x="67" y="23" width="2" height="1"/>
<rect x="70" y="23" width="1" height="1"/>
<rect x="75" y="23" width="2" height="1"/>
<rect x="78" y="23" width="1" height="1"/>
<rect x="82" y="23" width="1" height="1"/>
<rect x="85" y="23" width="1" height="1"/>
<rect x="17" y="24" width="2" height="1"/>
<rect x="21" y="24" width="2" height="1"/>
<rect x="25" y="24" width="1" height="1"/>
<rect x="30" y="24" width="1" height="1"/>
<rect x="34" y="24" width="2" height="1"/>
<rect x="38" y="24" width="1" height="1"/>
<rect x="42" y="24" width="2" height="1"/>
<rect x="46" y="24" width="1" height="1"/>
<rect x="51" y="24" width="1" height="1"/>
<rect x="61" y="24" width="2" height="1"/>
<rect x="67" y="24" width="2" height="1"/>
<rect x="70" y="24" width="1" height="1"/>
<rect x="75" y="24" width="2" height="1"/>
<rect x="78" y="24" width="1" height="1"/>
<rect x="82" y="24" width="1" height="1"/>
<rect x="85" y="24" width="1" height="1"/>
<rect x="17" y="25" width="1" height="1"/>
<rect x="19" y="25" width="3" height="1"/>
<rect x="25" y="25" width="1" height="1"/>
<rect x="31" y="25" width="4" height="1"/>
<rect x="39" y="25" width="3" height="1"/>
<rect x="43" y="25" width="1" height="1"/>
<rect x="46" y="25" width="1" height="1"/>
<rect x="52" y="25" width="4" height="1"/>
<rect x="58" y="25" width="4" height="1"/>
<rect x="64" y="25" width="4" height="1"/>
<rect x="70" y="25" width="6" height="1"/>
<rect x="78" y="25" width="5" height="1"/>
<rect x="85" y="25" width="1" height="1"/>
<rect x="17" y="26" width="1" height="1"/>
<rect x="43" y="26" width="1" height="1"/>
<rect x="17" y="27" width="1" height="1"/>
<rect x="42" y="27" width="2" height="1"/>
<rect x="17" y="28" width="1" height="1"/>
<rect x="38" y="28" width="5" height="1"/>
<rect x="16" y="30" width="328" height="1"/>
<rect x="24" y="96" width="312" height="1"/>
<rect x="24" y="97" width="131" height="1"/>
<rect x="335" y="97" width="1" height="1"/>
<rect x="24" y="98" width="131" height="1"/>
<rect x="156" y="98" width="1" height="1"/>
<rect x="158" y="98" width="1" height="1"/>
<rect x="160" y="98" width="1" height="1"/>
<rect x="162" y="98" width="1" height="1"/>
<rect x="164" y="98" width="1" height="1"/>
<rect x="166" y="98" width="1" height="1"/>
<rect x="168" y="98" width="1" height="1"/>
<rect x="170" y="98" width="1" height="1"/>
<rect x="172" y="98" width="1" height="1"/>
<rect x="174" y="98" width="1" height="1"/>
<rect x="176" y="98" width="1" height="1"/>
<rect x="178" y="98" width="1" height="1"/>
<rect x="180" y="98" width="1" height="1"/>
<rect x="182" y="98" width="1" height="1"/>
<rect x="184" y="98" width="1" height="1"/>
<rect x="186" y="98" width="1" height="1"/>
<rect x="188" y="98" width="1" height="1"/>
<rect x="190" y="98" width="1" height="1"/>
<rect x="192" y="98" width="1" height="1"/>
<rect x="194" y="98" width="1" height="1"/>
<rect x="196" y="98" width="1" height="1"/>
<rect x="198" y="98" width="1" height="1"/>
<rect x="200" y="98" width="1" height="1"/>
<rect x="202" y="98" width="1" height="1"/>
<rect x="204" y="98" width="1" height="1"/>
<rect x="206" y="98" width="1" height="1"/>
<rect x="208" y="98" width="1" height="1"/>
<rect x="210" y="98" width="1" height="1"/>
<rect x="212" y="98" width="1" height="1"/>
<rect x="214" y="98" width="1" height="1"/>
<rect x="216" y="98" width="1" height="1"/>
<rect x="218" y="98" width="1" height="1"/>
<rect x="220" y="98" width="1" height="1"/>
<rect x="222" y="98" width="1" height="1"/>
<rect x="224" y="98" width="1" height="1"/>
<rect x="226" y="98" width="1" height="1"/>
<rect x="228" y="98" width="1" height="1"/>
<rect x="230" y="98" width="1" height="1"/>
<rect x="232" y="98" width="1" height="1"/>
<rect x="234" y="98" width="1" height="1"/>
<rect x="236" y="98" width="1" height="1"/>
<rect x="238" y="98" width="1" height="1"/>
<rect x="240" y="98" width="1" height="1"/>
<rect x="242" y="98" width="1" height="1"/>
<rect x="244" y="98" width="1" height="1"/>
<rect x="246" y="98" width="1" height="1"/>
<rect x="248" y="98" width="1" height="1"/>
<rect x="250" y="98" width="1" height="1"/>
<rect x="252" y="98" width="1" height="1"/>
<rect x="254" y="98" width="1" height="1"/>
<rect x="256" y="98" width="1" height="1"/>
<rect x="258" y="98" width="1" height="1"/>
<rect x="260" y="98" width="1" height="1"/>
<rect x="262" y="98" width="1" height="1"/>
<rect x="264" y="98" width="1" height="1"/>
<rect x="266" y="98" width="1" height="1"/>
<rect x="268" y="98" width="1" height="1"/>
<rect x="270" y="98" width="1" height="1"/>
<rect x="272" y="98" width="1" height="1"/>
<rect x="274" y="98" width="1" height="1"/>
<rect x="276" y="98" width="1" height="1"/>
<rect x="278" y="98" width="1" height="1"/>
<rect x="280" y="98" width="1" height="1"/>
<rect x="282" y="98" width="1" height="1"/>
<rect x="284" y="98" width="1" height="1"/>
<rect x="286" y="98" width="1" height="1"/>
<rect x="288" y="98" width="1" height="1"/>
<rect x="290" y="98" width="1" height="1"/>
<rect x="292" y="98" width="1" height="1"/>
<rect x="294" y="98" width="1" height="1"/>
<rect x="296" y="98" width="1" height="1"/>
<rect x="298" y="98" width="1" height="1"/>
<rect x="300" y="98" width="1" height="1"/>
<rect x="302" y="98" width="1" height="1"/>
<rect x="304" y="98" width="1" height="1"/>
<rect x="306" y="98" width="1" height="1"/>
<rect x="308" y="98" width="1" height="1"/>
<rect x="310" y="98" width="1" height="1"/>
<rect x="312" y="98" width="1" height="1"/>
<rect x="314" y="98" width="1" height="1"/>
<rect x="316" y="98" width="1" height="1"/>
<rect x="318" y="98" width="1" height="1"/>
<rect x="320" y="98" width="1" height="1"/>
<rect x="322" y="98" width="1" height="1"/>
<rect x="324" y="98" width="1" height="1"/>
<rect x="326" y="98" width="1" height="1"/>
<rect x="328" y="98" width="1" height="1"/>
<rect x="330" y="98" width="1" height="1"/>
<rect x="332" y="98" width="1" height="1"/>
<rect x="334" y="98" width="2" height="1"/>
<rect x="24" y="99" width="131" height="1"/>
<rect x="335" y="99" width="1" height="1"/>
<rect x="24" y="100" width="131" height="1"/>
<rect x="156" y="100" width="1" height="1"/>
<rect x="158" y="100" width="1" height="1"/>
<rect x="160" y="100" width="1" height="1"/>
<rect x="162" y="100" width="1" height="1"/>
<rect x="164" y="100" width="1" height="1"/>
<rect x="166" y="100" width="1" height="1"/>
<rect x="168" y="100" width="1" height="1"/>
<rect x="170" y="100" width="1" height="1"/>
<rect x="172" y="100" width="1" height="1"/>
<rect x="174" y="100" width="1" height="1"/>
<rect x="176" y="100" width="1" height="1"/>
<rect x="178" y="100" width="1" height="1"/>
<rect x="180" y="100" width="1" height="1"/>
<rect x="182" y="100" width="1" height="1"/>
<rect x="184" y="100" width="1" height="1"/>
<rect x="186" y="100" width="1" height="1"/>
<rect x="188" y="100" width="1" height="1"/>
<rect x="190" y="100" width="1" height="1"/>
<rect x="192" y="100" width="1" height="1"/>
<rect x="194" y="100" width="1" height="1"/>
<rect x="196" y="100" width="1" height="1"/>
<rect x="198" y="100" width="1" height="1"/>
<rect x="200" y="100" width="1" height="1"/>
<rect x="202" y="100" width="1" height="1"/>
<rect x="204" y="100" width="1" height="1"/>
<rect x="206" y="100" width="1" height="1"/>
<rect x="208" y="100" width="1" height="1"/>
<rect x="210" y="100" width="1" height="1"/>
<rect x="212" y="100" width="1" height="1"/>
<rect x="214" y="100" width="1" height="1"/>
<rect x="216" y="100" width="1" height="1"/>
<rect x="218" y="100" width="1" height="1"/>
<rect x="220" y="100" width="1" height="1"/>
<rect x="222" y="100" width="1" height="1"/>
<rect x="224" y="100" width="1" height="1"/>
<rect x="226" y="100" width="1" height="1"/>
<rect x="228" y="100" width="1" height="1"/>
<rect x="230" y="100" width="1" height="1"/>
<rect x="232" y="100" width="1" height="1"/>
<rect x="234" y="100" width="1" height="1"/>
<rect x="236" y="100" width="1" height="1"/>
<rect x="238" y="100" width="1" height="1"/>
<rect x="240" y="100" width="1" height="1"/>
<rect x="242" y="100" width="1" height="1"/>
<rect x="244" y="100" width="1" height="1"/>
<rect x="246" y="100" width="1" height="1"/>
<rect x="248" y="100" width="1" height="1"/>
<rect x="250" y="100" width="1" height="1"/>
<rect x="252" y="100" width="1" height="1"/>
<rect x="254" y="100" width="1" height="1"/>
<rect x="256" y="100" width="1" height="1"/>
<rect x="258" y="100" width="1" height="1"/>
<rect x="260" y="100" width="1" height="1"/>
<rect x="262" y="100" width="1" height="1"/>
<rect x="264" y="100" width="1" height="1"/>
<rect x="266" y="100" width="1" height="1"/>
<rect x="268" y="100" width="1" height="1"/>
<rect x="270" y="100" width="1" height="1"/>
<rect x="272" y="100" width="1" height="1"/>
<rect x="274" y="100" width="1" height="1"/>
<rect x="276" y="100" width="1" height="1"/>
<rect x="278" y="100" width="1" height="1"/>
<rect x="280" y="100" width="1" height="1"/>
<rect x="282" y="100" width="1" height="1"/>
<rect x="284" y="100" width="1" height="1"/>
<rect x="286" y="100" width="1" height="1"/>
<rect x="288" y="100" width="1" height="1"/>
<rect x="290" y="100" width="1" height="1"/>
<rect x="292" y="100" width="1" height="1"/>
<rect x="294" y="100" width="1" height="1"/>
<rect x="296" y="100" width="1" height="1"/>
<rect x="298" y="100" width="1" height="1"/>
<rect x="300" y="100" width="1" height="1"/>
<rect x="302" y="100" width="1" height="1"/>
<rect x="304" y="100" width="1" height="1"/>
<rect x="306" y="100" width="1" height="1"/>
<rect x="308" y="100" width="1" height="1"/>
<rect x="310" y="100" width="1" height="1"/>
<rect x="312" y="100" width="1" height="1"/>
<rect x="314" y="100" width="1" height="1"/>
<rect x="316" y="100" width="1" height="1"/>
<rect x="318" y="100" width="1" height="1"/>
<rect x="320" y="100" width="1" height="1"/>
<rect x="322" y="100" width="1" height="1"/>
<rect x="324" y="100" width="1" height="1"/>
<rect x="326" y="100" width="1" height="1"/>
<rect x="328" y="100" width="1" height="1"/>
<rect x="330" y="100" width="1" height="1"/>
<rect x="332" y="100" width="1" height="1"/>
<rect x="334" y="100" width="2" height="1"/>
<rect x="24" y="101" width="131" height="1"/>
<rect x="335" y="101" width="1" height="1"/>
<rect x="24" y="102" width="131" height="1"/>
<rect x="156" y="102" width="1" height="1"/>
<rect x="158" y="102" width="1" height="1"/>
<rect x="160" y="102" width="1" height="1"/>
<rect x="162" y="102" width="1" height="1"/>
<rect x="164" y="102" width="1" height="1"/>
<rect x="166" y="102" width="1" height="1"/>
<rect x="168" y="102" width="1" height="1"/>
<rect x="170" y="102" width="1" height="1"/>
<rect x="172" y="102" width="1" height="1"/>
<rect x="174" y="102" width="1" height="1"/>
<rect x="176" y="102" width="1" height="1"/>
<rect x="178" y="102" width="1" height="1"/>
<rect x="180" y="102" width="1" height="1"/>
<rect x="182" y="102" width="1" height="1"/>
<rect x="184" y="102" width="1" height="1"/>
<rect x="186" y="102" width="1" height="1"/>
<rect x="188" y="102" width="1" height="1"/>
<rect x="190" y="102" width="1" height="1"/>
<rect x="192" y="102" width="1" height="1"/>
<rect x="194" y="102" width="1" height="1"/>
<rect x="196" y="102" width="1" height="1"/>
<rect x="198" y="102" width="1" height="1"/>
<rect x="200" y="102" width="1" height="1"/>
<rect x="202" y="102" width="1" height="1"/>
<rect x="204" y="102" width="1" height="1"/>
<rect x="206" y="102" width="1" height="1"/>
<rect x="208" y="102" width="1" height="1"/>
<rect x="210" y="102" width="1" height="1"/>
<rect x="212" y="102" width="1" height="1"/>
<rect x="214" y="102" width="1" height="1"/>
<rect x="216" y="102" width="1" height="1"/>
<rect x="218" y="102" width="1" height="1"/>
<rect x="220" y="102" width="1" height="1"/>
<rect x="222" y="102" width="1" height="1"/>
<rect x="224" y="102" width="1" height="1"/>
<rect x="226" y="102" width="1" height="1"/>
<rect x="228" y="102" width="1" height="1"/>
<rect x="230" y="102" width="1" height="1"/>
<rect x="232" y="102" width="1" height="1"/>
<rect x="234" y="102" width="1" height="1"/>
<rect x="236" y="102" width="1" height="1"/>
<rect x="238" y="102" width="1" height="1"/>
<rect x="240" y="102" width="1" height="1"/>
<rect x="242" y="102" width="1" height="1"/>
<rect x="244" y="102" width="1" height="1"/>
<rect x="246" y="102" width="1" height="1"/>
<rect x="248" y="102" width="1" height="1"/>
<rect x="250" y="102" width="1" height="1"/>
<rect x="252" y="102" width="1" height="1"/>
<rect x="254" y="102" width="1" height="1"/>
<rect x="256" y="102" width="1" height="1"/>
<rect x="258" y="102" width="1" height="1"/>
<rect x="260" y="102" width="1" height="1"/>
<rect x="262" y="102" width="1" height="1"/>
<rect x="264" y="102" width="1" height="1"/>
<rect x="266" y="102" width="1" height="1"/>
<rect x="268" y="102" width="1" height="1"/>
<rect x="270" y="102" width="1" height="1"/>
<rect x="272" y="102" width="1" height="1"/>
<rect x="274" y="102" width="1" height="1"/>
<rect x="276" y="102" width="1" height="1"/>
<rect x="278" y="102" width="1" height="1"/>
<rect x="280" y="102" width="1" height="1"/>
<rect x="282" y="102" width="1" height="1"/>
<rect x="284" y="102" width="1" height="1"/>
<rect x="286" y="102" width="1" height="1"/>
<rect x="288" y="102" width="1" height="1"/>
<rect x="290" y="102" width="1" height="1"/>
<rect x="292" y="102" width="1" height="1"/>
<rect x="294" y="102" width="1" height="1"/>
<rect x="296" y="102" width="1" height="1"/>
<rect x="298" y="102" width="1" height="1"/>
<rect x="300" y="102" width="1" height="1"/>
<rect x="302" y="102" width="1" height="1"/>
<rect x="304" y="102" width="1" height="1"/>
<rect x="306" y="102" width="1" height="1"/>
<rect x="308" y="102" width="1" height="1"/>
<rect x="310" y="102" width="1" height="1"/>
<rect x="312" y="102" width="1" height="1"/>
<rect x="314" y="102" width="1" height="1"/>
<rect x="316" y="102" width="1" height="1"/>
<rect x="318" y="102" width="1" height="1"/>
<rect x="320" y="102" width="1" height="1"/>
<rect x="322" y="102" width="1" height="1"/>
<rect x="324" y="102" width="1" height="1"/>
<rect x="326" y="102" width="1" height="1"/>
<rect x="328" y="102" width="1" height="1"/>
<rect x="330" y="102" width="1" height="1"/>
<rect x="332" y="102" width="1" height="1"/>
<rect x="334" y="102" width="2" height="1"/>
<rect x="24" y="103" width="131" height="1"/>
<rect x="335" y="103" width="1" height="1"/>
<rect x="24" y="104" width="131" height="1"/>
<rect x="156" y="104" width="1" height="1"/>
<rect x="158" y="104" width="1" height="1"/>
<rect x="160" y="104" width="1" height="1"/>
<rect x="162" y="104" width="1" height="1"/>
<rect x="164" y="104" width="1" height="1"/>
<rect x="166" y="104" width="1" height="1"/>
<rect x="168" y="104" width="1" height="1"/>
<rect x="170" y="104" width="1" height="1"/>
<rect x="172" y="104" width="1" height="1"/>
<rect x="174" y="104" width="1" height="1"/>
<rect x="176" y="104" width="1" height="1"/>
<rect x="178" y="104" width="1" height="1"/>
<rect x="180" y="104" width="1" height="1"/>
<rect x="182" y="104" width="1" height="1"/>
<rect x="184" y="104" width="1" height="1"/>
<rect x="186" y="104" width="1" height="1"/>
<rect x="188" y="104" width="1" height="1"/>
<rect x="190" y="104" width="1" height="1"/>
<rect x="192" y="104" width="1" height="1"/>
<rect x="194" y="104" width="1" height="1"/>
<rect x="196" y="104" width="1" height="1"/>
<rect x="198" y="104" width="1" height="1"/>
<rect x="200" y="104" width="1" height="1"/>
<rect x="202" y="104" width="1" height="1"/>
<rect x="204" y="104" width="1" height="1"/>
<rect x="206" y="104" width="1" height="1"/>
<rect x="208" y="104" width="1" height="1"/>
<rect x="210" y="104" width="1" height="1"/>
<rect x="212" y="104" width="1" height="1"/>
<rect x="214" y="104" width="1" height="1"/>
<rect x="216" y="104" width="1" height="1"/>
<rect x="218" y="104" width="1" height="1"/>
<rect x="220" y="104" width="1" height="1"/>
<rect x="222" y="104" width="1" height="1"/>
<rect x="224" y="104" width="1" height="1"/>
<rect x="226" y="104" width="1" height="1"/>
<rect x="228" y="104" width="1" height="1"/>
<rect x="230" y="104" width="1" height="1"/>
<rect x="232" y="104" width="1" height="1"/>
<rect x="234" y="104" width="1" height="1"/>
<rect x="236" y="104" width="1" height="1"/>
<rect x="238" y="104" width="1" height="1"/>
<rect x="240" y="104" width="1" height="1"/>
<rect x="242" y="104" width="1" height="1"/>
<rect x="244" y="104" width="1" height="1"/>
<rect x="246" y="104" width="1" height="1"/>
<rect x="248" y="104" width="1" height="1"/>
<rect x="250" y="104" width="1" height="1"/>
<rect x="252" y="104" width="1" height="1"/>
<rect x="254" y="104" width="1" height="1"/>
<rect x="256" y="104" width="1" height="1"/>
<rect x="258" y="104" width="1" height="1"/>
<rect x="260" y="104" width="1" height="1"/>
<rect x="262" y="104" width="1" height="1"/>
<rect x="264" y="104" width="1" height="1"/>
<rect x="266" y="104" width="1" height="1"/>
<rect x="268" y="104" width="1" height="1"/>
<rect x="270" y="104" width="1" height="1"/>
<rect x="272" y="104" width="1" height="1"/>
<rect x="274" y="104" width="1" height="1"/>
<rect x="276" y="104" width="1" height="1"/>
<rect x="278" y="104" width="1" height="1"/>
<rect x="280" y="104" width="1" height="1"/>
<rect x="282" y="104" width="1" height="1"/>
<rect x="284" y="104" width="1" height="1"/>
<rect x="286" y="104" width="1" height="1"/>
<rect x="288" y="104" width="1" height="1"/>
<rect x="290" y="104" width="1" height="1"/>
<rect x="292" y="104" width="1" height="1"/>
<rect x="294" y="104" width="1" height="1"/>
<rect x="296" y="104" width="1" height="1"/>
<rect x="298" y="104" width="1" height="1"/>
<rect x="300" y="104" width="1" height="1"/>
<rect x="302" y="104" width="1" height="1"/>
<rect x="304" y="104" width="1" height="1"/>
<rect x="306" y="104" width="1" height="1"/>
<rect x="308" y="104" width="1" height="1"/>
<rect x="310" y="104" width="1" height="1"/>
<rect x="312" y="104" width="1" height="1"/>
<rect x="314" y="104" width="1" height="1"/>
<rect x="316" y="104" width="1" height="1"/>
<rect x="318" y="104" width="1" height="1"/>
<rect x="320" y="104" width="1" height="1"/>
<rect x="322" y="104" width="1" height="1"/>
<rect x="324" y="104" width="1" height="1"/>
<rect x="326" y="104" width="1" height="1"/>
<rect x="328" y="104" width="1" height="1"/>
<rect x="330" y="104" width="1" height="1"/>
<rect x="332" y="104" width="1" height="1"/>
<rect x="334" y="104" width="2" height="1"/>
<rect x="24" y="105" width="131" height="1"/>
<rect x="335" y="105" width="1" height="1"/>
<rect x="24" y="106" width="131" height="1"/>
<rect x="156" y="106" width="1" height="1"/>
<rect x="158" y="106" width="1" height="1"/>
<rect x="160" y="106" width="1" height="1"/>
<rect x="162" y="106" width="1" height="1"/>
<rect x="164" y="106" width="1" height="1"/>
<rect x="166" y="106" width="1" height="1"/>
<rect x="168" y="106" width="1" height="1"/>
<rect x="170" y="106" width="1" height="1"/>
<rect x="172" y="106" width="1" height="1"/>
<rect x="174" y="106" width="1" height="1"/>
<rect x="176" y="106" width="1" height="1"/>
<rect x="178" y="106" width="1" height="1"/>
<rect x="180" y="106" width="1" height="1"/>
<rect x="182" y="106" width="1" height="1"/>
<rect x="184" y="106" width="1" height="1"/>
<rect x="186" y="106" width="1" height="1"/>
<rect x="188" y="106" width="1" height="1"/>
<rect x="190" y="106" width="1" height="1"/>
<rect x="192" y="106" width="1" height="1"/>
<rect x="194" y="106" width="1" height="1"/>
<rect x="196" y="106" width="1" height="1"/>
<rect x="198" y="106" width="1" height="1"/>
<rect x="200" y="106" width="1" height="1"/>
<rect x="202" y="106" width="1" height="1"/>
<rect x="204" y="106" width="1" height="1"/>
<rect x="206" y="106" width="1" height="1"/>
<rect x="208" y="106" width="1" height="1"/>
<rect x="210" y="106" width="1" height="1"/>
<rect x="212" y="106" width="1" height="1"/>
<rect x="214" y="106" width="1" height="1"/>
<rect x="216" y="106" width="1" height="1"/>
<rect x="218" y="106" width="1" height="1"/>
<rect x="220" y="106" width="1" height="1"/>
<rect x="222" y="106" width="1" height="1"/>
<rect x="224" y="106" width="1" height="1"/>
<rect x="226" y="106" width="1" height="1"/>
<rect x="228" y="106" width="1" height="1"/>
<rect x="230" y="106" width="1" height="1"/>
<rect x="232" y="106" width="1" height="1"/>
<rect x="234" y="106" width="1" height="1"/>
<rect x="236" y="106" width="1" height="1"/>
<rect x="238" y="106" width="1" height="1"/>
<rect x="240" y="106" width="1" height="1"/>
<rect x="242" y="106" width="1" height="1"/>
<rect x="244" y="106" width="1" height="1"/>
<rect x="246" y="106" width="1" height="1"/>
<rect x="248" y="106" width="1" height="1"/>
<rect x="250" y="106" width="1" height="1"/>
<rect x="252" y="106" width="1" height="1"/>
<rect x="254" y="106" width="1" height="1"/>
<rect x="256" y="106" width="1" height="1"/>
<rect x="258" y="106" width="1" height="1"/>
<rect x="260" y="106" width="1" height="1"/>
<rect x="262" y="106" width="1" height="1"/>
<rect x="264" y="106" width="1" height="1"/>
<rect x="266" y="106" width="1" height="1"/>
<rect x="268" y="106" width="1" height="1"/>
<rect x="270" y="106" width="1" height="1"/>
<rect x="272" y="106" width="1" height="1"/>
<rect x="274" y="106" width="1" height="1"/>
<rect x="276" y="106" width="1" height="1"/>
<rect x="278" y="106" width="1" height="1"/>
<rect x="280" y="106" width="1" height="1"/>
<rect x="282" y="106" width="1" height="1"/>
<rect x="284" y="106" width="1" height="1"/>
<rect x="286" y="106" width="1" height="1"/>
<rect x="288" y="106" width="1" height="1"/>
<rect x="290" y="106" width="1" height="1"/>
<rect x="292" y="106" width="1" height="1"/>
<rect x="294" y="106" width="1" height="1"/>
<rect x="296" y="106" width="1" height="1"/>
<rect x="298" y="106" width="1" height="1"/>
<rect x="300" y="106" width="1" height="1"/>
<rect x="302" y="106" width="1" height="1"/>
<rect x="304" y="106" width="1" height="1"/>
<rect x="306" y="106" width="1" height="1"/>
<rect x="308" y="106" width="1" height="1"/>
<rect x="310" y="106" width="1" height="1"/>
<rect x="312" y="106" width="1" height="1"/>
<rect x="314" y="106" width="1" height="1"/>
<rect x="316" y="106" width="1" height="1"/>
<rect x="318" y="106" width="1" height="1"/>
<rect x="320" y="106" width="1" height="1"/>
<rect x="322" y="106" width="1" height="1"/>
<rect x="324" y="106" width="1" height="1"/>
<rect x="326" y="106" width="1" height="1"/>
<rect x="328" y="106" width="1" height="1"/>
<rect x="330" y="106" width="1" height="1"/>
<rect x="332" y="106" width="1" height="1"/>
<rect x="334" y="106" width="2" height="1"/>
<rect x="24" y="107" width="312" height="1"/>
</g>
</svg>
