<svg xmlns="http://www.w3.org/2000/svg" viewBox="0 0 360 180" width="360" height="180" shape-rendering="crispEdges">
<rect width="100%" height="100%" fill="#fff"/>
<g fill="#111">
<rect x="30" y="0" width="1" height="1"/>
<rect x="51" y="0" width="23" height="1"/>
<rect x="91" y="0" width="2" height="1"/>
<rect x="102" y="0" width="1" height="1"/>
<rect x="125" y="0" width="4" height="1"/>
<rect x="142" y="0" width="3" height="1"/>
<rect x="30" y="1" width="1" height="1"/>
<rect x="91" y="1" width="2" height="1"/>
<rect x="102" y="1" width="1" height="1"/>
<rect x="128" y="1" width="1" height="1"/>
<rect x="142" y="1" width="3" height="1"/>
<rect x="26" y="2" width="9" height="1"/>
<rect x="91" y="2" width="2" height="1"/>
<rect x="102" y="2" width="1" height="1"/>
<rect x="127" y="2" width="2" height="1"/>
<rect x="142" y="2" width="3" height="1"/>
<rect x="23" y="3" width="12" height="1"/>
<rect x="91" y="3" width="2" height="1"/>
<rect x="102" y="3" width="1" height="1"/>
<rect x="124" y="3" width="5" height="1"/>
<rect x="142" y="3" width="3" height="1"/>
<rect x="22" y="4" width="11" height="1"/>
<rect x="91" y="4" width="3" height="1"/>
<rect x="101" y="4" width="2" height="1"/>
<rect x="122" y="4" width="5" height="1"/>
<rect x="142" y="4" width="3" height="1"/>
<rect x="22" y="5" width="2" height="1"/>
<rect x="27" y="5" width="2" height="1"/>
<rect x="30" y="5" width="1" height="1"/>
<rect x="32" y="5" width="2" height="1"/>
<rect x="92" y="5" width="11" height="1"/>
<rect x="119" y="5" width="6" height="1"/>
<rect x="142" y="5" width="3" height="1"/>
<rect x="22" y="6" width="2" height="1"/>
<rect x="27" y="6" width="2" height="1"/>
<rect x="30" y="6" width="1" height="1"/>
<rect x="33" y="6" width="2" height="1"/>
<rect x="93" y="6" width="9" height="1"/>
<rect x="118" y="6" width="4" height="1"/>
<rect x="142" y="6" width="3" height="1"/>
<rect x="22" y="7" width="2" height="1"/>
<rect x="27" y="7" width="2" height="1"/>
<rect x="30" y="7" width="1" height="1"/>
<rect x="33" y="7" width="2" height="1"/>
<rect x="95" y="7" width="5" height="1"/>
<rect x="118" y="7" width="1" height="1"/>
<rect x="142" y="7" width="3" height="1"/>
<rect x="22" y="8" width="2" height="1"/>
<rect x="27" y="8" width="2" height="1"/>
<rect x="30" y="8" width="1" height="1"/>
<rect x="34" y="8" width="1" height="1"/>
<rect x="142" y="8" width="3" height="1"/>
<rect x="22" y="9" width="2" height="1"/>
<rect x="28" y="9" width="1" height="1"/>
<rect x="30" y="9" width="1" height="1"/>
<rect x="33" y="9" width="2" height="1"/>
<rect x="142" y="9" width="3" height="1"/>
<rect x="23" y="10" width="2" height="1"/>
<rect x="28" y="10" width="3" height="1"/>
<rect x="32" y="10" width="3" height="1"/>
<rect x="142" y="10" width="3" height="1"/>
<rect x="29" y="11" width="6" height="1"/>
<rect x="142" y="11" width="3" height="1"/>
<rect x="30" y="12" width="3" height="1"/>
<rect x="142" y="12" width="3" height="1"/>
<rect x="30" y="13" width="1" height="1"/>
<rect x="142" y="13" width="3" height="1"/>
<rect x="30" y="14" width="1" height="1"/>
<rect x="66" y="14" width="2" height="1"/>
<rect x="77" y="14" width="2" height="1"/>
<rect x="142" y="14" width="3" height="1"/>
<rect x="30" y="15" width="1" height="1"/>
<rect x="66" y="15" width="2" height="1"/>
<rect x="77" y="15" width="2" height="1"/>
<rect x="142" y="15" width="3" height="1"/>
<rect x="25" y="16" width="7" height="1"/>
<rect x="66" y="16" width="2" height="1"/>
<rect x="77" y="16" width="2" height="1"/>
<rect x="142" y="16" width="3" height="1"/>
<rect x="24" y="17" width="10" height="1"/>
<rect x="66" y="17" width="2" height="1"/>
<rect x="76" y="17" width="1" height="1"/>
<rect x="142" y="17" width="3" height="1"/>
<rect x="23" y="18" width="3" height="1"/>
<rect x="30" y="18" width="4" height="1"/>
<rect x="63" y="18" width="14" height="1"/>
<rect x="142" y="18" width="3" height="1"/>
<rect x="22" y="19" width="2" height="1"/>
<rect x="30" y="19" width="1" height="1"/>
<rect x="33" y="19" width="2" height="1"/>
<rect x="65" y="19" width="12" height="1"/>
<rect x="142" y="19" width="3" height="1"/>
<rect x="22" y="20" width="2" height="1"/>
<rect x="30" y="20" width="1" height="1"/>
<rect x="33" y="20" width="2" height="1"/>
<rect x="66" y="20" width="2" height="1"/>
<rect x="142" y="20" width="3" height="1"/>
<rect x="22" y="21" width="2" height="1"/>
<rect x="30" y="21" width="1" height="1"/>
<rect x="33" y="21" width="2" height="1"/>
<rect x="67" y="21" width="1" height="1"/>
<rect x="142" y="21" width="3" height="1"/>
<rect x="22" y="22" width="2" height="1"/>
<rect x="30" y="22" width="1" height="1"/>
<rect x="33" y="22" width="2" height="1"/>
<rect x="142" y="22" width="3" height="1"/>
<rect x="22" y="23" width="2" height="1"/>
<rect x="30" y="23" width="1" height="1"/>
<rect x="33" y="23" width="2" height="1"/>
<rect x="142" y="23" width="3" height="1"/>
<rect x="22" y="24" width="3" height="1"/>
<rect x="30" y="24" width="1" height="1"/>
<rect x="32" y="24" width="3" height="1"/>
<rect x="142" y="24" width="3" height="1"/>
<rect x="23" y="25" width="11" height="1"/>
<rect x="86" y="25" width="2" height="1"/>
<rect x="117" y="25" width="1" height="1"/>
<rect x="128" y="25" width="1" height="1"/>
<rect x="142" y="25" width="3" height="1"/>
<rect x="24" y="26" width="9" height="1"/>
<rect x="86" y="26" width="1" height="1"/>
<rect x="91" y="26" width="2" height="1"/>
<rect x="117" y="26" width="2" height="1"/>
<rect x="128" y="26" width="1" height="1"/>
<rect x="142" y="26" width="3" height="1"/>
<rect x="26" y="27" width="5" height="1"/>
<rect x="86" y="27" width="1" height="1"/>
<rect x="91" y="27" width="2" height="1"/>
<rect x="117" y="27" width="2" height="1"/>
<rect x="128" y="27" width="1" height="1"/>
<rect x="142" y="27" width="3" height="1"/>
<rect x="30" y="28" width="1" height="1"/>
<rect x="86" y="28" width="2" height="1"/>
<rect x="91" y="28" width="2" height="1"/>
<rect x="117" y="28" width="2" height="1"/>
<rect x="128" y="28" width="1" height="1"/>
<rect x="142" y="28" width="3" height="1"/>
<rect x="30" y="29" width="1" height="1"/>
<rect x="86" y="29" width="17" height="1"/>
<rect x="117" y="29" width="2" height="1"/>
<rect x="128" y="29" width="1" height="1"/>
<rect x="142" y="29" width="3" height="1"/>
<rect x="30" y="30" width="1" height="1"/>
<rect x="87" y="30" width="16" height="1"/>
<rect x="117" y="30" width="2" height="1"/>
<rect x="128" y="30" width="1" height="1"/>
<rect x="142" y="30" width="3" height="1"/>
<rect x="24" y="31" width="9" height="1"/>
<rect x="91" y="31" width="2" height="1"/>
<rect x="117" y="31" width="3" height="1"/>
<rect x="127" y="31" width="2" height="1"/>
<rect x="142" y="31" width="3" height="1"/>
<rect x="23" y="32" width="11" height="1"/>
<rect x="91" y="32" width="2" height="1"/>
<rect x="118" y="32" width="11" height="1"/>
<rect x="142" y="32" width="3" height="1"/>
<rect x="22" y="33" width="3" height="1"/>
<rect x="30" y="33" width="1" height="1"/>
<rect x="32" y="33" width="3" height="1"/>
<rect x="92" y="33" width="1" height="1"/>
<rect x="119" y="33" width="9" height="1"/>
<rect x="142" y="33" width="3" height="1"/>
<rect x="22" y="34" width="2" height="1"/>
<rect x="30" y="34" width="1" height="1"/>
<rect x="33" y="34" width="2" height="1"/>
<rect x="121" y="34" width="5" height="1"/>
<rect x="142" y="34" width="3" height="1"/>
<rect x="22" y="35" width="2" height="1"/>
<rect x="30" y="35" width="1" height="1"/>
<rect x="33" y="35" width="2" height="1"/>
<rect x="142" y="35" width="3" height="1"/>
<rect x="22" y="36" width="2" height="1"/>
<rect x="30" y="36" width="1" height="1"/>
<rect x="33" y="36" width="2" height="1"/>
<rect x="142" y="36" width="3" height="1"/>
<rect x="22" y="37" width="2" height="1"/>
<rect x="30" y="37" width="1" height="1"/>
<rect x="33" y="37" width="2" height="1"/>
<rect x="142" y="37" width="3" height="1"/>
<rect x="23" y="38" width="1" height="1"/>
<rect x="30" y="38" width="1" height="1"/>
<rect x="33" y="38" width="2" height="1"/>
<rect x="142" y="38" width="3" height="1"/>
<rect x="23" y="39" width="3" height="1"/>
<rect x="30" y="39" width="4" height="1"/>
<rect x="142" y="39" width="3" height="1"/>
<rect x="17" y="40" width="18" height="1"/>
<rect x="142" y="40" width="3" height="1"/>
<rect x="17" y="41" width="18" height="1"/>
<rect x="142" y="41" width="3" height="1"/>
<rect x="30" y="42" width="1" height="1"/>
<rect x="142" y="42" width="3" height="1"/>
<rect x="30" y="43" width="1" height="1"/>
<rect x="65" y="43" width="1" height="1"/>
<rect x="142" y="43" width="3" height="1"/>
<rect x="23" y="44" width="2" height="1"/>
<rect x="30" y="44" width="1" height="1"/>
<rect x="65" y="44" width="2" height="1"/>
<rect x="142" y="44" width="3" height="1"/>
<rect x="23" y="45" width="5" height="1"/>
<rect x="30" y="45" width="1" height="1"/>
<rect x="65" y="45" width="2" height="1"/>
<rect x="142" y="45" width="3" height="1"/>
<rect x="24" y="46" width="7" height="1"/>
<rect x="65" y="46" width="2" height="1"/>
<rect x="142" y="46" width="3" height="1"/>
<rect x="27" y="47" width="6" height="1"/>
<rect x="66" y="47" width="2" height="1"/>
<rect x="142" y="47" width="3" height="1"/>
<rect x="30" y="48" width="6" height="1"/>
<rect x="67" y="48" width="2" height="1"/>
<rect x="142" y="48" width="3" height="1"/>
<rect x="30" y="49" width="1" height="1"/>
<rect x="33" y="49" width="5" height="1"/>
<rect x="65" y="49" width="12" height="1"/>
<rect x="142" y="49" width="3" height="1"/>
<rect x="30" y="50" width="1" height="1"/>
<rect x="32" y="50" width="8" height="1"/>
<rect x="65" y="50" width="12" height="1"/>
<rect x="142" y="50" width="3" height="1"/>
<rect x="29" y="51" width="5" height="1"/>
<rect x="38" y="51" width="3" height="1"/>
<rect x="142" y="51" width="3" height="1"/>
<rect x="26" y="52" width="6" height="1"/>
<rect x="39" y="52" width="3" height="1"/>
<rect x="86" y="52" width="17" height="1"/>
<rect x="118" y="52" width="1" height="1"/>
<rect x="142" y="52" width="3" height="1"/>
<rect x="24" y="53" width="5" height="1"/>
<rect x="30" y="53" width="1" height="1"/>
<rect x="40" y="53" width="2" height="1"/>
<rect x="86" y="53" width="17" height="1"/>
<rect x="118" y="53" width="2" height="1"/>
<rect x="142" y="53" width="3" height="1"/>
<rect x="23" y="54" width="4" height="1"/>
<rect x="30" y="54" width="1" height="1"/>
<rect x="40" y="54" width="2" height="1"/>
<rect x="93" y="54" width="3" height="1"/>
<rect x="100" y="54" width="2" height="1"/>
<rect x="118" y="54" width="4" height="1"/>
<rect x="127" y="54" width="2" height="1"/>
<rect x="142" y="54" width="3" height="1"/>
<rect x="23" y="55" width="1" height="1"/>
<rect x="30" y="55" width="1" height="1"/>
<rect x="40" y="55" width="2" height="1"/>
<rect x="92" y="55" width="2" height="1"/>
<rect x="102" y="55" width="1" height="1"/>
<rect x="120" y="55" width="3" height="1"/>
<rect x="126" y="55" width="3" height="1"/>
<rect x="142" y="55" width="3" height="1"/>
<rect x="30" y="56" width="1" height="1"/>
<rect x="91" y="56" width="2" height="1"/>
<rect x="102" y="56" width="1" height="1"/>
<rect x="121" y="56" width="7" height="1"/>
<rect x="30" y="57" width="1" height="1"/>
<rect x="91" y="57" width="2" height="1"/>
<rect x="102" y="57" width="1" height="1"/>
<rect x="123" y="57" width="3" height="1"/>
<rect x="24" y="58" width="5" height="1"/>
<rect x="30" y="58" width="1" height="1"/>
<rect x="33" y="58" width="1" height="1"/>
<rect x="91" y="58" width="2" height="1"/>
<rect x="102" y="58" width="1" height="1"/>
<rect x="122" y="58" width="5" height="1"/>
<rect x="23" y="59" width="6" height="1"/>
<rect x="30" y="59" width="1" height="1"/>
<rect x="33" y="59" width="2" height="1"/>
<rect x="91" y="59" width="2" height="1"/>
<rect x="102" y="59" width="1" height="1"/>
<rect x="120" y="59" width="4" height="1"/>
<rect x="125" y="59" width="4" height="1"/>
<rect x="22" y="60" width="3" height="1"/>
<rect x="27" y="60" width="2" height="1"/>
<rect x="30" y="60" width="1" height="1"/>
<rect x="33" y="60" width="2" height="1"/>
<rect x="91" y="60" width="3" height="1"/>
<rect x="101" y="60" width="2" height="1"/>
<rect x="119" y="60" width="3" height="1"/>
<rect x="127" y="60" width="2" height="1"/>
<rect x="22" y="61" width="2" height="1"/>
<rect x="27" y="61" width="2" height="1"/>
<rect x="30" y="61" width="1" height="1"/>
<rect x="33" y="61" width="2" height="1"/>
<rect x="92" y="61" width="11" height="1"/>
<rect x="118" y="61" width="3" height="1"/>
<rect x="128" y="61" width="1" height="1"/>
<rect x="22" y="62" width="2" height="1"/>
<rect x="27" y="62" width="2" height="1"/>
<rect x="30" y="62" width="1" height="1"/>
<rect x="33" y="62" width="2" height="1"/>
<rect x="93" y="62" width="9" height="1"/>
<rect x="118" y="62" width="1" height="1"/>
<rect x="22" y="63" width="2" height="1"/>
<rect x="27" y="63" width="2" height="1"/>
<rect x="30" y="63" width="1" height="1"/>
<rect x="33" y="63" width="2" height="1"/>
<rect x="95" y="63" width="5" height="1"/>
<rect x="22" y="64" width="2" height="1"/>
<rect x="27" y="64" width="2" height="1"/>
<rect x="30" y="64" width="1" height="1"/>
<rect x="33" y="64" width="2" height="1"/>
<rect x="22" y="65" width="3" height="1"/>
<rect x="27" y="65" width="2" height="1"/>
<rect x="30" y="65" width="1" height="1"/>
<rect x="32" y="65" width="3" height="1"/>
<rect x="23" y="66" width="11" height="1"/>
<rect x="24" y="67" width="9" height="1"/>
<rect x="27" y="68" width="4" height="1"/>
<rect x="30" y="69" width="1" height="1"/>
<rect x="18" y="70" width="1" height="1"/>
<rect x="30" y="70" width="1" height="1"/>
<rect x="34" y="70" width="1" height="1"/>
<rect x="18" y="71" width="1" height="1"/>
<rect x="30" y="71" width="1" height="1"/>
<rect x="33" y="71" width="2" height="1"/>
<rect x="18" y="72" width="2" height="1"/>
<rect x="30" y="72" width="1" height="1"/>
<rect x="32" y="72" width="3" height="1"/>
<rect x="18" y="73" width="3" height="1"/>
<rect x="30" y="73" width="4" height="1"/>
<rect x="67" y="73" width="5" height="1"/>
<rect x="76" y="73" width="1" height="1"/>
<rect x="20" y="74" width="2" height="1"/>
<rect x="29" y="74" width="4" height="1"/>
<rect x="66" y="74" width="6" height="1"/>
<rect x="76" y="74" width="1" height="1"/>
<rect x="21" y="75" width="2" height="1"/>
<rect x="28" y="75" width="3" height="1"/>
<rect x="65" y="75" width="3" height="1"/>
<rect x="70" y="75" width="2" height="1"/>
<rect x="76" y="75" width="1" height="1"/>
<rect x="22" y="76" width="3" height="1"/>
<rect x="26" y="76" width="5" height="1"/>
<rect x="65" y="76" width="2" height="1"/>
<rect x="70" y="76" width="2" height="1"/>
<rect x="76" y="76" width="1" height="1"/>
<rect x="23" y="77" width="6" height="1"/>
<rect x="30" y="77" width="1" height="1"/>
<rect x="65" y="77" width="2" height="1"/>
<rect x="70" y="77" width="2" height="1"/>
<rect x="76" y="77" width="1" height="1"/>
<rect x="24" y="78" width="3" height="1"/>
<rect x="30" y="78" width="1" height="1"/>
<rect x="65" y="78" width="2" height="1"/>
<rect x="70" y="78" width="2" height="1"/>
<rect x="76" y="78" width="1" height="1"/>
<rect x="25" y="79" width="2" height="1"/>
<rect x="30" y="79" width="1" height="1"/>
<rect x="65" y="79" width="2" height="1"/>
<rect x="70" y="79" width="2" height="1"/>
<rect x="76" y="79" width="1" height="1"/>
<rect x="26" y="80" width="2" height="1"/>
<rect x="30" y="80" width="1" height="1"/>
<rect x="65" y="80" width="3" height="1"/>
<rect x="70" y="80" width="2" height="1"/>
<rect x="75" y="80" width="2" height="1"/>
<rect x="18" y="81" width="17" height="1"/>
<rect x="66" y="81" width="11" height="1"/>
<rect x="118" y="81" width="3" height="1"/>
<rect x="18" y="82" width="17" height="1"/>
<rect x="67" y="82" width="9" height="1"/>
<rect x="91" y="82" width="2" height="1"/>
<rect x="98" y="82" width="5" height="1"/>
<rect x="118" y="82" width="4" height="1"/>
<rect x="30" y="83" width="1" height="1"/>
<rect x="70" y="83" width="4" height="1"/>
<rect x="91" y="83" width="2" height="1"/>
<rect x="97" y="83" width="6" height="1"/>
<rect x="118" y="83" width="6" height="1"/>
<rect x="30" y="84" width="1" height="1"/>
<rect x="91" y="84" width="2" height="1"/>
<rect x="97" y="84" width="2" height="1"/>
<rect x="102" y="84" width="1" height="1"/>
<rect x="118" y="84" width="2" height="1"/>
<rect x="122" y="84" width="3" height="1"/>
<rect x="23" y="85" width="2" height="1"/>
<rect x="30" y="85" width="1" height="1"/>
<rect x="91" y="85" width="2" height="1"/>
<rect x="97" y="85" width="2" height="1"/>
<rect x="102" y="85" width="1" height="1"/>
<rect x="118" y="85" width="2" height="1"/>
<rect x="123" y="85" width="3" height="1"/>
<rect x="23" y="86" width="5" height="1"/>
<rect x="30" y="86" width="1" height="1"/>
<rect x="91" y="86" width="2" height="1"/>
<rect x="96" y="86" width="2" height="1"/>
<rect x="118" y="86" width="2" height="1"/>
<rect x="125" y="86" width="3" height="1"/>
<rect x="24" y="87" width="7" height="1"/>
<rect x="91" y="87" width="2" height="1"/>
<rect x="96" y="87" width="2" height="1"/>
<rect x="102" y="87" width="1" height="1"/>
<rect x="118" y="87" width="2" height="1"/>
<rect x="126" y="87" width="3" height="1"/>
<rect x="27" y="88" width="6" height="1"/>
<rect x="91" y="88" width="2" height="1"/>
<rect x="95" y="88" width="2" height="1"/>
<rect x="102" y="88" width="1" height="1"/>
<rect x="118" y="88" width="2" height="1"/>
<rect x="127" y="88" width="2" height="1"/>
<rect x="30" y="89" width="6" height="1"/>
<rect x="92" y="89" width="5" height="1"/>
<rect x="102" y="89" width="1" height="1"/>
<rect x="118" y="89" width="2" height="1"/>
<rect x="30" y="90" width="1" height="1"/>
<rect x="33" y="90" width="5" height="1"/>
<rect x="93" y="90" width="3" height="1"/>
<rect x="101" y="90" width="2" height="1"/>
<rect x="30" y="91" width="1" height="1"/>
<rect x="32" y="91" width="8" height="1"/>
<rect x="29" y="92" width="5" height="1"/>
<rect x="38" y="92" width="3" height="1"/>
<rect x="26" y="93" width="6" height="1"/>
<rect x="39" y="93" width="3" height="1"/>
<rect x="24" y="94" width="5" height="1"/>
<rect x="30" y="94" width="1" height="1"/>
<rect x="40" y="94" width="2" height="1"/>
<rect x="23" y="95" width="4" height="1"/>
<rect x="30" y="95" width="1" height="1"/>
<rect x="40" y="95" width="2" height="1"/>
<rect x="23" y="96" width="1" height="1"/>
<rect x="30" y="96" width="1" height="1"/>
<rect x="40" y="96" width="2" height="1"/>
<rect x="30" y="97" width="1" height="1"/>
<rect x="23" y="98" width="2" height="1"/>
<rect x="30" y="98" width="1" height="1"/>
<rect x="34" y="98" width="2" height="1"/>
<rect x="66" y="98" width="1" height="1"/>
<rect x="23" y="99" width="2" height="1"/>
<rect x="30" y="99" width="1" height="1"/>
<rect x="34" y="99" width="2" height="1"/>
<rect x="66" y="99" width="4" height="1"/>
<rect x="23" y="100" width="2" height="1"/>
<rect x="30" y="100" width="1" height="1"/>
<rect x="34" y="100" width="2" height="1"/>
<rect x="66" y="100" width="8" height="1"/>
<rect x="23" y="101" width="2" height="1"/>
<rect x="30" y="101" width="1" height="1"/>
<rect x="33" y="101" width="3" height="1"/>
<rect x="70" y="101" width="7" height="1"/>
<rect x="20" y="102" width="16" height="1"/>
<rect x="74" y="102" width="3" height="1"/>
<rect x="155" y="102" width="2" height="1"/>
<rect x="22" y="103" width="12" height="1"/>
<rect x="76" y="103" width="1" height="1"/>
<rect x="154" y="103" width="3" height="1"/>
<rect x="23" y="104" width="2" height="1"/>
<rect x="30" y="104" width="1" height="1"/>
<rect x="72" y="104" width="5" height="1"/>
<rect x="154" y="104" width="3" height="1"/>
<rect x="24" y="105" width="1" height="1"/>
<rect x="30" y="105" width="1" height="1"/>
<rect x="69" y="105" width="7" height="1"/>
<rect x="22" y="106" width="1" height="1"/>
<rect x="30" y="106" width="1" height="1"/>
<rect x="66" y="106" width="6" height="1"/>
<rect x="22" y="107" width="2" height="1"/>
<rect x="30" y="107" width="1" height="1"/>
<rect x="66" y="107" width="3" height="1"/>
<rect x="22" y="108" width="2" height="1"/>
<rect x="30" y="108" width="1" height="1"/>
<rect x="66" y="108" width="6" height="1"/>
<rect x="95" y="108" width="8" height="1"/>
<rect x="155" y="108" width="2" height="1"/>
<rect x="22" y="109" width="2" height="1"/>
<rect x="30" y="109" width="1" height="1"/>
<rect x="69" y="109" width="6" height="1"/>
<rect x="92" y="109" width="11" height="1"/>
<rect x="154" y="109" width="3" height="1"/>
<rect x="23" y="110" width="2" height="1"/>
<rect x="30" y="110" width="1" height="1"/>
<rect x="72" y="110" width="5" height="1"/>
<rect x="91" y="110" width="11" height="1"/>
<rect x="154" y="110" width="3" height="1"/>
<rect x="24" y="111" width="2" height="1"/>
<rect x="30" y="111" width="1" height="1"/>
<rect x="75" y="111" width="2" height="1"/>
<rect x="91" y="111" width="2" height="1"/>
<rect x="96" y="111" width="2" height="1"/>
<rect x="101" y="111" width="2" height="1"/>
<rect x="22" y="112" width="13" height="1"/>
<rect x="74" y="112" width="3" height="1"/>
<rect x="91" y="112" width="2" height="1"/>
<rect x="96" y="112" width="2" height="1"/>
<rect x="102" y="112" width="1" height="1"/>
<rect x="22" y="113" width="13" height="1"/>
<rect x="70" y="113" width="7" height="1"/>
<rect x="91" y="113" width="2" height="1"/>
<rect x="96" y="113" width="2" height="1"/>
<rect x="102" y="113" width="1" height="1"/>
<rect x="128" y="113" width="1" height="1"/>
<rect x="30" y="114" width="1" height="1"/>
<rect x="66" y="114" width="8" height="1"/>
<rect x="91" y="114" width="2" height="1"/>
<rect x="96" y="114" width="2" height="1"/>
<rect x="128" y="114" width="1" height="1"/>
<rect x="155" y="114" width="2" height="1"/>
<rect x="30" y="115" width="1" height="1"/>
<rect x="66" y="115" width="5" height="1"/>
<rect x="91" y="115" width="2" height="1"/>
<rect x="97" y="115" width="1" height="1"/>
<rect x="102" y="115" width="1" height="1"/>
<rect x="154" y="115" width="3" height="1"/>
<rect x="30" y="116" width="1" height="1"/>
<rect x="66" y="116" width="1" height="1"/>
<rect x="92" y="116" width="2" height="1"/>
<rect x="97" y="116" width="2" height="1"/>
<rect x="101" y="116" width="2" height="1"/>
<rect x="154" y="116" width="3" height="1"/>
<rect x="30" y="117" width="1" height="1"/>
<rect x="98" y="117" width="5" height="1"/>
<rect x="24" y="118" width="5" height="1"/>
<rect x="30" y="118" width="1" height="1"/>
<rect x="33" y="118" width="1" height="1"/>
<rect x="99" y="118" width="3" height="1"/>
<rect x="23" y="119" width="6" height="1"/>
<rect x="30" y="119" width="1" height="1"/>
<rect x="33" y="119" width="2" height="1"/>
<rect x="128" y="119" width="1" height="1"/>
<rect x="22" y="120" width="3" height="1"/>
<rect x="27" y="120" width="2" height="1"/>
<rect x="30" y="120" width="1" height="1"/>
<rect x="33" y="120" width="2" height="1"/>
<rect x="128" y="120" width="1" height="1"/>
<rect x="22" y="121" width="2" height="1"/>
<rect x="27" y="121" width="2" height="1"/>
<rect x="30" y="121" width="1" height="1"/>
<rect x="33" y="121" width="2" height="1"/>
<rect x="22" y="122" width="2" height="1"/>
<rect x="27" y="122" width="2" height="1"/>
<rect x="30" y="122" width="1" height="1"/>
<rect x="33" y="122" width="2" height="1"/>
<rect x="22" y="123" width="2" height="1"/>
<rect x="27" y="123" width="2" height="1"/>
<rect x="30" y="123" width="1" height="1"/>
<rect x="33" y="123" width="2" height="1"/>
<rect x="22" y="124" width="2" height="1"/>
<rect x="27" y="124" width="2" height="1"/>
<rect x="30" y="124" width="1" height="1"/>
<rect x="33" y="124" width="2" height="1"/>
<rect x="139" y="124" width="17" height="1"/>
<rect x="22" y="125" width="3" height="1"/>
<rect x="27" y="125" width="2" height="1"/>
<rect x="30" y="125" width="1" height="1"/>
<rect x="32" y="125" width="3" height="1"/>
<rect x="128" y="125" width="1" height="1"/>
<rect x="139" y="125" width="17" height="1"/>
<rect x="23" y="126" width="11" height="1"/>
<rect x="128" y="126" width="1" height="1"/>
<rect x="139" y="126" width="2" height="1"/>
<rect x="142" y="126" width="14" height="1"/>
<rect x="24" y="127" width="9" height="1"/>
<rect x="140" y="127" width="2" height="1"/>
<rect x="27" y="128" width="4" height="1"/>
<rect x="141" y="128" width="2" height="1"/>
<rect x="30" y="129" width="1" height="1"/>
<rect x="141" y="129" width="3" height="1"/>
<rect x="23" y="130" width="1" height="1"/>
<rect x="30" y="130" width="1" height="1"/>
<rect x="113" y="130" width="1" height="1"/>
<rect x="123" y="130" width="5" height="1"/>
<rect x="142" y="130" width="1" height="1"/>
<rect x="23" y="131" width="4" height="1"/>
<rect x="30" y="131" width="1" height="1"/>
<rect x="113" y="131" width="2" height="1"/>
<rect x="122" y="131" width="7" height="1"/>
<rect x="23" y="132" width="8" height="1"/>
<rect x="65" y="132" width="19" height="1"/>
<rect x="113" y="132" width="2" height="1"/>
<rect x="121" y="132" width="3" height="1"/>
<rect x="127" y="132" width="2" height="1"/>
<rect x="27" y="133" width="7" height="1"/>
<rect x="65" y="133" width="19" height="1"/>
<rect x="113" y="133" width="2" height="1"/>
<rect x="121" y="133" width="2" height="1"/>
<rect x="128" y="133" width="1" height="1"/>
<rect x="141" y="133" width="3" height="1"/>
<rect x="30" y="134" width="6" height="1"/>
<rect x="67" y="134" width="3" height="1"/>
<rect x="73" y="134" width="3" height="1"/>
<rect x="113" y="134" width="2" height="1"/>
<rect x="121" y="134" width="2" height="1"/>
<rect x="128" y="134" width="1" height="1"/>
<rect x="140" y="134" width="6" height="1"/>
<rect x="30" y="135" width="1" height="1"/>
<rect x="33" y="135" width="3" height="1"/>
<rect x="66" y="135" width="2" height="1"/>
<rect x="76" y="135" width="1" height="1"/>
<rect x="113" y="135" width="2" height="1"/>
<rect x="120" y="135" width="2" height="1"/>
<rect x="128" y="135" width="1" height="1"/>
<rect x="139" y="135" width="3" height="1"/>
<rect x="144" y="135" width="3" height="1"/>
<rect x="29" y="136" width="7" height="1"/>
<rect x="65" y="136" width="2" height="1"/>
<rect x="76" y="136" width="2" height="1"/>
<rect x="113" y="136" width="2" height="1"/>
<rect x="120" y="136" width="2" height="1"/>
<rect x="128" y="136" width="1" height="1"/>
<rect x="139" y="136" width="2" height="1"/>
<rect x="145" y="136" width="3" height="1"/>
<rect x="26" y="137" width="7" height="1"/>
<rect x="65" y="137" width="2" height="1"/>
<rect x="76" y="137" width="2" height="1"/>
<rect x="113" y="137" width="2" height="1"/>
<rect x="119" y="137" width="3" height="1"/>
<rect x="128" y="137" width="1" height="1"/>
<rect x="139" y="137" width="2" height="1"/>
<rect x="146" y="137" width="3" height="1"/>
<rect x="154" y="137" width="2" height="1"/>
<rect x="23" y="138" width="6" height="1"/>
<rect x="30" y="138" width="1" height="1"/>
<rect x="65" y="138" width="2" height="1"/>
<rect x="76" y="138" width="2" height="1"/>
<rect x="113" y="138" width="8" height="1"/>
<rect x="128" y="138" width="1" height="1"/>
<rect x="139" y="138" width="2" height="1"/>
<rect x="147" y="138" width="4" height="1"/>
<rect x="153" y="138" width="3" height="1"/>
<rect x="23" y="139" width="3" height="1"/>
<rect x="30" y="139" width="1" height="1"/>
<rect x="65" y="139" width="2" height="1"/>
<rect x="76" y="139" width="2" height="1"/>
<rect x="114" y="139" width="6" height="1"/>
<rect x="128" y="139" width="1" height="1"/>
<rect x="139" y="139" width="2" height="1"/>
<rect x="149" y="139" width="2" height="1"/>
<rect x="153" y="139" width="3" height="1"/>
<rect x="23" y="140" width="6" height="1"/>
<rect x="30" y="140" width="1" height="1"/>
<rect x="65" y="140" width="3" height="1"/>
<rect x="75" y="140" width="3" height="1"/>
<rect x="116" y="140" width="2" height="1"/>
<rect x="127" y="140" width="2" height="1"/>
<rect x="139" y="140" width="2" height="1"/>
<rect x="26" y="141" width="6" height="1"/>
<rect x="66" y="141" width="11" height="1"/>
<rect x="139" y="141" width="2" height="1"/>
<rect x="29" y="142" width="6" height="1"/>
<rect x="67" y="142" width="9" height="1"/>
<rect x="139" y="142" width="1" height="1"/>
<rect x="30" y="143" width="1" height="1"/>
<rect x="32" y="143" width="4" height="1"/>
<rect x="69" y="143" width="5" height="1"/>
<rect x="30" y="144" width="6" height="1"/>
<rect x="27" y="145" width="8" height="1"/>
<rect x="23" y="146" width="8" height="1"/>
<rect x="23" y="147" width="5" height="1"/>
<rect x="30" y="147" width="1" height="1"/>
<rect x="23" y="148" width="1" height="1"/>
<rect x="30" y="148" width="1" height="1"/>
<rect x="30" y="149" width="1" height="1"/>
<rect x="30" y="150" width="1" height="1"/>
<rect x="22" y="151" width="19" height="1"/>
<rect x="22" y="152" width="19" height="1"/>
<rect x="24" y="153" width="3" height="1"/>
<rect x="30" y="153" width="3" height="1"/>
<rect x="23" y="154" width="2" height="1"/>
<rect x="30" y="154" width="1" height="1"/>
<rect x="33" y="154" width="1" height="1"/>
<rect x="22" y="155" width="2" height="1"/>
<rect x="30" y="155" width="1" height="1"/>
<rect x="33" y="155" width="2" height="1"/>
<rect x="22" y="156" width="2" height="1"/>
<rect x="30" y="156" width="1" height="1"/>
<rect x="33" y="156" width="2" height="1"/>
<rect x="22" y="157" width="2" height="1"/>
<rect x="30" y="157" width="1" height="1"/>
<rect x="33" y="157" width="2" height="1"/>
<rect x="22" y="158" width="2" height="1"/>
<rect x="30" y="158" width="1" height="1"/>
<rect x="33" y="158" width="2" height="1"/>
<rect x="22" y="159" width="3" height="1"/>
<rect x="30" y="159" width="1" height="1"/>
<rect x="32" y="159" width="3" height="1"/>
<rect x="23" y="160" width="11" height="1"/>
<rect x="24" y="161" width="9" height="1"/>
<rect x="26" y="162" width="5" height="1"/>
<rect x="30" y="163" width="1" height="1"/>
</g>
</svg>
