<svg xmlns="http://www.w3.org/2000/svg" viewBox="0 0 360 180" width="360" height="180" shape-rendering="crispEdges">
<rect width="100%" height="100%" fill="#fff"/>
<g fill="#111">
<rect x="81" y="16" width="1" height="1"/>
<rect x="114" y="16" width="1" height="1"/>
<rect x="47" y="17" width="1" height="1"/>
<rect x="59" y="17" width="1" height="1"/>
<rect x="64" y="17" width="2" height="1"/>
<rect x="81" y="17" width="1" height="1"/>
<rect x="114" y="17" width="1" height="1"/>
<rect x="47" y="18" width="1" height="1"/>
<rect x="59" y="18" width="1" height="1"/>
<rect x="63" y="18" width="2" height="1"/>
<rect x="81" y="18" width="1" height="1"/>
<rect x="114" y="18" width="1" height="1"/>
<rect x="18" y="19" width="3" height="1"/>
<rect x="22" y="19" width="1" height="1"/>
<rect x="24" y="19" width="1" height="1"/>
<rect x="28" y="19" width="2" height="1"/>
<rect x="33" y="19" width="1" height="1"/>
<rect x="36" y="19" width="3" height="1"/>
<rect x="42" y="19" width="1" height="1"/>
<rect x="44" y="19" width="6" height="1"/>
<rect x="51" y="19" width="1" height="1"/>
<rect x="56" y="19" width="2" height="1"/>
<rect x="59" y="19" width="1" height="1"/>
<rect x="62" y="19" width="2" height="1"/>
<rect x="68" y="19" width="3" height="1"/>
<rect x="73" y="19" width="1" height="1"/>
<rect x="78" y="19" width="2" height="1"/>
<rect x="81" y="19" width="1" height="1"/>
<rect x="83" y="19" width="3" height="1"/>
<rect x="90" y="19" width="4" height="1"/>
<rect x="98" y="19" width="4" height="1"/>
<rect x="104" y="19" width="1" height="1"/>
<rect x="106" y="19" width="2" height="1"/>
<rect x="110" y="19" width="3" height="1"/>
<rect x="114" y="19" width="1" height="1"/>
<rect x="17" y="20" width="1" height="1"/>
<rect x="21" y="20" width="2" height="1"/>
<rect x="25" y="20" width="1" height="1"/>
<rect x="28" y="20" width="2" height="1"/>
<rect x="33" y="20" width="1" height="1"/>
<rect x="35" y="20" width="1" height="1"/>
<rect x="39" y="20" width="1" height="1"/>
<rect x="42" y="20" width="2" height="1"/>
<rect x="47" y="20" width="1" height="1"/>
<rect x="52" y="20" width="1" height="1"/>
<rect x="56" y="20" width="1" height="1"/>
<rect x="59" y="20" width="1" height="1"/>
<rect x="61" y="20" width="2" height="1"/>
<rect x="67" y="20" width="1" height="1"/>
<rect x="71" y="20" width="1" height="1"/>
<rect x="74" y="20" width="1" height="1"/>
<rect x="78" y="20" width="1" height="1"/>
<rect x="81" y="20" width="2" height="1"/>
<rect x="86" y="20" width="1" height="1"/>
<rect x="89" y="20" width="1" height="1"/>
<rect x="93" y="20" width="2" height="1"/>
<rect x="97" y="20" width="1" height="1"/>
<rect x="101" y="20" width="1" height="1"/>
<rect x="104" y="20" width="2" height="1"/>
<rect x="109" y="20" width="1" height="1"/>
<rect x="113" y="20" width="2" height="1"/>
<rect x="17" y="21" width="1" height="1"/>
<rect x="22" y="21" width="1" height="1"/>
<rect x="25" y="21" width="1" height="1"/>
<rect x="28" y="21" width="3" height="1"/>
<rect x="32" y="21" width="1" height="1"/>
<rect x="35" y="21" width="1" height="1"/>
<rect x="39" y="21" width="2" height="1"/>
<rect x="42" y="21" width="1" height="1"/>
<rect x="47" y="21" width="1" height="1"/>
<rect x="52" y="21" width="1" height="1"/>
<rect x="55" y="21" width="2" height="1"/>
<rect x="59" y="21" width="4" height="1"/>
<rect x="67" y="21" width="1" height="1"/>
<rect x="71" y="21" width="2" height="1"/>
<rect x="74" y="21" width="1" height="1"/>
<rect x="77" y="21" width="2" height="1"/>
<rect x="81" y="21" width="1" height="1"/>
<rect x="86" y="21" width="1" height="1"/>
<rect x="89" y="21" width="1" height="1"/>
<rect x="94" y="21" width="1" height="1"/>
<rect x="101" y="21" width="1" height="1"/>
<rect x="104" y="21" width="1" height="1"/>
<rect x="109" y="21" width="1" height="1"/>
<rect x="114" y="21" width="1" height="1"/>
<rect x="17" y="22" width="1" height="1"/>
<rect x="22" y="22" width="1" height="1"/>
<rect x="25" y="22" width="1" height="1"/>
<rect x="27" y="22" width="1" height="1"/>
<rect x="30" y="22" width="1" height="1"/>
<rect x="32" y="22" width="1" height="1"/>
<rect x="35" y="22" width="6" height="1"/>
<rect x="42" y="22" width="1" height="1"/>
<rect x="47" y="22" width="1" height="1"/>
<rect x="52" y="22" width="2" height="1"/>
<rect x="55" y="22" width="1" height="1"/>
<rect x="59" y="22" width="2" height="1"/>
<rect x="62" y="22" width="1" height="1"/>
<rect x="67" y="22" width="6" height="1"/>
<rect x="74" y="22" width="2" height="1"/>
<rect x="77" y="22" width="1" height="1"/>
<rect x="81" y="22" width="1" height="1"/>
<rect x="86" y="22" width="1" height="1"/>
<rect x="89" y="22" width="1" height="1"/>
<rect x="94" y="22" width="1" height="1"/>
<rect x="97" y="22" width="5" height="1"/>
<rect x="104" y="22" width="1" height="1"/>
<rect x="109" y="22" width="1" height="1"/>
<rect x="114" y="22" width="1" height="1"/>
<rect x="17" y="23" width="1" height="1"/>
<rect x="22" y="23" width="1" height="1"/>
<rect x="25" y="23" width="1" height="1"/>
<rect x="27" y="23" width="1" height="1"/>
<rect x="30" y="23" width="1" height="1"/>
<rect x="32" y="23" width="1" height="1"/>
<rect x="35" y="23" width="1" height="1"/>
<rect x="42" y="23" width="1" height="1"/>
<rect x="47" y="23" width="1" height="1"/>
<rect x="53" y="23" width="1" height="1"/>
<rect x="55" y="23" width="1" height="1"/>
<rect x="59" y="23" width="1" height="1"/>
<rect x="63" y="23" width="1" height="1"/>
<rect x="67" y="23" width="1" height="1"/>
<rect x="75" y="23" width="1" height="1"/>
<rect x="77" y="23" width="1" height="1"/>
<rect x="81" y="23" width="1" height="1"/>
<rect x="86" y="23" width="1" height="1"/>
<rect x="89" y="23" width="1" height="1"/>
<rect x="94" y="23" width="1" height="1"/>
<rect x="97" y="23" width="1" height="1"/>
<rect x="101" y="23" width="1" height="1"/>
<rect x="104" y="23" width="1" height="1"/>
<rect x="109" y="23" width="1" height="1"/>
<rect x="114" y="23" width="1" height="1"/>
<rect x="17" y="24" width="1" height="1"/>
<rect x="21" y="24" width="2" height="1"/>
<rect x="26" y="24" width="2" height="1"/>
<rect x="30" y="24" width="1" height="1"/>
<rect x="32" y="24" width="1" height="1"/>
<rect x="35" y="24" width="1" height="1"/>
<rect x="42" y="24" width="1" height="1"/>
<rect x="47" y="24" width="1" height="1"/>
<rect x="53" y="24" width="3" height="1"/>
<rect x="59" y="24" width="1" height="1"/>
<rect x="64" y="24" width="1" height="1"/>
<rect x="67" y="24" width="1" height="1"/>
<rect x="75" y="24" width="3" height="1"/>
<rect x="81" y="24" width="2" height="1"/>
<rect x="86" y="24" width="1" height="1"/>
<rect x="89" y="24" width="1" height="1"/>
<rect x="93" y="24" width="2" height="1"/>
<rect x="97" y="24" width="1" height="1"/>
<rect x="101" y="24" width="1" height="1"/>
<rect x="104" y="24" width="1" height="1"/>
<rect x="109" y="24" width="1" height="1"/>
<rect x="113" y="24" width="2" height="1"/>
<rect x="18" y="25" width="3" height="1"/>
<rect x="22" y="25" width="1" height="1"/>
<rect x="26" y="25" width="2" height="1"/>
<rect x="31" y="25" width="1" height="1"/>
<rect x="36" y="25" width="4" height="1"/>
<rect x="42" y="25" width="1" height="1"/>
<rect x="48" y="25" width="2" height="1"/>
<rect x="54" y="25" width="1" height="1"/>
<rect x="59" y="25" width="1" height="1"/>
<rect x="64" y="25" width="2" height="1"/>
<rect x="68" y="25" width="4" height="1"/>
<rect x="76" y="25" width="1" height="1"/>
<rect x="81" y="25" width="1" height="1"/>
<rect x="83" y="25" width="3" height="1"/>
<rect x="90" y="25" width="4" height="1"/>
<rect x="97" y="25" width="5" height="1"/>
<rect x="104" y="25" width="1" height="1"/>
<rect x="110" y="25" width="3" height="1"/>
<rect x="114" y="25" width="1" height="1"/>
<rect x="22" y="26" width="1" height="1"/>
<rect x="54" y="26" width="1" height="1"/>
<rect x="76" y="26" width="1" height="1"/>
<rect x="22" y="27" width="1" height="1"/>
<rect x="53" y="27" width="1" height="1"/>
<rect x="75" y="27" width="1" height="1"/>
<rect x="22" y="28" width="1" height="1"/>
<rect x="51" y="28" width="3" height="1"/>
<rect x="73" y="28" width="3" height="1"/>
<rect x="16" y="30" width="328" height="1"/>
<rect x="179" y="51" width="27" height="1"/>
<rect x="179" y="52" width="27" height="1"/>
<rect x="179" y="53" width="27" height="1"/>
<rect x="179" y="54" width="27" height="1"/>
<rect x="179" y="55" width="27" height="1"/>
<rect x="179" y="56" width="27" height="1"/>
<rect x="179" y="57" width="27" height="1"/>
<rect x="252" y="57" width="1" height="1"/>
<rect x="161" y="58" width="1" height="1"/>
<rect x="179" y="58" width="27" height="1"/>
<rect x="161" y="59" width="1" height="1"/>
<rect x="179" y="59" width="27" height="1"/>
<rect x="40" y="60" width="3" height="1"/>
<rect x="44" y="60" width="1" height="1"/>
<rect x="67" y="60" width="1" height="1"/>
<rect x="71" y="60" width="2" height="1"/>
<rect x="76" y="60" width="1" height="1"/>
<rect x="101" y="60" width="3" height="1"/>
<rect x="131" y="60" width="1" height="1"/>
<rect x="133" y="60" width="2" height="1"/>
<rect x="160" y="60" width="4" height="1"/>
<rect x="179" y="60" width="10" height="1"/>
<rect x="190" y="60" width="4" height="1"/>
<rect x="196" y="60" width="10" height="1"/>
<rect x="219" y="60" width="1" height="1"/>
<rect x="224" y="60" width="1" height="1"/>
<rect x="252" y="60" width="1" height="1"/>
<rect x="280" y="60" width="4" height="1"/>
<rect x="312" y="60" width="1" height="1"/>
<rect x="314" y="60" width="3" height="1"/>
<rect x="39" y="61" width="1" height="1"/>
<rect x="43" y="61" width="2" height="1"/>
<rect x="68" y="61" width="1" height="1"/>
<rect x="71" y="61" width="2" height="1"/>
<rect x="76" y="61" width="1" height="1"/>
<rect x="100" y="61" width="1" height="1"/>
<rect x="104" y="61" width="1" height="1"/>
<rect x="131" y="61" width="2" height="1"/>
<rect x="161" y="61" width="1" height="1"/>
<rect x="179" y="61" width="11" height="1"/>
<rect x="191" y="61" width="3" height="1"/>
<rect x="195" y="61" width="11" height="1"/>
<rect x="219" y="61" width="1" height="1"/>
<rect x="224" y="61" width="1" height="1"/>
<rect x="252" y="61" width="1" height="1"/>
<rect x="279" y="61" width="1" height="1"/>
<rect x="283" y="61" width="2" height="1"/>
<rect x="312" y="61" width="2" height="1"/>
<rect x="317" y="61" width="1" height="1"/>
<rect x="39" y="62" width="1" height="1"/>
<rect x="44" y="62" width="1" height="1"/>
<rect x="68" y="62" width="1" height="1"/>
<rect x="71" y="62" width="3" height="1"/>
<rect x="75" y="62" width="1" height="1"/>
<rect x="100" y="62" width="1" height="1"/>
<rect x="104" y="62" width="2" height="1"/>
<rect x="131" y="62" width="1" height="1"/>
<rect x="161" y="62" width="1" height="1"/>
<rect x="179" y="62" width="11" height="1"/>
<rect x="191" y="62" width="2" height="1"/>
<rect x="195" y="62" width="11" height="1"/>
<rect x="219" y="62" width="1" height="1"/>
<rect x="224" y="62" width="1" height="1"/>
<rect x="252" y="62" width="1" height="1"/>
<rect x="279" y="62" width="1" height="1"/>
<rect x="284" y="62" width="1" height="1"/>
<rect x="312" y="62" width="1" height="1"/>
<rect x="317" y="62" width="1" height="1"/>
<rect x="39" y="63" width="1" height="1"/>
<rect x="44" y="63" width="1" height="1"/>
<rect x="68" y="63" width="1" height="1"/>
<rect x="70" y="63" width="1" height="1"/>
<rect x="73" y="63" width="1" height="1"/>
<rect x="75" y="63" width="1" height="1"/>
<rect x="100" y="63" width="6" height="1"/>
<rect x="131" y="63" width="1" height="1"/>
<rect x="161" y="63" width="1" height="1"/>
<rect x="179" y="63" width="11" height="1"/>
<rect x="192" y="63" width="1" height="1"/>
<rect x="194" y="63" width="12" height="1"/>
<rect x="219" y="63" width="1" height="1"/>
<rect x="224" y="63" width="1" height="1"/>
<rect x="252" y="63" width="1" height="1"/>
<rect x="279" y="63" width="1" height="1"/>
<rect x="284" y="63" width="1" height="1"/>
<rect x="312" y="63" width="1" height="1"/>
<rect x="317" y="63" width="1" height="1"/>
<rect x="39" y="64" width="1" height="1"/>
<rect x="44" y="64" width="1" height="1"/>
<rect x="68" y="64" width="1" height="1"/>
<rect x="70" y="64" width="1" height="1"/>
<rect x="73" y="64" width="1" height="1"/>
<rect x="75" y="64" width="1" height="1"/>
<rect x="100" y="64" width="1" height="1"/>
<rect x="131" y="64" width="1" height="1"/>
<rect x="161" y="64" width="1" height="1"/>
<rect x="179" y="64" width="12" height="1"/>
<rect x="192" y="64" width="1" height="1"/>
<rect x="194" y="64" width="12" height="1"/>
<rect x="219" y="64" width="1" height="1"/>
<rect x="224" y="64" width="1" height="1"/>
<rect x="252" y="64" width="1" height="1"/>
<rect x="279" y="64" width="1" height="1"/>
<rect x="284" y="64" width="1" height="1"/>
<rect x="312" y="64" width="1" height="1"/>
<rect x="317" y="64" width="1" height="1"/>
<rect x="39" y="65" width="1" height="1"/>
<rect x="43" y="65" width="2" height="1"/>
<rect x="69" y="65" width="2" height="1"/>
<rect x="73" y="65" width="1" height="1"/>
<rect x="75" y="65" width="1" height="1"/>
<rect x="100" y="65" width="1" height="1"/>
<rect x="131" y="65" width="1" height="1"/>
<rect x="161" y="65" width="1" height="1"/>
<rect x="179" y="65" width="12" height="1"/>
<rect x="194" y="65" width="12" height="1"/>
<rect x="219" y="65" width="1" height="1"/>
<rect x="223" y="65" width="2" height="1"/>
<rect x="252" y="65" width="1" height="1"/>
<rect x="279" y="65" width="1" height="1"/>
<rect x="283" y="65" width="2" height="1"/>
<rect x="312" y="65" width="2" height="1"/>
<rect x="316" y="65" width="2" height="1"/>
<rect x="40" y="66" width="3" height="1"/>
<rect x="44" y="66" width="1" height="1"/>
<rect x="69" y="66" width="2" height="1"/>
<rect x="74" y="66" width="1" height="1"/>
<rect x="101" y="66" width="4" height="1"/>
<rect x="131" y="66" width="1" height="1"/>
<rect x="162" y="66" width="2" height="1"/>
<rect x="179" y="66" width="13" height="1"/>
<rect x="193" y="66" width="13" height="1"/>
<rect x="220" y="66" width="3" height="1"/>
<rect x="224" y="66" width="1" height="1"/>
<rect x="252" y="66" width="1" height="1"/>
<rect x="280" y="66" width="4" height="1"/>
<rect x="312" y="66" width="1" height="1"/>
<rect x="314" y="66" width="3" height="1"/>
<rect x="44" y="67" width="1" height="1"/>
<rect x="179" y="67" width="13" height="1"/>
<rect x="193" y="67" width="13" height="1"/>
<rect x="312" y="67" width="1" height="1"/>
<rect x="44" y="68" width="1" height="1"/>
<rect x="179" y="68" width="12" height="1"/>
<rect x="192" y="68" width="14" height="1"/>
<rect x="312" y="68" width="1" height="1"/>
<rect x="44" y="69" width="1" height="1"/>
<rect x="179" y="69" width="10" height="1"/>
<rect x="192" y="69" width="14" height="1"/>
<rect x="312" y="69" width="1" height="1"/>
<rect x="179" y="70" width="27" height="1"/>
<rect x="179" y="71" width="27" height="1"/>
<rect x="179" y="72" width="27" height="1"/>
<rect x="179" y="73" width="27" height="1"/>
<rect x="124" y="83" width="1" height="1"/>
<rect x="150" y="83" width="3" height="1"/>
<rect x="203" y="83" width="1" height="1"/>
<rect x="234" y="83" width="1" height="1"/>
<rect x="260" y="83" width="1" height="1"/>
<rect x="291" y="83" width="1" height="1"/>
<rect x="124" y="84" width="1" height="1"/>
<rect x="150" y="84" width="1" height="1"/>
<rect x="203" y="84" width="1" height="1"/>
<rect x="260" y="84" width="1" height="1"/>
<rect x="291" y="84" width="1" height="1"/>
<rect x="124" y="85" width="1" height="1"/>
<rect x="149" y="85" width="2" height="1"/>
<rect x="203" y="85" width="1" height="1"/>
<rect x="260" y="85" width="1" height="1"/>
<rect x="291" y="85" width="1" height="1"/>
<rect x="65" y="86" width="4" height="1"/>
<rect x="92" y="86" width="5" height="1"/>
<rect x="120" y="86" width="3" height="1"/>
<rect x="124" y="86" width="1" height="1"/>
<rect x="148" y="86" width="4" height="1"/>
<rect x="176" y="86" width="3" height="1"/>
<rect x="180" y="86" width="1" height="1"/>
<rect x="203" y="86" width="1" height="1"/>
<rect x="205" y="86" width="3" height="1"/>
<rect x="234" y="86" width="1" height="1"/>
<rect x="260" y="86" width="1" height="1"/>
<rect x="264" y="86" width="2" height="1"/>
<rect x="291" y="86" width="1" height="1"/>
<rect x="64" y="87" width="1" height="1"/>
<rect x="68" y="87" width="1" height="1"/>
<rect x="92" y="87" width="1" height="1"/>
<rect x="119" y="87" width="1" height="1"/>
<rect x="123" y="87" width="2" height="1"/>
<rect x="149" y="87" width="2" height="1"/>
<rect x="175" y="87" width="1" height="1"/>
<rect x="179" y="87" width="2" height="1"/>
<rect x="203" y="87" width="2" height="1"/>
<rect x="208" y="87" width="1" height="1"/>
<rect x="234" y="87" width="1" height="1"/>
<rect x="260" y="87" width="1" height="1"/>
<rect x="263" y="87" width="1" height="1"/>
<rect x="291" y="87" width="1" height="1"/>
<rect x="68" y="88" width="1" height="1"/>
<rect x="92" y="88" width="1" height="1"/>
<rect x="119" y="88" width="1" height="1"/>
<rect x="124" y="88" width="1" height="1"/>
<rect x="149" y="88" width="2" height="1"/>
<rect x="175" y="88" width="1" height="1"/>
<rect x="180" y="88" width="1" height="1"/>
<rect x="203" y="88" width="1" height="1"/>
<rect x="208" y="88" width="1" height="1"/>
<rect x="234" y="88" width="1" height="1"/>
<rect x="260" y="88" width="1" height="1"/>
<rect x="262" y="88" width="1" height="1"/>
<rect x="291" y="88" width="1" height="1"/>
<rect x="64" y="89" width="5" height="1"/>
<rect x="93" y="89" width="3" height="1"/>
<rect x="119" y="89" width="1" height="1"/>
<rect x="124" y="89" width="1" height="1"/>
<rect x="149" y="89" width="2" height="1"/>
<rect x="175" y="89" width="1" height="1"/>
<rect x="180" y="89" width="1" height="1"/>
<rect x="203" y="89" width="1" height="1"/>
<rect x="208" y="89" width="1" height="1"/>
<rect x="234" y="89" width="1" height="1"/>
<rect x="260" y="89" width="3" height="1"/>
<rect x="291" y="89" width="1" height="1"/>
<rect x="64" y="90" width="1" height="1"/>
<rect x="68" y="90" width="1" height="1"/>
<rect x="95" y="90" width="2" height="1"/>
<rect x="119" y="90" width="1" height="1"/>
<rect x="124" y="90" width="1" height="1"/>
<rect x="149" y="90" width="2" height="1"/>
<rect x="175" y="90" width="1" height="1"/>
<rect x="180" y="90" width="1" height="1"/>
<rect x="203" y="90" width="1" height="1"/>
<rect x="208" y="90" width="1" height="1"/>
<rect x="234" y="90" width="1" height="1"/>
<rect x="260" y="90" width="1" height="1"/>
<rect x="263" y="90" width="1" height="1"/>
<rect x="291" y="90" width="1" height="1"/>
<rect x="64" y="91" width="1" height="1"/>
<rect x="68" y="91" width="1" height="1"/>
<rect x="95" y="91" width="2" height="1"/>
<rect x="119" y="91" width="1" height="1"/>
<rect x="123" y="91" width="2" height="1"/>
<rect x="149" y="91" width="2" height="1"/>
<rect x="175" y="91" width="1" height="1"/>
<rect x="179" y="91" width="2" height="1"/>
<rect x="203" y="91" width="1" height="1"/>
<rect x="208" y="91" width="1" height="1"/>
<rect x="234" y="91" width="1" height="1"/>
<rect x="260" y="91" width="1" height="1"/>
<rect x="263" y="91" width="2" height="1"/>
<rect x="291" y="91" width="1" height="1"/>
<rect x="64" y="92" width="5" height="1"/>
<rect x="92" y="92" width="4" height="1"/>
<rect x="120" y="92" width="3" height="1"/>
<rect x="124" y="92" width="1" height="1"/>
<rect x="149" y="92" width="2" height="1"/>
<rect x="176" y="92" width="3" height="1"/>
<rect x="180" y="92" width="1" height="1"/>
<rect x="203" y="92" width="1" height="1"/>
<rect x="208" y="92" width="1" height="1"/>
<rect x="234" y="92" width="1" height="1"/>
<rect x="260" y="92" width="1" height="1"/>
<rect x="264" y="92" width="2" height="1"/>
<rect x="291" y="92" width="1" height="1"/>
<rect x="180" y="93" width="1" height="1"/>
<rect x="234" y="93" width="1" height="1"/>
<rect x="179" y="94" width="2" height="1"/>
<rect x="234" y="94" width="1" height="1"/>
<rect x="175" y="95" width="5" height="1"/>
<rect x="233" y="95" width="2" height="1"/>
<rect x="301" y="108" width="12" height="1"/>
<rect x="48" y="109" width="1" height="1"/>
<rect x="56" y="109" width="1" height="1"/>
<rect x="60" y="109" width="3" height="1"/>
<rect x="203" y="109" width="1" height="1"/>
<rect x="299" y="109" width="3" height="1"/>
<rect x="312" y="109" width="1" height="1"/>
<rect x="42" y="110" width="4" height="1"/>
<rect x="48" y="110" width="1" height="1"/>
<rect x="60" y="110" width="1" height="1"/>
<rect x="63" y="110" width="1" height="1"/>
<rect x="203" y="110" width="1" height="1"/>
<rect x="299" y="110" width="3" height="1"/>
<rect x="312" y="110" width="1" height="1"/>
<rect x="41" y="111" width="1" height="1"/>
<rect x="48" y="111" width="1" height="1"/>
<rect x="59" y="111" width="2" height="1"/>
<rect x="63" y="111" width="1" height="1"/>
<rect x="203" y="111" width="1" height="1"/>
<rect x="298" y="111" width="3" height="1"/>
<rect x="312" y="111" width="1" height="1"/>
<rect x="41" y="112" width="1" height="1"/>
<rect x="48" y="112" width="1" height="1"/>
<rect x="50" y="112" width="3" height="1"/>
<rect x="56" y="112" width="1" height="1"/>
<rect x="58" y="112" width="8" height="1"/>
<rect x="92" y="112" width="5" height="1"/>
<rect x="119" y="112" width="2" height="1"/>
<rect x="124" y="112" width="2" height="1"/>
<rect x="149" y="112" width="4" height="1"/>
<rect x="175" y="112" width="1" height="1"/>
<rect x="180" y="112" width="2" height="1"/>
<rect x="203" y="112" width="1" height="1"/>
<rect x="205" y="112" width="3" height="1"/>
<rect x="231" y="112" width="1" height="1"/>
<rect x="233" y="112" width="3" height="1"/>
<rect x="257" y="112" width="1" height="1"/>
<rect x="259" y="112" width="3" height="1"/>
<rect x="263" y="112" width="3" height="1"/>
<rect x="297" y="112" width="2" height="1"/>
<rect x="304" y="112" width="2" height="1"/>
<rect x="308" y="112" width="1" height="1"/>
<rect x="312" y="112" width="1" height="1"/>
<rect x="41" y="113" width="2" height="1"/>
<rect x="48" y="113" width="2" height="1"/>
<rect x="53" y="113" width="1" height="1"/>
<rect x="56" y="113" width="1" height="1"/>
<rect x="59" y="113" width="2" height="1"/>
<rect x="63" y="113" width="1" height="1"/>
<rect x="95" y="113" width="1" height="1"/>
<rect x="120" y="113" width="2" height="1"/>
<rect x="123" y="113" width="1" height="1"/>
<rect x="148" y="113" width="1" height="1"/>
<rect x="176" y="113" width="1" height="1"/>
<rect x="180" y="113" width="1" height="1"/>
<rect x="203" y="113" width="2" height="1"/>
<rect x="208" y="113" width="1" height="1"/>
<rect x="231" y="113" width="2" height="1"/>
<rect x="236" y="113" width="1" height="1"/>
<rect x="257" y="113" width="2" height="1"/>
<rect x="261" y="113" width="2" height="1"/>
<rect x="266" y="113" width="1" height="1"/>
<rect x="296" y="113" width="1" height="1"/>
<rect x="306" y="113" width="2" height="1"/>
<rect x="312" y="113" width="1" height="1"/>
<rect x="42" y="114" width="3" height="1"/>
<rect x="48" y="114" width="1" height="1"/>
<rect x="53" y="114" width="1" height="1"/>
<rect x="56" y="114" width="1" height="1"/>
<rect x="59" y="114" width="2" height="1"/>
<rect x="63" y="114" width="1" height="1"/>
<rect x="94" y="114" width="1" height="1"/>
<rect x="121" y="114" width="1" height="1"/>
<rect x="123" y="114" width="1" height="1"/>
<rect x="148" y="114" width="1" height="1"/>
<rect x="176" y="114" width="1" height="1"/>
<rect x="179" y="114" width="2" height="1"/>
<rect x="203" y="114" width="1" height="1"/>
<rect x="208" y="114" width="1" height="1"/>
<rect x="231" y="114" width="1" height="1"/>
<rect x="236" y="114" width="1" height="1"/>
<rect x="257" y="114" width="1" height="1"/>
<rect x="262" y="114" width="1" height="1"/>
<rect x="266" y="114" width="1" height="1"/>
<rect x="296" y="114" width="1" height="1"/>
<rect x="306" y="114" width="2" height="1"/>
<rect x="312" y="114" width="1" height="1"/>
<rect x="45" y="115" width="1" height="1"/>
<rect x="48" y="115" width="1" height="1"/>
<rect x="53" y="115" width="1" height="1"/>
<rect x="56" y="115" width="1" height="1"/>
<rect x="59" y="115" width="2" height="1"/>
<rect x="63" y="115" width="1" height="1"/>
<rect x="93" y="115" width="2" height="1"/>
<rect x="122" y="115" width="1" height="1"/>
<rect x="148" y="115" width="1" height="1"/>
<rect x="176" y="115" width="1" height="1"/>
<rect x="179" y="115" width="1" height="1"/>
<rect x="203" y="115" width="1" height="1"/>
<rect x="208" y="115" width="1" height="1"/>
<rect x="231" y="115" width="1" height="1"/>
<rect x="236" y="115" width="1" height="1"/>
<rect x="257" y="115" width="1" height="1"/>
<rect x="262" y="115" width="1" height="1"/>
<rect x="266" y="115" width="1" height="1"/>
<rect x="296" y="115" width="1" height="1"/>
<rect x="306" y="115" width="2" height="1"/>
<rect x="312" y="115" width="1" height="1"/>
<rect x="45" y="116" width="2" height="1"/>
<rect x="48" y="116" width="1" height="1"/>
<rect x="53" y="116" width="1" height="1"/>
<rect x="56" y="116" width="1" height="1"/>
<rect x="59" y="116" width="2" height="1"/>
<rect x="63" y="116" width="1" height="1"/>
<rect x="93" y="116" width="1" height="1"/>
<rect x="121" y="116" width="1" height="1"/>
<rect x="123" y="116" width="1" height="1"/>
<rect x="148" y="116" width="1" height="1"/>
<rect x="177" y="116" width="1" height="1"/>
<rect x="179" y="116" width="1" height="1"/>
<rect x="203" y="116" width="1" height="1"/>
<rect x="208" y="116" width="1" height="1"/>
<rect x="231" y="116" width="1" height="1"/>
<rect x="236" y="116" width="1" height="1"/>
<rect x="257" y="116" width="1" height="1"/>
<rect x="262" y="116" width="1" height="1"/>
<rect x="266" y="116" width="1" height="1"/>
<rect x="297" y="116" width="2" height="1"/>
<rect x="304" y="116" width="2" height="1"/>
<rect x="308" y="116" width="1" height="1"/>
<rect x="312" y="116" width="1" height="1"/>
<rect x="45" y="117" width="1" height="1"/>
<rect x="48" y="117" width="1" height="1"/>
<rect x="53" y="117" width="1" height="1"/>
<rect x="56" y="117" width="1" height="1"/>
<rect x="59" y="117" width="2" height="1"/>
<rect x="63" y="117" width="1" height="1"/>
<rect x="92" y="117" width="1" height="1"/>
<rect x="120" y="117" width="2" height="1"/>
<rect x="123" y="117" width="2" height="1"/>
<rect x="148" y="117" width="1" height="1"/>
<rect x="177" y="117" width="3" height="1"/>
<rect x="203" y="117" width="2" height="1"/>
<rect x="208" y="117" width="1" height="1"/>
<rect x="231" y="117" width="1" height="1"/>
<rect x="236" y="117" width="1" height="1"/>
<rect x="257" y="117" width="1" height="1"/>
<rect x="262" y="117" width="1" height="1"/>
<rect x="266" y="117" width="1" height="1"/>
<rect x="298" y="117" width="3" height="1"/>
<rect x="312" y="117" width="1" height="1"/>
<rect x="41" y="118" width="4" height="1"/>
<rect x="48" y="118" width="1" height="1"/>
<rect x="53" y="118" width="1" height="1"/>
<rect x="56" y="118" width="1" height="1"/>
<rect x="59" y="118" width="2" height="1"/>
<rect x="64" y="118" width="2" height="1"/>
<rect x="91" y="118" width="6" height="1"/>
<rect x="119" y="118" width="2" height="1"/>
<rect x="124" y="118" width="2" height="1"/>
<rect x="149" y="118" width="4" height="1"/>
<rect x="177" y="118" width="2" height="1"/>
<rect x="203" y="118" width="1" height="1"/>
<rect x="205" y="118" width="3" height="1"/>
<rect x="231" y="118" width="1" height="1"/>
<rect x="236" y="118" width="1" height="1"/>
<rect x="257" y="118" width="1" height="1"/>
<rect x="262" y="118" width="1" height="1"/>
<rect x="266" y="118" width="1" height="1"/>
<rect x="299" y="118" width="3" height="1"/>
<rect x="312" y="118" width="1" height="1"/>
<rect x="301" y="119" width="12" height="1"/>
<rect x="301" y="120" width="12" height="1"/>
<rect x="44" y="136" width="5" height="1"/>
<rect x="53" y="136" width="2" height="1"/>
<rect x="59" y="136" width="3" height="1"/>
<rect x="65" y="136" width="5" height="1"/>
<rect x="293" y="136" width="4" height="1"/>
<rect x="301" y="136" width="1" height="1"/>
<rect x="306" y="136" width="2" height="1"/>
<rect x="44" y="137" width="1" height="1"/>
<rect x="48" y="137" width="1" height="1"/>
<rect x="52" y="137" width="1" height="1"/>
<rect x="54" y="137" width="1" height="1"/>
<rect x="58" y="137" width="1" height="1"/>
<rect x="62" y="137" width="1" height="1"/>
<rect x="65" y="137" width="1" height="1"/>
<rect x="69" y="137" width="1" height="1"/>
<rect x="292" y="137" width="1" height="1"/>
<rect x="297" y="137" width="2" height="1"/>
<rect x="301" y="137" width="1" height="1"/>
<rect x="305" y="137" width="2" height="1"/>
<rect x="48" y="138" width="1" height="1"/>
<rect x="51" y="138" width="1" height="1"/>
<rect x="54" y="138" width="1" height="1"/>
<rect x="62" y="138" width="1" height="1"/>
<rect x="69" y="138" width="1" height="1"/>
<rect x="291" y="138" width="1" height="1"/>
<rect x="298" y="138" width="1" height="1"/>
<rect x="301" y="138" width="1" height="1"/>
<rect x="304" y="138" width="2" height="1"/>
<rect x="47" y="139" width="2" height="1"/>
<rect x="53" y="139" width="2" height="1"/>
<rect x="62" y="139" width="1" height="1"/>
<rect x="69" y="139" width="1" height="1"/>
<rect x="291" y="139" width="1" height="1"/>
<rect x="298" y="139" width="1" height="1"/>
<rect x="301" y="139" width="1" height="1"/>
<rect x="303" y="139" width="2" height="1"/>
<rect x="46" y="140" width="2" height="1"/>
<rect x="53" y="140" width="2" height="1"/>
<rect x="61" y="140" width="2" height="1"/>
<rect x="66" y="140" width="3" height="1"/>
<rect x="291" y="140" width="1" height="1"/>
<rect x="298" y="140" width="1" height="1"/>
<rect x="301" y="140" width="4" height="1"/>
<rect x="46" y="141" width="1" height="1"/>
<rect x="53" y="141" width="2" height="1"/>
<rect x="60" y="141" width="2" height="1"/>
<rect x="69" y="141" width="1" height="1"/>
<rect x="291" y="141" width="1" height="1"/>
<rect x="298" y="141" width="1" height="1"/>
<rect x="301" y="141" width="2" height="1"/>
<rect x="304" y="141" width="1" height="1"/>
<rect x="53" y="142" width="2" height="1"/>
<rect x="59" y="142" width="2" height="1"/>
<rect x="69" y="142" width="2" height="1"/>
<rect x="124" y="142" width="107" height="1"/>
<rect x="291" y="142" width="1" height="1"/>
<rect x="298" y="142" width="1" height="1"/>
<rect x="301" y="142" width="1" height="1"/>
<rect x="305" y="142" width="1" height="1"/>
<rect x="46" y="143" width="1" height="1"/>
<rect x="53" y="143" width="2" height="1"/>
<rect x="58" y="143" width="2" height="1"/>
<rect x="69" y="143" width="1" height="1"/>
<rect x="124" y="143" width="107" height="1"/>
<rect x="292" y="143" width="1" height="1"/>
<rect x="297" y="143" width="1" height="1"/>
<rect x="301" y="143" width="1" height="1"/>
<rect x="306" y="143" width="1" height="1"/>
<rect x="46" y="144" width="1" height="1"/>
<rect x="53" y="144" width="2" height="1"/>
<rect x="58" y="144" width="6" height="1"/>
<rect x="65" y="144" width="5" height="1"/>
<rect x="124" y="144" width="107" height="1"/>
<rect x="293" y="144" width="4" height="1"/>
<rect x="301" y="144" width="1" height="1"/>
<rect x="306" y="144" width="2" height="1"/>
</g>
</svg>
