<svg xmlns="http://www.w3.org/2000/svg" viewBox="0 0 360 180" width="360" height="180" shape-rendering="crispEdges">
<rect width="100%" height="100%" fill="#fff"/>
<g fill="#111">
<rect x="30" y="0" width="1" height="1"/>
<rect x="74" y="0" width="17" height="1"/>
<rect x="93" y="0" width="8" height="1"/>
<rect x="102" y="0" width="14" height="1"/>
<rect x="30" y="1" width="1" height="1"/>
<rect x="74" y="1" width="16" height="1"/>
<rect x="92" y="1" width="9" height="1"/>
<rect x="103" y="1" width="13" height="1"/>
<rect x="30" y="2" width="1" height="1"/>
<rect x="74" y="2" width="16" height="1"/>
<rect x="92" y="2" width="9" height="1"/>
<rect x="103" y="2" width="13" height="1"/>
<rect x="30" y="3" width="1" height="1"/>
<rect x="74" y="3" width="16" height="1"/>
<rect x="92" y="3" width="9" height="1"/>
<rect x="103" y="3" width="13" height="1"/>
<rect x="30" y="4" width="1" height="1"/>
<rect x="74" y="4" width="16" height="1"/>
<rect x="92" y="4" width="9" height="1"/>
<rect x="103" y="4" width="13" height="1"/>
<rect x="30" y="5" width="1" height="1"/>
<rect x="74" y="5" width="16" height="1"/>
<rect x="93" y="5" width="7" height="1"/>
<rect x="103" y="5" width="13" height="1"/>
<rect x="30" y="6" width="1" height="1"/>
<rect x="74" y="6" width="17" height="1"/>
<rect x="102" y="6" width="14" height="1"/>
<rect x="30" y="7" width="1" height="1"/>
<rect x="74" y="7" width="18" height="1"/>
<rect x="101" y="7" width="15" height="1"/>
<rect x="30" y="8" width="1" height="1"/>
<rect x="74" y="8" width="20" height="1"/>
<rect x="99" y="8" width="17" height="1"/>
<rect x="30" y="9" width="1" height="1"/>
<rect x="74" y="9" width="42" height="1"/>
<rect x="30" y="10" width="1" height="1"/>
<rect x="74" y="10" width="42" height="1"/>
<rect x="30" y="11" width="1" height="1"/>
<rect x="74" y="11" width="42" height="1"/>
<rect x="30" y="12" width="1" height="1"/>
<rect x="74" y="12" width="18" height="1"/>
<rect x="97" y="12" width="4" height="1"/>
<rect x="102" y="12" width="14" height="1"/>
<rect x="30" y="13" width="1" height="1"/>
<rect x="74" y="13" width="17" height="1"/>
<rect x="97" y="13" width="4" height="1"/>
<rect x="103" y="13" width="13" height="1"/>
<rect x="30" y="14" width="1" height="1"/>
<rect x="74" y="14" width="16" height="1"/>
<rect x="93" y="14" width="2" height="1"/>
<rect x="97" y="14" width="4" height="1"/>
<rect x="103" y="14" width="13" height="1"/>
<rect x="30" y="15" width="1" height="1"/>
<rect x="74" y="15" width="16" height="1"/>
<rect x="92" y="15" width="3" height="1"/>
<rect x="97" y="15" width="4" height="1"/>
<rect x="103" y="15" width="13" height="1"/>
<rect x="30" y="16" width="1" height="1"/>
<rect x="74" y="16" width="16" height="1"/>
<rect x="92" y="16" width="3" height="1"/>
<rect x="97" y="16" width="4" height="1"/>
<rect x="103" y="16" width="13" height="1"/>
<rect x="30" y="17" width="1" height="1"/>
<rect x="74" y="17" width="16" height="1"/>
<rect x="92" y="17" width="3" height="1"/>
<rect x="97" y="17" width="4" height="1"/>
<rect x="103" y="17" width="13" height="1"/>
<rect x="30" y="18" width="1" height="1"/>
<rect x="74" y="18" width="16" height="1"/>
<rect x="92" y="18" width="3" height="1"/>
<rect x="97" y="18" width="4" height="1"/>
<rect x="103" y="18" width="13" height="1"/>
<rect x="30" y="19" width="1" height="1"/>
<rect x="74" y="19" width="16" height="1"/>
<rect x="93" y="19" width="2" height="1"/>
<rect x="97" y="19" width="3" height="1"/>
<rect x="103" y="19" width="13" height="1"/>
<rect x="30" y="20" width="1" height="1"/>
<rect x="74" y="20" width="17" height="1"/>
<rect x="102" y="20" width="14" height="1"/>
<rect x="30" y="21" width="1" height="1"/>
<rect x="74" y="21" width="18" height="1"/>
<rect x="101" y="21" width="15" height="1"/>
<rect x="30" y="22" width="1" height="1"/>
<rect x="74" y="22" width="21" height="1"/>
<rect x="99" y="22" width="17" height="1"/>
<rect x="30" y="23" width="1" height="1"/>
<rect x="74" y="23" width="42" height="1"/>
<rect x="30" y="24" width="1" height="1"/>
<rect x="74" y="24" width="42" height="1"/>
<rect x="30" y="25" width="1" height="1"/>
<rect x="74" y="25" width="42" height="1"/>
<rect x="30" y="26" width="1" height="1"/>
<rect x="74" y="26" width="42" height="1"/>
<rect x="30" y="27" width="1" height="1"/>
<rect x="74" y="27" width="12" height="1"/>
<rect x="103" y="27" width="13" height="1"/>
<rect x="30" y="28" width="1" height="1"/>
<rect x="74" y="28" width="12" height="1"/>
<rect x="103" y="28" width="13" height="1"/>
<rect x="30" y="29" width="1" height="1"/>
<rect x="74" y="29" width="12" height="1"/>
<rect x="90" y="29" width="26" height="1"/>
<rect x="30" y="30" width="1" height="1"/>
<rect x="74" y="30" width="14" height="1"/>
<rect x="93" y="30" width="23" height="1"/>
<rect x="30" y="31" width="1" height="1"/>
<rect x="74" y="31" width="16" height="1"/>
<rect x="96" y="31" width="20" height="1"/>
<rect x="30" y="32" width="1" height="1"/>
<rect x="74" y="32" width="19" height="1"/>
<rect x="98" y="32" width="18" height="1"/>
<rect x="30" y="33" width="1" height="1"/>
<rect x="74" y="33" width="22" height="1"/>
<rect x="101" y="33" width="15" height="1"/>
<rect x="30" y="34" width="1" height="1"/>
<rect x="74" y="34" width="24" height="1"/>
<rect x="103" y="34" width="13" height="1"/>
<rect x="24" y="35" width="9" height="1"/>
<rect x="74" y="35" width="25" height="1"/>
<rect x="103" y="35" width="13" height="1"/>
<rect x="23" y="36" width="11" height="1"/>
<rect x="74" y="36" width="22" height="1"/>
<rect x="102" y="36" width="14" height="1"/>
<rect x="22" y="37" width="3" height="1"/>
<rect x="30" y="37" width="1" height="1"/>
<rect x="32" y="37" width="3" height="1"/>
<rect x="74" y="37" width="20" height="1"/>
<rect x="99" y="37" width="17" height="1"/>
<rect x="22" y="38" width="2" height="1"/>
<rect x="30" y="38" width="1" height="1"/>
<rect x="33" y="38" width="2" height="1"/>
<rect x="74" y="38" width="17" height="1"/>
<rect x="97" y="38" width="19" height="1"/>
<rect x="22" y="39" width="2" height="1"/>
<rect x="30" y="39" width="1" height="1"/>
<rect x="33" y="39" width="2" height="1"/>
<rect x="74" y="39" width="14" height="1"/>
<rect x="94" y="39" width="22" height="1"/>
<rect x="22" y="40" width="2" height="1"/>
<rect x="30" y="40" width="1" height="1"/>
<rect x="33" y="40" width="2" height="1"/>
<rect x="74" y="40" width="12" height="1"/>
<rect x="91" y="40" width="25" height="1"/>
<rect x="22" y="41" width="2" height="1"/>
<rect x="30" y="41" width="1" height="1"/>
<rect x="33" y="41" width="2" height="1"/>
<rect x="74" y="41" width="12" height="1"/>
<rect x="89" y="41" width="27" height="1"/>
<rect x="23" y="42" width="1" height="1"/>
<rect x="30" y="42" width="1" height="1"/>
<rect x="33" y="42" width="2" height="1"/>
<rect x="74" y="42" width="12" height="1"/>
<rect x="103" y="42" width="13" height="1"/>
<rect x="23" y="43" width="3" height="1"/>
<rect x="30" y="43" width="4" height="1"/>
<rect x="74" y="43" width="12" height="1"/>
<rect x="103" y="43" width="13" height="1"/>
<rect x="22" y="44" width="19" height="1"/>
<rect x="74" y="44" width="42" height="1"/>
<rect x="22" y="45" width="19" height="1"/>
<rect x="74" y="45" width="42" height="1"/>
<rect x="30" y="46" width="1" height="1"/>
<rect x="74" y="46" width="42" height="1"/>
<rect x="30" y="47" width="1" height="1"/>
<rect x="74" y="47" width="42" height="1"/>
<rect x="30" y="48" width="1" height="1"/>
<rect x="74" y="48" width="42" height="1"/>
<rect x="30" y="49" width="1" height="1"/>
<rect x="74" y="49" width="42" height="1"/>
<rect x="23" y="50" width="13" height="1"/>
<rect x="74" y="50" width="42" height="1"/>
<rect x="23" y="51" width="13" height="1"/>
<rect x="30" y="52" width="1" height="1"/>
<rect x="32" y="52" width="3" height="1"/>
<rect x="30" y="53" width="1" height="1"/>
<rect x="34" y="53" width="1" height="1"/>
<rect x="30" y="54" width="1" height="1"/>
<rect x="34" y="54" width="2" height="1"/>
<rect x="30" y="55" width="1" height="1"/>
<rect x="34" y="55" width="2" height="1"/>
<rect x="30" y="56" width="1" height="1"/>
<rect x="34" y="56" width="2" height="1"/>
<rect x="30" y="57" width="1" height="1"/>
<rect x="34" y="57" width="2" height="1"/>
<rect x="30" y="58" width="1" height="1"/>
<rect x="33" y="58" width="3" height="1"/>
<rect x="23" y="59" width="12" height="1"/>
<rect x="23" y="60" width="11" height="1"/>
<rect x="30" y="61" width="1" height="1"/>
<rect x="30" y="62" width="1" height="1"/>
<rect x="30" y="63" width="1" height="1"/>
<rect x="30" y="64" width="1" height="1"/>
<rect x="25" y="65" width="7" height="1"/>
<rect x="24" y="66" width="10" height="1"/>
<rect x="23" y="67" width="3" height="1"/>
<rect x="30" y="67" width="4" height="1"/>
<rect x="22" y="68" width="2" height="1"/>
<rect x="30" y="68" width="1" height="1"/>
<rect x="33" y="68" width="2" height="1"/>
<rect x="22" y="69" width="2" height="1"/>
<rect x="30" y="69" width="1" height="1"/>
<rect x="33" y="69" width="2" height="1"/>
<rect x="22" y="70" width="2" height="1"/>
<rect x="30" y="70" width="1" height="1"/>
<rect x="33" y="70" width="2" height="1"/>
<rect x="22" y="71" width="2" height="1"/>
<rect x="30" y="71" width="1" height="1"/>
<rect x="33" y="71" width="2" height="1"/>
<rect x="22" y="72" width="2" height="1"/>
<rect x="30" y="72" width="1" height="1"/>
<rect x="33" y="72" width="2" height="1"/>
<rect x="22" y="73" width="3" height="1"/>
<rect x="30" y="73" width="1" height="1"/>
<rect x="32" y="73" width="3" height="1"/>
<rect x="23" y="74" width="11" height="1"/>
<rect x="24" y="75" width="9" height="1"/>
<rect x="26" y="76" width="5" height="1"/>
<rect x="30" y="77" width="1" height="1"/>
<rect x="22" y="78" width="1" height="1"/>
<rect x="30" y="78" width="1" height="1"/>
<rect x="85" y="78" width="18" height="1"/>
<rect x="22" y="79" width="2" height="1"/>
<rect x="30" y="79" width="1" height="1"/>
<rect x="85" y="79" width="18" height="1"/>
<rect x="22" y="80" width="2" height="1"/>
<rect x="30" y="80" width="1" height="1"/>
<rect x="22" y="81" width="2" height="1"/>
<rect x="30" y="81" width="1" height="1"/>
<rect x="23" y="82" width="2" height="1"/>
<rect x="30" y="82" width="1" height="1"/>
<rect x="24" y="83" width="2" height="1"/>
<rect x="30" y="83" width="1" height="1"/>
<rect x="22" y="84" width="13" height="1"/>
<rect x="85" y="84" width="18" height="1"/>
<rect x="22" y="85" width="13" height="1"/>
<rect x="85" y="85" width="18" height="1"/>
<rect x="30" y="86" width="1" height="1"/>
<rect x="30" y="87" width="1" height="1"/>
<rect x="30" y="88" width="1" height="1"/>
<rect x="26" y="89" width="8" height="1"/>
<rect x="94" y="89" width="9" height="1"/>
<rect x="18" y="90" width="3" height="1"/>
<rect x="26" y="90" width="9" height="1"/>
<rect x="91" y="90" width="12" height="1"/>
<rect x="18" y="91" width="2" height="1"/>
<rect x="26" y="91" width="2" height="1"/>
<rect x="30" y="91" width="1" height="1"/>
<rect x="33" y="91" width="2" height="1"/>
<rect x="90" y="91" width="11" height="1"/>
<rect x="18" y="92" width="2" height="1"/>
<rect x="26" y="92" width="2" height="1"/>
<rect x="30" y="92" width="1" height="1"/>
<rect x="33" y="92" width="2" height="1"/>
<rect x="90" y="92" width="2" height="1"/>
<rect x="95" y="92" width="2" height="1"/>
<rect x="100" y="92" width="2" height="1"/>
<rect x="18" y="93" width="2" height="1"/>
<rect x="26" y="93" width="2" height="1"/>
<rect x="30" y="93" width="1" height="1"/>
<rect x="33" y="93" width="2" height="1"/>
<rect x="90" y="93" width="2" height="1"/>
<rect x="95" y="93" width="2" height="1"/>
<rect x="101" y="93" width="2" height="1"/>
<rect x="18" y="94" width="2" height="1"/>
<rect x="26" y="94" width="2" height="1"/>
<rect x="30" y="94" width="1" height="1"/>
<rect x="33" y="94" width="2" height="1"/>
<rect x="90" y="94" width="2" height="1"/>
<rect x="95" y="94" width="2" height="1"/>
<rect x="101" y="94" width="2" height="1"/>
<rect x="18" y="95" width="2" height="1"/>
<rect x="30" y="95" width="1" height="1"/>
<rect x="33" y="95" width="2" height="1"/>
<rect x="90" y="95" width="2" height="1"/>
<rect x="95" y="95" width="2" height="1"/>
<rect x="102" y="95" width="1" height="1"/>
<rect x="18" y="96" width="2" height="1"/>
<rect x="30" y="96" width="1" height="1"/>
<rect x="33" y="96" width="2" height="1"/>
<rect x="90" y="96" width="2" height="1"/>
<rect x="96" y="96" width="1" height="1"/>
<rect x="101" y="96" width="2" height="1"/>
<rect x="18" y="97" width="2" height="1"/>
<rect x="30" y="97" width="1" height="1"/>
<rect x="33" y="97" width="2" height="1"/>
<rect x="91" y="97" width="2" height="1"/>
<rect x="96" y="97" width="2" height="1"/>
<rect x="100" y="97" width="3" height="1"/>
<rect x="18" y="98" width="2" height="1"/>
<rect x="30" y="98" width="1" height="1"/>
<rect x="33" y="98" width="2" height="1"/>
<rect x="97" y="98" width="6" height="1"/>
<rect x="19" y="99" width="2" height="1"/>
<rect x="30" y="99" width="1" height="1"/>
<rect x="32" y="99" width="2" height="1"/>
<rect x="98" y="99" width="3" height="1"/>
<rect x="19" y="100" width="4" height="1"/>
<rect x="30" y="100" width="4" height="1"/>
<rect x="20" y="101" width="13" height="1"/>
<rect x="22" y="102" width="9" height="1"/>
<rect x="94" y="102" width="9" height="1"/>
<rect x="25" y="103" width="3" height="1"/>
<rect x="30" y="103" width="1" height="1"/>
<rect x="91" y="103" width="12" height="1"/>
<rect x="30" y="104" width="1" height="1"/>
<rect x="90" y="104" width="13" height="1"/>
<rect x="30" y="105" width="1" height="1"/>
<rect x="90" y="105" width="2" height="1"/>
<rect x="30" y="106" width="1" height="1"/>
<rect x="90" y="106" width="2" height="1"/>
<rect x="25" y="107" width="7" height="1"/>
<rect x="90" y="107" width="2" height="1"/>
<rect x="24" y="108" width="10" height="1"/>
<rect x="90" y="108" width="2" height="1"/>
<rect x="23" y="109" width="3" height="1"/>
<rect x="30" y="109" width="4" height="1"/>
<rect x="91" y="109" width="1" height="1"/>
<rect x="22" y="110" width="2" height="1"/>
<rect x="30" y="110" width="1" height="1"/>
<rect x="33" y="110" width="2" height="1"/>
<rect x="91" y="110" width="3" height="1"/>
<rect x="22" y="111" width="2" height="1"/>
<rect x="30" y="111" width="1" height="1"/>
<rect x="33" y="111" width="2" height="1"/>
<rect x="91" y="111" width="12" height="1"/>
<rect x="22" y="112" width="2" height="1"/>
<rect x="30" y="112" width="1" height="1"/>
<rect x="33" y="112" width="2" height="1"/>
<rect x="90" y="112" width="13" height="1"/>
<rect x="22" y="113" width="2" height="1"/>
<rect x="30" y="113" width="1" height="1"/>
<rect x="33" y="113" width="2" height="1"/>
<rect x="90" y="113" width="2" height="1"/>
<rect x="22" y="114" width="2" height="1"/>
<rect x="30" y="114" width="1" height="1"/>
<rect x="33" y="114" width="2" height="1"/>
<rect x="90" y="114" width="2" height="1"/>
<rect x="22" y="115" width="3" height="1"/>
<rect x="30" y="115" width="1" height="1"/>
<rect x="32" y="115" width="3" height="1"/>
<rect x="90" y="115" width="2" height="1"/>
<rect x="23" y="116" width="11" height="1"/>
<rect x="90" y="116" width="2" height="1"/>
<rect x="24" y="117" width="9" height="1"/>
<rect x="91" y="117" width="1" height="1"/>
<rect x="26" y="118" width="5" height="1"/>
<rect x="91" y="118" width="3" height="1"/>
<rect x="30" y="119" width="1" height="1"/>
<rect x="90" y="119" width="13" height="1"/>
<rect x="30" y="120" width="1" height="1"/>
<rect x="90" y="120" width="13" height="1"/>
<rect x="30" y="121" width="1" height="1"/>
<rect x="18" y="122" width="3" height="1"/>
<rect x="23" y="122" width="13" height="1"/>
<rect x="18" y="123" width="3" height="1"/>
<rect x="23" y="123" width="13" height="1"/>
<rect x="30" y="124" width="1" height="1"/>
<rect x="86" y="124" width="1" height="1"/>
<rect x="96" y="124" width="5" height="1"/>
<rect x="30" y="125" width="1" height="1"/>
<rect x="86" y="125" width="2" height="1"/>
<rect x="95" y="125" width="7" height="1"/>
<rect x="30" y="126" width="1" height="1"/>
<rect x="86" y="126" width="2" height="1"/>
<rect x="94" y="126" width="3" height="1"/>
<rect x="100" y="126" width="3" height="1"/>
<rect x="30" y="127" width="1" height="1"/>
<rect x="86" y="127" width="2" height="1"/>
<rect x="94" y="127" width="2" height="1"/>
<rect x="101" y="127" width="2" height="1"/>
<rect x="17" y="128" width="18" height="1"/>
<rect x="86" y="128" width="2" height="1"/>
<rect x="94" y="128" width="2" height="1"/>
<rect x="101" y="128" width="2" height="1"/>
<rect x="17" y="129" width="18" height="1"/>
<rect x="86" y="129" width="2" height="1"/>
<rect x="93" y="129" width="2" height="1"/>
<rect x="101" y="129" width="2" height="1"/>
<rect x="24" y="130" width="3" height="1"/>
<rect x="30" y="130" width="3" height="1"/>
<rect x="86" y="130" width="2" height="1"/>
<rect x="93" y="130" width="2" height="1"/>
<rect x="101" y="130" width="2" height="1"/>
<rect x="23" y="131" width="2" height="1"/>
<rect x="30" y="131" width="1" height="1"/>
<rect x="33" y="131" width="1" height="1"/>
<rect x="86" y="131" width="2" height="1"/>
<rect x="92" y="131" width="3" height="1"/>
<rect x="101" y="131" width="2" height="1"/>
<rect x="22" y="132" width="2" height="1"/>
<rect x="30" y="132" width="1" height="1"/>
<rect x="33" y="132" width="2" height="1"/>
<rect x="86" y="132" width="8" height="1"/>
<rect x="101" y="132" width="2" height="1"/>
<rect x="22" y="133" width="2" height="1"/>
<rect x="30" y="133" width="1" height="1"/>
<rect x="33" y="133" width="2" height="1"/>
<rect x="87" y="133" width="6" height="1"/>
<rect x="101" y="133" width="2" height="1"/>
<rect x="22" y="134" width="2" height="1"/>
<rect x="30" y="134" width="1" height="1"/>
<rect x="33" y="134" width="2" height="1"/>
<rect x="89" y="134" width="2" height="1"/>
<rect x="100" y="134" width="3" height="1"/>
<rect x="22" y="135" width="2" height="1"/>
<rect x="30" y="135" width="1" height="1"/>
<rect x="33" y="135" width="2" height="1"/>
<rect x="22" y="136" width="3" height="1"/>
<rect x="30" y="136" width="1" height="1"/>
<rect x="32" y="136" width="3" height="1"/>
<rect x="23" y="137" width="11" height="1"/>
<rect x="24" y="138" width="9" height="1"/>
<rect x="26" y="139" width="5" height="1"/>
<rect x="30" y="140" width="1" height="1"/>
<rect x="30" y="141" width="1" height="1"/>
<rect x="26" y="142" width="9" height="1"/>
<rect x="23" y="143" width="12" height="1"/>
<rect x="22" y="144" width="11" height="1"/>
<rect x="22" y="145" width="2" height="1"/>
<rect x="27" y="145" width="2" height="1"/>
<rect x="30" y="145" width="1" height="1"/>
<rect x="32" y="145" width="2" height="1"/>
<rect x="22" y="146" width="2" height="1"/>
<rect x="27" y="146" width="2" height="1"/>
<rect x="30" y="146" width="1" height="1"/>
<rect x="33" y="146" width="2" height="1"/>
<rect x="22" y="147" width="2" height="1"/>
<rect x="27" y="147" width="2" height="1"/>
<rect x="30" y="147" width="1" height="1"/>
<rect x="33" y="147" width="2" height="1"/>
<rect x="22" y="148" width="2" height="1"/>
<rect x="27" y="148" width="2" height="1"/>
<rect x="30" y="148" width="1" height="1"/>
<rect x="34" y="148" width="1" height="1"/>
<rect x="22" y="149" width="2" height="1"/>
<rect x="28" y="149" width="1" height="1"/>
<rect x="30" y="149" width="1" height="1"/>
<rect x="33" y="149" width="2" height="1"/>
<rect x="23" y="150" width="2" height="1"/>
<rect x="28" y="150" width="3" height="1"/>
<rect x="32" y="150" width="3" height="1"/>
<rect x="29" y="151" width="6" height="1"/>
<rect x="30" y="152" width="3" height="1"/>
<rect x="30" y="153" width="1" height="1"/>
<rect x="22" y="154" width="1" height="1"/>
<rect x="30" y="154" width="1" height="1"/>
<rect x="22" y="155" width="2" height="1"/>
<rect x="30" y="155" width="1" height="1"/>
<rect x="22" y="156" width="2" height="1"/>
<rect x="30" y="156" width="1" height="1"/>
<rect x="22" y="157" width="2" height="1"/>
<rect x="30" y="157" width="1" height="1"/>
<rect x="23" y="158" width="2" height="1"/>
<rect x="30" y="158" width="1" height="1"/>
<rect x="24" y="159" width="2" height="1"/>
<rect x="30" y="159" width="1" height="1"/>
<rect x="22" y="160" width="13" height="1"/>
<rect x="22" y="161" width="13" height="1"/>
<rect x="30" y="162" width="1" height="1"/>
<rect x="30" y="163" width="1" height="1"/>
</g>
</svg>
