<svg xmlns="http://www.w3.org/2000/svg" viewBox="0 0 360 180" width="360" height="180" shape-rendering="crispEdges">
<rect width="100%" height="100%" fill="#fff"/>
<g fill="#111">
<rect x="34" y="16" width="1" height="1"/>
<rect x="37" y="16" width="1" height="1"/>
<rect x="34" y="17" width="1" height="1"/>
<rect x="50" y="17" width="5" height="1"/>
<rect x="34" y="18" width="1" height="1"/>
<rect x="49" y="18" width="1" height="1"/>
<rect x="17" y="19" width="1" height="1"/>
<rect x="19" y="19" width="2" height="1"/>
<rect x="23" y="19" width="4" height="1"/>
<rect x="30" y="19" width="3" height="1"/>
<rect x="34" y="19" width="1" height="1"/>
<rect x="37" y="19" width="1" height="1"/>
<rect x="41" y="19" width="4" height="1"/>
<rect x="48" y="19" width="1" height="1"/>
<rect x="57" y="19" width="1" height="1"/>
<rect x="59" y="19" width="2" height="1"/>
<rect x="63" y="19" width="4" height="1"/>
<rect x="70" y="19" width="1" height="1"/>
<rect x="75" y="19" width="1" height="1"/>
<rect x="78" y="19" width="1" height="1"/>
<rect x="80" y="19" width="3" height="1"/>
<rect x="17" y="20" width="2" height="1"/>
<rect x="22" y="20" width="1" height="1"/>
<rect x="26" y="20" width="1" height="1"/>
<rect x="29" y="20" width="1" height="1"/>
<rect x="33" y="20" width="2" height="1"/>
<rect x="37" y="20" width="1" height="1"/>
<rect x="40" y="20" width="1" height="1"/>
<rect x="44" y="20" width="2" height="1"/>
<rect x="48" y="20" width="1" height="1"/>
<rect x="57" y="20" width="2" height="1"/>
<rect x="62" y="20" width="1" height="1"/>
<rect x="66" y="20" width="2" height="1"/>
<rect x="70" y="20" width="1" height="1"/>
<rect x="75" y="20" width="1" height="1"/>
<rect x="78" y="20" width="2" height="1"/>
<rect x="83" y="20" width="1" height="1"/>
<rect x="17" y="21" width="1" height="1"/>
<rect x="26" y="21" width="1" height="1"/>
<rect x="29" y="21" width="1" height="1"/>
<rect x="34" y="21" width="1" height="1"/>
<rect x="37" y="21" width="1" height="1"/>
<rect x="40" y="21" width="1" height="1"/>
<rect x="45" y="21" width="1" height="1"/>
<rect x="48" y="21" width="1" height="1"/>
<rect x="52" y="21" width="4" height="1"/>
<rect x="57" y="21" width="1" height="1"/>
<rect x="62" y="21" width="1" height="1"/>
<rect x="67" y="21" width="1" height="1"/>
<rect x="70" y="21" width="1" height="1"/>
<rect x="75" y="21" width="1" height="1"/>
<rect x="78" y="21" width="1" height="1"/>
<rect x="83" y="21" width="1" height="1"/>
<rect x="17" y="22" width="1" height="1"/>
<rect x="22" y="22" width="5" height="1"/>
<rect x="29" y="22" width="1" height="1"/>
<rect x="34" y="22" width="1" height="1"/>
<rect x="37" y="22" width="1" height="1"/>
<rect x="40" y="22" width="1" height="1"/>
<rect x="45" y="22" width="1" height="1"/>
<rect x="48" y="22" width="1" height="1"/>
<rect x="54" y="22" width="2" height="1"/>
<rect x="57" y="22" width="1" height="1"/>
<rect x="62" y="22" width="1" height="1"/>
<rect x="67" y="22" width="1" height="1"/>
<rect x="70" y="22" width="1" height="1"/>
<rect x="75" y="22" width="1" height="1"/>
<rect x="78" y="22" width="1" height="1"/>
<rect x="83" y="22" width="1" height="1"/>
<rect x="17" y="23" width="1" height="1"/>
<rect x="22" y="23" width="1" height="1"/>
<rect x="26" y="23" width="1" height="1"/>
<rect x="29" y="23" width="1" height="1"/>
<rect x="34" y="23" width="1" height="1"/>
<rect x="37" y="23" width="1" height="1"/>
<rect x="40" y="23" width="1" height="1"/>
<rect x="45" y="23" width="1" height="1"/>
<rect x="48" y="23" width="1" height="1"/>
<rect x="54" y="23" width="2" height="1"/>
<rect x="57" y="23" width="1" height="1"/>
<rect x="62" y="23" width="1" height="1"/>
<rect x="67" y="23" width="1" height="1"/>
<rect x="70" y="23" width="1" height="1"/>
<rect x="75" y="23" width="1" height="1"/>
<rect x="78" y="23" width="1" height="1"/>
<rect x="83" y="23" width="1" height="1"/>
<rect x="17" y="24" width="1" height="1"/>
<rect x="22" y="24" width="1" height="1"/>
<rect x="26" y="24" width="1" height="1"/>
<rect x="29" y="24" width="1" height="1"/>
<rect x="33" y="24" width="2" height="1"/>
<rect x="37" y="24" width="1" height="1"/>
<rect x="40" y="24" width="1" height="1"/>
<rect x="44" y="24" width="2" height="1"/>
<rect x="49" y="24" width="1" height="1"/>
<rect x="54" y="24" width="2" height="1"/>
<rect x="57" y="24" width="1" height="1"/>
<rect x="62" y="24" width="1" height="1"/>
<rect x="66" y="24" width="2" height="1"/>
<rect x="70" y="24" width="1" height="1"/>
<rect x="74" y="24" width="2" height="1"/>
<rect x="78" y="24" width="2" height="1"/>
<rect x="82" y="24" width="2" height="1"/>
<rect x="17" y="25" width="1" height="1"/>
<rect x="22" y="25" width="5" height="1"/>
<rect x="30" y="25" width="3" height="1"/>
<rect x="34" y="25" width="1" height="1"/>
<rect x="37" y="25" width="1" height="1"/>
<rect x="41" y="25" width="4" height="1"/>
<rect x="50" y="25" width="6" height="1"/>
<rect x="57" y="25" width="1" height="1"/>
<rect x="63" y="25" width="4" height="1"/>
<rect x="71" y="25" width="3" height="1"/>
<rect x="75" y="25" width="1" height="1"/>
<rect x="78" y="25" width="1" height="1"/>
<rect x="80" y="25" width="3" height="1"/>
<rect x="78" y="26" width="1" height="1"/>
<rect x="78" y="27" width="1" height="1"/>
<rect x="78" y="28" width="1" height="1"/>
<rect x="16" y="30" width="328" height="1"/>
<rect x="129" y="74" width="101" height="1"/>
<rect x="129" y="75" width="101" height="1"/>
<rect x="129" y="76" width="101" height="1"/>
<rect x="129" y="77" width="101" height="1"/>
<rect x="129" y="78" width="101" height="1"/>
<rect x="129" y="79" width="101" height="1"/>
<rect x="129" y="80" width="101" height="1"/>
<rect x="129" y="81" width="101" height="1"/>
<rect x="129" y="82" width="101" height="1"/>
<rect x="129" y="83" width="101" height="1"/>
<rect x="129" y="84" width="101" height="1"/>
<rect x="129" y="85" width="101" height="1"/>
<rect x="129" y="86" width="101" height="1"/>
<rect x="129" y="87" width="101" height="1"/>
<rect x="129" y="88" width="101" height="1"/>
<rect x="129" y="89" width="101" height="1"/>
<rect x="85" y="90" width="1" height="1"/>
<rect x="88" y="90" width="1" height="1"/>
<rect x="129" y="90" width="50" height="1"/>
<rect x="180" y="90" width="2" height="1"/>
<rect x="183" y="90" width="47" height="1"/>
<rect x="60" y="91" width="4" height="1"/>
<rect x="85" y="91" width="1" height="1"/>
<rect x="88" y="91" width="1" height="1"/>
<rect x="129" y="91" width="26" height="1"/>
<rect x="157" y="91" width="6" height="1"/>
<rect x="165" y="91" width="14" height="1"/>
<rect x="180" y="91" width="50" height="1"/>
<rect x="269" y="91" width="1" height="1"/>
<rect x="59" y="92" width="1" height="1"/>
<rect x="85" y="92" width="1" height="1"/>
<rect x="88" y="92" width="1" height="1"/>
<rect x="129" y="92" width="26" height="1"/>
<rect x="158" y="92" width="4" height="1"/>
<rect x="165" y="92" width="14" height="1"/>
<rect x="180" y="92" width="50" height="1"/>
<rect x="269" y="92" width="1" height="1"/>
<rect x="59" y="93" width="1" height="1"/>
<rect x="66" y="93" width="1" height="1"/>
<rect x="68" y="93" width="3" height="1"/>
<rect x="72" y="93" width="3" height="1"/>
<rect x="79" y="93" width="4" height="1"/>
<rect x="85" y="93" width="1" height="1"/>
<rect x="88" y="93" width="1" height="1"/>
<rect x="129" y="93" width="26" height="1"/>
<rect x="156" y="93" width="1" height="1"/>
<rect x="158" y="93" width="4" height="1"/>
<rect x="165" y="93" width="3" height="1"/>
<rect x="171" y="93" width="4" height="1"/>
<rect x="178" y="93" width="1" height="1"/>
<rect x="180" y="93" width="2" height="1"/>
<rect x="183" y="93" width="2" height="1"/>
<rect x="186" y="93" width="4" height="1"/>
<rect x="191" y="93" width="2" height="1"/>
<rect x="194" y="93" width="1" height="1"/>
<rect x="198" y="93" width="1" height="1"/>
<rect x="202" y="93" width="28" height="1"/>
<rect x="269" y="93" width="1" height="1"/>
<rect x="277" y="93" width="4" height="1"/>
<rect x="283" y="93" width="1" height="1"/>
<rect x="285" y="93" width="2" height="1"/>
<rect x="289" y="93" width="3" height="1"/>
<rect x="293" y="93" width="1" height="1"/>
<rect x="297" y="93" width="3" height="1"/>
<rect x="59" y="94" width="2" height="1"/>
<rect x="66" y="94" width="2" height="1"/>
<rect x="70" y="94" width="2" height="1"/>
<rect x="75" y="94" width="1" height="1"/>
<rect x="78" y="94" width="1" height="1"/>
<rect x="82" y="94" width="1" height="1"/>
<rect x="85" y="94" width="1" height="1"/>
<rect x="88" y="94" width="1" height="1"/>
<rect x="129" y="94" width="26" height="1"/>
<rect x="156" y="94" width="1" height="1"/>
<rect x="158" y="94" width="3" height="1"/>
<rect x="162" y="94" width="1" height="1"/>
<rect x="165" y="94" width="2" height="1"/>
<rect x="168" y="94" width="3" height="1"/>
<rect x="172" y="94" width="2" height="1"/>
<rect x="175" y="94" width="3" height="1"/>
<rect x="180" y="94" width="2" height="1"/>
<rect x="183" y="94" width="2" height="1"/>
<rect x="186" y="94" width="4" height="1"/>
<rect x="191" y="94" width="2" height="1"/>
<rect x="195" y="94" width="2" height="1"/>
<rect x="199" y="94" width="3" height="1"/>
<rect x="203" y="94" width="27" height="1"/>
<rect x="269" y="94" width="1" height="1"/>
<rect x="276" y="94" width="1" height="1"/>
<rect x="280" y="94" width="1" height="1"/>
<rect x="283" y="94" width="2" height="1"/>
<rect x="288" y="94" width="1" height="1"/>
<rect x="292" y="94" width="2" height="1"/>
<rect x="296" y="94" width="1" height="1"/>
<rect x="300" y="94" width="1" height="1"/>
<rect x="60" y="95" width="3" height="1"/>
<rect x="66" y="95" width="1" height="1"/>
<rect x="71" y="95" width="1" height="1"/>
<rect x="75" y="95" width="1" height="1"/>
<rect x="82" y="95" width="1" height="1"/>
<rect x="85" y="95" width="1" height="1"/>
<rect x="88" y="95" width="1" height="1"/>
<rect x="129" y="95" width="26" height="1"/>
<rect x="156" y="95" width="2" height="1"/>
<rect x="159" y="95" width="2" height="1"/>
<rect x="162" y="95" width="1" height="1"/>
<rect x="165" y="95" width="2" height="1"/>
<rect x="168" y="95" width="3" height="1"/>
<rect x="173" y="95" width="1" height="1"/>
<rect x="175" y="95" width="4" height="1"/>
<rect x="180" y="95" width="2" height="1"/>
<rect x="183" y="95" width="2" height="1"/>
<rect x="186" y="95" width="4" height="1"/>
<rect x="191" y="95" width="2" height="1"/>
<rect x="194" y="95" width="4" height="1"/>
<rect x="199" y="95" width="3" height="1"/>
<rect x="203" y="95" width="27" height="1"/>
<rect x="269" y="95" width="1" height="1"/>
<rect x="280" y="95" width="1" height="1"/>
<rect x="283" y="95" width="1" height="1"/>
<rect x="288" y="95" width="1" height="1"/>
<rect x="293" y="95" width="1" height="1"/>
<rect x="296" y="95" width="1" height="1"/>
<rect x="300" y="95" width="2" height="1"/>
<rect x="63" y="96" width="1" height="1"/>
<rect x="66" y="96" width="1" height="1"/>
<rect x="71" y="96" width="1" height="1"/>
<rect x="75" y="96" width="1" height="1"/>
<rect x="78" y="96" width="5" height="1"/>
<rect x="85" y="96" width="1" height="1"/>
<rect x="88" y="96" width="1" height="1"/>
<rect x="129" y="96" width="26" height="1"/>
<rect x="156" y="96" width="2" height="1"/>
<rect x="159" y="96" width="2" height="1"/>
<rect x="162" y="96" width="1" height="1"/>
<rect x="165" y="96" width="2" height="1"/>
<rect x="173" y="96" width="1" height="1"/>
<rect x="175" y="96" width="4" height="1"/>
<rect x="180" y="96" width="2" height="1"/>
<rect x="183" y="96" width="2" height="1"/>
<rect x="186" y="96" width="4" height="1"/>
<rect x="191" y="96" width="2" height="1"/>
<rect x="194" y="96" width="4" height="1"/>
<rect x="199" y="96" width="3" height="1"/>
<rect x="203" y="96" width="27" height="1"/>
<rect x="269" y="96" width="1" height="1"/>
<rect x="276" y="96" width="5" height="1"/>
<rect x="283" y="96" width="1" height="1"/>
<rect x="288" y="96" width="1" height="1"/>
<rect x="293" y="96" width="1" height="1"/>
<rect x="296" y="96" width="6" height="1"/>
<rect x="63" y="97" width="2" height="1"/>
<rect x="66" y="97" width="1" height="1"/>
<rect x="71" y="97" width="1" height="1"/>
<rect x="75" y="97" width="1" height="1"/>
<rect x="78" y="97" width="1" height="1"/>
<rect x="82" y="97" width="1" height="1"/>
<rect x="85" y="97" width="1" height="1"/>
<rect x="88" y="97" width="1" height="1"/>
<rect x="129" y="97" width="26" height="1"/>
<rect x="156" y="97" width="2" height="1"/>
<rect x="159" y="97" width="1" height="1"/>
<rect x="161" y="97" width="2" height="1"/>
<rect x="165" y="97" width="2" height="1"/>
<rect x="168" y="97" width="6" height="1"/>
<rect x="175" y="97" width="4" height="1"/>
<rect x="180" y="97" width="2" height="1"/>
<rect x="183" y="97" width="2" height="1"/>
<rect x="186" y="97" width="4" height="1"/>
<rect x="191" y="97" width="2" height="1"/>
<rect x="194" y="97" width="4" height="1"/>
<rect x="199" y="97" width="3" height="1"/>
<rect x="203" y="97" width="27" height="1"/>
<rect x="269" y="97" width="1" height="1"/>
<rect x="276" y="97" width="1" height="1"/>
<rect x="280" y="97" width="1" height="1"/>
<rect x="283" y="97" width="1" height="1"/>
<rect x="288" y="97" width="1" height="1"/>
<rect x="293" y="97" width="1" height="1"/>
<rect x="296" y="97" width="1" height="1"/>
<rect x="63" y="98" width="1" height="1"/>
<rect x="66" y="98" width="1" height="1"/>
<rect x="71" y="98" width="1" height="1"/>
<rect x="75" y="98" width="1" height="1"/>
<rect x="78" y="98" width="1" height="1"/>
<rect x="82" y="98" width="1" height="1"/>
<rect x="85" y="98" width="1" height="1"/>
<rect x="88" y="98" width="1" height="1"/>
<rect x="129" y="98" width="26" height="1"/>
<rect x="156" y="98" width="3" height="1"/>
<rect x="161" y="98" width="2" height="1"/>
<rect x="165" y="98" width="2" height="1"/>
<rect x="168" y="98" width="6" height="1"/>
<rect x="175" y="98" width="3" height="1"/>
<rect x="180" y="98" width="2" height="1"/>
<rect x="183" y="98" width="2" height="1"/>
<rect x="186" y="98" width="3" height="1"/>
<rect x="191" y="98" width="2" height="1"/>
<rect x="194" y="98" width="4" height="1"/>
<rect x="199" y="98" width="3" height="1"/>
<rect x="203" y="98" width="27" height="1"/>
<rect x="269" y="98" width="1" height="1"/>
<rect x="276" y="98" width="1" height="1"/>
<rect x="280" y="98" width="1" height="1"/>
<rect x="283" y="98" width="1" height="1"/>
<rect x="288" y="98" width="1" height="1"/>
<rect x="292" y="98" width="2" height="1"/>
<rect x="296" y="98" width="1" height="1"/>
<rect x="59" y="99" width="4" height="1"/>
<rect x="66" y="99" width="1" height="1"/>
<rect x="71" y="99" width="1" height="1"/>
<rect x="75" y="99" width="1" height="1"/>
<rect x="78" y="99" width="5" height="1"/>
<rect x="85" y="99" width="1" height="1"/>
<rect x="88" y="99" width="1" height="1"/>
<rect x="129" y="99" width="26" height="1"/>
<rect x="156" y="99" width="3" height="1"/>
<rect x="161" y="99" width="2" height="1"/>
<rect x="165" y="99" width="3" height="1"/>
<rect x="172" y="99" width="3" height="1"/>
<rect x="178" y="99" width="1" height="1"/>
<rect x="180" y="99" width="2" height="1"/>
<rect x="183" y="99" width="3" height="1"/>
<rect x="189" y="99" width="1" height="1"/>
<rect x="191" y="99" width="2" height="1"/>
<rect x="194" y="99" width="4" height="1"/>
<rect x="199" y="99" width="3" height="1"/>
<rect x="203" y="99" width="27" height="1"/>
<rect x="269" y="99" width="5" height="1"/>
<rect x="276" y="99" width="5" height="1"/>
<rect x="283" y="99" width="1" height="1"/>
<rect x="289" y="99" width="3" height="1"/>
<rect x="293" y="99" width="1" height="1"/>
<rect x="297" y="99" width="4" height="1"/>
<rect x="129" y="100" width="101" height="1"/>
<rect x="293" y="100" width="1" height="1"/>
<rect x="129" y="101" width="101" height="1"/>
<rect x="292" y="101" width="2" height="1"/>
<rect x="129" y="102" width="101" height="1"/>
<rect x="288" y="102" width="5" height="1"/>
<rect x="129" y="103" width="101" height="1"/>
<rect x="129" y="104" width="101" height="1"/>
<rect x="129" y="105" width="101" height="1"/>
<rect x="129" y="106" width="101" height="1"/>
<rect x="129" y="107" width="101" height="1"/>
<rect x="129" y="108" width="101" height="1"/>
<rect x="129" y="109" width="101" height="1"/>
<rect x="129" y="110" width="101" height="1"/>
<rect x="129" y="111" width="101" height="1"/>
<rect x="129" y="112" width="101" height="1"/>
<rect x="129" y="113" width="101" height="1"/>
<rect x="129" y="114" width="101" height="1"/>
<rect x="129" y="115" width="101" height="1"/>
</g>
</svg>
