<svg xmlns="http://www.w3.org/2000/svg" viewBox="0 0 360 180" width="360" height="180" shape-rendering="crispEdges">
<rect width="100%" height="100%" fill="#fff"/>
<g fill="#111">
<rect x="23" y="0" width="6" height="1"/>
<rect x="30" y="0" width="1" height="1"/>
<rect x="33" y="0" width="2" height="1"/>
<rect x="46" y="0" width="1" height="1"/>
<rect x="59" y="0" width="3" height="1"/>
<rect x="66" y="0" width="3" height="1"/>
<rect x="157" y="0" width="1" height="1"/>
<rect x="22" y="1" width="3" height="1"/>
<rect x="27" y="1" width="2" height="1"/>
<rect x="30" y="1" width="1" height="1"/>
<rect x="33" y="1" width="2" height="1"/>
<rect x="46" y="1" width="1" height="1"/>
<rect x="61" y="1" width="2" height="1"/>
<rect x="64" y="1" width="4" height="1"/>
<rect x="154" y="1" width="1" height="1"/>
<rect x="156" y="1" width="2" height="1"/>
<rect x="22" y="2" width="2" height="1"/>
<rect x="27" y="2" width="2" height="1"/>
<rect x="30" y="2" width="1" height="1"/>
<rect x="33" y="2" width="2" height="1"/>
<rect x="46" y="2" width="1" height="1"/>
<rect x="62" y="2" width="4" height="1"/>
<rect x="157" y="2" width="1" height="1"/>
<rect x="22" y="3" width="2" height="1"/>
<rect x="27" y="3" width="2" height="1"/>
<rect x="30" y="3" width="1" height="1"/>
<rect x="33" y="3" width="2" height="1"/>
<rect x="46" y="3" width="1" height="1"/>
<rect x="63" y="3" width="2" height="1"/>
<rect x="154" y="3" width="1" height="1"/>
<rect x="156" y="3" width="2" height="1"/>
<rect x="22" y="4" width="2" height="1"/>
<rect x="27" y="4" width="2" height="1"/>
<rect x="30" y="4" width="1" height="1"/>
<rect x="33" y="4" width="2" height="1"/>
<rect x="46" y="4" width="1" height="1"/>
<rect x="64" y="4" width="2" height="1"/>
<rect x="157" y="4" width="1" height="1"/>
<rect x="22" y="5" width="2" height="1"/>
<rect x="27" y="5" width="2" height="1"/>
<rect x="30" y="5" width="1" height="1"/>
<rect x="33" y="5" width="2" height="1"/>
<rect x="46" y="5" width="1" height="1"/>
<rect x="53" y="5" width="18" height="1"/>
<rect x="154" y="5" width="1" height="1"/>
<rect x="156" y="5" width="2" height="1"/>
<rect x="22" y="6" width="3" height="1"/>
<rect x="27" y="6" width="2" height="1"/>
<rect x="30" y="6" width="1" height="1"/>
<rect x="32" y="6" width="3" height="1"/>
<rect x="46" y="6" width="1" height="1"/>
<rect x="53" y="6" width="18" height="1"/>
<rect x="157" y="6" width="1" height="1"/>
<rect x="23" y="7" width="11" height="1"/>
<rect x="46" y="7" width="1" height="1"/>
<rect x="154" y="7" width="1" height="1"/>
<rect x="156" y="7" width="2" height="1"/>
<rect x="24" y="8" width="9" height="1"/>
<rect x="46" y="8" width="1" height="1"/>
<rect x="157" y="8" width="1" height="1"/>
<rect x="27" y="9" width="4" height="1"/>
<rect x="46" y="9" width="1" height="1"/>
<rect x="154" y="9" width="1" height="1"/>
<rect x="156" y="9" width="2" height="1"/>
<rect x="30" y="10" width="1" height="1"/>
<rect x="46" y="10" width="1" height="1"/>
<rect x="157" y="10" width="1" height="1"/>
<rect x="30" y="11" width="1" height="1"/>
<rect x="46" y="11" width="1" height="1"/>
<rect x="61" y="11" width="7" height="1"/>
<rect x="154" y="11" width="1" height="1"/>
<rect x="156" y="11" width="2" height="1"/>
<rect x="26" y="12" width="9" height="1"/>
<rect x="46" y="12" width="1" height="1"/>
<rect x="60" y="12" width="10" height="1"/>
<rect x="157" y="12" width="1" height="1"/>
<rect x="23" y="13" width="12" height="1"/>
<rect x="46" y="13" width="1" height="1"/>
<rect x="59" y="13" width="3" height="1"/>
<rect x="67" y="13" width="3" height="1"/>
<rect x="154" y="13" width="1" height="1"/>
<rect x="156" y="13" width="2" height="1"/>
<rect x="22" y="14" width="13" height="1"/>
<rect x="46" y="14" width="1" height="1"/>
<rect x="58" y="14" width="2" height="1"/>
<rect x="69" y="14" width="2" height="1"/>
<rect x="157" y="14" width="1" height="1"/>
<rect x="22" y="15" width="2" height="1"/>
<rect x="30" y="15" width="1" height="1"/>
<rect x="46" y="15" width="1" height="1"/>
<rect x="58" y="15" width="2" height="1"/>
<rect x="69" y="15" width="2" height="1"/>
<rect x="154" y="15" width="1" height="1"/>
<rect x="156" y="15" width="2" height="1"/>
<rect x="22" y="16" width="2" height="1"/>
<rect x="30" y="16" width="1" height="1"/>
<rect x="46" y="16" width="1" height="1"/>
<rect x="58" y="16" width="2" height="1"/>
<rect x="69" y="16" width="2" height="1"/>
<rect x="157" y="16" width="1" height="1"/>
<rect x="22" y="17" width="2" height="1"/>
<rect x="30" y="17" width="1" height="1"/>
<rect x="46" y="17" width="1" height="1"/>
<rect x="58" y="17" width="2" height="1"/>
<rect x="69" y="17" width="2" height="1"/>
<rect x="154" y="17" width="1" height="1"/>
<rect x="156" y="17" width="2" height="1"/>
<rect x="22" y="18" width="2" height="1"/>
<rect x="30" y="18" width="1" height="1"/>
<rect x="46" y="18" width="1" height="1"/>
<rect x="58" y="18" width="2" height="1"/>
<rect x="69" y="18" width="2" height="1"/>
<rect x="157" y="18" width="1" height="1"/>
<rect x="23" y="19" width="1" height="1"/>
<rect x="30" y="19" width="1" height="1"/>
<rect x="46" y="19" width="1" height="1"/>
<rect x="58" y="19" width="3" height="1"/>
<rect x="68" y="19" width="3" height="1"/>
<rect x="154" y="19" width="1" height="1"/>
<rect x="156" y="19" width="2" height="1"/>
<rect x="23" y="20" width="3" height="1"/>
<rect x="30" y="20" width="1" height="1"/>
<rect x="46" y="20" width="1" height="1"/>
<rect x="59" y="20" width="11" height="1"/>
<rect x="157" y="20" width="1" height="1"/>
<rect x="23" y="21" width="12" height="1"/>
<rect x="46" y="21" width="1" height="1"/>
<rect x="60" y="21" width="9" height="1"/>
<rect x="154" y="21" width="1" height="1"/>
<rect x="156" y="21" width="2" height="1"/>
<rect x="22" y="22" width="13" height="1"/>
<rect x="46" y="22" width="1" height="1"/>
<rect x="62" y="22" width="5" height="1"/>
<rect x="157" y="22" width="1" height="1"/>
<rect x="22" y="23" width="2" height="1"/>
<rect x="30" y="23" width="1" height="1"/>
<rect x="46" y="23" width="1" height="1"/>
<rect x="154" y="23" width="1" height="1"/>
<rect x="156" y="23" width="2" height="1"/>
<rect x="22" y="24" width="2" height="1"/>
<rect x="30" y="24" width="1" height="1"/>
<rect x="46" y="24" width="1" height="1"/>
<rect x="157" y="24" width="1" height="1"/>
<rect x="22" y="25" width="2" height="1"/>
<rect x="30" y="25" width="1" height="1"/>
<rect x="46" y="25" width="1" height="1"/>
<rect x="154" y="25" width="4" height="1"/>
<rect x="22" y="26" width="2" height="1"/>
<rect x="30" y="26" width="1" height="1"/>
<rect x="46" y="26" width="1" height="1"/>
<rect x="61" y="26" width="7" height="1"/>
<rect x="154" y="26" width="4" height="1"/>
<rect x="23" y="27" width="1" height="1"/>
<rect x="30" y="27" width="1" height="1"/>
<rect x="46" y="27" width="1" height="1"/>
<rect x="60" y="27" width="10" height="1"/>
<rect x="154" y="27" width="4" height="1"/>
<rect x="23" y="28" width="3" height="1"/>
<rect x="30" y="28" width="1" height="1"/>
<rect x="46" y="28" width="1" height="1"/>
<rect x="59" y="28" width="3" height="1"/>
<rect x="67" y="28" width="3" height="1"/>
<rect x="154" y="28" width="4" height="1"/>
<rect x="22" y="29" width="13" height="1"/>
<rect x="46" y="29" width="1" height="1"/>
<rect x="58" y="29" width="2" height="1"/>
<rect x="69" y="29" width="2" height="1"/>
<rect x="154" y="29" width="4" height="1"/>
<rect x="22" y="30" width="13" height="1"/>
<rect x="46" y="30" width="1" height="1"/>
<rect x="58" y="30" width="2" height="1"/>
<rect x="69" y="30" width="2" height="1"/>
<rect x="154" y="30" width="4" height="1"/>
<rect x="30" y="31" width="1" height="1"/>
<rect x="46" y="31" width="1" height="1"/>
<rect x="58" y="31" width="2" height="1"/>
<rect x="69" y="31" width="2" height="1"/>
<rect x="154" y="31" width="4" height="1"/>
<rect x="30" y="32" width="1" height="1"/>
<rect x="46" y="32" width="1" height="1"/>
<rect x="58" y="32" width="2" height="1"/>
<rect x="69" y="32" width="2" height="1"/>
<rect x="154" y="32" width="4" height="1"/>
<rect x="30" y="33" width="1" height="1"/>
<rect x="46" y="33" width="1" height="1"/>
<rect x="58" y="33" width="2" height="1"/>
<rect x="69" y="33" width="2" height="1"/>
<rect x="154" y="33" width="4" height="1"/>
<rect x="30" y="34" width="1" height="1"/>
<rect x="46" y="34" width="1" height="1"/>
<rect x="58" y="34" width="3" height="1"/>
<rect x="68" y="34" width="3" height="1"/>
<rect x="154" y="34" width="4" height="1"/>
<rect x="25" y="35" width="7" height="1"/>
<rect x="46" y="35" width="1" height="1"/>
<rect x="59" y="35" width="11" height="1"/>
<rect x="154" y="35" width="4" height="1"/>
<rect x="24" y="36" width="10" height="1"/>
<rect x="46" y="36" width="1" height="1"/>
<rect x="60" y="36" width="9" height="1"/>
<rect x="154" y="36" width="4" height="1"/>
<rect x="23" y="37" width="3" height="1"/>
<rect x="30" y="37" width="4" height="1"/>
<rect x="46" y="37" width="1" height="1"/>
<rect x="62" y="37" width="5" height="1"/>
<rect x="154" y="37" width="4" height="1"/>
<rect x="22" y="38" width="2" height="1"/>
<rect x="30" y="38" width="1" height="1"/>
<rect x="33" y="38" width="2" height="1"/>
<rect x="46" y="38" width="1" height="1"/>
<rect x="154" y="38" width="4" height="1"/>
<rect x="22" y="39" width="2" height="1"/>
<rect x="30" y="39" width="1" height="1"/>
<rect x="33" y="39" width="2" height="1"/>
<rect x="46" y="39" width="1" height="1"/>
<rect x="154" y="39" width="4" height="1"/>
<rect x="22" y="40" width="2" height="1"/>
<rect x="30" y="40" width="1" height="1"/>
<rect x="33" y="40" width="2" height="1"/>
<rect x="46" y="40" width="1" height="1"/>
<rect x="154" y="40" width="4" height="1"/>
<rect x="22" y="41" width="2" height="1"/>
<rect x="30" y="41" width="1" height="1"/>
<rect x="33" y="41" width="2" height="1"/>
<rect x="46" y="41" width="1" height="1"/>
<rect x="57" y="41" width="3" height="1"/>
<rect x="64" y="41" width="5" height="1"/>
<rect x="154" y="41" width="4" height="1"/>
<rect x="22" y="42" width="2" height="1"/>
<rect x="30" y="42" width="1" height="1"/>
<rect x="33" y="42" width="2" height="1"/>
<rect x="46" y="42" width="1" height="1"/>
<rect x="55" y="42" width="6" height="1"/>
<rect x="63" y="42" width="7" height="1"/>
<rect x="154" y="42" width="4" height="1"/>
<rect x="22" y="43" width="3" height="1"/>
<rect x="30" y="43" width="1" height="1"/>
<rect x="32" y="43" width="3" height="1"/>
<rect x="46" y="43" width="1" height="1"/>
<rect x="55" y="43" width="9" height="1"/>
<rect x="68" y="43" width="2" height="1"/>
<rect x="154" y="43" width="4" height="1"/>
<rect x="23" y="44" width="11" height="1"/>
<rect x="46" y="44" width="1" height="1"/>
<rect x="54" y="44" width="2" height="1"/>
<rect x="61" y="44" width="2" height="1"/>
<rect x="69" y="44" width="2" height="1"/>
<rect x="154" y="44" width="4" height="1"/>
<rect x="24" y="45" width="9" height="1"/>
<rect x="46" y="45" width="1" height="1"/>
<rect x="54" y="45" width="2" height="1"/>
<rect x="61" y="45" width="2" height="1"/>
<rect x="69" y="45" width="2" height="1"/>
<rect x="154" y="45" width="4" height="1"/>
<rect x="26" y="46" width="5" height="1"/>
<rect x="46" y="46" width="1" height="1"/>
<rect x="54" y="46" width="2" height="1"/>
<rect x="61" y="46" width="2" height="1"/>
<rect x="69" y="46" width="2" height="1"/>
<rect x="154" y="46" width="4" height="1"/>
<rect x="30" y="47" width="1" height="1"/>
<rect x="46" y="47" width="1" height="1"/>
<rect x="54" y="47" width="2" height="1"/>
<rect x="61" y="47" width="2" height="1"/>
<rect x="69" y="47" width="2" height="1"/>
<rect x="154" y="47" width="4" height="1"/>
<rect x="22" y="48" width="1" height="1"/>
<rect x="30" y="48" width="1" height="1"/>
<rect x="46" y="48" width="1" height="1"/>
<rect x="54" y="48" width="2" height="1"/>
<rect x="61" y="48" width="2" height="1"/>
<rect x="69" y="48" width="2" height="1"/>
<rect x="154" y="48" width="4" height="1"/>
<rect x="22" y="49" width="2" height="1"/>
<rect x="30" y="49" width="1" height="1"/>
<rect x="46" y="49" width="1" height="1"/>
<rect x="54" y="49" width="2" height="1"/>
<rect x="61" y="49" width="2" height="1"/>
<rect x="69" y="49" width="2" height="1"/>
<rect x="154" y="49" width="4" height="1"/>
<rect x="22" y="50" width="2" height="1"/>
<rect x="30" y="50" width="1" height="1"/>
<rect x="46" y="50" width="1" height="1"/>
<rect x="54" y="50" width="2" height="1"/>
<rect x="61" y="50" width="2" height="1"/>
<rect x="69" y="50" width="2" height="1"/>
<rect x="154" y="50" width="4" height="1"/>
<rect x="22" y="51" width="2" height="1"/>
<rect x="30" y="51" width="1" height="1"/>
<rect x="46" y="51" width="1" height="1"/>
<rect x="54" y="51" width="17" height="1"/>
<rect x="154" y="51" width="4" height="1"/>
<rect x="23" y="52" width="2" height="1"/>
<rect x="30" y="52" width="1" height="1"/>
<rect x="46" y="52" width="1" height="1"/>
<rect x="54" y="52" width="17" height="1"/>
<rect x="154" y="52" width="4" height="1"/>
<rect x="24" y="53" width="2" height="1"/>
<rect x="30" y="53" width="1" height="1"/>
<rect x="46" y="53" width="1" height="1"/>
<rect x="154" y="53" width="4" height="1"/>
<rect x="22" y="54" width="13" height="1"/>
<rect x="46" y="54" width="1" height="1"/>
<rect x="154" y="54" width="4" height="1"/>
<rect x="22" y="55" width="13" height="1"/>
<rect x="46" y="55" width="1" height="1"/>
<rect x="154" y="55" width="4" height="1"/>
<rect x="30" y="56" width="1" height="1"/>
<rect x="46" y="56" width="1" height="1"/>
<rect x="154" y="56" width="4" height="1"/>
<rect x="30" y="57" width="1" height="1"/>
<rect x="46" y="57" width="1" height="1"/>
<rect x="154" y="57" width="4" height="1"/>
<rect x="30" y="58" width="1" height="1"/>
<rect x="46" y="58" width="1" height="1"/>
<rect x="154" y="58" width="4" height="1"/>
<rect x="30" y="59" width="1" height="1"/>
<rect x="46" y="59" width="1" height="1"/>
<rect x="154" y="59" width="4" height="1"/>
<rect x="24" y="60" width="11" height="1"/>
<rect x="46" y="60" width="1" height="1"/>
<rect x="154" y="60" width="4" height="1"/>
<rect x="23" y="61" width="12" height="1"/>
<rect x="46" y="61" width="1" height="1"/>
<rect x="154" y="61" width="4" height="1"/>
<rect x="22" y="62" width="3" height="1"/>
<rect x="30" y="62" width="1" height="1"/>
<rect x="46" y="62" width="1" height="1"/>
<rect x="154" y="62" width="4" height="1"/>
<rect x="22" y="63" width="2" height="1"/>
<rect x="30" y="63" width="1" height="1"/>
<rect x="46" y="63" width="1" height="1"/>
<rect x="154" y="63" width="4" height="1"/>
<rect x="22" y="64" width="2" height="1"/>
<rect x="30" y="64" width="1" height="1"/>
<rect x="46" y="64" width="1" height="1"/>
<rect x="154" y="64" width="4" height="1"/>
<rect x="22" y="65" width="2" height="1"/>
<rect x="30" y="65" width="1" height="1"/>
<rect x="46" y="65" width="1" height="1"/>
<rect x="154" y="65" width="4" height="1"/>
<rect x="22" y="66" width="2" height="1"/>
<rect x="30" y="66" width="1" height="1"/>
<rect x="46" y="66" width="1" height="1"/>
<rect x="154" y="66" width="4" height="1"/>
<rect x="23" y="67" width="1" height="1"/>
<rect x="30" y="67" width="1" height="1"/>
<rect x="46" y="67" width="1" height="1"/>
<rect x="154" y="67" width="4" height="1"/>
<rect x="23" y="68" width="3" height="1"/>
<rect x="30" y="68" width="1" height="1"/>
<rect x="46" y="68" width="1" height="1"/>
<rect x="154" y="68" width="4" height="1"/>
<rect x="17" y="69" width="18" height="1"/>
<rect x="46" y="69" width="1" height="1"/>
<rect x="154" y="69" width="4" height="1"/>
<rect x="17" y="70" width="18" height="1"/>
<rect x="46" y="70" width="1" height="1"/>
<rect x="154" y="70" width="4" height="1"/>
<rect x="30" y="71" width="1" height="1"/>
<rect x="46" y="71" width="1" height="1"/>
<rect x="154" y="71" width="4" height="1"/>
<rect x="30" y="72" width="1" height="1"/>
<rect x="46" y="72" width="1" height="1"/>
<rect x="154" y="72" width="4" height="1"/>
<rect x="30" y="73" width="1" height="1"/>
<rect x="46" y="73" width="1" height="1"/>
<rect x="154" y="73" width="4" height="1"/>
<rect x="18" y="74" width="2" height="1"/>
<rect x="30" y="74" width="1" height="1"/>
<rect x="33" y="74" width="2" height="1"/>
<rect x="46" y="74" width="1" height="1"/>
<rect x="154" y="74" width="4" height="1"/>
<rect x="18" y="75" width="2" height="1"/>
<rect x="30" y="75" width="1" height="1"/>
<rect x="33" y="75" width="2" height="1"/>
<rect x="46" y="75" width="1" height="1"/>
<rect x="154" y="75" width="4" height="1"/>
<rect x="18" y="76" width="2" height="1"/>
<rect x="30" y="76" width="1" height="1"/>
<rect x="33" y="76" width="2" height="1"/>
<rect x="46" y="76" width="1" height="1"/>
<rect x="154" y="76" width="4" height="1"/>
<rect x="18" y="77" width="2" height="1"/>
<rect x="30" y="77" width="1" height="1"/>
<rect x="33" y="77" width="2" height="1"/>
<rect x="46" y="77" width="1" height="1"/>
<rect x="154" y="77" width="4" height="1"/>
<rect x="18" y="78" width="2" height="1"/>
<rect x="30" y="78" width="1" height="1"/>
<rect x="33" y="78" width="2" height="1"/>
<rect x="46" y="78" width="1" height="1"/>
<rect x="154" y="78" width="4" height="1"/>
<rect x="18" y="79" width="2" height="1"/>
<rect x="30" y="79" width="1" height="1"/>
<rect x="33" y="79" width="2" height="1"/>
<rect x="46" y="79" width="1" height="1"/>
<rect x="154" y="79" width="4" height="1"/>
<rect x="18" y="80" width="2" height="1"/>
<rect x="30" y="80" width="1" height="1"/>
<rect x="33" y="80" width="2" height="1"/>
<rect x="46" y="80" width="1" height="1"/>
<rect x="154" y="80" width="4" height="1"/>
<rect x="18" y="81" width="2" height="1"/>
<rect x="30" y="81" width="1" height="1"/>
<rect x="33" y="81" width="2" height="1"/>
<rect x="46" y="81" width="1" height="1"/>
<rect x="154" y="81" width="4" height="1"/>
<rect x="19" y="82" width="2" height="1"/>
<rect x="30" y="82" width="1" height="1"/>
<rect x="32" y="82" width="2" height="1"/>
<rect x="46" y="82" width="1" height="1"/>
<rect x="154" y="82" width="4" height="1"/>
<rect x="19" y="83" width="4" height="1"/>
<rect x="30" y="83" width="4" height="1"/>
<rect x="46" y="83" width="1" height="1"/>
<rect x="154" y="83" width="4" height="1"/>
<rect x="20" y="84" width="13" height="1"/>
<rect x="46" y="84" width="1" height="1"/>
<rect x="154" y="84" width="4" height="1"/>
<rect x="22" y="85" width="9" height="1"/>
<rect x="46" y="85" width="1" height="1"/>
<rect x="154" y="85" width="4" height="1"/>
<rect x="25" y="86" width="3" height="1"/>
<rect x="30" y="86" width="1" height="1"/>
<rect x="46" y="86" width="1" height="1"/>
<rect x="154" y="86" width="4" height="1"/>
<rect x="30" y="87" width="1" height="1"/>
<rect x="46" y="87" width="1" height="1"/>
<rect x="154" y="87" width="4" height="1"/>
<rect x="22" y="88" width="1" height="1"/>
<rect x="30" y="88" width="1" height="1"/>
<rect x="46" y="88" width="1" height="1"/>
<rect x="154" y="88" width="4" height="1"/>
<rect x="22" y="89" width="2" height="1"/>
<rect x="30" y="89" width="1" height="1"/>
<rect x="46" y="89" width="1" height="1"/>
<rect x="154" y="89" width="4" height="1"/>
<rect x="22" y="90" width="2" height="1"/>
<rect x="30" y="90" width="1" height="1"/>
<rect x="46" y="90" width="1" height="1"/>
<rect x="154" y="90" width="4" height="1"/>
<rect x="22" y="91" width="2" height="1"/>
<rect x="30" y="91" width="1" height="1"/>
<rect x="46" y="91" width="1" height="1"/>
<rect x="154" y="91" width="4" height="1"/>
<rect x="23" y="92" width="2" height="1"/>
<rect x="30" y="92" width="1" height="1"/>
<rect x="46" y="92" width="1" height="1"/>
<rect x="154" y="92" width="4" height="1"/>
<rect x="24" y="93" width="2" height="1"/>
<rect x="30" y="93" width="1" height="1"/>
<rect x="46" y="93" width="1" height="1"/>
<rect x="154" y="93" width="4" height="1"/>
<rect x="22" y="94" width="13" height="1"/>
<rect x="46" y="94" width="1" height="1"/>
<rect x="154" y="94" width="4" height="1"/>
<rect x="22" y="95" width="13" height="1"/>
<rect x="46" y="95" width="1" height="1"/>
<rect x="154" y="95" width="4" height="1"/>
<rect x="30" y="96" width="1" height="1"/>
<rect x="46" y="96" width="1" height="1"/>
<rect x="154" y="96" width="4" height="1"/>
<rect x="30" y="97" width="1" height="1"/>
<rect x="46" y="97" width="1" height="1"/>
<rect x="154" y="97" width="4" height="1"/>
<rect x="30" y="98" width="1" height="1"/>
<rect x="46" y="98" width="1" height="1"/>
<rect x="154" y="98" width="4" height="1"/>
<rect x="30" y="99" width="1" height="1"/>
<rect x="46" y="99" width="1" height="1"/>
<rect x="154" y="99" width="4" height="1"/>
<rect x="24" y="100" width="5" height="1"/>
<rect x="30" y="100" width="1" height="1"/>
<rect x="33" y="100" width="1" height="1"/>
<rect x="46" y="100" width="1" height="1"/>
<rect x="154" y="100" width="4" height="1"/>
<rect x="23" y="101" width="6" height="1"/>
<rect x="30" y="101" width="1" height="1"/>
<rect x="33" y="101" width="2" height="1"/>
<rect x="46" y="101" width="1" height="1"/>
<rect x="154" y="101" width="4" height="1"/>
<rect x="22" y="102" width="3" height="1"/>
<rect x="27" y="102" width="2" height="1"/>
<rect x="30" y="102" width="1" height="1"/>
<rect x="33" y="102" width="2" height="1"/>
<rect x="46" y="102" width="1" height="1"/>
<rect x="154" y="102" width="4" height="1"/>
<rect x="22" y="103" width="2" height="1"/>
<rect x="27" y="103" width="2" height="1"/>
<rect x="30" y="103" width="1" height="1"/>
<rect x="33" y="103" width="2" height="1"/>
<rect x="46" y="103" width="1" height="1"/>
<rect x="154" y="103" width="4" height="1"/>
<rect x="22" y="104" width="2" height="1"/>
<rect x="27" y="104" width="2" height="1"/>
<rect x="30" y="104" width="1" height="1"/>
<rect x="33" y="104" width="2" height="1"/>
<rect x="46" y="104" width="1" height="1"/>
<rect x="154" y="104" width="4" height="1"/>
<rect x="22" y="105" width="2" height="1"/>
<rect x="27" y="105" width="2" height="1"/>
<rect x="30" y="105" width="1" height="1"/>
<rect x="33" y="105" width="2" height="1"/>
<rect x="46" y="105" width="1" height="1"/>
<rect x="154" y="105" width="4" height="1"/>
<rect x="22" y="106" width="2" height="1"/>
<rect x="27" y="106" width="2" height="1"/>
<rect x="30" y="106" width="1" height="1"/>
<rect x="33" y="106" width="2" height="1"/>
<rect x="46" y="106" width="1" height="1"/>
<rect x="154" y="106" width="4" height="1"/>
<rect x="22" y="107" width="3" height="1"/>
<rect x="27" y="107" width="2" height="1"/>
<rect x="30" y="107" width="1" height="1"/>
<rect x="32" y="107" width="3" height="1"/>
<rect x="46" y="107" width="1" height="1"/>
<rect x="154" y="107" width="4" height="1"/>
<rect x="23" y="108" width="11" height="1"/>
<rect x="46" y="108" width="1" height="1"/>
<rect x="154" y="108" width="4" height="1"/>
<rect x="24" y="109" width="9" height="1"/>
<rect x="46" y="109" width="1" height="1"/>
<rect x="154" y="109" width="4" height="1"/>
<rect x="27" y="110" width="4" height="1"/>
<rect x="46" y="110" width="1" height="1"/>
<rect x="154" y="110" width="4" height="1"/>
<rect x="30" y="111" width="1" height="1"/>
<rect x="46" y="111" width="1" height="1"/>
<rect x="154" y="111" width="4" height="1"/>
<rect x="30" y="112" width="1" height="1"/>
<rect x="46" y="112" width="1" height="1"/>
<rect x="154" y="112" width="4" height="1"/>
<rect x="30" y="113" width="1" height="1"/>
<rect x="46" y="113" width="1" height="1"/>
<rect x="154" y="113" width="4" height="1"/>
<rect x="17" y="114" width="18" height="1"/>
<rect x="46" y="114" width="1" height="1"/>
<rect x="154" y="114" width="4" height="1"/>
<rect x="17" y="115" width="18" height="1"/>
<rect x="46" y="115" width="1" height="1"/>
<rect x="154" y="115" width="4" height="1"/>
<rect x="24" y="116" width="3" height="1"/>
<rect x="30" y="116" width="3" height="1"/>
<rect x="46" y="116" width="1" height="1"/>
<rect x="154" y="116" width="4" height="1"/>
<rect x="23" y="117" width="2" height="1"/>
<rect x="30" y="117" width="1" height="1"/>
<rect x="33" y="117" width="1" height="1"/>
<rect x="46" y="117" width="1" height="1"/>
<rect x="154" y="117" width="4" height="1"/>
<rect x="22" y="118" width="2" height="1"/>
<rect x="30" y="118" width="1" height="1"/>
<rect x="33" y="118" width="2" height="1"/>
<rect x="46" y="118" width="1" height="1"/>
<rect x="154" y="118" width="4" height="1"/>
<rect x="22" y="119" width="2" height="1"/>
<rect x="30" y="119" width="1" height="1"/>
<rect x="33" y="119" width="2" height="1"/>
<rect x="46" y="119" width="1" height="1"/>
<rect x="154" y="119" width="4" height="1"/>
<rect x="22" y="120" width="2" height="1"/>
<rect x="30" y="120" width="1" height="1"/>
<rect x="33" y="120" width="2" height="1"/>
<rect x="46" y="120" width="1" height="1"/>
<rect x="154" y="120" width="4" height="1"/>
<rect x="22" y="121" width="2" height="1"/>
<rect x="30" y="121" width="1" height="1"/>
<rect x="33" y="121" width="2" height="1"/>
<rect x="46" y="121" width="1" height="1"/>
<rect x="154" y="121" width="4" height="1"/>
<rect x="22" y="122" width="3" height="1"/>
<rect x="30" y="122" width="1" height="1"/>
<rect x="32" y="122" width="3" height="1"/>
<rect x="46" y="122" width="1" height="1"/>
<rect x="154" y="122" width="4" height="1"/>
<rect x="23" y="123" width="11" height="1"/>
<rect x="46" y="123" width="1" height="1"/>
<rect x="154" y="123" width="4" height="1"/>
<rect x="24" y="124" width="9" height="1"/>
<rect x="46" y="124" width="1" height="1"/>
<rect x="154" y="124" width="4" height="1"/>
<rect x="26" y="125" width="5" height="1"/>
<rect x="46" y="125" width="1" height="1"/>
<rect x="154" y="125" width="4" height="1"/>
<rect x="30" y="126" width="1" height="1"/>
<rect x="46" y="126" width="1" height="1"/>
<rect x="154" y="126" width="4" height="1"/>
<rect x="30" y="127" width="1" height="1"/>
<rect x="46" y="127" width="1" height="1"/>
<rect x="154" y="127" width="4" height="1"/>
<rect x="26" y="128" width="9" height="1"/>
<rect x="46" y="128" width="1" height="1"/>
<rect x="154" y="128" width="4" height="1"/>
<rect x="23" y="129" width="12" height="1"/>
<rect x="46" y="129" width="1" height="1"/>
<rect x="154" y="129" width="4" height="1"/>
<rect x="22" y="130" width="11" height="1"/>
<rect x="46" y="130" width="1" height="1"/>
<rect x="154" y="130" width="4" height="1"/>
<rect x="22" y="131" width="2" height="1"/>
<rect x="27" y="131" width="2" height="1"/>
<rect x="30" y="131" width="1" height="1"/>
<rect x="32" y="131" width="2" height="1"/>
<rect x="46" y="131" width="1" height="1"/>
<rect x="154" y="131" width="4" height="1"/>
<rect x="22" y="132" width="2" height="1"/>
<rect x="27" y="132" width="2" height="1"/>
<rect x="30" y="132" width="1" height="1"/>
<rect x="33" y="132" width="2" height="1"/>
<rect x="46" y="132" width="1" height="1"/>
<rect x="154" y="132" width="4" height="1"/>
<rect x="22" y="133" width="2" height="1"/>
<rect x="27" y="133" width="2" height="1"/>
<rect x="30" y="133" width="1" height="1"/>
<rect x="33" y="133" width="2" height="1"/>
<rect x="46" y="133" width="1" height="1"/>
<rect x="154" y="133" width="4" height="1"/>
<rect x="22" y="134" width="2" height="1"/>
<rect x="27" y="134" width="2" height="1"/>
<rect x="30" y="134" width="1" height="1"/>
<rect x="34" y="134" width="1" height="1"/>
<rect x="46" y="134" width="1" height="1"/>
<rect x="154" y="134" width="4" height="1"/>
<rect x="22" y="135" width="2" height="1"/>
<rect x="28" y="135" width="1" height="1"/>
<rect x="30" y="135" width="1" height="1"/>
<rect x="33" y="135" width="2" height="1"/>
<rect x="46" y="135" width="1" height="1"/>
<rect x="154" y="135" width="4" height="1"/>
<rect x="23" y="136" width="2" height="1"/>
<rect x="28" y="136" width="3" height="1"/>
<rect x="32" y="136" width="3" height="1"/>
<rect x="46" y="136" width="1" height="1"/>
<rect x="154" y="136" width="4" height="1"/>
<rect x="29" y="137" width="6" height="1"/>
<rect x="46" y="137" width="1" height="1"/>
<rect x="154" y="137" width="4" height="1"/>
<rect x="30" y="138" width="3" height="1"/>
<rect x="46" y="138" width="1" height="1"/>
<rect x="154" y="138" width="4" height="1"/>
<rect x="30" y="139" width="1" height="1"/>
<rect x="46" y="139" width="1" height="1"/>
<rect x="154" y="139" width="4" height="1"/>
<rect x="30" y="140" width="1" height="1"/>
<rect x="46" y="140" width="1" height="1"/>
<rect x="154" y="140" width="4" height="1"/>
<rect x="30" y="141" width="1" height="1"/>
<rect x="46" y="141" width="1" height="1"/>
<rect x="154" y="141" width="4" height="1"/>
<rect x="24" y="142" width="5" height="1"/>
<rect x="30" y="142" width="1" height="1"/>
<rect x="33" y="142" width="1" height="1"/>
<rect x="46" y="142" width="1" height="1"/>
<rect x="154" y="142" width="4" height="1"/>
<rect x="23" y="143" width="6" height="1"/>
<rect x="30" y="143" width="1" height="1"/>
<rect x="33" y="143" width="2" height="1"/>
<rect x="46" y="143" width="1" height="1"/>
<rect x="154" y="143" width="4" height="1"/>
<rect x="22" y="144" width="3" height="1"/>
<rect x="27" y="144" width="2" height="1"/>
<rect x="30" y="144" width="1" height="1"/>
<rect x="33" y="144" width="2" height="1"/>
<rect x="46" y="144" width="1" height="1"/>
<rect x="154" y="144" width="4" height="1"/>
<rect x="22" y="145" width="2" height="1"/>
<rect x="27" y="145" width="2" height="1"/>
<rect x="30" y="145" width="1" height="1"/>
<rect x="33" y="145" width="2" height="1"/>
<rect x="46" y="145" width="1" height="1"/>
<rect x="154" y="145" width="4" height="1"/>
<rect x="22" y="146" width="2" height="1"/>
<rect x="27" y="146" width="2" height="1"/>
<rect x="30" y="146" width="1" height="1"/>
<rect x="33" y="146" width="2" height="1"/>
<rect x="46" y="146" width="1" height="1"/>
<rect x="154" y="146" width="4" height="1"/>
<rect x="22" y="147" width="2" height="1"/>
<rect x="27" y="147" width="2" height="1"/>
<rect x="30" y="147" width="1" height="1"/>
<rect x="33" y="147" width="2" height="1"/>
<rect x="46" y="147" width="1" height="1"/>
<rect x="154" y="147" width="4" height="1"/>
<rect x="22" y="148" width="2" height="1"/>
<rect x="27" y="148" width="2" height="1"/>
<rect x="30" y="148" width="1" height="1"/>
<rect x="33" y="148" width="2" height="1"/>
<rect x="46" y="148" width="1" height="1"/>
<rect x="154" y="148" width="4" height="1"/>
<rect x="22" y="149" width="3" height="1"/>
<rect x="27" y="149" width="2" height="1"/>
<rect x="30" y="149" width="1" height="1"/>
<rect x="32" y="149" width="3" height="1"/>
<rect x="46" y="149" width="1" height="1"/>
<rect x="154" y="149" width="4" height="1"/>
<rect x="23" y="150" width="11" height="1"/>
<rect x="46" y="150" width="1" height="1"/>
<rect x="154" y="150" width="4" height="1"/>
<rect x="24" y="151" width="9" height="1"/>
<rect x="46" y="151" width="1" height="1"/>
<rect x="154" y="151" width="4" height="1"/>
<rect x="27" y="152" width="4" height="1"/>
<rect x="46" y="152" width="1" height="1"/>
<rect x="154" y="152" width="4" height="1"/>
<rect x="30" y="153" width="1" height="1"/>
<rect x="46" y="153" width="1" height="1"/>
<rect x="154" y="153" width="4" height="1"/>
<rect x="22" y="154" width="1" height="1"/>
<rect x="30" y="154" width="1" height="1"/>
<rect x="46" y="154" width="1" height="1"/>
<rect x="154" y="154" width="4" height="1"/>
<rect x="22" y="155" width="2" height="1"/>
<rect x="30" y="155" width="1" height="1"/>
<rect x="46" y="155" width="112" height="1"/>
<rect x="22" y="156" width="2" height="1"/>
<rect x="30" y="156" width="1" height="1"/>
<rect x="22" y="157" width="2" height="1"/>
<rect x="30" y="157" width="1" height="1"/>
<rect x="23" y="158" width="2" height="1"/>
<rect x="30" y="158" width="1" height="1"/>
<rect x="24" y="159" width="2" height="1"/>
<rect x="30" y="159" width="1" height="1"/>
<rect x="22" y="160" width="13" height="1"/>
<rect x="22" y="161" width="13" height="1"/>
<rect x="30" y="162" width="1" height="1"/>
<rect x="30" y="163" width="1" height="1"/>
</g>
</svg>
