<svg xmlns="http://www.w3.org/2000/svg" viewBox="0 0 360 180" width="360" height="180" shape-rendering="crispEdges">
<rect width="100%" height="100%" fill="#fff"/>
<g fill="#111">
<rect x="41" y="16" width="1" height="1"/>
<rect x="64" y="16" width="1" height="1"/>
<rect x="41" y="17" width="1" height="1"/>
<rect x="58" y="17" width="5" height="1"/>
<rect x="64" y="17" width="1" height="1"/>
<rect x="41" y="18" width="1" height="1"/>
<rect x="57" y="18" width="1" height="1"/>
<rect x="64" y="18" width="1" height="1"/>
<rect x="17" y="19" width="1" height="1"/>
<rect x="19" y="19" width="2" height="1"/>
<rect x="23" y="19" width="3" height="1"/>
<rect x="30" y="19" width="4" height="1"/>
<rect x="37" y="19" width="3" height="1"/>
<rect x="41" y="19" width="1" height="1"/>
<rect x="45" y="19" width="3" height="1"/>
<rect x="51" y="19" width="1" height="1"/>
<rect x="53" y="19" width="2" height="1"/>
<rect x="56" y="19" width="1" height="1"/>
<rect x="64" y="19" width="1" height="1"/>
<rect x="66" y="19" width="3" height="1"/>
<rect x="72" y="19" width="1" height="1"/>
<rect x="74" y="19" width="2" height="1"/>
<rect x="78" y="19" width="4" height="1"/>
<rect x="85" y="19" width="1" height="1"/>
<rect x="87" y="19" width="3" height="1"/>
<rect x="91" y="19" width="3" height="1"/>
<rect x="98" y="19" width="3" height="1"/>
<rect x="17" y="20" width="2" height="1"/>
<rect x="22" y="20" width="1" height="1"/>
<rect x="26" y="20" width="1" height="1"/>
<rect x="29" y="20" width="1" height="1"/>
<rect x="33" y="20" width="1" height="1"/>
<rect x="36" y="20" width="1" height="1"/>
<rect x="40" y="20" width="2" height="1"/>
<rect x="44" y="20" width="1" height="1"/>
<rect x="48" y="20" width="1" height="1"/>
<rect x="51" y="20" width="2" height="1"/>
<rect x="56" y="20" width="1" height="1"/>
<rect x="64" y="20" width="2" height="1"/>
<rect x="69" y="20" width="1" height="1"/>
<rect x="72" y="20" width="2" height="1"/>
<rect x="77" y="20" width="1" height="1"/>
<rect x="81" y="20" width="2" height="1"/>
<rect x="85" y="20" width="2" height="1"/>
<rect x="89" y="20" width="2" height="1"/>
<rect x="94" y="20" width="1" height="1"/>
<rect x="97" y="20" width="1" height="1"/>
<rect x="101" y="20" width="1" height="1"/>
<rect x="17" y="21" width="1" height="1"/>
<rect x="22" y="21" width="1" height="1"/>
<rect x="26" y="21" width="2" height="1"/>
<rect x="33" y="21" width="1" height="1"/>
<rect x="36" y="21" width="1" height="1"/>
<rect x="41" y="21" width="1" height="1"/>
<rect x="44" y="21" width="1" height="1"/>
<rect x="48" y="21" width="2" height="1"/>
<rect x="51" y="21" width="1" height="1"/>
<rect x="56" y="21" width="1" height="1"/>
<rect x="64" y="21" width="1" height="1"/>
<rect x="69" y="21" width="1" height="1"/>
<rect x="72" y="21" width="1" height="1"/>
<rect x="77" y="21" width="1" height="1"/>
<rect x="82" y="21" width="1" height="1"/>
<rect x="85" y="21" width="1" height="1"/>
<rect x="90" y="21" width="1" height="1"/>
<rect x="94" y="21" width="1" height="1"/>
<rect x="97" y="21" width="1" height="1"/>
<rect x="101" y="21" width="2" height="1"/>
<rect x="17" y="22" width="1" height="1"/>
<rect x="22" y="22" width="6" height="1"/>
<rect x="29" y="22" width="5" height="1"/>
<rect x="36" y="22" width="1" height="1"/>
<rect x="41" y="22" width="1" height="1"/>
<rect x="44" y="22" width="6" height="1"/>
<rect x="51" y="22" width="1" height="1"/>
<rect x="56" y="22" width="1" height="1"/>
<rect x="64" y="22" width="1" height="1"/>
<rect x="69" y="22" width="1" height="1"/>
<rect x="72" y="22" width="1" height="1"/>
<rect x="77" y="22" width="1" height="1"/>
<rect x="82" y="22" width="1" height="1"/>
<rect x="85" y="22" width="1" height="1"/>
<rect x="90" y="22" width="1" height="1"/>
<rect x="94" y="22" width="1" height="1"/>
<rect x="97" y="22" width="6" height="1"/>
<rect x="17" y="23" width="1" height="1"/>
<rect x="22" y="23" width="1" height="1"/>
<rect x="29" y="23" width="1" height="1"/>
<rect x="33" y="23" width="1" height="1"/>
<rect x="36" y="23" width="1" height="1"/>
<rect x="41" y="23" width="1" height="1"/>
<rect x="44" y="23" width="1" height="1"/>
<rect x="51" y="23" width="1" height="1"/>
<rect x="56" y="23" width="1" height="1"/>
<rect x="64" y="23" width="1" height="1"/>
<rect x="69" y="23" width="1" height="1"/>
<rect x="72" y="23" width="1" height="1"/>
<rect x="77" y="23" width="1" height="1"/>
<rect x="82" y="23" width="1" height="1"/>
<rect x="85" y="23" width="1" height="1"/>
<rect x="90" y="23" width="1" height="1"/>
<rect x="94" y="23" width="1" height="1"/>
<rect x="97" y="23" width="1" height="1"/>
<rect x="17" y="24" width="1" height="1"/>
<rect x="22" y="24" width="1" height="1"/>
<rect x="29" y="24" width="1" height="1"/>
<rect x="33" y="24" width="1" height="1"/>
<rect x="36" y="24" width="1" height="1"/>
<rect x="40" y="24" width="2" height="1"/>
<rect x="44" y="24" width="1" height="1"/>
<rect x="51" y="24" width="1" height="1"/>
<rect x="57" y="24" width="1" height="1"/>
<rect x="64" y="24" width="1" height="1"/>
<rect x="69" y="24" width="1" height="1"/>
<rect x="72" y="24" width="1" height="1"/>
<rect x="77" y="24" width="1" height="1"/>
<rect x="81" y="24" width="2" height="1"/>
<rect x="85" y="24" width="1" height="1"/>
<rect x="90" y="24" width="1" height="1"/>
<rect x="94" y="24" width="1" height="1"/>
<rect x="97" y="24" width="1" height="1"/>
<rect x="17" y="25" width="1" height="1"/>
<rect x="23" y="25" width="4" height="1"/>
<rect x="29" y="25" width="5" height="1"/>
<rect x="37" y="25" width="3" height="1"/>
<rect x="41" y="25" width="1" height="1"/>
<rect x="45" y="25" width="4" height="1"/>
<rect x="51" y="25" width="1" height="1"/>
<rect x="58" y="25" width="4" height="1"/>
<rect x="64" y="25" width="1" height="1"/>
<rect x="69" y="25" width="1" height="1"/>
<rect x="72" y="25" width="1" height="1"/>
<rect x="78" y="25" width="4" height="1"/>
<rect x="85" y="25" width="1" height="1"/>
<rect x="90" y="25" width="1" height="1"/>
<rect x="94" y="25" width="1" height="1"/>
<rect x="98" y="25" width="4" height="1"/>
<rect x="16" y="30" width="328" height="1"/>
<rect x="24" y="46" width="312" height="1"/>
<rect x="24" y="47" width="1" height="1"/>
<rect x="335" y="47" width="1" height="1"/>
<rect x="24" y="48" width="1" height="1"/>
<rect x="335" y="48" width="1" height="1"/>
<rect x="24" y="49" width="1" height="1"/>
<rect x="335" y="49" width="1" height="1"/>
<rect x="24" y="50" width="1" height="1"/>
<rect x="335" y="50" width="1" height="1"/>
<rect x="24" y="51" width="1" height="1"/>
<rect x="335" y="51" width="1" height="1"/>
<rect x="24" y="52" width="1" height="1"/>
<rect x="335" y="52" width="1" height="1"/>
<rect x="24" y="53" width="1" height="1"/>
<rect x="335" y="53" width="1" height="1"/>
<rect x="24" y="54" width="1" height="1"/>
<rect x="335" y="54" width="1" height="1"/>
<rect x="24" y="55" width="1" height="1"/>
<rect x="176" y="55" width="1" height="1"/>
<rect x="191" y="55" width="1" height="1"/>
<rect x="199" y="55" width="1" height="1"/>
<rect x="335" y="55" width="1" height="1"/>
<rect x="24" y="56" width="1" height="1"/>
<rect x="152" y="56" width="6" height="1"/>
<rect x="176" y="56" width="1" height="1"/>
<rect x="186" y="56" width="1" height="1"/>
<rect x="194" y="56" width="1" height="1"/>
<rect x="199" y="56" width="1" height="1"/>
<rect x="307" y="56" width="4" height="1"/>
<rect x="314" y="56" width="3" height="1"/>
<rect x="320" y="56" width="3" height="1"/>
<rect x="326" y="56" width="1" height="1"/>
<rect x="335" y="56" width="1" height="1"/>
<rect x="24" y="57" width="1" height="1"/>
<rect x="152" y="57" width="1" height="1"/>
<rect x="157" y="57" width="1" height="1"/>
<rect x="176" y="57" width="1" height="1"/>
<rect x="186" y="57" width="1" height="1"/>
<rect x="194" y="57" width="1" height="1"/>
<rect x="199" y="57" width="1" height="1"/>
<rect x="306" y="57" width="1" height="1"/>
<rect x="310" y="57" width="1" height="1"/>
<rect x="313" y="57" width="1" height="1"/>
<rect x="317" y="57" width="1" height="1"/>
<rect x="320" y="57" width="1" height="1"/>
<rect x="322" y="57" width="1" height="1"/>
<rect x="326" y="57" width="1" height="1"/>
<rect x="335" y="57" width="1" height="1"/>
<rect x="24" y="58" width="1" height="1"/>
<rect x="152" y="58" width="1" height="1"/>
<rect x="157" y="58" width="1" height="1"/>
<rect x="161" y="58" width="4" height="1"/>
<rect x="169" y="58" width="4" height="1"/>
<rect x="176" y="58" width="1" height="1"/>
<rect x="180" y="58" width="2" height="1"/>
<rect x="185" y="58" width="4" height="1"/>
<rect x="191" y="58" width="1" height="1"/>
<rect x="193" y="58" width="4" height="1"/>
<rect x="199" y="58" width="1" height="1"/>
<rect x="203" y="58" width="3" height="1"/>
<rect x="306" y="58" width="1" height="1"/>
<rect x="310" y="58" width="1" height="1"/>
<rect x="317" y="58" width="1" height="1"/>
<rect x="320" y="58" width="1" height="1"/>
<rect x="322" y="58" width="1" height="1"/>
<rect x="325" y="58" width="1" height="1"/>
<rect x="335" y="58" width="1" height="1"/>
<rect x="24" y="59" width="1" height="1"/>
<rect x="152" y="59" width="1" height="1"/>
<rect x="157" y="59" width="1" height="1"/>
<rect x="160" y="59" width="1" height="1"/>
<rect x="164" y="59" width="2" height="1"/>
<rect x="168" y="59" width="1" height="1"/>
<rect x="172" y="59" width="2" height="1"/>
<rect x="176" y="59" width="1" height="1"/>
<rect x="179" y="59" width="1" height="1"/>
<rect x="186" y="59" width="1" height="1"/>
<rect x="191" y="59" width="1" height="1"/>
<rect x="194" y="59" width="1" height="1"/>
<rect x="199" y="59" width="1" height="1"/>
<rect x="202" y="59" width="1" height="1"/>
<rect x="206" y="59" width="1" height="1"/>
<rect x="306" y="59" width="2" height="1"/>
<rect x="310" y="59" width="1" height="1"/>
<rect x="317" y="59" width="1" height="1"/>
<rect x="320" y="59" width="1" height="1"/>
<rect x="322" y="59" width="1" height="1"/>
<rect x="324" y="59" width="1" height="1"/>
<rect x="326" y="59" width="2" height="1"/>
<rect x="335" y="59" width="1" height="1"/>
<rect x="24" y="60" width="1" height="1"/>
<rect x="152" y="60" width="5" height="1"/>
<rect x="160" y="60" width="1" height="1"/>
<rect x="165" y="60" width="1" height="1"/>
<rect x="168" y="60" width="1" height="1"/>
<rect x="173" y="60" width="1" height="1"/>
<rect x="176" y="60" width="1" height="1"/>
<rect x="178" y="60" width="1" height="1"/>
<rect x="186" y="60" width="1" height="1"/>
<rect x="191" y="60" width="1" height="1"/>
<rect x="194" y="60" width="1" height="1"/>
<rect x="199" y="60" width="1" height="1"/>
<rect x="202" y="60" width="1" height="1"/>
<rect x="206" y="60" width="2" height="1"/>
<rect x="307" y="60" width="3" height="1"/>
<rect x="316" y="60" width="2" height="1"/>
<rect x="320" y="60" width="1" height="1"/>
<rect x="322" y="60" width="1" height="1"/>
<rect x="324" y="60" width="2" height="1"/>
<rect x="328" y="60" width="1" height="1"/>
<rect x="335" y="60" width="1" height="1"/>
<rect x="24" y="61" width="1" height="1"/>
<rect x="152" y="61" width="1" height="1"/>
<rect x="157" y="61" width="2" height="1"/>
<rect x="160" y="61" width="1" height="1"/>
<rect x="165" y="61" width="1" height="1"/>
<rect x="168" y="61" width="1" height="1"/>
<rect x="173" y="61" width="1" height="1"/>
<rect x="176" y="61" width="3" height="1"/>
<rect x="186" y="61" width="1" height="1"/>
<rect x="191" y="61" width="1" height="1"/>
<rect x="194" y="61" width="1" height="1"/>
<rect x="199" y="61" width="1" height="1"/>
<rect x="202" y="61" width="6" height="1"/>
<rect x="306" y="61" width="1" height="1"/>
<rect x="310" y="61" width="1" height="1"/>
<rect x="315" y="61" width="2" height="1"/>
<rect x="320" y="61" width="4" height="1"/>
<rect x="325" y="61" width="1" height="1"/>
<rect x="328" y="61" width="1" height="1"/>
<rect x="335" y="61" width="1" height="1"/>
<rect x="24" y="62" width="1" height="1"/>
<rect x="152" y="62" width="1" height="1"/>
<rect x="157" y="62" width="2" height="1"/>
<rect x="160" y="62" width="1" height="1"/>
<rect x="165" y="62" width="1" height="1"/>
<rect x="168" y="62" width="1" height="1"/>
<rect x="173" y="62" width="1" height="1"/>
<rect x="176" y="62" width="1" height="1"/>
<rect x="179" y="62" width="1" height="1"/>
<rect x="186" y="62" width="1" height="1"/>
<rect x="191" y="62" width="1" height="1"/>
<rect x="194" y="62" width="1" height="1"/>
<rect x="199" y="62" width="1" height="1"/>
<rect x="202" y="62" width="1" height="1"/>
<rect x="306" y="62" width="1" height="1"/>
<rect x="311" y="62" width="1" height="1"/>
<rect x="314" y="62" width="2" height="1"/>
<rect x="323" y="62" width="1" height="1"/>
<rect x="325" y="62" width="1" height="1"/>
<rect x="328" y="62" width="1" height="1"/>
<rect x="335" y="62" width="1" height="1"/>
<rect x="24" y="63" width="1" height="1"/>
<rect x="152" y="63" width="1" height="1"/>
<rect x="157" y="63" width="2" height="1"/>
<rect x="160" y="63" width="1" height="1"/>
<rect x="164" y="63" width="2" height="1"/>
<rect x="168" y="63" width="1" height="1"/>
<rect x="172" y="63" width="2" height="1"/>
<rect x="176" y="63" width="1" height="1"/>
<rect x="179" y="63" width="2" height="1"/>
<rect x="186" y="63" width="1" height="1"/>
<rect x="191" y="63" width="1" height="1"/>
<rect x="194" y="63" width="1" height="1"/>
<rect x="199" y="63" width="1" height="1"/>
<rect x="202" y="63" width="1" height="1"/>
<rect x="306" y="63" width="1" height="1"/>
<rect x="310" y="63" width="2" height="1"/>
<rect x="313" y="63" width="2" height="1"/>
<rect x="322" y="63" width="1" height="1"/>
<rect x="325" y="63" width="1" height="1"/>
<rect x="328" y="63" width="1" height="1"/>
<rect x="335" y="63" width="1" height="1"/>
<rect x="24" y="64" width="1" height="1"/>
<rect x="152" y="64" width="6" height="1"/>
<rect x="161" y="64" width="4" height="1"/>
<rect x="169" y="64" width="4" height="1"/>
<rect x="176" y="64" width="1" height="1"/>
<rect x="180" y="64" width="2" height="1"/>
<rect x="187" y="64" width="2" height="1"/>
<rect x="191" y="64" width="1" height="1"/>
<rect x="195" y="64" width="2" height="1"/>
<rect x="199" y="64" width="1" height="1"/>
<rect x="203" y="64" width="4" height="1"/>
<rect x="307" y="64" width="4" height="1"/>
<rect x="313" y="64" width="6" height="1"/>
<rect x="321" y="64" width="2" height="1"/>
<rect x="326" y="64" width="2" height="1"/>
<rect x="335" y="64" width="1" height="1"/>
<rect x="24" y="65" width="1" height="1"/>
<rect x="335" y="65" width="1" height="1"/>
<rect x="24" y="66" width="1" height="1"/>
<rect x="335" y="66" width="1" height="1"/>
<rect x="24" y="67" width="1" height="1"/>
<rect x="335" y="67" width="1" height="1"/>
<rect x="24" y="68" width="1" height="1"/>
<rect x="335" y="68" width="1" height="1"/>
<rect x="24" y="69" width="1" height="1"/>
<rect x="335" y="69" width="1" height="1"/>
<rect x="24" y="70" width="1" height="1"/>
<rect x="335" y="70" width="1" height="1"/>
<rect x="24" y="71" width="1" height="1"/>
<rect x="335" y="71" width="1" height="1"/>
<rect x="24" y="72" width="1" height="1"/>
<rect x="335" y="72" width="1" height="1"/>
<rect x="24" y="73" width="1" height="1"/>
<rect x="335" y="73" width="1" height="1"/>
<rect x="24" y="74" width="1" height="1"/>
<rect x="335" y="74" width="1" height="1"/>
<rect x="24" y="75" width="1" height="1"/>
<rect x="335" y="75" width="1" height="1"/>
<rect x="24" y="76" width="1" height="1"/>
<rect x="335" y="76" width="1" height="1"/>
<rect x="24" y="77" width="1" height="1"/>
<rect x="335" y="77" width="1" height="1"/>
<rect x="24" y="78" width="1" height="1"/>
<rect x="335" y="78" width="1" height="1"/>
<rect x="24" y="79" width="1" height="1"/>
<rect x="335" y="79" width="1" height="1"/>
<rect x="24" y="80" width="1" height="1"/>
<rect x="335" y="80" width="1" height="1"/>
<rect x="24" y="81" width="1" height="1"/>
<rect x="335" y="81" width="1" height="1"/>
<rect x="24" y="82" width="1" height="1"/>
<rect x="335" y="82" width="1" height="1"/>
<rect x="24" y="83" width="1" height="1"/>
<rect x="335" y="83" width="1" height="1"/>
<rect x="24" y="84" width="1" height="1"/>
<rect x="335" y="84" width="1" height="1"/>
<rect x="24" y="85" width="1" height="1"/>
<rect x="335" y="85" width="1" height="1"/>
<rect x="24" y="86" width="1" height="1"/>
<rect x="335" y="86" width="1" height="1"/>
<rect x="24" y="87" width="1" height="1"/>
<rect x="335" y="87" width="1" height="1"/>
<rect x="24" y="88" width="1" height="1"/>
<rect x="335" y="88" width="1" height="1"/>
<rect x="24" y="89" width="1" height="1"/>
<rect x="335" y="89" width="1" height="1"/>
<rect x="24" y="90" width="1" height="1"/>
<rect x="335" y="90" width="1" height="1"/>
<rect x="24" y="91" width="1" height="1"/>
<rect x="335" y="91" width="1" height="1"/>
<rect x="24" y="92" width="1" height="1"/>
<rect x="335" y="92" width="1" height="1"/>
<rect x="24" y="93" width="1" height="1"/>
<rect x="335" y="93" width="1" height="1"/>
<rect x="24" y="94" width="1" height="1"/>
<rect x="335" y="94" width="1" height="1"/>
<rect x="24" y="95" width="1" height="1"/>
<rect x="335" y="95" width="1" height="1"/>
<rect x="24" y="96" width="1" height="1"/>
<rect x="335" y="96" width="1" height="1"/>
<rect x="24" y="97" width="1" height="1"/>
<rect x="335" y="97" width="1" height="1"/>
<rect x="24" y="98" width="1" height="1"/>
<rect x="335" y="98" width="1" height="1"/>
<rect x="24" y="99" width="1" height="1"/>
<rect x="335" y="99" width="1" height="1"/>
<rect x="24" y="100" width="1" height="1"/>
<rect x="335" y="100" width="1" height="1"/>
<rect x="24" y="101" width="1" height="1"/>
<rect x="335" y="101" width="1" height="1"/>
<rect x="24" y="102" width="1" height="1"/>
<rect x="335" y="102" width="1" height="1"/>
<rect x="24" y="103" width="1" height="1"/>
<rect x="335" y="103" width="1" height="1"/>
<rect x="24" y="104" width="1" height="1"/>
<rect x="335" y="104" width="1" height="1"/>
<rect x="24" y="105" width="1" height="1"/>
<rect x="335" y="105" width="1" height="1"/>
<rect x="24" y="106" width="1" height="1"/>
<rect x="335" y="106" width="1" height="1"/>
<rect x="24" y="107" width="1" height="1"/>
<rect x="335" y="107" width="1" height="1"/>
<rect x="24" y="108" width="1" height="1"/>
<rect x="335" y="108" width="1" height="1"/>
<rect x="24" y="109" width="1" height="1"/>
<rect x="335" y="109" width="1" height="1"/>
<rect x="24" y="110" width="1" height="1"/>
<rect x="335" y="110" width="1" height="1"/>
<rect x="24" y="111" width="1" height="1"/>
<rect x="335" y="111" width="1" height="1"/>
<rect x="24" y="112" width="1" height="1"/>
<rect x="335" y="112" width="1" height="1"/>
<rect x="24" y="113" width="1" height="1"/>
<rect x="335" y="113" width="1" height="1"/>
<rect x="24" y="114" width="1" height="1"/>
<rect x="335" y="114" width="1" height="1"/>
<rect x="24" y="115" width="1" height="1"/>
<rect x="335" y="115" width="1" height="1"/>
<rect x="24" y="116" width="1" height="1"/>
<rect x="335" y="116" width="1" height="1"/>
<rect x="24" y="117" width="1" height="1"/>
<rect x="335" y="117" width="1" height="1"/>
<rect x="24" y="118" width="1" height="1"/>
<rect x="335" y="118" width="1" height="1"/>
<rect x="24" y="119" width="1" height="1"/>
<rect x="335" y="119" width="1" height="1"/>
<rect x="24" y="120" width="1" height="1"/>
<rect x="335" y="120" width="1" height="1"/>
<rect x="24" y="121" width="1" height="1"/>
<rect x="335" y="121" width="1" height="1"/>
<rect x="24" y="122" width="1" height="1"/>
<rect x="335" y="122" width="1" height="1"/>
<rect x="24" y="123" width="1" height="1"/>
<rect x="335" y="123" width="1" height="1"/>
<rect x="24" y="124" width="1" height="1"/>
<rect x="335" y="124" width="1" height="1"/>
<rect x="24" y="125" width="1" height="1"/>
<rect x="335" y="125" width="1" height="1"/>
<rect x="24" y="126" width="1" height="1"/>
<rect x="335" y="126" width="1" height="1"/>
<rect x="24" y="127" width="1" height="1"/>
<rect x="335" y="127" width="1" height="1"/>
<rect x="24" y="128" width="1" height="1"/>
<rect x="335" y="128" width="1" height="1"/>
<rect x="24" y="129" width="1" height="1"/>
<rect x="335" y="129" width="1" height="1"/>
<rect x="24" y="130" width="1" height="1"/>
<rect x="335" y="130" width="1" height="1"/>
<rect x="24" y="131" width="1" height="1"/>
<rect x="335" y="131" width="1" height="1"/>
<rect x="24" y="132" width="1" height="1"/>
<rect x="335" y="132" width="1" height="1"/>
<rect x="24" y="133" width="1" height="1"/>
<rect x="335" y="133" width="1" height="1"/>
<rect x="24" y="134" width="1" height="1"/>
<rect x="335" y="134" width="1" height="1"/>
<rect x="24" y="135" width="1" height="1"/>
<rect x="335" y="135" width="1" height="1"/>
<rect x="24" y="136" width="1" height="1"/>
<rect x="335" y="136" width="1" height="1"/>
<rect x="24" y="137" width="1" height="1"/>
<rect x="335" y="137" width="1" height="1"/>
<rect x="24" y="138" width="1" height="1"/>
<rect x="309" y="138" width="2" height="1"/>
<rect x="314" y="138" width="3" height="1"/>
<rect x="320" y="138" width="3" height="1"/>
<rect x="326" y="138" width="1" height="1"/>
<rect x="335" y="138" width="1" height="1"/>
<rect x="24" y="139" width="1" height="1"/>
<rect x="309" y="139" width="2" height="1"/>
<rect x="313" y="139" width="1" height="1"/>
<rect x="317" y="139" width="1" height="1"/>
<rect x="320" y="139" width="1" height="1"/>
<rect x="322" y="139" width="1" height="1"/>
<rect x="326" y="139" width="1" height="1"/>
<rect x="335" y="139" width="1" height="1"/>
<rect x="24" y="140" width="1" height="1"/>
<rect x="308" y="140" width="1" height="1"/>
<rect x="310" y="140" width="1" height="1"/>
<rect x="317" y="140" width="1" height="1"/>
<rect x="320" y="140" width="1" height="1"/>
<rect x="322" y="140" width="1" height="1"/>
<rect x="325" y="140" width="1" height="1"/>
<rect x="335" y="140" width="1" height="1"/>
<rect x="24" y="141" width="1" height="1"/>
<rect x="307" y="141" width="1" height="1"/>
<rect x="310" y="141" width="1" height="1"/>
<rect x="317" y="141" width="1" height="1"/>
<rect x="320" y="141" width="1" height="1"/>
<rect x="322" y="141" width="1" height="1"/>
<rect x="324" y="141" width="1" height="1"/>
<rect x="326" y="141" width="2" height="1"/>
<rect x="335" y="141" width="1" height="1"/>
<rect x="24" y="142" width="1" height="1"/>
<rect x="306" y="142" width="2" height="1"/>
<rect x="310" y="142" width="1" height="1"/>
<rect x="316" y="142" width="2" height="1"/>
<rect x="320" y="142" width="1" height="1"/>
<rect x="322" y="142" width="1" height="1"/>
<rect x="324" y="142" width="2" height="1"/>
<rect x="328" y="142" width="1" height="1"/>
<rect x="335" y="142" width="1" height="1"/>
<rect x="24" y="143" width="1" height="1"/>
<rect x="306" y="143" width="1" height="1"/>
<rect x="310" y="143" width="1" height="1"/>
<rect x="315" y="143" width="2" height="1"/>
<rect x="320" y="143" width="4" height="1"/>
<rect x="325" y="143" width="1" height="1"/>
<rect x="328" y="143" width="1" height="1"/>
<rect x="335" y="143" width="1" height="1"/>
<rect x="24" y="144" width="1" height="1"/>
<rect x="305" y="144" width="7" height="1"/>
<rect x="314" y="144" width="2" height="1"/>
<rect x="323" y="144" width="1" height="1"/>
<rect x="325" y="144" width="1" height="1"/>
<rect x="328" y="144" width="1" height="1"/>
<rect x="335" y="144" width="1" height="1"/>
<rect x="24" y="145" width="1" height="1"/>
<rect x="310" y="145" width="1" height="1"/>
<rect x="313" y="145" width="2" height="1"/>
<rect x="322" y="145" width="1" height="1"/>
<rect x="325" y="145" width="1" height="1"/>
<rect x="328" y="145" width="1" height="1"/>
<rect x="335" y="145" width="1" height="1"/>
<rect x="24" y="146" width="1" height="1"/>
<rect x="310" y="146" width="1" height="1"/>
<rect x="313" y="146" width="6" height="1"/>
<rect x="321" y="146" width="2" height="1"/>
<rect x="326" y="146" width="2" height="1"/>
<rect x="335" y="146" width="1" height="1"/>
<rect x="24" y="147" width="1" height="1"/>
<rect x="335" y="147" width="1" height="1"/>
<rect x="24" y="148" width="1" height="1"/>
<rect x="335" y="148" width="1" height="1"/>
<rect x="24" y="149" width="1" height="1"/>
<rect x="335" y="149" width="1" height="1"/>
<rect x="24" y="150" width="1" height="1"/>
<rect x="335" y="150" width="1" height="1"/>
<rect x="24" y="151" width="1" height="1"/>
<rect x="335" y="151" width="1" height="1"/>
<rect x="24" y="152" width="1" height="1"/>
<rect x="335" y="152" width="1" height="1"/>
<rect x="24" y="153" width="1" height="1"/>
<rect x="335" y="153" width="1" height="1"/>
<rect x="24" y="154" width="131" height="1"/>
<rect x="156" y="154" width="1" height="1"/>
<rect x="158" y="154" width="1" height="1"/>
<rect x="160" y="154" width="1" height="1"/>
<rect x="162" y="154" width="1" height="1"/>
<rect x="164" y="154" width="1" height="1"/>
<rect x="166" y="154" width="1" height="1"/>
<rect x="168" y="154" width="1" height="1"/>
<rect x="170" y="154" width="1" height="1"/>
<rect x="172" y="154" width="1" height="1"/>
<rect x="174" y="154" width="1" height="1"/>
<rect x="176" y="154" width="1" height="1"/>
<rect x="178" y="154" width="1" height="1"/>
<rect x="180" y="154" width="1" height="1"/>
<rect x="182" y="154" width="1" height="1"/>
<rect x="184" y="154" width="1" height="1"/>
<rect x="186" y="154" width="1" height="1"/>
<rect x="188" y="154" width="1" height="1"/>
<rect x="190" y="154" width="1" height="1"/>
<rect x="192" y="154" width="1" height="1"/>
<rect x="194" y="154" width="1" height="1"/>
<rect x="196" y="154" width="1" height="1"/>
<rect x="198" y="154" width="1" height="1"/>
<rect x="200" y="154" width="1" height="1"/>
<rect x="202" y="154" width="1" height="1"/>
<rect x="204" y="154" width="1" height="1"/>
<rect x="206" y="154" width="1" height="1"/>
<rect x="208" y="154" width="1" height="1"/>
<rect x="210" y="154" width="1" height="1"/>
<rect x="212" y="154" width="1" height="1"/>
<rect x="214" y="154" width="1" height="1"/>
<rect x="216" y="154" width="1" height="1"/>
<rect x="218" y="154" width="1" height="1"/>
<rect x="220" y="154" width="1" height="1"/>
<rect x="222" y="154" width="1" height="1"/>
<rect x="224" y="154" width="1" height="1"/>
<rect x="226" y="154" width="1" height="1"/>
<rect x="228" y="154" width="1" height="1"/>
<rect x="230" y="154" width="1" height="1"/>
<rect x="232" y="154" width="1" height="1"/>
<rect x="234" y="154" width="1" height="1"/>
<rect x="236" y="154" width="1" height="1"/>
<rect x="238" y="154" width="1" height="1"/>
<rect x="240" y="154" width="1" height="1"/>
<rect x="242" y="154" width="1" height="1"/>
<rect x="244" y="154" width="1" height="1"/>
<rect x="246" y="154" width="1" height="1"/>
<rect x="248" y="154" width="1" height="1"/>
<rect x="250" y="154" width="1" height="1"/>
<rect x="252" y="154" width="1" height="1"/>
<rect x="254" y="154" width="1" height="1"/>
<rect x="256" y="154" width="1" height="1"/>
<rect x="258" y="154" width="1" height="1"/>
<rect x="260" y="154" width="1" height="1"/>
<rect x="262" y="154" width="1" height="1"/>
<rect x="264" y="154" width="1" height="1"/>
<rect x="266" y="154" width="1" height="1"/>
<rect x="268" y="154" width="1" height="1"/>
<rect x="270" y="154" width="1" height="1"/>
<rect x="272" y="154" width="1" height="1"/>
<rect x="274" y="154" width="1" height="1"/>
<rect x="276" y="154" width="1" height="1"/>
<rect x="278" y="154" width="1" height="1"/>
<rect x="280" y="154" width="1" height="1"/>
<rect x="282" y="154" width="1" height="1"/>
<rect x="284" y="154" width="1" height="1"/>
<rect x="286" y="154" width="1" height="1"/>
<rect x="288" y="154" width="1" height="1"/>
<rect x="290" y="154" width="1" height="1"/>
<rect x="292" y="154" width="1" height="1"/>
<rect x="294" y="154" width="1" height="1"/>
<rect x="296" y="154" width="1" height="1"/>
<rect x="298" y="154" width="1" height="1"/>
<rect x="300" y="154" width="1" height="1"/>
<rect x="302" y="154" width="1" height="1"/>
<rect x="304" y="154" width="1" height="1"/>
<rect x="306" y="154" width="1" height="1"/>
<rect x="308" y="154" width="1" height="1"/>
<rect x="310" y="154" width="1" height="1"/>
<rect x="312" y="154" width="1" height="1"/>
<rect x="314" y="154" width="1" height="1"/>
<rect x="316" y="154" width="1" height="1"/>
<rect x="318" y="154" width="1" height="1"/>
<rect x="320" y="154" width="1" height="1"/>
<rect x="322" y="154" width="1" height="1"/>
<rect x="324" y="154" width="1" height="1"/>
<rect x="326" y="154" width="1" height="1"/>
<rect x="328" y="154" width="1" height="1"/>
<rect x="330" y="154" width="1" height="1"/>
<rect x="332" y="154" width="1" height="1"/>
<rect x="334" y="154" width="2" height="1"/>
<rect x="24" y="155" width="131" height="1"/>
<rect x="335" y="155" width="1" height="1"/>
<rect x="24" y="156" width="131" height="1"/>
<rect x="156" y="156" width="1" height="1"/>
<rect x="158" y="156" width="1" height="1"/>
<rect x="160" y="156" width="1" height="1"/>
<rect x="162" y="156" width="1" height="1"/>
<rect x="164" y="156" width="1" height="1"/>
<rect x="166" y="156" width="1" height="1"/>
<rect x="168" y="156" width="1" height="1"/>
<rect x="170" y="156" width="1" height="1"/>
<rect x="172" y="156" width="1" height="1"/>
<rect x="174" y="156" width="1" height="1"/>
<rect x="176" y="156" width="1" height="1"/>
<rect x="178" y="156" width="1" height="1"/>
<rect x="180" y="156" width="1" height="1"/>
<rect x="182" y="156" width="1" height="1"/>
<rect x="184" y="156" width="1" height="1"/>
<rect x="186" y="156" width="1" height="1"/>
<rect x="188" y="156" width="1" height="1"/>
<rect x="190" y="156" width="1" height="1"/>
<rect x="192" y="156" width="1" height="1"/>
<rect x="194" y="156" width="1" height="1"/>
<rect x="196" y="156" width="1" height="1"/>
<rect x="198" y="156" width="1" height="1"/>
<rect x="200" y="156" width="1" height="1"/>
<rect x="202" y="156" width="1" height="1"/>
<rect x="204" y="156" width="1" height="1"/>
<rect x="206" y="156" width="1" height="1"/>
<rect x="208" y="156" width="1" height="1"/>
<rect x="210" y="156" width="1" height="1"/>
<rect x="212" y="156" width="1" height="1"/>
<rect x="214" y="156" width="1" height="1"/>
<rect x="216" y="156" width="1" height="1"/>
<rect x="218" y="156" width="1" height="1"/>
<rect x="220" y="156" width="1" height="1"/>
<rect x="222" y="156" width="1" height="1"/>
<rect x="224" y="156" width="1" height="1"/>
<rect x="226" y="156" width="1" height="1"/>
<rect x="228" y="156" width="1" height="1"/>
<rect x="230" y="156" width="1" height="1"/>
<rect x="232" y="156" width="1" height="1"/>
<rect x="234" y="156" width="1" height="1"/>
<rect x="236" y="156" width="1" height="1"/>
<rect x="238" y="156" width="1" height="1"/>
<rect x="240" y="156" width="1" height="1"/>
<rect x="242" y="156" width="1" height="1"/>
<rect x="244" y="156" width="1" height="1"/>
<rect x="246" y="156" width="1" height="1"/>
<rect x="248" y="156" width="1" height="1"/>
<rect x="250" y="156" width="1" height="1"/>
<rect x="252" y="156" width="1" height="1"/>
<rect x="254" y="156" width="1" height="1"/>
<rect x="256" y="156" width="1" height="1"/>
<rect x="258" y="156" width="1" height="1"/>
<rect x="260" y="156" width="1" height="1"/>
<rect x="262" y="156" width="1" height="1"/>
<rect x="264" y="156" width="1" height="1"/>
<rect x="266" y="156" width="1" height="1"/>
<rect x="268" y="156" width="1" height="1"/>
<rect x="270" y="156" width="1" height="1"/>
<rect x="272" y="156" width="1" height="1"/>
<rect x="274" y="156" width="1" height="1"/>
<rect x="276" y="156" width="1" height="1"/>
<rect x="278" y="156" width="1" height="1"/>
<rect x="280" y="156" width="1" height="1"/>
<rect x="282" y="156" width="1" height="1"/>
<rect x="284" y="156" width="1" height="1"/>
<rect x="286" y="156" width="1" height="1"/>
<rect x="288" y="156" width="1" height="1"/>
<rect x="290" y="156" width="1" height="1"/>
<rect x="292" y="156" width="1" height="1"/>
<rect x="294" y="156" width="1" height="1"/>
<rect x="296" y="156" width="1" height="1"/>
<rect x="298" y="156" width="1" height="1"/>
<rect x="300" y="156" width="1" height="1"/>
<rect x="302" y="156" width="1" height="1"/>
<rect x="304" y="156" width="1" height="1"/>
<rect x="306" y="156" width="1" height="1"/>
<rect x="308" y="156" width="1" height="1"/>
<rect x="310" y="156" width="1" height="1"/>
<rect x="312" y="156" width="1" height="1"/>
<rect x="314" y="156" width="1" height="1"/>
<rect x="316" y="156" width="1" height="1"/>
<rect x="318" y="156" width="1" height="1"/>
<rect x="320" y="156" width="1" height="1"/>
<rect x="322" y="156" width="1" height="1"/>
<rect x="324" y="156" width="1" height="1"/>
<rect x="326" y="156" width="1" height="1"/>
<rect x="328" y="156" width="1" height="1"/>
<rect x="330" y="156" width="1" height="1"/>
<rect x="332" y="156" width="1" height="1"/>
<rect x="334" y="156" width="2" height="1"/>
<rect x="24" y="157" width="312" height="1"/>
</g>
</svg>
