<svg xmlns="http://www.w3.org/2000/svg" viewBox="0 0 360 180" width="360" height="180" shape-rendering="crispEdges">
<rect width="100%" height="100%" fill="#fff"/>
<g fill="#111">
<rect x="40" y="16" width="1" height="1"/>
<rect x="30" y="17" width="1" height="1"/>
<rect x="35" y="17" width="1" height="1"/>
<rect x="59" y="17" width="5" height="1"/>
<rect x="30" y="18" width="1" height="1"/>
<rect x="35" y="18" width="1" height="1"/>
<rect x="59" y="18" width="1" height="1"/>
<rect x="64" y="18" width="1" height="1"/>
<rect x="17" y="19" width="5" height="1"/>
<rect x="24" y="19" width="3" height="1"/>
<rect x="29" y="19" width="4" height="1"/>
<rect x="34" y="19" width="4" height="1"/>
<rect x="40" y="19" width="1" height="1"/>
<rect x="43" y="19" width="1" height="1"/>
<rect x="45" y="19" width="3" height="1"/>
<rect x="52" y="19" width="3" height="1"/>
<rect x="56" y="19" width="1" height="1"/>
<rect x="59" y="19" width="1" height="1"/>
<rect x="64" y="19" width="1" height="1"/>
<rect x="68" y="19" width="4" height="1"/>
<rect x="74" y="19" width="1" height="1"/>
<rect x="78" y="19" width="2" height="1"/>
<rect x="83" y="19" width="1" height="1"/>
<rect x="17" y="20" width="1" height="1"/>
<rect x="23" y="20" width="1" height="1"/>
<rect x="27" y="20" width="1" height="1"/>
<rect x="30" y="20" width="1" height="1"/>
<rect x="35" y="20" width="1" height="1"/>
<rect x="40" y="20" width="1" height="1"/>
<rect x="43" y="20" width="2" height="1"/>
<rect x="48" y="20" width="1" height="1"/>
<rect x="51" y="20" width="1" height="1"/>
<rect x="55" y="20" width="2" height="1"/>
<rect x="59" y="20" width="1" height="1"/>
<rect x="64" y="20" width="1" height="1"/>
<rect x="67" y="20" width="1" height="1"/>
<rect x="71" y="20" width="2" height="1"/>
<rect x="75" y="20" width="1" height="1"/>
<rect x="78" y="20" width="2" height="1"/>
<rect x="83" y="20" width="1" height="1"/>
<rect x="17" y="21" width="1" height="1"/>
<rect x="23" y="21" width="1" height="1"/>
<rect x="27" y="21" width="2" height="1"/>
<rect x="30" y="21" width="1" height="1"/>
<rect x="35" y="21" width="1" height="1"/>
<rect x="40" y="21" width="1" height="1"/>
<rect x="43" y="21" width="1" height="1"/>
<rect x="48" y="21" width="1" height="1"/>
<rect x="51" y="21" width="1" height="1"/>
<rect x="56" y="21" width="1" height="1"/>
<rect x="59" y="21" width="5" height="1"/>
<rect x="67" y="21" width="1" height="1"/>
<rect x="72" y="21" width="1" height="1"/>
<rect x="75" y="21" width="1" height="1"/>
<rect x="78" y="21" width="3" height="1"/>
<rect x="82" y="21" width="1" height="1"/>
<rect x="18" y="22" width="3" height="1"/>
<rect x="23" y="22" width="6" height="1"/>
<rect x="30" y="22" width="1" height="1"/>
<rect x="35" y="22" width="1" height="1"/>
<rect x="40" y="22" width="1" height="1"/>
<rect x="43" y="22" width="1" height="1"/>
<rect x="48" y="22" width="1" height="1"/>
<rect x="51" y="22" width="1" height="1"/>
<rect x="56" y="22" width="1" height="1"/>
<rect x="59" y="22" width="1" height="1"/>
<rect x="63" y="22" width="1" height="1"/>
<rect x="67" y="22" width="1" height="1"/>
<rect x="72" y="22" width="1" height="1"/>
<rect x="75" y="22" width="1" height="1"/>
<rect x="77" y="22" width="1" height="1"/>
<rect x="80" y="22" width="1" height="1"/>
<rect x="82" y="22" width="1" height="1"/>
<rect x="20" y="23" width="2" height="1"/>
<rect x="23" y="23" width="1" height="1"/>
<rect x="30" y="23" width="1" height="1"/>
<rect x="35" y="23" width="1" height="1"/>
<rect x="40" y="23" width="1" height="1"/>
<rect x="43" y="23" width="1" height="1"/>
<rect x="48" y="23" width="1" height="1"/>
<rect x="51" y="23" width="1" height="1"/>
<rect x="56" y="23" width="1" height="1"/>
<rect x="59" y="23" width="1" height="1"/>
<rect x="63" y="23" width="1" height="1"/>
<rect x="67" y="23" width="1" height="1"/>
<rect x="72" y="23" width="1" height="1"/>
<rect x="75" y="23" width="1" height="1"/>
<rect x="77" y="23" width="1" height="1"/>
<rect x="80" y="23" width="1" height="1"/>
<rect x="82" y="23" width="1" height="1"/>
<rect x="20" y="24" width="2" height="1"/>
<rect x="23" y="24" width="1" height="1"/>
<rect x="30" y="24" width="1" height="1"/>
<rect x="35" y="24" width="1" height="1"/>
<rect x="40" y="24" width="1" height="1"/>
<rect x="43" y="24" width="1" height="1"/>
<rect x="48" y="24" width="1" height="1"/>
<rect x="51" y="24" width="1" height="1"/>
<rect x="55" y="24" width="2" height="1"/>
<rect x="59" y="24" width="1" height="1"/>
<rect x="64" y="24" width="1" height="1"/>
<rect x="67" y="24" width="1" height="1"/>
<rect x="71" y="24" width="2" height="1"/>
<rect x="76" y="24" width="2" height="1"/>
<rect x="80" y="24" width="1" height="1"/>
<rect x="82" y="24" width="1" height="1"/>
<rect x="17" y="25" width="4" height="1"/>
<rect x="24" y="25" width="4" height="1"/>
<rect x="31" y="25" width="2" height="1"/>
<rect x="36" y="25" width="2" height="1"/>
<rect x="40" y="25" width="1" height="1"/>
<rect x="43" y="25" width="1" height="1"/>
<rect x="48" y="25" width="1" height="1"/>
<rect x="52" y="25" width="3" height="1"/>
<rect x="56" y="25" width="1" height="1"/>
<rect x="59" y="25" width="1" height="1"/>
<rect x="64" y="25" width="2" height="1"/>
<rect x="68" y="25" width="4" height="1"/>
<rect x="76" y="25" width="2" height="1"/>
<rect x="81" y="25" width="1" height="1"/>
<rect x="56" y="26" width="1" height="1"/>
<rect x="55" y="27" width="2" height="1"/>
<rect x="51" y="28" width="5" height="1"/>
<rect x="16" y="30" width="328" height="1"/>
<rect x="45" y="70" width="1" height="1"/>
<rect x="59" y="70" width="1" height="1"/>
<rect x="32" y="71" width="2" height="1"/>
<rect x="37" y="71" width="2" height="1"/>
<rect x="43" y="71" width="1" height="1"/>
<rect x="52" y="71" width="5" height="1"/>
<rect x="33" y="72" width="1" height="1"/>
<rect x="37" y="72" width="2" height="1"/>
<rect x="42" y="72" width="2" height="1"/>
<rect x="52" y="72" width="1" height="1"/>
<rect x="33" y="73" width="1" height="1"/>
<rect x="37" y="73" width="2" height="1"/>
<rect x="42" y="73" width="1" height="1"/>
<rect x="45" y="73" width="1" height="1"/>
<rect x="52" y="73" width="1" height="1"/>
<rect x="59" y="73" width="1" height="1"/>
<rect x="33" y="74" width="1" height="1"/>
<rect x="36" y="74" width="1" height="1"/>
<rect x="39" y="74" width="1" height="1"/>
<rect x="42" y="74" width="1" height="1"/>
<rect x="45" y="74" width="1" height="1"/>
<rect x="52" y="74" width="1" height="1"/>
<rect x="59" y="74" width="1" height="1"/>
<rect x="33" y="75" width="2" height="1"/>
<rect x="36" y="75" width="1" height="1"/>
<rect x="39" y="75" width="1" height="1"/>
<rect x="42" y="75" width="1" height="1"/>
<rect x="45" y="75" width="1" height="1"/>
<rect x="52" y="75" width="5" height="1"/>
<rect x="59" y="75" width="1" height="1"/>
<rect x="34" y="76" width="1" height="1"/>
<rect x="36" y="76" width="1" height="1"/>
<rect x="39" y="76" width="1" height="1"/>
<rect x="41" y="76" width="1" height="1"/>
<rect x="45" y="76" width="1" height="1"/>
<rect x="48" y="76" width="3" height="1"/>
<rect x="52" y="76" width="1" height="1"/>
<rect x="59" y="76" width="1" height="1"/>
<rect x="34" y="77" width="3" height="1"/>
<rect x="39" y="77" width="3" height="1"/>
<rect x="45" y="77" width="1" height="1"/>
<rect x="52" y="77" width="1" height="1"/>
<rect x="59" y="77" width="1" height="1"/>
<rect x="34" y="78" width="2" height="1"/>
<rect x="40" y="78" width="2" height="1"/>
<rect x="45" y="78" width="1" height="1"/>
<rect x="52" y="78" width="1" height="1"/>
<rect x="59" y="78" width="1" height="1"/>
<rect x="34" y="79" width="2" height="1"/>
<rect x="40" y="79" width="2" height="1"/>
<rect x="45" y="79" width="1" height="1"/>
<rect x="52" y="79" width="1" height="1"/>
<rect x="59" y="79" width="1" height="1"/>
<rect x="317" y="87" width="3" height="1"/>
<rect x="317" y="88" width="4" height="1"/>
<rect x="297" y="89" width="4" height="1"/>
<rect x="317" y="89" width="5" height="1"/>
<rect x="296" y="90" width="1" height="1"/>
<rect x="301" y="90" width="2" height="1"/>
<rect x="318" y="90" width="5" height="1"/>
<rect x="295" y="91" width="1" height="1"/>
<rect x="302" y="91" width="1" height="1"/>
<rect x="305" y="91" width="1" height="1"/>
<rect x="307" y="91" width="3" height="1"/>
<rect x="319" y="91" width="5" height="1"/>
<rect x="295" y="92" width="1" height="1"/>
<rect x="302" y="92" width="1" height="1"/>
<rect x="305" y="92" width="2" height="1"/>
<rect x="310" y="92" width="1" height="1"/>
<rect x="320" y="92" width="5" height="1"/>
<rect x="295" y="93" width="1" height="1"/>
<rect x="302" y="93" width="1" height="1"/>
<rect x="305" y="93" width="1" height="1"/>
<rect x="310" y="93" width="1" height="1"/>
<rect x="321" y="93" width="4" height="1"/>
<rect x="295" y="94" width="1" height="1"/>
<rect x="302" y="94" width="1" height="1"/>
<rect x="305" y="94" width="1" height="1"/>
<rect x="310" y="94" width="1" height="1"/>
<rect x="320" y="94" width="5" height="1"/>
<rect x="295" y="95" width="1" height="1"/>
<rect x="302" y="95" width="1" height="1"/>
<rect x="305" y="95" width="1" height="1"/>
<rect x="310" y="95" width="1" height="1"/>
<rect x="319" y="95" width="5" height="1"/>
<rect x="296" y="96" width="1" height="1"/>
<rect x="301" y="96" width="1" height="1"/>
<rect x="305" y="96" width="1" height="1"/>
<rect x="310" y="96" width="1" height="1"/>
<rect x="318" y="96" width="5" height="1"/>
<rect x="95" y="97" width="1" height="1"/>
<rect x="297" y="97" width="4" height="1"/>
<rect x="305" y="97" width="1" height="1"/>
<rect x="310" y="97" width="1" height="1"/>
<rect x="317" y="97" width="5" height="1"/>
<rect x="35" y="98" width="5" height="1"/>
<rect x="78" y="98" width="1" height="1"/>
<rect x="95" y="98" width="1" height="1"/>
<rect x="317" y="98" width="4" height="1"/>
<rect x="34" y="99" width="1" height="1"/>
<rect x="78" y="99" width="1" height="1"/>
<rect x="95" y="99" width="1" height="1"/>
<rect x="317" y="99" width="3" height="1"/>
<rect x="33" y="100" width="1" height="1"/>
<rect x="42" y="100" width="4" height="1"/>
<rect x="49" y="100" width="1" height="1"/>
<rect x="51" y="100" width="3" height="1"/>
<rect x="57" y="100" width="1" height="1"/>
<rect x="59" y="100" width="3" height="1"/>
<rect x="66" y="100" width="3" height="1"/>
<rect x="73" y="100" width="8" height="1"/>
<rect x="84" y="100" width="3" height="1"/>
<rect x="91" y="100" width="3" height="1"/>
<rect x="95" y="100" width="1" height="1"/>
<rect x="33" y="101" width="1" height="1"/>
<rect x="41" y="101" width="1" height="1"/>
<rect x="45" y="101" width="2" height="1"/>
<rect x="49" y="101" width="2" height="1"/>
<rect x="54" y="101" width="1" height="1"/>
<rect x="57" y="101" width="2" height="1"/>
<rect x="62" y="101" width="1" height="1"/>
<rect x="65" y="101" width="1" height="1"/>
<rect x="69" y="101" width="1" height="1"/>
<rect x="72" y="101" width="1" height="1"/>
<rect x="78" y="101" width="1" height="1"/>
<rect x="83" y="101" width="1" height="1"/>
<rect x="87" y="101" width="1" height="1"/>
<rect x="90" y="101" width="1" height="1"/>
<rect x="94" y="101" width="2" height="1"/>
<rect x="33" y="102" width="1" height="1"/>
<rect x="41" y="102" width="1" height="1"/>
<rect x="46" y="102" width="1" height="1"/>
<rect x="49" y="102" width="1" height="1"/>
<rect x="54" y="102" width="1" height="1"/>
<rect x="57" y="102" width="1" height="1"/>
<rect x="62" y="102" width="1" height="1"/>
<rect x="65" y="102" width="1" height="1"/>
<rect x="69" y="102" width="2" height="1"/>
<rect x="72" y="102" width="1" height="1"/>
<rect x="78" y="102" width="1" height="1"/>
<rect x="83" y="102" width="1" height="1"/>
<rect x="87" y="102" width="2" height="1"/>
<rect x="90" y="102" width="1" height="1"/>
<rect x="95" y="102" width="1" height="1"/>
<rect x="33" y="103" width="1" height="1"/>
<rect x="41" y="103" width="1" height="1"/>
<rect x="46" y="103" width="1" height="1"/>
<rect x="49" y="103" width="1" height="1"/>
<rect x="54" y="103" width="1" height="1"/>
<rect x="57" y="103" width="1" height="1"/>
<rect x="62" y="103" width="1" height="1"/>
<rect x="65" y="103" width="6" height="1"/>
<rect x="72" y="103" width="1" height="1"/>
<rect x="78" y="103" width="1" height="1"/>
<rect x="83" y="103" width="6" height="1"/>
<rect x="90" y="103" width="1" height="1"/>
<rect x="95" y="103" width="1" height="1"/>
<rect x="33" y="104" width="1" height="1"/>
<rect x="41" y="104" width="1" height="1"/>
<rect x="46" y="104" width="1" height="1"/>
<rect x="49" y="104" width="1" height="1"/>
<rect x="54" y="104" width="1" height="1"/>
<rect x="57" y="104" width="1" height="1"/>
<rect x="62" y="104" width="1" height="1"/>
<rect x="65" y="104" width="1" height="1"/>
<rect x="72" y="104" width="1" height="1"/>
<rect x="78" y="104" width="1" height="1"/>
<rect x="83" y="104" width="1" height="1"/>
<rect x="90" y="104" width="1" height="1"/>
<rect x="95" y="104" width="1" height="1"/>
<rect x="34" y="105" width="1" height="1"/>
<rect x="41" y="105" width="1" height="1"/>
<rect x="45" y="105" width="2" height="1"/>
<rect x="49" y="105" width="1" height="1"/>
<rect x="54" y="105" width="1" height="1"/>
<rect x="57" y="105" width="1" height="1"/>
<rect x="62" y="105" width="1" height="1"/>
<rect x="65" y="105" width="1" height="1"/>
<rect x="72" y="105" width="1" height="1"/>
<rect x="78" y="105" width="1" height="1"/>
<rect x="83" y="105" width="1" height="1"/>
<rect x="90" y="105" width="1" height="1"/>
<rect x="94" y="105" width="2" height="1"/>
<rect x="35" y="106" width="4" height="1"/>
<rect x="42" y="106" width="4" height="1"/>
<rect x="49" y="106" width="1" height="1"/>
<rect x="54" y="106" width="1" height="1"/>
<rect x="57" y="106" width="1" height="1"/>
<rect x="62" y="106" width="1" height="1"/>
<rect x="66" y="106" width="4" height="1"/>
<rect x="73" y="106" width="4" height="1"/>
<rect x="79" y="106" width="2" height="1"/>
<rect x="84" y="106" width="4" height="1"/>
<rect x="91" y="106" width="3" height="1"/>
<rect x="95" y="106" width="1" height="1"/>
</g>
</svg>
