<svg xmlns="http://www.w3.org/2000/svg" viewBox="0 0 360 180" width="360" height="180" shape-rendering="crispEdges">
<rect width="100%" height="100%" fill="#fff"/>
<g fill="#111">
<rect x="30" y="0" width="1" height="1"/>
<rect x="30" y="1" width="1" height="1"/>
<rect x="30" y="2" width="1" height="1"/>
<rect x="30" y="3" width="1" height="1"/>
<rect x="30" y="4" width="1" height="1"/>
<rect x="30" y="5" width="1" height="1"/>
<rect x="30" y="6" width="1" height="1"/>
<rect x="30" y="7" width="1" height="1"/>
<rect x="30" y="8" width="1" height="1"/>
<rect x="30" y="9" width="1" height="1"/>
<rect x="30" y="10" width="1" height="1"/>
<rect x="30" y="11" width="1" height="1"/>
<rect x="30" y="12" width="1" height="1"/>
<rect x="30" y="13" width="1" height="1"/>
<rect x="30" y="14" width="1" height="1"/>
<rect x="30" y="15" width="1" height="1"/>
<rect x="30" y="16" width="1" height="1"/>
<rect x="30" y="17" width="1" height="1"/>
<rect x="30" y="18" width="1" height="1"/>
<rect x="30" y="19" width="1" height="1"/>
<rect x="30" y="20" width="1" height="1"/>
<rect x="30" y="21" width="1" height="1"/>
<rect x="30" y="22" width="1" height="1"/>
<rect x="30" y="23" width="1" height="1"/>
<rect x="30" y="24" width="1" height="1"/>
<rect x="30" y="25" width="1" height="1"/>
<rect x="30" y="26" width="1" height="1"/>
<rect x="107" y="26" width="18" height="1"/>
<rect x="30" y="27" width="1" height="1"/>
<rect x="107" y="27" width="18" height="1"/>
<rect x="30" y="28" width="1" height="1"/>
<rect x="114" y="28" width="3" height="1"/>
<rect x="121" y="28" width="2" height="1"/>
<rect x="30" y="29" width="1" height="1"/>
<rect x="113" y="29" width="2" height="1"/>
<rect x="123" y="29" width="1" height="1"/>
<rect x="30" y="30" width="1" height="1"/>
<rect x="112" y="30" width="2" height="1"/>
<rect x="123" y="30" width="2" height="1"/>
<rect x="30" y="31" width="1" height="1"/>
<rect x="112" y="31" width="2" height="1"/>
<rect x="123" y="31" width="2" height="1"/>
<rect x="30" y="32" width="1" height="1"/>
<rect x="112" y="32" width="2" height="1"/>
<rect x="123" y="32" width="2" height="1"/>
<rect x="30" y="33" width="1" height="1"/>
<rect x="112" y="33" width="2" height="1"/>
<rect x="123" y="33" width="2" height="1"/>
<rect x="30" y="34" width="1" height="1"/>
<rect x="112" y="34" width="3" height="1"/>
<rect x="122" y="34" width="3" height="1"/>
<rect x="23" y="35" width="1" height="1"/>
<rect x="30" y="35" width="1" height="1"/>
<rect x="113" y="35" width="11" height="1"/>
<rect x="23" y="36" width="4" height="1"/>
<rect x="30" y="36" width="1" height="1"/>
<rect x="114" y="36" width="9" height="1"/>
<rect x="23" y="37" width="8" height="1"/>
<rect x="116" y="37" width="5" height="1"/>
<rect x="27" y="38" width="7" height="1"/>
<rect x="30" y="39" width="6" height="1"/>
<rect x="30" y="40" width="1" height="1"/>
<rect x="33" y="40" width="3" height="1"/>
<rect x="29" y="41" width="7" height="1"/>
<rect x="114" y="41" width="5" height="1"/>
<rect x="123" y="41" width="1" height="1"/>
<rect x="26" y="42" width="7" height="1"/>
<rect x="113" y="42" width="6" height="1"/>
<rect x="123" y="42" width="2" height="1"/>
<rect x="23" y="43" width="6" height="1"/>
<rect x="30" y="43" width="1" height="1"/>
<rect x="112" y="43" width="3" height="1"/>
<rect x="117" y="43" width="2" height="1"/>
<rect x="123" y="43" width="2" height="1"/>
<rect x="23" y="44" width="3" height="1"/>
<rect x="30" y="44" width="1" height="1"/>
<rect x="112" y="44" width="2" height="1"/>
<rect x="117" y="44" width="2" height="1"/>
<rect x="123" y="44" width="2" height="1"/>
<rect x="23" y="45" width="6" height="1"/>
<rect x="30" y="45" width="1" height="1"/>
<rect x="112" y="45" width="2" height="1"/>
<rect x="117" y="45" width="2" height="1"/>
<rect x="123" y="45" width="2" height="1"/>
<rect x="26" y="46" width="6" height="1"/>
<rect x="112" y="46" width="2" height="1"/>
<rect x="117" y="46" width="2" height="1"/>
<rect x="123" y="46" width="2" height="1"/>
<rect x="29" y="47" width="6" height="1"/>
<rect x="112" y="47" width="2" height="1"/>
<rect x="117" y="47" width="2" height="1"/>
<rect x="123" y="47" width="2" height="1"/>
<rect x="30" y="48" width="1" height="1"/>
<rect x="32" y="48" width="4" height="1"/>
<rect x="112" y="48" width="3" height="1"/>
<rect x="117" y="48" width="2" height="1"/>
<rect x="122" y="48" width="3" height="1"/>
<rect x="30" y="49" width="6" height="1"/>
<rect x="113" y="49" width="11" height="1"/>
<rect x="27" y="50" width="8" height="1"/>
<rect x="114" y="50" width="9" height="1"/>
<rect x="23" y="51" width="8" height="1"/>
<rect x="117" y="51" width="4" height="1"/>
<rect x="23" y="52" width="5" height="1"/>
<rect x="30" y="52" width="1" height="1"/>
<rect x="23" y="53" width="1" height="1"/>
<rect x="30" y="53" width="1" height="1"/>
<rect x="30" y="54" width="1" height="1"/>
<rect x="113" y="54" width="2" height="1"/>
<rect x="124" y="54" width="2" height="1"/>
<rect x="30" y="55" width="1" height="1"/>
<rect x="113" y="55" width="2" height="1"/>
<rect x="124" y="55" width="2" height="1"/>
<rect x="25" y="56" width="7" height="1"/>
<rect x="113" y="56" width="2" height="1"/>
<rect x="124" y="56" width="2" height="1"/>
<rect x="24" y="57" width="10" height="1"/>
<rect x="113" y="57" width="2" height="1"/>
<rect x="123" y="57" width="3" height="1"/>
<rect x="23" y="58" width="3" height="1"/>
<rect x="30" y="58" width="4" height="1"/>
<rect x="110" y="58" width="16" height="1"/>
<rect x="22" y="59" width="2" height="1"/>
<rect x="30" y="59" width="1" height="1"/>
<rect x="33" y="59" width="2" height="1"/>
<rect x="112" y="59" width="12" height="1"/>
<rect x="22" y="60" width="2" height="1"/>
<rect x="30" y="60" width="1" height="1"/>
<rect x="33" y="60" width="2" height="1"/>
<rect x="113" y="60" width="2" height="1"/>
<rect x="22" y="61" width="2" height="1"/>
<rect x="30" y="61" width="1" height="1"/>
<rect x="33" y="61" width="2" height="1"/>
<rect x="114" y="61" width="1" height="1"/>
<rect x="22" y="62" width="2" height="1"/>
<rect x="30" y="62" width="1" height="1"/>
<rect x="33" y="62" width="2" height="1"/>
<rect x="22" y="63" width="2" height="1"/>
<rect x="30" y="63" width="1" height="1"/>
<rect x="33" y="63" width="2" height="1"/>
<rect x="112" y="63" width="1" height="1"/>
<rect x="123" y="63" width="2" height="1"/>
<rect x="22" y="64" width="3" height="1"/>
<rect x="30" y="64" width="1" height="1"/>
<rect x="32" y="64" width="3" height="1"/>
<rect x="112" y="64" width="2" height="1"/>
<rect x="123" y="64" width="2" height="1"/>
<rect x="23" y="65" width="11" height="1"/>
<rect x="112" y="65" width="2" height="1"/>
<rect x="123" y="65" width="2" height="1"/>
<rect x="24" y="66" width="9" height="1"/>
<rect x="112" y="66" width="2" height="1"/>
<rect x="123" y="66" width="2" height="1"/>
<rect x="26" y="67" width="5" height="1"/>
<rect x="112" y="67" width="2" height="1"/>
<rect x="123" y="67" width="2" height="1"/>
<rect x="30" y="68" width="1" height="1"/>
<rect x="112" y="68" width="2" height="1"/>
<rect x="123" y="68" width="2" height="1"/>
<rect x="30" y="69" width="1" height="1"/>
<rect x="34" y="69" width="1" height="1"/>
<rect x="112" y="69" width="3" height="1"/>
<rect x="122" y="69" width="3" height="1"/>
<rect x="30" y="70" width="1" height="1"/>
<rect x="33" y="70" width="2" height="1"/>
<rect x="113" y="70" width="11" height="1"/>
<rect x="20" y="71" width="5" height="1"/>
<rect x="30" y="71" width="1" height="1"/>
<rect x="32" y="71" width="3" height="1"/>
<rect x="114" y="71" width="9" height="1"/>
<rect x="19" y="72" width="7" height="1"/>
<rect x="30" y="72" width="4" height="1"/>
<rect x="116" y="72" width="5" height="1"/>
<rect x="18" y="73" width="3" height="1"/>
<rect x="25" y="73" width="2" height="1"/>
<rect x="28" y="73" width="4" height="1"/>
<rect x="18" y="74" width="2" height="1"/>
<rect x="26" y="74" width="5" height="1"/>
<rect x="18" y="75" width="2" height="1"/>
<rect x="26" y="75" width="3" height="1"/>
<rect x="30" y="75" width="1" height="1"/>
<rect x="18" y="76" width="2" height="1"/>
<rect x="26" y="76" width="2" height="1"/>
<rect x="30" y="76" width="1" height="1"/>
<rect x="114" y="76" width="5" height="1"/>
<rect x="123" y="76" width="1" height="1"/>
<rect x="18" y="77" width="2" height="1"/>
<rect x="26" y="77" width="2" height="1"/>
<rect x="30" y="77" width="1" height="1"/>
<rect x="113" y="77" width="6" height="1"/>
<rect x="123" y="77" width="2" height="1"/>
<rect x="18" y="78" width="2" height="1"/>
<rect x="26" y="78" width="2" height="1"/>
<rect x="30" y="78" width="1" height="1"/>
<rect x="112" y="78" width="3" height="1"/>
<rect x="117" y="78" width="2" height="1"/>
<rect x="123" y="78" width="2" height="1"/>
<rect x="18" y="79" width="2" height="1"/>
<rect x="26" y="79" width="2" height="1"/>
<rect x="30" y="79" width="1" height="1"/>
<rect x="112" y="79" width="2" height="1"/>
<rect x="117" y="79" width="2" height="1"/>
<rect x="123" y="79" width="2" height="1"/>
<rect x="18" y="80" width="17" height="1"/>
<rect x="112" y="80" width="2" height="1"/>
<rect x="117" y="80" width="2" height="1"/>
<rect x="123" y="80" width="2" height="1"/>
<rect x="18" y="81" width="17" height="1"/>
<rect x="112" y="81" width="2" height="1"/>
<rect x="117" y="81" width="2" height="1"/>
<rect x="123" y="81" width="2" height="1"/>
<rect x="30" y="82" width="1" height="1"/>
<rect x="112" y="82" width="2" height="1"/>
<rect x="117" y="82" width="2" height="1"/>
<rect x="123" y="82" width="2" height="1"/>
<rect x="30" y="83" width="1" height="1"/>
<rect x="112" y="83" width="3" height="1"/>
<rect x="117" y="83" width="2" height="1"/>
<rect x="122" y="83" width="3" height="1"/>
<rect x="30" y="84" width="1" height="1"/>
<rect x="113" y="84" width="11" height="1"/>
<rect x="30" y="85" width="1" height="1"/>
<rect x="114" y="85" width="9" height="1"/>
<rect x="22" y="86" width="15" height="1"/>
<rect x="117" y="86" width="4" height="1"/>
<rect x="22" y="87" width="17" height="1"/>
<rect x="24" y="88" width="3" height="1"/>
<rect x="30" y="88" width="3" height="1"/>
<rect x="36" y="88" width="4" height="1"/>
<rect x="23" y="89" width="2" height="1"/>
<rect x="30" y="89" width="1" height="1"/>
<rect x="33" y="89" width="1" height="1"/>
<rect x="38" y="89" width="2" height="1"/>
<rect x="22" y="90" width="2" height="1"/>
<rect x="30" y="90" width="1" height="1"/>
<rect x="33" y="90" width="2" height="1"/>
<rect x="39" y="90" width="2" height="1"/>
<rect x="114" y="90" width="11" height="1"/>
<rect x="22" y="91" width="2" height="1"/>
<rect x="30" y="91" width="1" height="1"/>
<rect x="33" y="91" width="2" height="1"/>
<rect x="39" y="91" width="2" height="1"/>
<rect x="113" y="91" width="12" height="1"/>
<rect x="22" y="92" width="2" height="1"/>
<rect x="30" y="92" width="1" height="1"/>
<rect x="33" y="92" width="2" height="1"/>
<rect x="39" y="92" width="2" height="1"/>
<rect x="112" y="92" width="3" height="1"/>
<rect x="22" y="93" width="2" height="1"/>
<rect x="30" y="93" width="1" height="1"/>
<rect x="33" y="93" width="2" height="1"/>
<rect x="39" y="93" width="2" height="1"/>
<rect x="112" y="93" width="2" height="1"/>
<rect x="22" y="94" width="3" height="1"/>
<rect x="30" y="94" width="1" height="1"/>
<rect x="32" y="94" width="3" height="1"/>
<rect x="39" y="94" width="2" height="1"/>
<rect x="112" y="94" width="2" height="1"/>
<rect x="23" y="95" width="11" height="1"/>
<rect x="38" y="95" width="2" height="1"/>
<rect x="112" y="95" width="2" height="1"/>
<rect x="24" y="96" width="9" height="1"/>
<rect x="38" y="96" width="2" height="1"/>
<rect x="74" y="96" width="3" height="1"/>
<rect x="79" y="96" width="13" height="1"/>
<rect x="112" y="96" width="2" height="1"/>
<rect x="26" y="97" width="5" height="1"/>
<rect x="74" y="97" width="3" height="1"/>
<rect x="79" y="97" width="13" height="1"/>
<rect x="113" y="97" width="1" height="1"/>
<rect x="30" y="98" width="1" height="1"/>
<rect x="113" y="98" width="3" height="1"/>
<rect x="30" y="99" width="1" height="1"/>
<rect x="112" y="99" width="13" height="1"/>
<rect x="30" y="100" width="1" height="1"/>
<rect x="74" y="100" width="2" height="1"/>
<rect x="112" y="100" width="13" height="1"/>
<rect x="24" y="101" width="11" height="1"/>
<rect x="74" y="101" width="2" height="1"/>
<rect x="82" y="101" width="2" height="1"/>
<rect x="23" y="102" width="12" height="1"/>
<rect x="74" y="102" width="2" height="1"/>
<rect x="82" y="102" width="2" height="1"/>
<rect x="22" y="103" width="3" height="1"/>
<rect x="30" y="103" width="1" height="1"/>
<rect x="74" y="103" width="2" height="1"/>
<rect x="82" y="103" width="2" height="1"/>
<rect x="22" y="104" width="2" height="1"/>
<rect x="30" y="104" width="1" height="1"/>
<rect x="74" y="104" width="2" height="1"/>
<rect x="82" y="104" width="2" height="1"/>
<rect x="22" y="105" width="2" height="1"/>
<rect x="30" y="105" width="1" height="1"/>
<rect x="74" y="105" width="2" height="1"/>
<rect x="82" y="105" width="2" height="1"/>
<rect x="114" y="105" width="11" height="1"/>
<rect x="22" y="106" width="2" height="1"/>
<rect x="30" y="106" width="1" height="1"/>
<rect x="74" y="106" width="2" height="1"/>
<rect x="82" y="106" width="2" height="1"/>
<rect x="113" y="106" width="12" height="1"/>
<rect x="22" y="107" width="2" height="1"/>
<rect x="30" y="107" width="1" height="1"/>
<rect x="74" y="107" width="2" height="1"/>
<rect x="82" y="107" width="2" height="1"/>
<rect x="112" y="107" width="3" height="1"/>
<rect x="23" y="108" width="1" height="1"/>
<rect x="30" y="108" width="1" height="1"/>
<rect x="74" y="108" width="17" height="1"/>
<rect x="112" y="108" width="2" height="1"/>
<rect x="23" y="109" width="3" height="1"/>
<rect x="30" y="109" width="1" height="1"/>
<rect x="74" y="109" width="17" height="1"/>
<rect x="112" y="109" width="2" height="1"/>
<rect x="22" y="110" width="13" height="1"/>
<rect x="112" y="110" width="2" height="1"/>
<rect x="22" y="111" width="13" height="1"/>
<rect x="112" y="111" width="2" height="1"/>
<rect x="30" y="112" width="1" height="1"/>
<rect x="113" y="112" width="1" height="1"/>
<rect x="30" y="113" width="1" height="1"/>
<rect x="84" y="113" width="2" height="1"/>
<rect x="113" y="113" width="3" height="1"/>
<rect x="30" y="114" width="1" height="1"/>
<rect x="84" y="114" width="2" height="1"/>
<rect x="112" y="114" width="13" height="1"/>
<rect x="30" y="115" width="1" height="1"/>
<rect x="84" y="115" width="2" height="1"/>
<rect x="112" y="115" width="13" height="1"/>
<rect x="18" y="116" width="3" height="1"/>
<rect x="23" y="116" width="13" height="1"/>
<rect x="84" y="116" width="2" height="1"/>
<rect x="18" y="117" width="3" height="1"/>
<rect x="23" y="117" width="13" height="1"/>
<rect x="84" y="117" width="2" height="1"/>
<rect x="30" y="118" width="1" height="1"/>
<rect x="84" y="118" width="2" height="1"/>
<rect x="30" y="119" width="1" height="1"/>
<rect x="30" y="120" width="1" height="1"/>
<rect x="115" y="120" width="7" height="1"/>
<rect x="23" y="121" width="2" height="1"/>
<rect x="30" y="121" width="1" height="1"/>
<rect x="34" y="121" width="2" height="1"/>
<rect x="114" y="121" width="10" height="1"/>
<rect x="23" y="122" width="2" height="1"/>
<rect x="30" y="122" width="1" height="1"/>
<rect x="34" y="122" width="2" height="1"/>
<rect x="74" y="122" width="3" height="1"/>
<rect x="79" y="122" width="13" height="1"/>
<rect x="113" y="122" width="3" height="1"/>
<rect x="121" y="122" width="3" height="1"/>
<rect x="23" y="123" width="2" height="1"/>
<rect x="30" y="123" width="1" height="1"/>
<rect x="34" y="123" width="2" height="1"/>
<rect x="74" y="123" width="3" height="1"/>
<rect x="79" y="123" width="13" height="1"/>
<rect x="112" y="123" width="2" height="1"/>
<rect x="123" y="123" width="2" height="1"/>
<rect x="23" y="124" width="2" height="1"/>
<rect x="30" y="124" width="1" height="1"/>
<rect x="33" y="124" width="3" height="1"/>
<rect x="112" y="124" width="2" height="1"/>
<rect x="123" y="124" width="2" height="1"/>
<rect x="20" y="125" width="16" height="1"/>
<rect x="112" y="125" width="2" height="1"/>
<rect x="123" y="125" width="2" height="1"/>
<rect x="22" y="126" width="12" height="1"/>
<rect x="74" y="126" width="2" height="1"/>
<rect x="112" y="126" width="2" height="1"/>
<rect x="123" y="126" width="2" height="1"/>
<rect x="23" y="127" width="2" height="1"/>
<rect x="30" y="127" width="1" height="1"/>
<rect x="74" y="127" width="6" height="1"/>
<rect x="112" y="127" width="2" height="1"/>
<rect x="123" y="127" width="2" height="1"/>
<rect x="24" y="128" width="1" height="1"/>
<rect x="30" y="128" width="1" height="1"/>
<rect x="75" y="128" width="8" height="1"/>
<rect x="112" y="128" width="3" height="1"/>
<rect x="122" y="128" width="3" height="1"/>
<rect x="30" y="129" width="1" height="1"/>
<rect x="79" y="129" width="8" height="1"/>
<rect x="113" y="129" width="11" height="1"/>
<rect x="23" y="130" width="2" height="1"/>
<rect x="30" y="130" width="1" height="1"/>
<rect x="34" y="130" width="2" height="1"/>
<rect x="83" y="130" width="8" height="1"/>
<rect x="114" y="130" width="9" height="1"/>
<rect x="23" y="131" width="2" height="1"/>
<rect x="30" y="131" width="1" height="1"/>
<rect x="34" y="131" width="2" height="1"/>
<rect x="87" y="131" width="4" height="1"/>
<rect x="116" y="131" width="5" height="1"/>
<rect x="23" y="132" width="2" height="1"/>
<rect x="30" y="132" width="1" height="1"/>
<rect x="34" y="132" width="2" height="1"/>
<rect x="85" y="132" width="6" height="1"/>
<rect x="23" y="133" width="2" height="1"/>
<rect x="30" y="133" width="1" height="1"/>
<rect x="33" y="133" width="3" height="1"/>
<rect x="81" y="133" width="7" height="1"/>
<rect x="20" y="134" width="16" height="1"/>
<rect x="78" y="134" width="7" height="1"/>
<rect x="108" y="134" width="2" height="1"/>
<rect x="123" y="134" width="2" height="1"/>
<rect x="22" y="135" width="12" height="1"/>
<rect x="75" y="135" width="7" height="1"/>
<rect x="108" y="135" width="2" height="1"/>
<rect x="123" y="135" width="2" height="1"/>
<rect x="23" y="136" width="2" height="1"/>
<rect x="30" y="136" width="1" height="1"/>
<rect x="74" y="136" width="4" height="1"/>
<rect x="108" y="136" width="2" height="1"/>
<rect x="123" y="136" width="2" height="1"/>
<rect x="24" y="137" width="1" height="1"/>
<rect x="30" y="137" width="1" height="1"/>
<rect x="74" y="137" width="5" height="1"/>
<rect x="108" y="137" width="2" height="1"/>
<rect x="123" y="137" width="2" height="1"/>
<rect x="30" y="138" width="1" height="1"/>
<rect x="75" y="138" width="7" height="1"/>
<rect x="108" y="138" width="2" height="1"/>
<rect x="123" y="138" width="2" height="1"/>
<rect x="30" y="139" width="1" height="1"/>
<rect x="79" y="139" width="7" height="1"/>
<rect x="108" y="139" width="2" height="1"/>
<rect x="123" y="139" width="2" height="1"/>
<rect x="24" y="140" width="5" height="1"/>
<rect x="30" y="140" width="1" height="1"/>
<rect x="33" y="140" width="1" height="1"/>
<rect x="82" y="140" width="7" height="1"/>
<rect x="108" y="140" width="2" height="1"/>
<rect x="123" y="140" width="2" height="1"/>
<rect x="23" y="141" width="6" height="1"/>
<rect x="30" y="141" width="1" height="1"/>
<rect x="33" y="141" width="2" height="1"/>
<rect x="86" y="141" width="5" height="1"/>
<rect x="108" y="141" width="2" height="1"/>
<rect x="123" y="141" width="2" height="1"/>
<rect x="22" y="142" width="3" height="1"/>
<rect x="27" y="142" width="2" height="1"/>
<rect x="30" y="142" width="1" height="1"/>
<rect x="33" y="142" width="2" height="1"/>
<rect x="86" y="142" width="5" height="1"/>
<rect x="109" y="142" width="2" height="1"/>
<rect x="122" y="142" width="2" height="1"/>
<rect x="22" y="143" width="2" height="1"/>
<rect x="27" y="143" width="2" height="1"/>
<rect x="30" y="143" width="1" height="1"/>
<rect x="33" y="143" width="2" height="1"/>
<rect x="82" y="143" width="8" height="1"/>
<rect x="109" y="143" width="4" height="1"/>
<rect x="120" y="143" width="4" height="1"/>
<rect x="22" y="144" width="2" height="1"/>
<rect x="27" y="144" width="2" height="1"/>
<rect x="30" y="144" width="1" height="1"/>
<rect x="33" y="144" width="2" height="1"/>
<rect x="78" y="144" width="8" height="1"/>
<rect x="110" y="144" width="13" height="1"/>
<rect x="22" y="145" width="2" height="1"/>
<rect x="27" y="145" width="2" height="1"/>
<rect x="30" y="145" width="1" height="1"/>
<rect x="33" y="145" width="2" height="1"/>
<rect x="74" y="145" width="8" height="1"/>
<rect x="112" y="145" width="9" height="1"/>
<rect x="22" y="146" width="2" height="1"/>
<rect x="27" y="146" width="2" height="1"/>
<rect x="30" y="146" width="1" height="1"/>
<rect x="33" y="146" width="2" height="1"/>
<rect x="74" y="146" width="4" height="1"/>
<rect x="115" y="146" width="3" height="1"/>
<rect x="22" y="147" width="3" height="1"/>
<rect x="27" y="147" width="2" height="1"/>
<rect x="30" y="147" width="1" height="1"/>
<rect x="32" y="147" width="3" height="1"/>
<rect x="74" y="147" width="1" height="1"/>
<rect x="23" y="148" width="11" height="1"/>
<rect x="24" y="149" width="9" height="1"/>
<rect x="27" y="150" width="4" height="1"/>
<rect x="30" y="151" width="1" height="1"/>
<rect x="30" y="152" width="1" height="1"/>
<rect x="30" y="153" width="1" height="1"/>
<rect x="22" y="154" width="2" height="1"/>
<rect x="29" y="154" width="5" height="1"/>
<rect x="22" y="155" width="2" height="1"/>
<rect x="28" y="155" width="7" height="1"/>
<rect x="22" y="156" width="2" height="1"/>
<rect x="28" y="156" width="3" height="1"/>
<rect x="33" y="156" width="2" height="1"/>
<rect x="22" y="157" width="2" height="1"/>
<rect x="28" y="157" width="3" height="1"/>
<rect x="33" y="157" width="2" height="1"/>
<rect x="22" y="158" width="2" height="1"/>
<rect x="27" y="158" width="2" height="1"/>
<rect x="30" y="158" width="1" height="1"/>
<rect x="34" y="158" width="1" height="1"/>
<rect x="22" y="159" width="2" height="1"/>
<rect x="27" y="159" width="2" height="1"/>
<rect x="30" y="159" width="1" height="1"/>
<rect x="33" y="159" width="2" height="1"/>
<rect x="22" y="160" width="2" height="1"/>
<rect x="26" y="160" width="2" height="1"/>
<rect x="30" y="160" width="1" height="1"/>
<rect x="33" y="160" width="2" height="1"/>
<rect x="23" y="161" width="5" height="1"/>
<rect x="30" y="161" width="1" height="1"/>
<rect x="33" y="161" width="2" height="1"/>
<rect x="24" y="162" width="3" height="1"/>
<rect x="30" y="162" width="1" height="1"/>
<rect x="32" y="162" width="3" height="1"/>
<rect x="30" y="163" width="1" height="1"/>
</g>
</svg>
