<svg xmlns="http://www.w3.org/2000/svg" viewBox="0 0 360 180" width="360" height="180" shape-rendering="crispEdges">
<rect width="100%" height="100%" fill="#fff"/>
<g fill="#111">
<rect x="23" y="17" width="1" height="1"/>
<rect x="35" y="17" width="1" height="1"/>
<rect x="54" y="17" width="6" height="1"/>
<rect x="23" y="18" width="1" height="1"/>
<rect x="35" y="18" width="1" height="1"/>
<rect x="54" y="18" width="1" height="1"/>
<rect x="59" y="18" width="1" height="1"/>
<rect x="17" y="19" width="9" height="1"/>
<rect x="29" y="19" width="4" height="1"/>
<rect x="34" y="19" width="4" height="1"/>
<rect x="40" y="19" width="1" height="1"/>
<rect x="45" y="19" width="1" height="1"/>
<rect x="48" y="19" width="5" height="1"/>
<rect x="54" y="19" width="1" height="1"/>
<rect x="59" y="19" width="1" height="1"/>
<rect x="63" y="19" width="4" height="1"/>
<rect x="69" y="19" width="1" height="1"/>
<rect x="71" y="19" width="2" height="1"/>
<rect x="17" y="20" width="1" height="1"/>
<rect x="23" y="20" width="1" height="1"/>
<rect x="28" y="20" width="1" height="1"/>
<rect x="32" y="20" width="1" height="1"/>
<rect x="35" y="20" width="1" height="1"/>
<rect x="40" y="20" width="1" height="1"/>
<rect x="45" y="20" width="1" height="1"/>
<rect x="48" y="20" width="1" height="1"/>
<rect x="54" y="20" width="1" height="1"/>
<rect x="59" y="20" width="1" height="1"/>
<rect x="62" y="20" width="1" height="1"/>
<rect x="66" y="20" width="1" height="1"/>
<rect x="69" y="20" width="2" height="1"/>
<rect x="17" y="21" width="1" height="1"/>
<rect x="23" y="21" width="1" height="1"/>
<rect x="32" y="21" width="1" height="1"/>
<rect x="35" y="21" width="1" height="1"/>
<rect x="40" y="21" width="1" height="1"/>
<rect x="45" y="21" width="1" height="1"/>
<rect x="48" y="21" width="1" height="1"/>
<rect x="54" y="21" width="5" height="1"/>
<rect x="66" y="21" width="1" height="1"/>
<rect x="69" y="21" width="1" height="1"/>
<rect x="18" y="22" width="3" height="1"/>
<rect x="23" y="22" width="1" height="1"/>
<rect x="28" y="22" width="5" height="1"/>
<rect x="35" y="22" width="1" height="1"/>
<rect x="40" y="22" width="1" height="1"/>
<rect x="45" y="22" width="1" height="1"/>
<rect x="49" y="22" width="3" height="1"/>
<rect x="54" y="22" width="1" height="1"/>
<rect x="59" y="22" width="2" height="1"/>
<rect x="62" y="22" width="5" height="1"/>
<rect x="69" y="22" width="1" height="1"/>
<rect x="20" y="23" width="2" height="1"/>
<rect x="23" y="23" width="1" height="1"/>
<rect x="28" y="23" width="1" height="1"/>
<rect x="32" y="23" width="1" height="1"/>
<rect x="35" y="23" width="1" height="1"/>
<rect x="40" y="23" width="1" height="1"/>
<rect x="45" y="23" width="1" height="1"/>
<rect x="51" y="23" width="2" height="1"/>
<rect x="54" y="23" width="1" height="1"/>
<rect x="59" y="23" width="2" height="1"/>
<rect x="62" y="23" width="1" height="1"/>
<rect x="66" y="23" width="1" height="1"/>
<rect x="69" y="23" width="1" height="1"/>
<rect x="20" y="24" width="2" height="1"/>
<rect x="23" y="24" width="1" height="1"/>
<rect x="28" y="24" width="1" height="1"/>
<rect x="32" y="24" width="1" height="1"/>
<rect x="35" y="24" width="1" height="1"/>
<rect x="40" y="24" width="1" height="1"/>
<rect x="44" y="24" width="2" height="1"/>
<rect x="51" y="24" width="2" height="1"/>
<rect x="54" y="24" width="1" height="1"/>
<rect x="59" y="24" width="2" height="1"/>
<rect x="62" y="24" width="1" height="1"/>
<rect x="66" y="24" width="1" height="1"/>
<rect x="69" y="24" width="1" height="1"/>
<rect x="17" y="25" width="4" height="1"/>
<rect x="24" y="25" width="2" height="1"/>
<rect x="28" y="25" width="5" height="1"/>
<rect x="36" y="25" width="2" height="1"/>
<rect x="41" y="25" width="3" height="1"/>
<rect x="45" y="25" width="1" height="1"/>
<rect x="48" y="25" width="4" height="1"/>
<rect x="54" y="25" width="6" height="1"/>
<rect x="62" y="25" width="5" height="1"/>
<rect x="69" y="25" width="1" height="1"/>
<rect x="16" y="30" width="328" height="1"/>
<rect x="165" y="87" width="1" height="1"/>
<rect x="33" y="88" width="2" height="1"/>
<rect x="39" y="88" width="3" height="1"/>
<rect x="51" y="88" width="2" height="1"/>
<rect x="56" y="88" width="3" height="1"/>
<rect x="159" y="88" width="5" height="1"/>
<rect x="165" y="88" width="1" height="1"/>
<rect x="188" y="88" width="1" height="1"/>
<rect x="307" y="88" width="4" height="1"/>
<rect x="314" y="88" width="3" height="1"/>
<rect x="320" y="88" width="3" height="1"/>
<rect x="326" y="88" width="1" height="1"/>
<rect x="32" y="89" width="1" height="1"/>
<rect x="34" y="89" width="1" height="1"/>
<rect x="38" y="89" width="1" height="1"/>
<rect x="42" y="89" width="1" height="1"/>
<rect x="51" y="89" width="2" height="1"/>
<rect x="55" y="89" width="1" height="1"/>
<rect x="59" y="89" width="1" height="1"/>
<rect x="158" y="89" width="1" height="1"/>
<rect x="165" y="89" width="1" height="1"/>
<rect x="188" y="89" width="1" height="1"/>
<rect x="306" y="89" width="1" height="1"/>
<rect x="310" y="89" width="1" height="1"/>
<rect x="313" y="89" width="1" height="1"/>
<rect x="317" y="89" width="1" height="1"/>
<rect x="320" y="89" width="1" height="1"/>
<rect x="322" y="89" width="1" height="1"/>
<rect x="326" y="89" width="1" height="1"/>
<rect x="31" y="90" width="1" height="1"/>
<rect x="34" y="90" width="1" height="1"/>
<rect x="38" y="90" width="1" height="1"/>
<rect x="42" y="90" width="2" height="1"/>
<rect x="45" y="90" width="2" height="1"/>
<rect x="50" y="90" width="1" height="1"/>
<rect x="52" y="90" width="1" height="1"/>
<rect x="59" y="90" width="1" height="1"/>
<rect x="157" y="90" width="1" height="1"/>
<rect x="165" y="90" width="1" height="1"/>
<rect x="167" y="90" width="3" height="1"/>
<rect x="174" y="90" width="4" height="1"/>
<rect x="180" y="90" width="1" height="1"/>
<rect x="182" y="90" width="3" height="1"/>
<rect x="187" y="90" width="4" height="1"/>
<rect x="194" y="90" width="3" height="1"/>
<rect x="200" y="90" width="1" height="1"/>
<rect x="202" y="90" width="2" height="1"/>
<rect x="306" y="90" width="1" height="1"/>
<rect x="310" y="90" width="1" height="1"/>
<rect x="317" y="90" width="1" height="1"/>
<rect x="320" y="90" width="1" height="1"/>
<rect x="322" y="90" width="1" height="1"/>
<rect x="325" y="90" width="1" height="1"/>
<rect x="33" y="91" width="2" height="1"/>
<rect x="38" y="91" width="1" height="1"/>
<rect x="43" y="91" width="1" height="1"/>
<rect x="45" y="91" width="1" height="1"/>
<rect x="49" y="91" width="1" height="1"/>
<rect x="52" y="91" width="1" height="1"/>
<rect x="59" y="91" width="1" height="1"/>
<rect x="157" y="91" width="1" height="1"/>
<rect x="165" y="91" width="2" height="1"/>
<rect x="170" y="91" width="1" height="1"/>
<rect x="173" y="91" width="1" height="1"/>
<rect x="177" y="91" width="1" height="1"/>
<rect x="180" y="91" width="2" height="1"/>
<rect x="185" y="91" width="1" height="1"/>
<rect x="188" y="91" width="1" height="1"/>
<rect x="193" y="91" width="1" height="1"/>
<rect x="197" y="91" width="1" height="1"/>
<rect x="200" y="91" width="2" height="1"/>
<rect x="306" y="91" width="2" height="1"/>
<rect x="310" y="91" width="1" height="1"/>
<rect x="317" y="91" width="1" height="1"/>
<rect x="320" y="91" width="1" height="1"/>
<rect x="322" y="91" width="1" height="1"/>
<rect x="324" y="91" width="1" height="1"/>
<rect x="326" y="91" width="2" height="1"/>
<rect x="33" y="92" width="2" height="1"/>
<rect x="38" y="92" width="1" height="1"/>
<rect x="43" y="92" width="1" height="1"/>
<rect x="48" y="92" width="2" height="1"/>
<rect x="52" y="92" width="1" height="1"/>
<rect x="58" y="92" width="2" height="1"/>
<rect x="157" y="92" width="1" height="1"/>
<rect x="165" y="92" width="1" height="1"/>
<rect x="170" y="92" width="1" height="1"/>
<rect x="177" y="92" width="1" height="1"/>
<rect x="180" y="92" width="1" height="1"/>
<rect x="185" y="92" width="1" height="1"/>
<rect x="188" y="92" width="1" height="1"/>
<rect x="193" y="92" width="1" height="1"/>
<rect x="197" y="92" width="2" height="1"/>
<rect x="200" y="92" width="1" height="1"/>
<rect x="307" y="92" width="3" height="1"/>
<rect x="316" y="92" width="2" height="1"/>
<rect x="320" y="92" width="1" height="1"/>
<rect x="322" y="92" width="1" height="1"/>
<rect x="324" y="92" width="2" height="1"/>
<rect x="328" y="92" width="1" height="1"/>
<rect x="33" y="93" width="2" height="1"/>
<rect x="38" y="93" width="1" height="1"/>
<rect x="43" y="93" width="1" height="1"/>
<rect x="48" y="93" width="1" height="1"/>
<rect x="52" y="93" width="1" height="1"/>
<rect x="57" y="93" width="2" height="1"/>
<rect x="157" y="93" width="1" height="1"/>
<rect x="165" y="93" width="1" height="1"/>
<rect x="170" y="93" width="1" height="1"/>
<rect x="173" y="93" width="5" height="1"/>
<rect x="180" y="93" width="1" height="1"/>
<rect x="185" y="93" width="1" height="1"/>
<rect x="188" y="93" width="1" height="1"/>
<rect x="193" y="93" width="6" height="1"/>
<rect x="200" y="93" width="1" height="1"/>
<rect x="306" y="93" width="1" height="1"/>
<rect x="310" y="93" width="1" height="1"/>
<rect x="315" y="93" width="2" height="1"/>
<rect x="320" y="93" width="4" height="1"/>
<rect x="325" y="93" width="1" height="1"/>
<rect x="328" y="93" width="1" height="1"/>
<rect x="33" y="94" width="2" height="1"/>
<rect x="38" y="94" width="1" height="1"/>
<rect x="42" y="94" width="2" height="1"/>
<rect x="47" y="94" width="7" height="1"/>
<rect x="56" y="94" width="2" height="1"/>
<rect x="157" y="94" width="1" height="1"/>
<rect x="165" y="94" width="1" height="1"/>
<rect x="170" y="94" width="1" height="1"/>
<rect x="173" y="94" width="1" height="1"/>
<rect x="177" y="94" width="1" height="1"/>
<rect x="180" y="94" width="1" height="1"/>
<rect x="185" y="94" width="1" height="1"/>
<rect x="188" y="94" width="1" height="1"/>
<rect x="193" y="94" width="1" height="1"/>
<rect x="200" y="94" width="1" height="1"/>
<rect x="306" y="94" width="1" height="1"/>
<rect x="311" y="94" width="1" height="1"/>
<rect x="314" y="94" width="2" height="1"/>
<rect x="323" y="94" width="1" height="1"/>
<rect x="325" y="94" width="1" height="1"/>
<rect x="328" y="94" width="1" height="1"/>
<rect x="33" y="95" width="2" height="1"/>
<rect x="38" y="95" width="1" height="1"/>
<rect x="42" y="95" width="1" height="1"/>
<rect x="45" y="95" width="1" height="1"/>
<rect x="52" y="95" width="1" height="1"/>
<rect x="55" y="95" width="2" height="1"/>
<rect x="158" y="95" width="1" height="1"/>
<rect x="165" y="95" width="1" height="1"/>
<rect x="170" y="95" width="1" height="1"/>
<rect x="173" y="95" width="1" height="1"/>
<rect x="177" y="95" width="1" height="1"/>
<rect x="180" y="95" width="2" height="1"/>
<rect x="184" y="95" width="2" height="1"/>
<rect x="188" y="95" width="1" height="1"/>
<rect x="193" y="95" width="1" height="1"/>
<rect x="200" y="95" width="1" height="1"/>
<rect x="306" y="95" width="1" height="1"/>
<rect x="310" y="95" width="2" height="1"/>
<rect x="313" y="95" width="2" height="1"/>
<rect x="322" y="95" width="1" height="1"/>
<rect x="325" y="95" width="1" height="1"/>
<rect x="328" y="95" width="1" height="1"/>
<rect x="33" y="96" width="2" height="1"/>
<rect x="39" y="96" width="3" height="1"/>
<rect x="45" y="96" width="2" height="1"/>
<rect x="52" y="96" width="1" height="1"/>
<rect x="55" y="96" width="6" height="1"/>
<rect x="159" y="96" width="4" height="1"/>
<rect x="165" y="96" width="1" height="1"/>
<rect x="170" y="96" width="1" height="1"/>
<rect x="173" y="96" width="5" height="1"/>
<rect x="180" y="96" width="1" height="1"/>
<rect x="182" y="96" width="3" height="1"/>
<rect x="189" y="96" width="2" height="1"/>
<rect x="194" y="96" width="4" height="1"/>
<rect x="200" y="96" width="1" height="1"/>
<rect x="307" y="96" width="4" height="1"/>
<rect x="313" y="96" width="6" height="1"/>
<rect x="321" y="96" width="2" height="1"/>
<rect x="326" y="96" width="2" height="1"/>
<rect x="180" y="97" width="1" height="1"/>
<rect x="180" y="98" width="1" height="1"/>
<rect x="180" y="99" width="1" height="1"/>
<rect x="24" y="108" width="131" height="1"/>
<rect x="156" y="108" width="1" height="1"/>
<rect x="158" y="108" width="1" height="1"/>
<rect x="160" y="108" width="1" height="1"/>
<rect x="162" y="108" width="1" height="1"/>
<rect x="164" y="108" width="1" height="1"/>
<rect x="166" y="108" width="1" height="1"/>
<rect x="168" y="108" width="1" height="1"/>
<rect x="170" y="108" width="1" height="1"/>
<rect x="172" y="108" width="1" height="1"/>
<rect x="174" y="108" width="1" height="1"/>
<rect x="176" y="108" width="1" height="1"/>
<rect x="178" y="108" width="1" height="1"/>
<rect x="180" y="108" width="1" height="1"/>
<rect x="182" y="108" width="1" height="1"/>
<rect x="184" y="108" width="1" height="1"/>
<rect x="186" y="108" width="1" height="1"/>
<rect x="188" y="108" width="1" height="1"/>
<rect x="190" y="108" width="1" height="1"/>
<rect x="192" y="108" width="1" height="1"/>
<rect x="194" y="108" width="1" height="1"/>
<rect x="196" y="108" width="1" height="1"/>
<rect x="198" y="108" width="1" height="1"/>
<rect x="200" y="108" width="1" height="1"/>
<rect x="202" y="108" width="1" height="1"/>
<rect x="204" y="108" width="1" height="1"/>
<rect x="206" y="108" width="1" height="1"/>
<rect x="208" y="108" width="1" height="1"/>
<rect x="210" y="108" width="1" height="1"/>
<rect x="212" y="108" width="1" height="1"/>
<rect x="214" y="108" width="1" height="1"/>
<rect x="216" y="108" width="1" height="1"/>
<rect x="218" y="108" width="1" height="1"/>
<rect x="220" y="108" width="1" height="1"/>
<rect x="222" y="108" width="1" height="1"/>
<rect x="224" y="108" width="1" height="1"/>
<rect x="226" y="108" width="1" height="1"/>
<rect x="228" y="108" width="1" height="1"/>
<rect x="230" y="108" width="1" height="1"/>
<rect x="232" y="108" width="1" height="1"/>
<rect x="234" y="108" width="1" height="1"/>
<rect x="236" y="108" width="1" height="1"/>
<rect x="238" y="108" width="1" height="1"/>
<rect x="240" y="108" width="1" height="1"/>
<rect x="242" y="108" width="1" height="1"/>
<rect x="244" y="108" width="1" height="1"/>
<rect x="246" y="108" width="1" height="1"/>
<rect x="248" y="108" width="1" height="1"/>
<rect x="250" y="108" width="1" height="1"/>
<rect x="252" y="108" width="1" height="1"/>
<rect x="254" y="108" width="1" height="1"/>
<rect x="256" y="108" width="1" height="1"/>
<rect x="258" y="108" width="1" height="1"/>
<rect x="260" y="108" width="1" height="1"/>
<rect x="262" y="108" width="1" height="1"/>
<rect x="264" y="108" width="1" height="1"/>
<rect x="266" y="108" width="1" height="1"/>
<rect x="268" y="108" width="1" height="1"/>
<rect x="270" y="108" width="1" height="1"/>
<rect x="272" y="108" width="1" height="1"/>
<rect x="274" y="108" width="1" height="1"/>
<rect x="276" y="108" width="1" height="1"/>
<rect x="278" y="108" width="1" height="1"/>
<rect x="280" y="108" width="1" height="1"/>
<rect x="282" y="108" width="1" height="1"/>
<rect x="284" y="108" width="1" height="1"/>
<rect x="286" y="108" width="1" height="1"/>
<rect x="288" y="108" width="1" height="1"/>
<rect x="290" y="108" width="1" height="1"/>
<rect x="292" y="108" width="1" height="1"/>
<rect x="294" y="108" width="1" height="1"/>
<rect x="296" y="108" width="1" height="1"/>
<rect x="298" y="108" width="1" height="1"/>
<rect x="300" y="108" width="1" height="1"/>
<rect x="302" y="108" width="1" height="1"/>
<rect x="304" y="108" width="1" height="1"/>
<rect x="306" y="108" width="1" height="1"/>
<rect x="308" y="108" width="1" height="1"/>
<rect x="310" y="108" width="1" height="1"/>
<rect x="312" y="108" width="1" height="1"/>
<rect x="314" y="108" width="1" height="1"/>
<rect x="316" y="108" width="1" height="1"/>
<rect x="318" y="108" width="1" height="1"/>
<rect x="320" y="108" width="1" height="1"/>
<rect x="322" y="108" width="1" height="1"/>
<rect x="324" y="108" width="1" height="1"/>
<rect x="326" y="108" width="1" height="1"/>
<rect x="328" y="108" width="1" height="1"/>
<rect x="330" y="108" width="1" height="1"/>
<rect x="332" y="108" width="1" height="1"/>
<rect x="334" y="108" width="1" height="1"/>
<rect x="24" y="109" width="131" height="1"/>
<rect x="24" y="110" width="131" height="1"/>
<rect x="156" y="110" width="1" height="1"/>
<rect x="158" y="110" width="1" height="1"/>
<rect x="160" y="110" width="1" height="1"/>
<rect x="162" y="110" width="1" height="1"/>
<rect x="164" y="110" width="1" height="1"/>
<rect x="166" y="110" width="1" height="1"/>
<rect x="168" y="110" width="1" height="1"/>
<rect x="170" y="110" width="1" height="1"/>
<rect x="172" y="110" width="1" height="1"/>
<rect x="174" y="110" width="1" height="1"/>
<rect x="176" y="110" width="1" height="1"/>
<rect x="178" y="110" width="1" height="1"/>
<rect x="180" y="110" width="1" height="1"/>
<rect x="182" y="110" width="1" height="1"/>
<rect x="184" y="110" width="1" height="1"/>
<rect x="186" y="110" width="1" height="1"/>
<rect x="188" y="110" width="1" height="1"/>
<rect x="190" y="110" width="1" height="1"/>
<rect x="192" y="110" width="1" height="1"/>
<rect x="194" y="110" width="1" height="1"/>
<rect x="196" y="110" width="1" height="1"/>
<rect x="198" y="110" width="1" height="1"/>
<rect x="200" y="110" width="1" height="1"/>
<rect x="202" y="110" width="1" height="1"/>
<rect x="204" y="110" width="1" height="1"/>
<rect x="206" y="110" width="1" height="1"/>
<rect x="208" y="110" width="1" height="1"/>
<rect x="210" y="110" width="1" height="1"/>
<rect x="212" y="110" width="1" height="1"/>
<rect x="214" y="110" width="1" height="1"/>
<rect x="216" y="110" width="1" height="1"/>
<rect x="218" y="110" width="1" height="1"/>
<rect x="220" y="110" width="1" height="1"/>
<rect x="222" y="110" width="1" height="1"/>
<rect x="224" y="110" width="1" height="1"/>
<rect x="226" y="110" width="1" height="1"/>
<rect x="228" y="110" width="1" height="1"/>
<rect x="230" y="110" width="1" height="1"/>
<rect x="232" y="110" width="1" height="1"/>
<rect x="234" y="110" width="1" height="1"/>
<rect x="236" y="110" width="1" height="1"/>
<rect x="238" y="110" width="1" height="1"/>
<rect x="240" y="110" width="1" height="1"/>
<rect x="242" y="110" width="1" height="1"/>
<rect x="244" y="110" width="1" height="1"/>
<rect x="246" y="110" width="1" height="1"/>
<rect x="248" y="110" width="1" height="1"/>
<rect x="250" y="110" width="1" height="1"/>
<rect x="252" y="110" width="1" height="1"/>
<rect x="254" y="110" width="1" height="1"/>
<rect x="256" y="110" width="1" height="1"/>
<rect x="258" y="110" width="1" height="1"/>
<rect x="260" y="110" width="1" height="1"/>
<rect x="262" y="110" width="1" height="1"/>
<rect x="264" y="110" width="1" height="1"/>
<rect x="266" y="110" width="1" height="1"/>
<rect x="268" y="110" width="1" height="1"/>
<rect x="270" y="110" width="1" height="1"/>
<rect x="272" y="110" width="1" height="1"/>
<rect x="274" y="110" width="1" height="1"/>
<rect x="276" y="110" width="1" height="1"/>
<rect x="278" y="110" width="1" height="1"/>
<rect x="280" y="110" width="1" height="1"/>
<rect x="282" y="110" width="1" height="1"/>
<rect x="284" y="110" width="1" height="1"/>
<rect x="286" y="110" width="1" height="1"/>
<rect x="288" y="110" width="1" height="1"/>
<rect x="290" y="110" width="1" height="1"/>
<rect x="292" y="110" width="1" height="1"/>
<rect x="294" y="110" width="1" height="1"/>
<rect x="296" y="110" width="1" height="1"/>
<rect x="298" y="110" width="1" height="1"/>
<rect x="300" y="110" width="1" height="1"/>
<rect x="302" y="110" width="1" height="1"/>
<rect x="304" y="110" width="1" height="1"/>
<rect x="306" y="110" width="1" height="1"/>
<rect x="308" y="110" width="1" height="1"/>
<rect x="310" y="110" width="1" height="1"/>
<rect x="312" y="110" width="1" height="1"/>
<rect x="314" y="110" width="1" height="1"/>
<rect x="316" y="110" width="1" height="1"/>
<rect x="318" y="110" width="1" height="1"/>
<rect x="320" y="110" width="1" height="1"/>
<rect x="322" y="110" width="1" height="1"/>
<rect x="324" y="110" width="1" height="1"/>
<rect x="326" y="110" width="1" height="1"/>
<rect x="328" y="110" width="1" height="1"/>
<rect x="330" y="110" width="1" height="1"/>
<rect x="332" y="110" width="1" height="1"/>
<rect x="334" y="110" width="1" height="1"/>
<rect x="24" y="111" width="131" height="1"/>
</g>
</svg>
