<svg xmlns="http://www.w3.org/2000/svg" viewBox="0 0 360 180" width="360" height="180" shape-rendering="crispEdges">
<rect width="100%" height="100%" fill="#fff"/>
<g fill="#111">
<rect x="30" y="0" width="1" height="1"/>
<rect x="87" y="0" width="19" height="1"/>
<rect x="30" y="1" width="1" height="1"/>
<rect x="108" y="1" width="1" height="1"/>
<rect x="110" y="1" width="1" height="1"/>
<rect x="30" y="2" width="1" height="1"/>
<rect x="30" y="3" width="1" height="1"/>
<rect x="108" y="3" width="1" height="1"/>
<rect x="110" y="3" width="1" height="1"/>
<rect x="30" y="4" width="1" height="1"/>
<rect x="91" y="4" width="9" height="1"/>
<rect x="30" y="5" width="1" height="1"/>
<rect x="88" y="5" width="12" height="1"/>
<rect x="108" y="5" width="1" height="1"/>
<rect x="110" y="5" width="1" height="1"/>
<rect x="30" y="6" width="1" height="1"/>
<rect x="87" y="6" width="11" height="1"/>
<rect x="30" y="7" width="1" height="1"/>
<rect x="87" y="7" width="2" height="1"/>
<rect x="92" y="7" width="2" height="1"/>
<rect x="97" y="7" width="2" height="1"/>
<rect x="108" y="7" width="1" height="1"/>
<rect x="110" y="7" width="1" height="1"/>
<rect x="30" y="8" width="1" height="1"/>
<rect x="87" y="8" width="2" height="1"/>
<rect x="92" y="8" width="2" height="1"/>
<rect x="98" y="8" width="2" height="1"/>
<rect x="30" y="9" width="1" height="1"/>
<rect x="87" y="9" width="2" height="1"/>
<rect x="92" y="9" width="2" height="1"/>
<rect x="98" y="9" width="2" height="1"/>
<rect x="108" y="9" width="1" height="1"/>
<rect x="110" y="9" width="1" height="1"/>
<rect x="30" y="10" width="1" height="1"/>
<rect x="87" y="10" width="2" height="1"/>
<rect x="92" y="10" width="2" height="1"/>
<rect x="99" y="10" width="1" height="1"/>
<rect x="30" y="11" width="1" height="1"/>
<rect x="87" y="11" width="2" height="1"/>
<rect x="93" y="11" width="1" height="1"/>
<rect x="98" y="11" width="2" height="1"/>
<rect x="108" y="11" width="1" height="1"/>
<rect x="110" y="11" width="1" height="1"/>
<rect x="30" y="12" width="1" height="1"/>
<rect x="88" y="12" width="2" height="1"/>
<rect x="93" y="12" width="2" height="1"/>
<rect x="97" y="12" width="3" height="1"/>
<rect x="30" y="13" width="1" height="1"/>
<rect x="94" y="13" width="6" height="1"/>
<rect x="108" y="13" width="1" height="1"/>
<rect x="110" y="13" width="1" height="1"/>
<rect x="30" y="14" width="1" height="1"/>
<rect x="95" y="14" width="3" height="1"/>
<rect x="30" y="15" width="1" height="1"/>
<rect x="108" y="15" width="1" height="1"/>
<rect x="110" y="15" width="1" height="1"/>
<rect x="30" y="16" width="1" height="1"/>
<rect x="30" y="17" width="1" height="1"/>
<rect x="108" y="17" width="1" height="1"/>
<rect x="110" y="17" width="1" height="1"/>
<rect x="30" y="18" width="1" height="1"/>
<rect x="89" y="18" width="11" height="1"/>
<rect x="30" y="19" width="1" height="1"/>
<rect x="88" y="19" width="12" height="1"/>
<rect x="108" y="19" width="1" height="1"/>
<rect x="110" y="19" width="1" height="1"/>
<rect x="30" y="20" width="1" height="1"/>
<rect x="87" y="20" width="3" height="1"/>
<rect x="30" y="21" width="1" height="1"/>
<rect x="87" y="21" width="2" height="1"/>
<rect x="108" y="21" width="1" height="1"/>
<rect x="110" y="21" width="1" height="1"/>
<rect x="30" y="22" width="1" height="1"/>
<rect x="87" y="22" width="2" height="1"/>
<rect x="30" y="23" width="1" height="1"/>
<rect x="87" y="23" width="2" height="1"/>
<rect x="108" y="23" width="1" height="1"/>
<rect x="110" y="23" width="1" height="1"/>
<rect x="30" y="24" width="1" height="1"/>
<rect x="87" y="24" width="2" height="1"/>
<rect x="30" y="25" width="1" height="1"/>
<rect x="88" y="25" width="1" height="1"/>
<rect x="108" y="25" width="4" height="1"/>
<rect x="30" y="26" width="1" height="1"/>
<rect x="88" y="26" width="3" height="1"/>
<rect x="108" y="26" width="4" height="1"/>
<rect x="30" y="27" width="1" height="1"/>
<rect x="82" y="27" width="18" height="1"/>
<rect x="108" y="27" width="4" height="1"/>
<rect x="30" y="28" width="1" height="1"/>
<rect x="82" y="28" width="18" height="1"/>
<rect x="108" y="28" width="4" height="1"/>
<rect x="30" y="29" width="1" height="1"/>
<rect x="108" y="29" width="4" height="1"/>
<rect x="30" y="30" width="1" height="1"/>
<rect x="108" y="30" width="4" height="1"/>
<rect x="30" y="31" width="1" height="1"/>
<rect x="108" y="31" width="4" height="1"/>
<rect x="30" y="32" width="1" height="1"/>
<rect x="83" y="32" width="2" height="1"/>
<rect x="98" y="32" width="2" height="1"/>
<rect x="108" y="32" width="4" height="1"/>
<rect x="30" y="33" width="1" height="1"/>
<rect x="83" y="33" width="2" height="1"/>
<rect x="98" y="33" width="2" height="1"/>
<rect x="108" y="33" width="4" height="1"/>
<rect x="30" y="34" width="1" height="1"/>
<rect x="83" y="34" width="2" height="1"/>
<rect x="98" y="34" width="2" height="1"/>
<rect x="108" y="34" width="4" height="1"/>
<rect x="30" y="35" width="1" height="1"/>
<rect x="83" y="35" width="2" height="1"/>
<rect x="98" y="35" width="2" height="1"/>
<rect x="108" y="35" width="4" height="1"/>
<rect x="30" y="36" width="1" height="1"/>
<rect x="83" y="36" width="2" height="1"/>
<rect x="98" y="36" width="2" height="1"/>
<rect x="108" y="36" width="4" height="1"/>
<rect x="30" y="37" width="1" height="1"/>
<rect x="83" y="37" width="2" height="1"/>
<rect x="98" y="37" width="2" height="1"/>
<rect x="108" y="37" width="4" height="1"/>
<rect x="30" y="38" width="1" height="1"/>
<rect x="83" y="38" width="2" height="1"/>
<rect x="98" y="38" width="2" height="1"/>
<rect x="108" y="38" width="4" height="1"/>
<rect x="30" y="39" width="1" height="1"/>
<rect x="83" y="39" width="2" height="1"/>
<rect x="98" y="39" width="2" height="1"/>
<rect x="108" y="39" width="4" height="1"/>
<rect x="30" y="40" width="1" height="1"/>
<rect x="84" y="40" width="2" height="1"/>
<rect x="97" y="40" width="2" height="1"/>
<rect x="108" y="40" width="4" height="1"/>
<rect x="30" y="41" width="1" height="1"/>
<rect x="84" y="41" width="4" height="1"/>
<rect x="95" y="41" width="4" height="1"/>
<rect x="108" y="41" width="4" height="1"/>
<rect x="30" y="42" width="1" height="1"/>
<rect x="85" y="42" width="13" height="1"/>
<rect x="108" y="42" width="4" height="1"/>
<rect x="30" y="43" width="1" height="1"/>
<rect x="87" y="43" width="9" height="1"/>
<rect x="108" y="43" width="4" height="1"/>
<rect x="30" y="44" width="1" height="1"/>
<rect x="90" y="44" width="3" height="1"/>
<rect x="108" y="44" width="4" height="1"/>
<rect x="30" y="45" width="1" height="1"/>
<rect x="108" y="45" width="4" height="1"/>
<rect x="30" y="46" width="1" height="1"/>
<rect x="108" y="46" width="4" height="1"/>
<rect x="30" y="47" width="1" height="1"/>
<rect x="108" y="47" width="4" height="1"/>
<rect x="30" y="48" width="1" height="1"/>
<rect x="108" y="48" width="4" height="1"/>
<rect x="30" y="49" width="1" height="1"/>
<rect x="108" y="49" width="4" height="1"/>
<rect x="30" y="50" width="1" height="1"/>
<rect x="108" y="50" width="4" height="1"/>
<rect x="30" y="51" width="1" height="1"/>
<rect x="108" y="51" width="4" height="1"/>
<rect x="30" y="52" width="1" height="1"/>
<rect x="108" y="52" width="4" height="1"/>
<rect x="30" y="53" width="1" height="1"/>
<rect x="108" y="53" width="4" height="1"/>
<rect x="30" y="54" width="1" height="1"/>
<rect x="108" y="54" width="4" height="1"/>
<rect x="22" y="55" width="1" height="1"/>
<rect x="30" y="55" width="1" height="1"/>
<rect x="108" y="55" width="4" height="1"/>
<rect x="22" y="56" width="2" height="1"/>
<rect x="30" y="56" width="1" height="1"/>
<rect x="108" y="56" width="4" height="1"/>
<rect x="22" y="57" width="2" height="1"/>
<rect x="30" y="57" width="1" height="1"/>
<rect x="108" y="57" width="4" height="1"/>
<rect x="22" y="58" width="2" height="1"/>
<rect x="30" y="58" width="1" height="1"/>
<rect x="108" y="58" width="4" height="1"/>
<rect x="23" y="59" width="2" height="1"/>
<rect x="30" y="59" width="1" height="1"/>
<rect x="108" y="59" width="4" height="1"/>
<rect x="24" y="60" width="2" height="1"/>
<rect x="30" y="60" width="1" height="1"/>
<rect x="108" y="60" width="4" height="1"/>
<rect x="22" y="61" width="13" height="1"/>
<rect x="108" y="61" width="4" height="1"/>
<rect x="22" y="62" width="13" height="1"/>
<rect x="108" y="62" width="4" height="1"/>
<rect x="30" y="63" width="1" height="1"/>
<rect x="108" y="63" width="4" height="1"/>
<rect x="30" y="64" width="1" height="1"/>
<rect x="108" y="64" width="4" height="1"/>
<rect x="30" y="65" width="1" height="1"/>
<rect x="108" y="65" width="4" height="1"/>
<rect x="26" y="66" width="9" height="1"/>
<rect x="108" y="66" width="4" height="1"/>
<rect x="23" y="67" width="12" height="1"/>
<rect x="108" y="67" width="4" height="1"/>
<rect x="22" y="68" width="11" height="1"/>
<rect x="108" y="68" width="4" height="1"/>
<rect x="22" y="69" width="2" height="1"/>
<rect x="27" y="69" width="2" height="1"/>
<rect x="30" y="69" width="1" height="1"/>
<rect x="32" y="69" width="2" height="1"/>
<rect x="108" y="69" width="4" height="1"/>
<rect x="22" y="70" width="2" height="1"/>
<rect x="27" y="70" width="2" height="1"/>
<rect x="30" y="70" width="1" height="1"/>
<rect x="33" y="70" width="2" height="1"/>
<rect x="108" y="70" width="4" height="1"/>
<rect x="22" y="71" width="2" height="1"/>
<rect x="27" y="71" width="2" height="1"/>
<rect x="30" y="71" width="1" height="1"/>
<rect x="33" y="71" width="2" height="1"/>
<rect x="108" y="71" width="4" height="1"/>
<rect x="22" y="72" width="2" height="1"/>
<rect x="27" y="72" width="2" height="1"/>
<rect x="30" y="72" width="1" height="1"/>
<rect x="34" y="72" width="1" height="1"/>
<rect x="108" y="72" width="4" height="1"/>
<rect x="22" y="73" width="2" height="1"/>
<rect x="28" y="73" width="1" height="1"/>
<rect x="30" y="73" width="1" height="1"/>
<rect x="33" y="73" width="2" height="1"/>
<rect x="108" y="73" width="4" height="1"/>
<rect x="23" y="74" width="2" height="1"/>
<rect x="28" y="74" width="3" height="1"/>
<rect x="32" y="74" width="3" height="1"/>
<rect x="108" y="74" width="4" height="1"/>
<rect x="29" y="75" width="6" height="1"/>
<rect x="108" y="75" width="4" height="1"/>
<rect x="30" y="76" width="3" height="1"/>
<rect x="108" y="76" width="4" height="1"/>
<rect x="30" y="77" width="1" height="1"/>
<rect x="108" y="77" width="4" height="1"/>
<rect x="30" y="78" width="1" height="1"/>
<rect x="108" y="78" width="4" height="1"/>
<rect x="30" y="79" width="1" height="1"/>
<rect x="108" y="79" width="4" height="1"/>
<rect x="21" y="80" width="3" height="1"/>
<rect x="28" y="80" width="5" height="1"/>
<rect x="108" y="80" width="4" height="1"/>
<rect x="19" y="81" width="6" height="1"/>
<rect x="27" y="81" width="7" height="1"/>
<rect x="108" y="81" width="4" height="1"/>
<rect x="19" y="82" width="9" height="1"/>
<rect x="30" y="82" width="1" height="1"/>
<rect x="32" y="82" width="2" height="1"/>
<rect x="108" y="82" width="4" height="1"/>
<rect x="18" y="83" width="2" height="1"/>
<rect x="25" y="83" width="2" height="1"/>
<rect x="30" y="83" width="1" height="1"/>
<rect x="33" y="83" width="2" height="1"/>
<rect x="108" y="83" width="4" height="1"/>
<rect x="18" y="84" width="2" height="1"/>
<rect x="25" y="84" width="2" height="1"/>
<rect x="30" y="84" width="1" height="1"/>
<rect x="33" y="84" width="2" height="1"/>
<rect x="108" y="84" width="4" height="1"/>
<rect x="18" y="85" width="2" height="1"/>
<rect x="25" y="85" width="2" height="1"/>
<rect x="30" y="85" width="1" height="1"/>
<rect x="33" y="85" width="2" height="1"/>
<rect x="108" y="85" width="4" height="1"/>
<rect x="18" y="86" width="2" height="1"/>
<rect x="25" y="86" width="2" height="1"/>
<rect x="30" y="86" width="1" height="1"/>
<rect x="33" y="86" width="2" height="1"/>
<rect x="108" y="86" width="4" height="1"/>
<rect x="18" y="87" width="2" height="1"/>
<rect x="25" y="87" width="2" height="1"/>
<rect x="30" y="87" width="1" height="1"/>
<rect x="33" y="87" width="2" height="1"/>
<rect x="108" y="87" width="4" height="1"/>
<rect x="18" y="88" width="2" height="1"/>
<rect x="25" y="88" width="2" height="1"/>
<rect x="30" y="88" width="1" height="1"/>
<rect x="33" y="88" width="2" height="1"/>
<rect x="108" y="88" width="4" height="1"/>
<rect x="18" y="89" width="2" height="1"/>
<rect x="25" y="89" width="2" height="1"/>
<rect x="30" y="89" width="1" height="1"/>
<rect x="33" y="89" width="2" height="1"/>
<rect x="108" y="89" width="4" height="1"/>
<rect x="18" y="90" width="17" height="1"/>
<rect x="85" y="90" width="4" height="1"/>
<rect x="98" y="90" width="2" height="1"/>
<rect x="108" y="90" width="4" height="1"/>
<rect x="18" y="91" width="17" height="1"/>
<rect x="84" y="91" width="7" height="1"/>
<rect x="98" y="91" width="2" height="1"/>
<rect x="108" y="91" width="4" height="1"/>
<rect x="30" y="92" width="1" height="1"/>
<rect x="83" y="92" width="3" height="1"/>
<rect x="88" y="92" width="4" height="1"/>
<rect x="98" y="92" width="2" height="1"/>
<rect x="108" y="92" width="4" height="1"/>
<rect x="30" y="93" width="1" height="1"/>
<rect x="83" y="93" width="2" height="1"/>
<rect x="91" y="93" width="2" height="1"/>
<rect x="98" y="93" width="2" height="1"/>
<rect x="108" y="93" width="4" height="1"/>
<rect x="30" y="94" width="1" height="1"/>
<rect x="83" y="94" width="2" height="1"/>
<rect x="92" y="94" width="2" height="1"/>
<rect x="98" y="94" width="2" height="1"/>
<rect x="108" y="94" width="4" height="1"/>
<rect x="30" y="95" width="1" height="1"/>
<rect x="83" y="95" width="1" height="1"/>
<rect x="93" y="95" width="2" height="1"/>
<rect x="98" y="95" width="2" height="1"/>
<rect x="108" y="95" width="4" height="1"/>
<rect x="22" y="96" width="2" height="1"/>
<rect x="29" y="96" width="5" height="1"/>
<rect x="83" y="96" width="2" height="1"/>
<rect x="94" y="96" width="2" height="1"/>
<rect x="98" y="96" width="2" height="1"/>
<rect x="108" y="96" width="4" height="1"/>
<rect x="22" y="97" width="2" height="1"/>
<rect x="28" y="97" width="7" height="1"/>
<rect x="83" y="97" width="2" height="1"/>
<rect x="95" y="97" width="2" height="1"/>
<rect x="98" y="97" width="2" height="1"/>
<rect x="108" y="97" width="4" height="1"/>
<rect x="22" y="98" width="2" height="1"/>
<rect x="28" y="98" width="3" height="1"/>
<rect x="33" y="98" width="2" height="1"/>
<rect x="83" y="98" width="2" height="1"/>
<rect x="96" y="98" width="4" height="1"/>
<rect x="108" y="98" width="4" height="1"/>
<rect x="22" y="99" width="2" height="1"/>
<rect x="28" y="99" width="3" height="1"/>
<rect x="33" y="99" width="2" height="1"/>
<rect x="84" y="99" width="2" height="1"/>
<rect x="97" y="99" width="3" height="1"/>
<rect x="108" y="99" width="4" height="1"/>
<rect x="22" y="100" width="2" height="1"/>
<rect x="27" y="100" width="2" height="1"/>
<rect x="30" y="100" width="1" height="1"/>
<rect x="34" y="100" width="1" height="1"/>
<rect x="84" y="100" width="1" height="1"/>
<rect x="98" y="100" width="2" height="1"/>
<rect x="108" y="100" width="4" height="1"/>
<rect x="22" y="101" width="2" height="1"/>
<rect x="27" y="101" width="2" height="1"/>
<rect x="30" y="101" width="1" height="1"/>
<rect x="33" y="101" width="2" height="1"/>
<rect x="108" y="101" width="4" height="1"/>
<rect x="22" y="102" width="2" height="1"/>
<rect x="26" y="102" width="2" height="1"/>
<rect x="30" y="102" width="1" height="1"/>
<rect x="33" y="102" width="2" height="1"/>
<rect x="108" y="102" width="4" height="1"/>
<rect x="23" y="103" width="5" height="1"/>
<rect x="30" y="103" width="1" height="1"/>
<rect x="33" y="103" width="2" height="1"/>
<rect x="94" y="103" width="2" height="1"/>
<rect x="108" y="103" width="4" height="1"/>
<rect x="24" y="104" width="3" height="1"/>
<rect x="30" y="104" width="1" height="1"/>
<rect x="32" y="104" width="3" height="1"/>
<rect x="94" y="104" width="2" height="1"/>
<rect x="108" y="104" width="4" height="1"/>
<rect x="30" y="105" width="1" height="1"/>
<rect x="83" y="105" width="17" height="1"/>
<rect x="108" y="105" width="4" height="1"/>
<rect x="30" y="106" width="1" height="1"/>
<rect x="83" y="106" width="17" height="1"/>
<rect x="108" y="106" width="4" height="1"/>
<rect x="30" y="107" width="1" height="1"/>
<rect x="83" y="107" width="3" height="1"/>
<rect x="94" y="107" width="2" height="1"/>
<rect x="108" y="107" width="4" height="1"/>
<rect x="23" y="108" width="13" height="1"/>
<rect x="84" y="108" width="3" height="1"/>
<rect x="94" y="108" width="2" height="1"/>
<rect x="108" y="108" width="4" height="1"/>
<rect x="23" y="109" width="13" height="1"/>
<rect x="86" y="109" width="3" height="1"/>
<rect x="94" y="109" width="2" height="1"/>
<rect x="108" y="109" width="4" height="1"/>
<rect x="30" y="110" width="1" height="1"/>
<rect x="32" y="110" width="3" height="1"/>
<rect x="87" y="110" width="3" height="1"/>
<rect x="94" y="110" width="2" height="1"/>
<rect x="108" y="110" width="4" height="1"/>
<rect x="30" y="111" width="1" height="1"/>
<rect x="34" y="111" width="1" height="1"/>
<rect x="89" y="111" width="2" height="1"/>
<rect x="94" y="111" width="2" height="1"/>
<rect x="108" y="111" width="4" height="1"/>
<rect x="30" y="112" width="1" height="1"/>
<rect x="34" y="112" width="2" height="1"/>
<rect x="90" y="112" width="3" height="1"/>
<rect x="94" y="112" width="2" height="1"/>
<rect x="108" y="112" width="4" height="1"/>
<rect x="30" y="113" width="1" height="1"/>
<rect x="34" y="113" width="2" height="1"/>
<rect x="91" y="113" width="5" height="1"/>
<rect x="108" y="113" width="4" height="1"/>
<rect x="30" y="114" width="1" height="1"/>
<rect x="34" y="114" width="2" height="1"/>
<rect x="93" y="114" width="3" height="1"/>
<rect x="108" y="114" width="4" height="1"/>
<rect x="30" y="115" width="1" height="1"/>
<rect x="34" y="115" width="2" height="1"/>
<rect x="94" y="115" width="2" height="1"/>
<rect x="108" y="115" width="4" height="1"/>
<rect x="30" y="116" width="1" height="1"/>
<rect x="33" y="116" width="3" height="1"/>
<rect x="108" y="116" width="4" height="1"/>
<rect x="23" y="117" width="12" height="1"/>
<rect x="88" y="117" width="1" height="1"/>
<rect x="98" y="117" width="2" height="1"/>
<rect x="108" y="117" width="4" height="1"/>
<rect x="23" y="118" width="11" height="1"/>
<rect x="87" y="118" width="3" height="1"/>
<rect x="97" y="118" width="3" height="1"/>
<rect x="108" y="118" width="4" height="1"/>
<rect x="30" y="119" width="1" height="1"/>
<rect x="87" y="119" width="3" height="1"/>
<rect x="97" y="119" width="3" height="1"/>
<rect x="108" y="119" width="4" height="1"/>
<rect x="30" y="120" width="1" height="1"/>
<rect x="108" y="120" width="4" height="1"/>
<rect x="30" y="121" width="1" height="1"/>
<rect x="108" y="121" width="4" height="1"/>
<rect x="23" y="122" width="2" height="1"/>
<rect x="30" y="122" width="1" height="1"/>
<rect x="34" y="122" width="2" height="1"/>
<rect x="108" y="122" width="4" height="1"/>
<rect x="23" y="123" width="2" height="1"/>
<rect x="30" y="123" width="1" height="1"/>
<rect x="34" y="123" width="2" height="1"/>
<rect x="90" y="123" width="3" height="1"/>
<rect x="108" y="123" width="4" height="1"/>
<rect x="23" y="124" width="2" height="1"/>
<rect x="30" y="124" width="1" height="1"/>
<rect x="34" y="124" width="2" height="1"/>
<rect x="86" y="124" width="11" height="1"/>
<rect x="108" y="124" width="4" height="1"/>
<rect x="23" y="125" width="2" height="1"/>
<rect x="30" y="125" width="1" height="1"/>
<rect x="33" y="125" width="3" height="1"/>
<rect x="84" y="125" width="15" height="1"/>
<rect x="108" y="125" width="4" height="1"/>
<rect x="20" y="126" width="16" height="1"/>
<rect x="83" y="126" width="3" height="1"/>
<rect x="97" y="126" width="3" height="1"/>
<rect x="108" y="126" width="4" height="1"/>
<rect x="22" y="127" width="12" height="1"/>
<rect x="83" y="127" width="2" height="1"/>
<rect x="98" y="127" width="2" height="1"/>
<rect x="108" y="127" width="4" height="1"/>
<rect x="23" y="128" width="2" height="1"/>
<rect x="30" y="128" width="1" height="1"/>
<rect x="83" y="128" width="1" height="1"/>
<rect x="98" y="128" width="2" height="1"/>
<rect x="108" y="128" width="4" height="1"/>
<rect x="24" y="129" width="1" height="1"/>
<rect x="30" y="129" width="1" height="1"/>
<rect x="83" y="129" width="1" height="1"/>
<rect x="98" y="129" width="2" height="1"/>
<rect x="108" y="129" width="4" height="1"/>
<rect x="30" y="130" width="1" height="1"/>
<rect x="83" y="130" width="2" height="1"/>
<rect x="98" y="130" width="2" height="1"/>
<rect x="108" y="130" width="4" height="1"/>
<rect x="26" y="131" width="9" height="1"/>
<rect x="83" y="131" width="2" height="1"/>
<rect x="97" y="131" width="3" height="1"/>
<rect x="108" y="131" width="4" height="1"/>
<rect x="23" y="132" width="12" height="1"/>
<rect x="84" y="132" width="4" height="1"/>
<rect x="95" y="132" width="4" height="1"/>
<rect x="108" y="132" width="4" height="1"/>
<rect x="22" y="133" width="11" height="1"/>
<rect x="85" y="133" width="13" height="1"/>
<rect x="108" y="133" width="4" height="1"/>
<rect x="22" y="134" width="2" height="1"/>
<rect x="27" y="134" width="2" height="1"/>
<rect x="30" y="134" width="1" height="1"/>
<rect x="32" y="134" width="2" height="1"/>
<rect x="88" y="134" width="7" height="1"/>
<rect x="108" y="134" width="4" height="1"/>
<rect x="22" y="135" width="2" height="1"/>
<rect x="27" y="135" width="2" height="1"/>
<rect x="30" y="135" width="1" height="1"/>
<rect x="33" y="135" width="2" height="1"/>
<rect x="108" y="135" width="4" height="1"/>
<rect x="22" y="136" width="2" height="1"/>
<rect x="27" y="136" width="2" height="1"/>
<rect x="30" y="136" width="1" height="1"/>
<rect x="33" y="136" width="2" height="1"/>
<rect x="108" y="136" width="4" height="1"/>
<rect x="22" y="137" width="2" height="1"/>
<rect x="27" y="137" width="2" height="1"/>
<rect x="30" y="137" width="1" height="1"/>
<rect x="34" y="137" width="1" height="1"/>
<rect x="108" y="137" width="4" height="1"/>
<rect x="22" y="138" width="2" height="1"/>
<rect x="28" y="138" width="1" height="1"/>
<rect x="30" y="138" width="1" height="1"/>
<rect x="33" y="138" width="2" height="1"/>
<rect x="108" y="138" width="4" height="1"/>
<rect x="23" y="139" width="2" height="1"/>
<rect x="28" y="139" width="3" height="1"/>
<rect x="32" y="139" width="3" height="1"/>
<rect x="108" y="139" width="4" height="1"/>
<rect x="29" y="140" width="6" height="1"/>
<rect x="108" y="140" width="4" height="1"/>
<rect x="30" y="141" width="3" height="1"/>
<rect x="83" y="141" width="17" height="1"/>
<rect x="108" y="141" width="4" height="1"/>
<rect x="30" y="142" width="1" height="1"/>
<rect x="83" y="142" width="17" height="1"/>
<rect x="108" y="142" width="4" height="1"/>
<rect x="30" y="143" width="1" height="1"/>
<rect x="83" y="143" width="2" height="1"/>
<rect x="86" y="143" width="14" height="1"/>
<rect x="108" y="143" width="4" height="1"/>
<rect x="23" y="144" width="2" height="1"/>
<rect x="30" y="144" width="1" height="1"/>
<rect x="34" y="144" width="2" height="1"/>
<rect x="84" y="144" width="2" height="1"/>
<rect x="108" y="144" width="4" height="1"/>
<rect x="23" y="145" width="2" height="1"/>
<rect x="30" y="145" width="1" height="1"/>
<rect x="34" y="145" width="2" height="1"/>
<rect x="85" y="145" width="2" height="1"/>
<rect x="108" y="145" width="4" height="1"/>
<rect x="23" y="146" width="2" height="1"/>
<rect x="30" y="146" width="1" height="1"/>
<rect x="34" y="146" width="2" height="1"/>
<rect x="85" y="146" width="3" height="1"/>
<rect x="108" y="146" width="4" height="1"/>
<rect x="23" y="147" width="2" height="1"/>
<rect x="30" y="147" width="1" height="1"/>
<rect x="33" y="147" width="3" height="1"/>
<rect x="86" y="147" width="1" height="1"/>
<rect x="108" y="147" width="4" height="1"/>
<rect x="20" y="148" width="16" height="1"/>
<rect x="108" y="148" width="4" height="1"/>
<rect x="22" y="149" width="12" height="1"/>
<rect x="108" y="149" width="4" height="1"/>
<rect x="23" y="150" width="2" height="1"/>
<rect x="30" y="150" width="1" height="1"/>
<rect x="108" y="150" width="4" height="1"/>
<rect x="24" y="151" width="1" height="1"/>
<rect x="30" y="151" width="1" height="1"/>
<rect x="108" y="151" width="4" height="1"/>
<rect x="30" y="152" width="1" height="1"/>
<rect x="108" y="152" width="4" height="1"/>
<rect x="30" y="153" width="1" height="1"/>
<rect x="108" y="153" width="4" height="1"/>
<rect x="22" y="154" width="2" height="1"/>
<rect x="29" y="154" width="5" height="1"/>
<rect x="108" y="154" width="4" height="1"/>
<rect x="22" y="155" width="2" height="1"/>
<rect x="28" y="155" width="7" height="1"/>
<rect x="108" y="155" width="4" height="1"/>
<rect x="22" y="156" width="2" height="1"/>
<rect x="28" y="156" width="3" height="1"/>
<rect x="33" y="156" width="2" height="1"/>
<rect x="22" y="157" width="2" height="1"/>
<rect x="28" y="157" width="3" height="1"/>
<rect x="33" y="157" width="2" height="1"/>
<rect x="22" y="158" width="2" height="1"/>
<rect x="27" y="158" width="2" height="1"/>
<rect x="30" y="158" width="1" height="1"/>
<rect x="34" y="158" width="1" height="1"/>
<rect x="22" y="159" width="2" height="1"/>
<rect x="27" y="159" width="2" height="1"/>
<rect x="30" y="159" width="1" height="1"/>
<rect x="33" y="159" width="2" height="1"/>
<rect x="22" y="160" width="2" height="1"/>
<rect x="26" y="160" width="2" height="1"/>
<rect x="30" y="160" width="1" height="1"/>
<rect x="33" y="160" width="2" height="1"/>
<rect x="23" y="161" width="5" height="1"/>
<rect x="30" y="161" width="1" height="1"/>
<rect x="33" y="161" width="2" height="1"/>
<rect x="24" y="162" width="3" height="1"/>
<rect x="30" y="162" width="1" height="1"/>
<rect x="32" y="162" width="3" height="1"/>
<rect x="30" y="163" width="1" height="1"/>
</g>
</svg>
