<svg xmlns="http://www.w3.org/2000/svg" viewBox="0 0 360 180" width="360" height="180" shape-rendering="crispEdges">
<rect width="100%" height="100%" fill="#fff"/>
<g fill="#111">
<rect x="23" y="17" width="1" height="1"/>
<rect x="63" y="17" width="5" height="1"/>
<rect x="23" y="18" width="1" height="1"/>
<rect x="63" y="18" width="1" height="1"/>
<rect x="68" y="18" width="1" height="1"/>
<rect x="17" y="19" width="9" height="1"/>
<rect x="29" y="19" width="3" height="1"/>
<rect x="35" y="19" width="1" height="1"/>
<rect x="37" y="19" width="3" height="1"/>
<rect x="43" y="19" width="1" height="1"/>
<rect x="45" y="19" width="3" height="1"/>
<rect x="52" y="19" width="3" height="1"/>
<rect x="58" y="19" width="1" height="1"/>
<rect x="60" y="19" width="2" height="1"/>
<rect x="63" y="19" width="1" height="1"/>
<rect x="68" y="19" width="1" height="1"/>
<rect x="72" y="19" width="4" height="1"/>
<rect x="78" y="19" width="1" height="1"/>
<rect x="82" y="19" width="2" height="1"/>
<rect x="87" y="19" width="1" height="1"/>
<rect x="17" y="20" width="1" height="1"/>
<rect x="23" y="20" width="1" height="1"/>
<rect x="28" y="20" width="1" height="1"/>
<rect x="32" y="20" width="1" height="1"/>
<rect x="35" y="20" width="2" height="1"/>
<rect x="40" y="20" width="1" height="1"/>
<rect x="43" y="20" width="2" height="1"/>
<rect x="48" y="20" width="1" height="1"/>
<rect x="51" y="20" width="1" height="1"/>
<rect x="55" y="20" width="1" height="1"/>
<rect x="58" y="20" width="2" height="1"/>
<rect x="63" y="20" width="1" height="1"/>
<rect x="68" y="20" width="1" height="1"/>
<rect x="71" y="20" width="1" height="1"/>
<rect x="75" y="20" width="2" height="1"/>
<rect x="79" y="20" width="1" height="1"/>
<rect x="82" y="20" width="2" height="1"/>
<rect x="87" y="20" width="1" height="1"/>
<rect x="17" y="21" width="1" height="1"/>
<rect x="23" y="21" width="1" height="1"/>
<rect x="28" y="21" width="1" height="1"/>
<rect x="32" y="21" width="2" height="1"/>
<rect x="35" y="21" width="1" height="1"/>
<rect x="40" y="21" width="1" height="1"/>
<rect x="43" y="21" width="1" height="1"/>
<rect x="48" y="21" width="1" height="1"/>
<rect x="51" y="21" width="1" height="1"/>
<rect x="55" y="21" width="2" height="1"/>
<rect x="58" y="21" width="1" height="1"/>
<rect x="63" y="21" width="5" height="1"/>
<rect x="71" y="21" width="1" height="1"/>
<rect x="76" y="21" width="1" height="1"/>
<rect x="79" y="21" width="1" height="1"/>
<rect x="82" y="21" width="3" height="1"/>
<rect x="86" y="21" width="1" height="1"/>
<rect x="18" y="22" width="3" height="1"/>
<rect x="23" y="22" width="1" height="1"/>
<rect x="28" y="22" width="6" height="1"/>
<rect x="35" y="22" width="1" height="1"/>
<rect x="40" y="22" width="1" height="1"/>
<rect x="43" y="22" width="1" height="1"/>
<rect x="48" y="22" width="1" height="1"/>
<rect x="51" y="22" width="6" height="1"/>
<rect x="58" y="22" width="1" height="1"/>
<rect x="63" y="22" width="1" height="1"/>
<rect x="67" y="22" width="1" height="1"/>
<rect x="71" y="22" width="1" height="1"/>
<rect x="76" y="22" width="1" height="1"/>
<rect x="79" y="22" width="1" height="1"/>
<rect x="81" y="22" width="1" height="1"/>
<rect x="84" y="22" width="1" height="1"/>
<rect x="86" y="22" width="1" height="1"/>
<rect x="20" y="23" width="2" height="1"/>
<rect x="23" y="23" width="1" height="1"/>
<rect x="28" y="23" width="1" height="1"/>
<rect x="35" y="23" width="1" height="1"/>
<rect x="40" y="23" width="1" height="1"/>
<rect x="43" y="23" width="1" height="1"/>
<rect x="48" y="23" width="1" height="1"/>
<rect x="51" y="23" width="1" height="1"/>
<rect x="58" y="23" width="1" height="1"/>
<rect x="63" y="23" width="1" height="1"/>
<rect x="67" y="23" width="1" height="1"/>
<rect x="71" y="23" width="1" height="1"/>
<rect x="76" y="23" width="1" height="1"/>
<rect x="79" y="23" width="1" height="1"/>
<rect x="81" y="23" width="1" height="1"/>
<rect x="84" y="23" width="1" height="1"/>
<rect x="86" y="23" width="1" height="1"/>
<rect x="20" y="24" width="2" height="1"/>
<rect x="23" y="24" width="1" height="1"/>
<rect x="28" y="24" width="1" height="1"/>
<rect x="35" y="24" width="2" height="1"/>
<rect x="39" y="24" width="2" height="1"/>
<rect x="43" y="24" width="2" height="1"/>
<rect x="47" y="24" width="2" height="1"/>
<rect x="51" y="24" width="1" height="1"/>
<rect x="58" y="24" width="1" height="1"/>
<rect x="63" y="24" width="1" height="1"/>
<rect x="68" y="24" width="1" height="1"/>
<rect x="71" y="24" width="1" height="1"/>
<rect x="75" y="24" width="2" height="1"/>
<rect x="80" y="24" width="2" height="1"/>
<rect x="84" y="24" width="1" height="1"/>
<rect x="86" y="24" width="1" height="1"/>
<rect x="17" y="25" width="4" height="1"/>
<rect x="24" y="25" width="2" height="1"/>
<rect x="29" y="25" width="4" height="1"/>
<rect x="35" y="25" width="1" height="1"/>
<rect x="37" y="25" width="3" height="1"/>
<rect x="43" y="25" width="1" height="1"/>
<rect x="45" y="25" width="3" height="1"/>
<rect x="52" y="25" width="4" height="1"/>
<rect x="58" y="25" width="1" height="1"/>
<rect x="63" y="25" width="1" height="1"/>
<rect x="68" y="25" width="2" height="1"/>
<rect x="72" y="25" width="4" height="1"/>
<rect x="80" y="25" width="2" height="1"/>
<rect x="85" y="25" width="1" height="1"/>
<rect x="35" y="26" width="1" height="1"/>
<rect x="43" y="26" width="1" height="1"/>
<rect x="35" y="27" width="1" height="1"/>
<rect x="43" y="27" width="1" height="1"/>
<rect x="35" y="28" width="1" height="1"/>
<rect x="43" y="28" width="1" height="1"/>
<rect x="16" y="30" width="328" height="1"/>
<rect x="208" y="78" width="32" height="1"/>
<rect x="296" y="78" width="32" height="1"/>
<rect x="208" y="79" width="1" height="1"/>
<rect x="239" y="79" width="1" height="1"/>
<rect x="296" y="79" width="1" height="1"/>
<rect x="327" y="79" width="1" height="1"/>
<rect x="208" y="80" width="1" height="1"/>
<rect x="239" y="80" width="1" height="1"/>
<rect x="296" y="80" width="1" height="1"/>
<rect x="327" y="80" width="1" height="1"/>
<rect x="208" y="81" width="1" height="1"/>
<rect x="239" y="81" width="1" height="1"/>
<rect x="296" y="81" width="1" height="1"/>
<rect x="327" y="81" width="1" height="1"/>
<rect x="208" y="82" width="1" height="1"/>
<rect x="239" y="82" width="1" height="1"/>
<rect x="296" y="82" width="1" height="1"/>
<rect x="327" y="82" width="1" height="1"/>
<rect x="208" y="83" width="1" height="1"/>
<rect x="239" y="83" width="1" height="1"/>
<rect x="296" y="83" width="1" height="1"/>
<rect x="327" y="83" width="1" height="1"/>
<rect x="208" y="84" width="1" height="1"/>
<rect x="239" y="84" width="1" height="1"/>
<rect x="296" y="84" width="1" height="1"/>
<rect x="327" y="84" width="1" height="1"/>
<rect x="208" y="85" width="1" height="1"/>
<rect x="239" y="85" width="1" height="1"/>
<rect x="296" y="85" width="1" height="1"/>
<rect x="327" y="85" width="1" height="1"/>
<rect x="208" y="86" width="1" height="1"/>
<rect x="239" y="86" width="1" height="1"/>
<rect x="296" y="86" width="1" height="1"/>
<rect x="327" y="86" width="1" height="1"/>
<rect x="70" y="87" width="1" height="1"/>
<rect x="208" y="87" width="1" height="1"/>
<rect x="239" y="87" width="1" height="1"/>
<rect x="296" y="87" width="1" height="1"/>
<rect x="311" y="87" width="3" height="1"/>
<rect x="327" y="87" width="1" height="1"/>
<rect x="33" y="88" width="5" height="1"/>
<rect x="56" y="88" width="1" height="1"/>
<rect x="208" y="88" width="1" height="1"/>
<rect x="239" y="88" width="1" height="1"/>
<rect x="264" y="88" width="2" height="1"/>
<rect x="270" y="88" width="3" height="1"/>
<rect x="296" y="88" width="1" height="1"/>
<rect x="311" y="88" width="3" height="1"/>
<rect x="327" y="88" width="1" height="1"/>
<rect x="33" y="89" width="1" height="1"/>
<rect x="56" y="89" width="1" height="1"/>
<rect x="208" y="89" width="1" height="1"/>
<rect x="239" y="89" width="1" height="1"/>
<rect x="263" y="89" width="1" height="1"/>
<rect x="265" y="89" width="1" height="1"/>
<rect x="269" y="89" width="1" height="1"/>
<rect x="273" y="89" width="1" height="1"/>
<rect x="296" y="89" width="1" height="1"/>
<rect x="311" y="89" width="3" height="1"/>
<rect x="327" y="89" width="1" height="1"/>
<rect x="33" y="90" width="1" height="1"/>
<rect x="41" y="90" width="4" height="1"/>
<rect x="48" y="90" width="1" height="1"/>
<rect x="50" y="90" width="3" height="1"/>
<rect x="55" y="90" width="4" height="1"/>
<rect x="64" y="90" width="5" height="1"/>
<rect x="70" y="90" width="1" height="1"/>
<rect x="73" y="90" width="5" height="1"/>
<rect x="80" y="90" width="3" height="1"/>
<rect x="208" y="90" width="1" height="1"/>
<rect x="239" y="90" width="1" height="1"/>
<rect x="262" y="90" width="1" height="1"/>
<rect x="265" y="90" width="1" height="1"/>
<rect x="273" y="90" width="1" height="1"/>
<rect x="296" y="90" width="1" height="1"/>
<rect x="311" y="90" width="3" height="1"/>
<rect x="327" y="90" width="1" height="1"/>
<rect x="33" y="91" width="1" height="1"/>
<rect x="40" y="91" width="1" height="1"/>
<rect x="44" y="91" width="2" height="1"/>
<rect x="48" y="91" width="2" height="1"/>
<rect x="53" y="91" width="1" height="1"/>
<rect x="56" y="91" width="1" height="1"/>
<rect x="64" y="91" width="1" height="1"/>
<rect x="70" y="91" width="1" height="1"/>
<rect x="76" y="91" width="1" height="1"/>
<rect x="79" y="91" width="1" height="1"/>
<rect x="83" y="91" width="1" height="1"/>
<rect x="208" y="91" width="1" height="1"/>
<rect x="219" y="91" width="11" height="1"/>
<rect x="239" y="91" width="1" height="1"/>
<rect x="264" y="91" width="2" height="1"/>
<rect x="273" y="91" width="1" height="1"/>
<rect x="296" y="91" width="1" height="1"/>
<rect x="307" y="91" width="11" height="1"/>
<rect x="327" y="91" width="1" height="1"/>
<rect x="33" y="92" width="5" height="1"/>
<rect x="40" y="92" width="1" height="1"/>
<rect x="45" y="92" width="1" height="1"/>
<rect x="48" y="92" width="1" height="1"/>
<rect x="53" y="92" width="1" height="1"/>
<rect x="56" y="92" width="1" height="1"/>
<rect x="64" y="92" width="1" height="1"/>
<rect x="70" y="92" width="1" height="1"/>
<rect x="75" y="92" width="1" height="1"/>
<rect x="79" y="92" width="1" height="1"/>
<rect x="83" y="92" width="2" height="1"/>
<rect x="208" y="92" width="1" height="1"/>
<rect x="219" y="92" width="11" height="1"/>
<rect x="239" y="92" width="1" height="1"/>
<rect x="264" y="92" width="2" height="1"/>
<rect x="272" y="92" width="2" height="1"/>
<rect x="296" y="92" width="1" height="1"/>
<rect x="307" y="92" width="11" height="1"/>
<rect x="327" y="92" width="1" height="1"/>
<rect x="33" y="93" width="1" height="1"/>
<rect x="40" y="93" width="1" height="1"/>
<rect x="45" y="93" width="1" height="1"/>
<rect x="48" y="93" width="1" height="1"/>
<rect x="53" y="93" width="1" height="1"/>
<rect x="56" y="93" width="1" height="1"/>
<rect x="65" y="93" width="3" height="1"/>
<rect x="70" y="93" width="1" height="1"/>
<rect x="74" y="93" width="2" height="1"/>
<rect x="79" y="93" width="6" height="1"/>
<rect x="208" y="93" width="1" height="1"/>
<rect x="219" y="93" width="11" height="1"/>
<rect x="239" y="93" width="1" height="1"/>
<rect x="264" y="93" width="2" height="1"/>
<rect x="271" y="93" width="2" height="1"/>
<rect x="296" y="93" width="1" height="1"/>
<rect x="307" y="93" width="11" height="1"/>
<rect x="327" y="93" width="1" height="1"/>
<rect x="33" y="94" width="1" height="1"/>
<rect x="40" y="94" width="1" height="1"/>
<rect x="45" y="94" width="1" height="1"/>
<rect x="48" y="94" width="1" height="1"/>
<rect x="53" y="94" width="1" height="1"/>
<rect x="56" y="94" width="1" height="1"/>
<rect x="67" y="94" width="2" height="1"/>
<rect x="70" y="94" width="1" height="1"/>
<rect x="74" y="94" width="1" height="1"/>
<rect x="79" y="94" width="1" height="1"/>
<rect x="208" y="94" width="1" height="1"/>
<rect x="239" y="94" width="1" height="1"/>
<rect x="264" y="94" width="2" height="1"/>
<rect x="270" y="94" width="2" height="1"/>
<rect x="296" y="94" width="1" height="1"/>
<rect x="311" y="94" width="3" height="1"/>
<rect x="327" y="94" width="1" height="1"/>
<rect x="33" y="95" width="1" height="1"/>
<rect x="40" y="95" width="1" height="1"/>
<rect x="44" y="95" width="2" height="1"/>
<rect x="48" y="95" width="1" height="1"/>
<rect x="53" y="95" width="1" height="1"/>
<rect x="56" y="95" width="1" height="1"/>
<rect x="67" y="95" width="2" height="1"/>
<rect x="70" y="95" width="1" height="1"/>
<rect x="73" y="95" width="1" height="1"/>
<rect x="79" y="95" width="1" height="1"/>
<rect x="208" y="95" width="1" height="1"/>
<rect x="239" y="95" width="1" height="1"/>
<rect x="264" y="95" width="2" height="1"/>
<rect x="269" y="95" width="2" height="1"/>
<rect x="296" y="95" width="1" height="1"/>
<rect x="311" y="95" width="3" height="1"/>
<rect x="327" y="95" width="1" height="1"/>
<rect x="33" y="96" width="1" height="1"/>
<rect x="41" y="96" width="4" height="1"/>
<rect x="48" y="96" width="1" height="1"/>
<rect x="53" y="96" width="1" height="1"/>
<rect x="57" y="96" width="2" height="1"/>
<rect x="64" y="96" width="4" height="1"/>
<rect x="70" y="96" width="1" height="1"/>
<rect x="72" y="96" width="6" height="1"/>
<rect x="80" y="96" width="4" height="1"/>
<rect x="208" y="96" width="1" height="1"/>
<rect x="239" y="96" width="1" height="1"/>
<rect x="264" y="96" width="2" height="1"/>
<rect x="269" y="96" width="6" height="1"/>
<rect x="296" y="96" width="1" height="1"/>
<rect x="311" y="96" width="3" height="1"/>
<rect x="327" y="96" width="1" height="1"/>
<rect x="208" y="97" width="1" height="1"/>
<rect x="239" y="97" width="1" height="1"/>
<rect x="296" y="97" width="1" height="1"/>
<rect x="311" y="97" width="3" height="1"/>
<rect x="327" y="97" width="1" height="1"/>
<rect x="208" y="98" width="1" height="1"/>
<rect x="239" y="98" width="1" height="1"/>
<rect x="296" y="98" width="1" height="1"/>
<rect x="327" y="98" width="1" height="1"/>
<rect x="208" y="99" width="1" height="1"/>
<rect x="239" y="99" width="1" height="1"/>
<rect x="296" y="99" width="1" height="1"/>
<rect x="327" y="99" width="1" height="1"/>
<rect x="208" y="100" width="1" height="1"/>
<rect x="239" y="100" width="1" height="1"/>
<rect x="296" y="100" width="1" height="1"/>
<rect x="327" y="100" width="1" height="1"/>
<rect x="208" y="101" width="1" height="1"/>
<rect x="239" y="101" width="1" height="1"/>
<rect x="296" y="101" width="1" height="1"/>
<rect x="327" y="101" width="1" height="1"/>
<rect x="208" y="102" width="1" height="1"/>
<rect x="239" y="102" width="1" height="1"/>
<rect x="296" y="102" width="1" height="1"/>
<rect x="327" y="102" width="1" height="1"/>
<rect x="208" y="103" width="1" height="1"/>
<rect x="239" y="103" width="1" height="1"/>
<rect x="296" y="103" width="1" height="1"/>
<rect x="327" y="103" width="1" height="1"/>
<rect x="208" y="104" width="1" height="1"/>
<rect x="239" y="104" width="1" height="1"/>
<rect x="296" y="104" width="1" height="1"/>
<rect x="327" y="104" width="1" height="1"/>
<rect x="208" y="105" width="32" height="1"/>
<rect x="296" y="105" width="32" height="1"/>
</g>
</svg>
