<svg xmlns="http://www.w3.org/2000/svg" viewBox="0 0 360 180" width="360" height="180" shape-rendering="crispEdges">
<rect width="100%" height="100%" fill="#fff"/>
<g fill="#111">
<rect x="29" y="16" width="1" height="1"/>
<rect x="17" y="17" width="1" height="1"/>
<rect x="29" y="17" width="1" height="1"/>
<rect x="37" y="17" width="6" height="1"/>
<rect x="17" y="18" width="1" height="1"/>
<rect x="29" y="18" width="1" height="1"/>
<rect x="37" y="18" width="1" height="1"/>
<rect x="42" y="18" width="1" height="1"/>
<rect x="16" y="19" width="4" height="1"/>
<rect x="23" y="19" width="4" height="1"/>
<rect x="29" y="19" width="1" height="1"/>
<rect x="31" y="19" width="3" height="1"/>
<rect x="37" y="19" width="1" height="1"/>
<rect x="42" y="19" width="1" height="1"/>
<rect x="46" y="19" width="4" height="1"/>
<rect x="52" y="19" width="1" height="1"/>
<rect x="54" y="19" width="2" height="1"/>
<rect x="17" y="20" width="1" height="1"/>
<rect x="22" y="20" width="1" height="1"/>
<rect x="26" y="20" width="1" height="1"/>
<rect x="29" y="20" width="2" height="1"/>
<rect x="34" y="20" width="1" height="1"/>
<rect x="37" y="20" width="1" height="1"/>
<rect x="42" y="20" width="1" height="1"/>
<rect x="45" y="20" width="1" height="1"/>
<rect x="49" y="20" width="1" height="1"/>
<rect x="52" y="20" width="2" height="1"/>
<rect x="17" y="21" width="1" height="1"/>
<rect x="26" y="21" width="1" height="1"/>
<rect x="29" y="21" width="1" height="1"/>
<rect x="34" y="21" width="1" height="1"/>
<rect x="37" y="21" width="5" height="1"/>
<rect x="49" y="21" width="1" height="1"/>
<rect x="52" y="21" width="1" height="1"/>
<rect x="17" y="22" width="1" height="1"/>
<rect x="22" y="22" width="5" height="1"/>
<rect x="29" y="22" width="1" height="1"/>
<rect x="34" y="22" width="1" height="1"/>
<rect x="37" y="22" width="1" height="1"/>
<rect x="42" y="22" width="2" height="1"/>
<rect x="45" y="22" width="5" height="1"/>
<rect x="52" y="22" width="1" height="1"/>
<rect x="17" y="23" width="1" height="1"/>
<rect x="22" y="23" width="1" height="1"/>
<rect x="26" y="23" width="1" height="1"/>
<rect x="29" y="23" width="1" height="1"/>
<rect x="34" y="23" width="1" height="1"/>
<rect x="37" y="23" width="1" height="1"/>
<rect x="42" y="23" width="2" height="1"/>
<rect x="45" y="23" width="1" height="1"/>
<rect x="49" y="23" width="1" height="1"/>
<rect x="52" y="23" width="1" height="1"/>
<rect x="17" y="24" width="1" height="1"/>
<rect x="22" y="24" width="1" height="1"/>
<rect x="26" y="24" width="1" height="1"/>
<rect x="29" y="24" width="2" height="1"/>
<rect x="34" y="24" width="1" height="1"/>
<rect x="37" y="24" width="1" height="1"/>
<rect x="42" y="24" width="2" height="1"/>
<rect x="45" y="24" width="1" height="1"/>
<rect x="49" y="24" width="1" height="1"/>
<rect x="52" y="24" width="1" height="1"/>
<rect x="18" y="25" width="2" height="1"/>
<rect x="22" y="25" width="5" height="1"/>
<rect x="29" y="25" width="1" height="1"/>
<rect x="31" y="25" width="3" height="1"/>
<rect x="37" y="25" width="6" height="1"/>
<rect x="45" y="25" width="5" height="1"/>
<rect x="52" y="25" width="1" height="1"/>
<rect x="16" y="30" width="328" height="1"/>
<rect x="28" y="74" width="96" height="1"/>
<rect x="28" y="75" width="96" height="1"/>
<rect x="28" y="76" width="96" height="1"/>
<rect x="28" y="77" width="96" height="1"/>
<rect x="28" y="78" width="96" height="1"/>
<rect x="28" y="79" width="96" height="1"/>
<rect x="28" y="80" width="96" height="1"/>
<rect x="28" y="81" width="96" height="1"/>
<rect x="28" y="82" width="96" height="1"/>
<rect x="28" y="83" width="96" height="1"/>
<rect x="28" y="84" width="96" height="1"/>
<rect x="28" y="85" width="96" height="1"/>
<rect x="28" y="86" width="96" height="1"/>
<rect x="28" y="87" width="54" height="1"/>
<rect x="83" y="87" width="41" height="1"/>
<rect x="178" y="87" width="1" height="1"/>
<rect x="28" y="88" width="30" height="1"/>
<rect x="64" y="88" width="18" height="1"/>
<rect x="83" y="88" width="41" height="1"/>
<rect x="159" y="88" width="2" height="1"/>
<rect x="173" y="88" width="1" height="1"/>
<rect x="178" y="88" width="1" height="1"/>
<rect x="270" y="88" width="7" height="1"/>
<rect x="28" y="89" width="30" height="1"/>
<rect x="59" y="89" width="4" height="1"/>
<rect x="64" y="89" width="18" height="1"/>
<rect x="83" y="89" width="41" height="1"/>
<rect x="159" y="89" width="2" height="1"/>
<rect x="173" y="89" width="1" height="1"/>
<rect x="178" y="89" width="1" height="1"/>
<rect x="273" y="89" width="1" height="1"/>
<rect x="28" y="90" width="30" height="1"/>
<rect x="59" y="90" width="4" height="1"/>
<rect x="64" y="90" width="3" height="1"/>
<rect x="71" y="90" width="4" height="1"/>
<rect x="79" y="90" width="3" height="1"/>
<rect x="83" y="90" width="3" height="1"/>
<rect x="88" y="90" width="1" height="1"/>
<rect x="94" y="90" width="30" height="1"/>
<rect x="159" y="90" width="1" height="1"/>
<rect x="161" y="90" width="1" height="1"/>
<rect x="165" y="90" width="1" height="1"/>
<rect x="170" y="90" width="1" height="1"/>
<rect x="172" y="90" width="4" height="1"/>
<rect x="178" y="90" width="1" height="1"/>
<rect x="180" y="90" width="3" height="1"/>
<rect x="187" y="90" width="4" height="1"/>
<rect x="194" y="90" width="1" height="1"/>
<rect x="196" y="90" width="2" height="1"/>
<rect x="199" y="90" width="5" height="1"/>
<rect x="273" y="90" width="1" height="1"/>
<rect x="279" y="90" width="4" height="1"/>
<rect x="286" y="90" width="3" height="1"/>
<rect x="290" y="90" width="1" height="1"/>
<rect x="293" y="90" width="5" height="1"/>
<rect x="28" y="91" width="30" height="1"/>
<rect x="59" y="91" width="4" height="1"/>
<rect x="64" y="91" width="2" height="1"/>
<rect x="67" y="91" width="3" height="1"/>
<rect x="72" y="91" width="2" height="1"/>
<rect x="75" y="91" width="3" height="1"/>
<rect x="80" y="91" width="2" height="1"/>
<rect x="83" y="91" width="2" height="1"/>
<rect x="86" y="91" width="3" height="1"/>
<rect x="90" y="91" width="34" height="1"/>
<rect x="158" y="91" width="1" height="1"/>
<rect x="161" y="91" width="1" height="1"/>
<rect x="165" y="91" width="1" height="1"/>
<rect x="170" y="91" width="1" height="1"/>
<rect x="173" y="91" width="1" height="1"/>
<rect x="178" y="91" width="2" height="1"/>
<rect x="183" y="91" width="1" height="1"/>
<rect x="186" y="91" width="1" height="1"/>
<rect x="190" y="91" width="2" height="1"/>
<rect x="194" y="91" width="2" height="1"/>
<rect x="199" y="91" width="1" height="1"/>
<rect x="273" y="91" width="1" height="1"/>
<rect x="278" y="91" width="1" height="1"/>
<rect x="282" y="91" width="1" height="1"/>
<rect x="285" y="91" width="1" height="1"/>
<rect x="289" y="91" width="2" height="1"/>
<rect x="293" y="91" width="1" height="1"/>
<rect x="28" y="92" width="30" height="1"/>
<rect x="63" y="92" width="3" height="1"/>
<rect x="67" y="92" width="4" height="1"/>
<rect x="72" y="92" width="2" height="1"/>
<rect x="75" y="92" width="4" height="1"/>
<rect x="80" y="92" width="2" height="1"/>
<rect x="83" y="92" width="1" height="1"/>
<rect x="85" y="92" width="4" height="1"/>
<rect x="90" y="92" width="34" height="1"/>
<rect x="158" y="92" width="1" height="1"/>
<rect x="161" y="92" width="1" height="1"/>
<rect x="165" y="92" width="1" height="1"/>
<rect x="170" y="92" width="1" height="1"/>
<rect x="173" y="92" width="1" height="1"/>
<rect x="178" y="92" width="1" height="1"/>
<rect x="183" y="92" width="1" height="1"/>
<rect x="186" y="92" width="1" height="1"/>
<rect x="191" y="92" width="1" height="1"/>
<rect x="194" y="92" width="1" height="1"/>
<rect x="199" y="92" width="1" height="1"/>
<rect x="273" y="92" width="1" height="1"/>
<rect x="282" y="92" width="1" height="1"/>
<rect x="285" y="92" width="1" height="1"/>
<rect x="290" y="92" width="1" height="1"/>
<rect x="293" y="92" width="1" height="1"/>
<rect x="28" y="93" width="30" height="1"/>
<rect x="59" y="93" width="4" height="1"/>
<rect x="65" y="93" width="1" height="1"/>
<rect x="67" y="93" width="4" height="1"/>
<rect x="72" y="93" width="2" height="1"/>
<rect x="75" y="93" width="4" height="1"/>
<rect x="80" y="93" width="2" height="1"/>
<rect x="85" y="93" width="5" height="1"/>
<rect x="93" y="93" width="31" height="1"/>
<rect x="157" y="93" width="6" height="1"/>
<rect x="165" y="93" width="1" height="1"/>
<rect x="170" y="93" width="1" height="1"/>
<rect x="173" y="93" width="1" height="1"/>
<rect x="178" y="93" width="1" height="1"/>
<rect x="183" y="93" width="1" height="1"/>
<rect x="186" y="93" width="1" height="1"/>
<rect x="191" y="93" width="1" height="1"/>
<rect x="194" y="93" width="1" height="1"/>
<rect x="200" y="93" width="3" height="1"/>
<rect x="273" y="93" width="1" height="1"/>
<rect x="278" y="93" width="5" height="1"/>
<rect x="285" y="93" width="1" height="1"/>
<rect x="290" y="93" width="1" height="1"/>
<rect x="294" y="93" width="3" height="1"/>
<rect x="28" y="94" width="30" height="1"/>
<rect x="59" y="94" width="4" height="1"/>
<rect x="65" y="94" width="1" height="1"/>
<rect x="67" y="94" width="4" height="1"/>
<rect x="72" y="94" width="2" height="1"/>
<rect x="75" y="94" width="4" height="1"/>
<rect x="80" y="94" width="2" height="1"/>
<rect x="83" y="94" width="2" height="1"/>
<rect x="86" y="94" width="6" height="1"/>
<rect x="94" y="94" width="30" height="1"/>
<rect x="157" y="94" width="1" height="1"/>
<rect x="162" y="94" width="1" height="1"/>
<rect x="165" y="94" width="1" height="1"/>
<rect x="170" y="94" width="1" height="1"/>
<rect x="173" y="94" width="1" height="1"/>
<rect x="178" y="94" width="1" height="1"/>
<rect x="183" y="94" width="1" height="1"/>
<rect x="186" y="94" width="1" height="1"/>
<rect x="191" y="94" width="1" height="1"/>
<rect x="194" y="94" width="1" height="1"/>
<rect x="202" y="94" width="2" height="1"/>
<rect x="273" y="94" width="1" height="1"/>
<rect x="278" y="94" width="1" height="1"/>
<rect x="282" y="94" width="1" height="1"/>
<rect x="285" y="94" width="1" height="1"/>
<rect x="290" y="94" width="1" height="1"/>
<rect x="296" y="94" width="2" height="1"/>
<rect x="28" y="95" width="30" height="1"/>
<rect x="59" y="95" width="4" height="1"/>
<rect x="65" y="95" width="1" height="1"/>
<rect x="67" y="95" width="3" height="1"/>
<rect x="72" y="95" width="2" height="1"/>
<rect x="75" y="95" width="3" height="1"/>
<rect x="80" y="95" width="2" height="1"/>
<rect x="83" y="95" width="2" height="1"/>
<rect x="87" y="95" width="5" height="1"/>
<rect x="94" y="95" width="30" height="1"/>
<rect x="157" y="95" width="1" height="1"/>
<rect x="163" y="95" width="1" height="1"/>
<rect x="165" y="95" width="1" height="1"/>
<rect x="169" y="95" width="2" height="1"/>
<rect x="173" y="95" width="1" height="1"/>
<rect x="178" y="95" width="1" height="1"/>
<rect x="183" y="95" width="1" height="1"/>
<rect x="186" y="95" width="1" height="1"/>
<rect x="190" y="95" width="2" height="1"/>
<rect x="194" y="95" width="1" height="1"/>
<rect x="202" y="95" width="2" height="1"/>
<rect x="273" y="95" width="1" height="1"/>
<rect x="278" y="95" width="1" height="1"/>
<rect x="282" y="95" width="1" height="1"/>
<rect x="285" y="95" width="1" height="1"/>
<rect x="289" y="95" width="2" height="1"/>
<rect x="296" y="95" width="2" height="1"/>
<rect x="28" y="96" width="30" height="1"/>
<rect x="64" y="96" width="3" height="1"/>
<rect x="71" y="96" width="4" height="1"/>
<rect x="79" y="96" width="3" height="1"/>
<rect x="83" y="96" width="3" height="1"/>
<rect x="88" y="96" width="1" height="1"/>
<rect x="93" y="96" width="31" height="1"/>
<rect x="156" y="96" width="1" height="1"/>
<rect x="163" y="96" width="1" height="1"/>
<rect x="166" y="96" width="3" height="1"/>
<rect x="170" y="96" width="1" height="1"/>
<rect x="174" y="96" width="2" height="1"/>
<rect x="178" y="96" width="1" height="1"/>
<rect x="183" y="96" width="1" height="1"/>
<rect x="187" y="96" width="4" height="1"/>
<rect x="194" y="96" width="1" height="1"/>
<rect x="199" y="96" width="4" height="1"/>
<rect x="273" y="96" width="1" height="1"/>
<rect x="278" y="96" width="5" height="1"/>
<rect x="286" y="96" width="3" height="1"/>
<rect x="290" y="96" width="1" height="1"/>
<rect x="293" y="96" width="4" height="1"/>
<rect x="28" y="97" width="96" height="1"/>
<rect x="290" y="97" width="1" height="1"/>
<rect x="28" y="98" width="96" height="1"/>
<rect x="289" y="98" width="2" height="1"/>
<rect x="28" y="99" width="96" height="1"/>
<rect x="285" y="99" width="5" height="1"/>
<rect x="28" y="100" width="96" height="1"/>
<rect x="28" y="101" width="96" height="1"/>
<rect x="28" y="102" width="96" height="1"/>
<rect x="28" y="103" width="96" height="1"/>
<rect x="28" y="104" width="96" height="1"/>
<rect x="28" y="105" width="96" height="1"/>
<rect x="28" y="106" width="96" height="1"/>
<rect x="28" y="107" width="96" height="1"/>
<rect x="28" y="108" width="96" height="1"/>
<rect x="28" y="109" width="96" height="1"/>
<rect x="28" y="110" width="96" height="1"/>
<rect x="24" y="119" width="312" height="1"/>
</g>
</svg>
