<svg xmlns="http://www.w3.org/2000/svg" viewBox="0 0 360 180" width="360" height="180" shape-rendering="crispEdges">
<rect width="100%" height="100%" fill="#fff"/>
<g fill="#111">
<rect x="30" y="0" width="1" height="1"/>
<rect x="87" y="0" width="2" height="1"/>
<rect x="119" y="0" width="1" height="1"/>
<rect x="30" y="1" width="1" height="1"/>
<rect x="88" y="1" width="1" height="1"/>
<rect x="119" y="1" width="1" height="1"/>
<rect x="30" y="2" width="1" height="1"/>
<rect x="88" y="2" width="3" height="1"/>
<rect x="119" y="2" width="1" height="1"/>
<rect x="30" y="3" width="1" height="1"/>
<rect x="82" y="3" width="18" height="1"/>
<rect x="119" y="3" width="1" height="1"/>
<rect x="30" y="4" width="1" height="1"/>
<rect x="82" y="4" width="18" height="1"/>
<rect x="119" y="4" width="1" height="1"/>
<rect x="30" y="5" width="1" height="1"/>
<rect x="119" y="5" width="1" height="1"/>
<rect x="30" y="6" width="1" height="1"/>
<rect x="119" y="6" width="1" height="1"/>
<rect x="30" y="7" width="1" height="1"/>
<rect x="119" y="7" width="1" height="1"/>
<rect x="30" y="8" width="1" height="1"/>
<rect x="88" y="8" width="2" height="1"/>
<rect x="99" y="8" width="2" height="1"/>
<rect x="119" y="8" width="1" height="1"/>
<rect x="30" y="9" width="1" height="1"/>
<rect x="88" y="9" width="2" height="1"/>
<rect x="99" y="9" width="2" height="1"/>
<rect x="119" y="9" width="1" height="1"/>
<rect x="30" y="10" width="1" height="1"/>
<rect x="88" y="10" width="2" height="1"/>
<rect x="99" y="10" width="2" height="1"/>
<rect x="119" y="10" width="1" height="1"/>
<rect x="30" y="11" width="1" height="1"/>
<rect x="88" y="11" width="2" height="1"/>
<rect x="98" y="11" width="3" height="1"/>
<rect x="119" y="11" width="1" height="1"/>
<rect x="30" y="12" width="1" height="1"/>
<rect x="85" y="12" width="16" height="1"/>
<rect x="119" y="12" width="1" height="1"/>
<rect x="30" y="13" width="1" height="1"/>
<rect x="87" y="13" width="12" height="1"/>
<rect x="119" y="13" width="1" height="1"/>
<rect x="30" y="14" width="1" height="1"/>
<rect x="88" y="14" width="2" height="1"/>
<rect x="119" y="14" width="1" height="1"/>
<rect x="30" y="15" width="1" height="1"/>
<rect x="89" y="15" width="1" height="1"/>
<rect x="119" y="15" width="1" height="1"/>
<rect x="30" y="16" width="1" height="1"/>
<rect x="119" y="16" width="1" height="1"/>
<rect x="30" y="17" width="1" height="1"/>
<rect x="119" y="17" width="1" height="1"/>
<rect x="30" y="18" width="1" height="1"/>
<rect x="88" y="18" width="13" height="1"/>
<rect x="119" y="18" width="1" height="1"/>
<rect x="30" y="19" width="1" height="1"/>
<rect x="88" y="19" width="13" height="1"/>
<rect x="119" y="19" width="1" height="1"/>
<rect x="30" y="20" width="1" height="1"/>
<rect x="97" y="20" width="3" height="1"/>
<rect x="119" y="20" width="1" height="1"/>
<rect x="30" y="21" width="1" height="1"/>
<rect x="99" y="21" width="1" height="1"/>
<rect x="119" y="21" width="1" height="1"/>
<rect x="30" y="22" width="1" height="1"/>
<rect x="99" y="22" width="2" height="1"/>
<rect x="119" y="22" width="1" height="1"/>
<rect x="30" y="23" width="1" height="1"/>
<rect x="99" y="23" width="2" height="1"/>
<rect x="119" y="23" width="1" height="1"/>
<rect x="30" y="24" width="1" height="1"/>
<rect x="99" y="24" width="2" height="1"/>
<rect x="119" y="24" width="1" height="1"/>
<rect x="30" y="25" width="1" height="1"/>
<rect x="99" y="25" width="2" height="1"/>
<rect x="119" y="25" width="1" height="1"/>
<rect x="30" y="26" width="1" height="1"/>
<rect x="98" y="26" width="3" height="1"/>
<rect x="119" y="26" width="1" height="1"/>
<rect x="30" y="27" width="1" height="1"/>
<rect x="88" y="27" width="12" height="1"/>
<rect x="119" y="27" width="1" height="1"/>
<rect x="30" y="28" width="1" height="1"/>
<rect x="88" y="28" width="11" height="1"/>
<rect x="119" y="28" width="1" height="1"/>
<rect x="30" y="29" width="1" height="1"/>
<rect x="119" y="29" width="1" height="1"/>
<rect x="30" y="30" width="1" height="1"/>
<rect x="119" y="30" width="1" height="1"/>
<rect x="30" y="31" width="1" height="1"/>
<rect x="98" y="31" width="2" height="1"/>
<rect x="119" y="31" width="1" height="1"/>
<rect x="30" y="32" width="1" height="1"/>
<rect x="95" y="32" width="5" height="1"/>
<rect x="119" y="32" width="1" height="1"/>
<rect x="30" y="33" width="1" height="1"/>
<rect x="93" y="33" width="6" height="1"/>
<rect x="119" y="33" width="1" height="1"/>
<rect x="30" y="34" width="1" height="1"/>
<rect x="90" y="34" width="6" height="1"/>
<rect x="119" y="34" width="1" height="1"/>
<rect x="30" y="35" width="1" height="1"/>
<rect x="88" y="35" width="7" height="1"/>
<rect x="119" y="35" width="1" height="1"/>
<rect x="30" y="36" width="1" height="1"/>
<rect x="85" y="36" width="5" height="1"/>
<rect x="93" y="36" width="2" height="1"/>
<rect x="119" y="36" width="1" height="1"/>
<rect x="30" y="37" width="1" height="1"/>
<rect x="83" y="37" width="5" height="1"/>
<rect x="93" y="37" width="2" height="1"/>
<rect x="119" y="37" width="1" height="1"/>
<rect x="30" y="38" width="1" height="1"/>
<rect x="83" y="38" width="3" height="1"/>
<rect x="93" y="38" width="2" height="1"/>
<rect x="119" y="38" width="1" height="1"/>
<rect x="30" y="39" width="1" height="1"/>
<rect x="83" y="39" width="6" height="1"/>
<rect x="93" y="39" width="2" height="1"/>
<rect x="119" y="39" width="1" height="1"/>
<rect x="30" y="40" width="1" height="1"/>
<rect x="86" y="40" width="5" height="1"/>
<rect x="93" y="40" width="2" height="1"/>
<rect x="119" y="40" width="1" height="1"/>
<rect x="30" y="41" width="1" height="1"/>
<rect x="88" y="41" width="7" height="1"/>
<rect x="119" y="41" width="1" height="1"/>
<rect x="30" y="42" width="1" height="1"/>
<rect x="91" y="42" width="6" height="1"/>
<rect x="119" y="42" width="1" height="1"/>
<rect x="30" y="43" width="1" height="1"/>
<rect x="94" y="43" width="5" height="1"/>
<rect x="119" y="43" width="1" height="1"/>
<rect x="30" y="44" width="1" height="1"/>
<rect x="96" y="44" width="4" height="1"/>
<rect x="119" y="44" width="1" height="1"/>
<rect x="30" y="45" width="1" height="1"/>
<rect x="99" y="45" width="1" height="1"/>
<rect x="119" y="45" width="1" height="1"/>
<rect x="30" y="46" width="1" height="1"/>
<rect x="119" y="46" width="1" height="1"/>
<rect x="30" y="47" width="1" height="1"/>
<rect x="119" y="47" width="1" height="1"/>
<rect x="30" y="48" width="1" height="1"/>
<rect x="119" y="48" width="1" height="1"/>
<rect x="30" y="49" width="1" height="1"/>
<rect x="119" y="49" width="1" height="1"/>
<rect x="30" y="50" width="1" height="1"/>
<rect x="119" y="50" width="1" height="1"/>
<rect x="30" y="51" width="1" height="1"/>
<rect x="119" y="51" width="1" height="1"/>
<rect x="30" y="52" width="1" height="1"/>
<rect x="119" y="52" width="1" height="1"/>
<rect x="30" y="53" width="1" height="1"/>
<rect x="119" y="53" width="1" height="1"/>
<rect x="30" y="54" width="1" height="1"/>
<rect x="119" y="54" width="1" height="1"/>
<rect x="30" y="55" width="1" height="1"/>
<rect x="119" y="55" width="1" height="1"/>
<rect x="30" y="56" width="1" height="1"/>
<rect x="74" y="56" width="37" height="1"/>
<rect x="119" y="56" width="1" height="1"/>
<rect x="30" y="57" width="1" height="1"/>
<rect x="74" y="57" width="37" height="1"/>
<rect x="119" y="57" width="1" height="1"/>
<rect x="30" y="58" width="1" height="1"/>
<rect x="74" y="58" width="37" height="1"/>
<rect x="119" y="58" width="1" height="1"/>
<rect x="30" y="59" width="1" height="1"/>
<rect x="74" y="59" width="37" height="1"/>
<rect x="119" y="59" width="1" height="1"/>
<rect x="30" y="60" width="1" height="1"/>
<rect x="74" y="60" width="37" height="1"/>
<rect x="119" y="60" width="1" height="1"/>
<rect x="30" y="61" width="1" height="1"/>
<rect x="74" y="61" width="37" height="1"/>
<rect x="119" y="61" width="1" height="1"/>
<rect x="30" y="62" width="1" height="1"/>
<rect x="74" y="62" width="37" height="1"/>
<rect x="119" y="62" width="1" height="1"/>
<rect x="30" y="63" width="1" height="1"/>
<rect x="74" y="63" width="37" height="1"/>
<rect x="119" y="63" width="1" height="1"/>
<rect x="30" y="64" width="1" height="1"/>
<rect x="74" y="64" width="37" height="1"/>
<rect x="119" y="64" width="1" height="1"/>
<rect x="30" y="65" width="1" height="1"/>
<rect x="74" y="65" width="37" height="1"/>
<rect x="119" y="65" width="1" height="1"/>
<rect x="30" y="66" width="1" height="1"/>
<rect x="74" y="66" width="37" height="1"/>
<rect x="119" y="66" width="1" height="1"/>
<rect x="30" y="67" width="1" height="1"/>
<rect x="74" y="67" width="37" height="1"/>
<rect x="119" y="67" width="1" height="1"/>
<rect x="30" y="68" width="1" height="1"/>
<rect x="74" y="68" width="37" height="1"/>
<rect x="119" y="68" width="1" height="1"/>
<rect x="30" y="69" width="1" height="1"/>
<rect x="74" y="69" width="37" height="1"/>
<rect x="119" y="69" width="1" height="1"/>
<rect x="30" y="70" width="1" height="1"/>
<rect x="74" y="70" width="37" height="1"/>
<rect x="119" y="70" width="1" height="1"/>
<rect x="30" y="71" width="1" height="1"/>
<rect x="74" y="71" width="13" height="1"/>
<rect x="89" y="71" width="5" height="1"/>
<rect x="99" y="71" width="12" height="1"/>
<rect x="119" y="71" width="1" height="1"/>
<rect x="30" y="72" width="1" height="1"/>
<rect x="74" y="72" width="13" height="1"/>
<rect x="89" y="72" width="4" height="1"/>
<rect x="100" y="72" width="11" height="1"/>
<rect x="119" y="72" width="1" height="1"/>
<rect x="30" y="73" width="1" height="1"/>
<rect x="74" y="73" width="13" height="1"/>
<rect x="89" y="73" width="4" height="1"/>
<rect x="95" y="73" width="3" height="1"/>
<rect x="100" y="73" width="11" height="1"/>
<rect x="119" y="73" width="1" height="1"/>
<rect x="30" y="74" width="1" height="1"/>
<rect x="74" y="74" width="13" height="1"/>
<rect x="89" y="74" width="4" height="1"/>
<rect x="95" y="74" width="3" height="1"/>
<rect x="100" y="74" width="11" height="1"/>
<rect x="119" y="74" width="1" height="1"/>
<rect x="30" y="75" width="1" height="1"/>
<rect x="74" y="75" width="13" height="1"/>
<rect x="89" y="75" width="3" height="1"/>
<rect x="94" y="75" width="5" height="1"/>
<rect x="100" y="75" width="11" height="1"/>
<rect x="119" y="75" width="1" height="1"/>
<rect x="30" y="76" width="1" height="1"/>
<rect x="74" y="76" width="13" height="1"/>
<rect x="89" y="76" width="3" height="1"/>
<rect x="94" y="76" width="4" height="1"/>
<rect x="100" y="76" width="11" height="1"/>
<rect x="119" y="76" width="1" height="1"/>
<rect x="30" y="77" width="1" height="1"/>
<rect x="74" y="77" width="13" height="1"/>
<rect x="89" y="77" width="2" height="1"/>
<rect x="93" y="77" width="5" height="1"/>
<rect x="100" y="77" width="11" height="1"/>
<rect x="119" y="77" width="1" height="1"/>
<rect x="30" y="78" width="1" height="1"/>
<rect x="74" y="78" width="14" height="1"/>
<rect x="93" y="78" width="5" height="1"/>
<rect x="100" y="78" width="11" height="1"/>
<rect x="119" y="78" width="1" height="1"/>
<rect x="30" y="79" width="1" height="1"/>
<rect x="74" y="79" width="15" height="1"/>
<rect x="92" y="79" width="5" height="1"/>
<rect x="100" y="79" width="11" height="1"/>
<rect x="119" y="79" width="1" height="1"/>
<rect x="30" y="80" width="1" height="1"/>
<rect x="74" y="80" width="37" height="1"/>
<rect x="119" y="80" width="1" height="1"/>
<rect x="30" y="81" width="1" height="1"/>
<rect x="74" y="81" width="25" height="1"/>
<rect x="100" y="81" width="11" height="1"/>
<rect x="119" y="81" width="1" height="1"/>
<rect x="30" y="82" width="1" height="1"/>
<rect x="74" y="82" width="13" height="1"/>
<rect x="88" y="82" width="11" height="1"/>
<rect x="100" y="82" width="11" height="1"/>
<rect x="119" y="82" width="1" height="1"/>
<rect x="30" y="83" width="1" height="1"/>
<rect x="74" y="83" width="13" height="1"/>
<rect x="89" y="83" width="8" height="1"/>
<rect x="100" y="83" width="11" height="1"/>
<rect x="119" y="83" width="1" height="1"/>
<rect x="30" y="84" width="1" height="1"/>
<rect x="74" y="84" width="13" height="1"/>
<rect x="90" y="84" width="6" height="1"/>
<rect x="99" y="84" width="12" height="1"/>
<rect x="119" y="84" width="1" height="1"/>
<rect x="30" y="85" width="1" height="1"/>
<rect x="74" y="85" width="14" height="1"/>
<rect x="91" y="85" width="4" height="1"/>
<rect x="98" y="85" width="13" height="1"/>
<rect x="119" y="85" width="1" height="1"/>
<rect x="30" y="86" width="1" height="1"/>
<rect x="74" y="86" width="16" height="1"/>
<rect x="92" y="86" width="1" height="1"/>
<rect x="97" y="86" width="14" height="1"/>
<rect x="119" y="86" width="1" height="1"/>
<rect x="30" y="87" width="1" height="1"/>
<rect x="74" y="87" width="17" height="1"/>
<rect x="95" y="87" width="16" height="1"/>
<rect x="119" y="87" width="1" height="1"/>
<rect x="22" y="88" width="1" height="1"/>
<rect x="30" y="88" width="1" height="1"/>
<rect x="74" y="88" width="18" height="1"/>
<rect x="94" y="88" width="17" height="1"/>
<rect x="119" y="88" width="1" height="1"/>
<rect x="22" y="89" width="2" height="1"/>
<rect x="30" y="89" width="1" height="1"/>
<rect x="74" y="89" width="19" height="1"/>
<rect x="95" y="89" width="16" height="1"/>
<rect x="119" y="89" width="1" height="1"/>
<rect x="22" y="90" width="2" height="1"/>
<rect x="30" y="90" width="1" height="1"/>
<rect x="74" y="90" width="8" height="1"/>
<rect x="100" y="90" width="11" height="1"/>
<rect x="119" y="90" width="1" height="1"/>
<rect x="22" y="91" width="2" height="1"/>
<rect x="30" y="91" width="1" height="1"/>
<rect x="74" y="91" width="8" height="1"/>
<rect x="100" y="91" width="11" height="1"/>
<rect x="119" y="91" width="1" height="1"/>
<rect x="23" y="92" width="2" height="1"/>
<rect x="30" y="92" width="1" height="1"/>
<rect x="74" y="92" width="37" height="1"/>
<rect x="119" y="92" width="1" height="1"/>
<rect x="24" y="93" width="2" height="1"/>
<rect x="30" y="93" width="1" height="1"/>
<rect x="74" y="93" width="37" height="1"/>
<rect x="119" y="93" width="1" height="1"/>
<rect x="22" y="94" width="13" height="1"/>
<rect x="74" y="94" width="37" height="1"/>
<rect x="119" y="94" width="1" height="1"/>
<rect x="22" y="95" width="13" height="1"/>
<rect x="74" y="95" width="37" height="1"/>
<rect x="119" y="95" width="1" height="1"/>
<rect x="30" y="96" width="1" height="1"/>
<rect x="74" y="96" width="16" height="1"/>
<rect x="97" y="96" width="14" height="1"/>
<rect x="119" y="96" width="1" height="1"/>
<rect x="30" y="97" width="1" height="1"/>
<rect x="74" y="97" width="15" height="1"/>
<rect x="99" y="97" width="12" height="1"/>
<rect x="119" y="97" width="1" height="1"/>
<rect x="30" y="98" width="1" height="1"/>
<rect x="74" y="98" width="14" height="1"/>
<rect x="91" y="98" width="5" height="1"/>
<rect x="99" y="98" width="12" height="1"/>
<rect x="119" y="98" width="1" height="1"/>
<rect x="26" y="99" width="9" height="1"/>
<rect x="74" y="99" width="13" height="1"/>
<rect x="89" y="99" width="9" height="1"/>
<rect x="100" y="99" width="11" height="1"/>
<rect x="119" y="99" width="1" height="1"/>
<rect x="23" y="100" width="12" height="1"/>
<rect x="74" y="100" width="13" height="1"/>
<rect x="89" y="100" width="9" height="1"/>
<rect x="100" y="100" width="11" height="1"/>
<rect x="119" y="100" width="1" height="1"/>
<rect x="22" y="101" width="11" height="1"/>
<rect x="74" y="101" width="13" height="1"/>
<rect x="89" y="101" width="9" height="1"/>
<rect x="100" y="101" width="11" height="1"/>
<rect x="119" y="101" width="1" height="1"/>
<rect x="22" y="102" width="2" height="1"/>
<rect x="27" y="102" width="2" height="1"/>
<rect x="30" y="102" width="1" height="1"/>
<rect x="32" y="102" width="2" height="1"/>
<rect x="74" y="102" width="13" height="1"/>
<rect x="89" y="102" width="9" height="1"/>
<rect x="100" y="102" width="11" height="1"/>
<rect x="119" y="102" width="1" height="1"/>
<rect x="22" y="103" width="2" height="1"/>
<rect x="27" y="103" width="2" height="1"/>
<rect x="30" y="103" width="1" height="1"/>
<rect x="33" y="103" width="2" height="1"/>
<rect x="74" y="103" width="13" height="1"/>
<rect x="89" y="103" width="9" height="1"/>
<rect x="100" y="103" width="11" height="1"/>
<rect x="119" y="103" width="1" height="1"/>
<rect x="22" y="104" width="2" height="1"/>
<rect x="27" y="104" width="2" height="1"/>
<rect x="30" y="104" width="1" height="1"/>
<rect x="33" y="104" width="2" height="1"/>
<rect x="74" y="104" width="13" height="1"/>
<rect x="90" y="104" width="7" height="1"/>
<rect x="100" y="104" width="11" height="1"/>
<rect x="119" y="104" width="1" height="1"/>
<rect x="22" y="105" width="2" height="1"/>
<rect x="27" y="105" width="2" height="1"/>
<rect x="30" y="105" width="1" height="1"/>
<rect x="34" y="105" width="1" height="1"/>
<rect x="74" y="105" width="14" height="1"/>
<rect x="99" y="105" width="12" height="1"/>
<rect x="119" y="105" width="1" height="1"/>
<rect x="22" y="106" width="2" height="1"/>
<rect x="28" y="106" width="1" height="1"/>
<rect x="30" y="106" width="1" height="1"/>
<rect x="33" y="106" width="2" height="1"/>
<rect x="74" y="106" width="15" height="1"/>
<rect x="98" y="106" width="13" height="1"/>
<rect x="119" y="106" width="1" height="1"/>
<rect x="23" y="107" width="2" height="1"/>
<rect x="28" y="107" width="3" height="1"/>
<rect x="32" y="107" width="3" height="1"/>
<rect x="74" y="107" width="17" height="1"/>
<rect x="96" y="107" width="15" height="1"/>
<rect x="119" y="107" width="1" height="1"/>
<rect x="29" y="108" width="6" height="1"/>
<rect x="74" y="108" width="37" height="1"/>
<rect x="119" y="108" width="1" height="1"/>
<rect x="30" y="109" width="3" height="1"/>
<rect x="74" y="109" width="37" height="1"/>
<rect x="119" y="109" width="1" height="1"/>
<rect x="30" y="110" width="1" height="1"/>
<rect x="74" y="110" width="37" height="1"/>
<rect x="119" y="110" width="1" height="1"/>
<rect x="30" y="111" width="1" height="1"/>
<rect x="74" y="111" width="16" height="1"/>
<rect x="97" y="111" width="14" height="1"/>
<rect x="119" y="111" width="1" height="1"/>
<rect x="30" y="112" width="1" height="1"/>
<rect x="74" y="112" width="15" height="1"/>
<rect x="99" y="112" width="12" height="1"/>
<rect x="119" y="112" width="1" height="1"/>
<rect x="21" y="113" width="3" height="1"/>
<rect x="28" y="113" width="5" height="1"/>
<rect x="74" y="113" width="14" height="1"/>
<rect x="91" y="113" width="5" height="1"/>
<rect x="99" y="113" width="12" height="1"/>
<rect x="119" y="113" width="1" height="1"/>
<rect x="19" y="114" width="6" height="1"/>
<rect x="27" y="114" width="7" height="1"/>
<rect x="74" y="114" width="13" height="1"/>
<rect x="89" y="114" width="9" height="1"/>
<rect x="100" y="114" width="11" height="1"/>
<rect x="119" y="114" width="1" height="1"/>
<rect x="19" y="115" width="9" height="1"/>
<rect x="30" y="115" width="1" height="1"/>
<rect x="32" y="115" width="2" height="1"/>
<rect x="74" y="115" width="13" height="1"/>
<rect x="89" y="115" width="9" height="1"/>
<rect x="100" y="115" width="11" height="1"/>
<rect x="119" y="115" width="1" height="1"/>
<rect x="18" y="116" width="2" height="1"/>
<rect x="25" y="116" width="2" height="1"/>
<rect x="30" y="116" width="1" height="1"/>
<rect x="33" y="116" width="2" height="1"/>
<rect x="74" y="116" width="13" height="1"/>
<rect x="89" y="116" width="9" height="1"/>
<rect x="100" y="116" width="11" height="1"/>
<rect x="119" y="116" width="1" height="1"/>
<rect x="18" y="117" width="2" height="1"/>
<rect x="25" y="117" width="2" height="1"/>
<rect x="30" y="117" width="1" height="1"/>
<rect x="33" y="117" width="2" height="1"/>
<rect x="74" y="117" width="13" height="1"/>
<rect x="89" y="117" width="9" height="1"/>
<rect x="100" y="117" width="11" height="1"/>
<rect x="119" y="117" width="1" height="1"/>
<rect x="18" y="118" width="2" height="1"/>
<rect x="25" y="118" width="2" height="1"/>
<rect x="30" y="118" width="1" height="1"/>
<rect x="33" y="118" width="2" height="1"/>
<rect x="74" y="118" width="13" height="1"/>
<rect x="89" y="118" width="9" height="1"/>
<rect x="100" y="118" width="11" height="1"/>
<rect x="119" y="118" width="1" height="1"/>
<rect x="18" y="119" width="2" height="1"/>
<rect x="25" y="119" width="2" height="1"/>
<rect x="30" y="119" width="1" height="1"/>
<rect x="33" y="119" width="2" height="1"/>
<rect x="74" y="119" width="13" height="1"/>
<rect x="90" y="119" width="7" height="1"/>
<rect x="100" y="119" width="11" height="1"/>
<rect x="119" y="119" width="1" height="1"/>
<rect x="18" y="120" width="2" height="1"/>
<rect x="25" y="120" width="2" height="1"/>
<rect x="30" y="120" width="1" height="1"/>
<rect x="33" y="120" width="2" height="1"/>
<rect x="74" y="120" width="14" height="1"/>
<rect x="99" y="120" width="12" height="1"/>
<rect x="119" y="120" width="1" height="1"/>
<rect x="18" y="121" width="2" height="1"/>
<rect x="25" y="121" width="2" height="1"/>
<rect x="30" y="121" width="1" height="1"/>
<rect x="33" y="121" width="2" height="1"/>
<rect x="74" y="121" width="15" height="1"/>
<rect x="98" y="121" width="13" height="1"/>
<rect x="119" y="121" width="1" height="1"/>
<rect x="18" y="122" width="2" height="1"/>
<rect x="25" y="122" width="2" height="1"/>
<rect x="30" y="122" width="1" height="1"/>
<rect x="33" y="122" width="2" height="1"/>
<rect x="74" y="122" width="17" height="1"/>
<rect x="96" y="122" width="15" height="1"/>
<rect x="119" y="122" width="1" height="1"/>
<rect x="18" y="123" width="17" height="1"/>
<rect x="74" y="123" width="37" height="1"/>
<rect x="119" y="123" width="1" height="1"/>
<rect x="18" y="124" width="17" height="1"/>
<rect x="74" y="124" width="37" height="1"/>
<rect x="119" y="124" width="1" height="1"/>
<rect x="30" y="125" width="1" height="1"/>
<rect x="74" y="125" width="37" height="1"/>
<rect x="119" y="125" width="1" height="1"/>
<rect x="30" y="126" width="1" height="1"/>
<rect x="74" y="126" width="12" height="1"/>
<rect x="89" y="126" width="4" height="1"/>
<rect x="98" y="126" width="13" height="1"/>
<rect x="119" y="126" width="1" height="1"/>
<rect x="30" y="127" width="1" height="1"/>
<rect x="74" y="127" width="10" height="1"/>
<rect x="90" y="127" width="2" height="1"/>
<rect x="99" y="127" width="12" height="1"/>
<rect x="119" y="127" width="1" height="1"/>
<rect x="30" y="128" width="1" height="1"/>
<rect x="74" y="128" width="10" height="1"/>
<rect x="93" y="128" width="4" height="1"/>
<rect x="99" y="128" width="12" height="1"/>
<rect x="119" y="128" width="1" height="1"/>
<rect x="24" y="129" width="9" height="1"/>
<rect x="74" y="129" width="9" height="1"/>
<rect x="85" y="129" width="5" height="1"/>
<rect x="92" y="129" width="6" height="1"/>
<rect x="100" y="129" width="11" height="1"/>
<rect x="119" y="129" width="1" height="1"/>
<rect x="23" y="130" width="11" height="1"/>
<rect x="74" y="130" width="9" height="1"/>
<rect x="85" y="130" width="5" height="1"/>
<rect x="92" y="130" width="6" height="1"/>
<rect x="100" y="130" width="11" height="1"/>
<rect x="119" y="130" width="1" height="1"/>
<rect x="22" y="131" width="3" height="1"/>
<rect x="30" y="131" width="1" height="1"/>
<rect x="32" y="131" width="3" height="1"/>
<rect x="74" y="131" width="9" height="1"/>
<rect x="85" y="131" width="5" height="1"/>
<rect x="92" y="131" width="6" height="1"/>
<rect x="100" y="131" width="11" height="1"/>
<rect x="119" y="131" width="1" height="1"/>
<rect x="22" y="132" width="2" height="1"/>
<rect x="30" y="132" width="1" height="1"/>
<rect x="33" y="132" width="2" height="1"/>
<rect x="74" y="132" width="9" height="1"/>
<rect x="85" y="132" width="5" height="1"/>
<rect x="92" y="132" width="6" height="1"/>
<rect x="100" y="132" width="11" height="1"/>
<rect x="119" y="132" width="1" height="1"/>
<rect x="22" y="133" width="2" height="1"/>
<rect x="30" y="133" width="1" height="1"/>
<rect x="33" y="133" width="2" height="1"/>
<rect x="74" y="133" width="9" height="1"/>
<rect x="85" y="133" width="5" height="1"/>
<rect x="92" y="133" width="6" height="1"/>
<rect x="100" y="133" width="11" height="1"/>
<rect x="119" y="133" width="1" height="1"/>
<rect x="22" y="134" width="2" height="1"/>
<rect x="30" y="134" width="1" height="1"/>
<rect x="33" y="134" width="2" height="1"/>
<rect x="74" y="134" width="9" height="1"/>
<rect x="85" y="134" width="5" height="1"/>
<rect x="92" y="134" width="6" height="1"/>
<rect x="100" y="134" width="11" height="1"/>
<rect x="119" y="134" width="1" height="1"/>
<rect x="22" y="135" width="2" height="1"/>
<rect x="30" y="135" width="1" height="1"/>
<rect x="33" y="135" width="2" height="1"/>
<rect x="74" y="135" width="9" height="1"/>
<rect x="85" y="135" width="5" height="1"/>
<rect x="92" y="135" width="6" height="1"/>
<rect x="100" y="135" width="11" height="1"/>
<rect x="119" y="135" width="1" height="1"/>
<rect x="23" y="136" width="1" height="1"/>
<rect x="30" y="136" width="1" height="1"/>
<rect x="33" y="136" width="2" height="1"/>
<rect x="74" y="136" width="9" height="1"/>
<rect x="100" y="136" width="11" height="1"/>
<rect x="119" y="136" width="1" height="1"/>
<rect x="23" y="137" width="3" height="1"/>
<rect x="30" y="137" width="4" height="1"/>
<rect x="74" y="137" width="9" height="1"/>
<rect x="100" y="137" width="11" height="1"/>
<rect x="119" y="137" width="1" height="1"/>
<rect x="17" y="138" width="18" height="1"/>
<rect x="74" y="138" width="37" height="1"/>
<rect x="119" y="138" width="1" height="1"/>
<rect x="17" y="139" width="18" height="1"/>
<rect x="74" y="139" width="37" height="1"/>
<rect x="119" y="139" width="1" height="1"/>
<rect x="30" y="140" width="1" height="1"/>
<rect x="74" y="140" width="37" height="1"/>
<rect x="119" y="140" width="1" height="1"/>
<rect x="30" y="141" width="1" height="1"/>
<rect x="74" y="141" width="37" height="1"/>
<rect x="119" y="141" width="1" height="1"/>
<rect x="30" y="142" width="1" height="1"/>
<rect x="74" y="142" width="37" height="1"/>
<rect x="119" y="142" width="1" height="1"/>
<rect x="26" y="143" width="9" height="1"/>
<rect x="74" y="143" width="37" height="1"/>
<rect x="119" y="143" width="1" height="1"/>
<rect x="23" y="144" width="12" height="1"/>
<rect x="74" y="144" width="37" height="1"/>
<rect x="119" y="144" width="1" height="1"/>
<rect x="22" y="145" width="11" height="1"/>
<rect x="74" y="145" width="37" height="1"/>
<rect x="119" y="145" width="1" height="1"/>
<rect x="22" y="146" width="2" height="1"/>
<rect x="27" y="146" width="2" height="1"/>
<rect x="30" y="146" width="1" height="1"/>
<rect x="32" y="146" width="2" height="1"/>
<rect x="74" y="146" width="37" height="1"/>
<rect x="119" y="146" width="1" height="1"/>
<rect x="22" y="147" width="2" height="1"/>
<rect x="27" y="147" width="2" height="1"/>
<rect x="30" y="147" width="1" height="1"/>
<rect x="33" y="147" width="2" height="1"/>
<rect x="74" y="147" width="37" height="1"/>
<rect x="119" y="147" width="1" height="1"/>
<rect x="22" y="148" width="2" height="1"/>
<rect x="27" y="148" width="2" height="1"/>
<rect x="30" y="148" width="1" height="1"/>
<rect x="33" y="148" width="2" height="1"/>
<rect x="74" y="148" width="37" height="1"/>
<rect x="119" y="148" width="1" height="1"/>
<rect x="22" y="149" width="2" height="1"/>
<rect x="27" y="149" width="2" height="1"/>
<rect x="30" y="149" width="1" height="1"/>
<rect x="34" y="149" width="1" height="1"/>
<rect x="74" y="149" width="37" height="1"/>
<rect x="119" y="149" width="1" height="1"/>
<rect x="22" y="150" width="2" height="1"/>
<rect x="28" y="150" width="1" height="1"/>
<rect x="30" y="150" width="1" height="1"/>
<rect x="33" y="150" width="2" height="1"/>
<rect x="74" y="150" width="37" height="1"/>
<rect x="119" y="150" width="1" height="1"/>
<rect x="23" y="151" width="2" height="1"/>
<rect x="28" y="151" width="3" height="1"/>
<rect x="32" y="151" width="3" height="1"/>
<rect x="74" y="151" width="37" height="1"/>
<rect x="119" y="151" width="1" height="1"/>
<rect x="29" y="152" width="6" height="1"/>
<rect x="119" y="152" width="1" height="1"/>
<rect x="30" y="153" width="3" height="1"/>
<rect x="119" y="153" width="1" height="1"/>
<rect x="30" y="154" width="1" height="1"/>
<rect x="119" y="154" width="1" height="1"/>
<rect x="30" y="155" width="1" height="1"/>
<rect x="119" y="155" width="1" height="1"/>
<rect x="23" y="156" width="2" height="1"/>
<rect x="30" y="156" width="1" height="1"/>
<rect x="34" y="156" width="2" height="1"/>
<rect x="23" y="157" width="2" height="1"/>
<rect x="30" y="157" width="1" height="1"/>
<rect x="34" y="157" width="2" height="1"/>
<rect x="23" y="158" width="2" height="1"/>
<rect x="30" y="158" width="1" height="1"/>
<rect x="34" y="158" width="2" height="1"/>
<rect x="23" y="159" width="2" height="1"/>
<rect x="30" y="159" width="1" height="1"/>
<rect x="33" y="159" width="3" height="1"/>
<rect x="20" y="160" width="16" height="1"/>
<rect x="22" y="161" width="12" height="1"/>
<rect x="23" y="162" width="2" height="1"/>
<rect x="30" y="162" width="1" height="1"/>
<rect x="24" y="163" width="1" height="1"/>
<rect x="30" y="163" width="1" height="1"/>
</g>
</svg>
