<svg xmlns="http://www.w3.org/2000/svg" viewBox="0 0 360 180" width="360" height="180" shape-rendering="crispEdges">
<rect width="100%" height="100%" fill="#fff"/>
<g fill="#111">
<rect x="29" y="16" width="1" height="1"/>
<rect x="37" y="16" width="1" height="1"/>
<rect x="17" y="17" width="1" height="1"/>
<rect x="29" y="17" width="1" height="1"/>
<rect x="37" y="17" width="1" height="1"/>
<rect x="17" y="18" width="1" height="1"/>
<rect x="29" y="18" width="1" height="1"/>
<rect x="37" y="18" width="1" height="1"/>
<rect x="16" y="19" width="4" height="1"/>
<rect x="23" y="19" width="4" height="1"/>
<rect x="29" y="19" width="1" height="1"/>
<rect x="31" y="19" width="3" height="1"/>
<rect x="37" y="19" width="1" height="1"/>
<rect x="41" y="19" width="3" height="1"/>
<rect x="17" y="20" width="1" height="1"/>
<rect x="22" y="20" width="1" height="1"/>
<rect x="26" y="20" width="1" height="1"/>
<rect x="29" y="20" width="2" height="1"/>
<rect x="34" y="20" width="1" height="1"/>
<rect x="37" y="20" width="1" height="1"/>
<rect x="40" y="20" width="1" height="1"/>
<rect x="44" y="20" width="1" height="1"/>
<rect x="17" y="21" width="1" height="1"/>
<rect x="26" y="21" width="1" height="1"/>
<rect x="29" y="21" width="1" height="1"/>
<rect x="34" y="21" width="1" height="1"/>
<rect x="37" y="21" width="1" height="1"/>
<rect x="40" y="21" width="1" height="1"/>
<rect x="44" y="21" width="2" height="1"/>
<rect x="17" y="22" width="1" height="1"/>
<rect x="22" y="22" width="5" height="1"/>
<rect x="29" y="22" width="1" height="1"/>
<rect x="34" y="22" width="1" height="1"/>
<rect x="37" y="22" width="1" height="1"/>
<rect x="40" y="22" width="6" height="1"/>
<rect x="17" y="23" width="1" height="1"/>
<rect x="22" y="23" width="1" height="1"/>
<rect x="26" y="23" width="1" height="1"/>
<rect x="29" y="23" width="1" height="1"/>
<rect x="34" y="23" width="1" height="1"/>
<rect x="37" y="23" width="1" height="1"/>
<rect x="40" y="23" width="1" height="1"/>
<rect x="17" y="24" width="1" height="1"/>
<rect x="22" y="24" width="1" height="1"/>
<rect x="26" y="24" width="1" height="1"/>
<rect x="29" y="24" width="2" height="1"/>
<rect x="34" y="24" width="1" height="1"/>
<rect x="37" y="24" width="1" height="1"/>
<rect x="40" y="24" width="1" height="1"/>
<rect x="18" y="25" width="2" height="1"/>
<rect x="22" y="25" width="5" height="1"/>
<rect x="29" y="25" width="1" height="1"/>
<rect x="31" y="25" width="3" height="1"/>
<rect x="37" y="25" width="1" height="1"/>
<rect x="41" y="25" width="4" height="1"/>
<rect x="16" y="30" width="328" height="1"/>
<rect x="24" y="46" width="312" height="1"/>
<rect x="24" y="47" width="312" height="1"/>
<rect x="24" y="48" width="312" height="1"/>
<rect x="24" y="49" width="312" height="1"/>
<rect x="24" y="50" width="312" height="1"/>
<rect x="24" y="51" width="312" height="1"/>
<rect x="24" y="52" width="312" height="1"/>
<rect x="24" y="53" width="176" height="1"/>
<rect x="201" y="53" width="135" height="1"/>
<rect x="24" y="54" width="5" height="1"/>
<rect x="31" y="54" width="5" height="1"/>
<rect x="37" y="54" width="147" height="1"/>
<rect x="185" y="54" width="5" height="1"/>
<rect x="192" y="54" width="8" height="1"/>
<rect x="201" y="54" width="135" height="1"/>
<rect x="24" y="55" width="5" height="1"/>
<rect x="32" y="55" width="4" height="1"/>
<rect x="37" y="55" width="148" height="1"/>
<rect x="186" y="55" width="4" height="1"/>
<rect x="191" y="55" width="9" height="1"/>
<rect x="201" y="55" width="135" height="1"/>
<rect x="24" y="56" width="5" height="1"/>
<rect x="30" y="56" width="1" height="1"/>
<rect x="32" y="56" width="4" height="1"/>
<rect x="37" y="56" width="3" height="1"/>
<rect x="44" y="56" width="2" height="1"/>
<rect x="47" y="56" width="1" height="1"/>
<rect x="51" y="56" width="1" height="1"/>
<rect x="55" y="56" width="4" height="1"/>
<rect x="62" y="56" width="123" height="1"/>
<rect x="186" y="56" width="4" height="1"/>
<rect x="191" y="56" width="3" height="1"/>
<rect x="198" y="56" width="2" height="1"/>
<rect x="201" y="56" width="2" height="1"/>
<rect x="204" y="56" width="4" height="1"/>
<rect x="209" y="56" width="3" height="1"/>
<rect x="215" y="56" width="121" height="1"/>
<rect x="24" y="57" width="5" height="1"/>
<rect x="30" y="57" width="2" height="1"/>
<rect x="33" y="57" width="3" height="1"/>
<rect x="37" y="57" width="2" height="1"/>
<rect x="40" y="57" width="3" height="1"/>
<rect x="44" y="57" width="2" height="1"/>
<rect x="48" y="57" width="2" height="1"/>
<rect x="52" y="57" width="3" height="1"/>
<rect x="56" y="57" width="2" height="1"/>
<rect x="59" y="57" width="3" height="1"/>
<rect x="63" y="57" width="122" height="1"/>
<rect x="186" y="57" width="3" height="1"/>
<rect x="191" y="57" width="2" height="1"/>
<rect x="194" y="57" width="3" height="1"/>
<rect x="198" y="57" width="2" height="1"/>
<rect x="201" y="57" width="2" height="1"/>
<rect x="204" y="57" width="4" height="1"/>
<rect x="209" y="57" width="2" height="1"/>
<rect x="212" y="57" width="3" height="1"/>
<rect x="216" y="57" width="120" height="1"/>
<rect x="24" y="58" width="5" height="1"/>
<rect x="30" y="58" width="2" height="1"/>
<rect x="34" y="58" width="2" height="1"/>
<rect x="37" y="58" width="6" height="1"/>
<rect x="44" y="58" width="2" height="1"/>
<rect x="47" y="58" width="4" height="1"/>
<rect x="52" y="58" width="3" height="1"/>
<rect x="56" y="58" width="2" height="1"/>
<rect x="59" y="58" width="3" height="1"/>
<rect x="64" y="58" width="122" height="1"/>
<rect x="187" y="58" width="2" height="1"/>
<rect x="190" y="58" width="7" height="1"/>
<rect x="198" y="58" width="2" height="1"/>
<rect x="201" y="58" width="2" height="1"/>
<rect x="204" y="58" width="4" height="1"/>
<rect x="209" y="58" width="2" height="1"/>
<rect x="212" y="58" width="3" height="1"/>
<rect x="217" y="58" width="119" height="1"/>
<rect x="24" y="59" width="5" height="1"/>
<rect x="30" y="59" width="3" height="1"/>
<rect x="34" y="59" width="2" height="1"/>
<rect x="37" y="59" width="2" height="1"/>
<rect x="44" y="59" width="2" height="1"/>
<rect x="47" y="59" width="4" height="1"/>
<rect x="52" y="59" width="3" height="1"/>
<rect x="56" y="59" width="2" height="1"/>
<rect x="64" y="59" width="122" height="1"/>
<rect x="187" y="59" width="2" height="1"/>
<rect x="190" y="59" width="3" height="1"/>
<rect x="198" y="59" width="2" height="1"/>
<rect x="201" y="59" width="2" height="1"/>
<rect x="204" y="59" width="4" height="1"/>
<rect x="209" y="59" width="2" height="1"/>
<rect x="217" y="59" width="119" height="1"/>
<rect x="24" y="60" width="5" height="1"/>
<rect x="30" y="60" width="4" height="1"/>
<rect x="35" y="60" width="1" height="1"/>
<rect x="37" y="60" width="2" height="1"/>
<rect x="40" y="60" width="3" height="1"/>
<rect x="44" y="60" width="2" height="1"/>
<rect x="47" y="60" width="4" height="1"/>
<rect x="52" y="60" width="3" height="1"/>
<rect x="56" y="60" width="2" height="1"/>
<rect x="59" y="60" width="127" height="1"/>
<rect x="189" y="60" width="4" height="1"/>
<rect x="194" y="60" width="3" height="1"/>
<rect x="198" y="60" width="2" height="1"/>
<rect x="201" y="60" width="2" height="1"/>
<rect x="204" y="60" width="4" height="1"/>
<rect x="209" y="60" width="2" height="1"/>
<rect x="212" y="60" width="124" height="1"/>
<rect x="24" y="61" width="5" height="1"/>
<rect x="30" y="61" width="4" height="1"/>
<rect x="35" y="61" width="1" height="1"/>
<rect x="37" y="61" width="2" height="1"/>
<rect x="40" y="61" width="3" height="1"/>
<rect x="44" y="61" width="2" height="1"/>
<rect x="47" y="61" width="4" height="1"/>
<rect x="52" y="61" width="3" height="1"/>
<rect x="56" y="61" width="2" height="1"/>
<rect x="59" y="61" width="128" height="1"/>
<rect x="189" y="61" width="4" height="1"/>
<rect x="194" y="61" width="3" height="1"/>
<rect x="198" y="61" width="2" height="1"/>
<rect x="201" y="61" width="2" height="1"/>
<rect x="204" y="61" width="3" height="1"/>
<rect x="209" y="61" width="2" height="1"/>
<rect x="212" y="61" width="124" height="1"/>
<rect x="24" y="62" width="5" height="1"/>
<rect x="30" y="62" width="5" height="1"/>
<rect x="37" y="62" width="2" height="1"/>
<rect x="44" y="62" width="2" height="1"/>
<rect x="47" y="62" width="4" height="1"/>
<rect x="52" y="62" width="3" height="1"/>
<rect x="56" y="62" width="3" height="1"/>
<rect x="63" y="62" width="124" height="1"/>
<rect x="189" y="62" width="4" height="1"/>
<rect x="198" y="62" width="2" height="1"/>
<rect x="201" y="62" width="3" height="1"/>
<rect x="207" y="62" width="1" height="1"/>
<rect x="209" y="62" width="3" height="1"/>
<rect x="216" y="62" width="120" height="1"/>
<rect x="24" y="63" width="312" height="1"/>
<rect x="24" y="64" width="312" height="1"/>
<rect x="24" y="65" width="312" height="1"/>
<rect x="24" y="66" width="312" height="1"/>
<rect x="24" y="67" width="312" height="1"/>
<rect x="24" y="68" width="312" height="1"/>
<rect x="24" y="69" width="312" height="1"/>
<rect x="24" y="70" width="312" height="1"/>
<rect x="24" y="71" width="1" height="1"/>
<rect x="179" y="71" width="2" height="1"/>
<rect x="335" y="71" width="1" height="1"/>
<rect x="24" y="72" width="1" height="1"/>
<rect x="179" y="72" width="2" height="1"/>
<rect x="335" y="72" width="1" height="1"/>
<rect x="24" y="73" width="1" height="1"/>
<rect x="179" y="73" width="2" height="1"/>
<rect x="335" y="73" width="1" height="1"/>
<rect x="24" y="74" width="1" height="1"/>
<rect x="179" y="74" width="2" height="1"/>
<rect x="335" y="74" width="1" height="1"/>
<rect x="24" y="75" width="1" height="1"/>
<rect x="179" y="75" width="2" height="1"/>
<rect x="335" y="75" width="1" height="1"/>
<rect x="24" y="76" width="1" height="1"/>
<rect x="179" y="76" width="2" height="1"/>
<rect x="335" y="76" width="1" height="1"/>
<rect x="24" y="77" width="1" height="1"/>
<rect x="179" y="77" width="2" height="1"/>
<rect x="335" y="77" width="1" height="1"/>
<rect x="24" y="78" width="1" height="1"/>
<rect x="29" y="78" width="6" height="1"/>
<rect x="44" y="78" width="1" height="1"/>
<rect x="49" y="78" width="1" height="1"/>
<rect x="179" y="78" width="2" height="1"/>
<rect x="186" y="78" width="4" height="1"/>
<rect x="193" y="78" width="3" height="1"/>
<rect x="199" y="78" width="3" height="1"/>
<rect x="205" y="78" width="1" height="1"/>
<rect x="335" y="78" width="1" height="1"/>
<rect x="24" y="79" width="1" height="1"/>
<rect x="29" y="79" width="1" height="1"/>
<rect x="34" y="79" width="1" height="1"/>
<rect x="44" y="79" width="1" height="1"/>
<rect x="49" y="79" width="1" height="1"/>
<rect x="179" y="79" width="2" height="1"/>
<rect x="185" y="79" width="1" height="1"/>
<rect x="189" y="79" width="1" height="1"/>
<rect x="192" y="79" width="1" height="1"/>
<rect x="196" y="79" width="1" height="1"/>
<rect x="199" y="79" width="1" height="1"/>
<rect x="201" y="79" width="1" height="1"/>
<rect x="205" y="79" width="1" height="1"/>
<rect x="335" y="79" width="1" height="1"/>
<rect x="24" y="80" width="1" height="1"/>
<rect x="29" y="80" width="1" height="1"/>
<rect x="34" y="80" width="1" height="1"/>
<rect x="38" y="80" width="4" height="1"/>
<rect x="43" y="80" width="4" height="1"/>
<rect x="48" y="80" width="4" height="1"/>
<rect x="55" y="80" width="3" height="1"/>
<rect x="61" y="80" width="1" height="1"/>
<rect x="63" y="80" width="3" height="1"/>
<rect x="70" y="80" width="2" height="1"/>
<rect x="179" y="80" width="2" height="1"/>
<rect x="185" y="80" width="1" height="1"/>
<rect x="189" y="80" width="1" height="1"/>
<rect x="196" y="80" width="1" height="1"/>
<rect x="199" y="80" width="1" height="1"/>
<rect x="201" y="80" width="1" height="1"/>
<rect x="204" y="80" width="1" height="1"/>
<rect x="335" y="80" width="1" height="1"/>
<rect x="24" y="81" width="1" height="1"/>
<rect x="29" y="81" width="1" height="1"/>
<rect x="34" y="81" width="1" height="1"/>
<rect x="37" y="81" width="1" height="1"/>
<rect x="41" y="81" width="1" height="1"/>
<rect x="44" y="81" width="1" height="1"/>
<rect x="49" y="81" width="1" height="1"/>
<rect x="54" y="81" width="1" height="1"/>
<rect x="58" y="81" width="1" height="1"/>
<rect x="61" y="81" width="2" height="1"/>
<rect x="66" y="81" width="1" height="1"/>
<rect x="70" y="81" width="1" height="1"/>
<rect x="179" y="81" width="2" height="1"/>
<rect x="185" y="81" width="2" height="1"/>
<rect x="189" y="81" width="1" height="1"/>
<rect x="196" y="81" width="1" height="1"/>
<rect x="199" y="81" width="1" height="1"/>
<rect x="201" y="81" width="1" height="1"/>
<rect x="203" y="81" width="1" height="1"/>
<rect x="205" y="81" width="2" height="1"/>
<rect x="335" y="81" width="1" height="1"/>
<rect x="24" y="82" width="1" height="1"/>
<rect x="29" y="82" width="5" height="1"/>
<rect x="41" y="82" width="1" height="1"/>
<rect x="44" y="82" width="1" height="1"/>
<rect x="49" y="82" width="1" height="1"/>
<rect x="54" y="82" width="1" height="1"/>
<rect x="58" y="82" width="2" height="1"/>
<rect x="61" y="82" width="1" height="1"/>
<rect x="66" y="82" width="1" height="1"/>
<rect x="69" y="82" width="2" height="1"/>
<rect x="179" y="82" width="2" height="1"/>
<rect x="186" y="82" width="3" height="1"/>
<rect x="195" y="82" width="2" height="1"/>
<rect x="199" y="82" width="1" height="1"/>
<rect x="201" y="82" width="1" height="1"/>
<rect x="203" y="82" width="2" height="1"/>
<rect x="207" y="82" width="1" height="1"/>
<rect x="335" y="82" width="1" height="1"/>
<rect x="24" y="83" width="1" height="1"/>
<rect x="29" y="83" width="1" height="1"/>
<rect x="34" y="83" width="2" height="1"/>
<rect x="37" y="83" width="5" height="1"/>
<rect x="44" y="83" width="1" height="1"/>
<rect x="49" y="83" width="1" height="1"/>
<rect x="54" y="83" width="6" height="1"/>
<rect x="61" y="83" width="1" height="1"/>
<rect x="66" y="83" width="2" height="1"/>
<rect x="69" y="83" width="1" height="1"/>
<rect x="179" y="83" width="2" height="1"/>
<rect x="185" y="83" width="1" height="1"/>
<rect x="189" y="83" width="1" height="1"/>
<rect x="194" y="83" width="2" height="1"/>
<rect x="199" y="83" width="4" height="1"/>
<rect x="204" y="83" width="1" height="1"/>
<rect x="207" y="83" width="1" height="1"/>
<rect x="335" y="83" width="1" height="1"/>
<rect x="24" y="84" width="1" height="1"/>
<rect x="29" y="84" width="1" height="1"/>
<rect x="34" y="84" width="2" height="1"/>
<rect x="37" y="84" width="1" height="1"/>
<rect x="41" y="84" width="1" height="1"/>
<rect x="44" y="84" width="1" height="1"/>
<rect x="49" y="84" width="1" height="1"/>
<rect x="54" y="84" width="1" height="1"/>
<rect x="61" y="84" width="1" height="1"/>
<rect x="67" y="84" width="1" height="1"/>
<rect x="69" y="84" width="1" height="1"/>
<rect x="179" y="84" width="2" height="1"/>
<rect x="185" y="84" width="1" height="1"/>
<rect x="190" y="84" width="1" height="1"/>
<rect x="193" y="84" width="2" height="1"/>
<rect x="202" y="84" width="1" height="1"/>
<rect x="204" y="84" width="1" height="1"/>
<rect x="207" y="84" width="1" height="1"/>
<rect x="335" y="84" width="1" height="1"/>
<rect x="24" y="85" width="1" height="1"/>
<rect x="29" y="85" width="1" height="1"/>
<rect x="34" y="85" width="2" height="1"/>
<rect x="37" y="85" width="1" height="1"/>
<rect x="41" y="85" width="1" height="1"/>
<rect x="44" y="85" width="1" height="1"/>
<rect x="49" y="85" width="1" height="1"/>
<rect x="54" y="85" width="1" height="1"/>
<rect x="61" y="85" width="1" height="1"/>
<rect x="67" y="85" width="3" height="1"/>
<rect x="179" y="85" width="2" height="1"/>
<rect x="185" y="85" width="1" height="1"/>
<rect x="189" y="85" width="2" height="1"/>
<rect x="192" y="85" width="2" height="1"/>
<rect x="201" y="85" width="1" height="1"/>
<rect x="204" y="85" width="1" height="1"/>
<rect x="207" y="85" width="1" height="1"/>
<rect x="335" y="85" width="1" height="1"/>
<rect x="24" y="86" width="1" height="1"/>
<rect x="29" y="86" width="6" height="1"/>
<rect x="37" y="86" width="5" height="1"/>
<rect x="45" y="86" width="2" height="1"/>
<rect x="50" y="86" width="2" height="1"/>
<rect x="55" y="86" width="4" height="1"/>
<rect x="61" y="86" width="1" height="1"/>
<rect x="68" y="86" width="1" height="1"/>
<rect x="179" y="86" width="2" height="1"/>
<rect x="186" y="86" width="4" height="1"/>
<rect x="192" y="86" width="6" height="1"/>
<rect x="200" y="86" width="2" height="1"/>
<rect x="205" y="86" width="2" height="1"/>
<rect x="335" y="86" width="1" height="1"/>
<rect x="24" y="87" width="1" height="1"/>
<rect x="68" y="87" width="1" height="1"/>
<rect x="179" y="87" width="2" height="1"/>
<rect x="335" y="87" width="1" height="1"/>
<rect x="24" y="88" width="1" height="1"/>
<rect x="67" y="88" width="1" height="1"/>
<rect x="179" y="88" width="2" height="1"/>
<rect x="335" y="88" width="1" height="1"/>
<rect x="24" y="89" width="1" height="1"/>
<rect x="65" y="89" width="3" height="1"/>
<rect x="179" y="89" width="2" height="1"/>
<rect x="335" y="89" width="1" height="1"/>
<rect x="24" y="90" width="1" height="1"/>
<rect x="179" y="90" width="2" height="1"/>
<rect x="335" y="90" width="1" height="1"/>
<rect x="24" y="91" width="1" height="1"/>
<rect x="179" y="91" width="2" height="1"/>
<rect x="335" y="91" width="1" height="1"/>
<rect x="24" y="92" width="1" height="1"/>
<rect x="179" y="92" width="2" height="1"/>
<rect x="335" y="92" width="1" height="1"/>
<rect x="24" y="93" width="312" height="1"/>
<rect x="24" y="94" width="312" height="1"/>
<rect x="24" y="95" width="1" height="1"/>
<rect x="179" y="95" width="2" height="1"/>
<rect x="335" y="95" width="1" height="1"/>
<rect x="24" y="96" width="1" height="1"/>
<rect x="179" y="96" width="2" height="1"/>
<rect x="335" y="96" width="1" height="1"/>
<rect x="24" y="97" width="1" height="1"/>
<rect x="179" y="97" width="2" height="1"/>
<rect x="335" y="97" width="1" height="1"/>
<rect x="24" y="98" width="1" height="1"/>
<rect x="179" y="98" width="2" height="1"/>
<rect x="335" y="98" width="1" height="1"/>
<rect x="24" y="99" width="1" height="1"/>
<rect x="179" y="99" width="2" height="1"/>
<rect x="335" y="99" width="1" height="1"/>
<rect x="24" y="100" width="1" height="1"/>
<rect x="179" y="100" width="2" height="1"/>
<rect x="335" y="100" width="1" height="1"/>
<rect x="24" y="101" width="1" height="1"/>
<rect x="41" y="101" width="1" height="1"/>
<rect x="55" y="101" width="1" height="1"/>
<rect x="179" y="101" width="2" height="1"/>
<rect x="335" y="101" width="1" height="1"/>
<rect x="24" y="102" width="1" height="1"/>
<rect x="28" y="102" width="2" height="1"/>
<rect x="33" y="102" width="2" height="1"/>
<rect x="39" y="102" width="1" height="1"/>
<rect x="48" y="102" width="5" height="1"/>
<rect x="179" y="102" width="2" height="1"/>
<rect x="187" y="102" width="4" height="1"/>
<rect x="335" y="102" width="1" height="1"/>
<rect x="24" y="103" width="1" height="1"/>
<rect x="29" y="103" width="1" height="1"/>
<rect x="33" y="103" width="2" height="1"/>
<rect x="38" y="103" width="2" height="1"/>
<rect x="48" y="103" width="1" height="1"/>
<rect x="179" y="103" width="2" height="1"/>
<rect x="186" y="103" width="1" height="1"/>
<rect x="191" y="103" width="2" height="1"/>
<rect x="335" y="103" width="1" height="1"/>
<rect x="24" y="104" width="1" height="1"/>
<rect x="29" y="104" width="1" height="1"/>
<rect x="33" y="104" width="2" height="1"/>
<rect x="38" y="104" width="1" height="1"/>
<rect x="41" y="104" width="1" height="1"/>
<rect x="48" y="104" width="1" height="1"/>
<rect x="55" y="104" width="1" height="1"/>
<rect x="179" y="104" width="2" height="1"/>
<rect x="185" y="104" width="1" height="1"/>
<rect x="192" y="104" width="1" height="1"/>
<rect x="195" y="104" width="1" height="1"/>
<rect x="197" y="104" width="3" height="1"/>
<rect x="335" y="104" width="1" height="1"/>
<rect x="24" y="105" width="1" height="1"/>
<rect x="29" y="105" width="1" height="1"/>
<rect x="32" y="105" width="1" height="1"/>
<rect x="35" y="105" width="1" height="1"/>
<rect x="38" y="105" width="1" height="1"/>
<rect x="41" y="105" width="1" height="1"/>
<rect x="48" y="105" width="1" height="1"/>
<rect x="55" y="105" width="1" height="1"/>
<rect x="179" y="105" width="2" height="1"/>
<rect x="185" y="105" width="1" height="1"/>
<rect x="192" y="105" width="1" height="1"/>
<rect x="195" y="105" width="2" height="1"/>
<rect x="200" y="105" width="1" height="1"/>
<rect x="335" y="105" width="1" height="1"/>
<rect x="24" y="106" width="1" height="1"/>
<rect x="29" y="106" width="2" height="1"/>
<rect x="32" y="106" width="1" height="1"/>
<rect x="35" y="106" width="1" height="1"/>
<rect x="38" y="106" width="1" height="1"/>
<rect x="41" y="106" width="1" height="1"/>
<rect x="48" y="106" width="5" height="1"/>
<rect x="55" y="106" width="1" height="1"/>
<rect x="179" y="106" width="2" height="1"/>
<rect x="185" y="106" width="1" height="1"/>
<rect x="192" y="106" width="1" height="1"/>
<rect x="195" y="106" width="1" height="1"/>
<rect x="200" y="106" width="1" height="1"/>
<rect x="335" y="106" width="1" height="1"/>
<rect x="24" y="107" width="1" height="1"/>
<rect x="30" y="107" width="1" height="1"/>
<rect x="32" y="107" width="1" height="1"/>
<rect x="35" y="107" width="1" height="1"/>
<rect x="37" y="107" width="1" height="1"/>
<rect x="41" y="107" width="1" height="1"/>
<rect x="44" y="107" width="3" height="1"/>
<rect x="48" y="107" width="1" height="1"/>
<rect x="55" y="107" width="1" height="1"/>
<rect x="179" y="107" width="2" height="1"/>
<rect x="185" y="107" width="1" height="1"/>
<rect x="192" y="107" width="1" height="1"/>
<rect x="195" y="107" width="1" height="1"/>
<rect x="200" y="107" width="1" height="1"/>
<rect x="335" y="107" width="1" height="1"/>
<rect x="24" y="108" width="1" height="1"/>
<rect x="30" y="108" width="3" height="1"/>
<rect x="35" y="108" width="3" height="1"/>
<rect x="41" y="108" width="1" height="1"/>
<rect x="48" y="108" width="1" height="1"/>
<rect x="55" y="108" width="1" height="1"/>
<rect x="179" y="108" width="2" height="1"/>
<rect x="185" y="108" width="1" height="1"/>
<rect x="192" y="108" width="1" height="1"/>
<rect x="195" y="108" width="1" height="1"/>
<rect x="200" y="108" width="1" height="1"/>
<rect x="335" y="108" width="1" height="1"/>
<rect x="24" y="109" width="1" height="1"/>
<rect x="30" y="109" width="2" height="1"/>
<rect x="36" y="109" width="2" height="1"/>
<rect x="41" y="109" width="1" height="1"/>
<rect x="48" y="109" width="1" height="1"/>
<rect x="55" y="109" width="1" height="1"/>
<rect x="179" y="109" width="2" height="1"/>
<rect x="186" y="109" width="1" height="1"/>
<rect x="191" y="109" width="1" height="1"/>
<rect x="195" y="109" width="1" height="1"/>
<rect x="200" y="109" width="1" height="1"/>
<rect x="335" y="109" width="1" height="1"/>
<rect x="24" y="110" width="1" height="1"/>
<rect x="30" y="110" width="2" height="1"/>
<rect x="36" y="110" width="2" height="1"/>
<rect x="41" y="110" width="1" height="1"/>
<rect x="48" y="110" width="1" height="1"/>
<rect x="55" y="110" width="1" height="1"/>
<rect x="179" y="110" width="2" height="1"/>
<rect x="187" y="110" width="4" height="1"/>
<rect x="195" y="110" width="1" height="1"/>
<rect x="200" y="110" width="1" height="1"/>
<rect x="335" y="110" width="1" height="1"/>
<rect x="24" y="111" width="1" height="1"/>
<rect x="179" y="111" width="2" height="1"/>
<rect x="335" y="111" width="1" height="1"/>
<rect x="24" y="112" width="1" height="1"/>
<rect x="179" y="112" width="2" height="1"/>
<rect x="335" y="112" width="1" height="1"/>
<rect x="24" y="113" width="1" height="1"/>
<rect x="179" y="113" width="2" height="1"/>
<rect x="335" y="113" width="1" height="1"/>
<rect x="24" y="114" width="1" height="1"/>
<rect x="179" y="114" width="2" height="1"/>
<rect x="335" y="114" width="1" height="1"/>
<rect x="24" y="115" width="1" height="1"/>
<rect x="179" y="115" width="2" height="1"/>
<rect x="335" y="115" width="1" height="1"/>
<rect x="24" y="116" width="1" height="1"/>
<rect x="179" y="116" width="2" height="1"/>
<rect x="335" y="116" width="1" height="1"/>
<rect x="24" y="117" width="312" height="1"/>
</g>
</svg>
