<svg xmlns="http://www.w3.org/2000/svg" viewBox="0 0 360 180" width="360" height="180" shape-rendering="crispEdges">
<rect width="100%" height="100%" fill="#fff"/>
<g fill="#111">
<rect x="30" y="0" width="1" height="1"/>
<rect x="98" y="0" width="6" height="1"/>
<rect x="108" y="0" width="2" height="1"/>
<rect x="30" y="1" width="1" height="1"/>
<rect x="46" y="1" width="1" height="1"/>
<rect x="97" y="1" width="3" height="1"/>
<rect x="102" y="1" width="2" height="1"/>
<rect x="108" y="1" width="2" height="1"/>
<rect x="30" y="2" width="1" height="1"/>
<rect x="97" y="2" width="2" height="1"/>
<rect x="102" y="2" width="2" height="1"/>
<rect x="108" y="2" width="2" height="1"/>
<rect x="30" y="3" width="1" height="1"/>
<rect x="46" y="3" width="1" height="1"/>
<rect x="97" y="3" width="2" height="1"/>
<rect x="102" y="3" width="2" height="1"/>
<rect x="108" y="3" width="2" height="1"/>
<rect x="30" y="4" width="1" height="1"/>
<rect x="97" y="4" width="2" height="1"/>
<rect x="102" y="4" width="2" height="1"/>
<rect x="108" y="4" width="2" height="1"/>
<rect x="30" y="5" width="1" height="1"/>
<rect x="46" y="5" width="1" height="1"/>
<rect x="97" y="5" width="2" height="1"/>
<rect x="102" y="5" width="2" height="1"/>
<rect x="108" y="5" width="2" height="1"/>
<rect x="30" y="6" width="1" height="1"/>
<rect x="97" y="6" width="3" height="1"/>
<rect x="102" y="6" width="2" height="1"/>
<rect x="107" y="6" width="3" height="1"/>
<rect x="30" y="7" width="1" height="1"/>
<rect x="46" y="7" width="1" height="1"/>
<rect x="98" y="7" width="11" height="1"/>
<rect x="30" y="8" width="1" height="1"/>
<rect x="99" y="8" width="9" height="1"/>
<rect x="30" y="9" width="1" height="1"/>
<rect x="46" y="9" width="1" height="1"/>
<rect x="102" y="9" width="4" height="1"/>
<rect x="30" y="10" width="1" height="1"/>
<rect x="30" y="11" width="1" height="1"/>
<rect x="46" y="11" width="1" height="1"/>
<rect x="30" y="12" width="1" height="1"/>
<rect x="30" y="13" width="1" height="1"/>
<rect x="46" y="13" width="1" height="1"/>
<rect x="30" y="14" width="1" height="1"/>
<rect x="93" y="14" width="17" height="1"/>
<rect x="30" y="15" width="1" height="1"/>
<rect x="46" y="15" width="1" height="1"/>
<rect x="93" y="15" width="17" height="1"/>
<rect x="30" y="16" width="1" height="1"/>
<rect x="93" y="16" width="4" height="1"/>
<rect x="30" y="17" width="1" height="1"/>
<rect x="46" y="17" width="1" height="1"/>
<rect x="95" y="17" width="5" height="1"/>
<rect x="30" y="18" width="1" height="1"/>
<rect x="97" y="18" width="6" height="1"/>
<rect x="30" y="19" width="1" height="1"/>
<rect x="46" y="19" width="1" height="1"/>
<rect x="100" y="19" width="5" height="1"/>
<rect x="30" y="20" width="1" height="1"/>
<rect x="103" y="20" width="5" height="1"/>
<rect x="30" y="21" width="1" height="1"/>
<rect x="46" y="21" width="1" height="1"/>
<rect x="105" y="21" width="5" height="1"/>
<rect x="30" y="22" width="1" height="1"/>
<rect x="106" y="22" width="4" height="1"/>
<rect x="30" y="23" width="1" height="1"/>
<rect x="46" y="23" width="1" height="1"/>
<rect x="103" y="23" width="6" height="1"/>
<rect x="30" y="24" width="1" height="1"/>
<rect x="101" y="24" width="5" height="1"/>
<rect x="30" y="25" width="1" height="1"/>
<rect x="46" y="25" width="1" height="1"/>
<rect x="98" y="25" width="6" height="1"/>
<rect x="30" y="26" width="1" height="1"/>
<rect x="95" y="26" width="6" height="1"/>
<rect x="30" y="27" width="1" height="1"/>
<rect x="46" y="27" width="1" height="1"/>
<rect x="93" y="27" width="5" height="1"/>
<rect x="30" y="28" width="1" height="1"/>
<rect x="93" y="28" width="3" height="1"/>
<rect x="30" y="29" width="1" height="1"/>
<rect x="46" y="29" width="1" height="1"/>
<rect x="93" y="29" width="17" height="1"/>
<rect x="30" y="30" width="1" height="1"/>
<rect x="93" y="30" width="17" height="1"/>
<rect x="30" y="31" width="1" height="1"/>
<rect x="46" y="31" width="1" height="1"/>
<rect x="30" y="32" width="1" height="1"/>
<rect x="30" y="33" width="1" height="1"/>
<rect x="46" y="33" width="1" height="1"/>
<rect x="30" y="34" width="1" height="1"/>
<rect x="30" y="35" width="1" height="1"/>
<rect x="46" y="35" width="1" height="1"/>
<rect x="30" y="36" width="1" height="1"/>
<rect x="30" y="37" width="1" height="1"/>
<rect x="46" y="37" width="1" height="1"/>
<rect x="30" y="38" width="1" height="1"/>
<rect x="30" y="39" width="1" height="1"/>
<rect x="46" y="39" width="1" height="1"/>
<rect x="30" y="40" width="1" height="1"/>
<rect x="30" y="41" width="1" height="1"/>
<rect x="46" y="41" width="1" height="1"/>
<rect x="30" y="42" width="1" height="1"/>
<rect x="30" y="43" width="1" height="1"/>
<rect x="46" y="43" width="1" height="1"/>
<rect x="30" y="44" width="1" height="1"/>
<rect x="30" y="45" width="1" height="1"/>
<rect x="46" y="45" width="1" height="1"/>
<rect x="30" y="46" width="1" height="1"/>
<rect x="30" y="47" width="1" height="1"/>
<rect x="46" y="47" width="1" height="1"/>
<rect x="30" y="48" width="1" height="1"/>
<rect x="30" y="49" width="1" height="1"/>
<rect x="46" y="49" width="1" height="1"/>
<rect x="30" y="50" width="1" height="1"/>
<rect x="30" y="51" width="1" height="1"/>
<rect x="46" y="51" width="1" height="1"/>
<rect x="48" y="51" width="1" height="1"/>
<rect x="50" y="51" width="1" height="1"/>
<rect x="52" y="51" width="1" height="1"/>
<rect x="54" y="51" width="1" height="1"/>
<rect x="56" y="51" width="1" height="1"/>
<rect x="58" y="51" width="1" height="1"/>
<rect x="60" y="51" width="1" height="1"/>
<rect x="62" y="51" width="1" height="1"/>
<rect x="64" y="51" width="1" height="1"/>
<rect x="66" y="51" width="1" height="1"/>
<rect x="68" y="51" width="1" height="1"/>
<rect x="70" y="51" width="1" height="1"/>
<rect x="72" y="51" width="1" height="1"/>
<rect x="74" y="51" width="1" height="1"/>
<rect x="76" y="51" width="1" height="1"/>
<rect x="78" y="51" width="1" height="1"/>
<rect x="80" y="51" width="1" height="1"/>
<rect x="82" y="51" width="1" height="1"/>
<rect x="84" y="51" width="1" height="1"/>
<rect x="86" y="51" width="1" height="1"/>
<rect x="88" y="51" width="1" height="1"/>
<rect x="90" y="51" width="1" height="1"/>
<rect x="92" y="51" width="1" height="1"/>
<rect x="94" y="51" width="1" height="1"/>
<rect x="96" y="51" width="1" height="1"/>
<rect x="98" y="51" width="1" height="1"/>
<rect x="100" y="51" width="1" height="1"/>
<rect x="102" y="51" width="1" height="1"/>
<rect x="104" y="51" width="1" height="1"/>
<rect x="106" y="51" width="1" height="1"/>
<rect x="108" y="51" width="1" height="1"/>
<rect x="110" y="51" width="1" height="1"/>
<rect x="112" y="51" width="1" height="1"/>
<rect x="114" y="51" width="1" height="1"/>
<rect x="116" y="51" width="1" height="1"/>
<rect x="118" y="51" width="1" height="1"/>
<rect x="120" y="51" width="1" height="1"/>
<rect x="122" y="51" width="1" height="1"/>
<rect x="124" y="51" width="1" height="1"/>
<rect x="126" y="51" width="1" height="1"/>
<rect x="128" y="51" width="1" height="1"/>
<rect x="130" y="51" width="1" height="1"/>
<rect x="132" y="51" width="1" height="1"/>
<rect x="134" y="51" width="1" height="1"/>
<rect x="136" y="51" width="1" height="1"/>
<rect x="138" y="51" width="1" height="1"/>
<rect x="140" y="51" width="1" height="1"/>
<rect x="142" y="51" width="1" height="1"/>
<rect x="144" y="51" width="1" height="1"/>
<rect x="146" y="51" width="1" height="1"/>
<rect x="148" y="51" width="1" height="1"/>
<rect x="150" y="51" width="1" height="1"/>
<rect x="152" y="51" width="1" height="1"/>
<rect x="154" y="51" width="1" height="1"/>
<rect x="156" y="51" width="1" height="1"/>
<rect x="30" y="52" width="1" height="1"/>
<rect x="30" y="53" width="1" height="1"/>
<rect x="46" y="53" width="1" height="1"/>
<rect x="30" y="54" width="1" height="1"/>
<rect x="30" y="55" width="1" height="1"/>
<rect x="46" y="55" width="1" height="1"/>
<rect x="30" y="56" width="1" height="1"/>
<rect x="30" y="57" width="1" height="1"/>
<rect x="46" y="57" width="1" height="1"/>
<rect x="30" y="58" width="1" height="1"/>
<rect x="22" y="59" width="2" height="1"/>
<rect x="29" y="59" width="5" height="1"/>
<rect x="46" y="59" width="1" height="1"/>
<rect x="22" y="60" width="2" height="1"/>
<rect x="28" y="60" width="7" height="1"/>
<rect x="22" y="61" width="2" height="1"/>
<rect x="28" y="61" width="3" height="1"/>
<rect x="33" y="61" width="2" height="1"/>
<rect x="46" y="61" width="1" height="1"/>
<rect x="22" y="62" width="2" height="1"/>
<rect x="28" y="62" width="3" height="1"/>
<rect x="33" y="62" width="2" height="1"/>
<rect x="22" y="63" width="2" height="1"/>
<rect x="27" y="63" width="2" height="1"/>
<rect x="30" y="63" width="1" height="1"/>
<rect x="34" y="63" width="1" height="1"/>
<rect x="46" y="63" width="1" height="1"/>
<rect x="22" y="64" width="2" height="1"/>
<rect x="27" y="64" width="2" height="1"/>
<rect x="30" y="64" width="1" height="1"/>
<rect x="33" y="64" width="2" height="1"/>
<rect x="22" y="65" width="2" height="1"/>
<rect x="26" y="65" width="2" height="1"/>
<rect x="30" y="65" width="1" height="1"/>
<rect x="33" y="65" width="2" height="1"/>
<rect x="46" y="65" width="1" height="1"/>
<rect x="23" y="66" width="5" height="1"/>
<rect x="30" y="66" width="1" height="1"/>
<rect x="33" y="66" width="2" height="1"/>
<rect x="24" y="67" width="3" height="1"/>
<rect x="30" y="67" width="1" height="1"/>
<rect x="32" y="67" width="3" height="1"/>
<rect x="46" y="67" width="1" height="1"/>
<rect x="30" y="68" width="1" height="1"/>
<rect x="30" y="69" width="1" height="1"/>
<rect x="46" y="69" width="1" height="1"/>
<rect x="30" y="70" width="1" height="1"/>
<rect x="24" y="71" width="5" height="1"/>
<rect x="30" y="71" width="1" height="1"/>
<rect x="33" y="71" width="1" height="1"/>
<rect x="46" y="71" width="1" height="1"/>
<rect x="23" y="72" width="6" height="1"/>
<rect x="30" y="72" width="1" height="1"/>
<rect x="33" y="72" width="2" height="1"/>
<rect x="22" y="73" width="3" height="1"/>
<rect x="27" y="73" width="2" height="1"/>
<rect x="30" y="73" width="1" height="1"/>
<rect x="33" y="73" width="2" height="1"/>
<rect x="46" y="73" width="1" height="1"/>
<rect x="22" y="74" width="2" height="1"/>
<rect x="27" y="74" width="2" height="1"/>
<rect x="30" y="74" width="1" height="1"/>
<rect x="33" y="74" width="2" height="1"/>
<rect x="22" y="75" width="2" height="1"/>
<rect x="27" y="75" width="2" height="1"/>
<rect x="30" y="75" width="1" height="1"/>
<rect x="33" y="75" width="2" height="1"/>
<rect x="46" y="75" width="1" height="1"/>
<rect x="22" y="76" width="2" height="1"/>
<rect x="27" y="76" width="2" height="1"/>
<rect x="30" y="76" width="1" height="1"/>
<rect x="33" y="76" width="2" height="1"/>
<rect x="22" y="77" width="2" height="1"/>
<rect x="27" y="77" width="2" height="1"/>
<rect x="30" y="77" width="1" height="1"/>
<rect x="33" y="77" width="2" height="1"/>
<rect x="46" y="77" width="1" height="1"/>
<rect x="22" y="78" width="3" height="1"/>
<rect x="27" y="78" width="2" height="1"/>
<rect x="30" y="78" width="1" height="1"/>
<rect x="32" y="78" width="3" height="1"/>
<rect x="23" y="79" width="11" height="1"/>
<rect x="46" y="79" width="1" height="1"/>
<rect x="98" y="79" width="2" height="1"/>
<rect x="24" y="80" width="9" height="1"/>
<rect x="98" y="80" width="5" height="1"/>
<rect x="27" y="81" width="4" height="1"/>
<rect x="46" y="81" width="1" height="1"/>
<rect x="99" y="81" width="6" height="1"/>
<rect x="30" y="82" width="1" height="1"/>
<rect x="102" y="82" width="6" height="1"/>
<rect x="30" y="83" width="1" height="1"/>
<rect x="46" y="83" width="1" height="1"/>
<rect x="105" y="83" width="6" height="1"/>
<rect x="30" y="84" width="1" height="1"/>
<rect x="108" y="84" width="3" height="1"/>
<rect x="24" y="85" width="11" height="1"/>
<rect x="46" y="85" width="1" height="1"/>
<rect x="107" y="85" width="4" height="1"/>
<rect x="23" y="86" width="12" height="1"/>
<rect x="104" y="86" width="6" height="1"/>
<rect x="22" y="87" width="3" height="1"/>
<rect x="30" y="87" width="1" height="1"/>
<rect x="46" y="87" width="1" height="1"/>
<rect x="102" y="87" width="5" height="1"/>
<rect x="22" y="88" width="2" height="1"/>
<rect x="30" y="88" width="1" height="1"/>
<rect x="99" y="88" width="6" height="1"/>
<rect x="22" y="89" width="2" height="1"/>
<rect x="30" y="89" width="1" height="1"/>
<rect x="46" y="89" width="1" height="1"/>
<rect x="98" y="89" width="4" height="1"/>
<rect x="22" y="90" width="2" height="1"/>
<rect x="30" y="90" width="1" height="1"/>
<rect x="98" y="90" width="1" height="1"/>
<rect x="22" y="91" width="2" height="1"/>
<rect x="30" y="91" width="1" height="1"/>
<rect x="46" y="91" width="1" height="1"/>
<rect x="23" y="92" width="1" height="1"/>
<rect x="30" y="92" width="1" height="1"/>
<rect x="23" y="93" width="3" height="1"/>
<rect x="30" y="93" width="1" height="1"/>
<rect x="46" y="93" width="1" height="1"/>
<rect x="99" y="93" width="5" height="1"/>
<rect x="108" y="93" width="1" height="1"/>
<rect x="22" y="94" width="13" height="1"/>
<rect x="98" y="94" width="6" height="1"/>
<rect x="108" y="94" width="2" height="1"/>
<rect x="22" y="95" width="13" height="1"/>
<rect x="46" y="95" width="1" height="1"/>
<rect x="97" y="95" width="3" height="1"/>
<rect x="102" y="95" width="2" height="1"/>
<rect x="108" y="95" width="2" height="1"/>
<rect x="30" y="96" width="1" height="1"/>
<rect x="97" y="96" width="2" height="1"/>
<rect x="102" y="96" width="2" height="1"/>
<rect x="108" y="96" width="2" height="1"/>
<rect x="30" y="97" width="1" height="1"/>
<rect x="46" y="97" width="1" height="1"/>
<rect x="97" y="97" width="2" height="1"/>
<rect x="102" y="97" width="2" height="1"/>
<rect x="108" y="97" width="2" height="1"/>
<rect x="30" y="98" width="1" height="1"/>
<rect x="97" y="98" width="2" height="1"/>
<rect x="102" y="98" width="2" height="1"/>
<rect x="108" y="98" width="2" height="1"/>
<rect x="30" y="99" width="1" height="1"/>
<rect x="46" y="99" width="1" height="1"/>
<rect x="97" y="99" width="2" height="1"/>
<rect x="102" y="99" width="2" height="1"/>
<rect x="108" y="99" width="2" height="1"/>
<rect x="25" y="100" width="7" height="1"/>
<rect x="97" y="100" width="3" height="1"/>
<rect x="102" y="100" width="2" height="1"/>
<rect x="107" y="100" width="3" height="1"/>
<rect x="24" y="101" width="10" height="1"/>
<rect x="46" y="101" width="1" height="1"/>
<rect x="98" y="101" width="11" height="1"/>
<rect x="23" y="102" width="3" height="1"/>
<rect x="30" y="102" width="4" height="1"/>
<rect x="99" y="102" width="9" height="1"/>
<rect x="22" y="103" width="2" height="1"/>
<rect x="30" y="103" width="1" height="1"/>
<rect x="33" y="103" width="2" height="1"/>
<rect x="46" y="103" width="1" height="1"/>
<rect x="102" y="103" width="4" height="1"/>
<rect x="22" y="104" width="2" height="1"/>
<rect x="30" y="104" width="1" height="1"/>
<rect x="33" y="104" width="2" height="1"/>
<rect x="22" y="105" width="2" height="1"/>
<rect x="30" y="105" width="1" height="1"/>
<rect x="33" y="105" width="2" height="1"/>
<rect x="46" y="105" width="1" height="1"/>
<rect x="97" y="105" width="1" height="1"/>
<rect x="22" y="106" width="2" height="1"/>
<rect x="30" y="106" width="1" height="1"/>
<rect x="33" y="106" width="2" height="1"/>
<rect x="97" y="106" width="2" height="1"/>
<rect x="22" y="107" width="2" height="1"/>
<rect x="30" y="107" width="1" height="1"/>
<rect x="33" y="107" width="2" height="1"/>
<rect x="46" y="107" width="1" height="1"/>
<rect x="97" y="107" width="2" height="1"/>
<rect x="22" y="108" width="3" height="1"/>
<rect x="30" y="108" width="1" height="1"/>
<rect x="32" y="108" width="3" height="1"/>
<rect x="97" y="108" width="2" height="1"/>
<rect x="23" y="109" width="11" height="1"/>
<rect x="46" y="109" width="1" height="1"/>
<rect x="98" y="109" width="2" height="1"/>
<rect x="24" y="110" width="9" height="1"/>
<rect x="99" y="110" width="2" height="1"/>
<rect x="26" y="111" width="5" height="1"/>
<rect x="46" y="111" width="1" height="1"/>
<rect x="97" y="111" width="13" height="1"/>
<rect x="30" y="112" width="1" height="1"/>
<rect x="97" y="112" width="13" height="1"/>
<rect x="30" y="113" width="1" height="1"/>
<rect x="46" y="113" width="1" height="1"/>
<rect x="18" y="114" width="2" height="1"/>
<rect x="30" y="114" width="1" height="1"/>
<rect x="33" y="114" width="2" height="1"/>
<rect x="18" y="115" width="3" height="1"/>
<rect x="30" y="115" width="1" height="1"/>
<rect x="33" y="115" width="2" height="1"/>
<rect x="46" y="115" width="1" height="1"/>
<rect x="18" y="116" width="5" height="1"/>
<rect x="30" y="116" width="1" height="1"/>
<rect x="33" y="116" width="2" height="1"/>
<rect x="18" y="117" width="6" height="1"/>
<rect x="30" y="117" width="1" height="1"/>
<rect x="33" y="117" width="2" height="1"/>
<rect x="46" y="117" width="1" height="1"/>
<rect x="95" y="117" width="6" height="1"/>
<rect x="18" y="118" width="2" height="1"/>
<rect x="22" y="118" width="4" height="1"/>
<rect x="30" y="118" width="1" height="1"/>
<rect x="33" y="118" width="2" height="1"/>
<rect x="94" y="118" width="8" height="1"/>
<rect x="18" y="119" width="2" height="1"/>
<rect x="23" y="119" width="4" height="1"/>
<rect x="30" y="119" width="1" height="1"/>
<rect x="33" y="119" width="2" height="1"/>
<rect x="46" y="119" width="1" height="1"/>
<rect x="93" y="119" width="3" height="1"/>
<rect x="100" y="119" width="3" height="1"/>
<rect x="18" y="120" width="2" height="1"/>
<rect x="25" y="120" width="4" height="1"/>
<rect x="30" y="120" width="1" height="1"/>
<rect x="33" y="120" width="2" height="1"/>
<rect x="93" y="120" width="2" height="1"/>
<rect x="101" y="120" width="2" height="1"/>
<rect x="18" y="121" width="2" height="1"/>
<rect x="26" y="121" width="5" height="1"/>
<rect x="33" y="121" width="2" height="1"/>
<rect x="46" y="121" width="1" height="1"/>
<rect x="93" y="121" width="2" height="1"/>
<rect x="101" y="121" width="2" height="1"/>
<rect x="18" y="122" width="2" height="1"/>
<rect x="28" y="122" width="4" height="1"/>
<rect x="33" y="122" width="2" height="1"/>
<rect x="93" y="122" width="2" height="1"/>
<rect x="101" y="122" width="2" height="1"/>
<rect x="18" y="123" width="2" height="1"/>
<rect x="29" y="123" width="6" height="1"/>
<rect x="46" y="123" width="1" height="1"/>
<rect x="93" y="123" width="2" height="1"/>
<rect x="101" y="123" width="2" height="1"/>
<rect x="18" y="124" width="2" height="1"/>
<rect x="30" y="124" width="5" height="1"/>
<rect x="93" y="124" width="2" height="1"/>
<rect x="101" y="124" width="2" height="1"/>
<rect x="18" y="125" width="2" height="1"/>
<rect x="30" y="125" width="1" height="1"/>
<rect x="32" y="125" width="3" height="1"/>
<rect x="46" y="125" width="1" height="1"/>
<rect x="93" y="125" width="2" height="1"/>
<rect x="101" y="125" width="2" height="1"/>
<rect x="30" y="126" width="1" height="1"/>
<rect x="93" y="126" width="17" height="1"/>
<rect x="30" y="127" width="1" height="1"/>
<rect x="46" y="127" width="1" height="1"/>
<rect x="93" y="127" width="17" height="1"/>
<rect x="30" y="128" width="1" height="1"/>
<rect x="24" y="129" width="9" height="1"/>
<rect x="46" y="129" width="1" height="1"/>
<rect x="23" y="130" width="11" height="1"/>
<rect x="22" y="131" width="3" height="1"/>
<rect x="30" y="131" width="1" height="1"/>
<rect x="32" y="131" width="3" height="1"/>
<rect x="46" y="131" width="1" height="1"/>
<rect x="22" y="132" width="2" height="1"/>
<rect x="30" y="132" width="1" height="1"/>
<rect x="33" y="132" width="2" height="1"/>
<rect x="22" y="133" width="2" height="1"/>
<rect x="30" y="133" width="1" height="1"/>
<rect x="33" y="133" width="2" height="1"/>
<rect x="46" y="133" width="1" height="1"/>
<rect x="22" y="134" width="2" height="1"/>
<rect x="30" y="134" width="1" height="1"/>
<rect x="33" y="134" width="2" height="1"/>
<rect x="22" y="135" width="2" height="1"/>
<rect x="30" y="135" width="1" height="1"/>
<rect x="33" y="135" width="2" height="1"/>
<rect x="46" y="135" width="1" height="1"/>
<rect x="23" y="136" width="1" height="1"/>
<rect x="30" y="136" width="1" height="1"/>
<rect x="33" y="136" width="2" height="1"/>
<rect x="23" y="137" width="3" height="1"/>
<rect x="30" y="137" width="4" height="1"/>
<rect x="46" y="137" width="1" height="1"/>
<rect x="22" y="138" width="19" height="1"/>
<rect x="22" y="139" width="19" height="1"/>
<rect x="46" y="139" width="1" height="1"/>
<rect x="30" y="140" width="1" height="1"/>
<rect x="30" y="141" width="1" height="1"/>
<rect x="46" y="141" width="1" height="1"/>
<rect x="30" y="142" width="1" height="1"/>
<rect x="26" y="143" width="9" height="1"/>
<rect x="46" y="143" width="1" height="1"/>
<rect x="23" y="144" width="12" height="1"/>
<rect x="22" y="145" width="11" height="1"/>
<rect x="46" y="145" width="1" height="1"/>
<rect x="22" y="146" width="2" height="1"/>
<rect x="27" y="146" width="2" height="1"/>
<rect x="30" y="146" width="1" height="1"/>
<rect x="32" y="146" width="2" height="1"/>
<rect x="22" y="147" width="2" height="1"/>
<rect x="27" y="147" width="2" height="1"/>
<rect x="30" y="147" width="1" height="1"/>
<rect x="33" y="147" width="2" height="1"/>
<rect x="46" y="147" width="1" height="1"/>
<rect x="22" y="148" width="2" height="1"/>
<rect x="27" y="148" width="2" height="1"/>
<rect x="30" y="148" width="1" height="1"/>
<rect x="33" y="148" width="2" height="1"/>
<rect x="22" y="149" width="2" height="1"/>
<rect x="27" y="149" width="2" height="1"/>
<rect x="30" y="149" width="1" height="1"/>
<rect x="34" y="149" width="1" height="1"/>
<rect x="46" y="149" width="1" height="1"/>
<rect x="22" y="150" width="2" height="1"/>
<rect x="28" y="150" width="1" height="1"/>
<rect x="30" y="150" width="1" height="1"/>
<rect x="33" y="150" width="2" height="1"/>
<rect x="23" y="151" width="2" height="1"/>
<rect x="28" y="151" width="3" height="1"/>
<rect x="32" y="151" width="3" height="1"/>
<rect x="46" y="151" width="1" height="1"/>
<rect x="29" y="152" width="6" height="1"/>
<rect x="30" y="153" width="3" height="1"/>
<rect x="46" y="153" width="1" height="1"/>
<rect x="30" y="154" width="1" height="1"/>
<rect x="30" y="155" width="1" height="1"/>
<rect x="46" y="155" width="1" height="1"/>
<rect x="48" y="155" width="1" height="1"/>
<rect x="50" y="155" width="1" height="1"/>
<rect x="52" y="155" width="1" height="1"/>
<rect x="54" y="155" width="1" height="1"/>
<rect x="56" y="155" width="1" height="1"/>
<rect x="58" y="155" width="1" height="1"/>
<rect x="60" y="155" width="1" height="1"/>
<rect x="62" y="155" width="1" height="1"/>
<rect x="64" y="155" width="1" height="1"/>
<rect x="66" y="155" width="1" height="1"/>
<rect x="68" y="155" width="1" height="1"/>
<rect x="70" y="155" width="1" height="1"/>
<rect x="72" y="155" width="1" height="1"/>
<rect x="74" y="155" width="1" height="1"/>
<rect x="76" y="155" width="1" height="1"/>
<rect x="78" y="155" width="1" height="1"/>
<rect x="80" y="155" width="1" height="1"/>
<rect x="82" y="155" width="1" height="1"/>
<rect x="84" y="155" width="1" height="1"/>
<rect x="86" y="155" width="1" height="1"/>
<rect x="88" y="155" width="1" height="1"/>
<rect x="90" y="155" width="1" height="1"/>
<rect x="92" y="155" width="1" height="1"/>
<rect x="94" y="155" width="1" height="1"/>
<rect x="96" y="155" width="1" height="1"/>
<rect x="98" y="155" width="1" height="1"/>
<rect x="100" y="155" width="1" height="1"/>
<rect x="102" y="155" width="1" height="1"/>
<rect x="104" y="155" width="1" height="1"/>
<rect x="106" y="155" width="1" height="1"/>
<rect x="108" y="155" width="1" height="1"/>
<rect x="110" y="155" width="1" height="1"/>
<rect x="112" y="155" width="1" height="1"/>
<rect x="114" y="155" width="1" height="1"/>
<rect x="116" y="155" width="1" height="1"/>
<rect x="118" y="155" width="1" height="1"/>
<rect x="120" y="155" width="1" height="1"/>
<rect x="122" y="155" width="1" height="1"/>
<rect x="124" y="155" width="1" height="1"/>
<rect x="126" y="155" width="1" height="1"/>
<rect x="128" y="155" width="1" height="1"/>
<rect x="130" y="155" width="1" height="1"/>
<rect x="132" y="155" width="1" height="1"/>
<rect x="134" y="155" width="1" height="1"/>
<rect x="136" y="155" width="1" height="1"/>
<rect x="138" y="155" width="1" height="1"/>
<rect x="140" y="155" width="1" height="1"/>
<rect x="142" y="155" width="1" height="1"/>
<rect x="144" y="155" width="1" height="1"/>
<rect x="146" y="155" width="1" height="1"/>
<rect x="148" y="155" width="1" height="1"/>
<rect x="150" y="155" width="1" height="1"/>
<rect x="152" y="155" width="1" height="1"/>
<rect x="154" y="155" width="1" height="1"/>
<rect x="156" y="155" width="1" height="1"/>
<rect x="23" y="156" width="2" height="1"/>
<rect x="30" y="156" width="1" height="1"/>
<rect x="34" y="156" width="2" height="1"/>
<rect x="23" y="157" width="2" height="1"/>
<rect x="30" y="157" width="1" height="1"/>
<rect x="34" y="157" width="2" height="1"/>
<rect x="23" y="158" width="2" height="1"/>
<rect x="30" y="158" width="1" height="1"/>
<rect x="34" y="158" width="2" height="1"/>
<rect x="23" y="159" width="2" height="1"/>
<rect x="30" y="159" width="1" height="1"/>
<rect x="33" y="159" width="3" height="1"/>
<rect x="20" y="160" width="16" height="1"/>
<rect x="22" y="161" width="12" height="1"/>
<rect x="23" y="162" width="2" height="1"/>
<rect x="30" y="162" width="1" height="1"/>
<rect x="24" y="163" width="1" height="1"/>
<rect x="30" y="163" width="1" height="1"/>
</g>
</svg>
