<svg xmlns="http://www.w3.org/2000/svg" viewBox="0 0 360 180" width="360" height="180" shape-rendering="crispEdges">
<rect width="100%" height="100%" fill="#fff"/>
<g fill="#111">
<rect x="17" y="17" width="1" height="1"/>
<rect x="37" y="17" width="6" height="1"/>
<rect x="17" y="18" width="1" height="1"/>
<rect x="41" y="18" width="1" height="1"/>
<rect x="16" y="19" width="4" height="1"/>
<rect x="23" y="19" width="4" height="1"/>
<rect x="29" y="19" width="1" height="1"/>
<rect x="31" y="19" width="3" height="1"/>
<rect x="40" y="19" width="2" height="1"/>
<rect x="45" y="19" width="4" height="1"/>
<rect x="52" y="19" width="1" height="1"/>
<rect x="54" y="19" width="3" height="1"/>
<rect x="61" y="19" width="3" height="1"/>
<rect x="67" y="19" width="5" height="1"/>
<rect x="17" y="20" width="1" height="1"/>
<rect x="22" y="20" width="1" height="1"/>
<rect x="26" y="20" width="1" height="1"/>
<rect x="29" y="20" width="2" height="1"/>
<rect x="34" y="20" width="1" height="1"/>
<rect x="40" y="20" width="1" height="1"/>
<rect x="44" y="20" width="1" height="1"/>
<rect x="48" y="20" width="2" height="1"/>
<rect x="52" y="20" width="2" height="1"/>
<rect x="57" y="20" width="1" height="1"/>
<rect x="60" y="20" width="1" height="1"/>
<rect x="64" y="20" width="1" height="1"/>
<rect x="67" y="20" width="1" height="1"/>
<rect x="17" y="21" width="1" height="1"/>
<rect x="26" y="21" width="1" height="1"/>
<rect x="29" y="21" width="1" height="1"/>
<rect x="34" y="21" width="1" height="1"/>
<rect x="39" y="21" width="1" height="1"/>
<rect x="44" y="21" width="1" height="1"/>
<rect x="49" y="21" width="1" height="1"/>
<rect x="52" y="21" width="1" height="1"/>
<rect x="57" y="21" width="1" height="1"/>
<rect x="60" y="21" width="1" height="1"/>
<rect x="64" y="21" width="2" height="1"/>
<rect x="67" y="21" width="1" height="1"/>
<rect x="17" y="22" width="1" height="1"/>
<rect x="22" y="22" width="5" height="1"/>
<rect x="29" y="22" width="1" height="1"/>
<rect x="34" y="22" width="1" height="1"/>
<rect x="38" y="22" width="2" height="1"/>
<rect x="44" y="22" width="1" height="1"/>
<rect x="49" y="22" width="1" height="1"/>
<rect x="52" y="22" width="1" height="1"/>
<rect x="57" y="22" width="1" height="1"/>
<rect x="60" y="22" width="6" height="1"/>
<rect x="68" y="22" width="3" height="1"/>
<rect x="17" y="23" width="1" height="1"/>
<rect x="22" y="23" width="1" height="1"/>
<rect x="26" y="23" width="1" height="1"/>
<rect x="29" y="23" width="1" height="1"/>
<rect x="34" y="23" width="1" height="1"/>
<rect x="38" y="23" width="1" height="1"/>
<rect x="44" y="23" width="1" height="1"/>
<rect x="49" y="23" width="1" height="1"/>
<rect x="52" y="23" width="1" height="1"/>
<rect x="57" y="23" width="1" height="1"/>
<rect x="60" y="23" width="1" height="1"/>
<rect x="70" y="23" width="2" height="1"/>
<rect x="17" y="24" width="1" height="1"/>
<rect x="22" y="24" width="1" height="1"/>
<rect x="26" y="24" width="1" height="1"/>
<rect x="29" y="24" width="2" height="1"/>
<rect x="33" y="24" width="2" height="1"/>
<rect x="37" y="24" width="1" height="1"/>
<rect x="44" y="24" width="1" height="1"/>
<rect x="48" y="24" width="2" height="1"/>
<rect x="52" y="24" width="1" height="1"/>
<rect x="57" y="24" width="1" height="1"/>
<rect x="60" y="24" width="1" height="1"/>
<rect x="70" y="24" width="2" height="1"/>
<rect x="18" y="25" width="2" height="1"/>
<rect x="22" y="25" width="5" height="1"/>
<rect x="29" y="25" width="1" height="1"/>
<rect x="31" y="25" width="3" height="1"/>
<rect x="36" y="25" width="7" height="1"/>
<rect x="45" y="25" width="4" height="1"/>
<rect x="52" y="25" width="1" height="1"/>
<rect x="57" y="25" width="1" height="1"/>
<rect x="61" y="25" width="4" height="1"/>
<rect x="67" y="25" width="4" height="1"/>
<rect x="29" y="26" width="1" height="1"/>
<rect x="29" y="27" width="1" height="1"/>
<rect x="29" y="28" width="1" height="1"/>
<rect x="16" y="30" width="328" height="1"/>
<rect x="24" y="46" width="1" height="1"/>
<rect x="26" y="46" width="1" height="1"/>
<rect x="28" y="46" width="1" height="1"/>
<rect x="30" y="46" width="1" height="1"/>
<rect x="32" y="46" width="1" height="1"/>
<rect x="34" y="46" width="1" height="1"/>
<rect x="36" y="46" width="1" height="1"/>
<rect x="38" y="46" width="1" height="1"/>
<rect x="40" y="46" width="1" height="1"/>
<rect x="42" y="46" width="1" height="1"/>
<rect x="44" y="46" width="1" height="1"/>
<rect x="46" y="46" width="1" height="1"/>
<rect x="48" y="46" width="1" height="1"/>
<rect x="50" y="46" width="1" height="1"/>
<rect x="52" y="46" width="1" height="1"/>
<rect x="54" y="46" width="1" height="1"/>
<rect x="56" y="46" width="1" height="1"/>
<rect x="58" y="46" width="1" height="1"/>
<rect x="60" y="46" width="1" height="1"/>
<rect x="62" y="46" width="1" height="1"/>
<rect x="64" y="46" width="1" height="1"/>
<rect x="66" y="46" width="1" height="1"/>
<rect x="68" y="46" width="1" height="1"/>
<rect x="70" y="46" width="1" height="1"/>
<rect x="72" y="46" width="1" height="1"/>
<rect x="74" y="46" width="1" height="1"/>
<rect x="76" y="46" width="1" height="1"/>
<rect x="78" y="46" width="1" height="1"/>
<rect x="80" y="46" width="1" height="1"/>
<rect x="82" y="46" width="1" height="1"/>
<rect x="84" y="46" width="1" height="1"/>
<rect x="86" y="46" width="1" height="1"/>
<rect x="88" y="46" width="1" height="1"/>
<rect x="90" y="46" width="1" height="1"/>
<rect x="92" y="46" width="1" height="1"/>
<rect x="94" y="46" width="1" height="1"/>
<rect x="96" y="46" width="1" height="1"/>
<rect x="98" y="46" width="1" height="1"/>
<rect x="100" y="46" width="1" height="1"/>
<rect x="102" y="46" width="1" height="1"/>
<rect x="104" y="46" width="1" height="1"/>
<rect x="106" y="46" width="1" height="1"/>
<rect x="108" y="46" width="1" height="1"/>
<rect x="110" y="46" width="1" height="1"/>
<rect x="112" y="46" width="1" height="1"/>
<rect x="114" y="46" width="1" height="1"/>
<rect x="116" y="46" width="1" height="1"/>
<rect x="118" y="46" width="1" height="1"/>
<rect x="120" y="46" width="1" height="1"/>
<rect x="122" y="46" width="1" height="1"/>
<rect x="124" y="46" width="1" height="1"/>
<rect x="126" y="46" width="1" height="1"/>
<rect x="128" y="46" width="1" height="1"/>
<rect x="130" y="46" width="1" height="1"/>
<rect x="132" y="46" width="1" height="1"/>
<rect x="134" y="46" width="1" height="1"/>
<rect x="136" y="46" width="1" height="1"/>
<rect x="138" y="46" width="1" height="1"/>
<rect x="140" y="46" width="1" height="1"/>
<rect x="142" y="46" width="1" height="1"/>
<rect x="144" y="46" width="1" height="1"/>
<rect x="146" y="46" width="1" height="1"/>
<rect x="148" y="46" width="1" height="1"/>
<rect x="150" y="46" width="1" height="1"/>
<rect x="152" y="46" width="1" height="1"/>
<rect x="154" y="46" width="1" height="1"/>
<rect x="156" y="46" width="1" height="1"/>
<rect x="158" y="46" width="1" height="1"/>
<rect x="160" y="46" width="1" height="1"/>
<rect x="162" y="46" width="1" height="1"/>
<rect x="164" y="46" width="1" height="1"/>
<rect x="166" y="46" width="1" height="1"/>
<rect x="168" y="46" width="1" height="1"/>
<rect x="170" y="46" width="1" height="1"/>
<rect x="172" y="46" width="1" height="1"/>
<rect x="174" y="46" width="1" height="1"/>
<rect x="176" y="46" width="1" height="1"/>
<rect x="178" y="46" width="1" height="1"/>
<rect x="180" y="46" width="1" height="1"/>
<rect x="182" y="46" width="1" height="1"/>
<rect x="184" y="46" width="1" height="1"/>
<rect x="186" y="46" width="1" height="1"/>
<rect x="188" y="46" width="1" height="1"/>
<rect x="190" y="46" width="1" height="1"/>
<rect x="192" y="46" width="1" height="1"/>
<rect x="194" y="46" width="1" height="1"/>
<rect x="196" y="46" width="1" height="1"/>
<rect x="198" y="46" width="1" height="1"/>
<rect x="200" y="46" width="1" height="1"/>
<rect x="202" y="46" width="1" height="1"/>
<rect x="204" y="46" width="1" height="1"/>
<rect x="206" y="46" width="1" height="1"/>
<rect x="208" y="46" width="1" height="1"/>
<rect x="210" y="46" width="1" height="1"/>
<rect x="212" y="46" width="1" height="1"/>
<rect x="214" y="46" width="1" height="1"/>
<rect x="216" y="46" width="1" height="1"/>
<rect x="218" y="46" width="1" height="1"/>
<rect x="220" y="46" width="1" height="1"/>
<rect x="222" y="46" width="1" height="1"/>
<rect x="224" y="46" width="1" height="1"/>
<rect x="226" y="46" width="1" height="1"/>
<rect x="228" y="46" width="1" height="1"/>
<rect x="230" y="46" width="1" height="1"/>
<rect x="232" y="46" width="1" height="1"/>
<rect x="234" y="46" width="1" height="1"/>
<rect x="236" y="46" width="1" height="1"/>
<rect x="238" y="46" width="1" height="1"/>
<rect x="240" y="46" width="1" height="1"/>
<rect x="242" y="46" width="1" height="1"/>
<rect x="244" y="46" width="1" height="1"/>
<rect x="246" y="46" width="1" height="1"/>
<rect x="248" y="46" width="1" height="1"/>
<rect x="250" y="46" width="1" height="1"/>
<rect x="252" y="46" width="1" height="1"/>
<rect x="254" y="46" width="1" height="1"/>
<rect x="256" y="46" width="1" height="1"/>
<rect x="258" y="46" width="1" height="1"/>
<rect x="260" y="46" width="1" height="1"/>
<rect x="262" y="46" width="1" height="1"/>
<rect x="264" y="46" width="1" height="1"/>
<rect x="266" y="46" width="1" height="1"/>
<rect x="268" y="46" width="1" height="1"/>
<rect x="270" y="46" width="1" height="1"/>
<rect x="272" y="46" width="1" height="1"/>
<rect x="274" y="46" width="1" height="1"/>
<rect x="276" y="46" width="1" height="1"/>
<rect x="278" y="46" width="1" height="1"/>
<rect x="280" y="46" width="1" height="1"/>
<rect x="282" y="46" width="1" height="1"/>
<rect x="284" y="46" width="1" height="1"/>
<rect x="286" y="46" width="1" height="1"/>
<rect x="288" y="46" width="1" height="1"/>
<rect x="290" y="46" width="1" height="1"/>
<rect x="292" y="46" width="1" height="1"/>
<rect x="294" y="46" width="1" height="1"/>
<rect x="296" y="46" width="1" height="1"/>
<rect x="298" y="46" width="1" height="1"/>
<rect x="300" y="46" width="1" height="1"/>
<rect x="302" y="46" width="1" height="1"/>
<rect x="304" y="46" width="1" height="1"/>
<rect x="306" y="46" width="1" height="1"/>
<rect x="308" y="46" width="1" height="1"/>
<rect x="310" y="46" width="1" height="1"/>
<rect x="312" y="46" width="1" height="1"/>
<rect x="314" y="46" width="1" height="1"/>
<rect x="316" y="46" width="1" height="1"/>
<rect x="318" y="46" width="1" height="1"/>
<rect x="320" y="46" width="1" height="1"/>
<rect x="322" y="46" width="1" height="1"/>
<rect x="324" y="46" width="1" height="1"/>
<rect x="326" y="46" width="1" height="1"/>
<rect x="328" y="46" width="1" height="1"/>
<rect x="330" y="46" width="1" height="1"/>
<rect x="332" y="46" width="1" height="1"/>
<rect x="334" y="46" width="1" height="1"/>
<rect x="24" y="48" width="1" height="1"/>
<rect x="128" y="48" width="1" height="1"/>
<rect x="232" y="48" width="1" height="1"/>
<rect x="24" y="50" width="1" height="1"/>
<rect x="128" y="50" width="1" height="1"/>
<rect x="232" y="50" width="1" height="1"/>
<rect x="24" y="52" width="1" height="1"/>
<rect x="128" y="52" width="1" height="1"/>
<rect x="232" y="52" width="1" height="1"/>
<rect x="24" y="54" width="1" height="1"/>
<rect x="128" y="54" width="1" height="1"/>
<rect x="232" y="54" width="1" height="1"/>
<rect x="24" y="56" width="1" height="1"/>
<rect x="128" y="56" width="1" height="1"/>
<rect x="232" y="56" width="1" height="1"/>
<rect x="24" y="58" width="1" height="1"/>
<rect x="128" y="58" width="1" height="1"/>
<rect x="232" y="58" width="1" height="1"/>
<rect x="24" y="60" width="1" height="1"/>
<rect x="128" y="60" width="1" height="1"/>
<rect x="232" y="60" width="1" height="1"/>
<rect x="24" y="62" width="1" height="1"/>
<rect x="128" y="62" width="1" height="1"/>
<rect x="232" y="62" width="1" height="1"/>
<rect x="24" y="64" width="1" height="1"/>
<rect x="128" y="64" width="1" height="1"/>
<rect x="232" y="64" width="1" height="1"/>
<rect x="24" y="66" width="1" height="1"/>
<rect x="128" y="66" width="1" height="1"/>
<rect x="232" y="66" width="1" height="1"/>
<rect x="24" y="68" width="1" height="1"/>
<rect x="128" y="68" width="1" height="1"/>
<rect x="232" y="68" width="1" height="1"/>
<rect x="24" y="70" width="1" height="1"/>
<rect x="128" y="70" width="1" height="1"/>
<rect x="232" y="70" width="1" height="1"/>
<rect x="24" y="72" width="1" height="1"/>
<rect x="128" y="72" width="1" height="1"/>
<rect x="232" y="72" width="1" height="1"/>
<rect x="24" y="74" width="1" height="1"/>
<rect x="128" y="74" width="1" height="1"/>
<rect x="232" y="74" width="1" height="1"/>
<rect x="24" y="76" width="1" height="1"/>
<rect x="128" y="76" width="1" height="1"/>
<rect x="232" y="76" width="1" height="1"/>
<rect x="24" y="78" width="1" height="1"/>
<rect x="128" y="78" width="1" height="1"/>
<rect x="232" y="78" width="1" height="1"/>
<rect x="24" y="80" width="1" height="1"/>
<rect x="128" y="80" width="1" height="1"/>
<rect x="232" y="80" width="1" height="1"/>
<rect x="24" y="82" width="1" height="1"/>
<rect x="128" y="82" width="1" height="1"/>
<rect x="232" y="82" width="1" height="1"/>
<rect x="24" y="84" width="1" height="1"/>
<rect x="128" y="84" width="1" height="1"/>
<rect x="232" y="84" width="1" height="1"/>
<rect x="24" y="86" width="1" height="1"/>
<rect x="128" y="86" width="1" height="1"/>
<rect x="232" y="86" width="1" height="1"/>
<rect x="24" y="88" width="1" height="1"/>
<rect x="128" y="88" width="1" height="1"/>
<rect x="232" y="88" width="1" height="1"/>
<rect x="24" y="90" width="1" height="1"/>
<rect x="128" y="90" width="1" height="1"/>
<rect x="232" y="90" width="1" height="1"/>
<rect x="24" y="92" width="1" height="1"/>
<rect x="128" y="92" width="1" height="1"/>
<rect x="232" y="92" width="1" height="1"/>
<rect x="24" y="94" width="1" height="1"/>
<rect x="128" y="94" width="1" height="1"/>
<rect x="232" y="94" width="1" height="1"/>
<rect x="24" y="96" width="1" height="1"/>
<rect x="128" y="96" width="1" height="1"/>
<rect x="232" y="96" width="1" height="1"/>
<rect x="24" y="98" width="1" height="1"/>
<rect x="63" y="98" width="5" height="1"/>
<rect x="128" y="98" width="1" height="1"/>
<rect x="163" y="98" width="2" height="1"/>
<rect x="171" y="98" width="2" height="1"/>
<rect x="232" y="98" width="1" height="1"/>
<rect x="270" y="98" width="2" height="1"/>
<rect x="277" y="98" width="1" height="1"/>
<rect x="294" y="98" width="1" height="1"/>
<rect x="63" y="99" width="1" height="1"/>
<rect x="68" y="99" width="1" height="1"/>
<rect x="163" y="99" width="3" height="1"/>
<rect x="170" y="99" width="3" height="1"/>
<rect x="270" y="99" width="3" height="1"/>
<rect x="277" y="99" width="1" height="1"/>
<rect x="294" y="99" width="1" height="1"/>
<rect x="24" y="100" width="1" height="1"/>
<rect x="63" y="100" width="1" height="1"/>
<rect x="68" y="100" width="1" height="1"/>
<rect x="71" y="100" width="1" height="1"/>
<rect x="73" y="100" width="2" height="1"/>
<rect x="77" y="100" width="3" height="1"/>
<rect x="82" y="100" width="1" height="1"/>
<rect x="87" y="100" width="2" height="1"/>
<rect x="128" y="100" width="1" height="1"/>
<rect x="163" y="100" width="1" height="1"/>
<rect x="165" y="100" width="1" height="1"/>
<rect x="170" y="100" width="3" height="1"/>
<rect x="176" y="100" width="3" height="1"/>
<rect x="182" y="100" width="1" height="1"/>
<rect x="184" y="100" width="3" height="1"/>
<rect x="190" y="100" width="1" height="1"/>
<rect x="195" y="100" width="1" height="1"/>
<rect x="232" y="100" width="1" height="1"/>
<rect x="270" y="100" width="1" height="1"/>
<rect x="272" y="100" width="1" height="1"/>
<rect x="277" y="100" width="1" height="1"/>
<rect x="281" y="100" width="3" height="1"/>
<rect x="286" y="100" width="2" height="1"/>
<rect x="291" y="100" width="6" height="1"/>
<rect x="63" y="101" width="1" height="1"/>
<rect x="68" y="101" width="1" height="1"/>
<rect x="71" y="101" width="2" height="1"/>
<rect x="76" y="101" width="1" height="1"/>
<rect x="80" y="101" width="1" height="1"/>
<rect x="83" y="101" width="1" height="1"/>
<rect x="87" y="101" width="1" height="1"/>
<rect x="163" y="101" width="1" height="1"/>
<rect x="165" y="101" width="1" height="1"/>
<rect x="169" y="101" width="1" height="1"/>
<rect x="171" y="101" width="2" height="1"/>
<rect x="175" y="101" width="1" height="1"/>
<rect x="179" y="101" width="1" height="1"/>
<rect x="182" y="101" width="2" height="1"/>
<rect x="187" y="101" width="1" height="1"/>
<rect x="190" y="101" width="1" height="1"/>
<rect x="195" y="101" width="1" height="1"/>
<rect x="270" y="101" width="1" height="1"/>
<rect x="273" y="101" width="1" height="1"/>
<rect x="277" y="101" width="1" height="1"/>
<rect x="280" y="101" width="1" height="1"/>
<rect x="284" y="101" width="1" height="1"/>
<rect x="287" y="101" width="2" height="1"/>
<rect x="290" y="101" width="1" height="1"/>
<rect x="294" y="101" width="1" height="1"/>
<rect x="24" y="102" width="1" height="1"/>
<rect x="63" y="102" width="5" height="1"/>
<rect x="71" y="102" width="1" height="1"/>
<rect x="76" y="102" width="1" height="1"/>
<rect x="80" y="102" width="2" height="1"/>
<rect x="83" y="102" width="1" height="1"/>
<rect x="86" y="102" width="2" height="1"/>
<rect x="128" y="102" width="1" height="1"/>
<rect x="163" y="102" width="1" height="1"/>
<rect x="166" y="102" width="1" height="1"/>
<rect x="169" y="102" width="1" height="1"/>
<rect x="171" y="102" width="2" height="1"/>
<rect x="175" y="102" width="1" height="1"/>
<rect x="179" y="102" width="2" height="1"/>
<rect x="182" y="102" width="1" height="1"/>
<rect x="187" y="102" width="1" height="1"/>
<rect x="190" y="102" width="1" height="1"/>
<rect x="195" y="102" width="1" height="1"/>
<rect x="232" y="102" width="1" height="1"/>
<rect x="270" y="102" width="1" height="1"/>
<rect x="273" y="102" width="2" height="1"/>
<rect x="277" y="102" width="1" height="1"/>
<rect x="280" y="102" width="1" height="1"/>
<rect x="284" y="102" width="2" height="1"/>
<rect x="288" y="102" width="1" height="1"/>
<rect x="290" y="102" width="1" height="1"/>
<rect x="294" y="102" width="1" height="1"/>
<rect x="63" y="103" width="1" height="1"/>
<rect x="71" y="103" width="1" height="1"/>
<rect x="76" y="103" width="6" height="1"/>
<rect x="83" y="103" width="1" height="1"/>
<rect x="86" y="103" width="1" height="1"/>
<rect x="163" y="103" width="1" height="1"/>
<rect x="166" y="103" width="1" height="1"/>
<rect x="169" y="103" width="1" height="1"/>
<rect x="171" y="103" width="2" height="1"/>
<rect x="175" y="103" width="6" height="1"/>
<rect x="182" y="103" width="1" height="1"/>
<rect x="187" y="103" width="1" height="1"/>
<rect x="190" y="103" width="1" height="1"/>
<rect x="195" y="103" width="1" height="1"/>
<rect x="270" y="103" width="1" height="1"/>
<rect x="274" y="103" width="1" height="1"/>
<rect x="277" y="103" width="1" height="1"/>
<rect x="280" y="103" width="6" height="1"/>
<rect x="289" y="103" width="1" height="1"/>
<rect x="294" y="103" width="1" height="1"/>
<rect x="24" y="104" width="1" height="1"/>
<rect x="63" y="104" width="1" height="1"/>
<rect x="71" y="104" width="1" height="1"/>
<rect x="76" y="104" width="1" height="1"/>
<rect x="84" y="104" width="1" height="1"/>
<rect x="86" y="104" width="1" height="1"/>
<rect x="128" y="104" width="1" height="1"/>
<rect x="163" y="104" width="1" height="1"/>
<rect x="166" y="104" width="1" height="1"/>
<rect x="168" y="104" width="1" height="1"/>
<rect x="171" y="104" width="2" height="1"/>
<rect x="175" y="104" width="1" height="1"/>
<rect x="182" y="104" width="1" height="1"/>
<rect x="187" y="104" width="1" height="1"/>
<rect x="190" y="104" width="1" height="1"/>
<rect x="195" y="104" width="1" height="1"/>
<rect x="232" y="104" width="1" height="1"/>
<rect x="270" y="104" width="1" height="1"/>
<rect x="275" y="104" width="1" height="1"/>
<rect x="277" y="104" width="1" height="1"/>
<rect x="280" y="104" width="1" height="1"/>
<rect x="288" y="104" width="1" height="1"/>
<rect x="290" y="104" width="1" height="1"/>
<rect x="294" y="104" width="1" height="1"/>
<rect x="63" y="105" width="1" height="1"/>
<rect x="71" y="105" width="1" height="1"/>
<rect x="76" y="105" width="1" height="1"/>
<rect x="84" y="105" width="3" height="1"/>
<rect x="163" y="105" width="1" height="1"/>
<rect x="167" y="105" width="2" height="1"/>
<rect x="171" y="105" width="2" height="1"/>
<rect x="175" y="105" width="1" height="1"/>
<rect x="182" y="105" width="1" height="1"/>
<rect x="187" y="105" width="1" height="1"/>
<rect x="190" y="105" width="1" height="1"/>
<rect x="194" y="105" width="2" height="1"/>
<rect x="270" y="105" width="1" height="1"/>
<rect x="275" y="105" width="1" height="1"/>
<rect x="277" y="105" width="1" height="1"/>
<rect x="280" y="105" width="1" height="1"/>
<rect x="287" y="105" width="2" height="1"/>
<rect x="290" y="105" width="2" height="1"/>
<rect x="294" y="105" width="1" height="1"/>
<rect x="24" y="106" width="1" height="1"/>
<rect x="63" y="106" width="1" height="1"/>
<rect x="71" y="106" width="1" height="1"/>
<rect x="77" y="106" width="4" height="1"/>
<rect x="84" y="106" width="2" height="1"/>
<rect x="128" y="106" width="1" height="1"/>
<rect x="163" y="106" width="1" height="1"/>
<rect x="167" y="106" width="2" height="1"/>
<rect x="171" y="106" width="2" height="1"/>
<rect x="176" y="106" width="4" height="1"/>
<rect x="182" y="106" width="1" height="1"/>
<rect x="187" y="106" width="1" height="1"/>
<rect x="191" y="106" width="3" height="1"/>
<rect x="195" y="106" width="1" height="1"/>
<rect x="232" y="106" width="1" height="1"/>
<rect x="270" y="106" width="1" height="1"/>
<rect x="276" y="106" width="2" height="1"/>
<rect x="281" y="106" width="4" height="1"/>
<rect x="286" y="106" width="2" height="1"/>
<rect x="291" y="106" width="2" height="1"/>
<rect x="295" y="106" width="2" height="1"/>
<rect x="24" y="108" width="1" height="1"/>
<rect x="128" y="108" width="1" height="1"/>
<rect x="232" y="108" width="1" height="1"/>
<rect x="24" y="110" width="1" height="1"/>
<rect x="128" y="110" width="1" height="1"/>
<rect x="232" y="110" width="1" height="1"/>
<rect x="24" y="112" width="1" height="1"/>
<rect x="128" y="112" width="1" height="1"/>
<rect x="232" y="112" width="1" height="1"/>
<rect x="24" y="114" width="1" height="1"/>
<rect x="128" y="114" width="1" height="1"/>
<rect x="232" y="114" width="1" height="1"/>
<rect x="24" y="116" width="1" height="1"/>
<rect x="128" y="116" width="1" height="1"/>
<rect x="232" y="116" width="1" height="1"/>
<rect x="24" y="118" width="1" height="1"/>
<rect x="128" y="118" width="1" height="1"/>
<rect x="232" y="118" width="1" height="1"/>
<rect x="24" y="120" width="1" height="1"/>
<rect x="128" y="120" width="1" height="1"/>
<rect x="232" y="120" width="1" height="1"/>
<rect x="24" y="122" width="1" height="1"/>
<rect x="128" y="122" width="1" height="1"/>
<rect x="232" y="122" width="1" height="1"/>
<rect x="24" y="124" width="1" height="1"/>
<rect x="128" y="124" width="1" height="1"/>
<rect x="232" y="124" width="1" height="1"/>
<rect x="24" y="126" width="1" height="1"/>
<rect x="128" y="126" width="1" height="1"/>
<rect x="232" y="126" width="1" height="1"/>
<rect x="24" y="128" width="1" height="1"/>
<rect x="128" y="128" width="1" height="1"/>
<rect x="232" y="128" width="1" height="1"/>
<rect x="24" y="130" width="1" height="1"/>
<rect x="128" y="130" width="1" height="1"/>
<rect x="232" y="130" width="1" height="1"/>
<rect x="24" y="132" width="1" height="1"/>
<rect x="128" y="132" width="1" height="1"/>
<rect x="232" y="132" width="1" height="1"/>
<rect x="24" y="134" width="1" height="1"/>
<rect x="128" y="134" width="1" height="1"/>
<rect x="232" y="134" width="1" height="1"/>
<rect x="24" y="136" width="1" height="1"/>
<rect x="128" y="136" width="1" height="1"/>
<rect x="232" y="136" width="1" height="1"/>
<rect x="24" y="138" width="1" height="1"/>
<rect x="128" y="138" width="1" height="1"/>
<rect x="232" y="138" width="1" height="1"/>
<rect x="24" y="140" width="1" height="1"/>
<rect x="128" y="140" width="1" height="1"/>
<rect x="232" y="140" width="1" height="1"/>
<rect x="24" y="142" width="1" height="1"/>
<rect x="128" y="142" width="1" height="1"/>
<rect x="232" y="142" width="1" height="1"/>
<rect x="24" y="144" width="1" height="1"/>
<rect x="128" y="144" width="1" height="1"/>
<rect x="232" y="144" width="1" height="1"/>
<rect x="24" y="146" width="1" height="1"/>
<rect x="128" y="146" width="1" height="1"/>
<rect x="232" y="146" width="1" height="1"/>
<rect x="24" y="148" width="1" height="1"/>
<rect x="128" y="148" width="1" height="1"/>
<rect x="232" y="148" width="1" height="1"/>
<rect x="24" y="150" width="1" height="1"/>
<rect x="128" y="150" width="1" height="1"/>
<rect x="232" y="150" width="1" height="1"/>
<rect x="24" y="152" width="1" height="1"/>
<rect x="128" y="152" width="1" height="1"/>
<rect x="232" y="152" width="1" height="1"/>
<rect x="24" y="154" width="1" height="1"/>
<rect x="128" y="154" width="1" height="1"/>
<rect x="232" y="154" width="1" height="1"/>
<rect x="24" y="156" width="1" height="1"/>
<rect x="128" y="156" width="1" height="1"/>
<rect x="232" y="156" width="1" height="1"/>
</g>
</svg>
