<svg xmlns="http://www.w3.org/2000/svg" viewBox="0 0 360 180" width="360" height="180" shape-rendering="crispEdges">
<rect width="100%" height="100%" fill="#fff"/>
<g fill="#111">
<rect x="30" y="0" width="1" height="1"/>
<rect x="67" y="0" width="1" height="1"/>
<rect x="30" y="1" width="1" height="1"/>
<rect x="102" y="1" width="11" height="1"/>
<rect x="30" y="2" width="1" height="1"/>
<rect x="101" y="2" width="12" height="1"/>
<rect x="30" y="3" width="1" height="1"/>
<rect x="69" y="3" width="7" height="1"/>
<rect x="100" y="3" width="3" height="1"/>
<rect x="30" y="4" width="1" height="1"/>
<rect x="68" y="4" width="10" height="1"/>
<rect x="100" y="4" width="2" height="1"/>
<rect x="30" y="5" width="1" height="1"/>
<rect x="67" y="5" width="3" height="1"/>
<rect x="75" y="5" width="3" height="1"/>
<rect x="100" y="5" width="2" height="1"/>
<rect x="30" y="6" width="1" height="1"/>
<rect x="66" y="6" width="2" height="1"/>
<rect x="77" y="6" width="2" height="1"/>
<rect x="100" y="6" width="2" height="1"/>
<rect x="30" y="7" width="1" height="1"/>
<rect x="66" y="7" width="2" height="1"/>
<rect x="77" y="7" width="2" height="1"/>
<rect x="100" y="7" width="2" height="1"/>
<rect x="30" y="8" width="1" height="1"/>
<rect x="66" y="8" width="2" height="1"/>
<rect x="77" y="8" width="2" height="1"/>
<rect x="101" y="8" width="1" height="1"/>
<rect x="30" y="9" width="1" height="1"/>
<rect x="66" y="9" width="2" height="1"/>
<rect x="77" y="9" width="2" height="1"/>
<rect x="101" y="9" width="3" height="1"/>
<rect x="30" y="10" width="1" height="1"/>
<rect x="66" y="10" width="2" height="1"/>
<rect x="77" y="10" width="2" height="1"/>
<rect x="95" y="10" width="18" height="1"/>
<rect x="30" y="11" width="1" height="1"/>
<rect x="66" y="11" width="3" height="1"/>
<rect x="76" y="11" width="3" height="1"/>
<rect x="95" y="11" width="18" height="1"/>
<rect x="30" y="12" width="1" height="1"/>
<rect x="67" y="12" width="11" height="1"/>
<rect x="30" y="13" width="1" height="1"/>
<rect x="68" y="13" width="9" height="1"/>
<rect x="30" y="14" width="1" height="1"/>
<rect x="70" y="14" width="5" height="1"/>
<rect x="30" y="15" width="1" height="1"/>
<rect x="101" y="15" width="2" height="1"/>
<rect x="112" y="15" width="2" height="1"/>
<rect x="30" y="16" width="1" height="1"/>
<rect x="66" y="16" width="1" height="1"/>
<rect x="101" y="16" width="2" height="1"/>
<rect x="112" y="16" width="2" height="1"/>
<rect x="30" y="17" width="1" height="1"/>
<rect x="66" y="17" width="2" height="1"/>
<rect x="101" y="17" width="2" height="1"/>
<rect x="112" y="17" width="2" height="1"/>
<rect x="30" y="18" width="1" height="1"/>
<rect x="66" y="18" width="2" height="1"/>
<rect x="101" y="18" width="2" height="1"/>
<rect x="111" y="18" width="3" height="1"/>
<rect x="30" y="19" width="1" height="1"/>
<rect x="66" y="19" width="2" height="1"/>
<rect x="98" y="19" width="16" height="1"/>
<rect x="30" y="20" width="1" height="1"/>
<rect x="67" y="20" width="2" height="1"/>
<rect x="100" y="20" width="12" height="1"/>
<rect x="30" y="21" width="1" height="1"/>
<rect x="68" y="21" width="2" height="1"/>
<rect x="101" y="21" width="2" height="1"/>
<rect x="30" y="22" width="1" height="1"/>
<rect x="66" y="22" width="13" height="1"/>
<rect x="102" y="22" width="1" height="1"/>
<rect x="30" y="23" width="1" height="1"/>
<rect x="66" y="23" width="13" height="1"/>
<rect x="30" y="24" width="1" height="1"/>
<rect x="30" y="25" width="1" height="1"/>
<rect x="30" y="26" width="1" height="1"/>
<rect x="30" y="27" width="1" height="1"/>
<rect x="30" y="28" width="1" height="1"/>
<rect x="68" y="28" width="9" height="1"/>
<rect x="30" y="29" width="1" height="1"/>
<rect x="67" y="29" width="11" height="1"/>
<rect x="100" y="29" width="1" height="1"/>
<rect x="30" y="30" width="1" height="1"/>
<rect x="66" y="30" width="3" height="1"/>
<rect x="76" y="30" width="3" height="1"/>
<rect x="100" y="30" width="2" height="1"/>
<rect x="30" y="31" width="1" height="1"/>
<rect x="66" y="31" width="2" height="1"/>
<rect x="77" y="31" width="2" height="1"/>
<rect x="100" y="31" width="2" height="1"/>
<rect x="30" y="32" width="1" height="1"/>
<rect x="66" y="32" width="2" height="1"/>
<rect x="77" y="32" width="2" height="1"/>
<rect x="100" y="32" width="2" height="1"/>
<rect x="30" y="33" width="1" height="1"/>
<rect x="66" y="33" width="2" height="1"/>
<rect x="77" y="33" width="2" height="1"/>
<rect x="101" y="33" width="2" height="1"/>
<rect x="30" y="34" width="1" height="1"/>
<rect x="66" y="34" width="2" height="1"/>
<rect x="77" y="34" width="2" height="1"/>
<rect x="102" y="34" width="2" height="1"/>
<rect x="30" y="35" width="1" height="1"/>
<rect x="67" y="35" width="1" height="1"/>
<rect x="77" y="35" width="2" height="1"/>
<rect x="100" y="35" width="13" height="1"/>
<rect x="30" y="36" width="1" height="1"/>
<rect x="67" y="36" width="3" height="1"/>
<rect x="75" y="36" width="3" height="1"/>
<rect x="100" y="36" width="13" height="1"/>
<rect x="30" y="37" width="1" height="1"/>
<rect x="61" y="37" width="18" height="1"/>
<rect x="30" y="38" width="1" height="1"/>
<rect x="61" y="38" width="18" height="1"/>
<rect x="30" y="39" width="1" height="1"/>
<rect x="30" y="40" width="1" height="1"/>
<rect x="30" y="41" width="1" height="1"/>
<rect x="102" y="41" width="5" height="1"/>
<rect x="111" y="41" width="1" height="1"/>
<rect x="30" y="42" width="1" height="1"/>
<rect x="101" y="42" width="6" height="1"/>
<rect x="111" y="42" width="2" height="1"/>
<rect x="30" y="43" width="1" height="1"/>
<rect x="100" y="43" width="3" height="1"/>
<rect x="105" y="43" width="2" height="1"/>
<rect x="111" y="43" width="2" height="1"/>
<rect x="30" y="44" width="1" height="1"/>
<rect x="100" y="44" width="2" height="1"/>
<rect x="105" y="44" width="2" height="1"/>
<rect x="111" y="44" width="2" height="1"/>
<rect x="30" y="45" width="1" height="1"/>
<rect x="100" y="45" width="2" height="1"/>
<rect x="105" y="45" width="2" height="1"/>
<rect x="111" y="45" width="2" height="1"/>
<rect x="30" y="46" width="1" height="1"/>
<rect x="100" y="46" width="2" height="1"/>
<rect x="105" y="46" width="2" height="1"/>
<rect x="111" y="46" width="2" height="1"/>
<rect x="30" y="47" width="1" height="1"/>
<rect x="78" y="47" width="1" height="1"/>
<rect x="100" y="47" width="2" height="1"/>
<rect x="105" y="47" width="2" height="1"/>
<rect x="111" y="47" width="2" height="1"/>
<rect x="30" y="48" width="1" height="1"/>
<rect x="66" y="48" width="1" height="1"/>
<rect x="78" y="48" width="1" height="1"/>
<rect x="100" y="48" width="3" height="1"/>
<rect x="105" y="48" width="2" height="1"/>
<rect x="110" y="48" width="3" height="1"/>
<rect x="30" y="49" width="1" height="1"/>
<rect x="66" y="49" width="2" height="1"/>
<rect x="76" y="49" width="3" height="1"/>
<rect x="101" y="49" width="11" height="1"/>
<rect x="30" y="50" width="1" height="1"/>
<rect x="66" y="50" width="3" height="1"/>
<rect x="75" y="50" width="3" height="1"/>
<rect x="102" y="50" width="9" height="1"/>
<rect x="30" y="51" width="1" height="1"/>
<rect x="67" y="51" width="3" height="1"/>
<rect x="74" y="51" width="3" height="1"/>
<rect x="105" y="51" width="4" height="1"/>
<rect x="30" y="52" width="1" height="1"/>
<rect x="69" y="52" width="2" height="1"/>
<rect x="72" y="52" width="4" height="1"/>
<rect x="30" y="53" width="1" height="1"/>
<rect x="70" y="53" width="4" height="1"/>
<rect x="101" y="53" width="2" height="1"/>
<rect x="30" y="54" width="1" height="1"/>
<rect x="71" y="54" width="2" height="1"/>
<rect x="101" y="54" width="5" height="1"/>
<rect x="30" y="55" width="1" height="1"/>
<rect x="72" y="55" width="2" height="1"/>
<rect x="102" y="55" width="6" height="1"/>
<rect x="30" y="56" width="1" height="1"/>
<rect x="61" y="56" width="18" height="1"/>
<rect x="105" y="56" width="6" height="1"/>
<rect x="30" y="57" width="1" height="1"/>
<rect x="61" y="57" width="18" height="1"/>
<rect x="108" y="57" width="6" height="1"/>
<rect x="30" y="58" width="1" height="1"/>
<rect x="111" y="58" width="3" height="1"/>
<rect x="30" y="59" width="1" height="1"/>
<rect x="110" y="59" width="4" height="1"/>
<rect x="30" y="60" width="1" height="1"/>
<rect x="107" y="60" width="6" height="1"/>
<rect x="30" y="61" width="1" height="1"/>
<rect x="66" y="61" width="1" height="1"/>
<rect x="77" y="61" width="2" height="1"/>
<rect x="105" y="61" width="5" height="1"/>
<rect x="30" y="62" width="1" height="1"/>
<rect x="66" y="62" width="2" height="1"/>
<rect x="77" y="62" width="2" height="1"/>
<rect x="102" y="62" width="6" height="1"/>
<rect x="30" y="63" width="1" height="1"/>
<rect x="66" y="63" width="2" height="1"/>
<rect x="77" y="63" width="2" height="1"/>
<rect x="101" y="63" width="4" height="1"/>
<rect x="30" y="64" width="1" height="1"/>
<rect x="66" y="64" width="2" height="1"/>
<rect x="77" y="64" width="2" height="1"/>
<rect x="101" y="64" width="1" height="1"/>
<rect x="30" y="65" width="1" height="1"/>
<rect x="66" y="65" width="2" height="1"/>
<rect x="77" y="65" width="2" height="1"/>
<rect x="30" y="66" width="1" height="1"/>
<rect x="66" y="66" width="2" height="1"/>
<rect x="77" y="66" width="2" height="1"/>
<rect x="30" y="67" width="1" height="1"/>
<rect x="66" y="67" width="3" height="1"/>
<rect x="76" y="67" width="3" height="1"/>
<rect x="103" y="67" width="7" height="1"/>
<rect x="26" y="68" width="9" height="1"/>
<rect x="67" y="68" width="11" height="1"/>
<rect x="102" y="68" width="10" height="1"/>
<rect x="23" y="69" width="12" height="1"/>
<rect x="68" y="69" width="9" height="1"/>
<rect x="101" y="69" width="3" height="1"/>
<rect x="109" y="69" width="3" height="1"/>
<rect x="22" y="70" width="11" height="1"/>
<rect x="70" y="70" width="5" height="1"/>
<rect x="100" y="70" width="2" height="1"/>
<rect x="111" y="70" width="2" height="1"/>
<rect x="22" y="71" width="2" height="1"/>
<rect x="27" y="71" width="2" height="1"/>
<rect x="30" y="71" width="1" height="1"/>
<rect x="32" y="71" width="2" height="1"/>
<rect x="100" y="71" width="2" height="1"/>
<rect x="111" y="71" width="2" height="1"/>
<rect x="22" y="72" width="2" height="1"/>
<rect x="27" y="72" width="2" height="1"/>
<rect x="30" y="72" width="1" height="1"/>
<rect x="33" y="72" width="2" height="1"/>
<rect x="100" y="72" width="2" height="1"/>
<rect x="111" y="72" width="2" height="1"/>
<rect x="22" y="73" width="2" height="1"/>
<rect x="27" y="73" width="2" height="1"/>
<rect x="30" y="73" width="1" height="1"/>
<rect x="33" y="73" width="2" height="1"/>
<rect x="100" y="73" width="2" height="1"/>
<rect x="111" y="73" width="2" height="1"/>
<rect x="22" y="74" width="2" height="1"/>
<rect x="27" y="74" width="2" height="1"/>
<rect x="30" y="74" width="1" height="1"/>
<rect x="34" y="74" width="1" height="1"/>
<rect x="62" y="74" width="3" height="1"/>
<rect x="67" y="74" width="13" height="1"/>
<rect x="100" y="74" width="2" height="1"/>
<rect x="111" y="74" width="2" height="1"/>
<rect x="22" y="75" width="2" height="1"/>
<rect x="28" y="75" width="1" height="1"/>
<rect x="30" y="75" width="1" height="1"/>
<rect x="33" y="75" width="2" height="1"/>
<rect x="62" y="75" width="3" height="1"/>
<rect x="67" y="75" width="13" height="1"/>
<rect x="100" y="75" width="3" height="1"/>
<rect x="110" y="75" width="3" height="1"/>
<rect x="23" y="76" width="2" height="1"/>
<rect x="28" y="76" width="3" height="1"/>
<rect x="32" y="76" width="3" height="1"/>
<rect x="101" y="76" width="11" height="1"/>
<rect x="29" y="77" width="6" height="1"/>
<rect x="102" y="77" width="9" height="1"/>
<rect x="30" y="78" width="3" height="1"/>
<rect x="104" y="78" width="5" height="1"/>
<rect x="30" y="79" width="1" height="1"/>
<rect x="30" y="80" width="1" height="1"/>
<rect x="67" y="80" width="13" height="1"/>
<rect x="30" y="81" width="1" height="1"/>
<rect x="67" y="81" width="13" height="1"/>
<rect x="24" y="82" width="5" height="1"/>
<rect x="30" y="82" width="1" height="1"/>
<rect x="33" y="82" width="1" height="1"/>
<rect x="76" y="82" width="3" height="1"/>
<rect x="23" y="83" width="6" height="1"/>
<rect x="30" y="83" width="1" height="1"/>
<rect x="33" y="83" width="2" height="1"/>
<rect x="78" y="83" width="1" height="1"/>
<rect x="22" y="84" width="3" height="1"/>
<rect x="27" y="84" width="2" height="1"/>
<rect x="30" y="84" width="1" height="1"/>
<rect x="33" y="84" width="2" height="1"/>
<rect x="78" y="84" width="2" height="1"/>
<rect x="22" y="85" width="2" height="1"/>
<rect x="27" y="85" width="2" height="1"/>
<rect x="30" y="85" width="1" height="1"/>
<rect x="33" y="85" width="2" height="1"/>
<rect x="78" y="85" width="2" height="1"/>
<rect x="22" y="86" width="2" height="1"/>
<rect x="27" y="86" width="2" height="1"/>
<rect x="30" y="86" width="1" height="1"/>
<rect x="33" y="86" width="2" height="1"/>
<rect x="78" y="86" width="2" height="1"/>
<rect x="22" y="87" width="2" height="1"/>
<rect x="27" y="87" width="2" height="1"/>
<rect x="30" y="87" width="1" height="1"/>
<rect x="33" y="87" width="2" height="1"/>
<rect x="78" y="87" width="2" height="1"/>
<rect x="22" y="88" width="2" height="1"/>
<rect x="27" y="88" width="2" height="1"/>
<rect x="30" y="88" width="1" height="1"/>
<rect x="33" y="88" width="2" height="1"/>
<rect x="77" y="88" width="3" height="1"/>
<rect x="100" y="88" width="2" height="1"/>
<rect x="107" y="88" width="5" height="1"/>
<rect x="22" y="89" width="3" height="1"/>
<rect x="27" y="89" width="2" height="1"/>
<rect x="30" y="89" width="1" height="1"/>
<rect x="32" y="89" width="3" height="1"/>
<rect x="67" y="89" width="12" height="1"/>
<rect x="100" y="89" width="2" height="1"/>
<rect x="106" y="89" width="7" height="1"/>
<rect x="23" y="90" width="11" height="1"/>
<rect x="67" y="90" width="11" height="1"/>
<rect x="100" y="90" width="2" height="1"/>
<rect x="106" y="90" width="2" height="1"/>
<rect x="111" y="90" width="2" height="1"/>
<rect x="24" y="91" width="9" height="1"/>
<rect x="100" y="91" width="2" height="1"/>
<rect x="106" y="91" width="2" height="1"/>
<rect x="111" y="91" width="2" height="1"/>
<rect x="27" y="92" width="4" height="1"/>
<rect x="100" y="92" width="2" height="1"/>
<rect x="105" y="92" width="2" height="1"/>
<rect x="112" y="92" width="1" height="1"/>
<rect x="30" y="93" width="1" height="1"/>
<rect x="100" y="93" width="2" height="1"/>
<rect x="105" y="93" width="2" height="1"/>
<rect x="111" y="93" width="2" height="1"/>
<rect x="22" y="94" width="1" height="1"/>
<rect x="30" y="94" width="1" height="1"/>
<rect x="100" y="94" width="2" height="1"/>
<rect x="104" y="94" width="2" height="1"/>
<rect x="111" y="94" width="2" height="1"/>
<rect x="22" y="95" width="2" height="1"/>
<rect x="30" y="95" width="1" height="1"/>
<rect x="66" y="95" width="19" height="1"/>
<rect x="101" y="95" width="5" height="1"/>
<rect x="111" y="95" width="2" height="1"/>
<rect x="22" y="96" width="2" height="1"/>
<rect x="30" y="96" width="1" height="1"/>
<rect x="66" y="96" width="19" height="1"/>
<rect x="102" y="96" width="3" height="1"/>
<rect x="110" y="96" width="3" height="1"/>
<rect x="22" y="97" width="2" height="1"/>
<rect x="30" y="97" width="1" height="1"/>
<rect x="68" y="97" width="3" height="1"/>
<rect x="74" y="97" width="3" height="1"/>
<rect x="23" y="98" width="2" height="1"/>
<rect x="30" y="98" width="1" height="1"/>
<rect x="67" y="98" width="2" height="1"/>
<rect x="77" y="98" width="1" height="1"/>
<rect x="24" y="99" width="2" height="1"/>
<rect x="30" y="99" width="1" height="1"/>
<rect x="66" y="99" width="2" height="1"/>
<rect x="77" y="99" width="2" height="1"/>
<rect x="22" y="100" width="13" height="1"/>
<rect x="66" y="100" width="2" height="1"/>
<rect x="77" y="100" width="2" height="1"/>
<rect x="102" y="100" width="9" height="1"/>
<rect x="22" y="101" width="13" height="1"/>
<rect x="66" y="101" width="2" height="1"/>
<rect x="77" y="101" width="2" height="1"/>
<rect x="101" y="101" width="11" height="1"/>
<rect x="30" y="102" width="1" height="1"/>
<rect x="66" y="102" width="2" height="1"/>
<rect x="77" y="102" width="2" height="1"/>
<rect x="100" y="102" width="3" height="1"/>
<rect x="110" y="102" width="3" height="1"/>
<rect x="30" y="103" width="1" height="1"/>
<rect x="66" y="103" width="3" height="1"/>
<rect x="76" y="103" width="3" height="1"/>
<rect x="100" y="103" width="2" height="1"/>
<rect x="111" y="103" width="2" height="1"/>
<rect x="30" y="104" width="1" height="1"/>
<rect x="33" y="104" width="2" height="1"/>
<rect x="67" y="104" width="11" height="1"/>
<rect x="100" y="104" width="2" height="1"/>
<rect x="111" y="104" width="2" height="1"/>
<rect x="30" y="105" width="5" height="1"/>
<rect x="68" y="105" width="9" height="1"/>
<rect x="100" y="105" width="2" height="1"/>
<rect x="111" y="105" width="2" height="1"/>
<rect x="28" y="106" width="6" height="1"/>
<rect x="70" y="106" width="5" height="1"/>
<rect x="100" y="106" width="2" height="1"/>
<rect x="111" y="106" width="2" height="1"/>
<rect x="25" y="107" width="6" height="1"/>
<rect x="101" y="107" width="1" height="1"/>
<rect x="111" y="107" width="2" height="1"/>
<rect x="23" y="108" width="8" height="1"/>
<rect x="101" y="108" width="3" height="1"/>
<rect x="109" y="108" width="3" height="1"/>
<rect x="20" y="109" width="5" height="1"/>
<rect x="28" y="109" width="3" height="1"/>
<rect x="100" y="109" width="19" height="1"/>
<rect x="18" y="110" width="5" height="1"/>
<rect x="28" y="110" width="3" height="1"/>
<rect x="100" y="110" width="19" height="1"/>
<rect x="18" y="111" width="3" height="1"/>
<rect x="28" y="111" width="3" height="1"/>
<rect x="18" y="112" width="6" height="1"/>
<rect x="28" y="112" width="3" height="1"/>
<rect x="21" y="113" width="5" height="1"/>
<rect x="28" y="113" width="3" height="1"/>
<rect x="23" y="114" width="8" height="1"/>
<rect x="104" y="114" width="9" height="1"/>
<rect x="26" y="115" width="6" height="1"/>
<rect x="101" y="115" width="12" height="1"/>
<rect x="29" y="116" width="5" height="1"/>
<rect x="68" y="116" width="5" height="1"/>
<rect x="77" y="116" width="1" height="1"/>
<rect x="100" y="116" width="13" height="1"/>
<rect x="30" y="117" width="5" height="1"/>
<rect x="67" y="117" width="6" height="1"/>
<rect x="77" y="117" width="2" height="1"/>
<rect x="100" y="117" width="2" height="1"/>
<rect x="30" y="118" width="1" height="1"/>
<rect x="34" y="118" width="1" height="1"/>
<rect x="66" y="118" width="3" height="1"/>
<rect x="71" y="118" width="2" height="1"/>
<rect x="77" y="118" width="2" height="1"/>
<rect x="100" y="118" width="2" height="1"/>
<rect x="30" y="119" width="1" height="1"/>
<rect x="66" y="119" width="2" height="1"/>
<rect x="71" y="119" width="2" height="1"/>
<rect x="77" y="119" width="2" height="1"/>
<rect x="100" y="119" width="2" height="1"/>
<rect x="23" y="120" width="2" height="1"/>
<rect x="30" y="120" width="1" height="1"/>
<rect x="34" y="120" width="2" height="1"/>
<rect x="66" y="120" width="2" height="1"/>
<rect x="71" y="120" width="2" height="1"/>
<rect x="77" y="120" width="2" height="1"/>
<rect x="100" y="120" width="2" height="1"/>
<rect x="23" y="121" width="2" height="1"/>
<rect x="30" y="121" width="1" height="1"/>
<rect x="34" y="121" width="2" height="1"/>
<rect x="66" y="121" width="2" height="1"/>
<rect x="71" y="121" width="2" height="1"/>
<rect x="77" y="121" width="2" height="1"/>
<rect x="101" y="121" width="1" height="1"/>
<rect x="23" y="122" width="2" height="1"/>
<rect x="30" y="122" width="1" height="1"/>
<rect x="34" y="122" width="2" height="1"/>
<rect x="66" y="122" width="2" height="1"/>
<rect x="71" y="122" width="2" height="1"/>
<rect x="77" y="122" width="2" height="1"/>
<rect x="101" y="122" width="3" height="1"/>
<rect x="23" y="123" width="2" height="1"/>
<rect x="30" y="123" width="1" height="1"/>
<rect x="33" y="123" width="3" height="1"/>
<rect x="66" y="123" width="3" height="1"/>
<rect x="71" y="123" width="2" height="1"/>
<rect x="76" y="123" width="3" height="1"/>
<rect x="101" y="123" width="12" height="1"/>
<rect x="20" y="124" width="16" height="1"/>
<rect x="67" y="124" width="11" height="1"/>
<rect x="100" y="124" width="13" height="1"/>
<rect x="22" y="125" width="12" height="1"/>
<rect x="68" y="125" width="9" height="1"/>
<rect x="100" y="125" width="2" height="1"/>
<rect x="23" y="126" width="2" height="1"/>
<rect x="30" y="126" width="1" height="1"/>
<rect x="71" y="126" width="4" height="1"/>
<rect x="100" y="126" width="2" height="1"/>
<rect x="24" y="127" width="1" height="1"/>
<rect x="30" y="127" width="1" height="1"/>
<rect x="100" y="127" width="2" height="1"/>
<rect x="30" y="128" width="1" height="1"/>
<rect x="100" y="128" width="2" height="1"/>
<rect x="23" y="129" width="1" height="1"/>
<rect x="30" y="129" width="1" height="1"/>
<rect x="35" y="129" width="1" height="1"/>
<rect x="101" y="129" width="1" height="1"/>
<rect x="23" y="130" width="2" height="1"/>
<rect x="30" y="130" width="1" height="1"/>
<rect x="34" y="130" width="2" height="1"/>
<rect x="68" y="130" width="11" height="1"/>
<rect x="101" y="130" width="3" height="1"/>
<rect x="23" y="131" width="4" height="1"/>
<rect x="30" y="131" width="1" height="1"/>
<rect x="32" y="131" width="3" height="1"/>
<rect x="67" y="131" width="12" height="1"/>
<rect x="100" y="131" width="13" height="1"/>
<rect x="25" y="132" width="3" height="1"/>
<rect x="30" y="132" width="4" height="1"/>
<rect x="66" y="132" width="3" height="1"/>
<rect x="100" y="132" width="13" height="1"/>
<rect x="26" y="133" width="7" height="1"/>
<rect x="66" y="133" width="2" height="1"/>
<rect x="28" y="134" width="3" height="1"/>
<rect x="66" y="134" width="2" height="1"/>
<rect x="27" y="135" width="5" height="1"/>
<rect x="66" y="135" width="2" height="1"/>
<rect x="25" y="136" width="4" height="1"/>
<rect x="30" y="136" width="4" height="1"/>
<rect x="66" y="136" width="2" height="1"/>
<rect x="24" y="137" width="3" height="1"/>
<rect x="30" y="137" width="1" height="1"/>
<rect x="32" y="137" width="3" height="1"/>
<rect x="67" y="137" width="1" height="1"/>
<rect x="101" y="137" width="13" height="1"/>
<rect x="23" y="138" width="3" height="1"/>
<rect x="30" y="138" width="1" height="1"/>
<rect x="33" y="138" width="3" height="1"/>
<rect x="67" y="138" width="3" height="1"/>
<rect x="101" y="138" width="13" height="1"/>
<rect x="23" y="139" width="1" height="1"/>
<rect x="30" y="139" width="1" height="1"/>
<rect x="34" y="139" width="2" height="1"/>
<rect x="61" y="139" width="18" height="1"/>
<rect x="110" y="139" width="3" height="1"/>
<rect x="30" y="140" width="1" height="1"/>
<rect x="35" y="140" width="1" height="1"/>
<rect x="61" y="140" width="18" height="1"/>
<rect x="112" y="140" width="1" height="1"/>
<rect x="30" y="141" width="1" height="1"/>
<rect x="112" y="141" width="2" height="1"/>
<rect x="30" y="142" width="1" height="1"/>
<rect x="112" y="142" width="2" height="1"/>
<rect x="24" y="143" width="5" height="1"/>
<rect x="30" y="143" width="1" height="1"/>
<rect x="33" y="143" width="1" height="1"/>
<rect x="62" y="143" width="2" height="1"/>
<rect x="112" y="143" width="2" height="1"/>
<rect x="23" y="144" width="6" height="1"/>
<rect x="30" y="144" width="1" height="1"/>
<rect x="33" y="144" width="2" height="1"/>
<rect x="62" y="144" width="2" height="1"/>
<rect x="112" y="144" width="2" height="1"/>
<rect x="22" y="145" width="3" height="1"/>
<rect x="27" y="145" width="2" height="1"/>
<rect x="30" y="145" width="1" height="1"/>
<rect x="33" y="145" width="2" height="1"/>
<rect x="62" y="145" width="2" height="1"/>
<rect x="111" y="145" width="3" height="1"/>
<rect x="22" y="146" width="2" height="1"/>
<rect x="27" y="146" width="2" height="1"/>
<rect x="30" y="146" width="1" height="1"/>
<rect x="33" y="146" width="2" height="1"/>
<rect x="62" y="146" width="2" height="1"/>
<rect x="101" y="146" width="12" height="1"/>
<rect x="22" y="147" width="2" height="1"/>
<rect x="27" y="147" width="2" height="1"/>
<rect x="30" y="147" width="1" height="1"/>
<rect x="33" y="147" width="2" height="1"/>
<rect x="62" y="147" width="2" height="1"/>
<rect x="101" y="147" width="11" height="1"/>
<rect x="22" y="148" width="2" height="1"/>
<rect x="27" y="148" width="2" height="1"/>
<rect x="30" y="148" width="1" height="1"/>
<rect x="33" y="148" width="2" height="1"/>
<rect x="62" y="148" width="17" height="1"/>
<rect x="22" y="149" width="2" height="1"/>
<rect x="27" y="149" width="2" height="1"/>
<rect x="30" y="149" width="1" height="1"/>
<rect x="33" y="149" width="2" height="1"/>
<rect x="62" y="149" width="17" height="1"/>
<rect x="22" y="150" width="3" height="1"/>
<rect x="27" y="150" width="2" height="1"/>
<rect x="30" y="150" width="1" height="1"/>
<rect x="32" y="150" width="3" height="1"/>
<rect x="62" y="150" width="2" height="1"/>
<rect x="23" y="151" width="11" height="1"/>
<rect x="62" y="151" width="2" height="1"/>
<rect x="24" y="152" width="9" height="1"/>
<rect x="62" y="152" width="2" height="1"/>
<rect x="27" y="153" width="4" height="1"/>
<rect x="62" y="153" width="2" height="1"/>
<rect x="96" y="153" width="3" height="1"/>
<rect x="101" y="153" width="18" height="1"/>
<rect x="30" y="154" width="1" height="1"/>
<rect x="62" y="154" width="2" height="1"/>
<rect x="96" y="154" width="3" height="1"/>
<rect x="101" y="154" width="18" height="1"/>
<rect x="30" y="155" width="1" height="1"/>
<rect x="62" y="155" width="2" height="1"/>
<rect x="118" y="155" width="2" height="1"/>
<rect x="23" y="156" width="2" height="1"/>
<rect x="30" y="156" width="1" height="1"/>
<rect x="34" y="156" width="2" height="1"/>
<rect x="23" y="157" width="2" height="1"/>
<rect x="30" y="157" width="1" height="1"/>
<rect x="34" y="157" width="2" height="1"/>
<rect x="23" y="158" width="2" height="1"/>
<rect x="30" y="158" width="1" height="1"/>
<rect x="34" y="158" width="2" height="1"/>
<rect x="23" y="159" width="2" height="1"/>
<rect x="30" y="159" width="1" height="1"/>
<rect x="33" y="159" width="3" height="1"/>
<rect x="20" y="160" width="16" height="1"/>
<rect x="22" y="161" width="12" height="1"/>
<rect x="23" y="162" width="2" height="1"/>
<rect x="30" y="162" width="1" height="1"/>
<rect x="24" y="163" width="1" height="1"/>
<rect x="30" y="163" width="1" height="1"/>
</g>
</svg>
