<svg xmlns="http://www.w3.org/2000/svg" viewBox="0 0 360 180" width="360" height="180" shape-rendering="crispEdges">
<rect width="100%" height="100%" fill="#fff"/>
<g fill="#111">
<rect x="48" y="16" width="1" height="1"/>
<rect x="58" y="16" width="1" height="1"/>
<rect x="66" y="16" width="1" height="1"/>
<rect x="17" y="17" width="1" height="1"/>
<rect x="36" y="17" width="1" height="1"/>
<rect x="41" y="17" width="5" height="1"/>
<rect x="58" y="17" width="1" height="1"/>
<rect x="66" y="17" width="1" height="1"/>
<rect x="17" y="18" width="1" height="1"/>
<rect x="36" y="18" width="1" height="1"/>
<rect x="41" y="18" width="1" height="1"/>
<rect x="58" y="18" width="1" height="1"/>
<rect x="66" y="18" width="1" height="1"/>
<rect x="16" y="19" width="4" height="1"/>
<rect x="23" y="19" width="3" height="1"/>
<rect x="28" y="19" width="2" height="1"/>
<rect x="33" y="19" width="6" height="1"/>
<rect x="41" y="19" width="1" height="1"/>
<rect x="48" y="19" width="1" height="1"/>
<rect x="52" y="19" width="3" height="1"/>
<rect x="58" y="19" width="1" height="1"/>
<rect x="62" y="19" width="3" height="1"/>
<rect x="66" y="19" width="1" height="1"/>
<rect x="17" y="20" width="1" height="1"/>
<rect x="22" y="20" width="1" height="1"/>
<rect x="26" y="20" width="1" height="1"/>
<rect x="29" y="20" width="2" height="1"/>
<rect x="32" y="20" width="1" height="1"/>
<rect x="36" y="20" width="1" height="1"/>
<rect x="41" y="20" width="1" height="1"/>
<rect x="48" y="20" width="1" height="1"/>
<rect x="51" y="20" width="1" height="1"/>
<rect x="55" y="20" width="1" height="1"/>
<rect x="58" y="20" width="1" height="1"/>
<rect x="61" y="20" width="1" height="1"/>
<rect x="65" y="20" width="2" height="1"/>
<rect x="17" y="21" width="1" height="1"/>
<rect x="22" y="21" width="1" height="1"/>
<rect x="26" y="21" width="2" height="1"/>
<rect x="30" y="21" width="1" height="1"/>
<rect x="32" y="21" width="1" height="1"/>
<rect x="36" y="21" width="1" height="1"/>
<rect x="41" y="21" width="5" height="1"/>
<rect x="48" y="21" width="1" height="1"/>
<rect x="51" y="21" width="1" height="1"/>
<rect x="55" y="21" width="2" height="1"/>
<rect x="58" y="21" width="1" height="1"/>
<rect x="61" y="21" width="1" height="1"/>
<rect x="66" y="21" width="1" height="1"/>
<rect x="17" y="22" width="1" height="1"/>
<rect x="22" y="22" width="6" height="1"/>
<rect x="31" y="22" width="1" height="1"/>
<rect x="36" y="22" width="1" height="1"/>
<rect x="41" y="22" width="1" height="1"/>
<rect x="48" y="22" width="1" height="1"/>
<rect x="51" y="22" width="6" height="1"/>
<rect x="58" y="22" width="1" height="1"/>
<rect x="61" y="22" width="1" height="1"/>
<rect x="66" y="22" width="1" height="1"/>
<rect x="17" y="23" width="1" height="1"/>
<rect x="22" y="23" width="1" height="1"/>
<rect x="30" y="23" width="1" height="1"/>
<rect x="32" y="23" width="1" height="1"/>
<rect x="36" y="23" width="1" height="1"/>
<rect x="41" y="23" width="1" height="1"/>
<rect x="48" y="23" width="1" height="1"/>
<rect x="51" y="23" width="1" height="1"/>
<rect x="58" y="23" width="1" height="1"/>
<rect x="61" y="23" width="1" height="1"/>
<rect x="66" y="23" width="1" height="1"/>
<rect x="17" y="24" width="1" height="1"/>
<rect x="22" y="24" width="1" height="1"/>
<rect x="29" y="24" width="2" height="1"/>
<rect x="32" y="24" width="2" height="1"/>
<rect x="36" y="24" width="1" height="1"/>
<rect x="41" y="24" width="1" height="1"/>
<rect x="48" y="24" width="1" height="1"/>
<rect x="51" y="24" width="1" height="1"/>
<rect x="58" y="24" width="1" height="1"/>
<rect x="61" y="24" width="1" height="1"/>
<rect x="65" y="24" width="2" height="1"/>
<rect x="18" y="25" width="2" height="1"/>
<rect x="23" y="25" width="4" height="1"/>
<rect x="28" y="25" width="2" height="1"/>
<rect x="33" y="25" width="2" height="1"/>
<rect x="37" y="25" width="2" height="1"/>
<rect x="41" y="25" width="1" height="1"/>
<rect x="48" y="25" width="1" height="1"/>
<rect x="52" y="25" width="4" height="1"/>
<rect x="58" y="25" width="1" height="1"/>
<rect x="62" y="25" width="3" height="1"/>
<rect x="66" y="25" width="1" height="1"/>
<rect x="16" y="30" width="328" height="1"/>
<rect x="70" y="84" width="2" height="1"/>
<rect x="70" y="85" width="2" height="1"/>
<rect x="70" y="86" width="2" height="1"/>
<rect x="70" y="87" width="2" height="1"/>
<rect x="63" y="88" width="1" height="1"/>
<rect x="70" y="88" width="2" height="1"/>
<rect x="32" y="89" width="4" height="1"/>
<rect x="63" y="89" width="1" height="1"/>
<rect x="70" y="89" width="2" height="1"/>
<rect x="31" y="90" width="1" height="1"/>
<rect x="63" y="90" width="1" height="1"/>
<rect x="70" y="90" width="2" height="1"/>
<rect x="31" y="91" width="1" height="1"/>
<rect x="39" y="91" width="3" height="1"/>
<rect x="46" y="91" width="4" height="1"/>
<rect x="52" y="91" width="1" height="1"/>
<rect x="54" y="91" width="2" height="1"/>
<rect x="58" y="91" width="4" height="1"/>
<rect x="63" y="91" width="1" height="1"/>
<rect x="65" y="91" width="3" height="1"/>
<rect x="70" y="91" width="2" height="1"/>
<rect x="31" y="92" width="2" height="1"/>
<rect x="38" y="92" width="1" height="1"/>
<rect x="42" y="92" width="1" height="1"/>
<rect x="45" y="92" width="1" height="1"/>
<rect x="49" y="92" width="1" height="1"/>
<rect x="52" y="92" width="2" height="1"/>
<rect x="57" y="92" width="1" height="1"/>
<rect x="63" y="92" width="2" height="1"/>
<rect x="68" y="92" width="1" height="1"/>
<rect x="70" y="92" width="2" height="1"/>
<rect x="32" y="93" width="3" height="1"/>
<rect x="38" y="93" width="1" height="1"/>
<rect x="42" y="93" width="2" height="1"/>
<rect x="49" y="93" width="1" height="1"/>
<rect x="52" y="93" width="1" height="1"/>
<rect x="57" y="93" width="1" height="1"/>
<rect x="63" y="93" width="1" height="1"/>
<rect x="68" y="93" width="1" height="1"/>
<rect x="70" y="93" width="2" height="1"/>
<rect x="35" y="94" width="1" height="1"/>
<rect x="38" y="94" width="6" height="1"/>
<rect x="45" y="94" width="5" height="1"/>
<rect x="52" y="94" width="1" height="1"/>
<rect x="57" y="94" width="1" height="1"/>
<rect x="63" y="94" width="1" height="1"/>
<rect x="68" y="94" width="1" height="1"/>
<rect x="70" y="94" width="2" height="1"/>
<rect x="35" y="95" width="2" height="1"/>
<rect x="38" y="95" width="1" height="1"/>
<rect x="45" y="95" width="1" height="1"/>
<rect x="49" y="95" width="1" height="1"/>
<rect x="52" y="95" width="1" height="1"/>
<rect x="57" y="95" width="1" height="1"/>
<rect x="63" y="95" width="1" height="1"/>
<rect x="68" y="95" width="1" height="1"/>
<rect x="70" y="95" width="2" height="1"/>
<rect x="35" y="96" width="1" height="1"/>
<rect x="38" y="96" width="1" height="1"/>
<rect x="45" y="96" width="1" height="1"/>
<rect x="49" y="96" width="1" height="1"/>
<rect x="52" y="96" width="1" height="1"/>
<rect x="57" y="96" width="1" height="1"/>
<rect x="63" y="96" width="1" height="1"/>
<rect x="68" y="96" width="1" height="1"/>
<rect x="70" y="96" width="2" height="1"/>
<rect x="31" y="97" width="4" height="1"/>
<rect x="39" y="97" width="4" height="1"/>
<rect x="45" y="97" width="5" height="1"/>
<rect x="52" y="97" width="1" height="1"/>
<rect x="58" y="97" width="4" height="1"/>
<rect x="63" y="97" width="1" height="1"/>
<rect x="68" y="97" width="1" height="1"/>
<rect x="70" y="97" width="2" height="1"/>
<rect x="70" y="98" width="2" height="1"/>
<rect x="70" y="99" width="2" height="1"/>
<rect x="70" y="100" width="2" height="1"/>
<rect x="70" y="101" width="2" height="1"/>
</g>
</svg>
