<svg xmlns="http://www.w3.org/2000/svg" viewBox="0 0 360 180" width="360" height="180" shape-rendering="crispEdges">
<rect width="100%" height="100%" fill="#fff"/>
<g fill="#111">
<rect x="17" y="17" width="1" height="1"/>
<rect x="36" y="17" width="1" height="1"/>
<rect x="43" y="17" width="2" height="1"/>
<rect x="17" y="18" width="1" height="1"/>
<rect x="36" y="18" width="1" height="1"/>
<rect x="43" y="18" width="2" height="1"/>
<rect x="16" y="19" width="4" height="1"/>
<rect x="23" y="19" width="3" height="1"/>
<rect x="28" y="19" width="2" height="1"/>
<rect x="33" y="19" width="6" height="1"/>
<rect x="43" y="19" width="1" height="1"/>
<rect x="45" y="19" width="1" height="1"/>
<rect x="49" y="19" width="1" height="1"/>
<rect x="51" y="19" width="2" height="1"/>
<rect x="55" y="19" width="3" height="1"/>
<rect x="62" y="19" width="4" height="1"/>
<rect x="17" y="20" width="1" height="1"/>
<rect x="22" y="20" width="1" height="1"/>
<rect x="26" y="20" width="1" height="1"/>
<rect x="29" y="20" width="2" height="1"/>
<rect x="32" y="20" width="1" height="1"/>
<rect x="36" y="20" width="1" height="1"/>
<rect x="42" y="20" width="1" height="1"/>
<rect x="45" y="20" width="1" height="1"/>
<rect x="49" y="20" width="2" height="1"/>
<rect x="54" y="20" width="1" height="1"/>
<rect x="58" y="20" width="1" height="1"/>
<rect x="61" y="20" width="1" height="1"/>
<rect x="65" y="20" width="1" height="1"/>
<rect x="17" y="21" width="1" height="1"/>
<rect x="22" y="21" width="1" height="1"/>
<rect x="26" y="21" width="2" height="1"/>
<rect x="30" y="21" width="1" height="1"/>
<rect x="32" y="21" width="1" height="1"/>
<rect x="36" y="21" width="1" height="1"/>
<rect x="42" y="21" width="1" height="1"/>
<rect x="45" y="21" width="1" height="1"/>
<rect x="49" y="21" width="1" height="1"/>
<rect x="54" y="21" width="1" height="1"/>
<rect x="58" y="21" width="2" height="1"/>
<rect x="65" y="21" width="1" height="1"/>
<rect x="17" y="22" width="1" height="1"/>
<rect x="22" y="22" width="6" height="1"/>
<rect x="31" y="22" width="1" height="1"/>
<rect x="36" y="22" width="1" height="1"/>
<rect x="41" y="22" width="6" height="1"/>
<rect x="49" y="22" width="1" height="1"/>
<rect x="54" y="22" width="6" height="1"/>
<rect x="61" y="22" width="5" height="1"/>
<rect x="17" y="23" width="1" height="1"/>
<rect x="22" y="23" width="1" height="1"/>
<rect x="30" y="23" width="1" height="1"/>
<rect x="32" y="23" width="1" height="1"/>
<rect x="36" y="23" width="1" height="1"/>
<rect x="41" y="23" width="1" height="1"/>
<rect x="46" y="23" width="1" height="1"/>
<rect x="49" y="23" width="1" height="1"/>
<rect x="54" y="23" width="1" height="1"/>
<rect x="61" y="23" width="1" height="1"/>
<rect x="65" y="23" width="1" height="1"/>
<rect x="17" y="24" width="1" height="1"/>
<rect x="22" y="24" width="1" height="1"/>
<rect x="29" y="24" width="2" height="1"/>
<rect x="32" y="24" width="2" height="1"/>
<rect x="36" y="24" width="1" height="1"/>
<rect x="41" y="24" width="1" height="1"/>
<rect x="47" y="24" width="1" height="1"/>
<rect x="49" y="24" width="1" height="1"/>
<rect x="54" y="24" width="1" height="1"/>
<rect x="61" y="24" width="1" height="1"/>
<rect x="65" y="24" width="1" height="1"/>
<rect x="18" y="25" width="2" height="1"/>
<rect x="23" y="25" width="4" height="1"/>
<rect x="28" y="25" width="2" height="1"/>
<rect x="33" y="25" width="2" height="1"/>
<rect x="37" y="25" width="2" height="1"/>
<rect x="40" y="25" width="1" height="1"/>
<rect x="47" y="25" width="1" height="1"/>
<rect x="49" y="25" width="1" height="1"/>
<rect x="55" y="25" width="4" height="1"/>
<rect x="61" y="25" width="5" height="1"/>
<rect x="16" y="30" width="328" height="1"/>
<rect x="145" y="54" width="2" height="1"/>
<rect x="145" y="55" width="2" height="1"/>
<rect x="145" y="56" width="2" height="1"/>
<rect x="145" y="57" width="2" height="1"/>
<rect x="32" y="58" width="1" height="1"/>
<rect x="66" y="58" width="1" height="1"/>
<rect x="75" y="58" width="1" height="1"/>
<rect x="85" y="58" width="1" height="1"/>
<rect x="128" y="58" width="3" height="1"/>
<rect x="145" y="58" width="2" height="1"/>
<rect x="149" y="58" width="1" height="1"/>
<rect x="224" y="58" width="1" height="1"/>
<rect x="242" y="58" width="1" height="1"/>
<rect x="273" y="58" width="1" height="1"/>
<rect x="24" y="59" width="7" height="1"/>
<rect x="32" y="59" width="1" height="1"/>
<rect x="75" y="59" width="1" height="1"/>
<rect x="85" y="59" width="1" height="1"/>
<rect x="128" y="59" width="1" height="1"/>
<rect x="145" y="59" width="2" height="1"/>
<rect x="219" y="59" width="1" height="1"/>
<rect x="224" y="59" width="1" height="1"/>
<rect x="242" y="59" width="1" height="1"/>
<rect x="273" y="59" width="1" height="1"/>
<rect x="27" y="60" width="1" height="1"/>
<rect x="32" y="60" width="1" height="1"/>
<rect x="75" y="60" width="1" height="1"/>
<rect x="85" y="60" width="1" height="1"/>
<rect x="127" y="60" width="2" height="1"/>
<rect x="145" y="60" width="2" height="1"/>
<rect x="219" y="60" width="1" height="1"/>
<rect x="224" y="60" width="1" height="1"/>
<rect x="242" y="60" width="1" height="1"/>
<rect x="273" y="60" width="1" height="1"/>
<rect x="27" y="61" width="1" height="1"/>
<rect x="32" y="61" width="1" height="1"/>
<rect x="34" y="61" width="3" height="1"/>
<rect x="41" y="61" width="3" height="1"/>
<rect x="51" y="61" width="3" height="1"/>
<rect x="55" y="61" width="1" height="1"/>
<rect x="58" y="61" width="1" height="1"/>
<rect x="63" y="61" width="1" height="1"/>
<rect x="66" y="61" width="1" height="1"/>
<rect x="70" y="61" width="4" height="1"/>
<rect x="75" y="61" width="1" height="1"/>
<rect x="79" y="61" width="2" height="1"/>
<rect x="85" y="61" width="1" height="1"/>
<rect x="87" y="61" width="3" height="1"/>
<rect x="93" y="61" width="1" height="1"/>
<rect x="95" y="61" width="2" height="1"/>
<rect x="99" y="61" width="4" height="1"/>
<rect x="105" y="61" width="1" height="1"/>
<rect x="109" y="61" width="2" height="1"/>
<rect x="114" y="61" width="1" height="1"/>
<rect x="116" y="61" width="1" height="1"/>
<rect x="118" y="61" width="3" height="1"/>
<rect x="126" y="61" width="4" height="1"/>
<rect x="132" y="61" width="4" height="1"/>
<rect x="138" y="61" width="2" height="1"/>
<rect x="143" y="61" width="4" height="1"/>
<rect x="149" y="61" width="1" height="1"/>
<rect x="152" y="61" width="1" height="1"/>
<rect x="157" y="61" width="1" height="1"/>
<rect x="160" y="61" width="1" height="1"/>
<rect x="162" y="61" width="3" height="1"/>
<rect x="166" y="61" width="3" height="1"/>
<rect x="172" y="61" width="1" height="1"/>
<rect x="174" y="61" width="3" height="1"/>
<rect x="180" y="61" width="5" height="1"/>
<rect x="190" y="61" width="4" height="1"/>
<rect x="196" y="61" width="1" height="1"/>
<rect x="201" y="61" width="2" height="1"/>
<rect x="205" y="61" width="3" height="1"/>
<rect x="211" y="61" width="1" height="1"/>
<rect x="213" y="61" width="2" height="1"/>
<rect x="218" y="61" width="4" height="1"/>
<rect x="224" y="61" width="1" height="1"/>
<rect x="226" y="61" width="3" height="1"/>
<rect x="233" y="61" width="3" height="1"/>
<rect x="242" y="61" width="1" height="1"/>
<rect x="246" y="61" width="4" height="1"/>
<rect x="252" y="61" width="6" height="1"/>
<rect x="262" y="61" width="2" height="1"/>
<rect x="269" y="61" width="3" height="1"/>
<rect x="273" y="61" width="1" height="1"/>
<rect x="277" y="61" width="4" height="1"/>
<rect x="285" y="61" width="3" height="1"/>
<rect x="289" y="61" width="1" height="1"/>
<rect x="27" y="62" width="1" height="1"/>
<rect x="32" y="62" width="2" height="1"/>
<rect x="37" y="62" width="1" height="1"/>
<rect x="40" y="62" width="1" height="1"/>
<rect x="44" y="62" width="1" height="1"/>
<rect x="50" y="62" width="1" height="1"/>
<rect x="54" y="62" width="2" height="1"/>
<rect x="58" y="62" width="1" height="1"/>
<rect x="63" y="62" width="1" height="1"/>
<rect x="66" y="62" width="1" height="1"/>
<rect x="69" y="62" width="1" height="1"/>
<rect x="75" y="62" width="1" height="1"/>
<rect x="78" y="62" width="1" height="1"/>
<rect x="85" y="62" width="2" height="1"/>
<rect x="90" y="62" width="1" height="1"/>
<rect x="93" y="62" width="2" height="1"/>
<rect x="98" y="62" width="1" height="1"/>
<rect x="102" y="62" width="2" height="1"/>
<rect x="106" y="62" width="1" height="1"/>
<rect x="109" y="62" width="2" height="1"/>
<rect x="114" y="62" width="1" height="1"/>
<rect x="116" y="62" width="2" height="1"/>
<rect x="121" y="62" width="1" height="1"/>
<rect x="127" y="62" width="2" height="1"/>
<rect x="131" y="62" width="1" height="1"/>
<rect x="135" y="62" width="2" height="1"/>
<rect x="139" y="62" width="2" height="1"/>
<rect x="142" y="62" width="1" height="1"/>
<rect x="145" y="62" width="2" height="1"/>
<rect x="149" y="62" width="1" height="1"/>
<rect x="152" y="62" width="1" height="1"/>
<rect x="157" y="62" width="1" height="1"/>
<rect x="160" y="62" width="2" height="1"/>
<rect x="164" y="62" width="2" height="1"/>
<rect x="169" y="62" width="1" height="1"/>
<rect x="172" y="62" width="2" height="1"/>
<rect x="177" y="62" width="1" height="1"/>
<rect x="180" y="62" width="1" height="1"/>
<rect x="189" y="62" width="1" height="1"/>
<rect x="193" y="62" width="2" height="1"/>
<rect x="197" y="62" width="1" height="1"/>
<rect x="201" y="62" width="1" height="1"/>
<rect x="204" y="62" width="1" height="1"/>
<rect x="208" y="62" width="1" height="1"/>
<rect x="211" y="62" width="2" height="1"/>
<rect x="219" y="62" width="1" height="1"/>
<rect x="224" y="62" width="2" height="1"/>
<rect x="229" y="62" width="1" height="1"/>
<rect x="232" y="62" width="1" height="1"/>
<rect x="236" y="62" width="1" height="1"/>
<rect x="242" y="62" width="1" height="1"/>
<rect x="245" y="62" width="1" height="1"/>
<rect x="249" y="62" width="1" height="1"/>
<rect x="255" y="62" width="1" height="1"/>
<rect x="258" y="62" width="1" height="1"/>
<rect x="262" y="62" width="1" height="1"/>
<rect x="268" y="62" width="1" height="1"/>
<rect x="272" y="62" width="2" height="1"/>
<rect x="276" y="62" width="1" height="1"/>
<rect x="280" y="62" width="2" height="1"/>
<rect x="284" y="62" width="1" height="1"/>
<rect x="288" y="62" width="2" height="1"/>
<rect x="27" y="63" width="1" height="1"/>
<rect x="32" y="63" width="1" height="1"/>
<rect x="37" y="63" width="1" height="1"/>
<rect x="40" y="63" width="1" height="1"/>
<rect x="44" y="63" width="2" height="1"/>
<rect x="50" y="63" width="1" height="1"/>
<rect x="55" y="63" width="1" height="1"/>
<rect x="58" y="63" width="1" height="1"/>
<rect x="63" y="63" width="1" height="1"/>
<rect x="66" y="63" width="1" height="1"/>
<rect x="69" y="63" width="1" height="1"/>
<rect x="75" y="63" width="1" height="1"/>
<rect x="77" y="63" width="1" height="1"/>
<rect x="85" y="63" width="1" height="1"/>
<rect x="90" y="63" width="1" height="1"/>
<rect x="93" y="63" width="1" height="1"/>
<rect x="98" y="63" width="1" height="1"/>
<rect x="103" y="63" width="1" height="1"/>
<rect x="106" y="63" width="1" height="1"/>
<rect x="109" y="63" width="3" height="1"/>
<rect x="113" y="63" width="1" height="1"/>
<rect x="116" y="63" width="1" height="1"/>
<rect x="121" y="63" width="1" height="1"/>
<rect x="127" y="63" width="2" height="1"/>
<rect x="131" y="63" width="1" height="1"/>
<rect x="136" y="63" width="1" height="1"/>
<rect x="140" y="63" width="1" height="1"/>
<rect x="142" y="63" width="1" height="1"/>
<rect x="145" y="63" width="2" height="1"/>
<rect x="149" y="63" width="1" height="1"/>
<rect x="152" y="63" width="1" height="1"/>
<rect x="157" y="63" width="1" height="1"/>
<rect x="160" y="63" width="1" height="1"/>
<rect x="165" y="63" width="1" height="1"/>
<rect x="169" y="63" width="1" height="1"/>
<rect x="172" y="63" width="1" height="1"/>
<rect x="177" y="63" width="1" height="1"/>
<rect x="180" y="63" width="1" height="1"/>
<rect x="189" y="63" width="1" height="1"/>
<rect x="194" y="63" width="1" height="1"/>
<rect x="197" y="63" width="1" height="1"/>
<rect x="200" y="63" width="2" height="1"/>
<rect x="204" y="63" width="1" height="1"/>
<rect x="208" y="63" width="2" height="1"/>
<rect x="211" y="63" width="1" height="1"/>
<rect x="219" y="63" width="1" height="1"/>
<rect x="224" y="63" width="1" height="1"/>
<rect x="229" y="63" width="1" height="1"/>
<rect x="232" y="63" width="1" height="1"/>
<rect x="236" y="63" width="2" height="1"/>
<rect x="242" y="63" width="1" height="1"/>
<rect x="249" y="63" width="1" height="1"/>
<rect x="254" y="63" width="1" height="1"/>
<rect x="258" y="63" width="1" height="1"/>
<rect x="261" y="63" width="2" height="1"/>
<rect x="268" y="63" width="1" height="1"/>
<rect x="273" y="63" width="1" height="1"/>
<rect x="276" y="63" width="1" height="1"/>
<rect x="281" y="63" width="1" height="1"/>
<rect x="284" y="63" width="1" height="1"/>
<rect x="289" y="63" width="1" height="1"/>
<rect x="27" y="64" width="1" height="1"/>
<rect x="32" y="64" width="1" height="1"/>
<rect x="37" y="64" width="1" height="1"/>
<rect x="40" y="64" width="6" height="1"/>
<rect x="50" y="64" width="1" height="1"/>
<rect x="55" y="64" width="1" height="1"/>
<rect x="58" y="64" width="1" height="1"/>
<rect x="63" y="64" width="1" height="1"/>
<rect x="66" y="64" width="1" height="1"/>
<rect x="69" y="64" width="1" height="1"/>
<rect x="75" y="64" width="3" height="1"/>
<rect x="85" y="64" width="1" height="1"/>
<rect x="90" y="64" width="1" height="1"/>
<rect x="93" y="64" width="1" height="1"/>
<rect x="98" y="64" width="1" height="1"/>
<rect x="103" y="64" width="1" height="1"/>
<rect x="106" y="64" width="1" height="1"/>
<rect x="108" y="64" width="1" height="1"/>
<rect x="111" y="64" width="1" height="1"/>
<rect x="113" y="64" width="1" height="1"/>
<rect x="116" y="64" width="1" height="1"/>
<rect x="121" y="64" width="1" height="1"/>
<rect x="127" y="64" width="2" height="1"/>
<rect x="131" y="64" width="1" height="1"/>
<rect x="136" y="64" width="1" height="1"/>
<rect x="141" y="64" width="1" height="1"/>
<rect x="145" y="64" width="2" height="1"/>
<rect x="149" y="64" width="1" height="1"/>
<rect x="152" y="64" width="1" height="1"/>
<rect x="157" y="64" width="1" height="1"/>
<rect x="160" y="64" width="1" height="1"/>
<rect x="165" y="64" width="1" height="1"/>
<rect x="169" y="64" width="1" height="1"/>
<rect x="172" y="64" width="1" height="1"/>
<rect x="177" y="64" width="1" height="1"/>
<rect x="181" y="64" width="3" height="1"/>
<rect x="189" y="64" width="1" height="1"/>
<rect x="194" y="64" width="1" height="1"/>
<rect x="197" y="64" width="1" height="1"/>
<rect x="200" y="64" width="1" height="1"/>
<rect x="204" y="64" width="6" height="1"/>
<rect x="211" y="64" width="1" height="1"/>
<rect x="219" y="64" width="1" height="1"/>
<rect x="224" y="64" width="1" height="1"/>
<rect x="229" y="64" width="1" height="1"/>
<rect x="232" y="64" width="6" height="1"/>
<rect x="242" y="64" width="1" height="1"/>
<rect x="245" y="64" width="5" height="1"/>
<rect x="253" y="64" width="2" height="1"/>
<rect x="258" y="64" width="2" height="1"/>
<rect x="261" y="64" width="1" height="1"/>
<rect x="268" y="64" width="1" height="1"/>
<rect x="273" y="64" width="1" height="1"/>
<rect x="276" y="64" width="1" height="1"/>
<rect x="281" y="64" width="1" height="1"/>
<rect x="284" y="64" width="1" height="1"/>
<rect x="289" y="64" width="1" height="1"/>
<rect x="27" y="65" width="1" height="1"/>
<rect x="32" y="65" width="1" height="1"/>
<rect x="37" y="65" width="1" height="1"/>
<rect x="40" y="65" width="1" height="1"/>
<rect x="50" y="65" width="1" height="1"/>
<rect x="55" y="65" width="1" height="1"/>
<rect x="58" y="65" width="1" height="1"/>
<rect x="63" y="65" width="1" height="1"/>
<rect x="66" y="65" width="1" height="1"/>
<rect x="69" y="65" width="1" height="1"/>
<rect x="75" y="65" width="1" height="1"/>
<rect x="78" y="65" width="1" height="1"/>
<rect x="85" y="65" width="1" height="1"/>
<rect x="90" y="65" width="1" height="1"/>
<rect x="93" y="65" width="1" height="1"/>
<rect x="98" y="65" width="1" height="1"/>
<rect x="103" y="65" width="1" height="1"/>
<rect x="106" y="65" width="1" height="1"/>
<rect x="108" y="65" width="1" height="1"/>
<rect x="111" y="65" width="1" height="1"/>
<rect x="113" y="65" width="1" height="1"/>
<rect x="116" y="65" width="1" height="1"/>
<rect x="121" y="65" width="1" height="1"/>
<rect x="127" y="65" width="2" height="1"/>
<rect x="131" y="65" width="1" height="1"/>
<rect x="136" y="65" width="1" height="1"/>
<rect x="140" y="65" width="1" height="1"/>
<rect x="142" y="65" width="1" height="1"/>
<rect x="145" y="65" width="2" height="1"/>
<rect x="149" y="65" width="1" height="1"/>
<rect x="152" y="65" width="1" height="1"/>
<rect x="157" y="65" width="1" height="1"/>
<rect x="160" y="65" width="1" height="1"/>
<rect x="165" y="65" width="1" height="1"/>
<rect x="169" y="65" width="1" height="1"/>
<rect x="172" y="65" width="1" height="1"/>
<rect x="177" y="65" width="1" height="1"/>
<rect x="183" y="65" width="2" height="1"/>
<rect x="189" y="65" width="1" height="1"/>
<rect x="194" y="65" width="1" height="1"/>
<rect x="198" y="65" width="1" height="1"/>
<rect x="200" y="65" width="1" height="1"/>
<rect x="204" y="65" width="1" height="1"/>
<rect x="211" y="65" width="1" height="1"/>
<rect x="219" y="65" width="1" height="1"/>
<rect x="224" y="65" width="1" height="1"/>
<rect x="229" y="65" width="1" height="1"/>
<rect x="232" y="65" width="1" height="1"/>
<rect x="242" y="65" width="1" height="1"/>
<rect x="245" y="65" width="1" height="1"/>
<rect x="249" y="65" width="1" height="1"/>
<rect x="253" y="65" width="1" height="1"/>
<rect x="259" y="65" width="1" height="1"/>
<rect x="261" y="65" width="1" height="1"/>
<rect x="268" y="65" width="1" height="1"/>
<rect x="273" y="65" width="1" height="1"/>
<rect x="276" y="65" width="1" height="1"/>
<rect x="281" y="65" width="1" height="1"/>
<rect x="284" y="65" width="1" height="1"/>
<rect x="289" y="65" width="1" height="1"/>
<rect x="27" y="66" width="1" height="1"/>
<rect x="32" y="66" width="1" height="1"/>
<rect x="37" y="66" width="1" height="1"/>
<rect x="40" y="66" width="1" height="1"/>
<rect x="50" y="66" width="1" height="1"/>
<rect x="54" y="66" width="2" height="1"/>
<rect x="58" y="66" width="1" height="1"/>
<rect x="62" y="66" width="2" height="1"/>
<rect x="66" y="66" width="1" height="1"/>
<rect x="69" y="66" width="1" height="1"/>
<rect x="75" y="66" width="1" height="1"/>
<rect x="78" y="66" width="2" height="1"/>
<rect x="85" y="66" width="2" height="1"/>
<rect x="90" y="66" width="1" height="1"/>
<rect x="93" y="66" width="1" height="1"/>
<rect x="98" y="66" width="1" height="1"/>
<rect x="102" y="66" width="2" height="1"/>
<rect x="107" y="66" width="2" height="1"/>
<rect x="111" y="66" width="1" height="1"/>
<rect x="113" y="66" width="1" height="1"/>
<rect x="116" y="66" width="1" height="1"/>
<rect x="121" y="66" width="1" height="1"/>
<rect x="127" y="66" width="2" height="1"/>
<rect x="131" y="66" width="1" height="1"/>
<rect x="135" y="66" width="2" height="1"/>
<rect x="139" y="66" width="2" height="1"/>
<rect x="142" y="66" width="2" height="1"/>
<rect x="145" y="66" width="2" height="1"/>
<rect x="149" y="66" width="1" height="1"/>
<rect x="152" y="66" width="1" height="1"/>
<rect x="156" y="66" width="2" height="1"/>
<rect x="160" y="66" width="1" height="1"/>
<rect x="165" y="66" width="1" height="1"/>
<rect x="169" y="66" width="1" height="1"/>
<rect x="172" y="66" width="2" height="1"/>
<rect x="176" y="66" width="2" height="1"/>
<rect x="183" y="66" width="2" height="1"/>
<rect x="189" y="66" width="1" height="1"/>
<rect x="193" y="66" width="2" height="1"/>
<rect x="198" y="66" width="3" height="1"/>
<rect x="204" y="66" width="1" height="1"/>
<rect x="211" y="66" width="1" height="1"/>
<rect x="219" y="66" width="1" height="1"/>
<rect x="224" y="66" width="1" height="1"/>
<rect x="229" y="66" width="1" height="1"/>
<rect x="232" y="66" width="1" height="1"/>
<rect x="242" y="66" width="1" height="1"/>
<rect x="245" y="66" width="1" height="1"/>
<rect x="249" y="66" width="1" height="1"/>
<rect x="252" y="66" width="1" height="1"/>
<rect x="259" y="66" width="3" height="1"/>
<rect x="268" y="66" width="1" height="1"/>
<rect x="272" y="66" width="2" height="1"/>
<rect x="276" y="66" width="1" height="1"/>
<rect x="280" y="66" width="2" height="1"/>
<rect x="284" y="66" width="1" height="1"/>
<rect x="288" y="66" width="2" height="1"/>
<rect x="292" y="66" width="1" height="1"/>
<rect x="27" y="67" width="1" height="1"/>
<rect x="32" y="67" width="1" height="1"/>
<rect x="37" y="67" width="1" height="1"/>
<rect x="41" y="67" width="4" height="1"/>
<rect x="51" y="67" width="3" height="1"/>
<rect x="55" y="67" width="1" height="1"/>
<rect x="59" y="67" width="3" height="1"/>
<rect x="63" y="67" width="1" height="1"/>
<rect x="66" y="67" width="1" height="1"/>
<rect x="70" y="67" width="4" height="1"/>
<rect x="75" y="67" width="1" height="1"/>
<rect x="79" y="67" width="2" height="1"/>
<rect x="85" y="67" width="1" height="1"/>
<rect x="87" y="67" width="3" height="1"/>
<rect x="93" y="67" width="1" height="1"/>
<rect x="99" y="67" width="4" height="1"/>
<rect x="107" y="67" width="2" height="1"/>
<rect x="112" y="67" width="1" height="1"/>
<rect x="116" y="67" width="1" height="1"/>
<rect x="121" y="67" width="1" height="1"/>
<rect x="127" y="67" width="2" height="1"/>
<rect x="132" y="67" width="4" height="1"/>
<rect x="138" y="67" width="2" height="1"/>
<rect x="143" y="67" width="4" height="1"/>
<rect x="149" y="67" width="1" height="1"/>
<rect x="153" y="67" width="3" height="1"/>
<rect x="157" y="67" width="1" height="1"/>
<rect x="160" y="67" width="1" height="1"/>
<rect x="165" y="67" width="1" height="1"/>
<rect x="169" y="67" width="1" height="1"/>
<rect x="172" y="67" width="1" height="1"/>
<rect x="174" y="67" width="3" height="1"/>
<rect x="180" y="67" width="4" height="1"/>
<rect x="190" y="67" width="4" height="1"/>
<rect x="198" y="67" width="2" height="1"/>
<rect x="205" y="67" width="4" height="1"/>
<rect x="211" y="67" width="1" height="1"/>
<rect x="220" y="67" width="2" height="1"/>
<rect x="224" y="67" width="1" height="1"/>
<rect x="229" y="67" width="1" height="1"/>
<rect x="233" y="67" width="4" height="1"/>
<rect x="242" y="67" width="1" height="1"/>
<rect x="245" y="67" width="5" height="1"/>
<rect x="251" y="67" width="6" height="1"/>
<rect x="260" y="67" width="1" height="1"/>
<rect x="269" y="67" width="3" height="1"/>
<rect x="273" y="67" width="1" height="1"/>
<rect x="277" y="67" width="4" height="1"/>
<rect x="285" y="67" width="3" height="1"/>
<rect x="289" y="67" width="1" height="1"/>
<rect x="292" y="67" width="2" height="1"/>
<rect x="55" y="68" width="1" height="1"/>
<rect x="145" y="68" width="2" height="1"/>
<rect x="149" y="68" width="1" height="1"/>
<rect x="172" y="68" width="1" height="1"/>
<rect x="260" y="68" width="1" height="1"/>
<rect x="289" y="68" width="1" height="1"/>
<rect x="55" y="69" width="1" height="1"/>
<rect x="145" y="69" width="2" height="1"/>
<rect x="149" y="69" width="1" height="1"/>
<rect x="172" y="69" width="1" height="1"/>
<rect x="259" y="69" width="1" height="1"/>
<rect x="288" y="69" width="2" height="1"/>
<rect x="55" y="70" width="1" height="1"/>
<rect x="145" y="70" width="2" height="1"/>
<rect x="148" y="70" width="2" height="1"/>
<rect x="172" y="70" width="1" height="1"/>
<rect x="257" y="70" width="3" height="1"/>
<rect x="284" y="70" width="5" height="1"/>
<rect x="145" y="71" width="2" height="1"/>
</g>
</svg>
