<svg xmlns="http://www.w3.org/2000/svg" viewBox="0 0 360 180" width="360" height="180" shape-rendering="crispEdges">
<rect width="100%" height="100%" fill="#fff"/>
<g fill="#111">
<rect x="17" y="17" width="1" height="1"/>
<rect x="43" y="17" width="1" height="1"/>
<rect x="17" y="18" width="1" height="1"/>
<rect x="43" y="18" width="1" height="1"/>
<rect x="16" y="19" width="4" height="1"/>
<rect x="23" y="19" width="4" height="1"/>
<rect x="31" y="19" width="4" height="1"/>
<rect x="37" y="19" width="9" height="1"/>
<rect x="17" y="20" width="1" height="1"/>
<rect x="22" y="20" width="1" height="1"/>
<rect x="26" y="20" width="2" height="1"/>
<rect x="30" y="20" width="1" height="1"/>
<rect x="34" y="20" width="1" height="1"/>
<rect x="37" y="20" width="1" height="1"/>
<rect x="43" y="20" width="1" height="1"/>
<rect x="17" y="21" width="1" height="1"/>
<rect x="22" y="21" width="1" height="1"/>
<rect x="27" y="21" width="1" height="1"/>
<rect x="34" y="21" width="1" height="1"/>
<rect x="37" y="21" width="1" height="1"/>
<rect x="43" y="21" width="1" height="1"/>
<rect x="17" y="22" width="1" height="1"/>
<rect x="22" y="22" width="1" height="1"/>
<rect x="27" y="22" width="1" height="1"/>
<rect x="30" y="22" width="5" height="1"/>
<rect x="38" y="22" width="3" height="1"/>
<rect x="43" y="22" width="1" height="1"/>
<rect x="17" y="23" width="1" height="1"/>
<rect x="22" y="23" width="1" height="1"/>
<rect x="27" y="23" width="1" height="1"/>
<rect x="30" y="23" width="1" height="1"/>
<rect x="34" y="23" width="1" height="1"/>
<rect x="40" y="23" width="2" height="1"/>
<rect x="43" y="23" width="1" height="1"/>
<rect x="17" y="24" width="1" height="1"/>
<rect x="22" y="24" width="1" height="1"/>
<rect x="26" y="24" width="2" height="1"/>
<rect x="30" y="24" width="1" height="1"/>
<rect x="34" y="24" width="1" height="1"/>
<rect x="40" y="24" width="2" height="1"/>
<rect x="43" y="24" width="1" height="1"/>
<rect x="18" y="25" width="2" height="1"/>
<rect x="23" y="25" width="4" height="1"/>
<rect x="30" y="25" width="5" height="1"/>
<rect x="37" y="25" width="4" height="1"/>
<rect x="44" y="25" width="2" height="1"/>
<rect x="16" y="30" width="328" height="1"/>
<rect x="155" y="97" width="1" height="1"/>
<rect x="186" y="97" width="1" height="1"/>
<rect x="228" y="97" width="1" height="1"/>
<rect x="131" y="98" width="6" height="1"/>
<rect x="155" y="98" width="1" height="1"/>
<rect x="186" y="98" width="1" height="1"/>
<rect x="228" y="98" width="1" height="1"/>
<rect x="131" y="99" width="1" height="1"/>
<rect x="136" y="99" width="1" height="1"/>
<rect x="155" y="99" width="1" height="1"/>
<rect x="186" y="99" width="1" height="1"/>
<rect x="228" y="99" width="1" height="1"/>
<rect x="131" y="100" width="1" height="1"/>
<rect x="136" y="100" width="1" height="1"/>
<rect x="140" y="100" width="4" height="1"/>
<rect x="148" y="100" width="4" height="1"/>
<rect x="155" y="100" width="1" height="1"/>
<rect x="159" y="100" width="2" height="1"/>
<rect x="162" y="100" width="1" height="1"/>
<rect x="164" y="100" width="3" height="1"/>
<rect x="168" y="100" width="3" height="1"/>
<rect x="175" y="100" width="4" height="1"/>
<rect x="181" y="100" width="1" height="1"/>
<rect x="183" y="100" width="2" height="1"/>
<rect x="186" y="100" width="1" height="1"/>
<rect x="190" y="100" width="2" height="1"/>
<rect x="196" y="100" width="5" height="1"/>
<rect x="203" y="100" width="4" height="1"/>
<rect x="208" y="100" width="1" height="1"/>
<rect x="213" y="100" width="2" height="1"/>
<rect x="217" y="100" width="3" height="1"/>
<rect x="224" y="100" width="3" height="1"/>
<rect x="228" y="100" width="1" height="1"/>
<rect x="131" y="101" width="1" height="1"/>
<rect x="136" y="101" width="1" height="1"/>
<rect x="139" y="101" width="1" height="1"/>
<rect x="143" y="101" width="2" height="1"/>
<rect x="147" y="101" width="1" height="1"/>
<rect x="151" y="101" width="2" height="1"/>
<rect x="155" y="101" width="1" height="1"/>
<rect x="158" y="101" width="1" height="1"/>
<rect x="162" y="101" width="2" height="1"/>
<rect x="166" y="101" width="2" height="1"/>
<rect x="171" y="101" width="1" height="1"/>
<rect x="174" y="101" width="1" height="1"/>
<rect x="178" y="101" width="1" height="1"/>
<rect x="181" y="101" width="2" height="1"/>
<rect x="186" y="101" width="1" height="1"/>
<rect x="189" y="101" width="1" height="1"/>
<rect x="196" y="101" width="1" height="1"/>
<rect x="202" y="101" width="1" height="1"/>
<rect x="206" y="101" width="1" height="1"/>
<rect x="209" y="101" width="1" height="1"/>
<rect x="213" y="101" width="1" height="1"/>
<rect x="216" y="101" width="1" height="1"/>
<rect x="220" y="101" width="1" height="1"/>
<rect x="223" y="101" width="1" height="1"/>
<rect x="227" y="101" width="2" height="1"/>
<rect x="131" y="102" width="5" height="1"/>
<rect x="139" y="102" width="1" height="1"/>
<rect x="144" y="102" width="1" height="1"/>
<rect x="147" y="102" width="1" height="1"/>
<rect x="152" y="102" width="1" height="1"/>
<rect x="155" y="102" width="1" height="1"/>
<rect x="157" y="102" width="1" height="1"/>
<rect x="162" y="102" width="1" height="1"/>
<rect x="167" y="102" width="1" height="1"/>
<rect x="171" y="102" width="1" height="1"/>
<rect x="178" y="102" width="1" height="1"/>
<rect x="181" y="102" width="1" height="1"/>
<rect x="186" y="102" width="1" height="1"/>
<rect x="188" y="102" width="1" height="1"/>
<rect x="196" y="102" width="1" height="1"/>
<rect x="206" y="102" width="1" height="1"/>
<rect x="209" y="102" width="1" height="1"/>
<rect x="212" y="102" width="2" height="1"/>
<rect x="216" y="102" width="1" height="1"/>
<rect x="220" y="102" width="2" height="1"/>
<rect x="223" y="102" width="1" height="1"/>
<rect x="228" y="102" width="1" height="1"/>
<rect x="131" y="103" width="1" height="1"/>
<rect x="136" y="103" width="2" height="1"/>
<rect x="139" y="103" width="1" height="1"/>
<rect x="144" y="103" width="1" height="1"/>
<rect x="147" y="103" width="1" height="1"/>
<rect x="152" y="103" width="1" height="1"/>
<rect x="155" y="103" width="3" height="1"/>
<rect x="162" y="103" width="1" height="1"/>
<rect x="167" y="103" width="1" height="1"/>
<rect x="171" y="103" width="1" height="1"/>
<rect x="174" y="103" width="5" height="1"/>
<rect x="181" y="103" width="1" height="1"/>
<rect x="186" y="103" width="3" height="1"/>
<rect x="197" y="103" width="3" height="1"/>
<rect x="202" y="103" width="5" height="1"/>
<rect x="209" y="103" width="1" height="1"/>
<rect x="212" y="103" width="1" height="1"/>
<rect x="216" y="103" width="6" height="1"/>
<rect x="223" y="103" width="1" height="1"/>
<rect x="228" y="103" width="1" height="1"/>
<rect x="131" y="104" width="1" height="1"/>
<rect x="136" y="104" width="2" height="1"/>
<rect x="139" y="104" width="1" height="1"/>
<rect x="144" y="104" width="1" height="1"/>
<rect x="147" y="104" width="1" height="1"/>
<rect x="152" y="104" width="1" height="1"/>
<rect x="155" y="104" width="1" height="1"/>
<rect x="158" y="104" width="1" height="1"/>
<rect x="162" y="104" width="1" height="1"/>
<rect x="167" y="104" width="1" height="1"/>
<rect x="171" y="104" width="1" height="1"/>
<rect x="174" y="104" width="1" height="1"/>
<rect x="178" y="104" width="1" height="1"/>
<rect x="181" y="104" width="1" height="1"/>
<rect x="186" y="104" width="1" height="1"/>
<rect x="189" y="104" width="1" height="1"/>
<rect x="199" y="104" width="2" height="1"/>
<rect x="202" y="104" width="1" height="1"/>
<rect x="206" y="104" width="1" height="1"/>
<rect x="210" y="104" width="1" height="1"/>
<rect x="212" y="104" width="1" height="1"/>
<rect x="216" y="104" width="1" height="1"/>
<rect x="223" y="104" width="1" height="1"/>
<rect x="228" y="104" width="1" height="1"/>
<rect x="131" y="105" width="1" height="1"/>
<rect x="136" y="105" width="2" height="1"/>
<rect x="139" y="105" width="1" height="1"/>
<rect x="143" y="105" width="2" height="1"/>
<rect x="147" y="105" width="1" height="1"/>
<rect x="151" y="105" width="2" height="1"/>
<rect x="155" y="105" width="1" height="1"/>
<rect x="158" y="105" width="2" height="1"/>
<rect x="162" y="105" width="1" height="1"/>
<rect x="167" y="105" width="1" height="1"/>
<rect x="171" y="105" width="1" height="1"/>
<rect x="174" y="105" width="1" height="1"/>
<rect x="178" y="105" width="1" height="1"/>
<rect x="181" y="105" width="1" height="1"/>
<rect x="186" y="105" width="1" height="1"/>
<rect x="189" y="105" width="2" height="1"/>
<rect x="199" y="105" width="2" height="1"/>
<rect x="202" y="105" width="1" height="1"/>
<rect x="206" y="105" width="1" height="1"/>
<rect x="210" y="105" width="3" height="1"/>
<rect x="216" y="105" width="1" height="1"/>
<rect x="223" y="105" width="1" height="1"/>
<rect x="227" y="105" width="2" height="1"/>
<rect x="131" y="106" width="6" height="1"/>
<rect x="140" y="106" width="4" height="1"/>
<rect x="148" y="106" width="4" height="1"/>
<rect x="155" y="106" width="1" height="1"/>
<rect x="159" y="106" width="2" height="1"/>
<rect x="162" y="106" width="1" height="1"/>
<rect x="167" y="106" width="1" height="1"/>
<rect x="171" y="106" width="1" height="1"/>
<rect x="174" y="106" width="5" height="1"/>
<rect x="181" y="106" width="1" height="1"/>
<rect x="186" y="106" width="1" height="1"/>
<rect x="190" y="106" width="2" height="1"/>
<rect x="196" y="106" width="4" height="1"/>
<rect x="202" y="106" width="5" height="1"/>
<rect x="210" y="106" width="2" height="1"/>
<rect x="217" y="106" width="4" height="1"/>
<rect x="224" y="106" width="3" height="1"/>
<rect x="228" y="106" width="1" height="1"/>
</g>
</svg>
