<svg xmlns="http://www.w3.org/2000/svg" viewBox="0 0 360 180" width="360" height="180" shape-rendering="crispEdges">
<rect width="100%" height="100%" fill="#fff"/>
<g fill="#111">
<rect x="46" y="16" width="1" height="1"/>
<rect x="17" y="17" width="1" height="1"/>
<rect x="46" y="17" width="1" height="1"/>
<rect x="56" y="17" width="5" height="1"/>
<rect x="17" y="18" width="1" height="1"/>
<rect x="46" y="18" width="1" height="1"/>
<rect x="56" y="18" width="1" height="1"/>
<rect x="61" y="18" width="1" height="1"/>
<rect x="16" y="19" width="4" height="1"/>
<rect x="23" y="19" width="4" height="1"/>
<rect x="31" y="19" width="3" height="1"/>
<rect x="35" y="19" width="1" height="1"/>
<rect x="39" y="19" width="3" height="1"/>
<rect x="43" y="19" width="1" height="1"/>
<rect x="46" y="19" width="1" height="1"/>
<rect x="50" y="19" width="3" height="1"/>
<rect x="56" y="19" width="1" height="1"/>
<rect x="61" y="19" width="1" height="1"/>
<rect x="65" y="19" width="4" height="1"/>
<rect x="71" y="19" width="1" height="1"/>
<rect x="75" y="19" width="2" height="1"/>
<rect x="80" y="19" width="1" height="1"/>
<rect x="17" y="20" width="1" height="1"/>
<rect x="22" y="20" width="1" height="1"/>
<rect x="26" y="20" width="2" height="1"/>
<rect x="30" y="20" width="1" height="1"/>
<rect x="34" y="20" width="2" height="1"/>
<rect x="38" y="20" width="1" height="1"/>
<rect x="42" y="20" width="2" height="1"/>
<rect x="46" y="20" width="1" height="1"/>
<rect x="49" y="20" width="1" height="1"/>
<rect x="53" y="20" width="1" height="1"/>
<rect x="56" y="20" width="1" height="1"/>
<rect x="61" y="20" width="1" height="1"/>
<rect x="64" y="20" width="1" height="1"/>
<rect x="68" y="20" width="2" height="1"/>
<rect x="72" y="20" width="1" height="1"/>
<rect x="75" y="20" width="2" height="1"/>
<rect x="80" y="20" width="1" height="1"/>
<rect x="17" y="21" width="1" height="1"/>
<rect x="22" y="21" width="1" height="1"/>
<rect x="27" y="21" width="1" height="1"/>
<rect x="30" y="21" width="1" height="1"/>
<rect x="35" y="21" width="1" height="1"/>
<rect x="38" y="21" width="1" height="1"/>
<rect x="43" y="21" width="1" height="1"/>
<rect x="46" y="21" width="1" height="1"/>
<rect x="49" y="21" width="1" height="1"/>
<rect x="53" y="21" width="2" height="1"/>
<rect x="56" y="21" width="5" height="1"/>
<rect x="64" y="21" width="1" height="1"/>
<rect x="69" y="21" width="1" height="1"/>
<rect x="72" y="21" width="1" height="1"/>
<rect x="75" y="21" width="3" height="1"/>
<rect x="79" y="21" width="1" height="1"/>
<rect x="17" y="22" width="1" height="1"/>
<rect x="22" y="22" width="1" height="1"/>
<rect x="27" y="22" width="1" height="1"/>
<rect x="30" y="22" width="1" height="1"/>
<rect x="35" y="22" width="1" height="1"/>
<rect x="38" y="22" width="1" height="1"/>
<rect x="43" y="22" width="1" height="1"/>
<rect x="46" y="22" width="1" height="1"/>
<rect x="49" y="22" width="6" height="1"/>
<rect x="56" y="22" width="1" height="1"/>
<rect x="60" y="22" width="1" height="1"/>
<rect x="64" y="22" width="1" height="1"/>
<rect x="69" y="22" width="1" height="1"/>
<rect x="72" y="22" width="1" height="1"/>
<rect x="74" y="22" width="1" height="1"/>
<rect x="77" y="22" width="1" height="1"/>
<rect x="79" y="22" width="1" height="1"/>
<rect x="17" y="23" width="1" height="1"/>
<rect x="22" y="23" width="1" height="1"/>
<rect x="27" y="23" width="1" height="1"/>
<rect x="30" y="23" width="1" height="1"/>
<rect x="35" y="23" width="1" height="1"/>
<rect x="38" y="23" width="1" height="1"/>
<rect x="43" y="23" width="1" height="1"/>
<rect x="46" y="23" width="1" height="1"/>
<rect x="49" y="23" width="1" height="1"/>
<rect x="56" y="23" width="1" height="1"/>
<rect x="60" y="23" width="1" height="1"/>
<rect x="64" y="23" width="1" height="1"/>
<rect x="69" y="23" width="1" height="1"/>
<rect x="72" y="23" width="1" height="1"/>
<rect x="74" y="23" width="1" height="1"/>
<rect x="77" y="23" width="1" height="1"/>
<rect x="79" y="23" width="1" height="1"/>
<rect x="17" y="24" width="1" height="1"/>
<rect x="22" y="24" width="1" height="1"/>
<rect x="26" y="24" width="2" height="1"/>
<rect x="30" y="24" width="1" height="1"/>
<rect x="34" y="24" width="2" height="1"/>
<rect x="38" y="24" width="1" height="1"/>
<rect x="42" y="24" width="2" height="1"/>
<rect x="46" y="24" width="1" height="1"/>
<rect x="49" y="24" width="1" height="1"/>
<rect x="56" y="24" width="1" height="1"/>
<rect x="61" y="24" width="1" height="1"/>
<rect x="64" y="24" width="1" height="1"/>
<rect x="68" y="24" width="2" height="1"/>
<rect x="73" y="24" width="2" height="1"/>
<rect x="77" y="24" width="1" height="1"/>
<rect x="79" y="24" width="1" height="1"/>
<rect x="18" y="25" width="2" height="1"/>
<rect x="23" y="25" width="4" height="1"/>
<rect x="31" y="25" width="3" height="1"/>
<rect x="35" y="25" width="1" height="1"/>
<rect x="39" y="25" width="3" height="1"/>
<rect x="43" y="25" width="1" height="1"/>
<rect x="46" y="25" width="1" height="1"/>
<rect x="50" y="25" width="4" height="1"/>
<rect x="56" y="25" width="1" height="1"/>
<rect x="61" y="25" width="2" height="1"/>
<rect x="65" y="25" width="4" height="1"/>
<rect x="73" y="25" width="2" height="1"/>
<rect x="78" y="25" width="1" height="1"/>
<rect x="35" y="26" width="1" height="1"/>
<rect x="43" y="26" width="1" height="1"/>
<rect x="34" y="27" width="2" height="1"/>
<rect x="42" y="27" width="2" height="1"/>
<rect x="30" y="28" width="5" height="1"/>
<rect x="38" y="28" width="5" height="1"/>
<rect x="16" y="30" width="328" height="1"/>
<rect x="290" y="83" width="38" height="1"/>
<rect x="290" y="84" width="38" height="1"/>
<rect x="290" y="85" width="38" height="1"/>
<rect x="290" y="86" width="23" height="1"/>
<rect x="325" y="86" width="3" height="1"/>
<rect x="54" y="87" width="1" height="1"/>
<rect x="89" y="87" width="1" height="1"/>
<rect x="290" y="87" width="23" height="1"/>
<rect x="325" y="87" width="3" height="1"/>
<rect x="33" y="88" width="6" height="1"/>
<rect x="54" y="88" width="1" height="1"/>
<rect x="89" y="88" width="1" height="1"/>
<rect x="290" y="88" width="23" height="1"/>
<rect x="325" y="88" width="3" height="1"/>
<rect x="33" y="89" width="1" height="1"/>
<rect x="38" y="89" width="2" height="1"/>
<rect x="54" y="89" width="1" height="1"/>
<rect x="89" y="89" width="1" height="1"/>
<rect x="290" y="89" width="23" height="1"/>
<rect x="325" y="89" width="3" height="1"/>
<rect x="33" y="90" width="1" height="1"/>
<rect x="39" y="90" width="1" height="1"/>
<rect x="43" y="90" width="4" height="1"/>
<rect x="49" y="90" width="1" height="1"/>
<rect x="51" y="90" width="2" height="1"/>
<rect x="54" y="90" width="1" height="1"/>
<rect x="58" y="90" width="2" height="1"/>
<rect x="64" y="90" width="1" height="1"/>
<rect x="66" y="90" width="3" height="1"/>
<rect x="70" y="90" width="3" height="1"/>
<rect x="77" y="90" width="4" height="1"/>
<rect x="85" y="90" width="3" height="1"/>
<rect x="89" y="90" width="1" height="1"/>
<rect x="93" y="90" width="3" height="1"/>
<rect x="290" y="90" width="23" height="1"/>
<rect x="325" y="90" width="3" height="1"/>
<rect x="33" y="91" width="1" height="1"/>
<rect x="39" y="91" width="2" height="1"/>
<rect x="42" y="91" width="1" height="1"/>
<rect x="46" y="91" width="1" height="1"/>
<rect x="49" y="91" width="2" height="1"/>
<rect x="54" y="91" width="1" height="1"/>
<rect x="57" y="91" width="1" height="1"/>
<rect x="64" y="91" width="2" height="1"/>
<rect x="68" y="91" width="2" height="1"/>
<rect x="73" y="91" width="1" height="1"/>
<rect x="76" y="91" width="1" height="1"/>
<rect x="80" y="91" width="2" height="1"/>
<rect x="84" y="91" width="1" height="1"/>
<rect x="88" y="91" width="2" height="1"/>
<rect x="92" y="91" width="1" height="1"/>
<rect x="96" y="91" width="1" height="1"/>
<rect x="290" y="91" width="23" height="1"/>
<rect x="325" y="91" width="3" height="1"/>
<rect x="33" y="92" width="1" height="1"/>
<rect x="39" y="92" width="2" height="1"/>
<rect x="46" y="92" width="1" height="1"/>
<rect x="49" y="92" width="1" height="1"/>
<rect x="54" y="92" width="1" height="1"/>
<rect x="56" y="92" width="1" height="1"/>
<rect x="64" y="92" width="1" height="1"/>
<rect x="69" y="92" width="1" height="1"/>
<rect x="73" y="92" width="1" height="1"/>
<rect x="76" y="92" width="1" height="1"/>
<rect x="81" y="92" width="1" height="1"/>
<rect x="84" y="92" width="1" height="1"/>
<rect x="89" y="92" width="1" height="1"/>
<rect x="92" y="92" width="1" height="1"/>
<rect x="96" y="92" width="2" height="1"/>
<rect x="290" y="92" width="23" height="1"/>
<rect x="325" y="92" width="3" height="1"/>
<rect x="33" y="93" width="1" height="1"/>
<rect x="39" y="93" width="2" height="1"/>
<rect x="42" y="93" width="5" height="1"/>
<rect x="49" y="93" width="1" height="1"/>
<rect x="54" y="93" width="3" height="1"/>
<rect x="64" y="93" width="1" height="1"/>
<rect x="69" y="93" width="1" height="1"/>
<rect x="73" y="93" width="1" height="1"/>
<rect x="76" y="93" width="1" height="1"/>
<rect x="81" y="93" width="1" height="1"/>
<rect x="84" y="93" width="1" height="1"/>
<rect x="89" y="93" width="1" height="1"/>
<rect x="92" y="93" width="6" height="1"/>
<rect x="290" y="93" width="23" height="1"/>
<rect x="325" y="93" width="3" height="1"/>
<rect x="33" y="94" width="1" height="1"/>
<rect x="39" y="94" width="1" height="1"/>
<rect x="42" y="94" width="1" height="1"/>
<rect x="46" y="94" width="1" height="1"/>
<rect x="49" y="94" width="1" height="1"/>
<rect x="54" y="94" width="1" height="1"/>
<rect x="57" y="94" width="1" height="1"/>
<rect x="64" y="94" width="1" height="1"/>
<rect x="69" y="94" width="1" height="1"/>
<rect x="73" y="94" width="1" height="1"/>
<rect x="76" y="94" width="1" height="1"/>
<rect x="81" y="94" width="1" height="1"/>
<rect x="84" y="94" width="1" height="1"/>
<rect x="89" y="94" width="1" height="1"/>
<rect x="92" y="94" width="1" height="1"/>
<rect x="290" y="94" width="23" height="1"/>
<rect x="325" y="94" width="3" height="1"/>
<rect x="33" y="95" width="1" height="1"/>
<rect x="38" y="95" width="2" height="1"/>
<rect x="42" y="95" width="1" height="1"/>
<rect x="46" y="95" width="1" height="1"/>
<rect x="49" y="95" width="1" height="1"/>
<rect x="54" y="95" width="1" height="1"/>
<rect x="57" y="95" width="2" height="1"/>
<rect x="64" y="95" width="1" height="1"/>
<rect x="69" y="95" width="1" height="1"/>
<rect x="73" y="95" width="1" height="1"/>
<rect x="76" y="95" width="1" height="1"/>
<rect x="80" y="95" width="2" height="1"/>
<rect x="84" y="95" width="1" height="1"/>
<rect x="88" y="95" width="2" height="1"/>
<rect x="92" y="95" width="1" height="1"/>
<rect x="290" y="95" width="23" height="1"/>
<rect x="325" y="95" width="3" height="1"/>
<rect x="33" y="96" width="5" height="1"/>
<rect x="42" y="96" width="5" height="1"/>
<rect x="49" y="96" width="1" height="1"/>
<rect x="54" y="96" width="1" height="1"/>
<rect x="58" y="96" width="2" height="1"/>
<rect x="64" y="96" width="1" height="1"/>
<rect x="69" y="96" width="1" height="1"/>
<rect x="73" y="96" width="1" height="1"/>
<rect x="77" y="96" width="4" height="1"/>
<rect x="85" y="96" width="3" height="1"/>
<rect x="89" y="96" width="1" height="1"/>
<rect x="93" y="96" width="4" height="1"/>
<rect x="290" y="96" width="23" height="1"/>
<rect x="325" y="96" width="3" height="1"/>
<rect x="290" y="97" width="23" height="1"/>
<rect x="325" y="97" width="3" height="1"/>
<rect x="290" y="98" width="38" height="1"/>
<rect x="290" y="99" width="38" height="1"/>
<rect x="290" y="100" width="38" height="1"/>
</g>
</svg>
